/* XPM */
static char *New_Project__19__resized[] = {
/* columns rows colors chars-per-pixel */
"80 80 256 2 ",
"   c #010100",
".  c #070703",
"X  c #171905",
"o  c #0F1011",
"O  c #241A03",
"+  c #291C12",
"@  c #1D2108",
"#  c #113012",
"$  c #292906",
"%  c #372603",
"&  c #343904",
"*  c #2B3618",
"=  c #283410",
"-  c #071520",
";  c #2E2F28",
":  c #172C2B",
">  c #482901",
",  c #473D00",
"<  c #5A3500",
"1  c #583306",
"2  c #6A3A00",
"3  c #633700",
"4  c #472820",
"5  c #144E13",
"6  c #2F481B",
"7  c #197012",
"8  c #3B5328",
"9  c #344726",
"0  c #29752C",
"q  c #27681B",
"w  c #4A4701",
"e  c #575207",
"r  c #794900",
"t  c #6B5201",
"y  c #7A6900",
"u  c #6C6A00",
"i  c #465730",
"p  c #566C39",
"a  c #587738",
"s  c #4C6831",
"d  c #657837",
"f  c #54631E",
"g  c #16375A",
"h  c #2E7545",
"j  c #31526E",
"k  c #366477",
"l  c #27454F",
"z  c #585558",
"x  c #4D544D",
"c  c #576D49",
"v  c #637B44",
"b  c #6E6E51",
"n  c #797B78",
"m  c #70716B",
"M  c #535E64",
"N  c #D03726",
"B  c #834900",
"V  c #885602",
"C  c #9B5A01",
"Z  c #A25C00",
"A  c #927105",
"S  c #B76D00",
"D  c #A87900",
"F  c #B76F05",
"G  c #85712E",
"H  c #C56B00",
"J  c #CC7B00",
"K  c #C47803",
"L  c #D77102",
"P  c #E67604",
"I  c #D34C31",
"U  c #D55312",
"Y  c #907A4D",
"T  c #E9545E",
"R  c #25990F",
"E  c #2FAF18",
"W  c #1C8921",
"Q  c #279B27",
"!  c #258C25",
"~  c #29A72B",
"^  c #36B42B",
"/  c #519037",
"(  c #678639",
")  c #76993D",
"_  c #4BB037",
"`  c #7CA43E",
"'  c #33C832",
"]  c #4DC836",
"[  c #388B49",
"{  c #678843",
"}  c #759848",
"|  c #718B4A",
" . c #7BA34A",
".. c #6FB755",
"X. c #74B956",
"o. c #7CBC56",
"O. c #77B957",
"+. c #65A851",
"@. c #669453",
"#. c #7DC35C",
"$. c #958F00",
"%. c #B08E01",
"&. c #A7A400",
"*. c #B6B000",
"=. c #81A53E",
"-. c #ABA02C",
";. c #D58200",
":. c #DA8500",
">. c #DD8A00",
",. c #D68D00",
"<. c #DA9500",
"1. c #C78805",
"2. c #E28500",
"3. c #E38C00",
"4. c #EA8F01",
"5. c #EC9301",
"6. c #EB9C00",
"7. c #E49800",
"8. c #FA9500",
"9. c #F49A00",
"0. c #FC9D00",
"q. c #F19600",
"w. c #F88D04",
"e. c #D5AD03",
"r. c #E9A600",
"t. c #F3A300",
"y. c #FEA200",
"u. c #FEAB00",
"i. c #F4AD01",
"p. c #ECB700",
"a. c #FEB300",
"s. c #FEBC00",
"d. c #F4B600",
"f. c #D0A132",
"g. c #C7C500",
"h. c #D8DA00",
"j. c #CED000",
"k. c #FFC300",
"l. c #FFCB00",
"z. c #F3C800",
"x. c #FDD300",
"c. c #FEDC00",
"v. c #F6DA00",
"b. c #F2C706",
"n. c #EAEB00",
"m. c #FEE400",
"M. c #FEEB00",
"N. c #F3E600",
"B. c #FFF400",
"V. c #FFFE00",
"C. c #F3F100",
"Z. c #DDE000",
"A. c #889751",
"S. c #AF904E",
"D. c #86AA4A",
"F. c #8BB449",
"G. c #88B346",
"H. c #94BC4D",
"J. c #83BE56",
"K. c #8ABF56",
"L. c #84BE58",
"P. c #8BB553",
"I. c #94BC54",
"U. c #95B955",
"Y. c #9EAC48",
"T. c #868E76",
"R. c #B09B76",
"E. c #92A76D",
"W. c #CBA045",
"Q. c #C8B27C",
"!. c #EFA355",
"~. c #8CC157",
"^. c #8BC258",
"/. c #86C358",
"(. c #94C356",
"). c #9AC457",
"_. c #95C458",
"`. c #9BC558",
"'. c #9ECA5A",
"]. c #9CCA57",
"[. c #9CD15D",
"{. c #90C750",
"}. c #A2CD5B",
"|. c #A0C757",
" X c #A5D25C",
".X c #A9D45D",
"XX c #ACD85F",
"oX c #A9D561",
"OX c #B5E364",
"+X c #EFD855",
"@X c #FFDC7E",
"#X c #FFD773",
"$X c #FFE37E",
"%X c #DDD64E",
"&X c #2B5A8F",
"*X c #376897",
"=X c #2D639B",
"-X c #355BA6",
";X c #3871AE",
":X c #436E91",
">X c #4179B2",
",X c #767B88",
"<X c #407BC0",
"1X c #827882",
"2X c #F86787",
"3X c #0089AE",
"4X c #5085B2",
"5X c #5BA196",
"6X c #0090C7",
"7X c #1598C4",
"8X c #04ACD8",
"9X c #00BAF1",
"0X c #25ACCE",
"qX c #559CC7",
"wX c #00C5FE",
"eX c #0BC0F9",
"rX c #0FCDF6",
"tX c #36DCFF",
"yX c #33CECB",
"uX c #7ADEF8",
"iX c #49D5BB",
"pX c #898A87",
"aX c #999999",
"sX c #908F8D",
"dX c #A49D8E",
"fX c #9BA093",
"gX c #ADA994",
"hX c #A7A6A7",
"jX c #B8B7BB",
"kX c #B2B0AD",
"lX c #A39FA9",
"zX c #C8BCAA",
"xX c #E3AA93",
"cX c #B6CDA2",
"vX c #D4C896",
"bX c #FAD988",
"nX c #FFE698",
"mX c #FFE7AF",
"MX c #CED9BA",
"NX c #86F2F9",
"BX c #A6F9FF",
"VX c #94DCE2",
"CX c #CAC9CB",
"ZX c #D6D7D8",
"AX c #D1CBCC",
"SX c #FCCED1",
"DX c #FFF6C8",
"FX c #FFFDD5",
"GX c #FFFFDB",
"HX c #FFF4D1",
"JX c #F4E5DD",
"KX c #E4E4E6",
"LX c #FEFEFE",
"PX c #F5F4F4",
"IX c #EFF7F4",
"UX c #D8E7E3",
/* pixels */
").).).).).`.`.`.`.`.`.`.`.`.`.).).).).).).).).).).).).).).).`.`.`.).`.).I.`.).).).).).).).).).`.`.`.`.`.`.`.).).).).).).).).)._.).`.`.`.`.).`.`.`.`.).).).`.).).",
").).).).).`.).).).`.`.`.`.`.).).).).).).).).).).).).).).).K.J.).).).`.}.}.`.).).).).).).).`.).`.`.`.`.`.`.`.`.).).).).).).).).).).`.`.`.`.`.`.`.`.`.).).K.J.).).",
").).).).).`.`.`.).`.|.`.).`.).).).).).).).).).).).).`._.O.J.o.o.~. X].D.A.).`.).`.`.).).).).).`.`.`.`.`.`.`.`.).).).).).).).).).`.`.`.`.`.).`.`.`.`._.O.J.o.o./.",
"(.).).).`.`.).`.`.`.~.).`.).).).).).).).(.).).).`.).).).o._.).o.].} 6 5 5 6 P.`.I.).).).).`.).`.`.`.`.`.`.`.`.).).).).).).).).).`.`.`.`.`.`.`.`.`.).).o.).`.o.~.",
").).).`.`.`.).`.^.^...~.^.`.`.).).).).`.).`.).`.`.`.`.`.`.).). X( # W Q ~ Q 6 ).`.`.`.`.).`.`.`.`.`.`.`.`.`.).).).`.`.).).).).).`.`.`.`.`.`.`.`.`.`.`.`.`.`.].).",
").`.`.).`.`.).|.o.o.(.~.O.`.`.).).`.`.).`.).`.`.`.`.`.`.`.).`.I.6 ! Q ! ~ ' W s  XI.`.).).).`.).`.`.`.`.`.`.`.).`.).`.`.).).).).`.`.`.`.`.`.`.`.`.`.`.`.`.).).`.",
"`.`.`.`.`.`.`.`._._.|.(.(.`.`.`.`.`.).`.`.`.`.`.`.`.`.`.`.).`.U.5 Q Q ~ ~ ~ ' 5 D.}.).`.`.`.].).`.`.`.`.`.`.`.`.).`.).`.).).).`._.`.`.`.`.`.`.`.`.`.`.`.`.`.`.`.",
"`.`.`.`.`.`.`.`.`.).).`.`.`.`.`.`.`.`.`.`.`.`.`.`.`.`.`.`.`.`. Xd 5 W ~ Q ~ ' ~ s  X).`.`.`.).).`.`.`.`.`.`.`.`.`.`.`.(.(.X.L._.`.`.`.`.`.`.`.`.`.`.`.`.`.`.`.`.",
"`.`.`.`.`.`.`.`.).).`.`.).).`.`.`.`.`.`.`.`.`.`.`.`.`.`.`.`.).).}.} 6 5 W Q ~ ^ q I.'._.).).`.).`.`.`.`.`.`.`.`.`.).|.J.X.K.K...`.`.`.`.`.`.`.`.`.`.`.`.`.`.`.`.",
"`.`.`.`.`.`.`.`.`.`.`.`.'.).'.).`.`.`.`.`.`.`.`.`.`.`.`.`.).).).).{.o.s 5 W ~ ' q A.[.`.).].^.~.`.`.`.).`.`.`.`.`.`.`._.K.|.(.K.`.`.`.`.`.`.`.`.`.`.`.`.`.`.`.`.",
"`.`.`.`.`.`.).`.`.`.`.`.`.`.).).).`.`.).`.`.).`.`.`.).).`.).).`. X X[.OXi 7 Q ^ 7 A.}._.(.o.J.o.J.K.`.).`.`.`.`.`.`.).`.`.).).`.`.`.`.`.`.`.`.`.`.`.`.`.`.`.`.`.",
").`.).).).).).).`.`.`.`.`.`.`.).).).).).).).).).).).).).).oXoXU.) p i i * 5 W ' q | oXoX).X.(.).o.^.'.`.`.`.`.`.).).).).).).).).).).).`.`.`.`.`.`.`.`.`.).).).).",
"`.`.`.`.`.`.`.'.`.`.`.`.`.`.`.`.`.`.`.`.).).).).`.).).oX).{ 6 $ w u &.*.2 # 7 ~ 5 % * a P.oX].).`.`.).`.`.`.`.`.`.`.).'.`.`.).`.`.`.`.`.`.`.`.`.`.`.`.`.).).`.`.",
").).).`.).).`.`.`.`.`.`.`.`.`.).).).).`.`.].J.(.).oX).s @ e &.C.V.V.V.V.b.t 6 & V p.j.u $ i K..X`.`.`.`.`.`.`.`.).).).).).).).).`.`.`.`.`.`.`.`.`.`.`.`.).).).).",
").).`.).'.).o._.`.`.`.`.`.`.`.`.`.).`.`.~.J.O././.d @ u Z.V.V.V.B.x.m.V.V.V.B.M.M.M.V.V.C.$.$ p  X`.).`.).).`.`.).`.).).).).).).`.`.`.`.`.`.`.`.`.`.`.`.).).).).",
").).).`.o.o.o.J.o.`.`.`.).`.).).).).).`.~.X. X{.: & h.V.m.m.V.l.u.s.V.c.s.C.V.V.V.c.M.V.V.V.n.e * U. XI.'.`.).).).).).).).).).).).`.`.`.`.`.`.`.`.`.`.`.).).).).",
").)._.`.L.K.|.K./.`.).`.`.).).).).).`.`.)..X .X $.V.M.a.c.B.s.u.u.B.m.u.k.V.V.V.V.B.m.V.V.B.M.V.&.@ } oXK.(.].).).).).).).).).).).`.).`.`.`.`.`.`.`.`.`.).).).).",
").).).).`.`.`.`.`.`.`.`.`.).).).).).`.I. X( X g.V.k.8.c.M.y.u.u.k.B.u.a.s.V.V.V.V.V.x.c.V.B.B.l.V.h.$ { #.o.~.).).).).).).).).).).).).`.`.`.`.`.`.`.`.`.).).).).",
").).).).I.).).).`.`.`.`.).`.`.).).).I..X{ X Z.B.i.8.z.M.y.u.u.y.v.k.y.a.a.m.V.V.V.V.N.s.x.k.m.M.s.V.n.$ ( [...).)._.).).).).).).).`.`.`.`.).`._.).K./.`.).).).).",
").).).).`.`.`.`.`.`.).`.`.`.`.).).(. X} $ Z.m.y.y.i.m.y.u.u.u.r.c.u.a.a.s.k.V.V.V.V.B.d.k.k.k.M.x.a.B.n.$ } '.(.).).).).).).).(.).`.).`.`.).`._.o.o./.o.(.`._.).",
").).).).`.`.`.`.(.^.X.~.(.).).).`.|.P.X j.m.8.u.7.c.a.y.u.a.9.z.k.y.a.a.a.s.l.V.V.V.M.p.s.l.k.l.N.d.s.M.h.@ P.`.).).).).).).).).).).).`.`.`.`._.o.).).o._.).).).",
").).).).`.`.`.|.o.o.~.J.X.).).).I.|.# &.M.8.u.5.p.k.0.y.y.u.7.z.u.u.u.a.s.k.s.l.m.x.l.z.i.l.l.s.c.z.d.s.V.*.= '.).).).).).).).).).`.).`.`.`.`.`.].).`.`.).).).).",
").).).).`.`.`.`._.(.|._.~.).).(.oXi u B.8.y.8.<.x.0.y.y.u.y.7.l.y.u.a.a.a.s.k.k.l.k.k.v.r.l.l.k.k.c.r.k.s.V.u i  XI.`.`.(.).).).).).).`.`.`.`.`.).).).`.).).).).",
").).).).`.`.`.`.`.`.`.`.`.).).}.D.$ N.u.y.u.2.p.a.0.u.u.u.6.r.a.y.u.u.a.s.s.k.k.l.k.k.x.7.s.l.k.s.x.b.6.l.k.V.& } }.I.).).).).).).`.`.`.`.`.`.`.).).`.).).).).).",
").).).).`.`.`.).).`.`.`.).).)..X9 $.x.8.y.q.<.k.0.y.y.u.u.3.d.u.y.u.u.a.s.s.k.k.l.k.k.l.r.i.k.k.k.s.x.<.s.s.m.*.* .X).).).).).).).).).`.`.`.`.`.`.`.`.`.)._.).).",
").).`.`.`.`.`.).`.`.`.`.).).}. .& c.0.y.y.2.r.u.0.y.y.y.y.>.d.y.u.u.a.a.s.s.s.k.k.k.k.k.r.r.l.k.k.s.l.r.6.l.s.B.e {  X(.).).`.`.).).`.`.`.`.`.`.`.`.`.`.).`.`.).",
").).).).`.`.`.`.`.`.`.`.).(..X8 $.k.8.y.q.:.d.y.y.y.y.u.9.<.a.0.y.u.u.a.s.s.k.k.k.k.s.k.p.3.l.k.k.s.k.z.:.s.s.l.g.* }.].`.`.(.K.).).`.`.`.`.`.`.`.`.`.`.`.`.).`.",
"`.`.`.`.`.`.`.`.`.`.`.`.].].~.= p.y.0.y.3.<.u.0.y.y.y.u.5.7.u.y.u.u.u.a.a.s.s.s.k.k.s.s.d.>.k.k.k.s.s.l.,.t.k.a.M.w |  X).o.J.O.K.L.|.).`.`.`.`.`.`.`.`.`.`.`.`.",
").).`.).).).`.`.`.`.`.`.). X{ e k.8.y.0.:.7.u.0.y.y.y.u.3.7.y.y.y.u.u.a.a.a.s.k.s.k.s.s.s.>.a.k.s.s.s.k.7.3.k.s.l.&.8 .X).X.~.`.o.K.`.).`.`.`.`.`.`.`.`.).).).).",
"`.`.`.`.`.`.`.`.`.`.`.`.)..Xs A a.0.y.q.;.t.y.0.0.0.y.y.:.r.y.y.y.u.u.a.s.s.s.s.k.s.s.s.s.>.i.k.s.s.s.s.p.:.a.s.a.v.& P.].).).).).).`.`.`.`.`.`.`.`.`.`.`.`.`.`.",
"`.`.`.|.K.^.|.`.`.`.`.`.).}.9 1.u.0.y.5.:.t.0.y.y.y.y.y.:.t.y.0.y.u.u.a.a.s.a.l.p.s.s.a.d.,.t.k.a.s.s.a.d.:.t.s.a.x.t {  X).`.`.`.`.`.`.).`.).J.).`.`.`.`.`.`.`.",
").`.K.L.o.J.J.(.`.`.`.`.).'.* <.y.0.y.3.:.t.y.0.y.0.y.0.:.9.y.0.y.u.u.u.a.a.k.e.S a.s.s.a.>.t.s.s.s.s.a.a.:.7.k.a.l.$.8 .X).).).).).`.`.`./.L.O./.L.`.).).).).).",
"`.`.^.X._.(.O.(.`.`.`.`.`.`.= 2.y.0.0.3.:.0.y.0.y.y.y.9.:.9.y.y.y.u.u.u.a.s.e.X Z t.s.a.a.>.6.s.a.a.s.a.s.>.7.<.d.s.e.6  X).).).`.`.`.).`.o.^.).L.o.`.).`.`.`.`.",
"`.`.).).).`.).).`.`.`.`.`.|.* J y.y.0.>.:.0.y.y.0.0.y.9.:.q.y.0.y.y.u.u.u.k.f . 2 ;.a.a.a.>.7.s.s.a.a.a.a.9.%.C i.a.d.& U.'.`.).`.`.`.`.`.`.`.|.).).).).`.`.`.`.",
"`.`.`.`.).).`.`.`.`.`.`.).}.* S y.y.0.>.>.9.y.0.y.0.y.q.:.q.y.0.y.y.u.u.u.+XUXPXgXH t.a.u.>.7.s.a.a.a.a.a.r.X > t.a.s.,  .}.).`.`.`.`.`.`.`.`.`.`.`.).`.`.`.`.).",
"`.`.).).).`.).`.`.`.`.`.). X8 C 0.y.0.3.:.0.y.0.y.0.y.q.:.9.y.y.y.y.u.y.b.NXBXLXLXS.;.s.u.:.7.a.a.a.a.u.s.f.1XY J a.s.w } }.).).`.`.`.`.`.`.`.`.`.`.`.`.`.`.).).",
").).).).`.`.`.).`.`.`.`.). Xa 3 5.9.y.3.:.q.0.0.y.0.y.9.:.5.y.0.y.y.t.k.MXwXuXLXLX5XH i.u.:.6.a.a.a.a.u.s.UXLXPXK t.a., } }._.).).`.`.`.`.`.`.`.`.`.).).).).).).",
").).).).).`.).).`.`.`.`.).|.P.$ ;.3.y.q.:.5.y.y.0.y.0.9.:.w.u.y.0.0.a.e.NXwX8XqX0X9XK 3.y.:.7.a.a.u.u.u.%XtXLXLXS.5.u.%  .[.).).).`.).`.).`.`.`.`.`.'.).).).).).",
").).).).`.).).`.).`.`.`.`.). X8 B 5.3.9.:.3.y.0.0.y.y.0.2.2.w.w.y.u.e.  5XBXrX6X9X7X2 J 9.:.6.a.u.a.u.k.VX9XVXuX5XP 5.% +./.^._.`.`.).`.`.).`.`.`.`.`.).).).).).",
").).).).).`.`.).).`.(.K.`.`.|.P.O J >.3.3.:.9.s.a.0.0.y.P xXSXT I w.e.A A cXiXyXyX# O F ,.:.9.a.u.u.a.D iXtX3X8X5XH K = ^.K..._.`.).`.`.`.`.`.`.`.`.`.`.).).).).",
").).).).).).).).`././.X.K.K.`..X{ O 2.:.:.:.3.k.x.u.0.y.L T xX2XT N P a.a.a.a.a.a.r.e.i.<.;.t.u.u.u.s.& b NXwX9X- C r 8 .X).~.).).).).`.`.).`.`.`.`.).).).).).).",
").).).).).).).).`.o./.`.J.J.`._. Xs > 2.3.:.:.9.k.u.0.y.7.U N T I N U y.<.1.7.t.y.y.u.a.5.4.a.a.u.u.u.p.,.-.%X-.V K t { }.).).).).`.`.`.`.`.`.`.`.).).).).).).).",
").)._.).`.).).).`.`.`.`.).).).).U. Xs % J 6.:.:.5.y.y.0.0.>.L L L P 0.y.e.. X ,.a.s.y < r V D 1.<.6.y.9.,.5.0.!.SXT N Y.).).).).).`.`.`.`.).`.`.`.`.).).).).).).",
").).).).).).).).`.`.`.).).).).).`.). X( O B 4.4.>.2.9.y.y.5.,.6.y.y.y.0.a.%.  3 Z %.X             3 y.u.1.3 1.I T T N Y.`.).).).).`.).`.).`.`.`.'.).).).).).).).",
").).).).`.).`.).`.`.`.`.`.).`.).).).U. XP.9 % Z 4.5.2.3.q.0.3.:.5.y.y.0.0.a.%..       . . .   .   O r V y r 4.H > G Y.`.).).).).`.`.`.`.`.`.`.`.).`.).).).).).).",
"`.).`.).`.`.'.`.`.`.`.`.`.`.`.`.`.`.`.).`. X} * % B J 4.5.5.3.:.:.4.0.0.y.0.u.p.y @                   O D 5.Z O a [.'.).).).).).`.`.`.`.`.`.`.`._.).o.^.(.).).).",
").).).).`.`.).).`.`.`.`.`.`.`.`.`.).).).).(. X X} i = > V S 2.5.5.4.4.q.q.8.5.q.t.<.D u , $ $ % 1 y 1.6.S > = } .XU.).).).).).).`.`.`.`.`.`.`.|.o.o.J.J.X.).`.`.",
"`.`.`.).'.`.`.).`.).`.`.`.`.`.`.`.`.`.).).).).).|.XX|.} * - % < r Z S J :.3.5.5.3.5.y.y.t.i.t.7.,.S r % = v '.}.).|.`.`.`.`.`.).`.`.`.`.`.`.`.].^.~.|.(.L.`.`.`.",
"`.).`.).).).`.`.`.`.`.`.`.`.`.`.).).).).).).).(.'.D. .#.0 &Xj 7 5 5 # + $ > 1 < 3 2 2 3 < < > % $ * s } /.[.`.).).).`.).).`.).).`.`.).o.).`.`.`.`.}.`.`.`.`.`.`.",
"`.).).`.`.).`.`.'.).`.`.`.`.`.`.].`.).).).).).].U.a _ ' E 0 k ^ ' ] h -X0 _ | ( a a p a a { } P.K.oX[./.o.o.o.).`.).).`.`.).`.).`.J.K.O./.o.`.).`.`.`.`.).`.`.`.",
"`.`.`.`.`.`.`._._.O.L._.).`.`.`.`.`.`.`.`.)._.[.( ^ ^ ^ E 7 j Q ^ _ 0 -X[ _ U.oX.X.XoX X.X X}.}.`.`.^.o.'._.o._.'.).`.`.`.`.`.`.`.o.^.`./.J.).).`.`.`.`.`.`.`.`.",
"`.).`.`.`.).|.L.O.K.L...).`.`.`.`.`.`.`._.^.O.{ # 7 R R R q j R E E W -X[ / } }.(.(.).I.).).).).`.`.).'.`.).`.`.).).`.).`.).`.`.`.).).`.).).).).`.`.`.`.`.).`.).",
").`.`.).)._.`._.^.}.).^.).`.`.).`.).).`.K.X._. .b zXR.q 7 : k R R E 0 &Xh / P.`.).).).).).`.`.`.`.`.`.`.`.`.`.`.).).).).).`.).`.).).`.`.`.`.`.`.`.`.`.`.`.).).).",
"`.`.`.`.`.`.`.`.`.).).`.`.`.`.`.`.`.`.`.(.^. XF.vXmXbXS.# M k k *X:Xj pX- s }.).).).`.`.`.`.`.`.`.`.`.`.`.`.`.`.).).'.`.`.`.`.`.`.`.`.`.`.`.`.`.`.`.`.`.`.`.`.`.",
").`.).).).`.`.`.).`.`.).`.`.`.).`.).).).).).'.I.vXmX#XW.g M k ;X>X>Xj j 9 D.}.).).`.).).).`.`.`.`.`.`.`.`.`.`.`.).`.`.).).).`.).).).`.`.`.`.`.`.`.`.`.`.`.`.).`.",
"`.).).`.`.).`.`.`.`.`.`.`.`.`.).).).).).).).`.P.MXDXnX+Xm =Xj *X:X*X*X;Xc  X).).).).).).).`.`.`.`.`.`.`.`.`.`.`.).).).).).`._.K.`.`.`.`.`.`.`.`.`.`.`.`.).).).).",
").).).).`.).`.`.`.`.`.`.`.`.).).).).).).).(.'.D.zXGXvXS.x =X&X;X<X>X=X:Xb {.`.`.).).).).).).).`.`.`.`.`.`.`.`.).).).).).).L.K.../.K.`.).`.`.`.`.`.`.`.).).).)._.",
").).).).).`.).).`.`.`.`.`.).).).).).).).).).).H.E.zXdXZXKXm g =X;X-X&Xj c ].).`.).).).).).).).).`.`.`.`.`.`.).).).).).).).X.K._.o.J.|.).`.).`.`.`.`.`.).).).).).",
").).).).`.`.`.).`.`.`.`.).'.).).).).).).).).).}. .n LXPXPXAXz ,Xm j g ;Xk ` }.).).).).).).`.).).`.`.`.`.`.`.`.).).).).).).(.(.`._._.`.`.`.`.'.).`.`.).).).).).).",
").).).).`.).).`.`.`.`.`.).).).).).).).).).).).'.D.fXLXIXaXgXPXPXZX: =X<X<Xx ).).).).).).I.(.|.].`.`.`.`.`.`.).`.).).).).).`.).).).).`.`.`.).).).`.`.).).).).).).",
").).(.).`.`.).`.`.`.`.`.`.`.).).).).).).).).`.`.].| KXdXvXQ.zXjXz W.j >XqX;Xv `.).`.~.~.X.L.K.`.`.`.`.`.`.`.`.).).).).).).).).).).`.).`.`.`.`.`.`.`.`.`.).).).).",
").).).).`.`.`.`.).`.`.`.`.`.).).I.).).).).).).`.).(.x R.nXdXKXKXpXQ.x ;X&Xg * P.`.`.J.X.I.K.X.].`.`.`.`.`.`.).).).).).).).).).).).`.`.`.`.`.`.`.`.`.`.).).).).).",
").).).).).`.)._.`.`.).`.`.`.`.).).).).).).).`.`.U.}.{ sXgXKXPXAXKXKXl g Y R.v ).).).(.(.`.).(.`.`.`.`.`.`.`.).).).).).).).).).).).).).`.`.`.`.`.`.`.`.`.).).).).",
").).).).)._.K.X._._.'.`.`.`.).).).).).).).).`.`.U.oX{ x LXLXZXAXz z - 1 bXPX| H.`.).`.`.).`.`.`.`.`.`.`.`.).).).).(.).).).).).(.).`.`.`.`.`.`.`.`.`.`.).).)._.).",
").).).).`.O.J.K.o.o.|.`.`.`.`.`.).).).U.`.|.`.|.}._.( e kXAXsXm b Y Y d bXHXzXG.'._.`.`.).`.`.`.`.`.`.`.`.`.`.).).).).).).).).).).`.`.`.`.`.`.`.).`.`.).).).).).",
").).`.).`.K.(.`.^.K.`.`.`.`.`.`.`.).'.}.H.D.I.D.} G W.bXQ.dXz f bXY xXS.#XHXkXG.'.`.`.`.`.`.`.`.`.`.`.`.`.`.).`.).`.`.`.`.).`.`.).`.`.`.`.).`.`.).).`.`.).).`.`.",
").).).).`.`.`.`.'.`.`.`.`.`.`.`.`.}.I.D.m pX; m pX!.nXmXGXJXE.].| b d d @XHXdXG.'.).`.`.).`.`.`.`.`.`.`.`.`.`.).).`.).).).`.`.).).`.`.`.`.`.`.`._.).o.^.).`.`.`.",
").).).`.`.`.`.`.`.`.`.`.`.`.`.`.'.| i . z 1X; x aXgXFXMXsXA.(.`.|.|.U.-.@XFXgXG.'.).`.`.`.`.`.`.`.`.`.`.`.`.`.`.`.`.`.).`.`.`.`.`.`.`.`.`.).).'.K.o.J.L.X.`.`.`.",
"`.`.`.`.`.`.`.`.`.`.`.`.`.`.`.).}.i jXx . o ; + o m fX{ F.].].).`.`.`.d S.vXdXP.oX}.`.).).).`.`.`.`.`.`.`.`.`.`.`.`.`.'.).`.`.`.`.`.`.`.`.`.`.`.K.L.|._.o.).`.`.",
"`.`.`.`.`.`.`.`.`.`.`.`.`.`.`.).}.D.n CXx hXhXkXm X +.^. X).).).`.}.} aXKXjXsXp ` } H.}.).).).).`.`.`.`.`.`.`.`.`.).).).`.`.).`.`.`.`.`.`.`.).'.`.`.`.`.'.`.`.`.",
"`.`.`.`.`.`.`.`.`.`.`.`.`.`.).).).oXd kXlXaXPXKXLXhX( [.).`.).).`.}.D.m sXm ; z fXfXm ( }.`.`.).`.`.`.`.`.`.`.`.`.`.`.`.`.`.`.`.`.`.`.`.`.`.).`.`.`.).).).`.`.`.",
").`.`.`.`.`.`.`.`.`.`.`.`.`.).).).).].p CXm AXPXLXLXm F.'.).).).U.|.| ; ; + 1XLXLXLXLXaXa './.o.`.).`.`.`.`.`.`.`.).`.`.).`.`.`.|.`._.`.`.`.`.`.`.`.`.'.).).).`.",
").`.).`.).`.`.`.`.`.`.`.).`.`.).).).`.G.m CXn PXPXLXhX) [.).).).'.F.T.Y : M LXKXPXLXLXLXpX/ ^.K.X.^.`.`.`.`.`.`.).).).).).).).`.K.(...^.(.).).`.`.`.`.).).).).`.",
"`.`.`.`.`.`.`.`.`.`.`.`.].K._.|.`.).). X( hXhXhXLXLXhX) }.).).).'.D.n z + jXKXKXKXZXCXjXpXs  X`.K.^.`.`.`.`.`.`.`.`.`.`.).).).`.o.J.K.L.X.`.).).`.`.`.`.`.).`.`.",
").).).`.`.`.).'.`.`.'.K.K.O.L.L._.`.).).}.p CX1XZXLXm G.}.).).).'.U.X   : 1XsX1XaXaXfXkXlXx H.`.`.].`.`.`.`.`.`.).).).`.).).).).~.(.`.)._.`.`.`.`.`.`.`.'.).).).",
").).).).`.`.).).`.`.|.K.X.).^.X.).`.).).}.G.T.KXpXhXd  X).`.).).[.} z hXjXjXjXjXhXhXhXhXT.p (.`.`.`.`.`.`.`.`.).).).).).).).).).`.`.).`.`.`.`.`.`.`.`.`.).).)._.",
").).).).).).`.).`.`.`.`.).).)._.).).).).I. X( fX,X8 }.`.).).`.).'.A.z T.| | v d ( ) ) =.F.`.`.`.`.`.`.`.`.`.`.).).).).).)._.).).).`.`.`.).).`.`.`.`.`.`.`.`.).).",
").).).).).).`.).`.`.`.`.).).`.).).).).).).). Xp p _.'.).).).`.`.`.`.H.F.U.].}.}. X}.}.}.'.).`.`.`.`.`.`.`.`.`.).).).).).).).).).).`.`.`.`.).`.`.`.`.`.`.`.).).).",
").).).).).).).).`.`.`.`.).).).).).).).).).).).`.|.).).`.).`.`.`.`.`.'.`.'.`.(.).).).).).).).).).`.`.`.`.`.`.`.).).).).).).).).).).`.).`.`.`.`.`.'.).`.`.).).).).",
").).).).).).).).`.`.`.`.'.).).).).).(.).).).).).|.U.`.`.`.`.`.`.`.`.`._.`.`.).).)._.).).).).).).`.`.`.`.`.`.).).).).).).).).).).).`.).`.`.).`.`.).).`.).).).).)."
};
