/* XPM */
static char *New_Project__11__resized[] = {
/* columns rows colors chars-per-pixel */
"80 80 255 2 ",
"   c #010100",
".  c #0A0901",
"X  c #191907",
"o  c #161411",
"O  c #291C02",
"+  c #2B1A0F",
"@  c #172B0F",
"#  c #262705",
"$  c #392703",
"%  c #3A3902",
"&  c #242C15",
"*  c #2B3618",
"=  c #2F3810",
"-  c #241D21",
";  c #2F332E",
":  c #022632",
">  c #542C00",
",  c #573300",
"<  c #4B2900",
"1  c #6C3B00",
"2  c #633300",
"3  c #743F00",
"4  c #56291F",
"5  c #124E11",
"6  c #2E4617",
"7  c #187014",
"8  c #236E19",
"9  c #364A26",
"0  c #3C5429",
"q  c #2D4C24",
"w  c #28752C",
"e  c #474501",
"r  c #554500",
"t  c #555600",
"y  c #7A4300",
"u  c #6D5008",
"i  c #797600",
"p  c #6F6500",
"a  c #425A2C",
"s  c #485236",
"d  c #496635",
"f  c #546938",
"g  c #577539",
"h  c #4E672A",
"j  c #6A7636",
"k  c #69562B",
"l  c #1B354F",
"z  c #193B62",
"x  c #2B4C51",
"c  c #2C6B4F",
"v  c #254B77",
"b  c #2C5073",
"n  c #376A74",
"m  c #1D496A",
"M  c #52524C",
"N  c #54664B",
"B  c #657846",
"V  c #6A6D54",
"C  c #72726F",
"Z  c #515F6F",
"A  c #D13222",
"S  c #874B00",
"D  c #8E5701",
"F  c #936D00",
"G  c #AD6301",
"H  c #A66701",
"J  c #B77103",
"K  c #B56900",
"L  c #AE5626",
"P  c #CF500A",
"I  c #C76B00",
"U  c #C47702",
"Y  c #D77801",
"T  c #D76208",
"R  c #D85035",
"E  c #D67322",
"W  c #8A7C6C",
"Q  c #88774D",
"!  c #E94A53",
"~  c #ED6E4C",
"^  c #DC3742",
"/  c #269A0D",
"(  c #2DAD14",
")  c #1C8C21",
"_  c #279827",
"`  c #2A882C",
"'  c #2EAD2A",
"]  c #16830C",
"[  c #53893C",
"{  c #789C3C",
"}  c #698337",
"|  c #45B931",
" . c #32C72F",
".. c #47C532",
"X. c #3E9048",
"o. c #698B44",
"O. c #779849",
"+. c #758F50",
"@. c #7BA348",
"#. c #74B956",
"$. c #7CBB56",
"%. c #77B957",
"&. c #70B055",
"*. c #788A70",
"=. c #599D46",
"-. c #75CC53",
";. c #928200",
":. c #969600",
">. c #858600",
",. c #B29001",
"<. c #AAA900",
"1. c #B8B900",
"2. c #9E8533",
"3. c #D68300",
"4. c #DA8500",
"5. c #DD8A00",
"6. c #D68901",
"7. c #C89601",
"8. c #DC9500",
"9. c #CE8700",
"0. c #E48C00",
"q. c #E68B00",
"w. c #E49400",
"e. c #EB9301",
"r. c #E39C00",
"t. c #EC9B00",
"y. c #F19600",
"u. c #F49B00",
"i. c #FC9D00",
"p. c #FA9500",
"a. c #F98A02",
"s. c #D9A800",
"d. c #D2AF06",
"f. c #EAA600",
"g. c #F3A400",
"h. c #FEA200",
"j. c #FEAB00",
"k. c #F3AA00",
"l. c #E9B501",
"z. c #FEB300",
"x. c #FEBB00",
"c. c #F4B800",
"v. c #EABD12",
"b. c #EEA43D",
"n. c #CAC900",
"m. c #D3D200",
"M. c #EDC600",
"N. c #FFC300",
"B. c #FFCB00",
"V. c #F7C903",
"C. c #FED400",
"Z. c #FDDB01",
"A. c #F5D700",
"S. c #E9D500",
"D. c #FCE300",
"F. c #FFEC00",
"G. c #F2EE00",
"H. c #FEF300",
"J. c #FFFE01",
"K. c #E8E200",
"L. c #8A9B4C",
"P. c #B0955E",
"I. c #85A94A",
"U. c #8DB74A",
"Y. c #92BB4D",
"T. c #87AC52",
"R. c #83BD56",
"E. c #8ABE56",
"W. c #84BE58",
"Q. c #8BB753",
"!. c #94BA53",
"~. c #A0A644",
"^. c #91926F",
"/. c #AC976C",
"(. c #92A274",
"). c #D4A74F",
"_. c #D6AB64",
"`. c #86C056",
"'. c #8CC157",
"]. c #8CC158",
"[. c #8ACA5B",
"{. c #94C356",
"}. c #9AC457",
"|. c #95C358",
" X c #9BC558",
".X c #9DCA5A",
"XX c #9ACB58",
"oX c #9BCE58",
"OX c #A1CC5B",
"+X c #A0C757",
"@X c #A5D25C",
"#X c #A9D55E",
"$X c #AAD95F",
"%X c #ADDB60",
"&X c #A4DC6D",
"*X c #FFD767",
"=X c #F9D64B",
"-X c #2C588A",
";X c #356697",
":X c #396A85",
">X c #345CA6",
",X c #3C73AA",
"<X c #3770A9",
"1X c #4D6882",
"2X c #417AB7",
"3X c #F46A8B",
"4X c #0189B0",
"5X c #5B8EAA",
"6X c #12ABD6",
"7X c #00BAFB",
"8X c #09B6E9",
"9X c #4787C7",
"0X c #55BEDB",
"qX c #00CAFF",
"wX c #00C4FF",
"eX c #19D0F0",
"rX c #2ECEDD",
"tX c #4EE0FF",
"yX c #888786",
"uX c #979796",
"iX c #908F8B",
"pX c #AEA693",
"aX c #A29FA6",
"sX c #A8A7A7",
"dX c #B8B8BA",
"fX c #B2AFAB",
"gX c #969F91",
"hX c #CCB891",
"jX c #FFBCB8",
"kX c #BDC1B7",
"lX c #F7D98F",
"zX c #FFE489",
"xX c #FFE79B",
"cX c #FFE8A6",
"vX c #FFF5BC",
"bX c #F6EEB9",
"nX c #E0D2A8",
"mX c #BCB9C2",
"MX c #E0BBCE",
"NX c #81FBFF",
"BX c #94E9F5",
"VX c #A0FEFF",
"CX c #BAEDF3",
"ZX c #97DBD4",
"AX c #C5C4C6",
"SX c #D7D8DA",
"DX c #CDCFD1",
"FX c #E6DAC5",
"GX c #FFF6C3",
"HX c #F9ECD0",
"JX c #E8E8EA",
"KX c #FEFEFE",
"LX c #F5F6F7",
"PX c #F1F0EF",
"IX c #E1DDE7",
/* pixels */
"}.}.}.}. X X}.}. X X X X X X X}.}.}.}.}.}.}.}.}.}. X X X}..X X X X}.}.}.}.}.}.}.}.}.}.}.}.}.}.}.}. X X X X X}. X}.}.}.}.}.}.}.}.}. X}. X X X X X X X}.}. X X X}.",
"}.}.}.}.}. X}. X X X X X X X}.}.}.}.}.}.}.}.}.}.}.}. X}.}.Q.R.}.}.}.{.{.XX}.}.}.}.}.}.}.}.}.}.}. X X X X X X X}.}.}.}.}.}.}.}.}. X X X X X X X X X X}.}.E.$. X}.",
"}.}.}.}.}. X}. X X}. X X}. X}.}.}.}.}.}.|.}.}.}.}.}. X|.#.R.W.%.E.OX@X{.U.OX X}.}.}.}.}.}.}.}.}. X X X X X X X}.}.}.}.}.}.}.}.}. X X X X X X X X}. X|.%.E.$.%.E.",
"}.}.}.}. X X}.}..X.XE.}. X X}.}.}.}.}.}.}.}.}.}.}.}..X|.%.|.}.W.XXT.a 6 5 a !.}.}.}.}.}.}.}.}.}. X X X X X X X}.}.}.}.|.}.|.}.}.|. X X X X}. X X.X X.X%.|. XR.'.",
"}.}.}.}. X X X X].].#.E.E.}. X}.}.}. X}.}. X}. X X X X X X}. XOXO.@ 7 _ _ ) a +X}.}.}. X}. X X X X X X X X X X X}.}.}. X}.}.}. X X X X X X X X X}.}.}..X}.}.}.}.",
"}.}.}.}. X X X+X$.%.|.E.%..X X}.}. X}. X X}. X X X X X X}.}.+X!.q ) _ ` _  .7 j #X!.}.}.}. X X X X X X X X X X X X X X}.}. X X}. X X X X X X X X X}. X X}.}.}.}.",
"}.}.}..X X X X X|.|. X}.|. X X X X X X X X}. X X X X X X.X}..XQ.5 ' _ ' ' '  .5 U.OX}. X X X X X X X X X X X X X X X}.}..X!.}. X X X X X X X X X X X X X X X X X",
"}.}.}.}. X X X X.X}.}.}. X X X X X X X X X X X X X X X X}.}.}.OXd 5 _ ' _ '  .) f @X}. X X X X X X X X X X X X X X X.X{.{.#.W.|. X X X X X X X X X X X X X X X X",
" X X X X X X X X}.}. X X X X X X}.}. X X X X X X X X X X}..X}.}.}.o.@ 5 _ _ '  .q  X X X X XXX X X}. X X X X X X X X+XR.#.E.R.#. X X X X X X X X X X X X X X X}.",
" X X X X X X X}.}.}. X X X X X X}..X X X X X X X X X X X}.}.}.}.}.[.#.0 5 ` '  .7 T..X X X X'.E. X.X X X X X X X X X X|.E.+X{.E. X X X X X X X X X X X X X X X}.",
" X X X X X X}.}. X X X X X X X X}.}.}.}. X X X}. X X X X}.}.}.}.OX.X@X%X0 7 _  .8 L..X X{.%.R.$.$.E.+X X X X X X X X X X X}.}..X X X X X X X X X X X X X X X}..X",
"}.}.}.}.}.}..X}. X X X X X X X}.}.}.}.}.}. X}.}.}. X X}.}.OX#XOXT.o.g g q 5 _ ' 8 T.%X@X{.%.{.}.%.|. X X X X X X}.}.}.}.}.}.}.}.}.}. X X X X X X X X X}.}.}.}.}.",
" X X X X}.}.}.}. X X X X X X X X}.}.}.}.}.|. X.X X}.}.OX@XO.0 * 6 t i ;., 5 ) ' 5 & 9 o..X#XXX}..X X.X X X X X X X X X}.}.}. X X X X X X X X X X X X X X}.}. X X",
"}. X}.}..X}..X X X X X X X X X X}.}.}..X}..XE.|.}.OX@Xo.* % i n.J.J.J.J.s.e * 5 u 8.:.e * g  X@X!..X X}. X X X X X}.}.}.}.}.}.}. X X X X X X X X X X X X}.}.}.}.",
"}.}. X}.}.}.%.|. X X X X X X X}.}.}.}.+X'.R.%.$.[.O.& e 1.J.J.J.J.Z.D.J.J.F.S.S.D.F.J.J.m.p & o.#X.X!..X X X X X}. X}.}.}.}.}.}. X X X X X X X X X X X X}.}.}.}.",
"}.}.}. X$.R.$.R.%..X X X X}. X}.}.}.}. X`.%.OXoXq # <.J.H.F.J.D.z.z.J.F.N.J.J.J.J.A.D.J.J.J.n.% 0 +XOX}. X X}.}.}.}.}.}.}.}.}.}.}. X X X X X X X X X X X}.}.}.}.",
"}.}.}.}.W.E..XE.E.}.}..X}.}.}.}.}.}.}.}.!.OXY.& p J.J.z.A.H.N.h.j.H.F.j.N.J.J.J.J.H.D.J.J.H.H.J.i & Q.#XE.}..X}.}.}.}.}.|.}.}.}.}. X}. X X X X X X X X}.}.}.}.}.",
"}.}.}.}.}.}. X X}. X}.}.}.}.}.}.}.}..X{.@XT.. :.J.C.u.B.H.z.j.j.x.H.z.j.N.J.J.J.J.J.C.F.J.J.F.Z.J.<.o @.-.`.E.}.}.}.}.}.}.}.}.}.}.}. X X X}. X X X.X X X}.}.}.}.",
"}.}.}.}.!.}. X X}.}..X}.}.}.}.}.}..X!.@X@.X 1.J.z.p.N.F.j.j.z.h.A.B.j.z.z.F.J.J.J.J.D.c.C.B.H.Z.N.J.n.# @.[.#.}.}.}.}.}.}.}.}.}.}. X}. X X X X X.XW.E. X}.}.}..X",
"}.}.}.}..X}. X X}..X|.}..X}.}.}.}.!.OXT.. n.J.g.h.g.G.j.h.j.j.g.D.j.z.z.z.B.J.J.J.J.H.c.N.N.N.H.V.x.J.m.o T.XX|.}.}.}.}.}.}.}.}.}. X X X X X.XE.$.$.W.%.{.}.}.!.",
"}.}.}. X X X X X|.{.#.'.{.}.}.}.}..X{.& 1.H.u.j.e.A.z.h.j.j.g.l.N.h.j.z.x.z.C.J.J.J.F.l.N.B.N.B.D.c.x.J.1.&  X.X}.}.}.}.}.|.}.}.}. X}. X}.}..X|.$.}.}.$.{. X}.}.",
"}.}.}..X X X X+X$.$.E.W.#.}.}..X!.#X* >.J.p.j.y.l.B.i.j.j.z.e.V.z.j.z.z.x.x.N.B.F.Z.C.M.k.B.B.x.D.M.c.N.J.:.* #X{.}.}.}.}.}.}.}.}. X X X}.}.}. X X X X}.}.}.}.}.",
"}.}.}.!. X X X XE.|.+X|.'.}.}.!.#Xg % H.i.i.i.0.C.h.h.j.j.h.f.V.h.j.j.z.x.x.N.N.N.N.N.V.r.B.N.N.N.Z.f.N.x.J.t f #X!.}.}.}.}.}.}.}.}.}. X}.}. X X.X X X X}.}.}.}.",
"}.}.}.}. X X X X X.X}.}..X}.}..XQ.# K.z.i.j.0.l.z.i.j.h.j.u.f.x.h.j.z.z.x.x.N.B.B.B.N.C.r.N.B.N.x.C.l.g.N.C.G.# T.OX}.}.!.}.}.}.}. X X X X X X X}.}. X X}.}.}.}.",
"}.}.}.}.}. X}.}.}. X X X}.}.}.#X0 >.Z.p.h.u.4.N.i.h.h.j.j.e.l.h.h.j.j.z.x.x.N.N.B.B.x.C.f.k.B.N.N.x.A.w.N.x.F.<.9 #X|.}.}.}.}.}.}.}.}. X X X X X X X X X}.}.}.|.",
"}.}. X X}.}. X X X X X X}.}..XT.& Z.i.i.i.q.f.z.i.h.h.h.h.8.c.h.j.j.z.z.x.x.N.N.N.N.N.B.l.f.B.N.N.x.C.f.f.N.z.H.e O.OX}..X}. X.X}.}. X X X X X X X X X X X X}.}.",
"}.}.}.}. X.X}..X X X X X}.}.$X0 i B.p.h.u.4.c.h.h.h.h.j.g.5.z.i.h.j.z.z.x.x.x.N.N.N.N.N.l.w.B.N.N.x.N.M.5.x.x.Z.<.* @X|.}.}.!.W.}.}.}. X X X X X X X X X X X}. X",
" X X X X}.}.}.}. X X X X}..X}.& d.h.i.h.q.8.z.i.h.h.h.j.e.w.j.i.h.j.j.z.z.x.x.N.N.N.x.x.c.0.N.N.N.x.x.B.4.k.N.z.D.e O.@X}.$.E.%.W.E.+X}. X X X X X X X X}. X X X",
"}.}. X}.}.}.}.}. X X X X XOXO.t B.i.h.i.4.r.j.i.i.h.h.j.0.r.h.h.h.j.j.z.x.x.x.x.N.x.N.x.x.5.x.x.x.x.x.N.r.w.N.z.C.<.0 #X}.$.E.}.$.E..X}.}.}.}.}. X X X X}.}.}. X",
" X X X X X X}..X X X X X}.#Xd F z.i.h.y.4.t.h.h.i.h.h.h.5.w.h.h.h.j.j.z.z.x.x.x.x.x.x.x.c.5.c.N.x.x.x.N.f.4.z.x.z.M.6 |.XX|.}. X}.}.}.}. X}..X X X X X X X X X X",
" X X X+XE.].+X}. X X X X}.OX0 ,.j.i.h.e.4.u.h.i.h.i.h.h.5.t.h.i.h.j.j.z.z.x.x.B.M.x.x.x.x.4.k.N.x.x.z.x.c.3.k.x.z.C.t O.OX}.}.}. X}. X X}..X}.R.}..X X X X X X X",
"}. XE.W.$.W.R.{. X X X X}.OX9 8.h.i.h.0.4.u.h.h.i.h.h.h.4.u.h.h.h.j.j.j.z.z.N.l.U z.x.z.x.5.t.N.z.x.x.z.x.4.t.N.z.B.;.a #X}.}.}.}.}. X X XW.W.%.W.W. X X}.}.}.}.",
"}.+XE.#.|.!.#.{. X}. X}..X X= w.h.i.i.0.4.i.h.i.i.h.h.u.4.y.h.h.h.j.j.j.z.x.M.$ G f.x.z.z.5.t.x.x.z.x.z.x.5.f.f.k.x.7.* @X|.}.}. X X}.}.+X%.W. XW.$.+X}. X X X X",
"}. X.X|..X X}.}. X X X}.}.OX* 4.h.h.i.5.4.i.h.h.h.i.h.u.4.y.h.i.h.h.j.z.j.N.t   3 0.z.z.j.5.e.x.z.x.z.z.z.t.,.H j.z.l.= '..X}..X X X X X.X}. X+X X}.}. X X X X X",
" X X.X}.}..X}.}. X X.X}.}.OX= I h.h.i.5.4.i.h.i.i.h.h.y.3.y.h.i.h.h.j.j.x.=XSXDX/.K k.z.j.5.w.x.z.z.z.z.j.k.O > g.z.x.% T.OX}.}. X X X X}. X X X X X X X X X X X",
"}.}.}.}.}.}. X}. X X}.}.}.@Xa D i.h.h.0.4.u.h.i.h.i.h.y.4.y.h.h.h.h.j.h.C.BXCXKXKX2.3.z.j.4.w.x.z.z.z.j.z.d.Z k 3.z.x.% O.OX}.}. X X X X}.}. X X X X X X X X}.}.",
"}.}.}.}. X X}. X X X X X}.@Xg y y.u.h.0.4.u.i.i.i.h.h.y.5.y.i.i.h.h.h.x.nXqXBXKXLX5XI z.j.4.w.x.z.z.j.j.x.bXKXPXU j.z.$ O.OX|.}.}. X}. X X}. X X X X X X}.}.}.}.",
"}.}.}.}.}. X}. X X X X X}.OX@.$ 0.0.h.e.4.e.h.h.h.i.i.u.Y e.h.h.i.i.j.v.NXqX6XZX0XrXU e.j.4.e.z.j.z.z.j.=XtXLXKX2.e.j.$ @.XX}.|.}. X X X X X X X X X X X}.}.}.}.",
"}.}.!. X}. X}.}. X X.X X}.}.#X* S e.0.p.4.0.h.i.i.i.h.i.4.q.p.p.h.h.l.. 5XVX8X4X6X6X3 4.g.4.e.z.z.j.j.x.ZXqXCXBX*.0.w.# &.`.'.|. X X}. X X}. X X X X X}.}.}.}.}.",
"}.}.}. X}. X X X}..X|.R.}.}.@X@.O 5.4.w.0.4.i.z.j.i.h.i.Y b.jX~ E i.d.r Q ZXrXeXeX: X J 5.4.u.z.j.j.z.7.0XeX4X6X5XY J # R.'.#.|. X X}. X X X X X X X X X}.}.}.}.",
"}.}.}.}.}. X}. X XR.E.%.`.E.}.#Xg < u.6.5.4.q.N.C.h.i.j.T 3XMX3X! A a.x.j.z.z.V.v.7.7.s.8.4.g.j.j.j.N.# 1XtX7X7X: H D 6 OX}.E.}.}. X}. X X X X X X X X}.}.}.}.}.",
"}.}.}.}.}. X}.}. X$.`. XW.W. X|.OX9 2 e.5.4.5.g.B.j.i.h.5.P ^ ! ! A P j.f.t.h.h.i.j.z.z.e.e.z.z.j.j.z.7.8.!.&XI., J , } OX.X X X}. X}. X X}. X X X X X}.}.}.}.}.",
"}.}.}.}. X}. X}. X}.}. X}.}.}.}.}.OX9 > 0.q.4.4.u.h.h.h.i.5.I T T T a.j.s.  $ 4.j.N.F D D H 9.w.g.g.h.h.y.p.h.b.jX~ R U..X.X X}.}.}. X X X X X X X X X}.}.}.}.}.",
"}.}.}.}.}. X}. X X X X}.}.}.}.}.!. X#Xa O K e.0.4.q.i.h.i.e.5.u.h.h.h.i.z.i   D 3.s.#         . . 1 j.i.7.D 9.R 3X! A ~. X!.}.}.}. X}. X X}. X X X X X}.{.}.}.}.",
"}.}.}.}. X X}. X.X}.}.}. X}.}.}.}.}.}.@XO.* , J e.0.5.q.i.i.0.4.y.h.i.h.i.x.;.      .   .         $ H K F , 8.Y > L ~. X}.}.}.}.}. X}. X X}. X}. X}.}.}..X}.}.}.",
" X}. X X X X X}.}. X}..X X X X X}.}.}.}.OX Xg + , G 5.e.0.0.e.4.4.y.h.i.i.i.x.s.e                     . D g.U O 0 oX X X}.}.}.}. X X X X X X X X}.}.%.].!.}.}.}.",
"}.}. X}. X X X X X X X X X X X X}.}.}.}.}.}.@X|.B q < 1 H 3.w.e.0.q.0.e.u.p.y.p.k.,.F e # . . . # , F w.3.1 X B #X X}.}.}.}.}.}.}. X X}. X.X}.OXR.%.E.R.#.}. X X",
" X X X X X X X X X X X X X X X X X}. X X X X{.}.%X Xo.g & X < y G U 4.q.e.e.e.e.q.y.h.j.k.r.f.f.r.6.H < X a |.#X X X X X X X X X X X X.X}.}.}. X'.'.XX{.R. X X X",
" X}.}.}. X}. X X X X X X X X X}.}.}. X}.}.}.OXOX+.[ =.-.w v x 5 5 @ & $ , , 3 3 S S S S S y 2 > $ = 9 [ %..X+X}.}.}.}.}. X}.}. X}. X|.$.}..X X.X.X.X X X X X X X",
" X|. X}. X X X X X}.}. X X X X X}.}.}. X X X!.* 8  .(  .( b n ( ..| c -Xw ` 9 B d d a d d f [ O.T. X.X[.$.R.%.}.}.}. X}.}. X X}. XW.E.%.R.R. X}.}.}. X X}. X X X",
" X X X X X X X X|.%.W.|.}. X X X}. X.X X X.XQ.f d ] ( ' / c -X( ' ..` >XX...[ !.$X#X#X#X#X#XOX@XOX+XE.%.}.|.%. X.X}.}. X X X X X X$.E..XR.W.}.}. X X X X X X X X",
" X}. X X X X+XW.%.E.W.#.}. X X X}.}.}..X|.'.&.FXGXQ ] / 7 m :X/ ( ( w <Xc ( | L..X!.}.}.!.}.}.}.}. X X.X X X.X X}.}.}.}. X X}. X}.}.}. X}.}.}.}. X X X X}. X X}.",
"}. X X}. X}. XE.[. X|.].}. X X X}.}.}. X`.#.kXcXxX_.5 5 5 b :X/ ( ( w >X0 8 7 g @X}.}.}.}. X X X}.}. X X X X X X}.}.}.}.}.}. X}.}.}.}. X X X X X X X X X X X}.}.",
" X X X X X X X X+X X X X}. X X X}.}.}.OXI.fXHXxX*X2.o x x n Z c n n M 5XM FXM } .X}.}.}. X X X X}.}. X X X X X X X}.}..X X X X X X}. X X X X X X X X X X X X X X",
"}. X}.}. X}. X X X X X X X X X X}.}.}.@XI.FXGXxX*Xk z 2Xb C n 2X2X2Xb Z V GXFX(.I.OX}.}.}. X X X.X}. X X X X X X}. X}. X}.}. X X}.}. X X X X X X X X X X X X}. X",
" X}.}. X}. X X X X X X X X X X}.}.}.}.oXj uXpX/.).h v ;X,Xb b ;X;X;X-X;X/.xXvXPX(.Y.OX|.}. X X X}.}. X X X}. X X}.}.}.}.}..X|.E. X.X X X X X X X X X X X X}.}.}.",
"}.}.}.}.}.}.}. X X X X X X X}.}. X X.X@.uXKXJXDXN g b ;X,X2X-X2X2X2X<X-X).lXxXhXuXV I.@X+X}.}. X X X X X}.}. X}.}.}.}.}.}.E.R.#.E.]..X}.}.}. X X X X X}.}.}.}.}.",
"}.}.}.}.}..X}.}. X X X X X}.}.}. X!..X+.LXKXLXKXuXa b -X,X;Xz ,X2X2X;XN 2.=X/.fXPXKXiXg !.}.}.}. X X X X X.X}.}.}.}.}.}.}.#.E.|.%.W.+X}.}.}. X X X X X}.}.}.}.}.",
"}.}.}.}.}. X}. X X}.}. X X X X}. X X+X+.dXfXsXIXC { m -X;X2Xn l b b z j }.j uXKXPXLXyXW g OX}.}. X X X X X X X}.}.}.}.}.}.{.|.}.|.|. X X.X}.}. X X X}.}.|.}.}.}.",
"}.}.}.}. X}.}. X}..X X X X X}.}. X X}.+./.lX_.fXkXL.g b ;X,X9X-Xx m ;Xx +XI.uXLXSXdXQ lXN L.OX}. X X X X X X X}.}.}.}.}.}.}.}.}.}.}. X X}.}. X X X X}.}.}.}.}.}.",
"}.}.}.}.}.}.}.}. X X X X X X X}.}..XU.(.hXnXpXdXKXIX+.x >X,X,X9Xb ;X9X:XI.@Xj sXSXPXaX^.W uX@.XX X X X X}. X}.}.}.}.{.}.}.{.}.}.}. X X X X X X X X X X X!. X.X}.",
"!..X}.}.}.}.}. X X X X X X X}.}.}.+XI.dXPXSXSXLX*.iX+.s v <X,X9X-Xl 9X,X} @X}.} SXLXJX^._.hXN @X}. X X X}.}.}.}.}.}.}.}.}.}.}.}.}.}.}. X X X X X X X X}.}.}.}.}.",
"}.}.}.}.}..X}.|. X X X X X}. X}.}.OXO.AXKXJXJXSXV P.o.!.l ;X-Xx M l >X-Xf OX.X+XT.SXsXP./.V O.OX X X X X}..X}.}.}.}.}.}.}.}.}.}.}. X}. X X X X X X X X X}.}.}.}.",
"}.}.}.}.}.|.].#.|.|. X X X X X}.}.OXU.C fXkXdXMXDXP.} $XN z ; ).bXM V ; h  X}.}.XX+.M P.hXB OX X X X X X}.}.}.}.}.}.}.}.}.}.}.}.}. X X X X X X X X X X}.}.}.|.}.",
"}.}.}.}. X#.W.E.%.$.+X X X X}.}.}.}. XT.B V V V mX0 Y..X}.@ k zXGX^.vX^.I.+X}.}.OX{ _.iXf !.+X X X X X X X X X X}.}.}.}.}.}.}.}.}.}. X X X X X X}.}.}.}.}.}.}.}.",
"}.}..X}. XE.|. X|.]. X X X X X X X X}.OXOXY.{.U.B !.OX!.@Xj ).cXPXhXHXV {.+X}.}. X!.~.L.Q.OX X X X X X X X X X X X X X X X}. X X X X X X X}. X X.X}. X.X}.}. X X",
"}.}.}.}. X X X X X X X X X X X}.}.}.}.}.}. X.X X@X X}.+XU.2.zXGXAXhXHXT.+X}.}. X X X X}..X}. X X X X X X X X X X X}.}.}.}. X}. X}. X X X X X X X}.}.$.E.}. X}. X",
"}.}.}.}. X X X X X X X X X X X X X X X}..X}..X X|.]..X@Xh ).cXHXpXFX*.Y.XX X}. X X X X X}. X X X X X X X X X X X X X X X X X X X X X X X X X X XW.$.R.W.#. X X X",
" X X X X X X X X X X X X X X}..X X X X X}. X}.].W.#.!.L.iX/.bXFXfXC {.+X}. X X X X X X X X X}. X X X X X X X X X X X X X X X X X X X X X X X X+XE.W.+X|.$.}. X X",
" X}. X X X X X X X X X X X X}.}.}. X}.}. X X|.&.|.Q.s ; fXgXC W +.}.+X+X}. X}.}. X X}. X}.}.}..X}. X X X X X X X}. X}. X}.}..X X}. X X X X X X X X.X X X X}. X X",
" X X X X X X X X X X X X X X}.}. X X.X X X X}.|.O.* 1XM - - - o s O..X X X X}. X X X X X X X}.}. X X X X X X X X X X X X X X X X}. X.X X X X X X X X X X X X X X",
" X}. X X X X X X X X X X X X}..X X}.}.}.}.}.OXO.M ; fXs - M AXLXPXiXg OX X}.}.}. X X X X}.|.W.$.}.}. X X X X X X X}. X X}. X X X X X|. X X X X X X X X X X X X}.",
"}.}.}.}. X}. X X X X X X X.X}.}.}.}.}.}.}.}.OXf yX; - - C JXPXLXKXKXsX} OX X}.}.}. X X X'.#.W.W.#.]..X}. X X X X}.}.}.}.}.}.}. XE.!.#.].|. X X X X X X X}. X}. X",
" X X X X X X X X X X X XXX`.!.+X}.}.}.}.}.}..XXXs Z ; ; fXAXJXLXKXKXKXN Q.+X}.}. X X X X}.E.}. XW.!..X X X X X X X X}..X X X X XW.$.].`.#.+X X X X X X X X X X X",
"}.}. X}. X X X X X X XE.E.%.W.W.|..X}.}.}.}.}.!.f uXmXAXaXiXyXuXAXJXKXiX{ OX}.}. X}.}. X}. X}. X X X}. X X X X X}.}.}.}.}.}.}. X'.|..X|.E.+X X X X X X X X}. X}.",
"}.}.}.}. X X X X X X+X].#.}.].#.|.}.}.}.}.}.}.}.!.{ j M yXdXAXmXuXyXiXZ I.OX}.}.}.}.}.}.}.}. X X X X X X X X X}.}.}.}.}.|.}.}.}.}.}.}.}. X X X X X X X X X}.|.}.",
"}.}.}.}.}.}. X}. X X X X}.}.}.|.}.}.}.}.}.}.}.}..XOX#X{ M aXC Z sXDXAXM @.OX}.{.}.}.}.}.}. X X X X X X X X X X}.}.}. X}.}.}.}.}.}.}.}.}.}.}. X X X X X X X X}.}.",
"}.}.}.}.}.}.}. X X X X X.X}. X}.}.}.}.}.}.}.}.}.}.}.}.OXU.B IXfXC s V s Y.}.}.}.}.}.}.}.}. X X X X X X X X X X}.}.}.!.}.}.}.}.}.}.}.}..X X}. X X X X X X X|.}.}.",
"}.}.}.}.}. X}.}. X X X X}. X X}.}.}.}.}.}.}.}.}.}.}. X}.OXU.j DXC f #XY. X}.}.}.}.}.}.}.}.}.}.}. X X X X X X X}.}.}.}.}.}.}.}.}.}..X}.}.}.}.}. X X X X X}.}.}.}.",
"}.}.}.}.}. X}. X X X X X}.}.}.}.}.}.}.}.}.}.}.}.}.}. X X}.XX+Xs f }.}. X}.}.}.}.}.}.}.}.}.}.}.}. X X X X X X X}.}.}.}.}.}.}.}.}.}.}.}.}..X}. X X X X X X}.}.}.}."
};
