/* XPM */
static char *New_Project__13__resized[] = {
/* columns rows colors chars-per-pixel */
"80 80 256 2 ",
"   c #010100",
".  c #090A02",
"X  c #181705",
"o  c #0F100B",
"O  c #281A00",
"+  c #271D1F",
"@  c #1A2306",
"#  c #172F13",
"$  c #282607",
"%  c #382501",
"&  c #343604",
"*  c #242B14",
"=  c #2A381A",
"-  c #313813",
";  c #30302D",
":  c #111C21",
">  c #453502",
",  c #583500",
"<  c #4C2B00",
"1  c #683900",
"2  c #671606",
"3  c #125013",
"4  c #34421A",
"5  c #324812",
"6  c #176A15",
"7  c #354E2D",
"8  c #2F6A32",
"9  c #205B24",
"0  c #454501",
"q  c #584F00",
"w  c #774601",
"e  c #625F00",
"r  c #746D00",
"t  c #43582A",
"y  c #4B5036",
"u  c #496635",
"i  c #576C38",
"p  c #597639",
"a  c #4F682A",
"s  c #647D3B",
"d  c #6A652E",
"f  c #133057",
"g  c #253951",
"h  c #2F4A4D",
"j  c #1E4270",
"k  c #264975",
"l  c #2F5072",
"z  c #34686D",
"x  c #36774F",
"c  c #4C4A4E",
"v  c #615E5F",
"b  c #5C7148",
"n  c #6B7153",
"m  c #686765",
"M  c #72756D",
"N  c #4D6368",
"B  c #CC341F",
"V  c #975802",
"C  c #8A5201",
"Z  c #A85D00",
"A  c #8E7304",
"S  c #AA6500",
"D  c #B36A00",
"F  c #B46600",
"G  c #BB7701",
"H  c #A67702",
"J  c #9E6E27",
"K  c #C86800",
"L  c #C97800",
"P  c #D17404",
"I  c #EB730F",
"U  c #D54F27",
"Y  c #CF461D",
"T  c #E8535D",
"R  c #E73943",
"E  c #259813",
"W  c #2AAF13",
"Q  c #1D8B21",
"!  c #279526",
"~  c #2E882A",
"^  c #2AA72A",
"/  c #36B52A",
"(  c #1C920B",
")  c #75983D",
"_  c #6D8936",
"`  c #5FA43C",
"'  c #32C732",
"]  c #35C022",
"[  c #4CC935",
"{  c #549242",
"}  c #698744",
"|  c #759848",
" . c #768658",
".. c #739149",
"X. c #7DA349",
"o. c #74B956",
"O. c #7CBC56",
"+. c #77BA57",
"@. c #6EB453",
"#. c #7B8768",
"$. c #5DA84A",
"%. c #999800",
"&. c #978200",
"*. c #BB8A01",
"=. c #B3990E",
"-. c #BCBA00",
";. c #AFA906",
":. c #AD9235",
">. c #A1962C",
",. c #D48300",
"<. c #DA8500",
"1. c #DD8A00",
"2. c #DD9700",
"3. c #C98E01",
"4. c #E48D00",
"5. c #E98B00",
"6. c #EB9201",
"7. c #E49C00",
"8. c #E79600",
"9. c #F19500",
"0. c #FD9700",
"q. c #F49A00",
"w. c #FC9E00",
"e. c #F58B06",
"r. c #D6A600",
"t. c #CBAC01",
"y. c #EAA700",
"u. c #F4A600",
"i. c #FEA200",
"p. c #F3AB00",
"a. c #FEAB00",
"s. c #E9B600",
"d. c #FEB400",
"f. c #FEBB00",
"g. c #F4B400",
"h. c #E8A031",
"j. c #C8C900",
"k. c #D9D200",
"l. c #F4C300",
"z. c #FFC300",
"x. c #FFCB00",
"c. c #F3CA00",
"v. c #FED400",
"b. c #FEDC00",
"n. c #F5D900",
"m. c #F9CA11",
"M. c #FEE300",
"N. c #FEEC00",
"B. c #FEF400",
"V. c #FEFE00",
"C. c #F3F700",
"Z. c #EDEC00",
"A. c #E4CC2A",
"S. c #8F9050",
"D. c #AE904D",
"F. c #84A949",
"G. c #8BB54A",
"H. c #92BC4C",
"J. c #86AA53",
"K. c #83BE56",
"L. c #8BBE55",
"P. c #88BB56",
"I. c #94BD54",
"U. c #96AE4D",
"Y. c #898D6B",
"T. c #A9986D",
"R. c #9FA871",
"E. c #CCA745",
"W. c #EDBA55",
"Q. c #DBB171",
"!. c #86C057",
"~. c #8CC156",
"^. c #8CC158",
"/. c #87C85A",
"(. c #94C356",
"). c #9AC457",
"_. c #9DCA56",
"`. c #95C358",
"'. c #9BC558",
"]. c #9EC95A",
"[. c #95CB5A",
"{. c #99CA55",
"}. c #A2CD5B",
"|. c #A0C757",
" X c #A5D25D",
".X c #A9D55D",
"XX c #A8D55C",
"oX c #BED04C",
"OX c #A4D767",
"+X c #F7CF75",
"@X c #FFE67E",
"#X c #EBD048",
"$X c #2B5885",
"%X c #2E5A8C",
"&X c #376999",
"*X c #2F6398",
"=X c #3B6AA5",
"-X c #3C74AA",
";X c #3D76B4",
":X c #3A5DA6",
">X c #4279B5",
",X c #4974A4",
"<X c #807F80",
"1X c #FD6C86",
"2X c #0587A8",
"3X c #58A6A2",
"4X c #03BAEA",
"5X c #00B5F8",
"6X c #009FD3",
"7X c #4787C7",
"8X c #00C0F7",
"9X c #03CAFD",
"0X c #15C9FA",
"qX c #3FCDF7",
"wX c #4CDCFC",
"eX c #6DE3FF",
"rX c #61D9F3",
"tX c #8A8B88",
"yX c #8D9387",
"uX c #969588",
"iX c #9A999A",
"pX c #8B8B9A",
"aX c #A29C8E",
"sX c #ADA692",
"dX c #A6A5A7",
"fX c #B9B7BB",
"gX c #AFAEB4",
"hX c #9AA196",
"jX c #E5B495",
"kX c #B8D9A9",
"lX c #F9D88A",
"zX c #F3D791",
"xX c #FFE997",
"cX c #FFE48B",
"vX c #CBC4AE",
"bX c #EAD2AB",
"nX c #FDE7A7",
"mX c #FCE9BD",
"MX c #FFF3B5",
"NX c #BDBCC2",
"BX c #97BACA",
"VX c #C1BEC6",
"CX c #95F8FF",
"ZX c #C8C7CA",
"AX c #D3D3D3",
"SX c #EED1CE",
"DX c #FFF7CD",
"FX c #FFFCD2",
"GX c #FFF8DD",
"HX c #F4E7D3",
"JX c #DBD8E1",
"KX c #E7E7E8",
"LX c #FDFEFE",
"PX c #F5F6F6",
"IX c #EAF1F6",
"UX c #DAE4ED",
/* pixels */
").).).).).'.).'.'.'.'.'.'.'.'.).).).).).).).).).).).).).).).'.'.'.).).).).).).).).).`.).).).).'.'.'.'.'.'.'.).'.).).).).).).).).).'.'.'.'.'.'.'.'.'.).).).).).).",
").).).).'.).'.).).'.'.'.'.'.).).).).).).).).).).).).'.).).~.K.'.).).(.).I.).).).).).).).).).).'.'.'.'.'.'.'.'.).`.).).).).).).`.).'.).'.'.'.'.'.'.'.).).L.K.).).",
").).).).'.'.'.'.).'.|.'.].'.).).).).).).).).).).).).'.`.o.K.O.O.~.}. X}. X).).).).).).).).).).'.'.'.'.'.'.'.).'.).).).).).).).).'.'.`.'.'.'.'.'.).).`.+.K.O.O.!.",
").).).).'.'.'.'.'.'.L.).'.).'.).).).).).).`.).).).).).).O.`.).O.[.F.a 7 a ).).).).).).).).).).).'.'.'.'.'.'.'.).).).).).I.).).).'.'.'.'.'.).'.'.'.).).O.).'.O.^.",
").).).).].).).'.^.^.@.^.L.).'.).).).'.'.).'.).'.'.'.'.'.'.'.[.'.t 3 6 Q 6 a ].).).).).).).'.'.'.'.'.].).).'.).'.).).).'.'.'.'.'.'.'.'.'.'.'.'.'.'.'.).'.'.'.'._.",
").).).).].).'.'.O.O.`.!.+.).'.).).).'.).'.'.).'.'.'.'.'.).). Xi 3 ^ ^ ! ' 6 p  X).).).).).'.'.'.'.'.).).'.'.'.).'.'.'.).'.'.'.'.'.'.'.'.'.'.'.'.'.'.'.'.'.'.).).",
").).).).).'.'.'.`.`.'.).`.'.'.'.'.'.'.'.'.).'.'.'.'.'.'.).).}.4 Q ! ! ^ / ' 3 U.].).'.'.'.'.'.'.'.'.'.).'.'.'.'.'.'.).'.'.(.).'.'.'.'.'.'.'.'.'.'.'.'.'.'.'.'.'.",
").).).].).'.'.'.'.].).).).'.'.'.'.'.'.'.'.'.'.'.'.'.'.'.'.). Xa 3 ^ ^ ^ ^ / ^ t  X).'.'.'.'.'.'.'.'.].].'.'.'.'.'.'.'.(.(.+.P.`.'.'.'.'.'.'.'.'.'.'.'.'.'.'.'.'.",
"'.'.'.'.'.'.'.'.).).'.].).).).).'.'.'.'.'.'.'.'.'.'.'.'.'.'.|.I.u 3 6 ! ! ^ ' 9 G.|.).'.).).'.'.'.'.'.'.'.'.'.'.'.).|.K.o.L.P.@.'.'.'.'.'.'.'.'.'.'.'.'.'.'.'.'.",
"'.'.'.'.'.'.'.'.'.'.'.'.).].).].'.'.'.'.'.'.'.'.'.'.'.'.'.'.'.'.XXX.= 3 ! ^ ' Q ..}.).'.)._.^.!.'.'.'.'.'.'.'.'.'.).'.`.^.|.(.^.'.'.'.'.'.'.'.'.'.'.'.'.'.'.'.'.",
"'.'.'.'.'.'.'.'.'.'.'.'.'.'.).'.'.'.).'.).'.'.'.).'.).).'.'.'.'.). XOX7 6 ! ' Q p .X).).(.O.!.O.!.^.|.'.'.'.'.'.'.'.).'.'.).'.'.'.'.'.'.'.'.'.'.'.'.'.'.'.'.).'.",
").).).).'.'.'.'.'.'.'.'.'.'.'.).).).).).).).).).).).).).).|..X.X'.P.J.p # Q ^ Q s .X|.).(.+.`.'.O.^.'.'.'.'.'.'.).).).).'.).).).'.).).'.'.'.'.'.'.'.'.).).).).).",
"'.'.'.'.'.'.'.'.'.'.'.'.'.'.'.'.'.'.'.'.).).'.).'.).).}..XH.} 7 - & 0 > # Q ^ Q * i | }..X).).'._.).).).'.'.'.'.'.'.'.'.'.'.'.'.'.'.'.'.'.'.'.'.'.).].).'.'.'.'.",
").).).).'.'.'.'.'.'.'.'.'.'.'.).).).).'.'.'.P.`.'.}. XX.7 $ q %.k.C.V.y.& # 6 = V A 0 = p '. X).).).).).'.'.'.'.'.).).).).).).).).'.'.'.'.'.'.'.'.].).).).).).).",
"'.'.).'.'.).O.`.'.'.'.'.'.'.'.'.).).).|.~.!.O.O./.J.= & %.Z.V.V.V.B.V.V.Z.t.%.t.M.V.V.j.e * } .X'.).'.'.'.'.'.'.).'.).).).).'.'.'.'.'.'.'.'.'.'.'.'.'.'.).).).).",
").).'.'.O.O.O.K.+.'.'.'.'.'.).).).).).'.!.o.'.).8 $ %.V.V.V.V.M.f.v.V.b.N.V.V.V.N.M.V.V.V.k.0 = I. X).'.'.'.).'.`.).).).).).).).).'.).'.'.'.'.'.'.).].).).).).).",
").).).).K.L.'.L.!.'.).'.'.'.).).).).'.'.).}.H.* q C.V.x.M.B.z.i.f.V.v.a.N.V.V.V.V.b.V.V.V.V.V.%.@ ...X'.~.{.'.).).).).).).).).).).).).'.'.).'.'.'.'.'.'.).).).).",
").).).).).'.'.'.'.'.).'.'.).).).).).'.I. XX.o %.V.b.u.b.N.a.a.i.M.M.a.d.N.V.V.V.V.M.M.V.V.B.v.V.k.& u  X@.K.~.).).).).).).).).).).'.'.'.'.'.'.'.'.'.'.'.).).).`.",
").).).).).).'.'.'.'.'.'.).'.'.).).'.). X| X -.V.f.0.v.N.i.a.d.g.N.d.a.d.v.V.V.V.V.B.f.b.v.M.B.f.B.V.5 8  X~.o.).).).).).`.).).).).).'.'.'.).'.'.'.!.^.'.).).).).",
").).).).).'.'.'.'.'.).'.'.'.'.).).(.}.X.X j.V.a.w.s.N.i.a.a.i.c.v.i.d.d.f.V.V.V.V.V.l.f.z.f.M.M.d.N.V.> i .X~.).).).(.).).).).).).'.'.'.'.).'.`.O.O.!.+.`.).).).",
").).).).'.'.).'.(.(.o.^.(.).).).).'.P.@ j.B.w.i.y.M.a.i.a.a.q.n.d.a.d.d.f.x.V.V.V.V.n.g.x.z.z.N.l.f.M.V.& _  X(.).).).).).).).).).'.).'.'.'.'.`.O.).`.O.`.'.).).",
").).).).).'.).|.+.O.!.K.o.).).).).}.* %.B.q.a.6.c.f.w.a.a.a.y.x.i.a.d.f.f.f.x.N.B.v.b.y.x.x.z.x.n.p.f.M.Z.@ F. X(.).).).).).).).).).).'.'.'.'.'._.'.).).'.).).).",
").).).).'.'.'.'.`.`.'.`.L.).'.)..Xt e V.w.i.q.y.v.0.a.i.d.q.s.f.i.a.d.d.f.z.z.z.x.f.v.s.f.x.x.f.M.s.d.z.N.-.* '.).).).).).).).).).'.'.'.'.).'.'.).).).).).).).).",
").).).).'.'.'.'.'.'.'.].'.).).}.| $ N.a.i.i.<.l.a.i.i.u.a.8.l.a.a.a.d.d.f.f.z.x.x.z.x.s.p.x.z.z.z.n.7.z.d.V.r u .XI.(.).).).).).).'.).'.'.).'.'.).).].).).).).).",
").).).).'.'.).).'.'.'.'.].).). X= ;.x.0.i.6.7.z.0.i.a.a.u.8.g.i.a.a.d.d.f.f.z.x.z.z.x.l.7.x.z.z.f.v.s.u.z.z.B.& F.}.).).).'.).).).).'.'.'.).'.'.'.'.'.'.).).).).",
").).).).'.'.'.'.'.'.'.'.'.).}.} 0 M.0.i.i.<.s.a.i.i.i.a.q.2.d.i.a.a.d.d.f.f.z.z.x.z.f.x.2.z.z.z.z.z.l.1.z.f.b.;.= }.).'.'.).'.'.).).'.'.'.'.'.'.'.'.'.'.'.'.'.'.",
").).).).).).).].'.'.'.'.).I. X- ;.f.w.i.6.1.f.w.i.i.i.a.6.y.a.i.a.a.d.f.f.f.z.z.z.z.f.x.2.g.z.z.z.f.x.7.u.z.d.B.0 .. X).'.'.`.P.).'.].).'.'.'.'.'.'.'.'.'.'.).).",
"'.).'.'.].).).).'.'.'.'.).}.F.5 x.0.i.i.<.y.a.w.i.i.i.a.1.p.i.i.a.a.a.d.f.f.z.z.z.z.f.z.8.u.z.z.f.f.z.s.1.z.f.v.-.=  X'.'.O.K.+.K.P.'.).'.'.'.'.'.'.'.'.).'.'.'.",
").).).).).).].).].).'.'.I..Xu r z.0.i.q.<.y.i.w.i.i.i.i.1.p.i.i.i.a.a.d.d.f.f.z.z.f.f.z.7.8.z.z.f.f.f.l.<.p.z.d.M.& X.}.).O.L.).O.P.].].).).).).'.'.'.'.).).).'.",
"'.'.'.'.'.'.).'.'.'.'.'.'. X= t.i.i.i.5.<.a.i.w.i.i.i.u.1.p.i.i.a.a.d.d.f.f.f.f.z.f.f.f.y.8.z.f.f.f.d.z.2.8.f.d.b.&.u .X).).(.).).).).'.].].).'.'.'.'.'.'.'.'.'.",
"'.'.'.|.L.^.|.).'.'.'.'.'.I.- p.i.i.w.4.1.a.w.i.i.i.i.q.1.u.w.i.i.a.d.d.d.f.f.x.f.f.d.f.y.<.f.f.f.f.d.z.y.<.f.d.f.k.4 ).).'.'.'.'.'.'.'.).'.`.!.).'.'.'.'.'.'.).",
").'.`.O.O.K.K.`.'.'.'.).}.X.> d.w.i.w.<.2.i.w.i.w.i.i.6.1.i.w.i.i.a.a.d.d.d.x.r.2.z.d.f.p.<.d.f.f.f.d.f.p.P g.f.a.x.0 X.}.).).).).).'.'.'.K.!.+.P.K.'.'.).).).`.",
"'.'.^.+.`.`.o.(.'.'.).). X..q d.w.i.q.<.6.i.w.i.w.i.i.6.1.i.w.i.a.a.a.d.d.z.t.w <.f.d.d.p.<.a.f.f.f.d.d.p.<.y.y.d.x.r p .X).'.'.'.'.'.'.'.+.L.).P.O.'.].'.'.'.'.",
"'.'.'.).'.'.).).'.).).). X..< i.w.i.9.<.6.i.w.i.i.i.i.4.1.i.w.i.i.i.a.a.d.f.X   D u.f.d.u.<.p.f.d.d.d.d.p.7.&.L d.z.&.t .X).'.'.'.'.'.'.'.'.'.}.).`.).).'.'.'.'.",
"'.'.'.'.).'.'.'.'.'.'.`.}.| < i.w.i.q.<.4.i.i.w.w.i.i.4.1.w.i.w.i.i.a.a.d.#XpX#.J P d.d.u.,.u.f.d.d.d.d.a.*.. D a.f.3.7 .XI.'.'.'.'.'.'.'.'.'.'.).).).].'.'.'.'.",
").'.).).).'.'.).'.'.'.). XX.% 5.i.i.9.<.4.i.w.w.i.w.w.4.1.w.i.w.i.a.a.a.m.CXLXLXbXF p.d.q.<.u.f.d.d.d.d.f.:.h C 7.f.r.4 '.).).'.'.'.'.'.'.'.'.'.).].).).'.'.).'.",
").).).).).'.'.'.'.'.'.'.'.`.- L 0.i.q.1.4.w.i.i.w.i.i.4.<.i.i.i.i.i.i.z.kX9XPXLXIXJ ,.f.q.<.u.d.d.a.d.a.m.IXLXjXL f.7.4 '.).).).).).).'.).).'.'.'.'.'.'.).).).).",
").).).).'.).).).'.'.'.'.). X4 V 6.w.w.1.<.w.i.w.i.w.i.5.<.q.w.w.i.i.a.#XwX9XrXUXqX3XP p.q.<.u.d.a.d.d.d.kXeXLXKXD d.,.- ].`.).).).].).'.).).].'.'.'.'.).).).).).",
"`.).).).).)._.'.'.'.'.'.`. X} < 4.1.i.5.<.q.i.i.i.w.i.6.I q.w.w.i.i.t.y eXwX6X2X5X3XF 7.8.<.u.d.a.a.a.m.wX0XGXrXS.0.G = /.O.^.`.).).).].'.].'.'.'.'.'.'.).).).).",
").).).).).).).'.'.'.(.!.'.).}.= Z 6.4.9.<.5.i.i.w.w.i.q.I h.h.I e.z.&.  hXCX9X4X5Xo , L 1.<.u.d.d.a.d.:.wX4X2X4X .5.C 7 [.^.@.`.).).).).).).'.'.'.'.'.).).).).).",
").).).).).).).).'.K.!.o.!.P.}.X.O <.<.4.<.<.i.v.d.w.i.w.U SXSXT R I u.p.y.A.E.oX=.A H r.1.<.a.a.a.a.s.. BXwX5X6XO L , p .X).^.).).).'.'.'.'.'.'.'.'.'.'.).).).).",
").).).).).).).).'.O.~.'.K.!.). Xi % 4.4.<.<.6.z.x.i.w.i.K T 1XT T B I a.i.d.d.a.d.f.f.d.4.6.a.a.a.a.s.*.=./.kXJ , G & J.'.).'.).).'.).'.'.).'.'.'.'.'.).).).).).",
").).).).].).).).'.'.'.'.).).).).XXu % <.6.<.<.6.d.i.w.i.e.K Y Y B Y 5.d.&.% C 8.a.y.G G G <.u.a.a.a.a.i.2.0.w.+XjXT Y (.).).).).).).'.'.'.).'.'.'.'.).).).).).).",
").).).).).).).).'.'.'.).).).).).(.XXi O D 6.1.<.4.w.i.i.0.4.1.6.6.i.i.w.s.X . ,.u.s..   . . X O % S i.7.*.V L T 1XR Y L.).).).).).'.'.'.'.).'.'.'.'.).).).).).).",
").).).).).).).).'.'.'.'.'.).'.).).)..X| * 1 P q.1.<.6.i.i.6.,.6.a.i.w.w.a.s.&   X O               , L 3.r 1 q.F 2 J U.).).).).).'.'.'.'.'.).'.).'.'.).).).).).).",
").).).).).].].).).'.'.'.'.'.'.'.).).(.}.(.u $ 1 L 5.5.4.6.q.4.<.5.w.i.i.w.i.g.r .                     O H q.D O p  X'.'.).).).).'.'.'.'.'.'.'.'.`.).+.^.`.).).).",
").).`.).'.'.).).'.'.'.'.'.'.'.'.).).'.).'..XL.u * , C L 4.6.8.1.1.1.6.w.w.w.w.d.r.A > @         X > A 1.,., @ ...X).'.).).).).).'.'.'.'.'.'.).'.!.+.P.!.@.].'.).",
"'.'.).].'.'.'.'.'.'.'.'.'.'.'.'.'.).'.'.).).|..X}.s = - < w Z G <.5.6.6.9.q.6.4.5.q.p.y.3.*.3.3.2.1.S , O u `. X).'.'.'.'.'.).).'.'.'.'.'.'.)._.~.~.'.(.P.'.'.'.",
"'.'.).).).).'.'.'.'.].).).'.'.).).).).).).).(.G.} { $.o.7 f : @ $ % 1 w C C S D F F F F Z Z C 1 < $ 4 b +.].}.).).).).).).).).'.'.'.`.O.].).).).'.'.'.}.'.'.).).",
"'.).).'.'.'.'.'.'.`.`.].'.'.'.).'.'._.).).'.G.$ ! ] / [ ~ &Xx W ^ Q 9 f # 9 # 4 = - = = 4 7 t p | (.[./.O.K.O.`.).).).].).).'.).|.O.!.O.K.K.'.).'.'.'.).'.'.).'.",
"'.'.'.'.'.'.'.`.`.+.P.`.).'.'.'.'.'.'.'.'.).J.M 8 ( W / E l N W [ [ x =X~ [ { X..X}.}. X}..X.X.X X'./.O.'.).+.`.).'.'.'.'.'.'.'.'.O.L.'.!.K.'.].'.'.'.'.'.'.'.'.",
"'.'.'.'.'.'.}.K.+.L.!.o.`.'.'.'.'.'.).|.L.P.vXDXzXt E E 6 $Xz E ^ W 8 =X~ W W 7 J.'.I.).`.).).).).).)._.'.'.'.'.).).).).'.'.).'.).).).).].`.).).'.'.'.'.).'.'.'.",
").).).'.).'.'.I.^.'.].L.).'.'.).'.'.'.(.Y.HXmXzXlXd 6 6 3 l z E W W 8 :X8 6 i = s '.'.}.).).).'.).).'.'.'.'.'.'.).).).).).).'.).).).).'.'.'.).).'.'.'.).).'.).).",
"'.'.'.'.'.'.'.'.|.`.'.'.'.'.'.'.'.'. X} SXDXnX@XE.d # 9 6 %Xz ~ ~ b h -X; Q.DXvXsXJ.P.H.(.|.|.).).).).).'.'.'.'.'.'.'.'.'.'.'.'.).].'.'.'.'.'.].'.'.'.'.'.'.'.'.",
"'.).'.'.).'.'.'.].).'.'.'.).'.).'.'.} tXhXQ.lXW.>.{ k ,Xk Y.$X>X>X>Xz m y @XbXDXGXHXm Y.Y.s ..}._.'.'.].'.'.'.'.'.'.).'.'.).'.'.).).'.'.'.'.'.'.'.'.'.'.).'.).'.",
").'.).).'.).'.'.'.).'.'.'.).].)._.| VXLXIXgXD.:.~.} k =X&Xl l &X=X&X%X%Xu E.+XxXnXT.JXLXfXY.Y.b J.].'.'.'.'.'.'.).).).'.).'.`.L.).).).'.'.'.'.'.'.'.'.'.'.).'.).",
").).).).'.).).'.'.'.'.'.'.'.).'._.n KXLXPXLXY.| XXb k &X-X-Xk ,X>X-X&X=X{ !.E.+X+XhXLXLXgXD.Q.m aX .).'.).).'.).).).).).).P.!.@.P.^.'.).].).'.'.'.'.'.).).).).).",
").).).).).'.'.).'.'.'.'.'.'.).'.S.Y.T.uXZXKX#.H.{.} k &X-X=Xk >X7X>X*XN ~._.F.>.J fXLXAXAXiXuXT.zXn J.}.).].).).).).).).).o.~.`.O.K.|.).).).'.'.'.'.'.).).).).).",
").).).).'.'.'.).'.'.'.'.).).}.G.pXsXzXzXaXdX_ }._.| j $X&X-Xl j %X$Xk | }.).'.`.X.n ZXZXPXPXZXY.T.d I.'.].).).'.).).).).).(.`.'.`.`.'.'.].).].'.'.'.).).).).).).",
").).).).'.).).'.'.'.'.'.'.).). .PXAXsXsXAXKX| |.{._.h k *X-X7Xz g j 7  X).).'.'.].G._ Y.AXIXdXS.zXn L.].).).).'.).).).).).'.).).).).'.'.).).).).'.'.).).).`.).).",
").).).(.'.'.).'.'.'.'.'.).].G.uXPXLXPXKXJXKXvXX.'.].H.h %X-X;X7Xl j N ).).).).).).|.{.~.$.Y.n Y.n ..|.|.'.'.).).).).).).).).).).).'.'.'.).).'.'.'.'.'.).`.).).).",
").).).).).).'.'.'.'.'.'.'.].{.n gXAXKXKXM m yXG.'.)..Xp j =X;X7X7Xj 7 (.).).).).).'.O.o.{.L.{ Q.T.F.|.).).).'.).).).).).).).).).).'.).'.).].'.'.'.'.'.).).).).).",
").).).).).'.).`.'.'.'.'.'.)._.P.u iXiXAXaXQ.a  X).'.).I.h k ,X*Xh h h (.).).).).).).(.(.'.).I.J.I.}.|.I.).).).).).).).).).).).).).).).).].).'.'.'.'.].).).).).).",
").).).).).(.^.o.`.).'.'.'.'.).'.)...t ZXaXd G.}.'.'.|. XF.g $Xh Q.bX; H.).).).).).).).'.).'.'.}.'.I.|.|.).).).).).).).).).(.).).).'.).].).).'.'.'.).).).).).).).",
").).).).'.o.K.~.K.O.'.'.'.'.'.).). X).u c * b  .| '.F.U.J.t o J xXGXyXF.].).'.).).).).).).).'.).).'.'.'.'.'.'.).).).).).).).).).).'.).'.'.).'.'.'.'.'.).).).).).",
").).'.).'.^.(.'.^.^.'.'.'.'.'.'.).(. Xs NX; + dXv c <Xd :.W.S.D.+XDXvXX.}.).'.'.'.'.'.).'.'.'.'.'.'.'.'.'.'.'.).).'.'.'.).'.'.'.).'.'.'.'.'.'.'.).'.'.'.).).'.'.",
").).).).'.'.'.'.'.'.'.'.'.'.'.'.'.I.}._ NXc o + ; c IXT.cXnXFXT.W.DXvX| }.).).'.'.).).).).'.'.'.'.'.'.'.).).'.).).'.'.).'.).'.).'.'.'.'.'.'.'.'.).).O.~.'.`.'.'.",
").).'.'.'.'.'.'.'.'.'.'.'.'.'.'.'.). X_ dXtXtXy + y ZXaXDXSXAXuXE.MXHXY.).).'.'.'.'.'.'.'.'.'.).'.'.'.'.'.).].'.'.'.'.'.'.'.'.'.'.'.'.'.'.'.'.'.!.O.K.!.o.'.'.'.",
"'.'.'.'.'.'.'.'.'.'.'.'.'.'.'.'.'.'.}.) dXiXZXKX3Xo AXM #.| F...:.+XHXY.{. XG.(.}.}.).).).).).).'.'.).].'.'.'.'.'.'.'.'.'.'.'.'.'.'.'.'.'.'.'.'.^.!.'.`.O.'.'.'.",
"'.'.).'.'.'.'.'.'.'.'.'.'.'.'.'.'.'.}.X.hXiXfXKXPXv c ..(._.}.(.d sXsXM - i #.M i F.}.).).).).).).).).).'.'.'.'.'.).).'.].).).'.).'.'.'.'.'.'.'.'.'.'.'.'.).'.'.",
"'.'.'.'.'.'.'.'.'.'.'.'.'.'.'.'.'.'.}.F.uXiXfXPXLXVXa  X'.).|.G.tXgXv ; m KXLXLXJXm | }.).'.'.[.'.'.].).'.'.'.'.'.'.'.'.).).'.'.'.'.|.'.'.'.'.'.'.'.'.'.'.'.'.'.",
"'.).'.).'.'.'.'.'.'.'.'.'.'.'.).'.'.].F.yXdXgXLXLXAXs }.).'.'.).y + + c PXLXLXLXLXPXn (.'.`.!.K.).).).].'.'.'.'.).).].).'.).).).'.'.`.'.'.'.'.'.'.'.'.'.'.'.).'.",
").'.).).).).'.'.'.'.'.'.'.'.'.).'.'.'.G.Y.dXdXLXLXfX_ OX).).}.X.tXc + dXPXPXLXKXZXgXm p }.@.P.P.+.^.'.).'.'.'.'.).).).).).).).'.`.(.o.^.`.'.'.'.'.'.'.'.).).).'.",
"'.'.'.'.'.'.'.'.'.'.'.'.'.^.`.|.'.'.].H.Y.ZXhXLXPXn H.'.).).}.| tXc ; ZXNXiXpXtXdXVXgXy ~.!.`.'.P.^.'.'.'.'.'.'.'.'.'.'.).).].'.+.O.^.P.o.|.'.'.'.'.'.'.'.'.'.'.",
").).'.'.'.'.'.'.).].'.`.P.+.K.K.].).'.`.#.ZXiXJXm ) }.).'.'.|.I.:   ; tXuXdXfXfXdXaXn _ ).'.).'.'.'.'.'.'.'.'.'.).).).).).).).).~.(.).`.^.'.'.'.'.'.'.'.'.).).).",
").).).).'.'.'.'.).).'.^.o.).^.o.`.).`.].b M y b F.}.).'.'.'.}.F.y iXZXfXdXuXn } _ G.{. X'.'.'.'.'.'.'.'.'.'.'.'.).).).).).).).).'.'.).'.|.'.'.'.'.'.'.'.'.).).).",
").).).).).).'.).'.'.'.'.`.).).).).).`.'.J.) G.}.}.).'.'.).'.'.H.b tXn s ) F.{.}. X_.(.).).].).'.'.'.'.'.'.'.).).).).).).).).).).).).'.'.).).'.'.'.'.'.'.'.'.).).",
").).).).).).'.).'.'.'.).'.).).).).).).).'.}.'.).).'.'.'.).'.'.'.F.F.(. X}.'.).).{.(.).).).'.).'.'.'.'.'.'.'.'.).).).).).).).).).).'.).'.'.'.'.'.'.'.'.'.).'.).).",
").).).).).).'.'.).].).'.'.'.'.).).).).).).).).).).).'.'.'.'.'.'.|.|.).(.).).(.).).).).).).).).).'.'.'.'.'.'.'.'.).).).).).).).).).'.).'.'.).'.'.'.'.'.).`.).).).",
").).).).).).).).'.'.).'.'.'.).).).).).).).).).).).).'.'.'.'.'.'.).).).).).).).).).).).).).'.).).'.'.'.'.'.'.'.'.).).).).`.).).).).).'.'.'.).'.'.'.'.'.'.).).).)."
};
