/* XPM */
static char *New_Project__16__resized[] = {
/* columns rows colors chars-per-pixel */
"80 80 256 2 ",
"   c #010100",
".  c #040800",
"X  c #181903",
"o  c #191718",
"O  c #0C0A07",
"+  c #251A03",
"@  c #301D08",
"#  c #1D2108",
"$  c #102E13",
"%  c #292906",
"&  c #372603",
"*  c #343904",
"=  c #2B3618",
"-  c #283410",
";  c #071520",
":  c #142929",
">  c #32302D",
",  c #281F20",
"<  c #482901",
"1  c #473D00",
"2  c #5A3500",
"3  c #563208",
"4  c #6A3A00",
"5  c #633700",
"6  c #46261F",
"7  c #154F14",
"8  c #2E471B",
"9  c #197011",
"0  c #246C17",
"q  c #364725",
"w  c #3B5228",
"e  c #3A4E3A",
"r  c #29762C",
"t  c #4A4701",
"y  c #5B5800",
"u  c #555508",
"i  c #794900",
"p  c #6C5001",
"a  c #786A00",
"s  c #696800",
"d  c #43582A",
"f  c #47572E",
"g  c #587638",
"h  c #4F6933",
"j  c #6A6F35",
"k  c #1A3756",
"l  c #2C7444",
"z  c #1E4772",
"x  c #274664",
"c  c #315370",
"v  c #366578",
"b  c #284653",
"n  c #454544",
"m  c #585852",
"M  c #5A6847",
"N  c #6B704A",
"B  c #6A6A67",
"V  c #71756F",
"C  c #566479",
"Z  c #D03726",
"A  c #844900",
"S  c #885602",
"D  c #995A01",
"F  c #A15C00",
"G  c #927105",
"H  c #B76D00",
"J  c #A87900",
"K  c #B86F05",
"L  c #927234",
"P  c #C56B00",
"I  c #CC7B00",
"U  c #C47803",
"Y  c #D67800",
"T  c #DB6B04",
"R  c #D34C31",
"E  c #DD610D",
"W  c #867755",
"Q  c #E9545E",
"!  c #25990E",
"~  c #2EAE17",
"^  c #1D8922",
"/  c #279B27",
"(  c #298C25",
")  c #38B528",
"_  c #2FAD2B",
"`  c #1D9926",
"'  c #568C3D",
"]  c #67853A",
"[  c #73953C",
"{  c #6C9437",
"}  c #59B037",
"|  c #33C832",
" . c #4DC836",
".. c #378947",
"X. c #698844",
"o. c #769947",
"O. c #738456",
"+. c #72904B",
"@. c #7AA347",
"#. c #6FB755",
"$. c #74B956",
"%. c #7CBC56",
"&. c #77B957",
"*. c #65A851",
"=. c #668F55",
"-. c #7ECA58",
";. c #958F00",
":. c #B08E01",
">. c #A6A400",
",. c #B5AF00",
"<. c #B59D30",
"1. c #D58300",
"2. c #DA8500",
"3. c #DD8A00",
"4. c #D68D00",
"5. c #DA9500",
"6. c #C78805",
"7. c #E38C00",
"8. c #E78B00",
"9. c #EB9301",
"0. c #EC9C00",
"q. c #E49800",
"w. c #F19600",
"e. c #FA9500",
"r. c #F49A00",
"t. c #FC9D00",
"y. c #F88D04",
"u. c #D5AD04",
"i. c #E9A600",
"p. c #F3A300",
"a. c #FEA200",
"s. c #FEAB00",
"d. c #F4AD01",
"f. c #ECB800",
"g. c #FEB300",
"h. c #FEBC00",
"j. c #F4B600",
"k. c #D0A132",
"l. c #C7C500",
"z. c #D8DA00",
"x. c #CED100",
"c. c #FFC300",
"v. c #FFCC00",
"b. c #F3C800",
"n. c #FDD300",
"m. c #FEDC00",
"M. c #F6DA00",
"N. c #F4CA09",
"B. c #EAEB00",
"V. c #FEE400",
"C. c #FEEB00",
"Z. c #F3E600",
"A. c #FFF400",
"S. c #FFFE00",
"D. c #F2F000",
"F. c #DDE000",
"G. c #839F4C",
"H. c #AE8D47",
"J. c #85A84A",
"K. c #8CB452",
"L. c #83BE56",
"P. c #8ABE55",
"I. c #84BE58",
"U. c #88BA56",
"Y. c #94BB54",
"T. c #91B44B",
"R. c #87887B",
"E. c #908B71",
"W. c #BBA571",
"Q. c #9BA06B",
"!. c #EAAE58",
"~. c #86C057",
"^. c #8CC157",
"/. c #8BC158",
"(. c #86C75A",
"). c #94C356",
"_. c #9AC457",
"`. c #95C358",
"'. c #9BC558",
"]. c #9ECA5A",
"[. c #9CCA56",
"{. c #9CD25D",
"}. c #8FC24F",
"|. c #A1CD5B",
" X c #A0C757",
".X c #A5D25D",
"XX c #A9D55D",
"oX c #ADD95F",
"OX c #AAD861",
"+X c #B5E364",
"@X c #D0D24F",
"#X c #FFD36F",
"$X c #FAE257",
"%X c #2C588F",
"&X c #376897",
"*X c #336292",
"=X c #365BA7",
"-X c #3C74AC",
";X c #3A75B4",
":X c #456C89",
">X c #7E7C82",
",X c #417BB5",
"<X c #F86787",
"1X c #0089AE",
"2X c #5084B2",
"3X c #649A95",
"4X c #0090C7",
"5X c #1598C4",
"6X c #04ACD8",
"7X c #00BAF1",
"8X c #25ACCE",
"9X c #549BC7",
"0X c #00C5FE",
"qX c #0BC0F9",
"wX c #10CDF6",
"eX c #36DCFF",
"rX c #33CDCB",
"tX c #7ADEF8",
"yX c #49D4BB",
"uX c #999999",
"iX c #8E8E8B",
"pX c #9CA28C",
"aX c #A9A592",
"sX c #B4A68F",
"dX c #A7A7A7",
"fX c #B7B5B9",
"gX c #B2AFA7",
"hX c #A19C9D",
"jX c #E8A69B",
"kX c #F4D68A",
"lX c #FFE795",
"zX c #FFE18A",
"xX c #C6C4BA",
"cX c #E2D2AF",
"vX c #FFE7A6",
"bX c #FFF4B9",
"nX c #FEE8B3",
"mX c #C8F0B0",
"MX c #BCB9C0",
"NX c #C3BFC8",
"BX c #85F2F9",
"VX c #A7F9FF",
"CX c #93DCE2",
"ZX c #D6D6D8",
"AX c #CBC9CF",
"SX c #F4D6D0",
"DX c #FFF6C8",
"FX c #FFF5D6",
"GX c #FBEBD4",
"HX c #E9E8EA",
"JX c #E8F7F7",
"KX c #FEFEFE",
"LX c #F5F4F7",
"PX c #F3F2EE",
"IX c #D5ECE2",
"UX c #AED999",
/* pixels */
"_._._._.'.'._._.'.'._._._.'._._._._._._._._._._._._._.'.'.'.'.'.'.'.'.'.Y._._._._._._._._._._.'.'.'.'.'.'.'._._._._.'._._._._._.Y.'.'.'.'.'.'.'.'.'._._._._._._.",
"_._._._._.'._.'.'.'._._._.'._._._._._._._._._._._._.'._._.U.L.'._._.'.'.|._.'._._._._._._._._._.'.'.'.'.'.'.'._._._.`.'._._._._.'.'.'.'.'.'.'.'.'.'.'.'.P.L._._.",
"_._._._._.'._.'.'.'.'._._._._._._._._._._._._._._._.'.`.$.L.I.&.P..X'.T.G._.]._._._._._._._._._.'.'.'.'.'.'.'._._._._.'._._._._.'.'.'.'.'.'.'.'.'.'._.$.~.%.%.~.",
")._._._.'.'._.'.'.'.)._.].]._._._._._._.Y._._._._._._._.%.`.'.%.[.o.8 7 7 8 K.]._._._._._._._._.'.'.'.'.'.'.'._._._.'.'._._.)._.`.'.'.'.'._.'.'.'.'._.%.`.'.L.^.",
"_._._.'.'.'.'.'././.#./.P.'.'.'._._._._.'._._.'.]._.'.'._._.'.|.] $ ^ / / / 8 ].'.'.'.'.'.'.'.'.'.'.'.'.'.'._._._._._.'.'._._._.'.'.'.'.'.'.'.'.'.'.].'._._.'._.",
"'._.'._.'.'.'. X%.%.).P.&.'.'.'._.'.'.'._.'.'.'.]._.'.'._._.].Y.7 ` / ( / | ^ h XXY.'.'.'.'.'.'.'.'.'.'.'.'.'._.'.'.'._.'.'.'.'.'.'.'.'.'.'.'.'.'.'.'.'.'._._._.",
"'.'.'.'.'.'.'.'.`.`.'.).).'.'.'.'._.'.'.'.'.'.'.'.'.'.'._.].].Y.7 / / _ _ _ | 0 J. X'.'.'.'.'.'.'._.'.'.'.'.'.'.'.'._.'.'._._.'.'.'.'.'.'.'.'.'.'.'.'.'.'.'.'._.",
"'.'.'.'.'.'.'.'.'._.'._.'.'.'.'.'.'.'.'.'.'.'.'.'.'.'.'._._.'.].j 7 ^ / ` _ ) ` h .X_.'.'.'.'.'._._.'.'.'.'.'.'.'.'.'.).).$.I.Y.'.'.'.'.'.'.'.'.'.'.'.'.'.'.'.'.",
"'.'.'.'.'.'.'.'._.'.'.'.'.'.'.'.'.'.'.'.'.'.'.'.'.'._.].'._._._.|.o.8 7 ^ / _ _ 7 Y.].'.'.'.'.'.'.'.'.'.'.'.'.'.'._.|.L.$.P.L.#.'.'.'.'.'.'.'.'.'.'.'.'.'.'.'.'.",
"'.'.'.'.'._._.'._.].'.'.'.'.'.'.'.'.'.'.'.'.'.'.'.]._._.'._._._.'./.%.h 7 ( _ | r J.].'.'. X^.~.'.'.'.'.'.'.'.'.'._.'.`.P. X).P.].'.'.'.'.'.].'.'.'.'.'.'.'.'.'.",
"'.'._._.'.'.'.'._.'.'.'.'.'.'.'._.'.'._.'.'._.'.'.'._._._._.`.[.|.OX{.+Xw 9 ` | 0 G.{.Y.).&.L.%.L.^. X_.'.'.'.'.'.'._.'.'._.'.'.'.'.'.'.'.'.'.'.'.'.'.'.'.'.'.'.",
"_._.'._._._.'.'.].'.'.'.'.'.'.'._._._._._._._._.'.'._.'.'.XXXXK.+.h f d = 7 ( _ 0 +.OXOX_.$.`._.%.^.'._.'.'.'.'._._._._.'.'.'.'._._._.'.'.'.'.'.'.'.'.'._._._._.",
"_.].'.'.'.'.'.'.'.'.'.'.'.'.'.'._.'.'.'.'.).[.[.'.'._.OX`.N 8 - t a >.,.4 $ 9 _ $ & 8 h P.OX'.'.'.'._.'.'.'.'.'.'.'.'._.'.'.'.'.'._.'.'.'.'.'.'.'.'.'.'.'.'.'.'.",
"_._.'.'.'.'._.'.'.'.'.'.'.'.'.'._._._.'.'.[.U.^.'.|.'.h % u ,.B.S.S.S.S.f.s 8 * S f.l.a % f P.OX_._.'.'.'.'.'.'._._._._._._._._.'.'.'.'.'.'.'.'.'.'.'.'.'.'._._.",
"'.'.'.'.'.'.&.).'.'.'.'.'.'.'.'._._._. X^.L.$.(.(.g o s F.S.S.S.A.v.Z.S.S.S.A.C.S.C.S.S.D.;.% h .X]._.'.'.'.'._._._._._._._._.'._.'._.'.'.'.'.'.'.'.'.'.'.'._.'.",
"_._.'.'.%.L.%.L.%.'.'.'.'.'.'.`._._._.[.P.$..X).: 1 z.S.V.V.S.n.s.c.S.m.h.A.S.S.S.m.C.S.S.S.B.y = Y.|._.].'._._._._._._._._._._._.'.'._._.`.'.'.'.'.'.'._._._._.",
"_.Y._._.L.P.'.^.L.[.'.'.'.'._._._._._.'.).XX@.X ;.S.C.s.m.A.g.s.s.A.V.s.c.S.S.S.S.A.V.S.S.A.C.S.>.X o.OXP.`.'.'._._._._._._._._._._._.'.'._.'._.'.'.'.'.)._._._.",
"_._._.'._.'.'.'.'.'.'.'.'.'._._._._._.Y.XX] X l.S.h.r.m.C.s.s.s.c.A.s.s.h.S.S.S.S.S.n.m.S.A.A.v.S.z.% X.(.U.~._._._._._._._._._._.'.'.'.'.'.'._.'.'.'.'._._._._.",
"_._._.'._._.'.'.'.'.'.'._.'.'._._.'._..XX.X z.S.d.r.b.V.a.s.g.a.M.c.s.g.g.C.S.S.S.S.Z.h.n.c.V.C.h.S.B.% ' {.#.`._._._._._._._._._._._.'.'.'.'.`._.~./.'._._._._.",
"_._._._._.'.'.'.'.'._.'.'.'.'._._.Y..Xo.X B.V.t.a.d.V.a.a.s.s.i.m.s.g.g.g.c.S.S.S.S.A.j.c.c.c.C.n.h.A.B.% +.{.Y._._._._._._.)._._.'.'.'._._.].`.%.%.L.%.)._._._.",
"_._._._._._._.'.).).$.^.)._._.'.`.].K.X x.V.r.s.q.M.g.a.s.s.r.b.c.a.g.g.h.h.v.S.S.S.V.f.h.v.c.v.Z.j.h.C.z.# K.].Y._._._._._._._._._._.'._._.].`.%.'._.%.`._._._.",
"_._._._.'.'.'. X%.&.~.I.$.'._.'._..Xo >.C.e.s.9.f.c.t.s.s.s.q.b.s.s.s.g.h.h.h.v.V.n.n.b.d.v.v.h.m.b.j.h.S.,.- ]._._._._._._._._._.'.'.'.'._._.'.'.'.'.'._._._._.",
"_._._._.'.'.'.'.`.).|.`./._.'.Y.XXf s A.r.a.r.q.n.t.a.s.s.a.q.v.a.s.g.g.h.h.c.v.c.c.c.n.i.v.c.c.h.m.i.c.h.S.a d XX)._._.)._._._._.'._.'.'._.'.'.'.'.'.'._._._._.",
"_._._._.'.'.'.'.'.'._.'.'._.'. XJ.% Z.s.t.t.7.f.g.a.a.a.s.0.i.g.a.s.g.g.g.h.c.c.v.v.c.n.q.h.v.c.h.n.b.0.v.c.S.* o.|._._._._._._._.'._.'.'.'._._.'.'.'.'._._._._.",
"_._._._.'.'.'._.'.'.'._._.'._.XX8 ;.n.r.a.w.3.c.t.a.a.s.s.7.f.s.a.s.g.g.h.h.c.c.v.c.c.v.i.d.v.c.c.h.n.5.h.h.V.,.= OX).'.'._.'._._.'._.'.'._._._.'.'.'.'._._._._.",
"_._.'._.'.'.'._.'.'.'.'._._.|.@.* M.t.a.t.7.i.g.t.a.a.s.s.3.j.a.a.s.s.g.g.h.c.c.c.c.c.c.i.i.v.c.c.h.v.i.q.v.g.S.t X..X_.'.'.'.'._._.'.'.'.'.].'.'.'.'.'.'.'.'._.",
"_._._.'.'.'.'.'.'.'.'.'.'._.XXw ;.c.e.a.w.2.j.a.t.a.a.s.r.3.g.t.s.s.s.g.h.h.h.c.c.c.h.c.f.q.c.c.c.h.c.b.3.h.h.v.l.= .X).).[.).U._._.'.'.'.'.'.'.'.'.'.'.'.'._.'.",
"'.'.'.'._.'.'.'.'.'.'.'.'.[.).- f.t.a.a.8.5.s.t.a.a.a.s.9.q.s.a.a.s.g.g.g.h.h.c.c.c.h.h.j.3.h.c.c.h.h.c.5.p.c.g.C.t +..X_.L.L.&.L.P. X'.'.'.'.'.'.'.'.'.'.'.'.'.",
"_._.'.'._._.'.'.'.'.'.'._..X+.t c.r.a.t.2.q.s.t.t.a.a.s.7.q.a.a.a.s.s.g.g.h.h.h.h.c.h.h.h.3.j.c.h.h.h.c.q.7.c.g.v.>.w XX).%.P._.%.L. X'.'.'.'.'.'.'.'.`.'._.'._.",
"'.'.'.'.'.'._._.'.'.'.'.'.OXh G g.t.a.w.1.p.a.t.t.a.a.a.3.0.a.a.a.s.s.g.g.h.h.h.c.h.h.h.h.3.d.c.h.h.h.h.j.2.j.h.g.n.* K. X_._.[._._.'.'.'.'.'.'.'.'.'.'.'.'.'.'.",
"'.'.'. XP./. X_.'.'.'.'._..Xq :.a.t.a.9.2.p.t.a.a.a.a.a.2.p.a.t.a.s.s.g.g.g.h.v.f.h.h.g.h.2.i.h.h.h.g.h.j.2.p.h.g.n.y X..X_._._.'.'.'.'.'.'.`.L._._.'.'.'.'.'.'.",
"_.'.P.L.%.L.L.).'.'.'.'.'.'.= 5.a.a.a.7.2.p.a.t.t.a.a.t.2.r.a.a.a.s.s.g.g.g.c.u.H g.h.j.h.3.p.h.h.g.h.g.j.2.q.c.g.v.;.d .X)._._.'.'.'.'.'.~.~.&.~.U.'.'.'.'.`.'.",
"'.'./.$.`.`.$.).'.'.'.'.'.'.- 3.a.t.t.7.2.t.a.a.t.a.a.r.2.r.a.a.a.a.s.g.g.h.u.X H q.h.g.g.3.0.h.h.h.g.g.g.3.0.5.j.h.u.q .X'.'.'.'.'.'._. X&./._.L.%.'._.'.'.'.'.",
"'.'._._.'.'._._.'.'.'.'.'. X- Y s.t.t.3.3.t.t.t.a.t.a.r.2.w.a.t.a.s.s.s.s.c.u   4 2.g.g.s.3.9.h.g.g.g.g.j.0.:.D d.g.j.* P.'.'.'.'.'.'.'.'.'.'. X'._.'._.'.].'.'.",
"'.'.'.'._.'.'._.'.'.'.'.'.|.= H a.a.a.3.2.t.t.a.a.t.a.w.2.w.a.t.a.a.s.s.s.$XJXHXsXH p.g.d.2.q.h.g.g.g.g.g.i.O 2 p.g.h.1 J.|.'.'.'.'.'.'.'.'.'.'.'.'._.'._._._._.",
"'.'._._.'.'.'._.'.'.'.'.Y.OXw D t.a.t.7.2.r.a.a.a.t.a.w.2.r.a.a.t.a.s.a.N.BXVXKXKXH.1.g.s.3.9.h.g.g.g.g.h.k.iXL I g.h.t o.|.).'.'.'.'.'.'.'.'.'.'.'.'.'.]._._._.",
"_._._._._.'._.'.'.'.'.'._.XXg 5 9.r.a.7.2.r.a.t.a.t.a.w.2.w.t.a.t.a.p.c.mX7XtXKXJX3XI d.s.2.9.h.g.g.g.s.h.IXKXPXU p.g.1 o..X`.`._.'._.'.'.'.'.'.'.'.'.'._._._._.",
"_._._._.'._.'._.'.'.'.'.'.'.K.% Y 7.a.w.1.9.a.t.t.a.a.r.2.w.a.a.a.t.g.u.BX0X6X9X8XqXU 3.s.2.q.g.g.s.g.s.@XeXKXKXH.9.s.& o.]._._._.'._.'.'._.'.'.'.'.'._._._._._.",
"_._._._.'.'.'.'.'.'.'. X'._.XXw A 9.7.r.2.7.a.t.t.a.a.r.8.8.y.y.a.s.u.  3XVXwX4X7X5X4 1.r.1.0.g.s.s.d.h.CX0XCXtX3X2.9.& *.~.~._.'.'.'.'.'._.'.'.'.'.'.'._._._._.",
"_._._._._.'.'.'.'.'.).I.'.'.|.K.+ I 3.7.8.2.r.h.g.t.t.a.T jXSXQ R y.u.G L UXyXrXrX$ X K 2.2.r.s.s.s.h.J 9XeX1X6X3XP U - ^.^.#.`.'.'._.'.'._.'.'.'.'.'.'._._._._.",
"_._._._._._._.'.'.L.L.&.~.P.'.|.] @ 7.2.2.2.7.c.n.s.t.a.T Q jX<XQ Z E h.g.g.g.h.d.i.i.i.q.1.p.s.s.a.h.* B BX7X7X; D i q XX).^._._._.'.'.'.'.'.'.'.'.'.'._._._._.",
"_._._._.'.'._.'.].%.~.'.L.L. X`.XXd < 7.7.1.2.r.c.s.t.a.q.E Z Q R Z E s.q.6.q.r.a.s.g.g.9.w.g.g.g.s.d.j.5.<.@X<.S 6.p o..X).'._._.'._.'.'._.'.'.'.'.'._._._._._.",
"_._._._._.'._._._._.'.'.'.'.'._._..Xh @ I 9.2.2.9.t.a.t.r.3.Y T T Y e.a.u.. X 4.s.h.a 2 p A J 6.5.0.a.t.2.9.e.!.SXQ Z H._._._._._._.'.'.'.'.'.'.'.'.'._._._._._.",
"_._.)._.'.'._.'.'.'.'._._.'._._._.`..X] + S 9.7.2.7.r.a.a.9.2.0.a.a.a.r.g.:.  5 F :.X             5 t.t.:.p 6.R Q Q Z T.'._._._._.'.'.'.'._.'.'.'.'.'._._._._._.",
"_._.'.Y._.'._.'._.'.'.].'._._._._._._..XK.q & F 8.9.7.7.w.a.8.2.w.t.a.a.r.g.:..       . . . .     @ i S a i 9.I < L T.]._._._._.'.'.'.'.'.'.'.'.'._._._._._._._.",
"_.'.'.'.'.'.'.'.'.'.'.'.'.'.'.'._._._._.'..X+.= & A I 9.9.8.7.2.2.9.a.a.a.t.s.j.a #                   + H w.F X g {.]._._._._._.'.'.'.'.'.'.'.'.`.'.&.~._._._._.",
"_._.'._.'.'.'.'.'.'.'.'.'.'._.'.'._._._._.)..X.Xo.d - < S H 2.9.9.8.7.9.w.w.9.w.p.5.;.p 1 % % & 3 a 6.q.H < = o.|.Y._._._._._._.'.'.'.'.'.'.'. XL.%.L.L.#._.'._.",
"'.'.'.'.'.'.'.'.'.'._.'.'.'._._.'.'.'.'._._._._.|.oXY.+.= o & 3 A F H Y 7.7.8.9.8.9.e.a.a.i.i.0.2.H i & = g  X.XY. X'.'.'.'._._.'.'.'.'.'.'.'.[.^.~. X_.L.'.'.'.",
"_._._._.'.'.'.'.'.'.'.'.'.'.'.'._._._._._._._._.].@.*.(.r *Xc 9 7 7 o , & & 3 2 5 4 4 5 2 3 < & % = h o.(.].'._.'._._._._._._._.'.'.`.%.'.'._.'.'.].'.'.'._._._.",
"'._.'._.'.'.'.'.'.).'.'.'.'.'.'.'.'.'._.'._._.].K.g  .) ~ l v ) )  .l %Xr } X.] g h g g g X.o.K.`.OX{.(.&.L.&._.'._._.'._.'._._. X%.L.%.~.L.]._.'.'.'.'.'.'.'._.",
"'.'.'.'.'.'.'.`.`.&.P.`._.'.'.'.'.'.'.'.'.].).).g | ) ) ~ 0 c ~ ) ) r ,X.. .G.OXXXOXXXXXXX.X|.|.'.'.L.&._.`.&.`.'.'.'.'.]._.]._.'.%.P.'.~.L.'._.'.'.'.'.'.'.'.'.",
"'._.'._.'.'. XI.$.P.I.#._.'.'.'.'.'.'.'.).~.-.g - 9 9 ! ! 7 c ! ~ ~ r =Xl _ O.].).`._.Y._._._._.'.'.'.'.[._.].].'.'.'._._._._._._._._._._._._._.'.'.'.'._.'.'.'.",
"_._._._._._.'.`./.]._./._.'.'._._._._.'.~.$.`.@.E.cXQ.0 9 b v ! ~ ~ r =Xr ( K.]._._._._._.'.'.'.'.'.'.'.'.'.'.'._._._._._.'.'.'.'._.'.'.'.].].'.'.'.'.'.'.'.'._.",
"'.'.'.'._.].'.'.'._._.].'.'.'.'.'.'.'.].).).|.P.cXbX#XL $ C v v :X&Xc 3Xo 8 '.'._.'.'.'.'.'.'.'.'.'.'.'.'.'.'.'.'.'.'._._.].'.'.'.'.'.'.'._._.'.'.'.'.'.'.'.'.'.",
"'.'._.'.'.'.'.'.'.'._._.'.'.'.'._.'._._._.'.'.`.cXvX#XH.k B c ;X,X,Xc n e G.'._.'.'.'._._.'.'.'.'.'.'.'.'.'.'.'.'.'._._.'.'.'.'.'.'.'.'.'.'.'.'.'.'.'.'.'.'.'.'.",
"_._._._.'.'.'.'.'.'.'.'.'.'.'._._._._._._._.[.Q.DXvXzX!.*X%Xc *X:X=X%X,X>XK.'._._._._._.'.'.'.'.'.'.'.'.'.'.'.'._._._._._.'.`.P.'.'.'.'.'.'.'.'.'.'.'.'.'.'.'.'.",
"_._._._._.'.'._.'.'.'.'.'.'._._._._._._.Y.'.[.@.SXDXW.H.b ;Xc ,X,X,X&X:XcXQ. X'._._._._._._._.'.'.'.'.'.'.'.'._._._._.)._.L.P.$.~.).'._._._.'.'.'.'.'._._._._._.",
"_._._.'.'.'._.'.'.'.'.'.'.'._._._._._._.'.'.].T.pXaXfXZXgXx x ,X,X,X%Xb B N _.'._._._._._._.'.'.'.'.'.'.'.'.'._.'._._._.'.$.P.).&.L. X_.'._.'.'.'.'.'.'._._._._.",
")._._.)._.'._._.'.'.'.'.'.'._._._.)._._._._._.|.g ZXKXLXKXB : k k c x ,X*XR.J.|.)._._.)._._._.'.'.'.'.'.'.'._._.'._._._._.).).'.).).'.'.'._.'.'.'.'.'._._._._._.",
"_._._._._.'.'.'.'.'.'.'.'.]._._._._._._._._.Y.[.+.LXKXAXuXZXZXHX:Xk =X,X,XC N ]._._._.[.Y._.[.'.'.'.'.'.'.'.'._._._._._._.'._._._._.'.'.'._.'.'.'.'.'._._._._._.",
"_._._._.'.'._.'.'.'.'.'.'.].'.'._._._._._.Y.'.|.@.gXAXQ.kXgXHXuXW k -X;X2X-X> o.|._.^.^.#./.^.'.'.'.'.'.'.'._._._._._._._._._._._.'.'.'.'.'.'.'.'.'.'.'.'.'._._.",
"_._._._.'.'.'.'.'.'.'.'._._.'.`._._._._._.'.'.'.|.+.W vXsXgXLXm W.W z ;X%Xz o [ |.'.L.&.).P.#.[.'.'.'.'.'.'.'._._._._._._._._._._.'._.'.'.'.'.'.'.'.'.'.'.Y._._.",
"_._._._._.'._.`.'. X'.'.'.'.'.'.'._.'.'._._.'.'.].Y.iXsXMXKXHXZXxXf z x N W.m O.[.'.).).'._.`.'.'.'.'.'.'.'._._.)._._._._._._.)._._._.'.'.'.'.'.'.'.'.`._._._.'.",
")._._._._.`.^.$.`.`.'.'.'.'.'.Y.)._.'.'.'._.Y.'.'.|.O.LXKXHXZXuXMXN : 3 #XDXiXiXT.'._.'._.'.'.'.'.'.'.'.'._._._._._._._._._._._._.'.'.'.'.'.'.'.'.'.'._._.'.).'.",
"_._._._. X$.U.P.&.%. X'.'.'.'._._._._._._._._._._.|.[ aXHXgXuXM { Y.d U nXFXhXN '._._._._._.'.]._._.'.'.'.'._._.'.'.).'._._.Y.'.'.'.'.'.'._.'.'._.'.'._._._.'.'.",
"'.'.'.'._.P.).'./.`.'.'.'.'.'.'.'.'.'._._._._._._.].T.j E.iXiXJ.+XJ.j #XnXPXO.@.|.'.'._.'.'.'.'._._.'.'.'.'.'._.'.'.'.'.'.'.'.'.'.'.'.'.'._.'.'.'._.]._._._.'.'.",
"'._.'._.'.'.'.'.'.]._.'.'.'.'.'.'._._.'._._._._._.OX] !.lXFXxXJ.oXG.H.lXFXaXJ..XY.'._.'.'.'.'.'.'.'.'.'.].'.'._.'.'.'.'._.'._.'.'.'.'.'.'.'.'.'._._.%.^._.`.'.'.",
"'.'.'.'.'.'.'.'.'._.'.'.'.'.'.'.'.'.'.'.[._._.[.{.{ H.zXDXxX[ [.T.h H.bXSXX.[._.'.'.'.'.'.'.'.'.'.'.'.'._.'.'.'.'.'.'.].'.'.'.'.'.'.'.'.'.'.'. XL.%.L.L.$.].'.'.",
"_.'.'.'.'.'.'.'.'.'.'.'.'.'.'.'.'.'.'.'.'.'.[.}.+.B H.vXGXO.).oXO.HXfXsXaXJ.|.'.'.'.'._.'.'._.'.'.'.'.'._.'.'.'.'.'.'.'._.'.'.'.'.'.'.'.'.'.'.'./.I. X`.%._.'.'.",
"'.'.'.'.'.'.'.'.'.'.'.'.'.'.'._.'._.'.'.'.|.@.B > V uXhXaXo..X[ > B aX>Xw Y.|.[.'.'.'.'._._.'.'.'.'.'.'._.'.'._._.'._.'.'.'._.'._.'.'.'.'.'.'.'.'. X_.'.'.'._.'.",
"'.'.'.'.'.'.'.'.'.'.'.'.'.'.'.'.'.'.'.Y.|.@.B hXn , > n f OXX.V n , O n V V g Y.|.'.'.'.'.'._._.'.'.'.'.]._.'.'.'.'.'.'.'.'.'.'._.'. X'.'.'.'.'.'.'.'.'.'.'.'.'.",
"_.'.'.'.'.'.'.'.'.'.'.'.'._._._._.'._.|.o.o o , o n B m e [ W iX, , dXPXKXKXMXM Y.].'.'._.`.~.%.).'.'.'.'._.].'.'._.'.'._.'.'._.'.'.`.'.'.'.'.'.'.'.'.'.'.'._.'.",
"_._._.'._._.'.'.'.'.'.'.'.'.'._._._.'.T.n fXn o hXAXPXKXLXB o o , fXLXHXLXKXKXAXg .X_.'.).$.L.~.$.P.'._.'.'.'.'._._._._._._._.'.).).$.^.)._._._.'.'.'._._._._.'.",
"'.'.'.'.'.'.'.'.'.'.'.'. X~.`.|.'._._. X+.V ZXuXiXZXHXPXKXKXn > m uXdXAXHXKXKXKXB T.'.'.).L._.].U.`.].'.'.'.'.'.'.'._.].'.'._. X&.%.^.I.$.'._._.'.'.'.'.'.'.'.'.",
"_._._.'.'.'.'.'._._.'.`.L.&.L.L._._._._.XXJ.g MXfXB AXKXLXKXdXhXZXfXuXiXiXuXdXZXR.J.].'._.[.'._.'.'._.'.'.'.'.'._._._._._._.'.'.^.).'._.`._.'.'.]._.'.'.'.'.'.'.",
"_._._._.'.'.'.'.]._.'./.$._.`.$.`._.[. XY. X[.g uXAXV dXKXKXfXd O.O.uXgXMXMXfXhXn J.|._._._.'.'.'._.'.'.'.'.'._._._._._._._._.Y.'._._.'.].'.'.'._._.].'.'._._.Y.",
"_._._._._._.'._._._.'.'.`._._.`._._._._._.).'..X{ B AXaXiXPXhXo.XXT.@.{ N O.pXgXM T.'._._._.'.'.'.'.'.'.'.'.'._._._._._._._._._._._.'.'._._.'.'._.].'.'.'.'._._.",
"_._._._._._.'._.'.].'.'.'._._._._._._._._._._.Y..XY.h fXZXV M Y._.'.|..X{.).J.[ o.[.`._._._._.'.'.'.'.'.'.'.'._.'._._._._._._._._.'.'.'.]._.'.'.'.'.'.'.'.'._._.",
"_._._._._._._._.'.'.'.'.'.'._._._._._._._._._._._.|. X] iXiXh |._._._._.[._.'.|.|._._._._._._._.'.'.'.'.'.'.'._.'.'.'._.)._._._._.'._.'._._._.'.'.'.'.'.'.).'._.",
"_._._._._._._._.'.'.'.'.'._._._._._._._._._._._._._.[..X@.f ).'._._._.)._._._.)._._._._._._._._.'.'.'.'.'.'.'._.'.`._._.'._._._._._._.'._._.'.'.'.'.'.`.'.'._._."
};
