/* XPM */
static char *pumpkin__1__resized[] = {
/* columns rows colors chars-per-pixel */
"80 80 158 2 ",
"   c #77390F",
".  c #793B0F",
"X  c #773B10",
"o  c #7B3D11",
"O  c #764111",
"+  c #794415",
"@  c #744C12",
"#  c #7B4916",
"$  c #744918",
"%  c #7B4B18",
"&  c #705C14",
"*  c #776816",
"=  c #6C7D18",
"-  c #777815",
";  c #796423",
":  c #803F11",
">  c #8A470E",
",  c #844212",
"<  c #8B4513",
"1  c #884B13",
"2  c #B45E07",
"3  c #B66408",
"4  c #836D2A",
"5  c #84742E",
"6  c #887C32",
"7  c #D76F00",
"8  c #D86F00",
"9  c #CB7105",
"0  c #D77000",
"q  c #D87000",
"w  c #DA770D",
"e  c #DA780E",
"r  c #DB7D17",
"t  c #DC7E1A",
"y  c #E46600",
"u  c #E36C00",
"i  c #ED6E00",
"p  c #F06F00",
"a  c #E07500",
"s  c #ED7500",
"d  c #E47B00",
"f  c #EB7E00",
"g  c #F17300",
"h  c #F37B00",
"j  c #6D8C17",
"k  c #668318",
"l  c #6D871A",
"z  c #648D1A",
"x  c #698C19",
"c  c #748C16",
"v  c #7D8C15",
"b  c #72861A",
"n  c #728B1B",
"m  c #67901A",
"M  c #6B941B",
"N  c #6F981C",
"B  c #719B1D",
"V  c #6E9625",
"C  c #749D2D",
"Z  c #74A033",
"A  c #7AA233",
"S  c #78A54B",
"D  c #7EB64F",
"F  c #76B956",
"G  c #7CBC56",
"H  c #77BC58",
"J  c #7DBD58",
"K  c #8A8712",
"L  c #828B14",
"P  c #8D8D12",
"I  c #928711",
"U  c #9C8D10",
"Y  c #AA840C",
"T  c #A98F0E",
"R  c #B6900C",
"E  c #8C8C3A",
"W  c #8E913C",
"Q  c #A78527",
"!  c #85AE3F",
"~  c #95A736",
"^  c #BDA732",
"/  c #B9AA36",
"(  c #B5AD3A",
")  c #B8AB38",
"_  c #B2B03E",
"`  c #D78204",
"'  c #DD8405",
"]  c #DE8A0E",
"[  c #C3910A",
"{  c #D49207",
"}  c #DC9105",
"|  c #D68D13",
" . c #DA8D12",
".. c #CE961D",
"X. c #D69016",
"o. c #D2931A",
"O. c #E58305",
"+. c #EC8100",
"@. c #E78B03",
"#. c #E18609",
"$. c #E0880B",
"%. c #F18500",
"&. c #F88600",
"*. c #F58B00",
"=. c #F98E00",
"-. c #E39304",
";. c #EB9403",
":. c #F39402",
">. c #FE9500",
",. c #C69D26",
"<. c #CB9A23",
"1. c #C69F29",
"2. c #C2A22C",
"3. c #919F44",
"4. c #95AF44",
"5. c #93A648",
"6. c #93AB4A",
"7. c #8AB345",
"8. c #82B54B",
"9. c #96B14D",
"0. c #9AB749",
"q. c #90B94B",
"w. c #84BE56",
"e. c #89BF56",
"r. c #81BE58",
"t. c #95BF51",
"y. c #99BD52",
"u. c #A4B444",
"i. c #ACB544",
"p. c #A2B847",
"a. c #A9B847",
"s. c #A5BC4C",
"d. c #A9B949",
"f. c #B0B240",
"g. c #A1BF50",
"h. c #E29543",
"j. c #E7A660",
"k. c #E8A966",
"l. c #E9AD6D",
"z. c #EAB073",
"x. c #86C057",
"c. c #8CC157",
"v. c #86C058",
"b. c #8AC158",
"n. c #94C357",
"m. c #9AC457",
"M. c #95C458",
"N. c #9BC558",
"B. c #A0C052",
"V. c #ECBB86",
"C. c #EDBE8A",
"Z. c #EEC292",
"A. c #F8E6D3",
"S. c #F9E8D6",
"D. c #F9EADA",
"F. c #FDF7F0",
"G. c #FDF8F2",
"H. c #FFFFFF",
/* pixels */
"m.m.m.m.N.N.m.m.N.N.N.N.N.N.N.m.m.m.m.m.m.m.m.m.m.m.N.N.m.m.N.m.m.N.m.m.m.m.m.n.m.m.m.m.m.m.m.N.N.N.N.N.N.N.N.N.N.N.m.m.m.m.m.m.N.N.N.N.N.N.N.N.N.N.N.m.m.m.m.m.",
"m.m.m.m.N.N.N.N.N.N.m.m.N.N.m.m.m.m.m.m.m.m.m.m.m.m.m.m.n.w.w.n.m.N.m.m.m.m.m.m.m.m.m.m.m.m.m.N.N.N.N.N.N.N.N.N.N.N.m.m.m.m.m.m.N.N.N.N.N.N.N.N.N.N.m.m.e.w.n.m.",
"m.m.m.m.N.N.N.N.N.m.N.m.N.N.m.m.m.m.m.m.m.m.m.m.m.m.N.n.G w.w.H n.N.m.m.m.m.m.m.m.m.N.N.m.m.m.N.N.N.N.N.N.N.N.N.N.m.m.m.m.m.m.M.N.N.N.N.N.N.N.N.N.N.m.H x.G w.w.",
"m.m.m.m.N.N.N.N.N.m.c.m.N.N.m.m.m.m.m.m.m.m.m.m.m.m.m.n.w.n.n.x.n.m.m.m.m.m.N.N.m.m.m.N.m.m.m.N.N.N.N.N.N.N.N.N.N.N.m.m.m.m.m.m.N.N.N.N.N.N.N.N.N.N.m.w.n.m.w.c.",
"m.m.m.N.N.N.N.N.b.b.F c.c.m.N.m.m.N.N.N.N.m.m.N.N.N.N.N.N.m.N.N.N.N.N.N.N.y.6.W 6 4 4 6.N.N.N.N.N.N.N.N.N.N.N.N.N.m.N.N.m.N.m.N.N.N.N.N.N.N.N.N.N.N.N.N.N.m.m.m.",
"m.m.N.m.N.N.N.N.J w.n.x.r.m.N.m.m.m.N.m.m.N.N.N.N.N.N.N.N.N.N.N.N.N.N.y.E & + o o     4 m.N.N.N.N.N.N.N.N.N.N.N.N.N.m.m.N.m.m.N.N.N.N.N.B.N.N.N.N.N.N.N.N.N.m.N.",
"m.m.m.N.N.N.N.N.n.M.N.n.M.N.N.N.N.N.N.N.N.N.N.N.N.N.N.N.N.N.N.N.N.N.m.5 o o : , , < o + 3.N.N.N.N.N.N.N.N.N.N.N.N.N.N.m.N.M.M.N.N.N.N.N.N.N.N.N.N.N.N.N.N.N.N.N.",
"m.m.N.N.N.N.N.N.m.m.m.m.N.N.N.N.N.N.N.N.N.N.N.N.N.N.N.N.N.N.N.N.N.N.m.5   , < < < < < o 4 m.N.m.N.N.N.N.B.N.N.N.N.N.m.n.t.G e.e.N.N.N.N.N.N.N.N.N.N.N.N.N.N.N.N.",
"N.N.N.N.N.N.N.N.m.m.N.N.N.N.N.N.N.N.N.N.N.N.N.N.N.N.N.N.N.N.N.N.N.n.b.S $ + < < < < < : # 6.m.m.m.n.q.7.! ! ! 7.q.t.N.e.G w.e.F m.N.N.N.N.N.N.N.N.N.N.N.N.N.N.N.",
"N.N.N.N.N.N.N.N.N.N.N.N.N.N.N.N.N.N.N.N.N.N.N.N.N.N.N.N.N.N.N.N.N.e.J c.; o < < < < < , X E c.8.A V z z z k z z z Z m.M.t.m.n.e.N.N.N.N.N.N.N.N.N.N.N.N.N.N.N.N.",
"N.N.N.N.N.N.N.N.N.N.N.N.N.N.N.N.N.N.N.N.N.N.N.m.N.N.N.N.N.N.N.N.m.m.M.N.W o , < < < < < o ; Z z z x M M N N N M z C m.N.N.N.N.N.N.N.N.N.N.N.N.N.N.N.N.N.N.N.N.N.",
"N.N.m.N.N.N.N.N.N.N.N.N.N.N.N.N.m.m.m.N.N.N.m.m.N.N.N.N.N.N.N.N.m.N.N.m.5.+ : < < < < < o @ k M B B B B B B B N z A m.m.m.m.m.N.N.N.N.N.N.N.N.N.N.N.N.N.m.m.m.m.",
"N.N.N.N.m.m.N.N.N.N.N.N.N.N.N.N.N.N.N.N.m.m.N.N.N.N.N.N.N.N.N.N.N.N.N.N.9.% : < < < < < : O l B B B B B B B B M z 7.N.N.N.N.N.N.N.N.N.N.N.N.N.N.N.N.N.N.m.m.m.N.",
"N.m.m.m.m.m.m.N.N.N.N.N.N.N.N.N.m.m.m.N.m.m.w.n.N.N.N.N.N.N.N.N.N.N.N.N.9.% : < < < < < , O n B B B B B B B B M z q.N.m.N.m.m.m.N.N.N.N.N.N.N.N.N.N.N.N.m.m.m.m.",
"N.m.N.m.m.n.w.n.m.N.N.N.N.N.N.N.m.N.N.N.x.x.J w.r.N.N.N.m.m.m.m.N.N.N.N.9.% : < < < < < : X b B B B B B B B N z C m.m.m.m.m.m.N.N.N.N.N.N.N.N.N.N.N.N.N.m.m.m.m.",
"m.m.m.m.J w.G w.w.N.N.N.N.N.N.N.m.m.m.m.x.w.y.0.4.f.( ) / ) ( _ d.g.B.N.6.# : < < < < < : + b B B B B B B N M x ~ g.m.m.m.m.m.m.N.N.N.N.N.N.N.N.N.N.N.N.m.m.m.m.",
"m.m.m.n.w.n.n.e.x.N.N.N.N.N.N.N.m.N.s.i.2...] #.O.+.O.+.f f f O.O.] | <.Q o , < < < < > # @ n B B B B B B M z I #.] X.,.( s.m.m.m.N.N.N.N.m.N.N.N.N.N.N.m.m.m.m.",
"m.m.m.m.m.m.m.m.N.N.N.N.N.N.N.N.i.,.] +.f +.%.%.*.*.=.%.+.f f +.%.%.+.+.2 o , < < 1 * = k k m M B B B B M z L } *.%.%.f d $.<.( m.m.N.N.N.N.N.N.N.N.N.N.m.m.m.m.",
"m.m.m.m.m.m.m.N.N.N.N.N.N.m.f...+.f +.*.>.>.>.>.>.>.*.f +.%.:.>.>.>.>.>.3 X o , 1 - z m M m m z m N N M z v } >.>.>.>.>.*.%.f +.X.( m.N.N.m.N.m.n.e.e.m.n.m.m.m.",
"m.m.m.m.m.N.N.N.N.m.M.m.B.2.#.+.%.>.>.>.>.>.>.>.>.%.f %.>.>.>.>.>.>.>.>.%.3 > . & z m B B B N N z z k j U ` %.>.>.>.>.>.>.>.>.*.+.+.<.s.N.N.N.n.J w.w.J n.m.m.m.",
"m.m.m.m.N.N.N.N.n.x.H p.o.O.*.>.>.>.>.>.>.>.>.>.%.+.*.>.>.>.>.>.>.>.>.>.>.>.+.9 - z B B B B B B N z x [ >.*.+.+.>.>.>.>.>.>.>.>.>.+.+. .f.m.N.M.w.n.M.r.n.m.m.m.",
"m.m.m.m.N.N.N.N.J w.4. .+.*.>.>.>.>.>.>.>.>.>.*.@.%.>.>.>.>.>.>.>.>.>.>.>.>.>.@.L z B B B B B B B M z T >.>.%.f *.>.>.>.>.>.>.>.>.>.*.+.$.( N.m.m.m.N.m.m.m.m.m.",
"m.m.m.m.N.N.N.N.c.p.] f *.>.>.>.>.>.>.>.>.>.>.+.@.>.>.>.>.>.>.>.>.>.>.>.>.>.>.@.K z B B B B B B B B m c } >.>.%.+.>.>.>.>.>.>.>.>.>.>.>.%.O.( m.m.N.N.N.m.m.m.m.",
"m.m.m.m.N.N.N.N.s.X.+.>.>.>.>.>.>.>.>.>.>.>.%.+.>.>.>.>.>.>.>.>.>.>.>.>.>.>.>.+.Y z N B B B B B B B N z R >.>.>.+.+.>.>.>.>.>.>.>.>.>.>.>.+.#.i.m.m.N.N.m.m.m.m.",
"m.m.m.m.N.N.N.N.<.+.*.>.>.>.>.>.>.>.>.>.>.>.+.%.>.>.>.>.>.>.>.>.>.>.>.>.>.>.>.%.' v m M B B B B B B N m P >.>.>.%.+.=.>.>.>.>.>.>.>.>.>.>.>.+. .g.N.N.N.m.m.m.m.",
"m.m.m.m.N.N.N.( +.%.>.>.>.>.>.>.>.>.>.>.>.*.f *.>.>.>.>.>.>.>.>.>.>.>.>.>.>.>.+.%.{ c m M N N N B B N m v :.>.>.>.+.%.>.>.>.>.>.>.>.>.>.>.>.*.@.2.N.N.N.N.N.m.N.",
"m.m.m.m.m.N.s. .+.>.>.>.>.>.>.>.>.>.>.>.>.%.@.>.>.>.>.>.>.>.>.>.>.>.>.>.>.>.>.+.%.>.} P x z m m m M M m j -.>.>.>.%.@.>.>.>.>.>.>.>.>.>.>.>.>.%.#.f.N.N.N.N.m.m.",
"N.m.m.m.m.m.^ f =.>.>.>.>.>.>.>.>.>.>.>.>.+.%.>.>.>.>.>.>.>.>.>.>.>.>.>.>.>.>.+.*.>.>.>.{ T P v c j c L U :.>.>.>.%.f =.>.>.>.>.>.>.>.>.>.>.>.>.h <.N.N.N.N.N.N.",
"m.m.N.N.m.g. .+.>.>.>.>.>.>.>.>.>.>.>.>.>.@.*.>.>.>.>.>.>.>.>.>.>.>.>.>.>.>.>.+.%.>.>.>.>.>.>.:.;.;.;.:.>.>.>.>.>.>.+.%.>.>.>.>.>.>.>.>.>.>.>.>.%.#.a.m.m.N.m.m.",
"N.N.N.N.N.( +.*.>.>.>.>.>.>.>.>.>.>.>.>.%.+.>.>.>.>.>.>.>.>.>.>.>.>.>.>.>.>.>.+.*.>.>.>.>.>.>.>.>.>.>.>.>.>.>.>.>.>.+.%.>.>.>.>.>.>.>.>.>.>.>.>.>.+.2.m.N.N.N.N.",
"N.N.N.N.b.,.f =.>.>.>.>.>.>.>.>.>.>.>.>.+.%.>.>.>.>.>.>.>.>.>.>.>.>.>.>.>.>.>.@.%.>.>.>.>.>.>.>.>.>.>.>.>.>.>.>.>.>.%.@.>.>.>.>.>.>.>.>.>.>.>.>.>.+.| B.N.N.N.N.",
"N.N.c.w.8.| %.>.>.>.>.>.>.>.>.>.>.>.>.>.+.%.>.>.>.>.>.>.>.>.>.>.>.>.>.>.>.>.>.f :.>.>.>.>.>.>.>.>.>.>.>.>.>.>.>.>.>.%.+.>.>.>.>.>.>.>.>.>.>.>.>.>.*.O.i.N.m.m.m.",
"N.N.e.J u.O.*.>.>.>.>.>.>.>.>.>.>.>.>.>.+.*.>.>.>.>.>.>.>.>.>.>.>.>.>.>.>.>.>.+.*.>.>.>.>.>.>.>.>.>.>.>.>.>.>.>.>.>.*.+.*.>.>.>.>.>.>.>.>.>.>.>.>.>.@./ N.N.N.N.",
"N.N.M.M.^ +.=.>.>.>.>.>.>.>.>.>.>.>.>.=.+.*.>.>.>.>.>.>.>.>.>.>.>.>.>.>.>.>.>.+.*.>.>.>.>.>.>.>.>.>.>.>.>.>.>.>.>.>.>.+.*.>.>.>.>.>.>.>.>.>.>.>.>.>.%.<.N.m.N.N.",
"N.N.m.N.<.f >.>.>.>.>.>.>.>.>.>.>.>.>.:.+.*.>.>.>.>.>.>.>.>.>.>.>.>.>.>.>.>.>.f *.>.>.>.>.>.>.>.>.>.>.>.>.>.>.>.>.>.>.+.%.>.>.>.>.>.>.>.>.>.>.>.>.>.%. .B.m.m.m.",
"N.N.m.m.X.%.>.>.>.>.>.>.>.>.>.>.>.>.>.%.f >.>.>.>.>.>.>.>.>.>.>.>.>.>.>.>.>.:.+.*.>.>.>.>.>.>.>.>.>.>.>.>.>.>.>.>.>.>.+.%.>.>.>.>.>.>.>.>.>.>.>.>.>.%.] g.m.m.m.",
"m.m.m.g. .%.>.>.>.>.>.>.>.>.>.>.>.>.>.*.+.>.>.>.>.>.>.>.>.>.>.>.>.>.>.>.>.>.>.f *.>.>.>.>.>.>.>.>.>.>.>.>.>.>.>.>.>.>.+.%.>.>.>.>.>.>.>.>.>.>.>.>.>.*.O.a.m.m.m.",
"m.m.m.s.$.*.>.>.>.>.>.>.>.>.>.>.>.>.>.%.+.>.>.>.>.>.>.>.>.>.>.>.>.>.>.>.>.>.>.f *.>.>.>.>.>.>.>.>.>.>.>.>.>.>.>.>.>.>.%.%.>.>.>.>.>.>.>.>.>.>.>.>.>.*.O.i.m.m.m.",
"m.m.m.d.#.*.>.>.>.>.>.>.>.>.>.>.>.>.>.%.+.>.%.+.@.%.:.>.>.>.>.>.>.>.>.>.>.>.=.+.*.>.>.>.>.>.>.>.>.>.>.>.>.>.+.@.+.%.=.%.@.>.>.>.>.>.>.>.>.>.>.>.>.>.>.+.) m.m.m.",
"m.m.M.a.-.:.>.>.>.>.>.>.>.>.>.>.>.>.>.+.q q q 8 8 q q O.+.>.>.>.>.>.>.>.>.>.>.f :.>.>.>.>.>.>.>.>.>.>.:.O.q q q q q q q d >.>.>.>.>.>.>.>.>.>.>.>.>.:.f ) M.m.m.",
"m.m.M.a.O.*.>.>.>.>.>.>.>.>.>.>.>.>.+.q q 8 8 8 q 0 q 7 q d *.>.>.>.>.>.>.>.>.f %.>.>.>.>.>.>.>.>.>.+.q 7 7 q 7 q q q 7 q d :.>.>.>.>.>.>.>.>.>.>.>.*.f ( m.m.m.",
"m.m.m.a.O.*.>.>.>.>.>.>.>.>.>.>.>.O.q q  .t 8 8 0 q 0 q q 0 d :.>.>.>.>.>.>.>.f *.>.>.>.>.>.>.>.>.d q q t r q 7 q q 7 q q 0 d =.>.>.>.>.>.>.>.>.>.>.>.+./ M.m.m.",
"m.m.M.d.O.*.>.>.>.>.>.>.>.>.>.>.+.q e V.D.S.z.w 7 q q q q 0 0 d >.>.>.>.>.>.>.+.:.>.>.>.>.>.>.>.@.7 e C.D.S.l.w q q q q q q 7 d >.>.>.>.>.>.>.>.>.>.:.f ( m.m.m.",
"m.m.m.s.] *.>.>.>.>.>.>.>.>.>.>.q q j.H.H.H.G.h.7 q 7 q 0 q q q *.>.>.>.>.>.*.+.*.>.>.>.>.>.>.*.q 8 k.H.H.H.F.h.q q q q q q q q %.>.>.>.>.>.>.>.>.>.*.+._ M.m.m.",
"m.m.m.s.] %.>.>.>.>.>.>.>.>.>.+.7 7 Z.H.H.H.H.l.7 7 7 7 0 q q 7 d >.>.>.>.>.*.+.*.>.>.>.>.>.>.+.8 8 Z.H.H.H.H.k.7 q 7 q q q q 7 d >.>.>.>.>.>.>.>.>.*.O.a.m.m.m.",
"m.N.m.B.| %.>.>.>.>.>.>.>.>.>.d 7 7 j.G.H.H.G.h.7 q q q q 0 q q q :.>.>.>.>.>.+.*.>.>.>.>.>.>.d 8 8 k.H.H.H.F.h.7 q q q q q q 7 q >.>.>.>.>.>.>.>.>.*.#.p.m.m.m.",
"m.m.m.m.<.+.>.>.>.>.>.>.>.>.>.q 7 q r V.D.S.z.q q 0 q 0 0 q q 7 q *.>.>.>.>.>.d *.>.>.>.>.>.>.a q 7 w V.D.A.l.q 7 7 7 q 7 q q q q :.>.>.>.>.>.>.>.>.%.| D M.m.m.",
"N.N.N.N.2.f =.>.>.>.>.>.>.>.>.q 7 q q q r r q q 0 q 0 q q 0 q q q *.>.>.>.>.>.+.*.>.>.>.>.>.:.q q q q q t r q q 7 q q q q q q 7 q %.>.>.>.>.>.>.>.>.f ..x.M.N.N.",
"N.N.m.m.( +.*.>.>.>.>.>.>.>.>.q 7 q q 7 7 7 7 q q q q 7 q q 7 7 q %.>.>.>.>.*.+.:.>.>.>.>.>.>.q 7 7 q q 7 0 q q 0 q 0 q 0 0 q 0 q *.>.>.>.>.>.>.>.>.f 1.N.N.N.m.",
"m.m.m.m.d.#.*.>.>.>.>.>.>.>.>.d q 7 q q q q q q 7 q q q q 7 q q q :.>.>.>.>.>.f *.>.>.>.>.>.>.d q q 7 q q 0 q 0 q 0 q 0 q q q 0 q *.>.>.>.>.>.>.>.>.O.( N.N.N.N.",
"N.N.N.N.B. .+.>.>.>.>.>.>.>.>.d q q 7 q q q q q q 7 q 7 q q q q d >.>.>.>.>.>.+.*.>.>.>.>.>.>.O.7 q q q 0 q q 0 q 0 q q 0 q q 7 d >.>.>.>.>.>.>.>.%.#.d.N.N.N.N.",
"m.N.N.m.N.,.f >.>.>.>.>.>.>.>.*.q q q q q 7 q 7 q q q q q q q q @.>.>.>.>.%.%.+.*.>.%.*.>.>.>.*.q q 7 q q q 0 q 0 q 0 q q 0 q 0 +.>.>.>.>.>.>.>.>.%.| m.N.N.N.N.",
"m.N.N.m.N.f.f *.>.>.>.>.>.>.>.>.d 8 8 7 q q q q q 7 q q 0 q q d =.>.>.>.+.q +.+.*.*.q d >.>.>.>.d q q q q q q 0 q q 8 q q q 0 q =.>.>.>.>.>.>.>.=.f 2.N.N.N.m.m.",
"N.N.N.N.N.g. .%.>.>.>.>.>.>.>.>.=.a 8 8 q q 8 q q q q q 0 0 q *.>.>.>.>.O.q +.+.*.>.q d >.>.>.>.>.q q q q q 0 q 8 q q q 0 0 q %.>.>.>.>.>.>.>.>.%.O.i.N.N.N.N.N.",
"N.N.N.N.N.N.1.+.=.>.>.>.>.>.>.=.&.%.q 8 7 q 8 q q q 0 q 0 q *.>.>.>.>.>.+.q a d @.+.q d >.>.>.>.>.*.q q 0 q q q q q 8 8 q q +.=.=.=.>.>.>.>.>.>.+.o.B.N.N.N.m.m.",
"m.m.m.m.N.m.f.#.*.>.>.>.>.>.=.&.h h h a 8 q q q 7 7 0 q q :.>.>.>.>.>.>.=.d 8 8 8 q q *.>.>.>.>.>.>.>.+.q q q 0 q q 8 8 a s h h &.=.>.>.>.>.>.*.+.^ N.m.N.N.m.N.",
"m.m.m.m.N.N.N.o.f >.>.>.>.>.=.h h g p p i y 8 8 a a @.*.>.>.>.>.>.>.>.>.>.>.@.a d @.*.>.>.>.>.>.>.>.>.>.*.+.d a q 8 u i i p p h &.=.=.>.>.>.>.%.] B.N.m.m.m.m.m.",
"m.m.m.m.N.N.m.) f *.>.>.>.>.=.&.h g p p i i y s &.=.>.>.>.>.>.>.>.>.>.>.>.>.>.f *.>.>.>.>.>.>.>.>.>.>.>.>.>.=.&.h y y p i g g h h =.=.>.>.>.=.f 2.N.N.m.m.m.m.m.",
"m.m.m.m.N.N.N.m.X.f >.>.>.=.=.=.&.h h h h h y s &.=.>.>.>.>.>.>.>.>.>.>.>.>.=.+.*.>.>.>.>.>.>.>.>.>.>.>.>.>.=.=.h u s h h h h h &.=.=.>.>.>.+.] d.m.m.m.m.m.m.M.",
"m.m.m.m.N.N.m.N.f.O.%.>.>.>.>.=.=.&.&.&.&.&.f s =.>.>.>.>.>.>.>.>.>.>.>.>.>.>.+.*.>.>.>.>.>.>.>.>.>.>.>.>.>.>.=.+.s %.&.&.&.&.=.=.>.>.>.>.=.+.2.N.N.m.m.m.m.m.m.",
"m.m.m.m.N.m.N.N.N.o.f >.>.>.>.>.>.=.=.=.=.=.%.f =.>.>.>.>.>.>.>.>.>.>.>.>.>.>.f *.>.>.>.>.>.>.>.>.>.>.>.>.>.>.>.f %.=.=.=.=.=.>.>.>.>.>.>.%. .g.N.N.N.N.m.m.m.m.",
"m.m.m.n.m.m.N.N.m.a.#.+.>.>.>.>.>.>.>.>.>.>.>.+.%.>.>.>.>.>.>.>.>.>.>.>.>.>.>.+.*.>.>.>.>.>.>.>.>.>.>.>.>.>.>.*.f =.>.>.>.>.>.>.>.>.>.>.%.O.^ N.N.N.N.m.m.m.m.m.",
"m.m.m.m.m.N.m.n.N.N.2.+.*.>.>.>.>.>.>.>.>.>.>.%.f >.>.>.>.>.>.>.>.>.>.>.>.>.=.+.*.>.>.>.>.>.>.>.>.>.>.>.>.>.>.+.f >.>.>.>.>.>.>.>.>.>.*.+.<.N.N.N.N.N.N.m.m.m.m.",
"m.m.m.m.m.n.c.J M.m.m.X.f =.>.>.>.>.>.>.>.>.>.*.f *.>.>.>.>.>.>.>.>.>.>.>.>.>.+.*.>.>.>.>.>.>.>.>.>.>.>.>.>.=.f *.>.>.>.>.>.>.>.>.>.>.%.] d.N.N.N.N.N.N.m.m.m.m.",
"m.m.m.m.m.H w.x.J e.N.d.] +.>.>.>.>.>.>.>.>.>.>.%.+.>.>.>.>.>.>.>.>.>.>.>.>.>.+.%.>.>.>.>.>.>.>.>.>.>.>.>.>.%.@.>.>.>.>.>.>.>.>.>.>.+.#._ N.N.N.N.N.N.N.m.m.m.m.",
"m.m.N.N.m.w.n.m.b.M.N.m._ #.+.>.>.>.>.>.>.>.>.>.*.+.%.>.>.>.>.>.>.>.>.>.>.>.>.+.%.>.>.>.>.>.>.>.>.>.>.>.>.>.+.%.>.>.>.>.>.>.>.>.>.%.+.2.N.N.N.N.N.m.N.m.m.m.N.N.",
"m.m.m.m.N.N.m.m.N.N.N.N.N.^ O.%.>.>.>.>.>.>.>.>.>.+.+.>.>.>.>.>.>.>.>.>.>.>.>.@.%.>.>.>.>.>.>.>.>.>.>.>.>.+.+.>.>.>.>.>.>.>.>.>.%.f 1.m.N.N.N.N.N.m.x.c.m.m.m.m.",
"m.m.m.N.N.N.N.m.N.N.N.N.N.N.^ O.+.>.>.>.>.>.>.>.>.>.+.%.>.>.>.>.>.>.>.>.>.>.>.*.%.>.>.>.>.>.>.>.>.>.>.>.*.f *.>.>.>.>.>.>.>.>.%.@.<.m.N.N.N.N.N.x.w.J x.J n.m.N.",
"N.N.N.N.N.N.N.N.N.N.N.N.N.N.N.^ O.+.=.>.>.>.>.>.>.>.%.f *.>.>.>.>.>.>.>.>.>.>.+.%.>.>.>.>.>.>.>.>.>.>.>.+.+.>.>.>.>.>.>.>.>.%.+.2.B.N.N.N.N.N.B.c.v.n.n.J M.N.N.",
"N.N.N.N.N.N.N.N.N.N.N.N.N.N.N.N.) #.+.=.>.>.>.>.>.>.>.+.+.>.>.>.>.>.>.>.>.>.>.%.@.>.>.>.>.>.>.>.>.>.>.+.+.>.>.>.>.>.>.>.>.+.O.2.B.N.N.N.N.N.N.N.N.N.N.N.m.m.m.m.",
"N.N.N.N.N.N.N.N.N.N.N.N.N.N.N.N.N.f.X.+.*.=.>.>.>.>.>.>.+.+.>.>.>.>.>.>.>.>.>.+.+.>.>.>.>.>.>.>.>.>.%.+.*.>.>.>.>.>.>.%.f ] ) N.N.N.N.N.N.N.N.N.N.N.N.N.N.N.N.N.",
"N.N.N.N.N.N.N.N.N.N.N.N.N.N.N.N.N.m.s.<.O.%.=.>.>.>.>.>.=.+.+.:.>.>.>.>.>.>.=.+.f *.>.>.>.>.>.>.>.+.+.*.>.>.>.>.>.>.%.f X.i.N.m.N.N.N.N.N.N.N.N.N.N.N.N.N.N.N.N.",
"m.m.m.m.m.m.N.N.N.N.N.N.m.m.m.N.m.m.m.m.(  .+.%.>.>.>.>.>.*.+.+.=.>.>.>.>.>.+.O.$.+.*.>.>.>.>.>.+.+.%.>.>.>.>.=.%.f #.2.B.m.m.m.m.n.G c.n.N.N.N.N.N.N.N.m.m.m.m.",
"N.N.N.N.N.N.N.N.N.N.N.N.m.n.M.N.m.m.m.m.m.s.2.] f +.*.>.>.>.=.+.+.%.*.=.%.f #.) i.] +.%.=.*.%.+.+.*.>.>.>.=.%.f #.,.d.N.m.m.m.N.x.J w.x.H m.N.N.N.N.N.N.N.N.N.N.",
"N.m.N.N.N.N.N.N.N.N.N.n.x.H x.e.N.m.m.m.m.m.m.s.2. .+.+.%.%.*.%.+.f f f O. ._ m.N.a.X.O.+.f +.f %.*.%.%.%.f $.,.i.N.m.N.m.m.m.m.n.x.m.n.c.N.N.N.N.N.N.N.N.N.m.m.",
"m.m.m.m.N.N.N.N.N.N.N.w.G n.c.H M.m.m.m.m.m.m.m.m.g.( ,.X.$.O.O.O.$. .<._ B.m.m.m.m.m.i.2.X.$.#.O.O.$. .<.) s.m.m.m.m.m.m.m.m.m.m.m.m.m.N.N.N.N.N.N.N.N.N.N.m.m.",
"m.m.m.m.m.m.N.m.N.N.N.m.M.m.M.M.N.m.m.m.m.m.m.m.m.N.N.N.m.s.a.i.d.g.B.N.m.m.m.m.m.m.m.m.m.N.s.d.a.a.s.B.N.N.N.N.m.m.m.M.m.m.m.M.m.m.m.N.N.N.N.N.N.N.N.N.N.N.m.m.",
"m.m.m.m.N.N.N.N.N.N.N.B.m.m.m.N.m.m.m.m.m.m.m.m.N.N.N.N.N.N.N.N.N.m.N.N.m.m.m.m.m.m.m.m.m.N.N.N.N.N.N.N.N.N.N.m.m.m.m.m.m.m.m.m.m.m.N.N.N.m.N.N.N.N.N.N.N.N.m.m.",
"m.m.m.m.N.N.m.m.N.N.N.N.m.N.m.m.m.m.m.m.m.m.m.m.m.N.N.N.N.N.N.N.m.m.m.m.m.m.m.m.m.m.m.m.m.N.m.N.N.N.N.N.N.N.N.m.m.m.m.m.m.m.m.m.m.m.m.N.N.N.N.N.N.N.N.N.N.m.m.m.",
"m.m.m.m.N.N.N.N.N.N.N.N.m.m.m.m.M.m.m.m.m.m.m.m.N.N.N.N.m.N.N.N.m.m.M.m.m.m.n.m.m.m.m.m.m.m.m.m.N.N.N.N.N.N.N.N.m.m.m.m.m.m.m.m.m.m.m.N.N.m.N.N.N.N.B.N.N.m.m.m."
};
