/* XPM */
static char *Untitled_design__1__resized[] = {
/* columns rows colors chars-per-pixel */
"80 80 254 2 ",
"   c #000000",
".  c #0A0800",
"X  c #191402",
"o  c #191514",
"O  c #27260E",
"+  c #2B300A",
"@  c #3C3406",
"#  c #373A14",
"$  c #2A2929",
"%  c #393534",
"&  c #473806",
"*  c #48320A",
"=  c #553903",
"-  c #653F01",
";  c #443B3F",
":  c #1B5315",
">  c #314C18",
",  c #1B661B",
"<  c #1C7115",
"1  c #266D1D",
"2  c #375227",
"3  c #1E6823",
"4  c #2F6E27",
"5  c #474C0C",
"6  c #564C05",
"7  c #575906",
"8  c #414C19",
"9  c #475014",
"0  c #6A4401",
"q  c #794B00",
"w  c #775401",
"e  c #676703",
"r  c #776A00",
"t  c #797701",
"y  c #434E20",
"u  c #465825",
"i  c #6D5C2E",
"p  c #4A632A",
"a  c #4E6A32",
"s  c #566B32",
"d  c #5C7735",
"f  c #7D6A3D",
"g  c #627D39",
"h  c #1F3951",
"j  c #433F40",
"k  c #325051",
"l  c #2C6C4E",
"z  c #274964",
"x  c #34546A",
"c  c #274E74",
"v  c #2C537A",
"b  c #386F71",
"n  c #504F4E",
"m  c #635E50",
"M  c #576B4C",
"N  c #6B7650",
"B  c #495C6D",
"V  c #446471",
"C  c #6B6C67",
"Z  c #797878",
"A  c #CD3C15",
"S  c #875600",
"D  c #995B00",
"F  c #8D6B09",
"G  c #956100",
"H  c #A96700",
"J  c #B66E00",
"K  c #AB7908",
"L  c #BC7500",
"P  c #9E7330",
"I  c #D6590F",
"U  c #C77B01",
"Y  c #CF7309",
"T  c #D24F32",
"R  c #E86822",
"E  c #89744B",
"W  c #817A69",
"Q  c #E74D55",
"!  c #E15652",
"~  c #218413",
"^  c #299B17",
"/  c #2BA718",
"(  c #31AC1F",
")  c #258B25",
"_  c #269627",
"`  c #32972B",
"'  c #2AA72A",
"]  c #2DB62E",
"[  c #38B329",
"{  c #448E37",
"}  c #65823B",
"|  c #6B8A3D",
" . c #73893C",
".. c #41B72F",
"X. c #6B8646",
"o. c #748949",
"O. c #6B9646",
"+. c #789847",
"@. c #7B9C46",
"#. c #788D55",
"$. c #6CA24C",
"%. c #7DA249",
"&. c #79BA57",
"*. c #7CBC56",
"=. c #7B8669",
"-. c #7C8677",
";. c #958F00",
":. c #AA8200",
">. c #B78500",
",. c #A59A00",
"<. c #B89500",
"1. c #AE9614",
"2. c #B0AC00",
"3. c #8E8F3C",
"4. c #A28935",
"5. c #B7A534",
"6. c #C88100",
"7. c #D48600",
"8. c #DC8700",
"9. c #DE8A00",
"0. c #C79A02",
"q. c #DC9700",
"w. c #E28C00",
"e. c #EA8901",
"r. c #E39200",
"t. c #EB9300",
"y. c #E59D00",
"u. c #EB9B00",
"i. c #F29600",
"p. c #F59B00",
"a. c #FB9D00",
"s. c #E0821B",
"d. c #DCA900",
"f. c #CDB300",
"g. c #E5A400",
"h. c #EBA400",
"j. c #ECAB00",
"k. c #F2A300",
"l. c #FEA200",
"z. c #F4AC00",
"x. c #FEAC00",
"c. c #EEB600",
"v. c #F4B300",
"b. c #FEB300",
"n. c #F5BB00",
"m. c #FEBB00",
"M. c #CB9E2E",
"N. c #C9C700",
"B. c #DCD900",
"V. c #E9C705",
"C. c #FFC300",
"Z. c #F3C800",
"A. c #FECB00",
"S. c #F5D700",
"D. c #FED400",
"F. c #FEDD00",
"G. c #EDE700",
"H. c #FEE400",
"J. c #F5EC00",
"K. c #FFEB00",
"L. c #F3F000",
"P. c #FFF400",
"I. c #FFFE00",
"U. c #F5CD2D",
"Y. c #86905E",
"T. c #B09245",
"R. c #81A44A",
"E. c #86AA4D",
"W. c #89AD4C",
"Q. c #8BB14E",
"!. c #8BAA53",
"~. c #8EB551",
"^. c #84BE56",
"/. c #8ABF56",
"(. c #84BD58",
"). c #94B952",
"_. c #93BC53",
"`. c #818B6B",
"'. c #898B78",
"]. c #8E9771",
"[. c #899478",
"{. c #93A670",
"}. c #A5AB67",
"|. c #B2AC75",
" X c #CBA64A",
".X c #E2AA67",
"XX c #88C057",
"oX c #8CC157",
"OX c #95C357",
"+X c #9AC457",
"@X c #9CC857",
"#X c #95C458",
"$X c #9BC558",
"%X c #9DC859",
"&X c #AEC753",
"*X c #DAD767",
"=X c #F4CA6D",
"-X c #2E5A86",
";X c #315E8A",
":X c #0C7489",
">X c #36638B",
",X c #366696",
"<X c #376CA3",
"1X c #396EA2",
"2X c #3C73AA",
"3X c #3E79B3",
"4X c #5C7286",
"5X c #417CB8",
"6X c #10859E",
"7X c #049BC2",
"8X c #13ABD1",
"9X c #05BDE9",
"0X c #4ABAC6",
"qX c #0FC6F2",
"wX c #2FD0F6",
"eX c #64DBEC",
"rX c #888986",
"tX c #908E8A",
"yX c #949A8A",
"uX c #9A9999",
"iX c #9EA895",
"pX c #ABA899",
"aX c #B4AE91",
"sX c #9AA3A0",
"dX c #A8A8A8",
"fX c #BAB6A6",
"gX c #B7B7B7",
"hX c #C7B78D",
"jX c #FA95A9",
"kX c #C1BEB5",
"lX c #B7C1A1",
"zX c #D7D195",
"xX c #FFDB8A",
"cX c #FADB95",
"vX c #EDE694",
"bX c #D8D0AE",
"nX c #FFE3A6",
"mX c #ECE0B1",
"MX c #FEEAB7",
"NX c #BFBEC0",
"BX c #FAB7C6",
"VX c #90DAEB",
"CX c #A6DCE8",
"ZX c #C4C4C3",
"AX c #CBCAC9",
"SX c #D0CFD0",
"DX c #D8D8D9",
"FX c #FAEBC9",
"GX c #DFDFE0",
"HX c #CDF5FF",
"JX c #E6E6E7",
"KX c #F2F4EF",
"LX c #F3F3F4",
"PX c #FDFDFD",
/* pixels */
"+X+X+X+X+X$X$X+X$X$X$X$X$X$X+X+X+X+X+X+X+X+X$X+X$X$X$X$X+X+X+X+X+X+X+X+X+X+X+X+X+X+X+X+X+X+X+X$X$X$X$X$X$X$X$X+X+X+X+X+X+X+X+X+X_.%X$X$X$X$X$X$X$X$X$X+XOX+X+X+X",
"+X+X+X+X$X$X+X$X$X$X+X+X$X$X+X+X+X+X+X+X+X+X_.+X+X$X$X+XOX/.(.OX+X+X+X+X+X+X+X+X+X+X+X+X+X+X+X$X$X$X$X$X$X$X$X$X+X+X+X+X_.%X+X+X+X$X$X$X$X$X$X$X$X$X+X#XOX*.OXOX",
"+X+X+X+X$X+X$X+X$X+X$X+X$X$X$X+X+X+X+X+X+X+X+X+X+X$X$X#X&.^.(.*.oX@X+X+X$X@X+X+X+X+X+X+X+X+X+X$X$X$X$X$X$X$X$X$X+X+X+X+X+X+X+X+X$X$X$X$X$X$X$X$X$X$X+X*.XX*.(.(.",
"+X+X+X+X$X$X+X$X$X+XoX+X$X$X+X+X+X+X+X+X+X+X+X+X$X$X$X#X(.OX#X^.oX@X@X_.@.| R.+X+X+X+X+X+X+X+X+X$X$X$X$X$X$X+X+X+X+X+X+X+X+X+X+X$X$X$X$X$X$X$X$X$X$X+X(.OXOXXXXX",
"+X+X$X$X$X$X$X$XoXXX&.XX/.+X$X+X+X$X+X+X$X+X+X$X$X$X$X+X$X+X+X+X$X$XR.4 : , 1 g +X+X+X+X+X+X+X%X$X$X$X$X$X$X$X+X+X$X$X+X+X+X$X$X$X$X$X$X$X$X$X$X$X$X$X+X$X+X+X+X",
"+X+X+X$X$X$X$X$X(.(.oXXX*.+X$X+X+X+X$X$X$X$X$X$X$X$X$X$X$X$X$X$X%XR.> < _ _ ' 1 | $X+X+X+X+X+X+X$X$X$X$X+X%X$X+X$X+X$X$X$X+X$X+X$X$X$X$X$X$X$X$X$X$X$X$X$X$X+X+X",
"+X$X$X$X$X$X$X$X#X#X$X+X#X$X$X$X$X$X$X$X$X$X$X$X$X$X$X$X$X$X$X$X$Xa < _ _ ' ] ] 3 R.%X+X%X+X+X+X$X$X$X$X$X+X+X$X$X$X$X$X+X+X_.%X$X$X$X$X$X$X$X$X$X$X$X$X$X$X$X$X",
"+X+X$X$X$X$X$X$X+X+X+X+X+X$X$X$X$X$X$X$X$X$X$X$X$X$X$X$X$X$X$X$X#Xp ) _ _ ' ] ] ' p _.%X$X+X+X%X$X$X$X$X$X%X$X$X$X$X$X+X/.*.(.oX$X$X$X$X$X$X$X$X$X$X$X$X$X$X$X$X",
"$X$X$X$X$X$X$X$X+X%X$X$X$X$X$X$X$X$X$X$X$X$X$X$X$X$X$X$X$X$X$X$X+XO.: 1 ) _ ' ' ] 1 +.@X+X%X+X+X$X$X$X$X$X$X$X$X$X$X$X/.*././.&.#X$X$X$X$X$X$X$X$X$X$X$X$X$X$X$X",
"$X$X$X$X$X$X$X$X+X+X$X$X$X$X$X$X$X$X$X$X$X$X$X$X$X$X$X$X$X$X$X$X+X/.$.d > , ) ' ] ' a @X@X#XoXXX+X$X$X$X$X$X$X$X$X$X$X#X/.$XOX/.$X$X$X$X$X$X$X$X$X$X$X$X$X$X$X$X",
"$X$X$X$X$X$X$X$X+X$X$X$X$X$X$X$X$X$X$X$X$X$X$X$X$X$X$X$X$X$X$X$X+X#X#X%XW.2 , ) ' ] 4 OXOX*.XX*.(./.$X$X$X$X$X$X$X$X$X$X$X$X+X$X$X$X$X$X$X$X$X$X$X$X$X$X$X$X$X$X",
"+X+X+X+X+X+X$X$X%X+X$X$X$X$X$X+X+X+X+X+X$X$X$X+X$X$X$X$X$X$X$X$X+X+X%X%X%X!.> < _ ' 4 ~.@X*.OX#X(.oX$X$X$X$X$X$X+X+X+X+X+X+X+X+X+X+X+X$X$X$X$X$X$X$X$X$X+X+X+X+X",
"$X$X$X$X$X$X$X$X$X$X$X$X$X$X$X$X+X$X+X$X$X$X$X$X$X$X$X$X+X+X+X$X%X#XR.} u y O , ) ' : 8 s o.~.+X@X+X+X$X$X$X$X$X$X$X$X$X$X$X$X$X$X$X$X$X$X$X$X$X$X$X$X$X$X$X$X$X",
"+X+X+X+X$X+X+X$X$X$X$X$X$X$X$X$X+X+X+X$X+X+X(.#X$X$X$X$X+X+X$X).} y 5 t ,.f.S : , < 6 :.;.e 9 p @.OX%X$X$X$X$X$X+X+X+X+X+X+X+X+X+X$X$X$X$X$X$X$X$X$X$X$X+X+X+X+X",
"$X+X$X$X+X#X*.#X#X%X$X$X$X$X$X+X+X+X+X+XoX(.&.(.(._.$X$X+X).g > e 2.L.I.I.P.V.,.;.;.d.H.I.I.B.,.7 u @.+X$X$X$X$X$X+X+X$X+X$X$X+X$X$X$X$X$X$X$X$X$X$X$X$X+X+X+X+X",
"+X+X+X+X*.(.*.(.(.+X$X$X$X+X$X+X+X+X+X+X/.(.#X_.(.$X$X$XR.> e N.I.I.I.H.K.I.P.P.P.I.I.K.K.I.I.I.G.2.7 p ~.$X$X$X+X+X+X+X+X+X+X+X+X$X$X$X$X$X$X$X$X$X$X$X+X+X+X+X",
"+X+X+X+X(./.+XoXXX+X+X$X+X$X$X+X+X+X+X+X+XOX+X+X#X%XOXd 5 2.P.P.I.K.C.m.P.H.C.K.I.I.I.P.H.I.I.I.K.P.G.;.8 +.+XOX+X+X+X+X+X+X+X+X+X+X$X$X$X+X$X$X$X$X$X$X+X+X+X+X",
"+X+X+X+X+X+X$X+X$X$X+X$X$X+X+X+X+X+X+X+X+X+X+X+X%X~.u 7 B.K.D.K.H.b.x.D.K.b.m.P.I.I.I.I.H.F.P.P.P.H.D.P.N.5 d OX+X+X+X+X+X+X+X+X+X$X$X$X$X$X$X$X$X$X$X$X+X+X+X+X",
"+X+X+X+X+X+X+X$X$X$X$X+X$X+X$X+X+X+X+X+X+X+X+X+X~.u r G.F.m.S.F.x.x.b.H.C.b.b.H.I.I.I.I.P.C.A.A.D.K.D.A.K.B.7 s _.+X+X+X+X+X+X+X+X+X$X$X$X$X$X+X#XoX/.#XOX+XOX+X",
"+X+X+X+X+X$X$X$X@X+X#X#X$X$X+X+X+X+X+X+X+X+X+X).u t L.A.x.A.F.b.x.x.n.F.x.b.b.C.P.I.I.I.I.S.n.A.C.A.H.Z.C.F.J.e a +X+X+X_.+X+X+X+X$X+X$X$X+X$X#X*.^.(.*.OX+X+X+X",
"+X+X+X+X$X$X$X$X#XoX&.oX#X#X+X+X+X+X+X+X+X+XOXp e J.C.x.v.H.b.l.x.x.Z.C.x.x.b.m.D.P.I.I.P.S.v.C.C.C.A.S.n.C.F.G.e s $X$X$X+X+X+X+X$X+X$X$X$X$X#X(.OX#X(.OX+X+X+X",
"+X+X+X+X+X$X$X$X(.(.XXXX&.+X+X+X+X+X+X+X+X+Xg 7 G.C.x.p.Z.m.l.x.x.k.Z.b.x.b.b.m.m.A.K.P.F.D.c.C.A.A.C.D.Z.v.C.D.G.7 } %X+X+X+X+X+X+X$X$X$X$X$X+X+X+X$X+X+X+X+X+X",
"+X+X+X+X$X$X$X$X#XoX$X#XoX+X$X+X+X+X+X+X$X@.@ B.A.x.l.j.A.x.x.x.x.h.Z.x.x.b.b.m.m.C.C.A.A.A.Z.j.C.A.C.C.D.j.v.C.D.B.5 @.$X+X+X+X+X$X$X$X$X$X%X+X+X+X$X$X+X+X+X+X",
"+X+X+X+X$X$X$X$X$X$X+X$X+X+X+X+X+X+X+X$X_.2 ,.D.l.l.r.Z.b.l.l.x.l.g.C.l.x.b.b.m.m.C.C.A.C.C.A.g.C.C.C.C.A.Z.y.m.m.D.2.8 ~.+X+X+X+X$X$X$X$X$X+X+X+X+X$X$X+X+X+X+X",
"+X+X+X+X$X$X$X$X$X$X$X$X$X$X$X+X+X+X+X$X} 7 S.x.l.p.g.C.l.l.x.x.u.j.b.l.x.b.b.b.m.C.C.A.C.C.A.j.v.C.C.C.m.A.g.h.C.m.F.t s +X+X+X+X+X+X$X$X+X$X%X$X$X$X$X+X+X+X+X",
"+X+X+X$X$X$X$X+X$X$X$X$X$X$X$X$X+X+X+X).> f.m.l.l.r.c.x.l.x.l.x.u.j.x.l.x.b.b.m.m.C.C.C.C.C.C.c.y.C.C.m.C.C.Z.r.b.C.A.V.7 %.+X+X+X+X$X$X$X$X$X$X$X$X$X$X$X$X+X$X",
"+X+X+X$X+X$X%X+X+X%X$X$X$X$X$X+X+X$X@X} e A.l.l.i.r.n.l.l.l.x.x.r.v.l.x.x.x.b.b.m.C.C.C.C.m.C.n.r.n.C.C.m.m.A.y.y.m.m.D.,.u #X(.+X+X$X$X$X$X$X$X$X$X$X$X$X$X+X+X",
"$X$X+X$X+X+X+X+X+X$X$X$X$X$X$X$X$X$X#Xy 2.b.a.l.t.y.b.a.l.l.l.l.r.z.l.l.x.x.b.m.m.m.m.C.C.C.m.n.r.v.C.C.m.m.m.v.9.b.m.m.S.7 O.&.(.(.%X$X$X$X$X$X$X$X$X$X$X$X$X$X",
"+X+X+X+X+X+X+X+X$X$X$X$X$X$X$X$X+X$XR.5 Z.a.l.a.8.h.l.l.l.l.l.k.9.z.l.l.x.x.b.b.m.m.m.C.C.C.m.m.y.h.C.m.m.m.m.n.q.h.m.b.C.,.p oX/.(.+X+X%X$X$X+X$X$X$X$X+X+X$X+X",
"$X$X+X+X$X+X%X+X%X$X$X$X$X$X$X$X$X%Xg t b.a.l.i.8.z.l.l.l.l.x.p.q.x.l.l.l.x.b.b.b.m.m.C.m.m.m.m.h.r.m.m.m.b.m.m.y.9.b.m.m.c.9 W.$X#X+X%X+X$X$X+X$X$X$X$X$X$X$X$X",
"$X$X$X+XoX#X+X+X+X$X$X$X$X$X$X$X$X+Xu ,.x.a.l.t.9.z.l.a.l.l.l.p.w.l.l.l.l.x.b.b.m.m.C.C.m.m.m.b.j.w.b.m.m.m.b.m.h.8.z.m.b.C.r } %X$X$X$X+X$X+XXX#X+X$X$X$X$X$X$X",
"$X$X_.(.*.XX(.#X$X$X$X$X$X$X$X$X+X_.8 d.l.l.a.e.q.l.a.l.l.l.l.p.w.k.l.l.l.x.x.b.b.b.C.d.q.m.m.b.z.8.v.m.m.m.b.b.v.8.d.q.b.m.<.u +X+X+X$X%XXX(.&./.(.+X$X+X+X+X+X",
"$X$XoX*.OXoX*.#X$X$X+X%X+X+X+X#X(.&.5 h.a.a.a.w.r.l.a.l.l.l.l.i.9.l.l.l.l.x.x.x.b.b.d.S U v.b.b.z.9.k.m.b.m.b.b.b.r.K H j.m.d.9 ).+X+X$X$X(.(.#XoX*.+X+X+X+X+X$X",
"$X+X+X#X+X+X#X+X$X+X+X+X+X+XOX&.(.O.6 k.l.a.a.w.w.l.l.a.l.l.l.t.8.k.a.l.l.x.x.b.b.m.r . D q.b.b.x.9.u.m.m.b.b.b.b.q.@ 0 q.b.v.6 R.%X$X$X$X+X$X$X$X#X+X$X%X$X%X+X",
"$X$X$X$X+X$X$X$X$X$X+X+X%X+X#XXX+XR.6 a.a.l.p.8.w.l.a.l.a.l.l.t.8.a.l.l.l.l.x.x.b.V.=.Z E Y k.b.x.9.u.b.b.b.b.b.b.M.=.E U z.b.w O.%X$X$X$X$X$X$X$X$X+X$X$X$X+X+X",
"+X+X$X+X+X$X$X$X$X$X+X%X+X+X$X+X+XE.5 t.a.l.a.8.9.a.l.l.a.l.l.t.8.p.l.a.l.l.x.x.C.vXHXPXJXM.7.x.x.w.r.b.b.b.x.b.b.vXLXKXM.y.x.w } %X$X$X$X$X$X$X$X$X$X$X$X$X+X+X",
"+X+X+X+X$X$X$X+X$X$X$X$X$X$X$X$X$X~.& 7.a.l.a.w.8.a.l.l.l.a.l.i.8.i.l.a.l.l.x.x.U.eXeXPXPXiXL p.x.9.r.b.b.x.b.x.U.eXHXPXpX7.l.0 g %X+X$X$X$X$X$X$X$X$X$X$X+X+X+X",
"+X+X+X+X+X$X+X$X$X$X$X$X$X+X+X+X+X#Xy H a.l.a.w.8.p.a.l.a.l.l.p.8.t.l.l.l.l.l.b.bXqXwXHXVXwX4.7.z.9.w.b.x.b.x.b.*XwXeXVX0XK t.0 } %X+X$X$X$X$X$X$X$X$X$X+X+X+X+X",
"+X+X+X+X+X$X$X$X+X+X$X%X+X$X+X+X+X%Xs q t.a.l.e.8.t.l.l.a.l.a.a.8.t.a.l.l.l.x.0.sXwXqX7X7X9Xm J t.9.r.x.b.x.x.k.].wX8X7X8XF U = +.+X+X$X$X+X$X$X$X$X$X$X+X+X+X+X",
"+X+X+X+X$X$X+X+X+X+X#XXX+X$X+X+X+X$X%.* U t.a.i.8.t.l.a.l.a.l.a.w.w.a.a.a.l.v.6 % CXeX9X9X6XX S 7.8.r.x.x.x.b.<.# VXwX9X:X* J & E.$X$X$X$X$X$X$X$X$X$X$X+X+X+X+X",
"+X+X+X+X+X+X+X+X+X^.XX&.XXoX$X+X+X+X+Xu S w.t.p.w.9.p.l.l.l.a.l.w.s..X.XR R l.>.>.M.&X&X&X1.:.0.g.8.t.x.x.x.x.d.K 5.&X&X4.P I i _.&X+X+X+X$X$X$X$X$X+X+X+X+X+X+X",
"+X+X+X+X+X+X+X+X+X*.oX#X^.^.$X+X+X+X$X%.* J 8.e.e.8.e.x.m.x.l.l.t.! BXjXQ Q I a.x.l.b.m.x.x.x.x.k.w.u.x.x.x.x.x.p.w.t.a..XjXQ T ).@X+X+X$X$X$X$X$X$X+X+X+X+X+X+X",
"+X+X+X+X+X$X+X+X$X+X$X$X+X+X+X+X+X+X+X+Xg & U 8.8.8.w.k.A.C.l.a.p.I Q Q Q T A e.x.>.S H y.x.j.G q q w S S S L k.t.>.G U T Q T P _.$X$X$X$X$X$X$X$X$X+X+X+X+X+X+X",
"+X+X+X+X$X$X+X+X$X$X$X$X+X$X+X+X+X+X+X+X$Xs = U 8.8.8.w.x.b.l.l.a.e.Y I I I Y a.l.<.X + L r.<.X             0 U 6.F S 8.J * 4.).+X$X+X$X$X+X$X$X$X$X+X+X+X+X+X+X",
"+X+X+X+X$X+X$X+X+X$X$X$X$X+X$X+X+X+X+X+X$X+Xd & D 8.w.8.w.t.l.l.a.a.w.8.i.l.l.a.l.x.<.@ X X X               . X O G 7.H @ } $X$X+X$X+X$X$X$X$X$X$X$X+X+X+X+X+X+X",
"+X+X$X+X$X$X%X$X$X$X$X$X$X$X$X$X+X$X+X$X$X$X+X+.8 - J 8.8.8.w.i.a.l.p.8.w.i.l.a.l.a.x.g.F O .               X = J U q @ X.+X$X$X$X$X$X$X$X$X$X$X+X#X(.oXOX+X+X+X",
"$X+X+X$X$X$X+X+X$X$X$X$X$X$X$X$X$X+X+X+X$X$X+X$X_.d # - H U 9.w.w.t.i.e.8.w.t.a.a.a.l.a.l.q.:.r 6 & & & 0 F >.6.S * u E.$X+X+X$X$X$X$X$X$X$X+X$XoX&.(.^.&.OX+X+X",
"$X$X$X$X$X$X+X%X$X$X$X$X$X$X$X$X$X$X$X$X$X$X$X$X%X%X_.g # @ 0 G L U 8.w.w.8.8.w.t.t.i.t.w.8.9.r.r.q.q.7.L D 0 @ u +.$X$X$X$X$X$X$X$X$X$X$X$X+X@XoXXX@XOX(.+X$X$X",
"$X$X+X$X$X$X$X$X$X$X$X$X$X$X$X$X$X$X+X+X$X+X+X+X+X+XO.a { ` 4 2 O + = q w S H H J J J J J J H G S q = * + 2 } W.+X%X+X+X$X+X$X+X+X+X+XXX#X+X$X$X$X$X$X$X$X$X+X+X",
"+X+X$X+X$X$X$X$X%X_.$X%X$X$X$X$X$X$X$X+X+X$X+X%X%X_.X.2 / ( ...., c k < , : O $ + : + + X # y u p g | $.&.XXXX+X+X+X+X+X+X$X$X+X+X/.XX&.XX(.+X$X$X@X$X$X$X$X+X$X",
"$X$X$X$X$X$X$X$X#X(./.#X$X$X$X$X$X$X$X$X$X$X#X#X#X|.bXhXp ^ / / , -Xb ( [ ..l >X` ( ^ < u E.+X+X%X%X#X*.#XOX*.#X+X+X+X%X$X$X$X$X$X(.(.#XXX*.$X$X$X$X$X$X$X$X$X$X",
"$X$X+X$X$X$X$X/.&.(.(.&.#X$X$X$X$X$X$X$X#X/.&.E.lXmXnXnXo.~ ^ ~ : -Xb ( [ ..l >X) / 4 yXzX}.+X%X+X%X@X#X+X+X+X$X+X%X+X+X$X$X+X$X$X#X+X+X#X#X$X$X$X$X$X$X$X+X$X$X",
"+X+X+X+X+X+X$X/.oX+X#X(.$X$X$X+X+X+X+X$XoX*.(.{.MXMXxX=XP , , , 3 ,Xl / / / l ,X3 < o.cXMXzX%X%X+X+X$X$X$X$X$X$X+X+X+X+X+X+X$X+X+X+X+X$X$X$X$X$X$X$X$X$X$X$X+X+X",
"$X$X$X$X$X$X$X$X%X$X$X%X+X$X$X$X$X$X$X$XOXoX!.aXMXvX=X Xp : : ~ 3 <Xl ^ ( _ k ,X> : P =XcXMXbX{.%X+X$X$X$X$X$X$X$X$X$X%X$X$X$X$X%X+X$X$X$X$X$X$X$X$X$X$X$X$X$X$X",
"$X$X+X$X$X$X$X$X+X+X$X$X$X$X$X$X$X$X$X+X+XOX#.uXpX|..X3.W.M ;X>Xx 4Xx V V b B B g d  . XcXMXFX{.#X$X$X$X$X$X$X$X$X+X$X+X+X+X$X$X+X+X+X%X%X+X$X$X$X$X$X$X$X$X$X$X",
"+X$X+X$X$X+X$X$X$X$X$X$X$X$X$X$X+X$X+X+X$XR.kXLXLXSXE W.~.k -X<Xx B ,X3X5X,XB k +.&XQ. X.XhXhX`.OX$X$X$X$X$X$X$X+X$X+X+X+X+X+XoX+X+X+X$X$X$X$X$X$X$X%X$X+X+X+X$X",
"+X+X+X+X$X+X$X+X$X$X$X$X$X$X$X+X+X+X+X+X+X#.GXLXKXJXyXQ.E.k -X<X1X>X-X1X1X,X,XV ~.+X_.N aXSXSXuXE.$X$X$X$X$X$X+X+X+X+X+X+X/.oX&.XXoX$X$X$X$X$X$X+X+X$X+X+X#X+X+X",
"+X+X+X+X+X$X+X+X$X$X$X$X$X$X+X+X+X+X+X+X+X#.pXpXfXSX=.oX@.z -X<X2X>X,X5X5X,X2XM +X+X).'.JXLXPXJXY.$X$X$X$X$X$X+X+X+X+X+X+X*.^./.(.*.$X$X$X$X$X$X%X%X$X$X+X+X+X+X",
"+X+X+X+X$X+X+X$X$X$X$X$X$X$X$X+X+X+X@X$X!.rXzXcXaXbXyX%.M <X2X<X<X-X;X2X2X>Xv x +.%X!.W DXgXkXSXY.%X$X$X$X$X$X+X+X+X+X+X#XOX#X+X_.#X$X$X$X$X$X$X+X$X+X+X+X+X+X+X",
"+X+X+X+X+X$X$X+X$X$X$X$X$X$X+X+X+X+X+X+XY.bXpXaXdXGXJX-.1X3X2X,X;X;Xc c v v v 5XV O.yXNXbXaXhX}.#.%X$X$X$X$X$X+X+X+X+X+X+X+X+X+X+X+X$X$X$X$X$X$X$X$X+X+X+X+X+X+X",
"+X+X+X+X$X$X+X$X$X$X$X$X$X$X+X+X+X+X+X_.yXPXLXJXJXNXdXsX2X3X2X-Xh x c x z c 2X3X5XC SXGXZXhXzXaX[.oX@X+X$X$X+X+X+X+X+X+X+X+X+X+X+X+X$X$X$X$X$X$X$X$X$X$X+X+X+X+X",
"+X+X+X+X$X$X$X$X$X$X$X$X$X$X$X+X+X+X+X~.[.DXGXJXGXtXW n <X2X,Xz M %.%.%.2 -X<X3X5XB W tXJXDXAXAXiX~.@X@X$X$X$X+X+X+X+X+X+X+X+X+X+X$X$X$X$X$X$X$X$X$X$X$X+X+X+X+X",
"+X+X+X+X$X$X+X#X+X$X$X$X$X$X+X+X+X+X+X+XY.'.sXgXNXNX|.i k ;Xc M @X@X+X@X+.k ;X<X-Xm |.uXGXKXLXPXpXQ.+X+X$X$X+X+X+X+X+XOX+X+X+X+X+X+X+X$X$X$X$X$X$X$X$X$X+X+X+X+X",
"_.+X+X+X$X#XoX&.#X$X$X$X$X$X+X+X+X+X+X+XOXE.o.N Z gXE |.f h k Q.@X@X+XOX#XX.z c i E ].GXdXAXZXAX].).$X$X+X+X+X+X+X+X+X+X+X+X+X+X+X$X$X$X$X$X$X$X$X$X$X+X+X+X+X+X",
"$X+X+X+X+X&.^.(.(.(.$X$X$X$X$X+X+X+X+X+X+X+X+X+X@.'.bXxX4.2 +.+X$X$X+X+X+X_.a $ T.hX'.tXM [.C =.E.$X$X$X$X$X$X$X+X_.$X$X$X$X+X+X+X+X$X$X$X$X$X$X$X$X$X+X+X+X+X+X",
"$X$X$X$X+X/.OX+XXXoX$X$X$X$X$X+X+X$X$X+X%X+X+X$XQ.fXFXxX4.E.+X+X$X$X$X$X$X$X~.g T.cXmX].Q.~._._.$X$X$X$X$X$X$X$X$X+X$X$X$X$X$X$X$X$X$X$X$X_.$X$X$X+X%X+X+X+X$X$X",
"+X+X$X+X$X$X+X+X$X$X%X+X$X$X$X$X+X$X+X$X+X$X+X%XE.fXFX=XR._.+X+X$X$X$X$X$X$X$X).4.xXFXpX~.$X$X%X$X$X$X$X$X$X$X$X$X$X+X$X$X$X$X$X+X$X$X$X$X$X$X%X+X#XXXXX+X+X+X+X",
"$X$X$X$X$X$X+X+X$X$X+X+X$X$X$X$X$X$X$X$X$X$X+X%XR.bXMX=X3.$X$X$X$X$X$X$X$X$X$X+X3.=XMXfX!.%X$X$X$X$X$X$X$X$X$X$X$X$X$X$X$X$X$X$X$X$X$X$X$X$X$X$X#X*.(.(.*.#X+X+X",
"$X$X$X$X$X$X$X$X$X$X$X%X$X$X$X$X$X$X+X$X$X$X#X/.X.aXhXT.R.+X+X+X$X$X$X$X$X$X$X$X3..XcXfX+.%X$X$X$X$X$X$X$X$X$X$X$X$X$X$X$X$X$X$X$X$X$X$X$X$X$X$XoX(.#X#X*.#X$X$X",
"$X$X+X$X$X$X$X$X$X$X$X$X$X$X$X$X+X$X+X+X%X+XoX#.sXAXZXdXN +X@X$X$X$X$X+X$X+X$X$Xo.].dXsX=.!.%X%X$X$X$X$X$X$X$X$X$X+X$X+X+X$X+X$X$X$X$X$X$X$X$X$X+X+X+X$X$X+X$X$X",
"$X$X$X$X$X$X$X$X$X$X$X$X$X$X$X$X$X$X$X+X@.X.X.2 m rXtXtXo.&X$X$X$X$X$X$X$X$X$X+X#.SXGXGXsXs o.@.).$X$X$X$X$X$X$X$X$X$X$X$X$X$X$X$X$X$X$X$X$X$X$X$X$X$X$X$X$X$X$X",
"+X$X$X+X$X$X$X$X$X$X$X$X$X$X$X$X$X$X_.o.uXDXJXZXC $ % % N _.$X$X$X$X$X$X$X$X$X_.a j j ; Z dXAXdX#.R.@X$X$X$X$X$X$X$X$X$X$X$X$X$X$X$X+X$X%X$X$X$X$X$X$X$X+X$X$X$X",
"+X+X+X+X+X+X$X$X$X$X$X$X+X+X+X+X+X+XX.dXPXPXPXLXDXC $ n tXY.+X+X$X$X$X+X+X+X$X+.rX; $ Z DXPXPXPXJXZ E.@X$X$X$X$X$X+X+X+X+X+X+X$X+XOX*./.#X+X+X$X$X$X$X$X+X+X+X+X",
"$X$X$X$X$X$X$X$X$X$X$X$X+XoX#X$X$XQ.=.JXPXPXLXJXJXNX; ; C #.$X+X$X$X$X$X$X$X+XX.Z % n SXJXKXPXPXPXZXX.+X$X$X$X$X$X$X$X$X$X$X$X$X^.*.(./.&.+X+X+X$X$X$X$X$X+X$X$X",
"+X+X$X$X$X$X$X$X+X%X$X#XoX*.(./.@X@.C gXgXdXgXdXsXdXn o o g $X$X$X$X$X$X$X$X+Xu o o Z gXgXZXZXAXZXNXN ~.$X$X$X$X+X+X$X$X+X+X+X+XoXoX+X#X/.+X$X$X$X$X$X$X%X+X+X+X",
"+X+X+X+X$X$X$X$X$X+X$X/.&.#XoX&.#X| rXgXNXdXdXdXdXdXdXdXrXM +X$X$X$X$X$X$X$XW.n 4XtXuXuXuXsXsXpXgXdXm R.%X$X$X$X+X#X+X+X+X+X+X#X+X+X+X+X$X$X$X$X$X$X$X$X+X+X+X+X",
"+X+X+X+X+X+X$X+X+X$X$X+X#X+X#X#X+X+.N [.].=.=.`.`.`.`.`.N N $X$X$X$X$X$X+X+XQ.m tXyXyXyXyXyXyXyXiXyXm E.%X%X$X+X+X+X+X+X+X+X+X+X+X$X$X$X$X+X$X$X$X$X$X$X$X$X+X+X",
"+X+X+X+X+X$X$X$X$X$X$X$X+X+X+X+X+X+XOX~.)._.OX_._.OX_._._.%X$X$X$X+X$X+X+X+X+X~.W.W.Q.W.Q.Q.W.Q.Q.W.~.+X%X#X$X+X+X+X+X+X+X+X+X+X+X$X$X$X$X$X$X$X$X$X$X$X$X+X+X+X",
"+X+X+X+X$X$X$X+X$X$X$X$X+X+X+X+X+X+X+X+X+X+X+X+X@X+X$X$X$X$X$X$X@X+X+X+X+X+X+X+X$X$X&X_.+X@X+X+X+X$X%X$X+X+X+X$X+X+X+X+X+X+X+X+X+X$X$X$X$X$X$X$X$X$X$X$X+X+X+X+X",
"+X+X+X+X+X$X+X$X$X$X$X$X+X+X+X+X+X+X+X+X+X+X+X+X+X$X$X$X$X$X$X$X+X+X+X+X+X+X+X+X+X+X$X$X+X+X+X+X+X+X$X$X%X+X+X+X+X+X+X+X+X+X+X+X+X+X+X$X$X+X$X$X$X$X$X$X+X+X+X+X"
};
