/* XPM */
static char *last_resized[] = {
/* columns rows colors chars-per-pixel */
"80 80 14 1 ",
"  c #77BA56",
". c #7CBC56",
"X c #7CBC58",
"o c #83BE56",
"O c #89BF56",
"+ c #84BE58",
"@ c #86C056",
"# c #8CC157",
"$ c #87C058",
"% c #8DC158",
"& c #94C357",
"* c #9AC457",
"= c #94C358",
"- c #9BC558",
/* pixels */
"****---**------*******&**---*******************--------**********----------*****",
"****-**-*--*--***********--**#o**-*************--------**********-*-------**#o&*",
"****----------************-* oX.#---***********---------*****&**--------*-=X@..#",
"****-----*&=---************&o%*@#---***********---------********-----*---*=@&*@#",
"**-*----%# #O*--**-***--*---*-------****-&---------------**-****----------------",
"***-----+o##X*-****-----------------****---*---------------***---------------**-",
"**------==-&&-------------------------*-------------------***&**----------------",
"**------**-**----------------------#*---------------------*&& O&----------------",
"--------**-----------------------&# ##***------------------O.OO ***-------------",
"--------**-----------------------#.## ***---*-##-----------&#*&#*---------------",
"---------------------------------&=-*&***---&.@@o&----------****----------------",
"**-*------------*****-**------------***---**&.&&.#------**********----------*-**",
"-----------------*--****--------------------*&***-----------**-*------------*---",
"-***--*---------***--*##--------------*******-----------*-******-------------***",
"*---==o=*-------***-#@.@@-------------**-**--------------*****--------------****",
"****o+.@X*-----*****#.== ------------********----------*********------------****",
"****oO*#@----*-******&*******---*************-------#&-**********-----------****",
"********-----************-***---*************-----&#.@#-***********----*---*****",
"******-*-----*-**********---*---***************---#.%% **********------**@#=&***",
"*****-----=*--******&****---*---***************---*&--%**********----*-&..@+&***",
"*****---&% #&************---*-*****************--------***********-----=@**X&***",
"*****---@o@$ *-***********-*--*********&*******--------**********-*-----**-*****",
"*****---=%-=%****&***********#o*--************----------*********-------=---****",
"*****------***-************&.@o.&---******&**-----------***&**&**-*-----*---****",
"****---*--------**********-*.&&oO----*-***-*------------***-*-*-*-----------****",
"****------------*****-**--***-***--------**-------------**-*--*-**------------*-",
"****------------*******--------------********-----------***-**&O=*------------**",
"-*-*------------*****---*--------------------*-@#-------**--*oO $#----------*---",
"*******---------***-*****----------*********-%..@ &------****.#*@#**--------***-",
"---*--**--------**---------------------------&@*&o&---------*&**=-**---*--------",
"---*==**---------**-------------------------------------------*&------=@=*------",
"*-=o.oo=--------*******-*---------**-********-----------***********--$$ ##--****",
"--% == &----***&@o**-------------------------------------------------@%=#@**----",
"---*--&*-----*= o@ #---*--------------------------------------------*=--*=-*----",
"-------*------*@**@&*-**------**--------*-**-----------------------------------*",
"-------*--------**-*****----*-**--------*****---------*---*--*-*-----*--------**",
"*****--*-------*********----&--*----**********----------*********-----------****",
"*****-*-------**********--== #**----***********---------****&****-*---------****",
"*****-------************--.@@oo---*O***********---------***#.o@**-----------***=",
"*****-*---*$**-***********#%*&#---***********-*---------**#.## #*-*---------****",
"*********o@.@#-*********---------******--******--------***&#**#**-*-------******",
"**&******o#=++-*********----------*****O-*O*****------*************-------****&*",
"*****-**-*--**-*********--------********OOOO**--------*-&********----*----******",
"****-***------*****&****--------********.OOo#----------**********-*--*----******",
"*****----------*********---------*******O***&*----------********---------*-*****",
"***--------------**-****-------------*--******----------********--------*=.#****",
"-**--------------****-**-------------*--******----------********--------@.@@.=-*",
"-------------------*****----------------******------------******--------%#-&$---",
"***--*----***--******---*----------*-*-*****--------@%--=-**-******o==---------*",
"---*----*****--*-*-**---*-----------**----*-------&@.@o=--*-*-*-*o@.@@--------*-",
"-------==XO=*---------&&*-------------------------#@&&o=--------*.#*@@**--------",
"--*----O.+# --------&# O#*---------*--*----------***-------*-*--***-****----*-*-",
"*****--&%--$*--****-O.OO *----------**-****-*-----------*******-*-------------**",
"--------------------*&*&#*----------**------------------------------------------",
"--*-------------********----------****-**--**---------------**--*---------------",
"*-*-*----------*********--------*%@.&*--**-**--*--------*****-*#*--------------*",
"*****--*--------****&****-------% ## &-*********-------******@@ ##---------*****",
"****--*---------*********--------%**#***********-------******.##oo---------*****",
"*****--*-------***********--*-----**************------*-*****#**&=*--------*****",
"*****-*-------***********---*-----**********O***-------***********---------**&**",
"****----------**&********---*---**********#O @#*------***********-----------****",
"****---*------************--*---**********o.##.*----**-*********------------****",
"&***---=-----************---*--***********&&***-----******&******-*---------****",
"****-%% ==----***********---*--***************------*************-----------****",
"*****.OO+@=--*******-****----------**********-----------*---*****----------*****",
"**--*#&&%=**-------*----*---------------*--*--------------------*--------*-****-",
"**--------------*-*------------------*--*--*-----------*--*---*-*-------==X#=---",
"*-----------------------&&---------------------*------------------------#X@@ ---",
"-----------------------$#.%=------------------**-----------------------*%$*=@*--",
"-*-----------------*--* #% #--------*---*-*---**----------*--*---------*----*---",
"----------------------*%&-=&----------------****----------------------------*---",
"*--------------**---*-*------------*--*-----*&@o=--------*--*--*--=----------**-",
"******------*--*********------------*--***--& @@.#**------******&# #&-------****",
"-------------#&*----****--------------------*@*=#=-*--------****oooO *----------",
"**-*-------=o.oo=-******-------------******-**-*--------***--***#&-*=*------****",
"****-------%.&& *-******------------**********---------*************--------****",
"******-*----*************-----------**********---------*****=*****------------**",
"******-*----************---------*-************-------*-**********---*-------***",
"*****-*------*-**********-------****************--------*********-----------****",
"********------**********--------***&************--------***********---------****"
};
