/* XPM */
static char *stone_wall_2_by_devin_busha_d2f1jcp_resized[] = {
/* columns rows colors chars-per-pixel */
"80 80 220 2 ",
"   c #00000D",
".  c #000015",
"X  c #00041C",
"o  c #01081E",
"O  c #010622",
"+  c #030B24",
"@  c #050D29",
"#  c #090E2B",
"$  c #0A0E26",
"%  c #061126",
"&  c #0A1426",
"*  c #07102A",
"=  c #0A132C",
"-  c #0D192C",
";  c #111C2F",
":  c #10152E",
">  c #0D1532",
",  c #0F1933",
"<  c #0E1539",
"1  c #101633",
"2  c #121B34",
"3  c #111738",
"4  c #141C3A",
"5  c #191F3D",
"6  c #181E34",
"7  c #13232F",
"8  c #142235",
"9  c #16223B",
"0  c #1A243D",
"q  c #1C2B3D",
"w  c #172935",
"e  c #1D303F",
"r  c #202F3D",
"t  c #151D40",
"y  c #172242",
"u  c #1B2443",
"i  c #1D2A43",
"p  c #1D2649",
"a  c #1E2A4B",
"s  c #1E3242",
"d  c #212B45",
"f  c #232C4C",
"g  c #282F4E",
"h  c #202748",
"j  c #233345",
"k  c #233945",
"l  c #25334C",
"z  c #29334E",
"x  c #253A4B",
"c  c #2A3B4C",
"v  c #293C47",
"b  c #242E51",
"n  c #272E54",
"m  c #263252",
"M  c #2B3554",
"N  c #2D3A55",
"B  c #24335A",
"V  c #2C3659",
"C  c #2E3A5A",
"Z  c #273952",
"A  c #313656",
"S  c #313C56",
"D  c #303759",
"F  c #313C5D",
"G  c #2F3B61",
"H  c #2E3E69",
"J  c #333E61",
"K  c #313F69",
"L  c #2B414D",
"P  c #25414C",
"I  c #32474E",
"U  c #2D4354",
"Y  c #2C4A54",
"T  c #2F415C",
"R  c #2E4959",
"E  c #324455",
"W  c #354A55",
"Q  c #33435D",
"!  c #354A5C",
"~  c #394D5D",
"^  c #35525D",
"/  c #3B525D",
"(  c #3B5459",
")  c #2E5058",
"_  c #2F426E",
"`  c #354264",
"'  c #394465",
"]  c #364A62",
"[  c #3A4B65",
"{  c #364469",
"}  c #39466B",
"|  c #3B4A6C",
" . c #374A6C",
".. c #365262",
"X. c #3A5364",
"o. c #375962",
"O. c #3A5B65",
"+. c #3D546B",
"@. c #3D5B6A",
"#. c #3B4771",
"$. c #3D4B73",
"%. c #3E4D7A",
"&. c #374774",
"*. c #3E5173",
"=. c #3F507B",
"-. c #3E626B",
";. c #434B66",
":. c #424C6D",
">. c #424562",
",. c #405365",
"<. c #41536C",
"1. c #405A6D",
"2. c #4B546C",
"3. c #424E74",
"4. c #414E79",
"5. c #435274",
"6. c #4A5475",
"7. c #455A73",
"8. c #4A5B75",
"9. c #44527B",
"0. c #4A567C",
"q. c #46597B",
"w. c #4C5A7D",
"e. c #515A7E",
"r. c #41606F",
"t. c #486176",
"y. c #52657D",
"u. c #455582",
"i. c #495683",
"p. c #475883",
"a. c #4C5B84",
"s. c #4B5B8A",
"d. c #465688",
"f. c #515E84",
"g. c #515F8A",
"h. c #505F90",
"j. c #4D6184",
"k. c #4F628A",
"l. c #546284",
"z. c #54638B",
"x. c #5A668D",
"c. c #566A8E",
"v. c #5C6C8C",
"b. c #586C86",
"n. c #5D718C",
"m. c #4F6292",
"M. c #536393",
"N. c #5A6792",
"B. c #576994",
"V. c #5C6B94",
"C. c #54659A",
"Z. c #56689C",
"A. c #5C6C9B",
"S. c #5F7292",
"D. c #5D709C",
"F. c #65748F",
"G. c #616E94",
"H. c #616E9C",
"J. c #637195",
"K. c #6A7695",
"L. c #63729C",
"P. c #68769D",
"I. c #697A9A",
"U. c #717C9A",
"Y. c #656E8D",
"T. c #5B6DA3",
"R. c #5E71A3",
"E. c #5D72A8",
"W. c #6474A3",
"Q. c #6B7AA5",
"!. c #6376AB",
"~. c #6B7CAA",
"^. c #6678A9",
"/. c #727FA6",
"(. c #657AB4",
"). c #6A7DB1",
"_. c #6B7DB9",
"`. c #74829C",
"'. c #6C81AD",
"]. c #7482A3",
"[. c #7383AC",
"{. c #7B86A7",
"}. c #6E82B3",
"|. c #6F85BB",
" X c #7181B2",
".X c #7D8DB3",
"XX c #7486BC",
"oX c #768BBC",
"OX c #7A8CBB",
"+X c #7687B3",
"@X c #7E92BC",
"#X c #6F86C0",
"$X c #758AC3",
"%X c #7C92C8",
"&X c #8594BB",
"*X c #8796B7",
"=X c #919CB8",
"-X c #95A3B9",
";X c #8394C3",
":X c #8D9DC3",
">X c #8598CB",
",X c #8399D3",
"<X c #869BD6",
"1X c #8DA0C9",
"2X c #92A2CB",
"3X c #98A7C7",
"4X c #8EA4D6",
"5X c #96A9D5",
"6X c #9FB0D7",
"7X c #ADB5CD",
"8X c #A3B5D4",
"9X c #A6B7DB",
"0X c #B4BDD2",
"qX c #9BB1E6",
"wX c #9EB6F0",
"eX c #A6BAE7",
"rX c #B5C5E9",
"tX c #AFC5F3",
"yX c #C4DCFF",
"uX c #C3D2EE",
/* pixels */
"F i @ . u x.G.Y.:.b 1 = 9 g 0 + V Q d 4 i + @ O O 4 g l./.P.v.3.d o @ h 3.;X3X:X~.z.:.f 2 2 5 2 + @ 1 # O 1 9 - O + * @ O + * = : : $ 2 4 4 = + + = T C F F C C ",
"@ * . ' f.9.g./.:X;X XOX X~.N.a.z.g.3.} } # > @ u } 6.g.0.0.0.5.:.d + S Q.~.'.A.M.M.z.Q.:.4 O @ G.6X>XXXB.f . d F u + % + p 4.C p M V u X + * % + = > > < 2 2 + ",
"+ O :.3XM J C m m F J | ' | 5.q.3.a.V.q.9.g 5 @ :.S h z g g g A h 0 O } z.u.&.` ] ] Z ` | n X M.4XL.a.k.%X|.4 V.P.j.2 8 5 ,XtX4X%X8X8XeXz.4 w = > t V H $.9.m.u ",
"u 2 [.Q C ` J ' ` ` J ` Q F Q F T N U C D | u O :.J J ' ' F F F M 4 - m J } } F Q ` Q S J V t XX .J | $.M.5.S f.C C 6 ; t E.$.%.W.4.V 6.9Xx.+ - y h.%XtXeXtXwXC.",
"&.- p F F C F C F ` J ] ` ` ` J J ` { C J F u o >.} #.} @.X.^ ' F i - M ' A ` D S ! A A F p K p.{ q.%.$.C.f $ V.| S 9 r O } u.| i.4.$.J ` s.& , 9.#X!.XXT.d.T.s.",
"_ u a.N | J C { ` V C ] J J J `  .| $.} $.M h 4 5 3.3.5.+.@.+.F M 2 X F J D D D F F A A ' u K h.` | 3.` ` d.4 6.' V 2 w # C.K u.#.%.3.u.{ 9.& ; &.s.u.d.%.`  .d.",
"2 0.L.V | l F F b C F ` ` J 9.9.J $.%.%.&.M A F O 6 1 1 u h p u u = O D F ' F F F D D J ` 1 J !.*.q.| C F $.m t ' M 2 q 1 f.u.J C $.$.}  .{ % , s.i.9.` &.} { %.",
"2 V 0.=.F V { F C F m g $.J J J N F J J F f f } : t :.3.Q | ' :.| V X 2.$.} ! ` J { ` | D > n T.s.%.V C F C J 4 S S 9 0 > s.4.h V C #.$.4.C - , E.4.&.G $.` { F ",
"f O 9 !.a.C ` ` ` F M m F V C F Q C F J J m g | : 6.' [ Q Q N C F J $ 6.F ` ` { Q ` ` J | , G Z.$.F ` F F C ` 5 h g 8 w 1 9.J V q. .} | J m * l C.{ J V ` } ` F ",
"u , # G ~.G { ` { ` J J C J C C V F F F J Z C D O e.[ | O.@.1.5.| K o 2.Q T @.+.@.+.C ` $.> K Z.M ` } D C F ` d > + 9 2 2 f V 9.V.} J J ` g . Q p.V ` C ` D C C ",
"2 9 Q = d.0.] { { | { ` { #.{ V V C J F m M Q 2 o V Q c U E N N C g & 8 5 i k x U U l ` G @ J R.V | ` F J J | U 4 @ + + @ p } } C D ` ' ` 0 % Z N.{ F  .F C N D ",
"# + &.s.y  .!  .%.%.9. .J { 9.| C C C C p M N 1 o + z ' 5 # g V i > @ & M $.9.s.%.p > O @ @ b 9.J ] ] J C C 3.U 4 + > # ! | F J ` D M t 4 9 - ` s.A.G ` | D F D ",
"# + y &.a ` ! ] $.%. .#.{ J  .%.} J | ` M C z 0 O f A.~.V.'.1XXXx.8 + F.%XXX%X%X_.%X^.T.g.t y |  .] [ C C F  .E = > & + Q :.J J ` F f c ,.l # ! 9.0.J M | | z M ",
"+ $.b + s.] ] ]  .9.J ` 0.` ` ` ` %.#.` M z c g + N.$.b T ` Z Z Q j 0 w.i T `  .` u.s.d.a.b @ m ] ..] *.] ~ | # f g.i + S } C ' d > ! E j - # ` q.g b F t c E M ",
"o 4.G n T. .] | | | | i.4.` { J F | 4.C Z.5.Q g 2 z.| 9.] ] { {  .k , H.T { ] ` ` ` ` C | b @ > m ] ..-.X.! 0 + 3.F A $ 8 ` N W q = i 3 2 + & ` ` f F | l v ~ m ",
"+ M s.t u.+.[  .{ { %.J m J J F D J { M :.5.| 6 C L.f.{ ` ' ` ` ] z + 5.' F ` $.G `  .` M y 3 + * 4 a l i 4 + # :.A J 2 = c d 5 + . O 1 4 @ o z ` J { z r U E M ",
"- l  .y %.{ ` ` ` { J J q.$.J ` J ` J F V V [ - V x.J J { Q C J Q 0 - t.` C |  .J { #.F C V $.t O > , > # 3 %.u h F F 1 = > > D z.s.m u , % + k Q [ ! j z l q 5 ",
"6 v M 3 s.4.C J *.` { ` | ` ` J J J  .%.$.J [ = N i.` F F J J J ' 9 q y.J | 9.XXT.C F F ` m M :.5.p @ O 5 R.z.J ' 5 = O - u oX8X.XL.M.a.N = 8 k x Y P k & 8 e + ",
"= i 2 5 M.9.f !.i.C ` ` J J ` C F C $.9.u. .~ $ C V.J J Q C ` ` | 0 i 8.b a W.V.C F F ` Q f V *XG.C , X $.3.z D A m = = ( ,.$.f C M m Z Z @ + = : k W 2 OXw.j + ",
"8 d 0 f %.J  .|.M } { N F J J J F F { 9.} D 5.& > ~.J J C J } C } 9 i l.h G V f J ` } ` F p | m b J a . 3.V.M D M :.f o c j f m y.[ ! C M 2 - 9 { Q.@XJ XXi.i < ",
"8 ~ N m b M a.i.G 9.$.s.` { J F D ` F J F F | = o L.a.l ` J } M ~ 8 & U.J J F ` { ` ` J T l z.D F J M # t W.Q ` W S F > = Z X.X.~ X.! b 4 = = = p C M J m m C 4 ",
"q X.c 5 f ` z.B.d.=.d.s.F F D C F F J J ` [ C & o j.P.Z m.T.0.Z Q ; > n.F C C C ` J F M ` E l.M J F F 4 < ` D ! ! ~ Q 5 = d x c i * + * * * - o = 2 p h f p 5 @ ",
"l ,.` l Q V J { 9.9.0.` D F J F F J ` ` ` ! ! 2 O M S.U +. .! N ~ w u 6.c J F C ` F F F R ` 5.G | J ' h , t t # 4 6 = < * + 2 + 3 b.1X2X}.<X4X~.M f l u u 4 = = ",
"r ,.:.9.` E Q V C Q C C F { ' { ` ` { J ` Q [ m . % A.Q U Q F C F 8 z 3.C F Q Q F F F Q ] ! ` ` F J J M # a u.x.5.M F m @ 2 6 6.8X1Xc.5.q.j.c.'.s.$.G.[.G.l.' 2 ",
"2 c E Q Q ..o...] ] ` ` ` ` ` ` ` ` ` ! ` [ U q n & a.g.] +.` T M 1 S 9.S [ ~ ~ ] ^ X...@.C ` Q Q V J i < a T C [ ' F D 3 2 +X4X9.C T ] ] { C ` ` ` T N C Z M u ",
"1 q 8 f 5.@.@.-.-.O.] [ ^ ^ X.X.X.X.X.[ [ [ k q z.f 5 #.C M 9 3 4 X M 6.! @.o.o.! c s x j 2 C ] ] ] +.m 9 t.z d j d D M @ C oX{ $.9.$.] ` &.F ` 9.%.] ` Q J J l ",
"= f f d 9 2 8 i z m m Z C ` T Z m Z V a - O . 8 i 2 O + * , 9 - ; + + i : 8 l E Q ~ 2.w.| N Z Z T U z = % X > 4 > = > 1 . +XQ.{ 5. .` ! F V C C C  .Q ` $.E F g ",
"* > 9 w i f i < = O O . X o o X o o + = m | D.l.3.z.W.J 0 V.~.x.6.f + = ' Q.[.Q. X[.[.Q.a.6.a.e.5. .m 9 + 9 z.f.w.3.3.u + 2Xa.%.{ '  .| C m F V ` J F ` z.N F f ",
"2 5.b.l.f.B.+X!.B.z.B.W.G.G.v.b.i + > f g.B.A.a.a.9.` { ' F C F | F 1 F | :.` &.J { _ &.G J C V V ` J C 4 a.a.D } :.3.F f &X$.5.J F J { } J $.Q.V.V F C | F F m ",
"3.~.g.i.J V V C J C ` $.` ' ` ` z + , 6.G ` | { C D J ` F J { ` J M 1 f.m F } ` 3.V F C G C V m m f a u > a.} f 5 4 u y 4 A.$.*.V J J F ` | s.J C C J F ` D C p ",
"} M d ! Q S Q ` Q Q F Q { ` J J c = Z w.C ` ` F N T N Z V C ` Q D f & :.m m u = + + O + @ @ @ = > , = @ . = 4 3 3 4 4 t @ $.*. .C `  .` F ` { ` ` J C F M N C u ",
"2 M Q ^ ^ X.X.~ ~ X.^ [ ~ ! Q Q C = a M i l z k k U U ! ! W U Z Z 9 O o > = h | s.M.G.b.G.z.z.8.z l C T U i 9 9 i u 8 @ o a *.+.$.` } C F ` C V } F 3.F V D F m ",
"@ + > 5 2 2 2 - & - 9 9 6 = O $ + . o 9 M J ` ' | ` l l u 0 9 4 = X + u Q.-X=XQ.V.l.U.K.P.P.G.N.g.f.V.V.J.W.x.z.J.S.8.f . M q. .} F } %.F ` J M {  .| F N S D M ",
"@ > O X g 0.f.a.| z O O + z 8.K.&X*X&XQ.L.z.f.a.M.g.G.A.z.f.G.OX Xw.o $.P.' V M V Z M m M M M M V A g M M V C D V M z 3.O ' a.$.} J 4.` F K ` ! ` ` ` ` F z F m ",
"* < + 6.~.$.3.5.4.3.f o F %X[.].x.;.` M C $.s.K.{.U.N.} | 9.N ! :.Q.f g 6.z ' ` { N d.0.|  .{ { } | F } 9.| { ` ' E r 6.6  .p.*.} } } m ' ` ! ! Q { { ` C c M m ",
"* + V W.C J { { J D S O | } d { t 9 z V.#XqX8X8X2X&X$X3.` | T ` U C V M f.S F ` { C *.$.G #.` { J F F D J ` F F ! j l :.; ` =.{ } | | ! J ! ] ` ' { ] } F S { m ",
"3 +  .0.$.9.%.%.:.W n 2 h.i.F V 5 W.>X(.,XM.&.%.G _ 9.J F C Q Q Q Q } g N.A W [ ]  .] T ` #.$.F F F } F F ! X.X.O.2 0 f + V c.+.C N { ` T ` Q ] [  . .| ' ] *.f ",
"4 @ a.A. .4.%.%.[ E 1 & M.3.D s.eXuXW.d.$.C 9.h.'  .4.F F J J ` E F } f 9.F ~ ~ ] ] ] ] { | J Q Q ` $.X.X.! U j 0 4 @ + $ + 7.7.r.1.X.| ] [ +.5.<.1.1.<.+.5.{ > ",
"2 $ q.M.&.4.4.9.| W w @ M.} } A.B.&.$.{ } | | d.V J u.| | F ` ! Q A } g % u T X.....X.X.X.` ` [ X.E U x x C V J N = 0 M f > O 1 q k x x Z a l k s i 0 0 i d , > ",
"f 1 Q 3.p.J F Q F ~ d $ 4.F { J C u.$.` } ` J %.F J 9.h. .R ] ..Q A } l + % < p Z ] ] T s N Q m i V =.R.).!.B.9.[ I z f N 4 O + 4 f >.,.| 8.6.6.f.6.:.A N D ' M ",
"u 5 5.i.s.N F C N / c X } ' S F `  .#.{ ] [ ` ` J C 9.4.J ` T ! Q A ' f + Q }.;XoX XV.V.w.J 1 u 0.R.B.q.! N C F ` ' ` C f o = >X:X+X].I.].`.`.].[.L.U.z.0.3.{ V ",
"V i w.s.a.D C | 3.c v o D :.D F J ` { ] ..` J ` J G  .` ` ] ] ~ Q A F V o J.x.] { ` ` { 5.b.t | L.m F ` { ` ! ~ ` ` {  .}   i.>X9.C m m Z f m C V G K ` ` Q ! Q ",
"V g a.5.$.D ` T.<.r w + f 3.D F ` { J ] ] ` G ` ` ` ` ` ` ! ] ` F A F A = E A E E E c ' C m d w.[ E ! U M Q ! ^ ~ ] F ' M 6 XX} J | 4.4. .$. .F F ` Q F ` ] Q C ",
"V f $.q.C ` J z Q Q 2 O t i.V F C J u.+...J 9. .` m G { J C Q Q Q M S V + . . 1 h Z S Q D g & d E E W r 1 h U ~ o.O.W ,.d N.i.| J 9.C.(.@X.Xu.V F V Q { T ~ F C ",
"D b z ! J J { J K [ w + 5 3.M F V } Z.5.` b !.{ ` { { ` M M b g Q c F F 1 z d 0 : o # = o $ 1 0 d r 4 1 2 > - > 2 8 l i l ).| ' ` | #. .F M F D J M Z 5.C ] F D ",
"D f r E ! ` ] ' ! ~ r X 5 3.F J $.C.J > @ C ` p C ` ` ` C ` J V ( S F S z v.G.x.f.f.8 & g.V.W.V.W.P.W.Q.H.G.z.} } C + + 3 h.{ F J C J F D } ` C S ` [ / E F C C ",
"M f f Q z z l j l k m * < l 0 0 t < b U.&XZ.=.Z.u.` ` J ` F C ! ! E J g >.F g g M ;.E W.H.A N N S N F S M S S ] Q x.J . 5 g.F F F ` $.C C C  .#.$.9.~ I E C F A ",
"D u M :.M S S S S E [ 9 @ @ f #.z.*X7X{.5.J `  .$.` { $.{ J Q ! ! E J 1 S ~ F { { Q r f.z S ` ' [ ` ` ` ` F S Q Q M ' # + 9.J F Q +.C.z.s.5.<.F 3.,.Q W W C F D ",
"N g 4 [ / -.-.-.-.o.l O , { H.G.y.@.m B G { ` { ` J 4.$.J ` ! ! ! S F 0 N } F `  .6 c ' [ | | ` F N D J J J F ! ! A F d O 3.S J ' C l Q 5.~ E { F Q ` Q E m F D ",
"V V # q U c L Y k 6 X o M h.F M C Q ] } ` ` { { `  .$.$.{ ` ] ] ! A ' z F | F | 0 S G.A J #.F F 3.4.` F F F } [ E D Q M O #.F { F ` ` F C ` { ` ` F F ` Q z D F ",
"F M 2 0 u n F M ` ` g X h g.F F ` Q | i. . .$.J } J 4. .f f F ! Q A } : 2 z i & Q G.M V F D J J J | | J | J ` s.[ E Q z . } ' F D C F D ` J C F F C Q ! Q V C J ",
"` b - V N.9.9.3.q.i.a.i 5 s.V F Q l u V V V | J J | 4.J %.9.` N Q ~ r : h 2 . S P.A S ' ` ` J ` J F { | |  .F ` [ ! F g X { | D E Q F S Q F F ` ` C F C Q N S ` ",
"g 4 : V.` C J F F F F F 1 9.Q Q Q l J J G p 1 h V $.` Q 5.E N ! X.,.- :.` f + ' S Q S ` ` #.J G { ` ` J ` ` { Q Q ! Q d o u s.[ ,.X.[ [ @.+.[ ` J ` ` F [ X.:.J ",
"o + i 0.C } F F F | F J = 2 X.1.o.c | 5.M.k.8.[ [ X.^ O./ -.O.E j : X g m = 0 Q Q Q ! ` J { J ` ` { K  . .] ` { ] ! E 8 @ + 4 5 ; ; 8 r d q 0 0 4 0 d u 5 5 1 o ",
"V = i 9.J $.` J V J F F - o ; k ) U q w 8 7 - & 6 q 8 9 q 8 - q M f 0 # = = W | :.Q J { ` { ` $.| ` ` ` [ ` ` T ! ! c j = X + F Y.].`.Y.6.6.e.;.F Q | ! S [ M M ",
"F 2 ` z.C %. .} J } D F f X o = 2 0 l l i a F J } 5.J @ f ` C 3.} F 3.D q i 8.k.0.C { J  .` { | K ` ` { ] { d.9.D C ! l O = 5.e.w.f.V.A.| | q.9.:.:.:.| | :.' F ",
"` 4 ! M.J } #.$.$.#.D J d 1 } i.| | #.} J J C D C V M , m V V M V N M A d 8 l.q.z.C { { $.' `  .} { {  .] { %.E.[.[.5.l . Q } F C G J i.*.! T J ` ` Q ] F V F C ",
"` 1 E 5.f J  .| #.{ V J & J 3.g m M M m m M V V V V K 5 C J C F D V M F d & w.a.C.G { { { $.{ } ` G { { } ` ` V 9.9.E z + l.| J { { C C ` ..` ` C F J { M M J F ",
"' 5 - i } C $.} M f F F = C V C C C m M C C } { C F  .u J { Q G m m l F l - [ l.(.$. .{ { ` { C %.i.G ` { ` G ` $.K Q c - L.} J J C J ` ] ..] ` { J C F C F C C ",
"J 2 . V 9.F C J p b ` f 2 5.g J C V M C G V C V M V V 4 M J C C C C N F l - [ +.).d.C  .{ { C | A.{ ` ` { F 9.J | } F c : J.| J ` V C ` ] ] ` M M ` { F C J ` C ",
"} 1 + F Q [ E Q Q F ! d % 6.m T T Q ` E T ` ] ^ ] ^ X.i V J ! ~ ] ! ! ~ c 8 ] *.T.C.V { J ` J | ` { %.} { $.| J ` { [ z & l.| J { J ` Q ` ] { V { ] ] ] ` ` { J ",
"} 4 + 9 E -.-.O.O.! ! i + 0 M ! ~ ..^ ^ ) ) ) ) ^ R c > & 9 c R Y Y Y s q q ] | $X(.` ` %.| J p.k.s.d.9.} J J { ` ` | z X w.} D J $.%.`  .| { | | { ] ] ` ` ` { ",
"M @ - * d d c k x s w 2 9 & - i i s l l i l a Z i y 8 l *.z.] ! Y E d = * ; 2 I.wXC.T.E.$.J 5.{ i.i.$.} J ` { } { ` F z . F | S ] } &.` &.3.` {  . .] | | J } %.",
"< * + V f.V.N.l.:.J.n.u = p..XI.J.'.oX#X!.T.<XrXrXeX6X%XR.a.%.5.w.^ | Z = * , ;X%XT.T.{ J R.$.J J `  .{ } $.| K  .J { Z O + c ^ O.@.+.| | [  .| ] +.+.*.8.q.9.| ",
", + F i.J J F F g 4.~.# 3 T.OXrX0X7X0XeXyX<XA.x.[.&XV.| J K 9.9.| ^ [ } 9 + ; z.T.M 2 N.C.p.C ` ` ` &.=.$.9.{ J | ` m 8 * + + 2 k E R ) W U N U E c k l k q 5 $ ",
"P.0 | 0.C D D F A { J @ G.4.H B n H { d.5Xu.#.d.K H { | { { F | X.| %.{ 9 + 2 d m 9 } :Xm 9.` ` F J ` %.=.%.| ` ] Z u < @ + + O + = - 2 & = % + o 5 l A Q ;.l.x.",
"D d M :.M D D S ' } O ;./.G | J $.d.9.` m J d.4.` $.} ` C  .{ D ! Q | F 9 + = N j.{ :.x.J $.J { &.%.$.$.$.$.{ K $.i [ l + + ` x.l.c.D.G.S.F.l . h x.f.6.f.l.6.3.",
"F z + D F F { J b 1 $ J J J ` | J | J &.{ ` ` #.C ` F V } ' D J | [ D z k % - O.! ` F J ` } { $.p.%.=.3.4.%.| J C y { z + f g.D ` F F V %.8.L + :.;.h F J D J J ",
"F z + + 1 t h } 5.b + } | ` ` } ` J 9.i.` J | } D J F { F C F { $.` F z j % f [ D ` `  .K %.$.$.$.$.$.3.{ $.#.C F f { c o g S M F S V ` %.J E + :.:.A a.$.4.J Q ",
"' D > z.F 5 9.0.4.M X } $.` ` { ` { J J {  .} F C } } J F F 3.` F S F z 2 # } ! J { J J ` } { D F K | V C F C V C M F c X ' } D J F S $.*.{ ! % D :.J ' M.$X} A ",
"' g 4 &XM e.{ F ` G + J $.` ` { { ` ` J J ` J ` ` } C F D ` | F F W S V 2 = | | | 4.C C F ` F J J F V 4.J F C F S f E c $ :.J A ~ F F F V F E % 0 J h J #X| A } ",
"} A = 4 ' 9.J | ` | 4 p }  .d.` ` Q ! J F J F J J J F ` ` J F J Q E F V 2 > ' Q 3.J C J C F N #.` V 3.#.J } M 9.} f E c O } Q S [ ' F F F F W % M } h } C.} ' [ ",
"f h X 8.z.V ` ` | J y b #.J p.J C ! ] ` ` J F V | h.` F ` ` J F W E ` } - # m W C C Q V #.| V m.#.J 3.&.%.5.C i.z.Q v l . F ` M Q F ` ` { F ( 7 M 5.M A C F ` V ",
"M 1 $ 8.w.} C C m C i m | C #.3.{ ` ! C F D F N $.z.m C F J J ! W Q $.$.# 2 F Q Q C | ` d.d.(.(.#.i.%.$.| %.&.l W l = ; . } } A :.J ` J i.c ( 8 g 6.g A N F F ` ",
":.j 5 l.I 5.M D } V u n ` 9.i.} %.] Q Q F F C C F J #.9.5.5.X.~ ! $. .' = u 5.Q W W *.7.5.s.z.#.h a.[  .3.9.X.! S c 8 + . } 5.z w.| V 4.9.L / - g 6.g V D F J ` ",
"F N 9 e.F W l ~ F { M F 8.Q `  .{ ` ] ] } $.q.*.9.q.+.:.<.' Q [ [ %.s.F X 4 8.Q W E E Q ! U c E ` F J [ ! [ ` ` { W ~ , . D J z q.F Q | ,.W ~ % h 6.n S Q Q J ` ",
"' g i 0.J [ E N ~ w.G m $. .$.#.} } ] ` ` ` ` { { ` T ` [ +.| *.s.z.:.= X # w.E ! ` | ! R Q  .{ ` ' ` J J } { { ` { M 0 . M Q N w.' ! I / W W + u 3.N Q ! ` J ` ",
"A g 0 e.F 4.0.' S [ 5 h | Q E N N ` ! ` ` C G { { {  .~ [ ] [ | 9.u.V e O $ 5.] ! q.Z.m.p.5.' { 3.F ` { } } { { ` F l j . M ` W Q ` [ [ E W c + f :.Q ..! ] ` F ",
"F F 0 F C J } 3.' 3.1 t l c E ^ X.o.X.X.[ +.] ! C F T [ O.O.O.X.Q u i 6 X O f F N F { 9.h.d.#. .{ F F F J J V D M d f i 2 } [ ! E F E C N z M = 2 w.Q ` ] ! ! ` ",
"F | 1 . 1 i f f M 0 @ - = @ = q s q q 8 w 9 8 = + + = < 8 8 8 , % + + O t u - 2 6 i p f m V V C z l g V M M b f 0 9 0 + * } ;.! X.o.O.O.^ Q i + . D 6.J [ X...X."
};
