/* XPM */
static char *player_l7_resized[] = {
/* columns rows colors chars-per-pixel */
"80 80 256 2 ",
"   c #000100",
".  c #0B0800",
"X  c #091100",
"o  c #181905",
"O  c #150F0C",
"+  c #26180A",
"@  c #1A2414",
"#  c #153310",
"$  c #272607",
"%  c #3A3A02",
"&  c #242C14",
"*  c #293718",
"=  c #352E0A",
"-  c #132F32",
";  c #2F2E2E",
":  c #121826",
">  c #472A00",
",  c #413900",
"<  c #683800",
"1  c #154D14",
"2  c #344210",
"3  c #186D12",
"4  c #354924",
"5  c #36502A",
"6  c #1C6F27",
"7  c #585400",
"8  c #53450B",
"9  c #7B4901",
"0  c #745402",
"q  c #696800",
"w  c #7A6900",
"e  c #787500",
"r  c #44592C",
"t  c #4B5B2D",
"y  c #48632C",
"u  c #4A6536",
"i  c #59773A",
"p  c #536A37",
"a  c #637938",
"s  c #786F32",
"d  c #6D592B",
"f  c #183251",
"g  c #162F47",
"h  c #325255",
"j  c #347652",
"k  c #1A4473",
"l  c #24476B",
"z  c #2F5472",
"x  c #336A65",
"c  c #53544C",
"v  c #5C6948",
"b  c #5A724E",
"n  c #6A7351",
"m  c #706F6F",
"M  c #5B5D65",
"N  c #D53A30",
"B  c #C43115",
"V  c #9B5B00",
"C  c #965601",
"Z  c #895000",
"A  c #AE5E00",
"S  c #856801",
"D  c #9B6E00",
"F  c #A76402",
"G  c #B76900",
"H  c #A87402",
"J  c #BE7400",
"K  c #A36A16",
"L  c #996D27",
"P  c #CD7D00",
"I  c #C47700",
"U  c #D57800",
"Y  c #D0700A",
"T  c #E17800",
"R  c #D55327",
"E  c #D54B1B",
"W  c #E84D56",
"Q  c #8F7D59",
"!  c #239312",
"~  c #2BAD14",
"^  c #1E8F22",
"/  c #248625",
"(  c #289927",
")  c #2AA52A",
"_  c #35B72A",
"`  c #1B9113",
"'  c #558C3A",
"]  c #6C8A3B",
"[  c #47BA31",
"{  c #75A33D",
"}  c #31C531",
"|  c #4FC237",
" . c #698746",
".. c #779846",
"X. c #738555",
"o. c #708F48",
"O. c #7CA34C",
"+. c #74B956",
"@. c #7CBB56",
"#. c #74BA59",
"$. c #78BA57",
"%. c #72B653",
"&. c #798B6C",
"*. c #518544",
"=. c #71C455",
"-. c #938C00",
";. c #BA8B01",
":. c #B99816",
">. c #A7A600",
",. c #B6B500",
"<. c #B4A000",
"1. c #B08E38",
"2. c #9CA036",
"3. c #D78400",
"4. c #DA8500",
"5. c #DD8A00",
"6. c #D58A00",
"7. c #DB9601",
"8. c #C89502",
"9. c #E38C00",
"0. c #E78A00",
"q. c #F78900",
"w. c #E39300",
"e. c #EB9301",
"r. c #EB9A01",
"t. c #E59C00",
"y. c #F29600",
"u. c #F49B00",
"i. c #FC9E00",
"p. c #F89502",
"a. c #D6A900",
"s. c #CEA907",
"d. c #E9A800",
"f. c #FEA200",
"g. c #F5AC00",
"h. c #FEAC00",
"j. c #F3A500",
"k. c #EBB600",
"l. c #FEB300",
"z. c #FEBC00",
"x. c #F5B600",
"c. c #CECD00",
"v. c #D5D500",
"b. c #FEC300",
"n. c #FECB00",
"m. c #F5C700",
"M. c #FED400",
"N. c #FDDB00",
"B. c #F6D500",
"V. c #EECD08",
"C. c #FEE300",
"Z. c #FFEB00",
"A. c #F5E500",
"S. c #FEF400",
"D. c #FFFE01",
"F. c #EBEC00",
"G. c #E4CE34",
"H. c #86AB49",
"J. c #8FBA49",
"K. c #8BB549",
"L. c #93BB4D",
"P. c #83BE56",
"I. c #8BBE56",
"U. c #88BA56",
"Y. c #94BB54",
"T. c #88AC54",
"R. c #889476",
"E. c #899071",
"W. c #A8966C",
"Q. c #B0A173",
"!. c #9A9254",
"~. c #D8AC4D",
"^. c #DCB15F",
"/. c #95C24E",
"(. c #8CC156",
"). c #8CC158",
"_. c #86C258",
"`. c #95C356",
"'. c #9AC457",
"]. c #9DC955",
"[. c #94C358",
"{. c #9BC558",
"}. c #9EC95A",
"|. c #95C95B",
" X c #A1CD5B",
".X c #A0C757",
"XX c #A5D15C",
"oX c #A9D55D",
"OX c #A9D95E",
"+X c #B6CD55",
"@X c #AEDC61",
"#X c #9AD46B",
"$X c #F9D14E",
"%X c #F7CB6C",
"&X c #FFE448",
"*X c #2D5887",
"=X c #2F5A89",
"-X c #376797",
";X c #35628D",
":X c #3669A5",
">X c #3B73A9",
",X c #3E77B3",
"<X c #365EAC",
"1X c #427CB8",
"2X c #4B6F9B",
"3X c #457DC2",
"4X c #847C83",
"5X c #F17C9D",
"6X c #048EB2",
"7X c #4B8DB5",
"8X c #00BBF8",
"9X c #00BBED",
"0X c #4482C5",
"qX c #00C7FC",
"wX c #15C5EF",
"eX c #31D4FB",
"rX c #4DD9FF",
"tX c #52E8FF",
"yX c #64E0FF",
"uX c #969595",
"iX c #90908C",
"pX c #B1AA94",
"aX c #9A98A1",
"sX c #A7A6A8",
"dX c #B8B6B9",
"fX c #AFADAF",
"gX c #9BA196",
"hX c #D2B98C",
"jX c #E6AFA6",
"kX c #A4E6B0",
"lX c #F8D98E",
"zX c #FFE994",
"xX c #FFE596",
"cX c #D7CAB5",
"vX c #EDD3B1",
"bX c #FFF6AB",
"nX c #FFF4B4",
"mX c #FEE8B2",
"MX c #CACA99",
"NX c #BFBCC4",
"BX c #C1BEC7",
"VX c #FFACCA",
"CX c #A9DDE4",
"ZX c #C6C4C9",
"AX c #D7D6D9",
"SX c #D7D0CF",
"DX c #FFF5C9",
"FX c #FFF6D8",
"GX c #E1E1DE",
"HX c #E1DEE6",
"JX c #DAF4F4",
"KX c #E8E8EA",
"LX c #FDFEFE",
"PX c #F4F4F6",
"IX c #ECEFEF",
"UX c #E5DDD9",
/* pixels */
"'.'.'.'.{.{.'.'.{.{.}.'.'.{.'.'.'.'.'.'.'.'.'.Y.}.{.{.{.'.}.{.{.'.'.'.'.'.'.'.'.'.'.`.'.'.'.'.'.}.'.{.{.{.{.'.'.'.'.'.'.'.'.'.'.'.{.'.{.{.{.{.{.{.{.'.'.'.}.'.'.",
"'.'.'.'.'.{.'.{.{.{.'.{.'.'.'.'.'.'.'.'.'.'.'.'.{.{.{.'.'.I.P.'.'.'.'.'.'.'.'.'.'.'.'.'.'.'.'.'.'.'.{.{.{.{.{.'.'.'.'.'.'.[.'.'.'.{.'.{.{.{.{.{.{.{.'.}.I.P.'.'.",
"'.'.'.'.'.{.'.'.{.'.}.{.{.{.{.'.'.'.'.'.'.[.'.'.{.'.{.[.+.P.P.@.(.}.'.'.'.'.'.'.'.'.'.'.'.'.'.'.{.{.{.{.{.{.{.'.'.'.'.'.'.'.'.'.'.'.{.{.{.{.{.{.'.'.'.+.P.@.@._.",
"'.'.'.'.'.'.'.'.}.{.I.'.{.'.{.'.'.'.'.'.'.'.'.'.{.'.{.'.$.[.'.@.(.}.'.'.`.'.'.'.'.'.}.XX X'.'.'.{.{.{.{.{.{.{.'.'.'.'.'.'.'.'.'.[.{.{.{.{.'.{.{.'.'.'.@.[.{.P.).",
"'.'.'.'.{.{.{.}.).).%._.I.{.{.{.'.'.{.{.'.'.'.'.{.{.{.{.{.'.'.'.}.'.'.'.'.'.'.'.Y.XXH.i ..{.XX'.{.{.{.{.{.{.'.{.'.{.{.'.'.'.'.'.{.{.{.{.{.{.{.{.}.'.}.'.'.'.'.'.",
"'.'.'.'.{.{.{..X$.@.[.I.#.{.{.{.'.'.{.'.'.'.}.'.{.{.{.{.'.}.'.{.'.'.'.'.'.'.'.'.XXi 1 1 1 2 ..XX'.{.{.{.{.{.{.'.{.'.{.'.'.{.'.{.{.{.{.{.{.{.{.{.{.'.{.'.}.'.'.'.",
"'.'.'.'.{.{.{.{.[.[..X`.`.{.{.{.{.{.{.'.'.{.'.'.{.{.{.'.'.}.'.'.'.'.'.}.'.'.Y.oX .3 _ ( ) ^ # .. X[.{.{.{.{.{.{.{.{.'.{.}.[.'.{.{.{.{.{.}.{.{.{.{.{.{.{.'.}.'.'.",
"'.'.'.}.{.{.{.{.}.}.'.'.{.{.{.{.{.{.{.{.{.{.'.}.{.{.{.{.'.'.'.'.'.}.}.Y.'.'.}.Y.1 } _ ) / ( ^ 5 XX{.{.{.{.{.{.{.{.'.}.[.`.%.U.[.{.{.{.{.{.{.{.{.{.{.{.{.'.'.'.'.",
"{.{.{.{.{.{.{.{.{.'.{.'.'.'.{.{.{.{.{.{.{.{.'.'.{.{.{.{.{.{.{.{.{.[.).#._.I.XXt ( } ) ) ) ) 6 5  X'.{.{.{.{.{.{.{.'..XU.+.U.P.%.{.{.{.{.{.{.{.{.{.{.{.{.{.{.{.{.",
"{.{.{.{.{.{.{.{.{.{.{.{.}.'.{.{.{.{.{.{.}.{.'.}.{.{.{.{.{.{.{.{..XP.#.[.(.#.H.3 } ) ) ( / 3 1 .. X'.{.{.{.{.{.{.{.{..XI.).}.`.(.{.{.{.{.{.{.{.{.{.{.{.{.{.{.{.{.",
"{.{.{.{.{.{.{.{.{.{.{.{.{.{.{.{.'.{.{.'.'.'.'.'.{.{.{.{.{.{.{.{.}.'.[.'.Y.}.' ^ } ) ( 3 # i P._.@.Y.{.{.{.{.{.{.{.'.{.}.}.'.'.}.'.{.{.{.{.{.{.{.{.{.{.{.{.{.{.{.",
"'.'.'.'.'.'.{.{.{.{.{.{.{.{.'.'.'.'.'.'.'.'.'.'.'.{.{.{.{.{.{.{.'.'.'.'.'..Xy ( _ / 6 * Y.=.Y.`.@.).}.{.{.{.{.{.'.'.'.'.'.'.'.'.'.'.[.{.{.{.{.{.{.{.{.{.'.'.'.'.",
"{.{.{.{.'.'.'.{.{.{.{.{.{.{.{.{.{.{.{.{.{.{.].{.{.'.{.{.{.{.{.{.{.'.'.'..X@Xu ) ) / # H.OXXXoX X'.'.'.'.{.{.{.{.{.{.{.'.'.'.'.'.{.{.{.{.{.{.{.{.{.{.{.{.'.'.{.{.",
"{.'.'.'.}.'.{.{.{.{.{.{.{.{.{.'.'.'.'.{.{.{.P.(.}.'.{.{.{.'.{.'.Y.}.oX XT.i # ) ) 6 # * * 4 i O..XOX}.'.}.{.{.{.'.'.'.'.'.'.'.'.{.{.{.{.{.{.{.{.{.{.{.{.'.'.'.'.",
"'.'.{.'.'.'.$.[.{.{.{.{.{.{.{.'.'.'.'..X(.P.@._.@.{.{.{.'.'.`.'.oXY.p * 2 w < 3 6 1 > a.c.>.e % & u Y.oX}.Y.{.{.{.'.'.'.'.'.'.'.{.{.{.{.{.{.{.{.{.{.{.{.'.'.'.'.",
"'.'.'.}.@.P.@.P.@.{.{.{.'.{.'.'.'.'.'.{.P.@.'.).$.{.{.{.'.'.XX`.u $ e c.D.D.x.D e -.k.S.D.D.D.D.c.q $ r [.XX'.'.'.'.'.'.'.'.'.'.'.{.'.{.{.{.{.{.{.{.{.{.'.'.'.'.",
"'.'.[.{.U.I.}.I.P.{.'.{.{.{.'.'.'.'.'.'.'.`.'.'.'.'.'.'.'.oX] @ e F.D.D.D.N.D.D.D.D.S.D.D.m.C.D.D.D.F.e @ ] XX}.'.'.'.'.'.'.'.'.'.'.{.{.{.'.{.{.'.{.{.{.'.'.'.'.",
"'.'.'.'.'.'.'.}..X{.'.{.{.'.'.'.'.'.'.'.'.'.'.'.'.'.'.{. X5 8 v.D.D.D.D.S.N.D.D.D.D.n.z.D.N.f.b.S.S.N.D.v.% * }. XY.'.'.'.'.'.'.'.{.'.{.{.{.{.{.{.{.{.{.'.'.'.'.",
"'.'.'.'.'.'.'.'.{.{.}.'.'.{.{.'.'.'.'.'.'.'.'.'.'.'.XXY.& e D.Z.M.D.D.D.M.S.D.D.D.D.N.f.b.D.z.f.h.C.Z.l.Z.D.e @ U. XY.}.[.'.'.'.'.'.'.{.{.'.{.}.}.P.I.{.'.'.'.'.",
"'.'.'.'.'.'.'.'.{.{.[.'.{.{.'.'.'.'.'.'.'.'.'.'.'. XK.@ >.D.M.n.D.M.N.M.m.D.D.D.D.D.b.l.h.N.N.h.l.f.C.C.i.b.D.>.o H.oXY.'.'.'.'.'.{.{.{.{.'.}.I.@.@.P.$.Y.'.'.'.",
"'.'.'.'.'.{.'.}.[.`.#.(.[.'.'.'.'.'.'.'.'.'.'.`.}.T.@ ,.D.m.b.S.n.z.b.l.A.D.D.D.D.Z.l.l.h.l.A.j.h.h.f.C.B.i.h.D.,.o T. XY.'.'.'.'.'.'.{.'.'.}.[.@.{.'.@.[.'.'.'.",
"'.'.'.'.'.'.'..X@.@.I.P.#.'.{.'.'.'.'.'.'.'.'.{.Y.@ ,.D.b.x.N.M.z.n.n.k.S.D.D.D.S.b.z.l.l.f.N.k.h.h.h.f.C.g.f.j.D.,.o I..X'.'.'.'.{.{.{.{.'.'.{.}.{.{.'.'.'.'.'.",
"Y.}.'.'.'.{.'.{.I.`..X[._.'.{.'.'.'.'.'.'.'.'. X* >.D.z.x.m.C.b.b.n.x.k.N.Z.D.Z.b.z.z.l.l.f.z.m.u.h.h.f.l.B.r.f.u.D.-.*  X'.'.'.'.{.'.{.{.'.{.{.{.{.{.'.'.'.'.'.",
"'.'.'.'.{.{.{.{.{.}.'.{.}.'.{.'.'.'.'.'.'.`.oXr q D.z.b.d.B.b.b.n.M.d.m.n.b.n.b.b.z.z.l.h.h.h.m.t.h.h.f.i.n.k.e.h.f.D.7 t oX[.'.'.{.'.{.{.{.{.'.{.{.{.{.'.'.'.'.",
"'.'.{.'.'.{.{.'.{.{.{.{.{.{.{.'.'.'.'.'.'. Xo.% D.b.n.j.k.N.z.n.b.b.t.B.z.n.n.b.b.z.z.l.l.h.f.b.t.f.h.h.f.f.B.5.f.i.l.Z.$ O.}.`.'.'.'.'.'.'.'.'.{.{.{.{.'.'.'.'.",
"'.'.{.{.{.{.{.{.{.{.{.{.{.{.{.'.'.'.'.'.'.}.& c.M.z.z.7.M.z.b.b.n.x.d.M.b.b.n.b.b.z.l.l.l.h.f.z.d.u.h.f.h.i.z.k.0.h.p.M.>.* oX'.'.'.}.'.{.'.}.{.{.{.{.{.{.{.'.{.",
"'.'.'.'.'.'.'.'.{.{.{.{.{.{.{.'.'.'.'.Y.OXu q S.l.n.e.k.M.z.b.b.n.d.d.n.b.n.b.b.b.z.z.l.h.h.f.h.k.9.h.h.f.f.i.x.5.i.f.p.Z.8  ._.'.'.'.}.{.{.{.{.{.{.{.{.{.{.'.'.",
"{.'.{.{.'.'.}.'.{.{.{.{.{.{.{.{.}.'.'..XU.= A.b.b.x.4.m.z.z.b.b.b.w.x.b.b.b.b.b.z.z.l.l.l.h.f.f.x.5.h.f.f.f.i.z.7.e.f.i.b.,.* @.P.I.{.'.{.{.{.{.{.{.{.{.{.{.{.{.",
"'.'.'.'.'.'.'.}.{.{.{.{.{.{.{.'.'.'.'.oXu e C.l.b.r.w.n.z.z.z.b.z.5.z.z.z.b.b.b.b.z.l.l.h.h.f.f.g.5.j.f.f.f.i.h.d.4.i.f.i.M.2 .._.P..X'.{.{.{.'.{.{.{.{.[.'.'.'.",
"{.{.{.'.}.{.'.'.{.{.{.{.{.{.{.{.'.'.}.Y.* V.z.z.z.4.k.b.z.z.z.b.g.5.m.z.z.b.b.z.z.z.l.l.h.h.f.i.h.7.u.h.f.i.f.f.g.4.y.f.p.b.-.r oX`.{.{.{.{.{.}.{.{.{.{.{.{.{.{.",
"{.{.{.{.I.)..X'.{.{.{.{.{.{.{.{.'.'.oXi q N.l.z.j.4.x.z.z.z.z.b.d.w.z.z.z.b.z.z.z.l.l.h.h.h.f.f.f.7.e.h.f.f.f.i.l.5.0.f.f.f.a.* }.'.{.{.{.}.[.P.'.{.{.{.{.{.{.{.",
"'.{.[.P.$.P.P.[.{.{.{.{.{.{.{.{.'.[.oX4 <.b.l.z.w.5.b.l.z.z.z.b.t.w.z.z.z.z.n.z.z.z.l.l.h.h.f.i.h.5.e.h.f.f.i.f.h.7.5.i.f.f.x.% T..X'.{.{.P._.#._.U.{.'.'.'.'.'.",
"'.}.I.+.[.Y.#.`.{.{.{.{.'.'.'.[._._.I.2 m.l.z.z.4.e.z.l.l.z.z.z.9.t.z.l.z.g.a.n.l.z.l.l.h.f.f.i.f.7.9.f.f.i.f.f.f.r.3.u.f.i.l.7 o.XX[.'.{.@.P.{.P.@..X{.{.{.{.{.",
"{.'.}.`.}.{.'.'.{.{.{.{.'.}.[.%._._.*.7 n.l.d.d.5.d.z.l.l.z.z.l.5.r.z.l.z.w.C s.b.l.l.h.h.f.f.i.f.e.9.f.f.i.i.i.f.r.3.u.f.i.h.w i oX[.}.{.'.{..X{.'.{.{.{.{.{.{.",
"{.{.'.}.'.'.{.{.{.{.{.{.{.{.'.P.`.oXu S b.l.6.0 7.g.l.l.l.z.z.l.5.r.l.l.g.P + X n.z.l.h.h.f.f.i.f.w.9.f.i.f.f.i.f.e.4.y.i.i.h.S i oX'.'.'.'.{.{.{.{.{.{.{.{.{.{.",
"'.'.'.'.'.}.{.'.{.{.{.{.{.{.}.{.'.XX5 H z.g.G   w l.l.l.l.l.z.h.4.r.l.z.w.F c M 1.z.h.h.h.f.f.f.f.9.5.f.f.f.i.i.i.e.4.e.i.i.f.Z i XX[.'.}.'.'.{.{.{.{.{.{.{.'.'.",
"'.'.'.'.'.{.{.'.{.{.{.{.{.{.{.'.'.XX4 ;.z.r.K iXQ.m.h.l.l.l.l.g.4.r.l.l.I ^.LXLXJXN.h.h.h.f.f.i.i.9.9.i.i.f.i.f.f.e.3.e.f.i.f.<  .XX`.'.{.{.{.{.{.{.{.{.{.'.'.'.",
"'.'.'.'.'.{.{.'.{.{.{.{.{.{.'.'.`. X2 I z.I hXLXJX$Xh.l.l.l.l.g.4.r.l.w.F JXLXLXeXkXz.f.h.f.i.f.i.9.9.f.f.i.f.i.f.9.3.y.f.i.u.> .. X'.'.{.'.{.{.{.{.{.'.'.'.'.'.",
"'.'.'.'.'.{.{.'.{.'.}.{.{.{.{.'.'. X4 F h.H AXLXyXkXl.h.h.l.l.j.U r.l.U &.rXPXCXqXrX&Xh.f.i.i.i.i.4.9.i.i.f.i.f.f.0.4.y.f.y.P = Y.{.'.{.'.{.{.{.{.{.{.'.'.'.'.'.",
"'.'.'.'.{.{.'.'.'.}.`.P.{.{.{.'.'.oX4 V e.!.eXCXqXrXG.g.l.h.l.j.3.u.d.J 7X9X6X6XwXtX!.d.f.i.f.f.i.3.e.f.i.f.f.i.i.4.5.i.i.e.C 4  X'.'.{.{.'.{.{.{.{.{.{.'.'.'.'.",
"'.'.'.'.'.'.'.'..XU.P.$.P.U.{.'.Y.oXu 9 T n 9X6XwXrXL b.l.h.l.g.4.9.U < : 8X8XqXCXCX  e l.i.p.q.q.9.e.f.i.i.i.f.y.3.e.i.5.e.> o. X}.{.{.{.{.{.{.{.{.'.'.'.'.'.'.",
"'.Y.'.'.'.'.'.'..X@.P.{.P.P.{.{.'.XX .> I . 6XqXtXsXX a.h.g.h.h.5.6.7.S 0 2.#X#XOXs.;.a.q.E W vXjXY u.f.i.f.l.f.9.4.e.4.e.Z *  XY.'.{.{.{.{.{.{.{.{.'.'.'.'.'.'.",
"'.'.'.'.'.{.'.'.{.{.{..X{.{.{.{.'.{.U.8 Y K :.G.:.s.a.x.h.h.h.h.e.5.l.b.z.h.h.h.l.h.h.T N W W VXjXN f.f.f.b.M.u.4.5.4.e.I o U.}.'.'.'.{.{.{.{.{.{.{.'.'.'.'.'.'.",
"'.'.'.'.{.{.'.{.{.{.{.{.{.{.{.{.'.'.L.E W VXjX0.p.T i.f.h.f.j.j.6.J P 6.g.f.e.H 9 ;.l.T B N W N E T f.i.f.n.l.5.4.3.e.I + .. X'.'.{.{.{.{.'.{.{.{.{.'.'.'.'.'.'.",
"'.'.'.'.'.{.'.{.{.{.{.{.{.{.{.Y.{.{.'.K N W R U 9 ;.u.f.Z o + o . .   o m.h.3..   a.f.f.0.T U U 4.i.i.i.f.f.5.4.5.r.F + ] oXY.'.'.{.'.{.'.'.'.'.{.'.'.'.'.'.'.'.",
"'.{.{.'.{.{.{.{.{.{.{.{.{.{.{.{.{.{..X{.1.+ F y.Z w D V >             . > = . $ s.l.i.f.f.f.u.4.e.i.f.i.e.4.5.e.4.< & O.oX`.'.'.{.{.{.{.'.}.'.}.{.'.$._.'.'.'.'.",
"'.'.'.{.{.{.{.{.{.{.{.{.{.{.{.{.{.{.'.'.XXo.O C u.H +                       7 k.h.i.i.f.i.e.4.9.i.p.e.5.9.y.P Z $ t '. X'.'.'.'.{.{.{.{.'.'.'..X@.@._.P.%.'.'.'.",
"{.{.{.{.{.{.{.{.{.{.{.{.{.{.{.{.{.{.{.{.[. XH.& > J r.H 8 o         o % w 8.z.f.f.f.i.u.9.4.4.e.e.e.0.5.G < = 5 T.oX'.'.'.'.'.'.{.{.{.{.'.}.'.}.).(..X`.P.{.{.{.",
"{.'.{.'.'.'.{.{.{.{.'.'.{.{.{.'.'.'.'.'.'.Y.}. Xi & > V 6.t.7.8.;.8.d.u.y.0.0.y.u.p.y.0.e.e.e.3.I Z < = * -  .Y. XY.{.{.Y.{.{.{.{.{.'.@.'.}.}.'.{.'.}.'.{.{.{.'.",
"{.'.'.{.{.{.{.{.{.[.'.'.{.{.{.{.{.'.'.{.{.}.'.'.XX}. .4 + = < Z V G G I I P P I G G F V Z < > $ @ g # ' | | [ # y XX{.{.{.{.{.{.{.P.P.@.P.@.{.'.'.}.{.{.{.{.'.{.",
"{.{.{.{.{.{.{.[.[.#.I.[.'.{.{.{.{.{.{.{.}.{.[.`.'.'.XXXXY.T.' 5 4 * * = = & o o # # # - - 3 ^ ~ j <X6 _ _ ~ ` u E.Y.{..X{.{.{.{.{.@.I.{._.P.{.'.{.{.{.{.{.{.{.{.",
"{.'.{.{.{.{..XP.$.I._.#.{.{.{.'.{.'.{.'.Y.).+.P.(.'.'.`..X XoXoXoXXX}.'.'.U.t 1 ~ ~ _ -Xx | | _ j =X3 ~ ~ ! y mXDXMXY.Y.{.'.{.{.{.{.'.'.'.'.'.}.{.{.{.{.'.'.{.'.",
"'.{.'.'.{.'.{.[.).}.'._.'.{.{.{.'.'.'..XP.+.[.I.+.[.{.{.{.'.'.'.Y.'.'.{.{.T.cXcXy ! ! ;Xh ~ ~ ~ j :X1 3 ! 3 n zXlXmXUXT.'.'.'.'.'.'.'.{.{.{.{.{.{.{.{.'.'.{.'.'.",
"{.{.{.{.{.{.{.{.}.{.{.{.'.{.{.{.{.{.}.'.'.I.}.[.).'.{.{.{.{.'.'..X}.{.'.).vXmXnXW.3 3 ;Xz ~ ~ ~ 6 <X6 3 # 1 8 ~.lXxXFXcXH. X'.{.'.}.{.{.{.{.{.{.{.{.{.{.{.{.{.{.",
"{.{.'.{.{.'.{.{.'.}.{.{.{.{.{.'.'.{.{.'.{.{.{.{.}.{.{.{.{.{.{.}.}.}.'.O.SXnXxX$X1.* 2 z =X5 j j h 2Xx x z g ' 2.$XlXpXuXv Y.{.{.'.'.{.{.{.{.{.{.{.{.{.{.{.{.'.{.",
"'.'.{.'.'.{.{.{.'.'.{.{.{.{.{.{.{.'.'.'.{.'.'.'.'.{.{.{.{.{.{.{.'.[.=.&.FXmXxX~.]  .H.5 m =X1X1X:XM M :X-Xh /.T.1.W.ZXIXHXX.`.).{.{.'.{.{.{.{.{.{.{.{.{.'.'.{.'.",
"'.'.'.'.'.'.'.{.'.'.{.{.{.{.'.'.'.'.Y.'.'.'.'.'.'.'.}.'.'.'.{.{.).$.K.b sXW.^.1.H.XX'.h *Xz -X>X;Xl =X>X;Xl ..oXp BXLXLXLXdX{ $._.).}.'.{.'.{.{.{.{.{.{.'.'.'.'.",
"'.'.'.'.{.{.'.'.'.}.{.{.{.{.'.'.'.'.'.'.'.'.'.'.'.'.'.'.'.}.{.{.{.(.X.AXPXKXuXs  XY.XXn ,X-X,X1X-Xz 0X:X;Xf ] @X .dXKXNXgXiX..].$.P.}.'.{.{.{.{.{.{.{.'.'.'.'.'.",
"'.'.'.'.'.{.'.{.'.{.{.{.{.{.{.'.'.'.'.'.'.'.'.'.'.'.'.'.'.{.'.'.}.K.gXLXPXLXKXX./.XXH.h ;X-X7X0X>Xl >X-X1X1Xz H.J.E.dXQ.lXhX&.Y.{.[.{.{.{.'.{.{.{.{.'.'.'.'.'.'.",
"'.'.'.'.'.{.'.{.'.{.{.{.{.{.'.'.'.'.'.'.'.'.'.'.'.'.}.'.'.{.}.'.}.J.&.sXW.dXBXa oXH.h 3X*Xl *Xz z *X-X*X>X1X3Xx a SXSXQ.hXpXZXo..X{.{.{.'.{.{.{.{.{.'.'.'.'.'.'.",
"'.'.'.'.'.{.'.'.{.{.{.{.{.{.{.'.'.'.'.'.'.'.'.'.'.}.'.'.'.{.{.'..XT.E.lXxXW.HXsXn c 0X7X,Xk l k *X*Xf k :X,X0X>XfXIXGXSXAXLXLXgXJ.{.{.{.{.{.{.{.{.{.{.{.'.'.'.'.",
"'.'.'.'.'.'.'.{.{.{.{.{.{.{.'.'.'.'.'.'.'.'.'.'.'.'.'.'.'.{.{.{.].E.pXpXpXfXKXLXuXk 0X1X>X;X; ] b *.i h =X>X,Xk m m &.LXIXHXKXR.K.{.'.{.{.{.{.{.{.{.{.'.[.'.'.'.",
"'.'.'.'.'.}.'.[.'.{.{.{.{.{.{.'.'.[.'.'.'.'.'.'.'.{.{.{.'.{.{..X/.R.LXIXIXLXsXM n c h >X-Xf ] @X X.XoX] f :Xf Q n ^.iXSXBXdXm X.}.'.'.{.{.[.{.{.{.{.{.{.'.'.'.'.",
"'.'.'.'.'.[.(.#.[.[.{.{.{.{.'.'.'.'.'.'.'.'.'.'.'.{.{.'.{.{.{..X/.R.PXIXGXIXgXQ.!.vX!.f k i XX'.'.'.'.XXv g 8 xXdXd ZXdXc &.{ '.{.{.'.{.{.{.{.{.{.{.{.'.'.'.'.'.",
"'.'.'.'.{.%.U._.$.@..X{.{.{.{.'.'.'.'.'.'.'.'.'.'.{.'.}.'.'.'.{..Xo.uXsXZXiXPXgXd DX^.= 4 }.[.}.{.{.{.}.Y.4 s lXDXiXc X.K./. X'.'.}.{.{.{.'.}.'.'.{.{.'.'.'.'.'.",
"'.'.}.'.{.I.[.}.[.I.{.{.{.{.{.{.{.{.{.'.'.'.'.'.'.'.'.'.'.'.{.'.'.}...v n p R.M MXnX~.a Y.{.Y.}.{.{.{.{.}.}.L %XDXcX{ ].{.'.'.{.'.'.'.{.'.{.'.'.'.'.{.}.'.'.{.{.",
"'.'.'.'.{.{.{.{.{.{.{.{.{.{.{.{.{.'.'.{.'.'.'.'.'.'.'.'.{.{.{.{.{.{. X X'. XH.n FXxX1.H.XX'.{.{.{.{.{.{.'.}.] ^.bXcX.. X'.'.'.'.'.{.{.{.{.{.{.{.}.'.@.).'.'.'.'.",
"'.'.'.'.{.{.{.{.{.{.{.'.{.{.{.{.{.{.{.{.'.}.'..X'.[.}.}.{.{.{.{.{.{.{.{.}.}.J.pXFXxX1.T. X{.{.{.{.{.{.{.'.}.{ ~.bXFXE..X'.'.{.{.'.'.{.{.{.'.'..XP.@.@.U.#.'.{.{.",
"'.{.{.{.{.{.{.{.{.{.{.'.{.{.{.{.{.{.{.{.'.{.'.).P.+.I.[.{.{.{.{.{.{.{.{.Y. X{ R.vX~.2.U.Y.{.{.{.'.{.'.'.'.}.T.s W.pXv J.}.'.'.'.}.'.'.'.{.{.'.}.I.P..X[.@.'.{.{.",
"{.{.'.{.{.{.{.{.{.{.}.'.'.{.{.{.'.'.{.{.{.{.[.#.(.[.#.P..X{.{.{.{.'.{. XXXL.E.dXdXfXn '.{.{.{.{.'.'.'.}.'. X] fXIXSXSXn /.'. X}.'.{.'.'.{.{.{.{.}.{.'.{.}.'.|.{.",
"{.{.{.{.{.{.{.{.{.{.{.{.{.{.'.{.{.{.{.{.{.{.'.I.'..X[.[.{.{.{.{.'. XY.] a r M KXAXHXm L..X{.{.{.}.{.'.'.{..XH.m 4Xm c ; n n a Y.{.{.}.}.'.{.{.{.'.{.{.{.{.{.{.{.",
"{.'.{.{.{.{.{.{.{.{.{.{.{.'.'.'.{.{.'.{.'.{.{.}.{.'.{.{.{.{.{.{..XK.v fXHXHXuX; & ; ; K.}.[.P.@.'.'.}.{.{..Xo.; ; : c AXLXLXBXv K. XY.}.{.{.{.{.{.{.{.{.{.'.'.{.",
"'.'.'.'.'.{.{.{.{.{.{.{.'.}.'.'.{.'.{.'.'.{.'.'.'.'.{.{.{.{.{.{.(.v HXLXLXLXLXdX; ; uXX./.#.I.P.+.I.}.'. XH.iX4X@ M IXIXLXLXLXAXu (.+.(.[.'.'.'.{.{.{.{.{.'.'.{.",
"{.{.{.{.{.{.{.{.{.{.{.{.}._.`..X{.{.{.{.{.{.{.{.'.}.{.'.{.{.{.XXo.fXLXLXLXLXKXPXiX@ M m J.P.[.{.U.`.'.'..XH.c ; ; BXKXKXPXLXLXLXuXo.)._.%..X'.'.{.{.{.{.{.{.{.{.",
"'.'.{.'.{.{.{.{.{.{.{.)._.@.P.P.[.{.'.'.{.'.'.{.'.{.{.'.{.{.{. Xp iXsXsXsXsXuXuXiXO   o Y.}.'.'.}.'.'.'. Xo.O @ c uXiXiXuXuXuXsXm i XX[.I.}.}.'.{.{.{.{.{.{.'.'.",
"'.'.'.'.{.{.{.{.{.{..XI.+.[.[.+.{.{.'.'.'.[.'.'.'.'.}.'.{.{.{.`.c aXcXfXsXsXsXfXfXfXfXM ] oX'.{.'.'.'.'..Xv uXZXBXdXdXdXdXdXZXAXuXu XX'.}.'.'.'.{.{.{.{.{.'.'.'.",
"'.'.'.'.'.'.{.'.{.{.{.{.'.'.'.[.'.'.'.'.'.'.'.'.'.{.{.{.'.{.{.'.v E.iXR.R.R.R.R.iXE.E.v .. X{.'.'.'.{.{. Xo.v  .n n X.X.X.n X.X.n o.}.'.'.'.}.'.{.{.{.{.{.{.'.'.",
"'.'.'.'.'.'.'.{.{.{.{.{.'.'.{.'.'.'.[.'.'.'.'.'.{.{.{.'.'.{.{.{.'.Y./.J.J.J.J.L.K.K.L.Y.{.{.}.'.'.'.{.{.'. X}.}..X.X]./.].].]./.]..X'.}.'.'.'.'.{.{.{.{.{.'.'.'.",
"'.'.'.'.'.'.'.'.{.{.{.{.'.{.'.'.'.'.'.'.'.'.'.'.'.{.{.{.{.{.{.{.{.}.}.}.{.{.{.{.{.{.{.{.'.'.'.'.'.'.'.{.}.'.'.'.'.'.'.'.'.'.'.`.'.'.'.'.}.'.'.'.{.{.{.'.'.'.'.'.",
"'.'.'.'.'.{.{.{.{.{.{.{.{.'.{.'.'.'.'.'.'.'.'.'.{.{.{.{.'.{.{.{.Y.{.{.{.{.Y.'.'.{.'.'.{.'.'.'.'.}.'.{.{.'.'.'.'.'.'.'.'.].'.'.'.'.'.'.'.'.'.}.'.{.{.{.{.'.'.'.'."
};
