/* XPM */
static char *player_l6_resized[] = {
/* columns rows colors chars-per-pixel */
"80 80 256 2 ",
"   c #010100",
".  c #070900",
"X  c #1B1A08",
"o  c #15130E",
"O  c #291600",
"+  c #261914",
"@  c #1C2815",
"#  c #12290F",
"$  c #2B2504",
"%  c #362906",
"&  c #353704",
"*  c #232C15",
"=  c #283618",
"-  c #31360D",
";  c #121A25",
":  c #2E2E2D",
">  c #222A2A",
",  c #492C01",
"<  c #483600",
"1  c #553500",
"2  c #522E00",
"3  c #6C3800",
"4  c #185716",
"5  c #0F490E",
"6  c #2F4716",
"7  c #196E13",
"8  c #354926",
"9  c #3A5528",
"0  c #325535",
"q  c #366C33",
"w  c #237223",
"e  c #484602",
"r  c #554E04",
"t  c #794600",
"y  c #645900",
"u  c #745000",
"i  c #6B6800",
"p  c #7A6600",
"a  c #797600",
"s  c #42592A",
"d  c #455436",
"f  c #5B7538",
"g  c #4F6A35",
"h  c #6F7633",
"j  c #6D5D22",
"k  c #1B3656",
"l  c #162F47",
"z  c #304E58",
"x  c #2E6D51",
"c  c #174B78",
"v  c #2A5071",
"b  c #357261",
"n  c #51554C",
"m  c #5A7446",
"M  c #5C6D4B",
"N  c #6C7759",
"B  c #6A7448",
"V  c #6F6F6F",
"C  c #545D63",
"Z  c #CE341C",
"A  c #965500",
"S  c #875000",
"D  c #957000",
"F  c #B46B00",
"G  c #BA6B00",
"H  c #B27303",
"J  c #9D5E1C",
"K  c #D75C0C",
"L  c #C97900",
"P  c #D77702",
"I  c #D16902",
"U  c #E4562C",
"Y  c #88764C",
"T  c #E94656",
"R  c #E75D5B",
"E  c #B82C29",
"W  c #188A13",
"Q  c #2AA917",
"!  c #2CB013",
"~  c #1C9325",
"^  c #289826",
"/  c #29882B",
"(  c #2CAD2C",
")  c #259714",
"_  c #69883A",
"`  c #728B39",
"'  c #7AA13D",
"]  c #43A134",
"[  c #32C932",
"{  c #4AC431",
"}  c #6B8846",
"|  c #759847",
" . c #738557",
".. c #749051",
"X. c #7BA549",
"o. c #74B956",
"O. c #7CBB56",
"+. c #74BA58",
"@. c #7ABA57",
"#. c #71B553",
"$. c #77896D",
"%. c #52A14D",
"&. c #7BC25E",
"*. c #969500",
"=. c #948602",
"-. c #B29600",
";. c #ABAA00",
":. c #BDBD00",
">. c #A78E33",
",. c #90893D",
"<. c #D68300",
"1. c #DA8500",
"2. c #DC8900",
"3. c #D48901",
"4. c #DD9401",
"5. c #C88A01",
"6. c #E48C00",
"7. c #E78900",
"8. c #E49400",
"9. c #EC9300",
"0. c #E39A00",
"q. c #F29500",
"w. c #F49B00",
"e. c #FC9D00",
"r. c #FB9500",
"t. c #FC8903",
"y. c #CDAC00",
"u. c #ECA400",
"i. c #E8A700",
"p. c #F3A400",
"a. c #FEA200",
"s. c #F3AC00",
"d. c #FEAB00",
"f. c #ECB900",
"g. c #FEB400",
"h. c #FFBC00",
"j. c #F4B800",
"k. c #E8B71C",
"l. c #D8A037",
"z. c #D2CB00",
"x. c #FEC300",
"c. c #FECB00",
"v. c #F3C900",
"b. c #FED400",
"n. c #FDDB00",
"m. c #F4DB00",
"M. c #F4C806",
"N. c #FEE200",
"B. c #FDEA00",
"V. c #FEF400",
"C. c #FEFE00",
"Z. c #F6FB00",
"A. c #E9E900",
"S. c #94825D",
"D. c #AE9050",
"F. c #85A849",
"G. c #8FBA49",
"H. c #8BB44A",
"J. c #92BD4D",
"K. c #83BE56",
"L. c #8ABE56",
"P. c #86BA56",
"I. c #92B953",
"U. c #87AC50",
"Y. c #889376",
"T. c #8E8F6E",
"R. c #AB986C",
"E. c #A4A867",
"W. c #D3AC4D",
"Q. c #E8B753",
"!. c #C9A975",
"~. c #F0A278",
"^. c #8CC156",
"/. c #8CC158",
"(. c #85C258",
"). c #94C356",
"_. c #9AC457",
"`. c #95C358",
"'. c #9BC558",
"]. c #9DCA5A",
"[. c #9AC956",
"{. c #96C34E",
"}. c #A2CD5B",
"|. c #A0C957",
" X c #A5D15C",
".X c #A9D65D",
"XX c #ABD85E",
"oX c #AADA61",
"OX c #B4E164",
"+X c #FDD16F",
"@X c #EADE54",
"#X c #2D5988",
"$X c #345C84",
"%X c #2C5792",
"&X c #366698",
"*X c #3B73AA",
"=X c #3A71AE",
"-X c #375EAB",
";X c #427CB9",
":X c #68778F",
">X c #457EC5",
",X c #847C83",
"<X c #4581BB",
"1X c #43A6A4",
"2X c #51D8B4",
"3X c #009DDB",
"4X c #0096CF",
"5X c #02B9F0",
"6X c #08A7CF",
"7X c #4584C5",
"8X c #7BAACE",
"9X c #00C7FD",
"0X c #16CEFF",
"qX c #5EE8FF",
"wX c #6EE6FF",
"eX c #4ED3DD",
"rX c #349CB2",
"tX c #969696",
"yX c #908F8D",
"uX c #A49E91",
"iX c #AEAA8E",
"pX c #A8A7A8",
"aX c #B0ADB5",
"sX c #B7B5B8",
"dX c #B1B1AD",
"fX c #9A9A99",
"gX c #CDBC8E",
"hX c #EEA4A3",
"jX c #D1C597",
"kX c #F3D58D",
"lX c #FFE993",
"zX c #FFE496",
"xX c #D2CAB8",
"cX c #FFF3B4",
"vX c #FFF8BD",
"bX c #FBECAA",
"nX c #E7D0AA",
"mX c #BDBBC0",
"MX c #83B9D4",
"NX c #C1BEC5",
"BX c #FFB8D4",
"VX c #98F0F6",
"CX c #9FEAEB",
"ZX c #C6C5C9",
"AX c #D9D9DC",
"SX c #CECDD0",
"DX c #FFF5C5",
"FX c #FFF8D8",
"GX c #F7EDC6",
"HX c #E1DEE5",
"JX c #DDEDF0",
"KX c #E8E8EA",
"LX c #FEFDFE",
"PX c #F5F6F6",
"IX c #F3F3EF",
"UX c #95DB9D",
/* pixels */
"_._._._.'._.'.'.'.'._.'.'.'.'._._._._._._._._._._._._._.'.'.'.'.'.'._._._._._._._._._._._._.'.'.'.'.'.'.[.'.'.'._._._._._._._.)._._._.'.'.'.'._._._.'._._._._._.",
"_._.K.^.[._.'.'.'.'.'._.'._._._._._._._._._._._._._.'.'.'.'.'.'.'.'.'._.`._._._._._._._._._.'.'.'.K.^.'._._.'.'._._._._._._._._._._.'.'.'._.'._.'._.'.'.'.'._._.",
"L.@.O.K.+.[.'.'.'.'.'.'.'._.'._._._._._._._._._._._.'.'.'.'.'.'.'._._._._._._._._._._._._.'.}.^.@.O.P.o.`._._._._._._._._._._._._._._._.'.'.'._.'._._._.'.'._.'.",
"^.K.'.`.O._.'.'.'.'.'.'.'.'._._._._._._.`._._._.'.'.'.'.'.'.'.'.'.'.'._._._._._.|.I.|.|._.I.|.L.O._.).O._.'.'.'._._._._._._._._._.'._.'.[.^.[.|._._.'.'.'._._.'.",
"_._._._.'._.'.'.'.'.'.'.'.'.'.'._._._.'._.'.'._._.'.'.'.'.'.'.'.'.'.'.'._._._._.[.|.F.U.|. X_._.'._._.'.'.'.'.'.'._.'._._._._._._.'.'.^./.o././.|.'.'.'.'.'.'.'.",
"_._.'.'.'._.'.'.'.'.'.'.'.'.'.'._._.'._.'._.'._._._.'.'.'.'.'.'.'.'.'.'._._._.'._.9 4 4 8 _ }._.'.'.'._.'.'.'.'.'.'._.'._._._._._.'._.@.(.`.O.O.|.'.'.'.'.'.I.'.",
"_.'.'.'.'.'.'.'.'.'.'.'.'.'.'._._.`.`.[._.'.'.'.'.'.'.'.'.'.'.'.'.'.'.'.'.'.).}.9 ~ ( ^ ~ # f ]._.'.'.'.'.'.'.'.'.'.'.'._.'._.'.'.'._.).`.'.`.`._.'.'.'.'.'.'.'.",
"[.'.'.'.'.'.'.'.'._.'.'.'.'.'.'.).L.@.).`.'.'.'.'.'.'.'.'.'.'.'.'.'.'.'.'.`. Xh 7 [ ( ~ ^ ^ 6 U.]._.'.'.'.'.'.'.'.'.'.'.'.'.'.'.'.'.'.'.'.'.'.'.'.'.'.'.'.'.'.'.",
"'.'.'.'.'.'.'.'.'.'.'.'.'.'.'.'.#.K.L.@.K.'.'.'.'.'.'.'.'.'.'.'.'.'.'.'._.|.I.6 [ ( ( ( ^ ( 4 F.}._.'.'.'.'.'.'.'.'.'.'.'.'.'.'.'.'.'.'.'.'.'._.'.'.'.'.'.'.'.'.",
"'.'.'.'.'.'.'.'.'.'.'.'.'.'.'.'.^._._.^.`.'.'.'.'.'.'.'.'.'.'.'.(./.].'._.}.f ~ [ ( ^ ^ ~ 4 9 [.'.'.'.'.'.'.'.'.'.'.'.'.'.'.'.'.'.[.'.'.'.'.'.'.'.'.'.'.'.'.'.'.",
"'.'._.'.'.'.'.'.'.'.'.'.'.'.'.'.'.'.'.'.'._._.'.'.'.'.'.'.|.^.O.@.K.@.`.'.|.9 ( ( ( ~ 5 = _ ].'.'.'.'.'._.'.'.'.'._.'.'.'.'.'.'.'.'.'.'.'.'.'.'.'.'.'.'.'.'.'.'.",
"_._._.`.'.'.'.'.'.'.'.'.'.'.'.'._._._._._._._._.'.'.'.'.'.'./.@._.).@.).[.H.7 [ ( / 5 s '.}._.'.'.'.'.'.'.'._._._._._._._.'._._._._.'.'.'.'.'.'.'.'._._._._._._.",
"'.'.'.'.'.'.'.'.'.'.'.'.'.'.'.'.'.'.'.'.'.'.'.'.'.'.'.'.'.'.'.'.[._._.). XF.w ( / 7 9 OX.X X].)._._.'.'.'.'.'.'.'._.'._.'.'.'.'.'.'.'.'.'.'.'.'.'.'.'.'.'.'.'.'.",
"'._.'.'.'.'.'.'.'.'.'.'.'.'.'.'._._._._._._._._.'.'.'.'.'.'.'.'._._. X X`.h 7 ( / 4 = 9 s } U.]..X]._.'.'._._.].).L.[._.'._._._._.'.'.'.'.'.'.'.'.'.'.'._._._._.",
"_._.'.'.'.'.'.'.'.'.'.'.'.'.'.'._._._._.'._._.'.'.'.'.'.'.'.'.'. X}.} 8 = , # ^ w # u -.*.y & = d U. X}._._._.O.K.@.P.(.'.'.'.'._.'.'.'.'.'.'.'.`.@._.'._._.'._.",
"_._._._.'.'.'.'.'.'.'.'.'._.'._._._._._._._._._.'.'.'.'.'.'.}. Xf = r ;.A.c.D 6 6 p v.C.C.C.C.z.a - = F..X'.).@.).`.@.L.|.)._._._._.'.'.'.'._.@.K.@.K.@.'._._._.",
"_._._._._.'.'.'.'.'.'.'.'.'.'._._._.'._._._._._._.[._.^.|.XX| * y z.C.C.C.B.C.V.V.C.C.C.n.n.C.C.C.Z.*.$ 8 `. X).`._.I.'.'.'._._._.'._.'.'.'.'.L.^.'.^.L._._._._.",
"_._._._._.'.'._.'.'.'.'.'.'.'._._._.)._._._._._.'.(.K.+.].9 & :.C.C.V.C.N.N.C.C.C.V.h.B.C.g.h.N.C.B.C.C.a X | oX)._._._.'.'._._._._._.'.'.'.'.'._._._._._._._._.",
"`._._._.'.^.L.[.'.'._.'.'.'.'._._._._._._._._._.`.#.`.L.= y C.C.B.C.C.C.n.C.C.C.C.C.h.d.V.N.a.d.c.V.x.c.C.z.$ g .X_._.'._._._._._.'._.'.'.'._.'._._._.`._._.)._.",
"_._._.).@.K.O.@.).[.'.'.'.'.'.)._._._._._._._._.`.].I.* *.C.n.b.V.B.V.c.N.C.C.C.C.V.g.d.h.V.g.g.d.x.V.h.s.V.Z.< 9 }._._._._._._._.'._.'.'.`.[.'.'.'._._._._._._.",
"_._._.).@.`.'.O.).'._.'.'.'._._._._._._._.).'.I.|.I.@ ;.C.v.c.V.c.h.x.j.V.C.C.C.C.b.g.g.a.n.v.a.g.a.h.V.s.e.b.C.r 8  X_._._._._._.'._.).^.o.).`.'.'.'._._._._._.",
"_._._._.'.'.'.[.'.'._.'.'._.'._._._._._._._.'.|.`.@ ;.C.x.g.B.b.x.c.x.j.C.C.C.C.V.h.g.g.d.g.m.p.d.d.a.x.m.w.a.x.C.e s .XI.'._._._.'._.o.K.^.@.O.|.'.'._._._._._.",
"_._._._.'.'.'.'.'.'.'.'.'._.'._._._._._.'.'.'.}.= *.C.x.j.v.N.x.c.c.s.v.N.C.C.V.x.h.g.g.g.a.b.i.d.d.d.e.b.f.w.a.x.C.& f  X_.'._._._._.^.`.|.)./.'.'.'.'._._._._.",
"_._._.'.'.'.'.'.'.'._.'.'.'.'._.)._._._.`.'..Xs i C.x.x.i.N.x.x.x.c.i.N.x.b.b.x.x.h.g.g.d.a.x.f.w.d.d.a.a.n.0.a.e.c.A.X F.]._._._.'.'.'.'.'.'.'.'.'.'._._._._._.",
"_._._._.'.'.'.'.'.'.'.'.'._.'._.'._._._._. X| & C.x.c.u.v.b.h.x.c.j.i.b.x.c.x.x.x.h.g.g.d.d.d.v.9.d.d.d.e.h.f.9.d.r.N.;.* }.`._._.'.'.'.'.'.'.`._.'.'.'.'._._._.",
"_._._._.'.'.'.'.'.'.'.'.'.'.'.'._._._._.].[.@ z.n.h.j.0.n.x.x.x.b.u.f.c.x.c.c.x.x.h.g.g.d.d.a.h.8.d.a.a.a.e.c.4.w.a.r.V.r f .X`.'.'.'.'.'.'.'.'.'.'.'.'._.'.'.'.",
"_._.'.'.'.'.'.'.'.'.'.'.'.'.'._.O.).|.I..Xd a V.g.c.9.f.c.h.x.x.c.8.j.x.x.c.c.x.h.h.g.g.d.d.a.h.4.p.d.d.a.a.g.i.7.a.e.g.z.* ).'._.'.'.'.'.'.'.'.'.'.'.'.'._._.'.",
"'._.'.'.'.'.'.'.'.'.'.'._.'.^.K.+.L.K.}.P.$ B.x.x.j.2.b.h.x.x.x.h.4.c.x.x.x.x.x.h.h.h.d.d.d.a.d.i.9.d.a.a.a.a.j.1.w.a.r.n.i g .X_.'.'.'.'.'.'.'.'.'._.'.'.'.'.'.",
"'.'._._.'.'.'.'.'.'.'.'._.|.K.O.'.^.o..Xs =.N.g.x.8.i.c.h.x.x.x.s.4.x.h.x.x.x.x.h.h.g.g.d.d.a.a.i.6.d.a.a.a.e.h.0.6.a.e.d.z.* '._.'.'.'.'.'.'.'.'.'._.).'.'._._.",
"'.'.'.'.'.'.'.'.'.'._._.'.'._.'.'._.[.I.- m.h.h.g.1.j.h.h.h.x.x.u.0.x.h.h.x.x.h.h.h.g.g.d.d.a.a.s.2.a.d.a.a.e.a.i.1.e.a.r.c.e | }._.'.'.'.'.'.'.'.'.'.'.'.'.'.'.",
"'.'.'.'.'.'.'.'.(.`.'._.'.'._.'.'._..Xg i n.g.x.u.3.x.h.h.h.h.x.8.u.x.h.h.h.x.h.h.g.g.d.d.d.a.a.s.2.a.a.a.a.e.a.s.<.q.a.e.g.=.s oX_.'.'.'.'.'.'.'.|.).L.'.'.'.'.",
"_._._._.'._.L.K.+.L.(.'.'.'._._._._.|.8 y.x.j.h.6.8.x.g.h.h.h.x.6.i.h.h.h.x.x.h.h.h.g.g.d.a.a.a.a.3.w.d.a.e.a.e.d.3.6.a.e.a.y.= |._.'.'.'.'.'.'.`.O.K.@.K.)._.'.",
"'.'.'.'.'.'.@.P.'.L.@.|.'.'.'.'.'.].F.6 b.g.h.d.1.i.h.h.h.h.h.h.2.u.h.h.h.s.v.x.g.g.g.d.d.d.a.e.a.2.9.d.a.a.e.e.d.6.6.e.a.e.s.- U.|.I.'.'.'.'.'.'.+.L.'.@.L.'.'.",
"'.'.'.'.'.'.'.'.].].I.'.'.'.'.'._..Xh i c.g.s.s.1.s.g.g.g.g.h.g.1.p.g.g.h.3.H v.h.g.g.d.d.a.a.e.a.2.9.a.e.a.a.e.a.8.1.r.a.e.d.e %.'.|.'.'.'.'.'.'.'.'.'.`.'.'.'.",
"'.'.'.'.'.'.'.'.'.'.'.'.'.'.'.'._..X9 =.x.g.L -.6.s.g.g.g.h.h.s.1.s.g.h.s.L O i b.d.g.d.d.a.a.a.e.2.8.a.a.e.a.e.a.8.1.w.a.e.d.r %.|.'.'.'.'.'.'.'._.'.'.'.'.'.'.",
"'.'.'.'.'.'.'.'.'.'.'.'.'.'.'.'.'.}.8 5.h.g.F $ 4.d.g.g.g.g.h.s.<.p.g.g.4.A + : y.g.d.d.a.a.a.a.a.2.8.a.e.a.e.a.a.6.1.w.a.a.a.1 | }.'.'.'.'.'.'.'.'.'.'.).'._.'.",
"'.'.'.`.'.'.'.'.'.'.'.'.'.'.'.'._.'.6 i.g.u.S ; =.h.g.g.g.g.g.p.1.p.g.s.G !.PXPXbXx.s.d.a.a.a.e.e.2.6.a.e.e.a.e.a.6.1.q.a.a.r., X.}.'.'.'.'.'.'.'.'.'.'.'.'._._.",
"'.'.'.'.'.'.'.'.'.'.'.'.'.'.'.'._.`.- 0.h.<.!.LXGXj.d.d.g.g.g.p.1.p.g.6.H LXLXJXqX@Xd.a.d.a.e.a.r.2.9.a.e.a.e.a.a.6.1.w.a.e.1.$ H.].'.'.'.'.'.'.'.'.'.'.'.'._._.",
"'.'._._.'.'.'.'.'.'.'.'.'.'.].I._.K.- 9.g.G IXLXwX@Xd.g.d.g.g.p.P p.d.L $.CXLXCX9XCXM.a.a.a.e.a.e.1.8.a.a.e.a.e.e.2.3.e.a.r.F = |.'._.'.'.'.'.'.'.'.'.I._._._._.",
"'.I._._.'.'.'.'.'.'.'.'.'.'.'.|.).o.= <.e.Y VXLX9XCXh.s.g.d.g.p.P p.9.I eX5X1X6X9XqXW.g.e.a.e.e.w.<.9.e.e.a.a.a.q.2.6.a.w.q.3 g  X_.[.'.K._.'.'.'.'.'.'._._._._.",
"'._.)._.'.'.'.'.'.'.'.'.'.'.'.'.).[.= G P $.9XrX5XqXk.d.d.g.g.p.<.9.3.3 c 9X6X5XVXMX  -.g.a.a.t.9.3.q.a.a.e.e.a.q.<.9.e.2.<.O U.|.'./.(.+.K.K.'.'._.'._._._._._.",
"_._._._.'.'.'.'.'.'.'.'.'.'.].I.`..Xs t I : 9X3XqX8X$ j.d.d.d.s.2.3.5.< $ 1X2X2XUX>.p y.d.U R kX~.P e.a.e.a.g.a.7.2.q.1.q.t 9 .XI._.K.K.'./.O.[.'._.'.'._._._._.",
"_._._._.'.'.'.'.'.'.'.'.'.I.].'.'.}.} < L O %.2XUX>.p j.a.s.d.a.1.4.d.s.h.d.g.g.g.g.h.t.Z T R BXhXU a.a.a.x.c.9.<.2.1.9.F @ `.]._.'._._.'.'.'.'._._.'._._._._._.",
"_._._._._.'.'.'.'.'.'.'.'.'.'.|.I.].J.J U hXQ.a.q.8.g.d.g.g.g.g.q.7.a.d.a.p.w.4.L 4.g.K E T T T Z P a.e.a.b.g.7.1.<.9.G X X.}._._._.'.'.'.'.'.'.'._.'.'._.)._._.",
"_._._._._._._.'.'.'.'.'.'.'.|.I.I.|.I.Z T hXR P H 5.9.a.H u u u < , O r x.g.2.O   y.d.w.P K K I 1.r.a.a.a.a.7.1.3.q.A O |  X_.'.'.'._.'.'.'.'.'.'._.'._.).'._._.",
"_._._.`.L.@._.`.'.'.'.'.'.'.|.'.|._.|.>.J E P P , -.w.8.2             . D S 2 . -.g.r.a.a.a.w.3.9.e.a.e.q.1.<.8.2.3 = F.}.I.'.'.'.'.'.'.'.'.'.'.'.'.'.'.'.'.'._.",
"_._._.o.K.L.@.(.|.'.'.].'.'.'.'.'.'._.].).= 3 9.3.u O O . . .       .       X -.g.e.a.e.a.q.1.6.e.e.9.6.6.8.7.S $ s '.}._._._.'.'.'.'.'.'.'.'.'.'.'.'.'.'._._._.",
"_._._.K.).[.^.^.'.'.'.I.|.'.'.'.'.'.'._.'.|.8 O H 4.A $               . & =.h.d.r.a.a.e.9.1.1.6.8.6.9.6.L t % 8 F.XX_._._.'.'.'.'.'.'.'.'.'.'.'.'.'.'.'.'.'.'.'.",
"_._._.[.'.'.|.'.'.'.'.'.O.`.'.'._._._._._._. X_ @ 1 F 8.5.D D y y p =.5.i.9.7.9.w.w.q.8.7.9.9.7.P F S 2 # > _ ].}.I._._._._._.'._.'.'.'.'.'.'.'.'.'.'.'._._.'._.",
"_._.'.'.'.'.'.'.'.'.O.L.@.K.O.|._._.'.'.'._._. X`.q = $ 3 A H 3.9.q.r.9.7.7.9.7.2.<.P L F A 3 2 $ ; # / #.{ ] 6 f }.)._.'.'.'._.'.'.'.'.'._.`.[.'.'.'.'.'.'._.'.",
"'.'.'.'.'.'.'.'.'.'.K.(._.^.O.|.'.'.'.'.'.'.'._.[.(.].U.g 9 = * $ % % < 2 2 , , % $ $ ; ; 5 7 W x -Xw { ( ! Q 9  .{.[._.'.'.'.'.'.'.'._.`.L.+.).`.'.'.'.'.'.'.'.",
"'.'.'.'.'.'.'.'.'.'.'.'._.'.'.'.'._.'._.'._.'.'.[.'.'.]..X.X}.`.U.F.X.| | } # 5 W Q ^ &Xb { { [ b &X4 ! ! Q 9 nXFXiXO.{.'._._.'._.'.'.`.+.(.L.@.L.'._.'._.'.'._.",
"'._.'._.'.'.'.'.'.'.'.'.'._._.'._._._._._._._._.'.'.'.'.'.`.'.'.}.}.}.}..XI.dXiXw ! ) &Xx Q Q ! x &X4 7 ) 7 h bXzXvXSX..[.'.'.'._.'.'.'.^.'.|./.).'.`.'._._._.'.",
"'.'.'.'.'.'.'.'.'.'.'.'.'.'.'.'._.'.'.'.'.'.'.'.'.'.'.'.'.'.'.'.'._._._.P.jXvXvXS.7 7 &Xv ! ! ! / -X4 7 5 5 j Q.kXbXFXxXF. X'.'.'.'.'._.'.'.'.'.'.'.'.'.'.'.'.'.",
"'.'.'._.'.'.'.'.'.'.'.'.'._._.'.'._._.'.'.'._._.'.'.'.'.'.'.'.'.'.'.|.F.xXDXzX+X>.- 5 v %X0 / q x ;Xz x b > f D.+XkXgXuXM J.'.'.'.'.'.'.'.'.'.'.'.'.'.'.'._.'.'.",
"_._._._._.'.'.'.'.'.'.'.'._.'.'.^._.'._._._._._.'.'.'.'.'.'.'.'.'.].|.Y.FXbXlXQ.,.g ` n Y %X>X;X-XC C &X-Xz J.F.l.D.dXKXAX .).'.'.'.'.'.'.'.'.'.'.'.'.'._.'._._.",
"_._._._._.'.'.'.'.'._.'.'.'.).(.#.(.L._._._._.).'.'.'.'.'.'.'.'.'.}.H.N iX!.+XD.F..XJ.z $X$X&X*X$Xv #X*X#Xv F.XXf pXLXPXLXZX' |._._._.'.'.'.'.'.'._.'._._._.)._.",
"_._._._._.'.'.'.'.'.'.'.'.'.K.@.).L.o._._._._._.'.'.'.'.'.'.'.'.'._...ZXHXNXS.,.[.).}.m =X&X;X<X&X#X;X*X%Xk ` OX` aXPXSXdXyX| ]._._._.'.'.'.'.'.'._.'._._._._._.",
"_._._._._.'.'.'._._.'.'.'.'.`.`.'._.L._._._._._.'.'.'.'.'.'.'.'.}.F.pXLXLXLXZX} |.}.F.z %X*X<X7X*Xv *X&X;X;Xv F.).$.sXR.kXgXV I.[._.'.'.'.'.'.'._._._.'._._._._.",
"_._._._._.'.'.'.]._._.'.'._.'._._.'.'._._._._._.'.`.'.'.'.'.'.'.}.F.yXdXfXAXdX_ XXH.z 7Xv v #Xv v v &Xv *X;X7Xz _ iXHXR.gXiXxXT._.'.'.'.'.'.'._._.'.'.'._._._._.",
"_._._.).'.'.'.'.'.'._.'.'.'.'._._._._._._._._._.'.'.'.'.'.'.'.'.'...T.kX!.uXSX..' z >X<X*Xv v c #X%Xk c &X;X;X=X:XLXKXSXZXIXLXdXF.|._.'.'.'.'.'.'._._._._._._._.",
"_._._._.'.[.'.'.'.'.'.'.'.'.'._._._._._._._._._.'.'.'.'.'.'.'.'.{.Y.uXgXgXdXPXLXn #X7X=X*X%X: m m m g k #X;X;Xc V yXV IXIXHXKXpXX.]._.'.'.'.'._._._.'._._._._._.",
"_._._._._.'.'.'.'.'._.'.'._.'._.'._._._._._.)._._.'.'.'.'.'.[.].H.iXLXAXAXLXtXyXV n z &X&Xk ' .X|.}.XX` k -Xz S.Y S.R.NXSXSX1XY {.'.'.'.'.'.'._.`.'._._.'._._._.",
"_._._._._.'.'.'.'.'.'.'.'._._._.)._._._._._._._.'._.'.'.'.'.[.}.' pXLXPXKXIXV D.Y DXD.l c g  X`._.'.`. Xg l 8 zXnXY dXKXC Y h J.]._.'.'.'.'.).).@./.)._.)._._._.",
"_._._._._.'.'.'.'.'.'.'.'._._._._._._._._._._._._._.'.'.'.'.'.'.J.$.aXsXZXmXHXR.S.GXQ.% 8 '.`.'.'.'.'.'.'.8 h +XFXuXd V ' {.}.'._.'.'.'.'.|.O.O.^.P.o.'._._._._.",
"'.'.'.'._.'.'.'.'.'.'.'.'.'.'.'.'.'._.'._.'.'.'._.'.'.'.'.'.'.'.}.H.f N $.n mXd jXDXW.B I.].'.'.'.'.'.'.'.].h +XvXxX' J.}.[._._.'.'.'.'.'.'.).L.'.`.L.'.'.'._.'.",
"_._.'.`.^.@.'.'.'.'.'.'.'.'.'._._.'.'._._.'.'._.'.'.'.'.'.'.'.'._.].}._.G.I._ N FXzXD.F. X`.'.'.'.'.'.'.I.}.` Q.cXxX..}._._._._._.'.'.'.'.'.'.'.'._.'.'.'.'._.'.",
"'.'.'.o.L.O.@.L.|.'.'.'.'.'.'.'.'.'.'.'.'.'.'.'.'.'.'.'.'.'.'.'._._._.'.|.|.).iXFXlX>.H.].'.'.'.'.'.'.'.|.}...W.bXFXT.|._._.'.'.'.'.'.'.'.'.'.'.'.'.'.'.'.'.'.'.",
"'._._.K.).].K./.'.'.'.'.'.'.'.'.'.'.'.'.'.'.'.'.'.'.'.'.'.'.'.'._.'._.'.I.}.F.T.nXW.J [.].].'.'.'.'.'.'.`.`.#.j R.uXM H.'.'.'.'.'.'.'.'.'.'.'.'.'.'.'.'.'.'.'.'.",
"'._._.'.`.'.'.'.'.'.'.'.'.'._._._.'.'.'.'._.'.'.'.'.'.'.'.'.'.'.'._.'. X.X{.$.sXdXsXN G.'.`.'.'.'.'.'.|.P.&.} aXKXAXAXN )._. X|.'.'.'.'.'.'.'.'.'.'.'._.'._.'.'.",
"'.'.'.'.'.'.'.'.'.'.'.'.'.'.'.'.'.'.'.'.'.'.'.'.'.'.'.'.'.'.'._.{.].{._ B s C KXAXHXV G.].'.'.'.'.'.'.'.`.].F.V Y :Xn : N N f J.].'.'.'.'.'.'.'.'.'.'.'.'.'.'.'.",
"'._.'.'.'.'.'.'.'.'.'.|.[.`._._.'.'.'._._.'.'._.'.'.'.'.'.'._.).(.X.M aXHXHXtX> > : d F.].[.'.'.'.'._._._.|.} : : + n AXLXPXNXM H.].'.'.'.'.'.'.'.'.'.'._.'._.'.",
"_.'._._.'.'.'.'.'.'.'.).^.o.^.).'.'._._._.'._._.'.'.'.'.'.'./.+.H.n HXLXLXLXLXmX: : tX .).'.'.'.'.'.'.'.}.F.yX,X+ C KXIXLXLXLXAXg '.|._.'.'.'.'.'.'.'.'.'._._.'.",
"'.'.'.'.'.'.'.'.'.'.[.o./.^.O.O.'.'.'.'.'.'.'.'.'.'.'.'.'.'.).`._ aXLXLXLXPXKXPXyX+ C N J.'.'.'.'.'.'.'.|.F.n : : ZXKXIXPXLXPXLXtX| `.'.'.'.'.'.'.'.'.'.'.'.'.'.",
"'._.'.'.'.'.'.'.'.'.'./.`.'.^.).'._._._.'.`._.'.'.'.'.'.'._.`. Xg yXpXpXpXpXtXyXyX+   o J.'.'.'.'.'.'._.}...o o n yXyXyXtXtXtXpXV g (.(.).'._.'.'.'.'.'.'._._.'.",
"_._.'.'.'.'.'.'.'.'.'.'.'._.'.'._._._._._._._._.'.'.'.'.'._.'.).n pXZXsXpXpXpXaXpXaXaXV _ .X_.'.'.'.'.). Xg tXSXmXsXsXsXsXsXNXAXfXg ].+.^.[._.'.'.'.'.'._._._.).",
"_._._.'.'.'.'.'.'.'.'.'.'.'._._._._._._._._._._._._.'.'.'.'.'._.m Y.Y.Y.Y.Y.Y.Y.yXY.Y.M |  X_.'.'.'.'._.].| m B N N } N  .}  ...m } ].`._.'.'.'._.'.'.'._._._._.",
"_._._._.'.'.'.'.'.'.'.'.'._.'._._._._._._._._._.'.'.'.'.'.'.'.'.'.J.J.G.G.H.J.J.H.H.H.J.'._._._.'.'.'.'._.|.]._.|.[.|.[.|.|.{._.}.}._._.'.'.'.'.'._.'.'._._._._.",
"_._.`._._.'.'.'.'.'.'.'.'._.'._._._._._._._._._._.'.'.'.'.'.'.'.'.'.'.'.'.'.'.'._._._._._._.'._.'.'.'.'.'._.'.'._.)._._._._._._.'._.'.'.'.'.'.'._._.'.'._._._._.",
"_._._._.'.'.'.'.'.'.'.'.'.'.'._._._._._._._._._._._.'.'.'.'.'.'.'.'.'._.'.'._._._._._.'._._._._.'.'.'.'.'.'.'.'._._._._._._._._._.'.'.'.'.'.'.'.'._.'._._._._._."
};
