/* XPM */
static char *New_Project__1__resized[] = {
/* columns rows colors chars-per-pixel */
"80 80 256 2 ",
"   c #010100",
".  c #050C02",
"X  c #191C06",
"o  c #121011",
"O  c #281401",
"+  c #241C18",
"@  c #1B2415",
"#  c #19360F",
"$  c #292707",
"%  c #333905",
"&  c #293719",
"*  c #2F2E0C",
"=  c #2F322A",
"-  c #152A2C",
";  c #472A00",
":  c #5A3200",
">  c #4B3602",
",  c #673C00",
"<  c #723F00",
"1  c #432B1F",
"2  c #135816",
"3  c #0F4C10",
"4  c #2F4614",
"5  c #187818",
"6  c #166A0F",
"7  c #227019",
"8  c #1E5D2B",
"9  c #364A24",
"0  c #3A5628",
"q  c #364B34",
"w  c #2A6F2E",
"e  c #464501",
"r  c #555500",
"t  c #554700",
"y  c #774400",
"u  c #635D00",
"i  c #6C4A06",
"p  c #686300",
"a  c #766B00",
"s  c #7C7A00",
"d  c #445431",
"f  c #4B6535",
"g  c #597638",
"h  c #556C31",
"j  c #637A3B",
"k  c #7B692B",
"l  c #665732",
"z  c #173354",
"x  c #243C4D",
"c  c #2F4B4F",
"v  c #35694F",
"b  c #2B4D71",
"n  c #296473",
"m  c #545649",
"M  c #504D4C",
"N  c #546A49",
"B  c #647746",
"V  c #6B7857",
"C  c #676A59",
"Z  c #6A6D6D",
"A  c #5D6474",
"S  c #D1382F",
"D  c #C63713",
"F  c #864900",
"G  c #955701",
"H  c #895400",
"J  c #A45C00",
"K  c #897701",
"L  c #936A00",
"P  c #A86701",
"I  c #B97406",
"U  c #877238",
"Y  c #A25F2A",
"T  c #C57400",
"R  c #C97900",
"E  c #D77700",
"W  c #DC6B18",
"Q  c #E37900",
"!  c #DB5328",
"~  c #8D784F",
"^  c #E74D53",
"/  c #F23E54",
"(  c #1B8B13",
")  c #2BAE14",
"_  c #299027",
"`  c #2BA52A",
"'  c #2DB52D",
"]  c #37B32B",
"[  c #249016",
"{  c #69863B",
"}  c #77903B",
"|  c #4AB23A",
" . c #5E8139",
".. c #33C72E",
"X. c #4DC736",
"o. c #698644",
"O. c #728E43",
"+. c #769745",
"@. c #778959",
"#. c #6F954D",
"$. c #7EA547",
"%. c #74B956",
"&. c #7CBB56",
"*. c #77BA58",
"=. c #71B554",
"-. c #7A8766",
";. c #7BC259",
":. c #8D8A00",
">. c #979500",
",. c #B28B00",
"<. c #BABA00",
"1. c #B0A400",
"2. c #928634",
"3. c #A98936",
"4. c #CB8400",
"5. c #DA8500",
"6. c #DC8900",
"7. c #D68500",
"8. c #DA9600",
"9. c #C69507",
"0. c #E38C00",
"q. c #E88D01",
"w. c #F48900",
"e. c #E39300",
"r. c #EC9301",
"t. c #E79C00",
"y. c #F29601",
"u. c #F59B00",
"i. c #FC9D00",
"p. c #F99700",
"a. c #CBA800",
"s. c #EBAC00",
"d. c #E8A500",
"f. c #FEA200",
"g. c #F4AB00",
"h. c #FEAC00",
"j. c #F5A500",
"k. c #EBB400",
"l. c #FEB300",
"z. c #FEBC00",
"x. c #F5B800",
"c. c #E3BE19",
"v. c #D3AB2B",
"b. c #C7C400",
"n. c #D6D400",
"m. c #EAC601",
"M. c #FFC300",
"N. c #FECB00",
"B. c #F5C900",
"V. c #FDD400",
"C. c #FBDA00",
"Z. c #F2CE0C",
"A. c #FEE400",
"S. c #FEEB00",
"D. c #F6E300",
"F. c #FFF300",
"G. c #FFFE01",
"H. c #F6FC00",
"J. c #E7E600",
"K. c #FFD827",
"L. c #AE934F",
"P. c #84A949",
"I. c #8CB44A",
"U. c #93BB4D",
"Y. c #83BE56",
"T. c #8BBD56",
"R. c #88BA56",
"E. c #93BB52",
"W. c #88AB51",
"Q. c #8B926F",
"!. c #A49579",
"~. c #B1AD75",
"^. c #8A9D68",
"/. c #CA954C",
"(. c #C8B07A",
"). c #D7AA4B",
"_. c #8CC156",
"`. c #8CC158",
"'. c #86C258",
"]. c #94C356",
"[. c #9AC457",
"{. c #9CC955",
"}. c #94C358",
"|. c #9BC558",
" X c #9ECA5A",
".X c #95CB59",
"XX c #98C550",
"oX c #A2CD5B",
"OX c #A0C856",
"+X c #A5D15C",
"@X c #A9D55D",
"#X c #A9D65C",
"$X c #ADD961",
"%X c #FAD26F",
"&X c #FFE57E",
"*X c #F3C15A",
"=X c #2B5786",
"-X c #315C87",
";X c #305B9A",
":X c #356698",
">X c #376888",
",X c #3A69A5",
"<X c #3B73AA",
"1X c #3C78B5",
"2X c #2A5898",
"3X c #417AB5",
"4X c #4476AE",
"5X c #5A7187",
"6X c #0090BE",
"7X c #1E898E",
"8X c #0091C2",
"9X c #04B5E6",
"0X c #22BADE",
"qX c #4686C7",
"wX c #04D3FF",
"eX c #08CDF7",
"rX c #3AD9FB",
"tX c #7CC4D5",
"yX c #45DAF8",
"uX c #6BEDFD",
"iX c #888887",
"pX c #949493",
"aX c #94928D",
"sX c #A79D90",
"dX c #ADAB91",
"fX c #A19EA4",
"gX c #A6A6A6",
"hX c #B6B4BB",
"jX c #B9B8BC",
"kX c #B1B1AF",
"lX c #98ACA7",
"zX c #ECA8A2",
"xX c #ACC8BC",
"cX c #FADB91",
"vX c #FFE589",
"bX c #FEE49B",
"nX c #FFE897",
"mX c #E3EF9A",
"MX c #FEE8A4",
"NX c #FEEEB8",
"BX c #D8CFA3",
"VX c #BCB9C4",
"CX c #E0ACC5",
"ZX c #98DFEB",
"AX c #C6C5C7",
"SX c #D8D6D5",
"DX c #FFF6C7",
"FX c #FFF5D5",
"GX c #FBE8CC",
"HX c #C0FFFF",
"JX c #E6E6E7",
"KX c #E4FFFF",
"LX c #FEFEFE",
"PX c #F3F3F6",
"IX c #F0EEF1",
"UX c #DADDE1",
/* pixels */
"[.[.[.[.[.|.[.|.|.|.|.|.|.[.[.[.[.[.[.[.[.[.[.[.[.|.|.|.|.|.|.|.|.|.[.[.[.[.}.[.[.[.[.[.[.|.|.|.|.|.|.|.|.|.|.|.[.[.[.[.[.[.[.[.[.|.[.|.|.|.|.|.|.|.[.[.|.|.[.[.",
"[.[.[.[.|.[.|.[.[.|.|.|.|.|.|.[.[.[.[.[.[.[.[.[.[.[.|.[.|.Y.Y.|.[.|.[.[.[.[.[.[.[.[.E.[.[.[.|.|.|.|.|.|.|.|.[.[.[.[.|.|.[.[.[.[.[.|.|.|.|.[.|.|.|.|.[.[.R.Y.[.[.",
"[.[.[.[.|.|.[.[.[.|.OX|.|.|.[.[.[.[.[.[.[.}.[.[.|.|.|.}.%.Y.Y.&._.{.[.[.[.[.[.[.[.[.oX+XoX[.E.|.|.|.|.|.|.|.[.[.[.[.[.|.[.[.[.[.|.|.|.|.|.|.|.|.|.[.[.*.'.&.&._.",
"[.[.[.[.[.|.|.[.|.|.`.[.|.[.|.[.[.[.[.[.[.[.[.[.|.|.|.}.&.}.[.&.].{.[.[.[.[.[.[.|.OX{ f O.oXoX|.|.|.|.|.|.|.|.}.[.[.E.|.[.[.[.[.}.|.|.|.|.|.|.|.|.[.[.&.].|.&.'.",
"[.[.|.|.|.|.[.|.`.`.=.'.T.|.|.[.[.[.[.[.[.|.[.|.|.|.|.|.|.[.[.[.|.|.|.|.[.[.[.[.|.0 2 5 2 9 W.+X[.|.|.|.|.|.|.|.|.[.[.|.[.|.[.|.|.|.|.|.|.|.|.|.|.|.|.|.|.|.{.[.",
"[.[.[.|.|.|.[.oX&.&.].'.*.|.|.[.[.|.|.|.|.[.|.|.|.|.|.|.|.|.|.|.|.|.|.|.[.[.[.oX0 _ ' ` ` 5 # W.|.[.|.|.|.|.|.|.[.|.|.|.|.[.[.|.|.|.|.|.|.|.|.|.|.|.|.|.|.[.[.|.",
"[.[.[.[.|.|.|.|.}.}.OX}.}.|.|.|.|.|.[.|.|.|.[.|.|.|.|.|.|.|.|.|.|.|.OX|.|.[.+Xj 5 ..` ` _ ` 6 h @X|.|.|.|.|.|.|.|.|.|.|.|.}.}.|.|.|.|.|.|.|.|.|.|.|.|.|.|.|.|.|.",
"[.[.[.|.|.|.|.|.OX|.[.[.|.|.|.|.|.|.|.|.|.|.|.|.|.|.|.|.|.|.|.|.|.|.oXE.E.OXE.2 ..' ` ` ` ` 6 g +X|.|.|.|.|.|.|.|.|.|.].].%.R.}.|.|.|.|.|.|.|.|.|.|.|.|.|.|.|.|.",
"|.|.|.|.|.|.|.|.|.|.|.|.|.|.|.|.|.|.|.|.|.|.|.|.|.|.|.|.|.|.|.|.|.}.`.*.Y..Xg ( ..` ` _ 5 2 9 E.oX|.|.|.|.|.|.|.|.|.OXY.*.R.Y.=.|.|.|.|.|.|.|.|.|.|.|.|.|.|.|.|.",
"|.|.|.|.|.|.|.|.|.|.|.|.|.|.|.|.|.|.|.|.|.|.|.|.|.|.|.|.|.|.|.|.OXR.*.}.T.=.0 ' ' ` _ # 9 P.}.'.|.|.|.|.|.|.|.|.|.|.|.}.T.OX]._.|.|.|.|.|.|.|.|.|.|.|.|.|.|.|.|.",
"|.|.|.|.|.|.|.|.|.|.|.|.|.|.|.|.[.|.|.[.|.|.|.|.|.|.|.|.|.|.|.|.|.|.T.|.|.W.8 ..` _ # B +X;.&.&.&.T.|.|.|.|.|.|.|.|.|.|.|.[.[.|.|.|.|.|.|.|.|.|.|.|.|.[.|.|.[.|.",
"[.[.[.[.[.[.|.|.|.|.|.|.|.|.|.[.[.[.[.[.[.[.[.[.[.|.|.|.|.|.|.|.E.|.oX@X+XW.6 ' _ 2 9 .X.X'. X[.&.}.|.|.|.|.|.|.[.[.[.[.[.[.[.[.[.[.|.|.|.|.|.|.|.|.|.[.[.[.[.[.",
"|.|.|.|.|.|.|.|.|.|.|.|.|.|.|.|.|.|.|.|.|.|.OX|.|.|.|.|.[.|.}.|.$XoX+.f 9 * 2 .._ 3 $ % & f +.oX@X|.[.[.|.|.|.|.[. X|.|.|.|.|.|.|.|.|.|.|.|.|.|.|.|.|.|.|.|.|.|.",
"|.[.[.[.|.[.|.|.|.|.|.|.|.|.|.[.[.[.[.|.|.|.Y.T.|.|.|.|.[. X@X}.g & e s <.8.> 3 3 # I J.b.:.e @ f E.@X[.[.|.|.|.[.[.[.[.|.[.[.[.[.|.|.|.|.|.|.|.|.|.|.|.|.[.[.[.",
"[.[.|.|.|.[.&.}.|.|.|.|.|.|.|.|.[.[.|.|._.Y.&.Y.&.|.|.[.+X Xh * p n.G.G.G.S.B.a.1.m.F.G.G.G.G.n.a X f  X+X}.|.[.[.[.[.[.[.[.[.[.|.|.|.|.|.|.|.|.|.|.|.|.[.[.[.[.",
"[.[.[.|.&.&.&.Y.&.|.|.|.|.[.|.[.[.[.[.OXY.&.[.`.&.[.[.@X+.& r J.G.G.G.G.C.S.G.G.G.F.S.G.V.V.G.G.G.J.p @ +.@X[.[.[.[.[.[.[.[.[.[.[.|.|.|.|.|.|.|.|.|.|.|.[.[.[.[.",
"[.[.[.[.Y.'.OXT.'.|.|.|.|.|.[.[.[.[.[.[.[.].[.[.}.|.@Xf * b.G.S.S.G.G.F.C.G.G.G.G.S.h.A.G.h.z.S.G.S.G.<.$ f #X[.E.|.[.[.[.[.[.[.[.[.[.|.|.[.|.|.|.|.|.[.[.[.[.[.",
"[.[.[.[.[.|.|.|.|.|.[.|.|.[.[.[.[.[.[.[.[.[.[.[.[. X9 t G.G.M.S.F.F.F.N.F.G.G.G.G.S.h.l.F.V.f.h.A.S.z.G.H.e 9 oX|.[.[.[.[.[.[.[.[.|.|.|.|.|.|.|.|.|.|.[.[.[.[.].",
"[.[.[.[.[.[.|.|.|.|.|.|.[.|.|.[.[.[.[.[.[.[.].|.[.& s G.C.z.A.S.M.M.z.B.G.G.G.G.G.N.h.h.N.S.h.l.f.A.A.j.C.G.r & oX|.|.[.[.[.[.[.[.|.|.|.[.|.|.[.|.'.`.|.[.[.[.[.",
"[.[.[.[.[.|.|.|.|.|.[.|.|.|.|.[.[.[.[.[.[.[.|.OX& :.G.N.z.B.S.M.M.N.x.D.G.G.G.G.S.z.x.l.h.A.g.h.h.f.A.N.i.N.G.p & @X[.[.[.[.[.[.[.|.[.|.|.[.|.}.&.&.&.&.].[.[.[.",
"[.[.[.[.[.[.|.|.}.}.%.`.}.[.[.[.[.[.[.|.[.[.oX& :.G.M.M.k.S.M.M.N.N.s.A.G.G.G.S.z.z.l.l.f.N.x.f.h.h.h.S.g.i.z.G.t 0 #X].[.[.[.[.[.|.[.|.|.|.|.}.&.|.[.&.}.|.[.[.",
"[.[.[.[.[.|.|.OX&.&.Y.Y.%.[.|.[.[.[.[.|.].#X9 a G.M.M.d.C.N.M.M.N.g.m.V.C.S.C.M.z.z.l.l.h.l.B.d.h.h.f.z.B.y.f.M.G.% { +X].[.[.[.[.|.[.|.|.|.|.|.|.|.|.|.[.[.[.[.",
"[.[.[.[.|.|.|.|.}.}.OX}.'.[.|.[.[.[.[.E.@Xg e G.M.M.s.k.C.z.N.N.N.t.V.M.M.M.M.M.z.l.l.h.h.h.B.t.h.h.f.i.C.d.j.p.V.n.X R. X[.[.[.[.[.|.|.[.|.|.|.|.|.|.|.[.[.[.[.",
"|.E.[.[.[.|.|.|.|.|.|.|.|.[.|.[.[.[.[.oXR.$ J.N.z.z.e.V.M.M.M.N.x.d.V.M.N.N.N.M.z.z.l.l.h.j.M.t.h.h.h.f.l.B.q.h.p.F.>.= @XE.[.[.[.|.[.|.|.[.|.|.|.|.|.|.[.[.[.[.",
"|.|.|.|.|.|.|.[.|.|.|.|.|.|.|.[.[.[.E.+X& 1.S.x.N.e.k.V.z.M.M.N.t.s.N.M.M.N.M.M.z.z.l.h.h.f.z.d.j.h.h.f.i.N.8.y.f.f.F.% O.oX[.[.[.|.[.|.|.|.|.|.|.|.|.|.[.[.[.[.",
"|.|.|.|.|.|.|.[.|.|.|.|.|.|.|.[.[.[.+Xo.e F.l.M.g.6.N.z.z.M.M.M.8.M.M.M.M.M.M.M.z.z.l.h.h.f.l.d.r.h.f.h.i.l.k.0.h.p.M.<.& +X|.|.[.|.|.|.|.|.|.|.|.|.|.|.|.|.|.[.",
"[.[.[.[.|.|.|.|.|.|.|.|.|.|.|.[.[.[.oX& b.N.z.M.6.d.N.z.z.M.M.x.6.M.z.M.M.M.M.z.z.l.l.h.h.f.h.s.q.h.f.f.f.f.z.6.i.f.i.A.4 #. XY.[.|.|.|.|.|.|.|.|.|.|.|.|.|.[.|.",
"|.|.|.|.|.|.|.|.|.|.|.|.|.|.|.|.[.@Xj r A.l.z.g.7.M.z.z.z.M.M.j.t.M.z.M.M.M.M.z.z.l.l.h.h.f.f.g.0.h.f.f.f.i.l.8.r.f.p.M.>.9 .X=.Y.R.OX|.|.|.|.|.|.|.|.|.|.|.|.|.",
"[.[.[.[.[.[.|.|.|.|.|.|.|.|.|.[.].oX4 a.M.z.z.e.8.M.z.z.z.z.M.e.d.z.z.M.M.M.z.z.z.l.l.h.f.f.f.g.6.f.f.f.f.i.h.d.6.f.f.f.B.# I.|.&.Y.oX|.|.|.|.|.|.|.|.|.[.[.[.|.",
"|.|.|.|.|.|.[.|.|.|.|.|.|.|.|.[.+X+.e V.l.z.h.5.d.z.l.z.z.z.z.6.j.z.z.z.z.z.z.z.l.l.h.h.h.f.f.j.6.j.h.f.f.i.f.s.5.p.f.p.N.r O.+X}.[.E.oX|.|.|.|.|.|.|.|.|.|.|.|.",
"|.|.|.OXT.`.OX[.|.|.|.|.|.|.|.}.$Xf K N.h.z.d.7.x.l.z.l.z.z.x.5.g.z.z.z.x.B.z.z.l.l.l.h.f.f.i.j.6.j.f.f.i.f.f.j.7.y.f.p.l.:.f +X[.[.|.|.|.|.[.Y.|.|.}.|.|.|.|.|.",
"[.|.}.&.&.Y.Y.}.|.|.|.|.|.|.|.[. X4 a.l.l.9.d.5.l.l.l.z.z.z.j.5.x.l.l.M.R k.M.l.l.l.h.h.f.f.i.j.6.u.f.f.f.i.f.g.5.q.f.i.h.,.9 oX[.[.[.|.OXY.'.*.Y.Y.|.[.[.[.[.[.",
"|.|.`.%.}.}.*.].|.|.|.|.|.|.|.|.$.4 z.l.j.F K d.l.l.l.l.z.z.t.6.h.l.z.j.I > m.l.l.l.h.h.f.f.f.u.5.u.f.f.f.i.i.j.6.q.f.f.f.8.4  X|.|.|.[.OX&.Y.|.Y.&.|.|.|.|.[.|.",
"|.|.|.].[.|.[.[.|.|.|.|.|.|.}.*.#.t M.h.q.; X k.h.l.l.l.l.z.r.6.l.l.l.7.<   p M.h.l.h.f.f.i.f.u.5.u.f.f.i.f.f.f.6.0.i.f.f.t.& }.|.|.|.|.[.[.[.oX|.|.|.|.|.|.|.|.",
"|.|.|. X[.|.|.|.|.|.|.|.|.|.[..Xg u M.g.I sXkXv.l.l.l.l.l.z.e.0.h.l.d.I !.VXdXZ.h.h.h.h.f.i.f.y.5.u.f.f.i.f.f.i.6.6.i.i.f.e.& OX|.|.|.|.[.[.|.|.|.|.|.|.|.|.|.[.",
"|.|.|.[.[.|.|.[.|.|.|.|.|.|.[.@Xh y z.6./.LXKXmXl.h.l.l.l.l.6.0.h.l.T /.LXLXHXmXl.h.f.f.f.f.f.y.7.u.f.i.f.i.f.p.5.0.f.i.h.R & oX|.|.|.|.[.|.|.|.|.|.|.|.|.|.[.[.",
"|.[.[.[.[.|.|.[.|.|.|.|.|.|.E.@Xh , l.T lXLXHXyXZ.h.l.l.l.l.6.0.h.r.J ZXLXLXyXyXK.f.h.f.i.f.i.r.5.u.f.i.i.f.f.u.7.q.f.f.h.J 9 oX|.|.|.|.|.[.|.|.|.|.|.|.|.[.[.[.",
"[.[.[.[.[.|.|.[.|.|.|.|.|.|.|.+XB t u.I 0XtX0XwX%Xh.h.h.l.h.6.0.h.T ^.eXtXtX9XwXmXl.f.f.f.i.f.q.6.i.f.f.f.i.f.r.7.r.i.i.i.< f @XE.|.|.|.|.|.|.|.|.|.|.|.[.[.[.[.",
"[.[.[.[.[.|.|.[.[.[.|. X|.|.[.oX#.> 5.i 9X6X0XuXV x.h.l.h.l.6.0.e.J c eX6X6XrXuX5X9.h.i.f.f.f.0.0.i.f.i.f.i.f.q.5.y.f.y.q.% #.{.[.|.[.|.|.[.|.|.|.|.|.|.[.[.[.[.",
"[.[.[.[.|.[.|.[.[.{.].Y.|.|.[.oXI.$ I O n wXrXxX. 9.l.h.h.h.0.6.7.i . 7XeXeXuXxX. r M.i.i.w.p.w.q.i.i.f.i.f.i.6.5.i.p.r.J & ;._.|.[.|.|.|.|.|.|.|.|.|.|.[.[.[.[.",
"[.[.[.[.[.[.[.[. X&.Y.&.'.Y.|.|.|.Y ! /.v.g.v.9.8.x.h.h.h.h.0.5.x.s.k.d.Z.c.c.d.d.d.q.! ^ CXzXW r.f.i.i.f.f.r.5.r.u.5.r.; o..X].[.[.[.|.|.[.|.|.|.|.[.[.[.[.[.[.",
"[.[.[.[.[.[.[.[.|.&._.|.Y.Y.|.|.E.D / CXzXQ p.Q u.f.h.l.h.l.p.q.i.h.f.h.f.f.f.f.h.w.S ^ / zXCX! i.f.i.l.N.f.6.6.q.7.p.y 9  X[.[.[.|.|.|.|.|.|.|.|.[.[.[.[.[.[.[.",
"[.[.[.[.[.|.[.[. X[.|.|.[.[.|.[.}.3.S S W R , ,.i.f.L ; > > * $ $ t z.l.r.i O ,.z.Q D S ^ S D E f.i.f.V.N.r.5.5.7.y.G @ E.|.].[.[.|.|.|.|.[.|.|.|.|.[.[.[.[.[.[.",
"[.[.[.].[.|.|.[.|.|.|.|.[.[.|.[.[..XI.X G y.H a P P ;             . ,.4.L   % x.i.f.w.Q E E 7.i.f.f.f.l.r.5.5.0.r.F @ I.oX[.[.[.[.|.[.|.[.|.|.|.|.|.[.[.[.[.[.[.",
"[.[.[.[.|.|.[.[.|.|.|.|.|.|.[.[.|.E.oXW.X F y.P .                         p z.f.i.f.f.h.y.6.r.f.f.f.u.0.5.0.r.T : & E.oX[.[.[.[.|.|.|.|.|.|.|.[.|.[.[.[.|.[.[.[.",
"[.[.[.|.|.|.|.|.|.|.|.|.|.|.|.|.|.[.[.oXE.& ; R d.H $               $ u a.l.i.i.f.f.i.q.7.0.f.p.r.0.5.q.r.T < $ g +X|.[.[.[.[.[.|.|.|.|.|.|.|.[.|.[.&.'.}.[.|.|.",
"[.[.[.|.|.|.|.|.|.|.|.|.|.|.|.|.|.|.[.}. X+Xg X : I 8.8.,.L a K K ,.8.j.i.p.i.j.p.r.6.5.5.r.q.r.e.0.E P , * f T.+X}.[.[.[.[.[.[.|.|.|.|.|.[.[.oXY.&.Y.Y.%.[.[.[.",
"|.|.|.|.|.|.|.|.|.|.[.|.|.|.|.|.|.|.|.[.[.[.+X}.g & $ , G R q.u.i.i.w.q.r.y.y.y.r.r.r.r.q.6.T P F : $ @ q E.+X|.[.[.|.|.|.|.|.|.|.|.|.|.|.|.[.|.`.'.OX}.Y.|.|.|.",
"[.[.[.[.[.[.|.|.|.|.|.|.|.|.|.|.[.[.|.[.[.[.[.|.+XoXW.g q & $ ; > : y y H F F F F i , : ; $ + - # _ | | | # { {.[.[.[.[.|.[.[.|.|.OX}.&.|.|.|.|.|. X|.|.|.|.|.|.",
"|.[.[.|.[.|.|.|.|.[.|.|.|.|.|.|.[.|.[.|.[.[.|.|.[.[. X@X@X|.I.+.o.g g 9 . 3 3 6 2 z - ( ( ( >X-X[ X.] ) ( m ^.I.|.[.|.[.[.|.|.[.|.&.Y.&.Y.Y.|.|.|.|.|.|.|.|.|.|.",
"|.|.|.|.|.|.|.}.}.*.T.}.}.|.|.|.|.|.|.|.|.|.].]. X|.}.[.[.[.oXoX+X@X#XT.N 7 ) ] ` 4XN X.X.] >Xb 6 ) ) ( V DXDX~.U.oX X[.|.|.|.|.OX&.'.|.'.Y.[.|.|.|.|.|.|.|.|.|.",
"[.|.[.|.[.[.oXY.*.T.Y.%.[.|.|.|.|.|.|.|.}.`.=.Y._.[.[.[.|.[.[.|.].[._.~.DXzX7 [ w ;Xw ) ` ) >X-X2 6 [ 6 L.nXcXGXdXI. X[.|.|.[.|.|.|.|.[.[.[.[.|.|.|.|.|.[.|.|.[.",
"[.|.[.[.|.[.|.}.T.oX[.'.[.[.[.[.[.|.[.OXY.%.`.T.=.[.|.|.|.|.|.|. XU.~.NXvXnXk 6 8 ,Xv ) ) ) v ;X7 6 3 # k *XnXNXFX^.[.|.[.[.[.|.[.[.[.|.|.|.|.|.|.|.|.|.|.|.[.[.",
"|.|.|.|.|.|.|.|.|.|.|.|.[. X|.|.|.|.|.|.}.}.OX[.`.|.|.|.|.|.|.|.{.^.JXNXcX*Xk 3 d ,Xc [ _ _ v ,X8 _ c 0 g v.&XcXBXQ.I.oX|.|.|.|.|.|. X[.|.|.|.|.|.|.|.|.|.|.|.|.",
"|.|.[.|.|.[.|.|.|.|.|.|.|.|.|.|.|.[.[.[.|.|.[.|. X|.|.|.|.|.|.|.XX!.DXMXvX).{ I.g A A ,X4X4Xn iXb ,X2XN .X2./.pXVXVX@.].|.[.|.[.[.[.|.|.|.|.|.|.|.|.|.|.|.|.|.|.",
"[.[.|.[.[.|.|.|.|.|.|.|.|.|.|.[.[.[.|.|.[.|.[.[.[.[.|.|.|.|.[. X_.V sXaX/.3.R.$X{ c b :X:X:X=Xb A ,X=Xc OX+.-.LXLXLXAX+.oX[.[.'.|.|.|.|.|.|.|.|.|.|.|.|.[.[.[.[.",
"[.[.[.[.|.[.|.|.|.|.|.|.|.|.|.[.[.].[.[.[.[.E.|.[.|.|.|.[.|.[.oX} jXLXIXhXB OX[.I.>X<X:X4X<Xb ,X1X,X=Xc {.+.gXPXUXUXAX+.oXR.Y.=.'.T.|.[.|.|.|.|.|.|.|.[.[.[.[.[.",
"[.[.[.[.[.|.[.[.|.|.|.|.|.|.|.[.[.[.[.[.[.[.[.[.[.|.|.|.[.|.|.XX^.LXLXPXIX-.E. XXXN :X:XqXqX:X-X<X:X2Xx P.{.V AX!.~.!.@.[.*.T.}.&.Y.OX[.|.[.|.|.|.|.|.[.[.[.[.}.",
"[.[.[.[.|.|.|.[.|.|.|.|.|.|.[.[.[.[.[.[.[.[.[.[.[.[.|.|.[.|.|.|.@.jXaXaXSXV P.{.N -Xb 2X>X:Xb -X,X:X3X3XN B AXAX(.MXdXaXI.[.[.|.}.[.|.|.|.[.|.|.|.|.|.[.[.[.[.[.",
"[.[.[.[.|.[.[.|.[.|.|.|.|.|.|.[.[.[.[.[.[.[.[.[.[.|.|.|.[.|.|.[.@.~.bX(.AXPXkXf ,XqX-Xz b =X=X2Xn :X<XqX:XhXLXUXgXgXAXGX#.{.[.[.|.|.|.|.|.|.|.|.|.|.[.[.[.[.[.[.",
"[.[.[.[.[.[.[.|.|.|.|.|.|.|.[.[.[.[.[.[.[.[.[.[.[.|.|.|.[.|.OXI.Q.dXdXfXUXjXAX5XqX1X1Xb z v v c x =X<X1X,XpXC hXLXLXLXLXQ.XX[.[.[.[.[.|.|.|.|.|.|.|.|.|.[.[.[.[.",
"[.[.[.].[.[.|.|.[.|.|.|.|.|.|.[.[.[.[.[.[.[.[.[.[.[.|.[.[.|. XP.gXPXJXPXPXC ~ b 1X<X;Xb g XX=.+X} z :X3X=Xl ~.iXJXUXAXVX@.{.[.[.}.|.[.|.|.|.|.|.|.|.|.|.[.[.[.[.",
"[.[.[.[.[. X[.}.|.|.|.|.|.|.[.[.[.[.[.[.[.[.[.[.[.|.|.|.[.|.oXP.gXLXIXUXJXfX(.l b ,Xb q OX|.}.[.+Xh b =Xf U Q.PXiXfXZ B I.|.}.[.[.|.|.|.|.|.|.|.|.|.|.[.[.[.[.[.",
"[.[.[.[.[.}.`.%.}.}.|.|.|.|.|.[.}.[.[.[.[.[.[.[.[.|.|.|.[.[.|.[.V kXfXAX~ IXC L.U z c I.OX|.{.[.|.XXc o /.zXC aXj O.P.|.|.[.[.[.[.|.[.|.|.[.|.|.|.|.|.|.[.[.[.[.",
"[.[.[.[.|.%.Y._.&.&.|.|.|.|.[.[.[.[.[.[.[.[.[.[.[.[.|.|.|.|.|. XE.o.B @.g Z sXbX3.@ +.+X[.[.[.|.[.oXW.f /.nXFXQ.XX+X{.[.[.[.[.[.[.[.|.|.|.[.|.|.|.|.|.[.[.[.}.[.",
"[.[.|.[.|.T.].|.}.`.|.|.|.|.|.|.|.|.|.[.[. X[.[.[.[.|.|.[.|.|.[. X XoXOXXXdXFXvX2.P. X[.|.|.[.|.|.[.oXT.3.vXFXdXI. X].[.[.[.|.|.[.|.[.|.[.|.|.|.|.|.|.[.[.[.|.|.",
"[.[.[.|.|.|.|.|.|.|.|.|.|.|.|.|.|.|.[.[.[.[.[.[.|. X[.|.|.|.|.|.[.[.[.oX$.dXDX%X2.}.[.[.|.|.|.|.|.|.|.T.2.%XDXdX$.oX[.[.[.|.[.|.|.|.|.|.|.[.|.|.[.[.&.`.|.|.|.|.",
"[.[.|.|.|.|.|.|.|.|.|.|.|.|.|.|.|.|.|.|.|.[.[. X}.}.|.|.|.|.|.|.[.[.[.oX$.SXNX%X}  X[.|.|.|.|.|.|.|.|. X} *XNXAX+.+X[.[.|.|.|.|.|.|.|.|.|.[.[.oXY.&.Y.Y.%.|.|.|.",
"|.|.|.|.|.|.|.|.|.|.|.|.|.|.|.|.|.[.|.|.|.|.[.`.Y.%.}.}.|.|.|.|.|.|.|.oXj sX(.~ } oXE.oX|.|.|.|.[.[.[.+Xj ~ sXaXB {.oX|.[.|.|.|.|.|.|.|.|.|.[.|.`.'.|.}.&.[.|.|.",
"|.|.|.|.|.|.|.|.|.|.|.|.|.|.|.|.[.|.[.|.|.|.}.=._.`.*.Y.OX[.|.[.oXOX|.} gXUXSXVXo. X|.|.|.|.|.|.[.[.[.[.V IXJXIXfXg I.I.oX|.[.|.|.|.|.|.|.|.|.|.|.[.[.|.|.[.|.|.",
"|.|.|.|.|.|.|.|.|.|.|.|.|.|.|.|.|.|.|.|.|.|.[.}.[.|.}.}.|.|.|.oX} N C d iXjXVXfXB oX|.|.|.|.[.|.|.|.[.oXl M m = + C aXZ j E.oX|.|.|.OX|.|.|.|.|.|.|.|.|. X|.|.|.",
"|.|.|.|.|.|.|.|.|.|.|.|.|.|.[.[.|.|.[.|.[.|.|.|.|.|.OX|.|.|.oXg aXIXLXPXaXo + + N U.OX|.[.}.Y.&.[.[.oXW.C M = = VXLXLXLXVXh E.OX|.|.}.|.|.|.|.|.|.|.|.|.[.[.[.|.",
"[.[.[.[.[.|.|.|.|.|.|.|.[.|.|.[.[.|.[.[.[.|.[.|.[.|.[.|.[.+X{ aXLXLXLXPXLXfX+ M gXO.oX[.].%.Y.'.=.T.+XO.gXM + hXPXJXLXLXLXhXg oX].}.=.'.}.|.|.[.|.|.|.[.[.|.[.|.",
"|.|.|.|.|.|.|.|.|.|.|.|.|.'.}.OX|.|.|.|.|.|.|.|.|.|.|.|.[.|.V IXLXLXLXIXJXJXA + M B oX[.[.Y.[.|.Y.].+Xj + o A UXSXJXJXIXJXIXV [.&.&.`.Y.%.|.[. X|.|.|.|.|.|.|.|.",
"[.[.|.[.|.|.|.|.[.[.|.`.Y.&.Y.Y.}.|.[.|.|.[.[.[.|.|.|.[.oXI.M pXpXpXaXaXQ.iXZ + o 9  X[.[.|.}.[.|.[. Xd = M Z iX~ iXiXiXpXpXM P.}.].OX}.}.[.|.|.|.|.|.|.|.|.[.[.",
"[.[.[.[.|.|.|.|.|.[.oX`.*.[.`.%.}.[.[.[.[.[.[.[.|.|.|.[.+X} A AXAXhXhXjXhXhXhXAXVXM I. X[.[.|.|.[. XU.m hXAXjXhXVXhXhXhXAXAXZ { +X|.[.|.|.[.|.|.|.|.|.|.|.[.[.[.",
"[.[.[.[.[.[.|.[.|.|.|.|.[.[.[.[.[.[.[.[.[.}.[.[.|.|.|.[. XI.B @.@.@.@.@.@.@.@.@.V j E.|.[.|.|.|.[.[.|.+.o.O.O.O.@.#.O.O.O.O.{ E.[.[.[.|.|.|.|.|.|.|.|.|.|.|.[.[.",
"[.[.[.[.[.[.[.|.[.|.|.|.|.[.[.[.[.[.[.[.[.[.[.[.[.|.|.[.[.|.+X{.[.{.oX{.XXXXXX[.{.oX|.[.[.|.|.|.|.|.[.+X+X+XoXoX X XoXoXoXoXoX|.[.[.|.|.|.|.|.|.|.|.|.|.[.}.[.[.",
"[.[.[.[.[.[.[.[.|.|.|.|.[.|.[.[.[.[.[.[.[.[.[.[.|.|.[.[.[.[.[.[.[.[.[.[.[.[.[.[.[.[.[.[.[.[.[.|.|.|.|.[.].[.[.[.}.[.].[.[.[.].[.[.[.|.|.|.|.|.|.|.|.|.|.[.[.[.[.",
"[.[.[.[.[.[.|.|.|.|.|.|.|.[.[.[.[.[.[.[.[.[.[.[.[.|. X|.[.[.[.[.[.[.[.[.[.[.[.[.[.[.[.[.[.|.[.|.|.|.|.|.[.|.[.[.[.[.[.[.[.[.[.[.[.|.[.|.|.[.|.|.|.|.|.|.[.[.[.[."
};
