/* XPM */
static char *player_L2_resized[] = {
/* columns rows colors chars-per-pixel */
"80 80 256 2 ",
"   c #010100",
".  c #0B0A00",
"X  c #171A04",
"o  c #17110F",
"O  c #2A1B0C",
"+  c #1C2512",
"@  c #113009",
"#  c #292606",
"$  c #352905",
"%  c #363704",
"&  c #252C13",
"*  c #2B3719",
"=  c #302E2B",
"-  c #172E21",
";  c #482900",
":  c #583700",
">  c #4A2D01",
",  c #633500",
"<  c #0F4C10",
"1  c #2F4B18",
"2  c #186C11",
"3  c #164B27",
"4  c #354925",
"5  c #35502B",
"6  c #1E6D21",
"7  c #2F732E",
"8  c #464501",
"9  c #595500",
"0  c #58470B",
"q  c #794500",
"w  c #635804",
"e  c #785F03",
"r  c #676400",
"t  c #747000",
"y  c #445928",
"u  c #53532B",
"i  c #556A39",
"p  c #59783B",
"a  c #4C6733",
"s  c #71742F",
"d  c #675A3A",
"f  c #1B3654",
"g  c #263E44",
"h  c #061F46",
"j  c #344F57",
"k  c #1C4177",
"l  c #244668",
"z  c #264D76",
"x  c #295479",
"c  c #355B68",
"v  c #316B5F",
"b  c #50544A",
"n  c #5E6B47",
"m  c #6A7552",
"M  c #4B5966",
"N  c #506874",
"B  c #686867",
"V  c #76786D",
"C  c #625B59",
"Z  c #D83429",
"A  c #844700",
"S  c #905500",
"D  c #AC5800",
"F  c #8D6E00",
"G  c #B86A00",
"H  c #AE6F01",
"J  c #AF7427",
"K  c #827D2C",
"L  c #CA4B10",
"P  c #C87700",
"I  c #CE7705",
"U  c #D5462D",
"Y  c #EB7615",
"T  c #EB5767",
"R  c #832414",
"E  c #258A0E",
"W  c #2BA618",
"Q  c #2AAB11",
"!  c #1D9124",
"~  c #289727",
"^  c #2BAA2B",
"/  c #31B629",
"(  c #1C9416",
")  c #69863A",
"_  c #74903C",
"`  c #43B52F",
"'  c #5C8D3D",
"]  c #33C532",
"[  c #33C21F",
"{  c #46C52E",
"}  c #6A8747",
"|  c #769646",
" . c #738755",
".. c #738E4B",
"X. c #7BA449",
"o. c #74B956",
"O. c #7CBB56",
"+. c #77BA58",
"@. c #6FB351",
"#. c #76866A",
"$. c #7DC25B",
"%. c #3B8B4C",
"&. c #878700",
"*. c #9B8D00",
"=. c #AD8E00",
"-. c #AAAA00",
";. c #B9B700",
":. c #B6A600",
">. c #AA8C38",
",. c #86953C",
"<. c #D58300",
"1. c #DA8500",
"2. c #DD8A00",
"3. c #D68903",
"4. c #DC9601",
"5. c #C98B02",
"6. c #E38C00",
"7. c #E68A00",
"8. c #E49200",
"9. c #EB9300",
"0. c #E49D00",
"q. c #EB9C00",
"w. c #F49B00",
"e. c #FC9D00",
"r. c #F49501",
"t. c #D9AD00",
"y. c #E9A700",
"u. c #F5A500",
"i. c #FEA200",
"p. c #FEAC00",
"a. c #F2AB00",
"s. c #E9B601",
"d. c #FEB300",
"f. c #FEBC00",
"g. c #F4B300",
"h. c #F6973F",
"j. c #CECC00",
"k. c #FFC300",
"l. c #FFCB00",
"z. c #F3C800",
"x. c #FDD400",
"c. c #FFDC00",
"v. c #F4D500",
"b. c #F4C610",
"n. c #FEE300",
"m. c #FEEC00",
"M. c #FEF400",
"N. c #FEFE00",
"B. c #F3F500",
"V. c #ECEC00",
"C. c #FFD72B",
"Z. c #84A947",
"A. c #8FBA4A",
"S. c #8BB549",
"D. c #92BC4D",
"F. c #84AA50",
"G. c #83BE56",
"H. c #8ABF56",
"J. c #88B855",
"K. c #95BB53",
"L. c #889376",
"P. c #8B8C73",
"I. c #AC9A70",
"U. c #BBA475",
"Y. c #9C9658",
"T. c #D2A852",
"R. c #F1B950",
"E. c #CBB37A",
"W. c #F58378",
"Q. c #8BC157",
"!. c #8CC258",
"~. c #86C359",
"^. c #95C356",
"/. c #9AC457",
"(. c #94C358",
"). c #9BC558",
"_. c #9ECA5A",
"`. c #9ACA57",
"'. c #98C952",
"]. c #A1CC5B",
"[. c #A0C857",
"{. c #A5D25D",
"}. c #A9D55E",
"|. c #AAD95C",
" X c #ADD468",
".X c #B2E262",
"XX c #F8CD6F",
"oX c #E4D36B",
"OX c #315C88",
"+X c #366798",
"@X c #366588",
"#X c #3867A6",
"$X c #3B72A8",
"%X c #3874B3",
"&X c #026F9A",
"*X c #4B6A88",
"=X c #417BB5",
"-X c #467EC0",
";X c #847C83",
":X c #F77390",
">X c #1E9EBB",
",X c #5B84AE",
"<X c #61D1A2",
"1X c #00A2DE",
"2X c #03ADD5",
"3X c #18AACF",
"4X c #1FB8DC",
"5X c #4382C6",
"6X c #42B3C0",
"7X c #00C4FF",
"8X c #03CCFF",
"9X c #0CCFFC",
"0X c #25CFFF",
"qX c #60DFE9",
"wX c #979695",
"eX c #8C8E8D",
"rX c #A79D89",
"tX c #96A187",
"yX c #ACAC8F",
"uX c #A7A6A8",
"iX c #B7B6B9",
"pX c #B1B0B0",
"aX c #9D97A5",
"sX c #C2BBB2",
"dX c #DBAB9C",
"fX c #A9CB96",
"gX c #FBDA8A",
"hX c #F1D18D",
"jX c #FFE798",
"kX c #F2EA8B",
"lX c #D6CAB6",
"zX c #FFF3B5",
"xX c #FCE7AA",
"cX c #DDDFAE",
"vX c #BFBEC0",
"bX c #C0BEC5",
"nX c #8FFBFF",
"mX c #91EFFC",
"MX c #B5F9FF",
"NX c #B3EEFF",
"BX c #96DCDA",
"VX c #C6C5C8",
"CX c #D7D6DA",
"ZX c #D0D0D3",
"AX c #FFFCC5",
"SX c #FFFCC8",
"DX c #FFF3D7",
"FX c #FFEAC1",
"GX c #DDDBE3",
"HX c #E1DEE5",
"JX c #E8E8EA",
"KX c #EEF6F9",
"LX c #FEFEFE",
"PX c #F4F5F5",
"IX c #F2ECF5",
"UX c #DFEEE9",
/* pixels */
"/./././././././.).)./.).)./.)./././././././././././././.).).).).).)./././././././././././.^././.).).).).).).)./././././././././././.).).).).).).)./.)./././././.",
"/./.G.Q.`./././.).).).).).).)./././././././././././.).).).).).).).)././././.(./././././././././.).G.H._.).).).)./././././././././././.).)./.).).).).).)././././.",
"H.O.O.G.+.).).).).).).).).).)./././././././././.)./.).).).).).).)././././././././././././.).).~.O.G.G.o.^.).)./././././././.^./.).).).).).).).).)./././././././.",
"Q.G.).(.O./.).).).)./.).)./././././././.^./././././.).).).).).).).).)././././././././.].).K.]._.O.^.^.O./.).).)././././.^./././.).).).)./.Q._.)././.).)././././.",
"/././././.`.).).).).).).).).).)./.)./.).)./.)././.).).).).).).).).).)././././././.^.].| 1 1 1 m [./.`././.).).).).).)./.)./.)././.).).H.~.@.Q.!.)./.).).)././.).",
"/./.).)./.).).).).).).).).).).)././.).)././.).)././.).).).).).).).).)././././././.].Z.1 ! ! ! < y _.).).).).).).)./.)./.).)./././.).).o.Q./.+.+.[./.).).).).)./.",
"/.).).).).).).).).).).).).).).)./.^./.).).).)./.).).).).).).).).).).).)./.)././._.^.3 / ] ~ ~ ^ < s {.(.).).).).)./.).).).).).).).)./.(.(._.(./.).).).)./.).).).",
").).).).).).).).).).).).).).).).(.H.o.^.^.).).).).).).).).).).).).).).).)./././.{.a ( ] ^ ^ ~ ~ ! 4 }.(.).).).).).).).).).).).).).).).)./.).).)./.).).).).).).).",
").).).).).).).).).).).).).).).).@.H.H.o.G.[.).).).).).).).).).).).).).).).)./.].Z.2 ] ^ ^ ~ ^ ! < ) ]./.).).).).).).).).).).).).).).).).).).).).).).).).).).).).",
").).).).).).).).).).).).).).).).~././.Q.(.).).).).).).).).).).[.H.!.).).`././.{.a ! / ^ ^ 6 < 1 } _.).).).).).).).).).).).).).).).).).).).).).).).).).).).).).).",
").).).).).).).).).).).).).).).).).).).).)./.).).).).).).).[.Q.O.O.G.O.(./././._.5 ^ / ~ 2 + _ ].]./.).).).).).).).)./.).).).).).).).).).).).).).).).).).).).).).",
"/.)././.).).).).).).).).).).).)././.)./././././.).).).).).).Q.O.).(.+.^././.].[.6 / ^ 6 1 K..X_.K./.).).).).).)././././././.)././.).).).).).).).).)././././././.",
").).).).).).).).).).).).).).).).).).).).).).).).).).).).)./.).).)./.).{.}.).F.n 3 [ ! 6 & p } J.{.}._./.).).).)././.).).).).).).).).).).).).).).).).).).)./.).).",
"/./.).).).).).).).).).).).).).)././././././././.).).).).)./.)././.{.{.| y * 8 : & ! 6 < : t 8 % * i F.}._.).).).(.H./.).)././././.).).).).).).).).).).)././././.",
")./.).).).).).).).).).).).).).)./.)././././././.).).)./././.^.{.{...* 8 *.j.N.c.H 8 1 w y.N.N.N.j.t # 5 F.|./.O.G.o.G.H.)./.).)./.).).).).)./.).(.O./.)././././.",
"/./././.(.).).).).)./.).).).)././././././././././.).)._././.}.F.* 8 ;.N.N.N.M.m.N.N.M.M.N.N.n.M.N.N.B.*.# y [.$.Q./.O.Q.)././.^./.)./.).).).).O.G.O.G.O././././.",
"/././././.).).).).).).).).)././././././././././.).)./.Q.[.}.i # -.N.N.N.N.N.c.m.N.N.N.m.k.M.m.d.x.N.N.N.B.r + X.}././.).)././././././.).).).).G.Q.[.H.H././././.",
"/././././.(.)./.).)./.).)./.)./././././././././.).~.O.$.!.* 9 B.N.x.M.N.N.m.c.N.N.N.N.M.d.f.N.l.i.f.M.n.x.N.;.X p }.K././././././././.).).).).).).)././././././.",
"/./././.).H.~./././.)./.)./.)././././././././.^.).@.`.F.+ &.N.n.k.M.c.c.n.f.M.N.N.N.N.m.d.p.x.m.p.p.g.M.x.g.N.V.$ a {.^././././././././.).)././././././././././.",
"/././.^.+.G.G.O.(.)./.).).).)./././././././././.(.`.J.+ -.N.l.f.m.c.f.k.f.z.N.N.N.N.N.l.d.d.p.m.g.p.p.p.M.f.e.m.N.% a }.K././././././.).)./._.)././././.^./././.",
"/././.^.O././.O.(.)./.).).)./././././././.)././.].K.+ ;.N.k.d.v.n.f.l.l.g.c.N.N.N.N.c.f.f.d.p.l.z.i.p.p.d.m.u.e.c.N.% p }.^./././././.(.Q.o.!././.).)./././././.",
"/./.)./././.).`.)././.).)./.)././././././.^././._.+ -.N.f.f.s.n.k.k.l.k.y.n.n.N.N.c.f.f.d.d.p.d.v.w.p.p.e.l.v.w.e.c.V.X | {.^././././.o.~.Q.O.O._./.)./././././.",
"/./././.).).).).).)./.).)./.)./././././.).).^.{.4 &.N.f.l.0.v.l.k.k.l.g.s.x.k.x.l.f.f.f.d.d.p.p.z.0.p.p.p.e.c.y.i.w.n.j.+ /.)./././.).Q.(.[.(.!.).).).)././././.",
"/./././.).).).).).).).).).).)./././././.).K.}.p 8 N.f.k.a.s.c.f.k.k.l.0.z.l.k.l.l.k.f.f.d.p.p.e.k.y.i.p.p.e.d.z.9.p.w.N.F * }././.).).)././.).).).).)./././././.",
"/./././.).).).).).).).).)./.)././././././._.F.# V.k.f.f.2.x.f.k.k.l.f.4.x.k.k.l.k.k.f.f.d.p.p.i.d.s.w.p.i.p.e.l.0.w.e.i.M.% ..]./././././.).).)././.).)./.).)./.",
"/././.).).).).).).).).).).).).)././.).)./.{.4 -.c.g.l.8.s.x.f.k.k.l.y.y.l.f.l.k.k.k.f.f.d.d.p.i.p.s.9.p.p.p.e.d.s.7.p.e.l.;.& ]././././.).).).).).).).).)./.).).",
"/./.).).).).).).).).).)./.)././.G.^.)./.}...8 M.d.k.g.2.l.f.f.f.k.l.8.s.k.f.k.k.k.k.f.f.d.d.p.p.p.g.6.p.i.i.i.e.f.2.u.i.e.m.8 } {./.).).).).).).).).).)././././.",
").)./.).).).).).).).).)./.[.~.G.o.G.G./.].* ;.l.d.k.8.0.k.f.k.k.k.f.2.k.f.k.k.k.k.f.f.d.d.p.p.i.e.g.2.i.p.i.i.e.f.4.7.p.e.f.-.1 {./.).).).).).).).).).).).).).).",
"/././.(.).).).).).).).).)._.H.O./.H.O.]...8 n.d.f.g.<.g.k.f.f.f.k.a.2.k.f.k.k.k.k.f.f.d.p.p.p.p.e.p.2.u.i.i.i.e.p.y.1.e.e.e.l.% F.]./.).).).).).).)./././././.).",
").).).).).).).)./.).).).)././.(.)./.(.}.5 *.l.d.f.q.3.k.d.f.f.f.k.q.0.f.f.f.f.f.f.f.f.d.d.p.p.i.i.p.2.w.p.i.i.e.i.a.1.w.e.e.l.t i }././.).).).).).).).)./.).).).",
").).).).).).).(.~./.).).).).).)././._.K.1 l.d.f.f.1.0.f.d.f.f.f.k.8.q.f.f.f.k.k.f.f.f.d.p.p.p.i.e.p.2.q.p.e.e.i.i.p.2.8.i.e.p.:.4 ]./.).).).).).).].(.H./.).).).",
"/./././.).).H.H.o.H.G.).)./././././.{.p w l.d.g.g.<.a.d.d.f.f.f.f.1.y.f.d.f.a.s.l.d.d.d.p.p.i.p.e.p.2.9.p.i.i.i.e.p.2.6.e.i.i.y.* /.).).).).).).^.O.G.+.G.(././.",
").).).).).[.+.G.).H.O./.).).).)././.}.5 H k.f.P 5.2.a.d.d.f.d.f.g.1.u.d.f.f.3.H z.f.d.d.p.p.i.i.e.i.2.9.i.e.i.e.e.p.8.3.e.i.e.d.% J.].).).).).).(.o.(.(.+.H.).).",
").).).).).).).).).).).).).).).)./.).].4 t.f.p.H % 4.p.d.d.d.d.f.p.<.u.d.d.a.P . r x.p.g.p.p.p.i.e.i.2.9.p.e.e.i.e.i.8.1.e.i.e.p.8 X.].).).).).)./.).).).(.).).).",
").).).).).).)./.).)./.).).).).)./.).K.% s.d.q.q o =.d.d.d.d.d.f.u.<.u.d.d.<.S = = s.d.p.p.p.i.e.i.i.1.9.p.e.e.i.i.i.8.1.w.i.e.p.8 | ]./.).).).)././.).).).).).).",
")./.).).).).).).).).).).).).).)./.].O.> p.g.5.dXKXkXd.p.d.d.d.f.q.<.u.d.y.G lXLXKXkXf.p.p.i.i.e.i.w.1.9.i.e.i.e.e.i.7.1.w.e.e.p.> X.]./.).).).).).).).)././././.",
"/./././.).).).).).).).).).).)././.].X.$ p.w.J LXKXnXb.p.d.d.p.d.q.1.u.d.I >.LXLXMXqXC.p.p.i.e.e.e.w.1.9.i.e.e.i.e.i.6.1.e.i.i.9.$ F.]./.).).).)./.).)./././././.",
"/./././.).).).).).).).).)./.)././.].Z.$ u.Y #.MXKX8XoXp.p.d.d.d.9.<.p.q.P 6XNXLXqX7XcXl.i.i.e.e.i.w.1.9.i.i.i.i.i.e.1.2.e.e.i.P & /.`./.).).).).)./.)./././././.",
"/./././.).).).).).).).).)./.)./.(.!.X.# I I 6X3X>X8XBXf.p.p.p.d.q.<.i.<.J 9X>X>X2X8XmXs.p.e.r.e.i.9.<.w.i.e.i.e.i.w.1.7.e.e.w.S 4 |./.).).).).)././.).)././././.",
"(./././.).).).).).).).).).)././.(.o.(.& G A &X7X2XnX*XF f.p.p.d.9.1.6.D . &X7X1X0XMXOX# f.i.e.r.e.9.1.e.e.i.i.e.i.9.<.9.i.9.9.> } {././.G./.).).)./.)./././././.",
"/./././././.).).).).).).)./.)./.(.H. X5 F A % <X6XfXy F k.p.p.p.q.<.4.=.0 w <X<X<X XS w s.e.Y Y R.4.6.e.i.i.e.e.e.6.<.e.9.7.G & _.[.G.G.+.G.G._.).).).)././././.",
"/./././././.).).).).).).).)././././._.J U W.hXu.p.2.d.k.p.d.d.d.i.6.i.d.f.d.p.d.f.d.d.d.Y Z T dXIXT Y i.e.e.d.d.r.<.9.9.1.9.$ } ].).H.G.).!.+.)././././.(./././.",
"/././././.).).).).).).).).).)./././._.J Z :X:XI 3.P 6.u.w.0.2.4.4.G G 3.q.i.u.2.5.5.p.r.Z Z T T T U r.p.e.d.c.d.7.1.2.<.9., 5 }.K.)././.).).).)./.)././././././.",
"/././././.).).).).).).).)./.)./././.).K.J R D 7.q 9 p.u.G .   .         :.f.p.q   r d.e.I L U L L I i.e.i.f.f.6.<.<.6.9., 1 ].^./.).)./.).).).)././././././././.",
"/./.)././.).).).).).).).).).)././././.). Xp O I 2.F : > >               % : ;   9 f.e.i.i.i.w.6.6.w.e.i.i.e.7.<.1.9.I ; 4 ]././.).).).).).).).).)./.)./././././.",
")././.(.H.o.).).).).).).).).).).)./././.K. Xp X D q.S .                     X *.f.e.e.e.i.i.9.1.9.p.e.w.r.I 1.r.6.A # p {./././.).).).).).).).).).).).).).)./.).",
"/././.@.G.G.+.G.[.).).).).).).)././././././.{.,.+ > P q.H 0 # .   . X % 9 *.d.p.e.e.i.i.e.6.<.6.r.9.6.6.9.9.P q $ 4 F.}.K./././.).).).).).).).).).).).).)./././.",
").).).G./._.Q.!.).).).).).).).).).).).)./.)./.]._.p & > S 5.0.y.4.5.t.y.w.9.7.9.w.w.r.9.2.6.6.9.9.9.1.P S ; # a F.}.].).).).[./.).).).).).).).).).).).).).).).).",
")././._.).)._.).).).).).O.(.).)././././././.)././.}.(.' 5 & ; , S D G P I I 1.<.1.1.<.<.P G G S q : # & 5 7 %.| | /.).).).).)././.).).).).).).).).).)./././.)./.",
"/.)././.).).).).).).G.G.+.G.O.[./././././.).).)./.o.G.$.~.Q.X.p y * * & $ $ $ # $ # $ & + @ @ < - k 3 ` { { [ < 4 ^.).K.).)./.).).).).).).).)._.).)./.)./.).)./.",
").).).).).).).).).[.G.G.).H.O.].).).).).).).).)./.O.(.(.O.Q.].{.}.{.]./.K.J.1 < ( W W c x / { { v #X6 W W Q 2 Y.lXI.'.(.).).).).).).)./.(.H.o.(.(.).).).).).).).",
").)././.).).).).).).).).)./.)./.)./.)./.)./.)./.).).)./.).)././././././.].D.rXI.7 Q ( N c ` / / 7 +X3 E W ( a xXzXxX X+.)./.).).).).).).@.~.H.o.G.)./.).)./.).).",
"/././.).).).).).).).).).).)././.).).).)././././.).).).).).).).)./.).).).Q. XFXDXI.2 E x x Q Q Q ~ #X6 2 2 2 u XXgXxXDXtXK.).).)./.).).).~.).[.!.(.[.)././.).)./.",
").).).).).).).).).).).).).).).).).).).).).)././.).).).).).).).)././._.A.yXDXjXXXT.1 < c x E Q Q 7 #Xg Q < @ y >.XXxXSXlXX.].).).).).).)./.).).).)./.).).).).).).",
")./.).).).).).).).).).).).)././.).)./.)././././.).).).).).).).).).).].F.FXSXxXR.,.y p M *Xj @XN c *XM x +Xj X.,.R.oXP.wXn K.).)./.).).)./.).).).).)./././.)././.",
"/.)./././.).).).).).).).).).).).Q./.'./././././.).).).).).).).).).).]. .pXdXXXR.,._.D.5 B OX5X=X#XM M #X+Xl Z.K.s rXJXLXCX.._././.).).).).).).).).).)./.)././.).",
"/./././.(.).).).).).).)./.).Q.Q.@.~.G././././././.).).).).).).).).).K.V sXVXrXs J.].^.v #XOX*X$X@Xz +X$XOXl | '.V IXLXLXLXtXD.)././.).).).).).)././././././././.",
"/./././.).).).).).)./.)./.[.G.O.(.Q.o././././././.).).).).).).).).]...GXLXLXLXeXZ.).}.) +X+X=X5X$Xx %X#X+Xf ) |.m bXZXwXrX#.K.[./.).).).).).).)./././././././.^.",
"/././././.).).).).).).).).)./.^.)./.Q././././././.).).).).).).).).]...JXZXvXJX;XZ..XZ.j z OX$X=X+Xz $X+X%X=XM Z._ iXrXXXhXI. ._.).).).).).).).)././././././././.",
"/.^././.).).).).).).).).).`././././././././././././.).).).).).)./.].| P.U.I.lXpX| _ M -X+Xl x x z OX+XOX%X=X5Xj iXLXpXyXyXsXtXS.)./.).).).).).)././././././././.",
"/././././.).).).).)./.).).).)./././././././././././.).).).).).)./.@.#.U.xXU.vXLXJXN =X=X%Xx l z z x f z #X%X%X,XGXuXIXGXIXLXZXX.]././.).).).).).)./.)./././././.",
"/./././.).).).).).).).).)././././././././././././.).).).).).).)._.@.tXVXpXvXPXeX;XN %X=X$X+X= _ | | _ g OX#X=Xl m C ZXIXJXJXiX| ]././.).).).).).)././.)././././.",
"/././././.).).).).).).).).).)./././././././././././.).).).).).).[.Z.uXLXLXPXPXB U.d f +X+Xf | }.].].{._ f #Xl u T.yXZXiXVX;XV A.).).).).).).).).(.).[./././././.",
"/./././.).).).).).)./.).)./.)././././././././././.).).).).).).'._.A.L.CXVXCXvXJXP.>.Y.f k p {.K././.^.].n h 0 jXd rXbXi #.) D.'.).).).).).).(.(.o.H.(./././././.",
"/././././.).).).).).).).)./.)././././././././././.).).).).).).)./.].X.V B wXu iXB yXXX$ = {.).).).).).).).4 s gXcXeXi K.'.].)./././.).).).[.O.O.Q.G.o.)././././.",
"/./.).).).).).).).).).).).).).)./.).)./.).).)./.)./.).).).).).).)./.].A.S.X.'.i lXzXT.p K.].(.).).).).).)._.s XXSXlXZ.{./././.[./.).).).).).H.H.).(.H./.)./.).).",
"/././.(.(.O.).).).).).).).).)././.)././.)././././.).).).).).).).).)./._.[.]./.L.DXjX>.Z.{.K.).).).).).)./.]._ R.zXlX| [././././.).).).).).).[.[.).).).)././.)./.",
").)./.o.G.O.O.G.).).).).).).).).).).).).).).).).).).).).).).).).).).).)./.).A.rXDXjX>.D._.).).).).).).).).]._ T.jXDXL.[././././.).).).).).).).).).).).).).).).).",
").)./.G.(.).G.!._././.).).).).).).).).).)./.).).).).).).).).).)./././././.{._ eXcXT.K ).[.).).).).).).).(.(.@.s I.rXC S.].)././.).).).).).).).).).).).).).).).).",
"/.).).).).).).).).).).).).)./.)./.).).).).).).).).).).).).).).)././.).{.{.'.#.iXpXsXm K.).).).).).).).[.G.$.) uXIXGXZX .'./.].).).).).).).).).).).).).).).)./.).",
").).).).).).).).).).).).).).).).).).).).).).).).).).).).)./.).).^._.'.) p y C JXCXHXV K._.).).).).).).).(.).Z.B V B b = m m p K._.).).).).).).).).).).).).).).).",
"/.).).).).).).).).).).)././.`.).).)./.)./.).)./.).).).).)./././.~.X.n pXHXHXwX= O = 4 F._.).).).).).).).).[...= = o C CXLXLXbXn J._.).).).).).).).).)./.)./.)./.",
")./.)./.).).).).).).).!.Q.@.!.^./.)./.).).)././.).).).).)._.Q.o.J.b HXLXLXLXLXvX= = wX#.^.).).).).).).)._.Z.eXeXo C IXIXLXLXLXCXi /.[./.).).).).).).).)./././.).",
").).).).).).).).).).).o.H.Q.O.O.).).).).).).).).).).).).).).!.(.) pXLXLXLXLXJXPXeX+ C m D.).).).).).).)._.Z.b = = VXJXJXPXLXLXLXwX| (./.).).).).).).).).).).).).",
"/./.).).).).).).).).).(./._.Q.(.)./.)././.)././.).).).).)./.).{.i eXuXuXuXuXwXwXeXo   o K._./.).).).).K.]...o o b wXeXeXwXwXwXuXB p ~.G.Q.).).).).).).)././././.",
"/./.).).).).).).).)./.).)./.)././././.^././././.).).).).)././.^.a uXVXpXuXuXuXuXaXvXpXB ) {./.).).).).).].i wXVXvXiXiXiXiXiXVXCXaXa _.o.Q._.).).).).).)././././.",
"/./.).).).).).).).).).).)./.)././././././././././.).).).).).)./.n L.tXL.L.L.L.L.eXP.L.n | {./.).).).).)._...n  .m  ...m  . . . .n .._./.`./.).)./.).).)././././.",
"/././.).).).).).).)./.).)./.)./././././././././././.).).).)./._.).D.S.A.A.A.A.D.S.A.D.K.)././.).).).).).).]._.).`.`./.).'./.'./.`._././././.).)./.).).)././././.",
"/./.^././.).).).).)./.).).).)./././././././././.)./.).).).)././.).).).).).).).).).).).)././.)./.).).).).)./.).)././.^./.).^././.`./.).)./.).).).)./.)./././././.",
"/./.)././.).).).).).).).).)./././././././././././.).).).).).).).).).)./.).)././././././././././.).).).).).).)./././././.)./././././.).).).).).)./.).)./././././."
};
