/* XPM */
static char *player_l8_resized[] = {
/* columns rows colors chars-per-pixel */
"80 80 256 2 ",
"   c #010100",
".  c #090701",
"X  c #19180C",
"o  c #271801",
"O  c #22191A",
"+  c #192308",
"@  c #142E12",
"#  c #292606",
"$  c #362804",
"%  c #383803",
"&  c #283619",
"*  c #272E10",
"=  c #2E2E2C",
"-  c #241F20",
";  c #452600",
":  c #472C03",
">  c #522C00",
",  c #592F00",
"<  c #503501",
"1  c #693A00",
"2  c #743F00",
"3  c #135815",
"4  c #114A11",
"5  c #2C4A19",
"6  c #177014",
"7  c #21731A",
"8  c #1C512C",
"9  c #355028",
"0  c #1F7D21",
"q  c #585700",
"w  c #4F4706",
"e  c #784800",
"r  c #725200",
"t  c #686601",
"y  c #757400",
"u  c #435A2A",
"i  c #48522F",
"p  c #4A6734",
"a  c #59773B",
"s  c #536C36",
"d  c #707430",
"f  c #615334",
"g  c #173455",
"h  c #162F47",
"j  c #335155",
"k  c #264C75",
"l  c #2B516F",
"z  c #2B605F",
"x  c #52554B",
"c  c #5D7743",
"v  c #5E674F",
"b  c #647545",
"n  c #6B7152",
"m  c #696867",
"M  c #777575",
"N  c #555E60",
"B  c #CF3927",
"V  c #864A00",
"C  c #885A00",
"Z  c #995701",
"A  c #9C6702",
"S  c #897600",
"D  c #8B7000",
"F  c #A86500",
"G  c #BA7700",
"H  c #AF7003",
"J  c #927D2F",
"K  c #AE671F",
"L  c #C8450F",
"P  c #CC7B00",
"I  c #CA7200",
"U  c #D67D00",
"Y  c #CA6A00",
"T  c #E15E26",
"R  c #847857",
"E  c #EB4F5B",
"W  c #BA2B2B",
"Q  c #1A8B0C",
"!  c #25940D",
"~  c #2DAE15",
"^  c #279326",
"/  c #2BA92B",
"(  c #34B72A",
")  c #1E9923",
"_  c #68873B",
"`  c #72913C",
"'  c #55B137",
"]  c #31C631",
"[  c #34C01B",
"{  c #6B8646",
"}  c #769745",
"|  c #748556",
" . c #70904A",
".. c #7AA34A",
"X. c #74B956",
"o. c #7CBB56",
"O. c #77BA57",
"+. c #72B353",
"@. c #79836B",
"#. c #5D8C45",
"$. c #7BC35B",
"%. c #54C742",
"&. c #40A246",
"*. c #8D8900",
"=. c #999700",
"-. c #AE8C00",
";. c #BAB900",
":. c #ADA300",
">. c #A88B37",
",. c #859C3D",
"<. c #C88101",
"1. c #DA8500",
"2. c #DD8A00",
"3. c #D68500",
"4. c #DC9600",
"5. c #C79801",
"6. c #E48C00",
"7. c #E98801",
"8. c #E49200",
"9. c #EB9301",
"0. c #EB9C00",
"q. c #E59C00",
"w. c #F49B00",
"e. c #FC9E00",
"r. c #F49600",
"t. c #F68B0C",
"y. c #CFAD05",
"u. c #E8A900",
"i. c #FEA200",
"p. c #FEAB00",
"a. c #F4AA00",
"s. c #EBB600",
"d. c #FEB300",
"f. c #FEBB00",
"g. c #F4B700",
"h. c #C9A13C",
"j. c #D0CC00",
"k. c #FFC300",
"l. c #FFCA00",
"z. c #F4C800",
"x. c #FED300",
"c. c #FEDB00",
"v. c #F4D600",
"b. c #EFD206",
"n. c #EAEC00",
"m. c #FEE400",
"M. c #FDED00",
"N. c #F0E600",
"B. c #FFF400",
"V. c #FFFE00",
"C. c #EAC92A",
"Z. c #BA9958",
"A. c #85A849",
"S. c #8FBA49",
"D. c #8BB44B",
"F. c #92BC4D",
"G. c #86AB51",
"H. c #83BE56",
"J. c #8BBD56",
"K. c #88BA55",
"L. c #94BC54",
"P. c #95BC54",
"I. c #9FA444",
"U. c #889477",
"Y. c #8B9271",
"T. c #AA9974",
"R. c #94AE6C",
"E. c #AEA973",
"W. c #809947",
"Q. c #D2AA54",
"!. c #DFB263",
"~. c #95C34E",
"^. c #8CC156",
"/. c #8CC158",
"(. c #85C459",
"). c #95C356",
"_. c #9AC457",
"`. c #9CCA55",
"'. c #95C458",
"]. c #9BC558",
"[. c #9ECA5A",
"{. c #94CA5C",
"}. c #98D05C",
"|. c #A1CD5B",
" X c #A0C757",
".X c #A5D25D",
"XX c #A9D55D",
"oX c #ABDA5F",
"OX c #ABD961",
"+X c #F7CE75",
"@X c #EDCE5D",
"#X c #2B5888",
"$X c #315D8C",
"%X c #386897",
"&X c #336292",
"*X c #3769A5",
"=X c #3B73A9",
"-X c #3E77B2",
";X c #365FAB",
":X c #417BB7",
">X c #4A698B",
",X c #457EC3",
"<X c #837D84",
"1X c #F3758F",
"2X c #1594B3",
"3X c #4481BC",
"4X c #01A6D7",
"5X c #00A4E1",
"6X c #06BEED",
"7X c #0092C0",
"8X c #4381C6",
"9X c #17D6FF",
"0X c #04CBFA",
"qX c #2FD2FC",
"wX c #6EECF9",
"eX c #68D4DE",
"rX c #61D9BA",
"tX c #969695",
"yX c #8E8E8D",
"uX c #A89F8E",
"iX c #AFA78D",
"pX c #A7A6A8",
"aX c #B8B6B9",
"sX c #AFADAE",
"dX c #9A9A99",
"fX c #C8B38B",
"gX c #DFAF9C",
"hX c #B1D4AD",
"jX c #F8D98D",
"kX c #FFEA9A",
"lX c #FFE990",
"zX c #F4E88A",
"xX c #D4CCB6",
"cX c #EED8A6",
"vX c #FFF2B3",
"bX c #FEE9AB",
"nX c #BDBAC2",
"mX c #C1BEC6",
"MX c #F7BDC8",
"NX c #B4F8FF",
"BX c #A4E0E5",
"VX c #99D8ED",
"CX c #C6C6C9",
"ZX c #D7D8DC",
"AX c #D0CED5",
"SX c #F0D8CF",
"DX c #FFF4C5",
"FX c #FFFDD4",
"GX c #FFF2D9",
"HX c #F0E4CF",
"JX c #E2DEE6",
"KX c #E7E7E9",
"LX c #FEFEFE",
"PX c #F5F5F7",
"IX c #EDF0F2",
"UX c #DDDAE2",
/* pixels */
"_._._._._._._._._.]._.].]._.]._._._._._._._._._._._._._.].].].].].]._._._._._._._._._._._._._.].].].].].].].]._._._._._._._._._._.].].].].].].].].].]._._._._._.",
"_._.H.^.`._._._.].].].].].].]._._._._._._._._._._._.].].].].].].].].]._._._._._._._._._._._._.`.].H.J.`._._.].]._._._._._.)._._._.]._.].].].].].]._.]._._._._._.",
"H.o.o.H.O.`.].].].].].].]._.]._._._._._._._._._._._.].].].].].].]._.]._._._.)._._._.'.).)._.{.^.o.o.H.+.).].]._._._._._._._._._._._._._.].].].].]._.]._._._._._.",
"^.H.].'.o.].].].].]._.].].]._._._._._._.)._._._._._.].].].].].].]._._._._._._._._._.[..X.X|.].^.H._.).o._.]._.]._._._._._._._._._.]._.].].^.`.].]._.].]._._._._.",
"].]._.].].].].].].].].].].].].]._._._.].]._._._.]._.].].].].].].].].]._._._._._.).|.G.u u { ].{._._._.].].].].].].]._._._._.]._._.]._.J.(.X././.]._.].].]._._.].",
"_._._.].].].].].].].].].].].].]._._.].]._.].].]._.].].].].].].].].].]._._._._._.[.A.5 6 7 4 5 A.|.).]._.].].].].]._.].]._._._._.].].].O.H.'.o.o. X_.].]._.].]._.",
"_.].].].].].].].].].].].].].].].]._._.].].]._.].].].].].].].].].].].].].]._._.]._.5 ( / ^ / 0 5 P.].].].].].].].]._.].]._.].].].].].].).'. X'._.].].].].].].].].",
"].].].].].].].].].].].].].].].].).H.O.).).].].].].].].].].].].].].].].].]._._..X9 ) ] ( ^ ^ / 3 } |._.].].].].].].].].].].].].].].].].]._.].].].].].].].].].].].",
"].].].].].].].].].].].].].].].].+.H.(.o.H.].].].].].].].].].].].].].].].].].|.} 7 ] / / / / ^ 4 A.|.].].].].].].].].].].].].].].].].].].].].].].].].].].].].].].",
"].].].].].].].].].].].].].].].].^.).].^.).].].].].].].].].].]. XH./. X].].]..Xu ) ( / / ^ 3 5 a [._.].].].].].].].].].].].].].].].].].].].].].].].].].].].].].].",
"].].].].].].].].].].].].].].].].].].].].]._.].].].].].].].]./.o.o.H.o.'.].].L.5 ] / ^ 0 @ s P..X_._.].].].].].].].].].].].].].].].].].].].].].].].].]._.].].].].",
"_.'._._.].].].].].].].].].].'.]._._._._._._._._.].].].].]. X/.o.].'.O.).'.[.W.7 ] ) 0 & A.OX].P._._.].].].].]._._._._._._._._._._.].].].].].].].].]._._._._._._.",
"].].].].].].].].].].].].].].].].].].].].].].].].].].].].].].].].].]._. X.XoXA.7 ( ^ 3 u L.K..XXX|.].].].].].].].].].].].].].].].].].].].].].].].].].].].].].].].",
"_._.].].].].].].].].].].].].].]._._.]._._._._._.].].].].].].].]._.|.XXP.{ u * 3 ( ^ 4 # < * 5 p } .X.X]._.].].].).H.`.].]._._._._.].].].].].].].].].].]._._._._.",
"]._.].].].].].].].].].].].].].].]._._.]._._._._.].].].].].]._.|.XX..9 * q :.<.: 4 @ @ <.B.n.;.S % * c ].XX]._.H.H.O.H./.]._.]._._.].].].].].].].'.O._.]._._._._.",
"_._._._.].].].].].].].].]._.]._._._._._._._._._.].].].].].P.XXK.9 % =.N.V.V.M.b.:.;.b.B.V.V.V.V.V.j.q + a XX[.+.^._.o.J.].].)._._.]._._.].].].o.H.o.H.o._._._._.",
"_._._.)._.].].].].].].].]._.]._._._._._._._._._._.]._.^. XXXs # =.V.V.V.V.m.m.V.V.V.B.c.V.c.f.m.V.V.V.j.w & G..X)._.P._.]._._._._.]._.].].].].H.^. XJ.H._._._._.",
"_._._._._.].].].].].].].]._.]._._._.)._._._._._._.(.o.$./.& q n.V.M.V.V.V.c.V.V.V.V.B.p.x.V.f.p.l.V.m.M.V.=.X _ XX)._._._._._._._._._.].].].].].].].].]._._._._.",
"_._._._.].H.(.].'.].].].].].]._._._._._._._._._._.+.{.+.@ *.V.m.x.B.B.V.c.m.V.V.V.V.B.d.p.m.m.p.p.f.B.l.f.V.n.# p XX_._._._._._._.]._.].].]._.]._._._._._.)._._.",
"_._._.).o.H.H.o.).].].].].]._._._._._._._._._._._.[.G.+ ;.V.l.l.B.x.l.x.g.B.V.V.V.V.c.d.d.d.B.a.d.i.f.B.d.a.m.V.% u XX_._._._._._.]._.].].'.`.].].]._._._._._._.",
"_._._.).o._._.o.).`.].].]._._._._._._._._._._.P.|.G.+ j.V.f.f.B.x.k.l.f.z.V.V.V.V.B.k.d.d.i.x.z.i.d.i.f.M.a.i.x.V.% u OXP._._._._.]._.).^.X.)._.].].]._._._._._.",
"_._._._.]._.]._.].]._.].]._.]._._._._._._._._.[.J.+ y.V.k.g.v.c.k.k.l.u.c.B.V.V.B.l.d.f.d.p.f.v.w.p.p.e.k.v.w.e.l.V.% a XX)._._._.]._.X.H.^.o.o. X_.]._._._._._.",
"_._._._.].].].].].]._.].].].]._._._._._._._._.[.& :.V.f.f.s.m.f.k.l.k.u.c.l.B.m.l.f.f.d.d.p.i.x.u.p.p.p.e.c.u.e.e.x.n.o ..|._._._._._.^.'.[.)./.].].].]._._._._.",
"_._._._.].].].].].].].].]._.]._._._._._._.).XXu t V.f.k.q.v.l.k.l.l.g.s.x.k.l.k.k.f.f.f.d.d.i.k.u.w.p.p.i.p.v.8.p.r.m.;.+ ]._._._.]._.].]._.].].].].].]._._._._.",
"_._._._.].].].].].].].].]._.]._._._._._._..X} % B.k.k.a.u.c.f.k.k.l.q.z.l.k.l.l.k.f.f.f.d.p.i.d.s.0.p.i.i.e.k.u.r.p.r.B.t u OX)._.].].].].]._._.]._.].]._.]._._.",
"]._.].].].].].].].].].].].].]._._._._.]._.{.* j.x.f.k.2.v.k.k.k.k.k.4.l.k.k.k.l.k.f.f.d.d.p.p.i.g.8.p.p.p.i.i.z.2.i.e.p.N.# G.[._.].].].].].].].].].].].]._.].].",
"_._.].].].].].].].].].].].].].].H.).]._.XXs t B.d.k.0.u.x.f.k.k.l.a.u.l.k.k.l.k.k.f.f.d.p.p.i.i.g.8.i.p.i.i.e.k.4.9.i.r.c.*.9 XXP.].].].].].].].].].].]._._._._.",
"].].].].].].].].].].].].].].^.H.O.H.H.].).* v.k.f.f.3.z.k.f.f.f.l.0.u.k.f.k.k.k.k.f.f.d.d.p.p.i.d.4.i.p.i.i.e.p.u.6.i.i.i.v.* D.|._.].].].].].].].].].].].].].].",
"_.)._._.].].].].'.].].].]. XH.o._.J.X.XXs y m.d.k.0.2.l.f.f.k.k.k.4.a.k.k.k.k.f.f.f.f.d.p.p.p.e.p.4.0.i.i.i.i.e.g.1.r.i.r.l.y p .X_._.].].].].].].]._._._._._._.",
"].].].].].].].].].].].].].]._.].].'._.].& j.f.f.f.2.u.k.f.f.f.k.d.2.g.f.f.k.k.k.f.f.d.d.d.p.i.i.p.q.9.p.i.i.i.e.d.4.6.e.e.p.y.& |._.].].].].].].].].].].].].].].",
"].].].].].].].].(._.].].].].].].]._..X{ q c.d.f.a.3.g.f.d.f.f.k.a.2.f.f.f.f.f.f.f.f.d.d.p.p.i.i.i.0.6.i.i.i.i.e.p.q.6.e.e.e.k.5 G.{.].].].].].].]. X/./. X].].].",
"]._._._._.].H.^.O.H.H.].]._._._.]._.XX9 -.k.d.f.0.2.f.d.f.f.f.f.u.2.f.d.f.f.z.k.f.f.d.p.p.p.i.i.i.u.2.i.i.i.e.e.i.0.1.r.e.e.d.t { .X_.].].].].].].o.H.o.o.'.]._.",
"].].].].]. XO.H.].H.o. X_.]._.]._._.).5 s.d.g.s.6.8.f.d.d.f.f.f.0.2.f.d.f.d.<.z.f.d.d.d.p.i.i.e.i.0.6.e.i.e.i.e.i.w.3.r.i.e.d.S p XXP.].].].].]._.X.'.'.O./.].].",
"].].].].].].].]. X]._.].].].].]._..X} w l.p.u.G 4.8.f.d.d.f.d.f.8.8.d.d.f.q.Z t x.p.d.p.p.p.i.i.i.0.1.i.i.i.e.i.e.a.3.9.i.r.p.G 8 |. X].].].].]._._.].].).].].].",
"].].].].].].].].].].].].].].].]._.XXc r k.d.9.> S p.d.d.d.f.f.f.6.8.d.d.d.P >   :.f.p.p.p.p.i.e.i.9.1.e.i.e.e.i.e.w.1.9.i.i.p.G 5 .X_.].].].].]._._.]._.].]._._.",
"].].].].].].].].].]._.].].].].].).XXp D k.a.I O w g.p.d.d.d.d.d.2.8.d.f.8.F yXpXiXl.p.p.i.i.i.e.i.9.1.e.i.e.i.e.i.r.3.6.i.i.p.F 9 .X_.].].].].].].].]._._._._._.",
"_._._._.].].].].].].].].].].]._.).XXu A k.8.>.IXIXC.d.d.d.d.d.d.2.9.p.d.G !.LXLXNX+Xk.p.i.i.i.e.i.9.1.e.i.e.i.e.i.r.3.7.i.e.p.V u XX].].].].].]._.].]._._._._._.",
"_._._._.].].].].].].].].]._.]._._..X9 C k.P fXLXNXhXd.d.d.d.d.p.1.8.d.9.A BXLXLXqXeXc.a.p.i.i.e.i.6.2.e.i.e.i.e.i.9.3.9.i.e.e.2 a .X).].].].].]._._.]._._._._._.",
"_._._._._.].].].].].].].].].]._.).}.u V d.H eXLXwXqXC.p.d.p.p.g.1.8.g.I @.0XBXeX0X9XzXd.i.i.i.i.i.6.2.e.i.e.e.e.e.9.3.r.e.e.6.$ ..|._._.].].].].].].].]._._._._.",
"_._.)._.].].].].].]._.].]._.].].^.$.p e r.K 0X2X4X9X!.d.p.p.d.p.1.9.u.F N 0X*X7XqXwXN -.p.i.i.i.e.2.6.e.e.i.i.i.e.6.1.e.e.9.H * [._.[._.H._.].]._._._._._._._._.",
"_._._._._._.].].].].].].].].]._._.}.{ ; 3.: 5X5XqXVX- y.p.p.p.p.6.2.<.e   2X0X0XwXaX. q l.e.t.t.t.1.9.i.e.i.e.i.r.3.9.e.2.9., a .X_.J.H.O.H.H.]._._.]._._._._._.",
"_._._.)._._.].].].].].].]._._._._.].L.& G ; p rXrXE.q y.p.a.p.d.2.3.u.5.5.y.C.C.y.u.u.z.T T E MXSXT 0.i.e.i.d.i.6.1.9.2.9.F * ]._.].H.H.]./.o.`._._.]._._._._._.",
"_._._._._.].].].].].].].]._.]._._._.].K T gX!.p.r.6.d.p.p.f.d.f.e.9.p.f.p.p.i.p.p.p.p.7.B E E 1X1XB i.i.i.k.x.a.2.6.U 6.P o ..|.)._.].].].].].].]._._._._._._._.",
"_._._._.].].].].].].].].].].]._._.].L.L E 1X1XU <.<.6.i.3.H F A C e e r g.p.0.e $ S d.7.L B B B L 6.i.e.i.k.p.6.3.3.9.P o { .XP._.].]._.].].].].]._._._._._._._.",
"_._._._.].].].].].].].].]._.]._._._.].I.L 2 L 7.< *.i.r.e               5.q.G . + u.i.i.r.7.7.U 4.e.e.i.e.r.6.3.6.9.F o _ .X).]._.].].].].].].].]._.]._._._._._.",
"_._._.)./.O._.].].].].].].].].]._.].].|.].9 ; 9.3.C $ $ o           .         w s.i.e.e.i.i.9.3.9.i.i.r.9.1.6.9.U 1 * ...X).].].].].].].].].].].].].].]._.]._._.",
"_._._.X.H.H.O.H. X].].].].].].]._._._.P. X|.u o F 9.C X                   % -.f.i.e.i.e.i.9.3.6.w.r.8.6.9.9.P 2 o p ].|.P.]._.].].].].].].].].].].].].].]._._._.",
"].].].H._.`.^.^.].].].].].].].].].].]._._. XOX{ * > G u.<.r w % % % q C -.a.i.w.i.e.w.0.6.3.2.9.9.9.9.P Z , * p J.XX].].].].].].].].].].].].].].].].].].].].].].",
"]._._.].].].].].].].]._.o._.]._._._.]._._._.)..X].a @ $ r G 2.w.a.i.p.e.r.6.6.0.r.r.9.9.9.6.3.P F 2 ; * 5 8 { G.P.P._._._._._._._.].].].].].].].].].].]._._._._.",
"]._.].].].].].].].[.H.H.O.H.o.]._.]._.].].].]._.].(.{.#.9 & * $ > 1 2 V C Z Z Z V V V e , $ # @ @ g @ ' %.( ( 4 i  X]._.]._._.].].].].].].].'.].].]._.]._.]._.].",
"].].].].].].].].].].H.(.].J.o.|.].].].].].].].]._.X.'..X(.}._...{ a p u i 5 . @ 4 3 6 h g ) / ~ z ;X0 ( ( ~ 6 n iXD.~.{._.].].].].].]._._.H.X.'.'.].].].].].].].",
"_.].]._.].].].].].].].].]._._._.]._.].].]._.]._.].].].]._.].].|..XXXXX.XXX|.b p ! [ ~ 3Xz ' ( [ &.;X3 ! ~ ! s bXDXxXR.~. X_._.]._.].].'.X.(.J.O.H.].].].]._.].].",
"]._._._.].].].].].].].].].]._._._._.]._.]._.]._._.].].].].].].].)._.)._.).R.bXSXb Q ! &Xz ~ ~ ~ p ;X8 6 Q 6 d +XjXvXHXY.)._._._._.].].]./.]. X/.'.].].]._.]._._.",
"].].].].].].].].].].].].].].].].]._.].].].].].].].].].].].].].]._.].].L.R.DXbXkXZ.3 3 $Xk ! ~ ~ ^ ;X8 Q 4 @ i h.+XkXFXxXA.|._._.].].].].].].].].].].].].].].].].",
"].].].].].].].].].].].].].]._._.]._._._._.].'._.].].].].].].].].].'. XA.SXDXjX@X>.& 5 N N z z N z >Xl z %Xh ` ,.@XjXuXtXb F.].].].].].].].].].].].].].]._._.].].",
"_._._._.].].].].].].].].].].].`.^._.]._._._._._.].].].].].].].].{.`.`.Y.SXjXzX!.} G.G.9 M &X8X:X;XN N ;X&Xj ~.L.J T.ZXPXJX| _.].].].].].].].].].].].].].]._._._.",
"_._._._.].].].].].].].]._._.J.^.X.H.H._._._._._.].].].].].].].].].|.S.n sXuXZ.>.D.XX).z $X$X%X%X$Xk &X=X$Xk } XXs AXLXPXLXsXA.[._._._.].].].].].]._.]._._._._._.",
"_._._._._.].].].].]._.]._.|.H.o.).J.O._._._._._.].].].].].].].]._.`.| JXLXLXnXa  XP..Xc =X%X3X3X%Xk :X=X&Xg _ oXb mXJXpXuXU.A.`._.]._.].].].].].]._._.]._._._._.",
"_._._._.].].].].].]._.].].]._.).]._.L._._._._._.].].].].].].].].].F.U.LXKXIXKXM P.|.A.j #X$X=X3X=Xl =X&X:X:Xl A.A.yXsX!.kX!.M ~.].].].].].].].]._._.]._._._.)._.",
"_._._._._.].].].].]._.].]._._._.'.]._._._._._._.].].].].].].].].]._.| iXT.uXAXb ~.D.j ,X$Xl k #Xl $X&X#X=X:X,Xz W.PXmXiXiXsXnX} |._.].].].].].]._.].].].P._._._.",
"_._._._.'.].].].].].]._.].].]._._._._._._._._.].P.].].].].].].].|.+.M jXbXE.ZXKXY.j ,X:X-Xk k k k #Xh k =X-X,X&XAXAXKXZXKXLXLX@.~.].].].].].{._._._.]._._._._._.",
"_._._._._.].].].].].].].]._.]._._._._._._._._.).].].].].].].].].|. .sXiXiXaXKXCXnX#X,X-X=X#X= ` { { _ g #X=X-Xk m x tXPXIXJXJX@.F._.].].].].]._.].]._.]._._._._.",
"_._._._.].].].].].].].].]._.]._._._._._._._._._.].].].].].].].].`.} PXLXPXLXaXx n i j *X%Xg ` oX|.|.oX` g *Xj n J !.pXAXCXpXM ..|._.].].].]._.]._._.].]._._._._.",
"_.)._._._.].].].].].].].].]._._._.)._._._._._._.].].].].].].].].|.W.ZXKXJXZXCXiXZ.fXZ.h k a .XP._.`.)..Xv h < kXiXx KXM b { ..`._.].].].]. X_.^.X.^._._._._._._.",
"_._.].).].].].].].].].].]._._._._._._._._._._._._.].].].].].].].[.G.@.yXsX<XmXAXi cX@X# = .X].'.{.].].].].9 d +XDXyXp } P. X|._.].].].]._. Xo.o./.H.X.]._.]._._.",
"_.].].].].].].].].].].].].].].].].].]._.].].]._.]._.].].].].].]._.[.D.} { { { N gXvX!.a L.]._.].].].]._.].[.J +XDXxX} XX_._._.].].].].].].].J.L.].).J.].].].].].",
"]._.).]./.o.].].].]._.].].].]._.]._._.].]._._._._.].].].].].].].]._.[.|.|..X).| GXkX>.A..X_.].].].].].]._..X_ Q.vXxX .|._._.]._._.].].].].].].].].].].]._.]._.].",
"].].].X.H.o.o.H.].].].].].].].].].].].].].].].].].].].].].].].].].]._._._.].S.uXGXlX>.D. X].].].].].].]. XXX` Q.vXFXY.`._._.].].].].].].].].].].].].].].].].].].",
"].]._.H.). X(.J.[._.].].].].].].].].].]._.].].].].].].].].].].]._.].]._._..X..U.cXQ.,.P. X_.].].].]._.].).)...d T.uXv L.|.]._.].].].].].].].].].].].].].].].].].",
"_.].].].].].].].].].].].]._._.]._.].].]._.].].].].].].].].].].]._._.]..X.X~.@.aXsXaXn F. XP.].].].]._.|.K.$._ pXKXUXAXn ~.)..X].].].].].].].].].].].].].]._.].].",
"].].].].].].].].].].].].].].].].].].].].].].].].].].].].].].].].).[.~._ a i m KXZXKXM F. X].].].].].].].'.[...m R M x = n n a ~.|._.].].].].].].].].].].].].].].",
"].].].].].].].].].].].]._._._.].]._.].].].]._.].].].].].]._._.).(...b sXJXJXtX- - = = D.|.].].].].].].].].|. .= = O x ZXLXLXnXv D.[.].].].].].].].].]._.]._._.].",
"_._.]._.].].].].].].].).'.X./.)._.]._.]._._._._.].].].].].].^.O.K.x KXLXLXLXPXnX= = tX@.).].].].].].].].|.A.yXyXO x IXPXLXLXLXUXs ].].].].].].].].]._.].]._._.].",
"].].].].].].].].].].].X.H.^.o.o.].].].].].].]._.].].].].].[.^.{.{ sXLXLXLXPXIXPXyXO N n F.].].].].].]._.[.A.x = = mXKXIXPXLXPXLXtX} {.].]._.].].].].].].].].].].",
"_._.].].].].].].].].]./.'.`.^.).].]._._.]._._._.].].].].].]._.|.s yXpXpXpXpXtXtXyXO   X L.[._.].]._.]._.|.` X O x yXyXyXtXtXtXpXM a (.o.).].].].].].].]._._._._.",
"_._.].].].].].].].].].].]._.]._._._._._._._._._.]._.].].].].].).p pXCXsXpXpXsXpXpXsXsXm _ .X_.].]._._._.}.v yXCXmXaXaXaXaXaXCXAXtXp [.O.^.]._.].].].].]._.)._._.",
"_._.].].].].].].].].].].]._.]._._._._._._._._._.].].].].].].].].b Y.yXU.U.U.U.U.U.U.U.v } .X_.].].].]._.[.} c n n | n | { | | | v  .|.).`._.].]._.].].]._._._._.",
"_._._.].].].].].].]._.].].]._._._._._._._._.P._.].].].].].].].].].F.S.S.S.S.D.F.D.F.D.P.]._._.].].].]._._.|.|.[.`.`.`.`.`.`.`.`.`.`._.].]._.]._.]._.].]._._._._.",
"_.).]._._.].].].].].].].].].]._._._._._._._._._._.].].].].].].].].].].].].].].].].].].]._._._._.].].]._._._.].P.P._._._._._._._._._._.{.].].].]._._.].]._._._._.",
"_._._._._.].].].].].].].]._.]._._._._._._._._._.`.].].].].].].].].].]._._._._._.]._._._._._.]._.].].]._.].].].]._._._._._._._.)._._._._.].].].].]._.]._._._._._."
};
