/* XPM */
static char *player_l10_resized[] = {
/* columns rows colors chars-per-pixel */
"80 80 256 2 ",
"   c #010100",
".  c #0A0700",
"X  c #1B1803",
"o  c #151816",
"O  c #0C1200",
"+  c #271A02",
"@  c #371D00",
"#  c #20181B",
"$  c #182A0F",
"%  c #2C2B01",
"&  c #282809",
"*  c #392903",
"=  c #373805",
"-  c #242912",
";  c #2A3618",
":  c #2D3205",
">  c #312C2C",
",  c #241F20",
"<  c #472B01",
"1  c #473803",
"2  c #5E3300",
"3  c #522B00",
"4  c #6C3C01",
"5  c #134B11",
"6  c #334514",
"7  c #176C14",
"8  c #216919",
"9  c #354825",
"0  c #385124",
"q  c #30432F",
"w  c #2D702D",
"e  c #165B29",
"r  c #5B5A00",
"t  c #534907",
"y  c #784600",
"u  c #685800",
"i  c #686600",
"p  c #7A7600",
"a  c #776C07",
"s  c #49562F",
"d  c #4C6734",
"f  c #546B37",
"g  c #5A773A",
"h  c #4A692F",
"j  c #6E7131",
"k  c #665732",
"l  c #1B3654",
"z  c #203246",
"x  c #354E54",
"c  c #274868",
"v  c #284E75",
"b  c #2E5772",
"n  c #2C6161",
"m  c #50544B",
"M  c #5E6E45",
"N  c #687250",
"B  c #4A5864",
"V  c #757375",
"C  c #6C6D67",
"Z  c #57606E",
"A  c #D62F24",
"S  c #995600",
"D  c #844F03",
"F  c #896E01",
"G  c #A96600",
"H  c #B56900",
"J  c #B07604",
"K  c #AD702D",
"L  c #936F1F",
"P  c #CB500D",
"I  c #CC7B01",
"U  c #C47600",
"Y  c #D57B03",
"T  c #C56800",
"R  c #E76C10",
"E  c #DC4336",
"W  c #877857",
"Q  c #E64859",
"!  c #EC675D",
"~  c #822112",
"^  c #299511",
"/  c #2CAC16",
"(  c #279627",
")  c #30872B",
"_  c #2AA62A",
"`  c #31B62B",
"'  c #1B9118",
"]  c #58863C",
"[  c #69873A",
"{  c #74923C",
"}  c #44B82E",
"|  c #7CA23D",
" . c #32C932",
".. c #49C632",
"X. c #6C8648",
"o. c #769847",
"O. c #738556",
"+. c #748D4E",
"@. c #7AA449",
"#. c #73B956",
"$. c #7CBB56",
"%. c #77BA58",
"&. c #6EB150",
"*. c #78826A",
"=. c #4F8640",
"-. c #7DC35A",
";. c #3C8852",
":. c #958B00",
">. c #AE9000",
",. c #B1B000",
"<. c #B08D38",
"1. c #82A73E",
"2. c #888635",
"3. c #D58300",
"4. c #DA8500",
"5. c #DD8A00",
"6. c #D58C00",
"7. c #DC9600",
"8. c #CC8B04",
"9. c #E38C00",
"0. c #EB8C00",
"q. c #E59300",
"w. c #EB9200",
"e. c #E89C00",
"r. c #F19600",
"t. c #F59A00",
"y. c #FC9E00",
"u. c #FA9700",
"i. c #F98809",
"p. c #CBAE00",
"a. c #ECAC00",
"s. c #E8A200",
"d. c #FEA200",
"f. c #F4AC00",
"g. c #FDAB00",
"h. c #F5A301",
"j. c #EBB800",
"k. c #FEB400",
"l. c #FEBC00",
"z. c #F5B700",
"x. c #BFC100",
"c. c #D3D100",
"v. c #FFC300",
"b. c #FFCB00",
"n. c #F4C903",
"m. c #FED300",
"M. c #FEDB00",
"N. c #F4D600",
"B. c #EEC400",
"V. c #FEE400",
"C. c #FCEB00",
"Z. c #FEF500",
"A. c #FEFE00",
"S. c #F6FB00",
"D. c #EAEC00",
"F. c #FFD422",
"G. c #86AA4A",
"H. c #8FBA49",
"J. c #8BB54A",
"K. c #93BC4D",
"L. c #84AB51",
"P. c #83BE56",
"I. c #8BBE55",
"U. c #86BB56",
"Y. c #92BB53",
"T. c #91AD4F",
"R. c #889376",
"E. c #8A8F70",
"W. c #AE996F",
"Q. c #A09C58",
"!. c #EDB750",
"~. c #DCA660",
"^. c #8CC157",
"/. c #8CC158",
"(. c #86C359",
"). c #95C356",
"_. c #9AC457",
"`. c #9CC954",
"'. c #95C358",
"]. c #9BC558",
"[. c #9ECA5A",
"{. c #93C95B",
"}. c #98CA54",
"|. c #A2CD5B",
" X c #A0C857",
".X c #A5D25D",
"XX c #A9D55D",
"oX c #ABDA5E",
"OX c #ACD862",
"+X c #F2D270",
"@X c #DEC35B",
"#X c #2F5A88",
"$X c #356697",
"%X c #35638B",
"&X c #3868A4",
"*X c #3B72A9",
"=X c #3874B3",
"-X c #02709C",
";X c #4F7389",
":X c #417AB6",
">X c #847C83",
",X c #F67490",
"<X c #0A90B5",
"1X c #4480BB",
"2X c #6B969A",
"3X c #6AD299",
"4X c #00A9E5",
"5X c #00B3F2",
"6X c #1EADCD",
"7X c #4381C6",
"8X c #02CCFF",
"9X c #08C7FF",
"0X c #0CDAFF",
"qX c #34CCEC",
"wX c #56DBE6",
"eX c #969696",
"rX c #908F8B",
"tX c #AA9E86",
"yX c #96A287",
"uX c #AEAA90",
"iX c #A7A6A8",
"pX c #ADADB2",
"aX c #B9B7B9",
"sX c #B5AFAE",
"dX c #9D97A5",
"fX c #C6B58C",
"gX c #E0ABB3",
"hX c #B0C793",
"jX c #97D69C",
"kX c #F8D98E",
"lX c #FFE596",
"zX c #F5EB82",
"xX c #D3C9B9",
"cX c #FFE7AA",
"vX c #FFF5B9",
"bX c #FCEDB5",
"nX c #DBE0A4",
"mX c #BEBCC3",
"MX c #C1BEC6",
"NX c #98F2FA",
"BX c #B8F5FD",
"VX c #91CEDA",
"CX c #C8C7CA",
"ZX c #D8D8DA",
"AX c #D1CED2",
"SX c #FFFAC5",
"DX c #FFF2CF",
"FX c #FAEDD1",
"GX c #E1DEE5",
"HX c #E8E8EA",
"JX c #EBFBFF",
"KX c #ECF6F7",
"LX c #FEFEFE",
"PX c #F4F4F5",
"IX c #F7EDF1",
"UX c #DCE0E0",
/* pixels */
"_._._._._._._.].].]._.].]._.]._._._._._._._._._._._._._.].]._.].[._.]._._._._._._._._._._._._._.].].].].].].].]._._._._._._._.'._._.].].].].].].]._.]._._._._._.",
"_._.P.^._.`._._.].].]._.].]._._._._._._._._._._._._._._.].].].]._._._._._._._._._._._._.)._._.'.`.P.^.]._.].].]._._._._._._._._._._._.].]._.].].].].].]._._._._.",
"U.$.$.P.%.].].].].].].].]._.]._._._._._._._._._._.]._.].].].].]._._._._._._._._._._._._.`.[._.(.$.$.P.#._.].].]._._._._._._._._._._.]._.].].].].]._._.]._._._._.",
"/.P.].'.$._.].].].].].].].]._._._._._._.'._._._._._.].].].].]._._._.]._._._._._._._.'.XXY.T. X|.$._.).$.Y. X_.]._._._._._._._._._._.]. X_./.[.]._._.]._._._._._.",
"_.`._.].].].].].].].].].].].].]._._._._._.].]._._.].].].].]._._.].].]._._._._._. XY.XXg 5 5 9 [ |._.]._._.].].].]._._.]._._._._._.].].I./.#././.]._.].].]._._.].",
"_._._._.].].].].].].].].].].].]._._.]._._._.]._.]._.].]._.]._.[.].].]._._._._._.Y.|.j e _ ( ' 5 h |.].].].].].].].].]._._._._._.].].].#.(.'.$.$. X_.].].].]._.].",
"_._._._.].].].].].].].].].].].].]._.).].[._.].].].].].].].].].].].].].].].].]._.|.1.e  .` ) ( _ 5 o. X X].].].].]._._.].]._._._.].]._.).'.].'.'.]._.].].]._.].].",
"_._._.[.].].].].].].].].].].].].'.I.#.'.'.].].].].].].].].].].].].].].].].].].]. Xe ` ` _ _ ( ` 7 g XXY.].].].].].]._._.[.].]._.].].].]._._.].[.].].].].].].].].",
"].].].].]._.[.].].].].].].].].{.#.P.U.$.P.]._.].].].].].].].].].].[.].]._._._..Xg '  ._ ( _ _ 7 5 G.[._.].].].].].].].].].].].].].].].].].]._._.].].].].].].].].",
"].].].].]._._.].].].].].].].].].I._.].^.).]._.].].].].].].].]. XP./.[._._._._.|.0 ` ` ( ( 7 $ h T.|._.].].].].].].].].].].].].].]._.].].].].].].].].].].].].].].",
"].].].].].].].].].].].].].].].].].].].].]._.]._.].].].].]. X^.$.$.P.%.)._._._.T.8  ._ ( 5 9 J..X[.Y.].].].].].].].].].].].].].].].].].].].].].].].]._.]._.].].].",
"_._._._.].]._.].].].].].].]._.]._._._._._._._._.].].].]._._.^.$._.'.%.Y._._.XXT.8  .( e 0 OXOX[.].]._.].].].]._._._._._._._._._._.].].].].].].].].]._._._._._._.",
"].].].].].].].].].].].].].].].].].].].].].].].].].].].].].].].].[._.'..XXXY.o.h 8 ` ( 5 ; d M J.|..X|.Y._._._.].].`.].].].].].].].]._.].].].].]._.].].]._.].]._.",
"_._.].].].].].].].].].].].].]._._._._._._._._._.].].].].].].]._._.XX`.X.9 : t 4 $ ' 7 $ u :.r = ; d L.OX|._._.].'.U.].].]._._._._.].].].].].].].].].].]._._._._.",
"]._.].].].].].].].].].].].].].]._._.]._.]._.]._.].].].].].]._.|.[.g - r ,.D.A.m.L t t F n.A.A.A.c.p & 9 @.XX_.$.P.$.P./.]._.].]._.].].].]._.]._.'.%._.]._._._._.",
"_._._._._.].].].].]._.].]._.]._._._._._._._._._.].].].]._.].XXo.- i c.A.A.A.C.C.A.A.A.A.A.A.M.Z.A.A.Z.:.& s [.-.I._.%.U.]._._._._.]._.].]._.].$.(.$.P.$.]._._._.",
"_._._._._._._._.].]._.].]._.]._._._._._._._._._._.`.).I.|. X0 = c.A.Z.S.Z.A.m.Z.A.A.A.V.l.A.V.g.m.A.A.A.S.i $ @.XX_.)._._._._._._._._.].]._.].P.^. XI.U.]._._._.",
"'._._._._._.].[.]._.].].]._._._._._._._._._._._.'.(.P.-.L.- p A.Z.m.Z.A.A.V.C.A.A.A.A.C.g.v.A.v.d.v.Z.M.m.A.,.+ g XX_._._._._._._._._.].].].]. X].]._._._._._._.",
"_._._._.].U.P.]._._.]._.]._.]._._._._.'._._._._.'.#.{.o.$ ,.A.m.v.Z.m.M.M.v.Z.A.A.A.A.M.k.g.M.V.g.g.k.Z.b.f.A.D.% d XX_._._._._._._._._.].].].]._._._._._._._._.",
"_._._.'.%.P.P.$.'.]._.].].].]._._._._._._._._._.'.|.@.& c.A.v.l.Z.m.v.v.l.n.A.A.A.A.Z.v.k.g.k.C.f.g.g.g.Z.l.y.C.A.= d XXY._._._._._._.].[.'.].]._._._._._.)._._.",
"_._.].'.%._.].$.'.[._._.].]._._._._._._._.'._._.|.G.X c.Z.v.k.N.M.v.v.b.j.C.Z.A.A.A.m.k.k.k.d.M.z.g.g.d.l.C.h.d.M.A.% g XX_._._._._._.'.^.#.'.'.].].]._._._._._.",
"_._._._.[.].].].].]._._.]._.]._._._._._._._._.[.H.o c.Z.l.z.B.V.v.v.b.l.j.M.V.A.Z.m.l.l.k.k.g.l.n.t.g.g.y.b.n.t.y.m.D.X o..XY._._._._.#.P.^.$.$. X_.]._._._._._.",
"_._._._._.].].].].].]._.]._.]._._._._._._._._.[.; ,.Z.l.v.s.M.v.v.v.m.a.B.b.v.m.b.l.l.l.k.g.g.g.N.e.g.g.g.d.M.e.d.t.C.c.o ].].]._.].]./.'. X'.I.].].].]._._._._.",
"_._._._.].].].].].]._.].].].]._._._._.)._.).XXs i A.l.v.e.B.m.l.v.v.v.e.m.v.b.b.v.v.l.l.k.k.k.d.v.e.g.g.d.d.l.B.w.g.u.A.p 9 XX_.].].].].]._.].].].].].]._._._._.",
"_._._._.].[._.].].].].].].].]._._._._._.]..Xo.= Z.l.v.z.e.M.l.v.v.b.z.s.b.l.b.b.v.v.l.k.k.k.g.d.l.s.d.g.d.g.y.b.q.t.d.g.Z.: o.|._.].].].].].]._._.].].]._.].]._.",
"_._._._.].]._._.].]._.].].]._._._._._.].Y.|.; p.M.l.v.9.j.b.l.v.v.b.s.a.b.v.v.v.v.v.l.l.k.g.g.d.k.a.w.g.g.d.y.k.a.9.g.u.b.,.; .X_.].].].].].]._.].].].].]._.].].",
"_._._._.].]._._.].].].].].].].].P.).]._.XXg r C.k.v.f.5.b.l.v.v.v.v.9.z.v.v.v.v.v.l.l.l.k.k.g.d.g.j.9.g.d.d.d.d.B.5.t.d.y.C.6 { |.]._._.].].].].].].].]._._._._.",
"]._.]._._.]._._.].].].].].]./.P.#.P.P.]. X; c.v.l.l.5.a.v.l.l.l.v.z.7.v.l.v.v.v.v.l.l.k.k.g.d.d.d.f.9.g.g.d.d.y.l.e.9.d.u.v.>.9 XX].{._.].].].].].]._.].].].]._.",
"_._._._._.]._.[.].].].].]. XP.$._.^.$..Xg r V.k.l.f.4.B.l.l.l.v.v.s.q.v.l.l.v.v.l.l.l.k.k.g.g.g.d.f.5.g.d.d.d.y.g.s.4.d.d.y.n.: L.`._._.].].].].].]._._._._._._.",
"].].].].].]._._.].].].].].]._._._._.'..X9 p.v.k.l.q.5.v.k.l.l.l.v.q.e.l.l.l.l.l.v.l.l.k.k.g.d.d.y.g.5.t.g.d.d.d.d.f.4.t.d.u.b.i X.XX_._.].].].].]._.].].].]._.].",
"].].].].].].]._.(._.].].].].].]._._.|.@.6 m.g.v.k.4.s.l.k.l.l.l.v.5.s.l.l.l.v.v.l.l.k.k.k.g.d.d.y.g.5.t.d.d.d.y.d.f.4.w.d.y.k.>.0 OX_.].].].]._.]. X'./.]._.].].",
"_._._._._.[.U.(.%.P.P.]._.]._._._._..Xf a b.k.a.a.3.f.l.k.l.k.l.k.4.f.l.k.v.s.j.v.k.k.k.g.g.d.d.y.g.6.r.d.d.d.y.y.g.5.9.d.y.d.p.; [._.].].]._.]._.$.$.$.P.'.].].",
"].].].].].].$.P._./.%.].].].].]._.)..X9 >.v.l.U 8.9.z.k.k.k.l.l.f.4.f.k.l.l.I G n.k.k.k.g.g.d.d.d.d.5.w.d.d.d.y.y.g.5.9.d.y.y.f.; Y. X].].].].]._.#.'.'.%./.].].",
"].].].].[.].].].[.].].].].].].]._._.'.6 j.k.f.S = e.g.k.k.k.k.l.f.4.f.k.l.e.H   p b.g.g.g.g.d.d.y.d.5.w.d.y.d.d.y.d.q.4.y.d.y.g.= L. X].].].].]._._.]._.'._.].].",
"].].].]._._.].].].].].].].].].]._. XL.t k.k.q.4 o >.k.g.k.k.k.l.e.4.g.k.k.I D x s j.k.g.g.d.d.d.d.y.4.w.d.d.y.d.d.d.9.4.y.y.y.g.1 $.|._.].].].].].].]._._._._._.",
"_._.].].]._.].].].].].].].].]._._.|.o.1 k.g.U xXJX+Xk.k.k.k.k.l.w.4.g.k.e.T ZXLXJXzXk.g.g.d.d.d.d.t.5.w.d.y.d.y.y.d.9.4.y.d.d.r.* U.[.].].].].]._._.].]._._._._.",
"_._._._.].].].].].].].].].].]._._.|.o.< k.w.<.LXJXNXn.g.g.k.k.k.w.4.g.k.U Q.LXLXNXwXF.g.g.d.d.y.d.r.4.w.d.d.y.d.y.y.9.4.y.y.d.4.& _.[._.].].].].].].]._._._._._.",
"_._._._._.].].].].]._.].]._.]._.).|.o.< d.Y 2XJXKX8X+Xg.k.g.g.k.q.4.g.w.J qXBXLXwX8XnXb.d.d.y.d.d.r.3.t.d.d.d.y.d.t.4.9.y.d.d.H ; |._._._.].].]._._.].]._._._._.",
"_._._._._.].].].].]._.].].]._._.).{.o.% 0.U 6X6X6X8XjXl.g.k.g.k.q.4.h.I L 9X<X<X5X0XVXp.g.d.d.y.d.w.4.u.y.d.y.d.d.r.4.9.d.y.r.y d XX_._.].].].].]._.]._._._._._.",
"_._._._._.].].].].]._.].]._.]._.^.#.U.- T y -X5X4XNXb >.k.g.g.k.w.5.9.S . <X5X4XqXBXc % l.d.d.d.y.9.4.y.d.y.d.y.d.0.3.r.d.0.4.* @.|._._.P._. X]._.].]._._._._._.",
"_._._._._.].].].].].].].]._.]._._.I.|.0 G y 1 wXwXjX1 :.k.g.g.g.w.3.7.>.u a 3X3XjX@Xa F B.i.R ! ~.4.9.d.d.y.y.y.y.5.5.y.9.w.S 9 |.].U.U.%.P.$.].]._.]._.Y._._._.",
"_._._._._._.].].].].].].].].]._._._.[.K E ~.+Xu.d.5.g.k.g.g.k.l.h.9.g.l.l.k.d.g.k.k.k.k.R E Q gXIX! 0.d.y.d.l.k.w.3.w.9.9.Y + @.|.].P.P.[./.$. X]._.].].[._._._.",
"_._._._._.].].].].]._.].].].]._._._.}.K A ,X,XR 6.I 5.d.r.7.6.6.8.H H 8.s.g.h.8.J >.k.0.A E Q Q Q A t.d.y.l.m.g.4.4.4.5.9.@ g .XY.[._.].].].].]._._.]._._._._._.",
"'._._._._.].].].].].].].]._._._._._._.K.K 4 P 9.4 i g.y.H               p.k.h.2   F k.y.R P P P T 9.d.d.y.l.k.9.4.4.0.4.@ h XX'._._.]._.].].].].]._.]._._._._._.",
"_._._.`._.].].].].].].].].].]._._._._._.|.g + 4.5.F 1 3 *               * 1 @ . a l.y.y.d.d.y.9.9.u.d.d.d.r.9.4.9.r.H + g .X_._.'._.].].].].].]._._.].]._._._._.",
"_._._.'.U.%._._.].].].].].].]._._._._._.Q.OXf + G r.D O                     % >.l.y.d.y.d.d.9.4.r.y.y.r.9.4.9.w.U 2 - o.XX)._._.].].].].].].].].].].].].]._.]._.",
"_._._.#.P.P.%.(. X].].].].].].]._._._._._._..Xo.$ 3 U e.J t % O . O $ = u >.l.g.y.d.y.y.t.5.3.9.r.0.9.q.0.9.H 2 & f _.|._._._._.].].].].].].].].].].].].]._._._.",
"_._.].P.'.[.I./.].].]._.[.].].].].]._._._._.'..X[.f - < S 6.e.e.7.7.a.f.t.w.9.w.r.t.r.w.9.9.w.w.w.0.I G y @ - g {.XX_._._._._._.].].].].].].].].].].].].].].].].",
"_._._.].].]. X].].].[._.$.'.].]._._._._._._._._._.OX'.=.0 - * 2 D S H T U I 4.Y 3.Y I I J G S y 4 @ o $ w ) ] ] { }._._._._._._.].].].].].]._._._._._._._._._.].",
"_.].].].].].].].]. XP.P.%.P.$. X_._.]._._._._._.'.%.P.(.{./.L.] s 9 ; ; & & + + & & & - o $ 5 7 e #Xe } ..` ` 5 s )._._._._._._.].].].]. X]._.[.[._._._._._.]._.",
"].].].].].].].]._.].P.P.]./.$. X].]._._.[.].].[._.$.'.'.$./.|..XXXXX|.{.].Y.9 5 / / / b b } ....;.$Xe / ` / 7 W.bXW.(.`.].]._.].{.].]._.'.U.%.'.'.].[._.[._.].].",
"].].].].].].].].]._.].].]._.].]._._._._._._._._._.].].].].].]._._._._._.[.T.uXuXw ' ^ ;Xn ` ` / d :X5 7 ^ ^ g cXcXbXhX$.[._._._._.].]._.#.P.U.%.P.[._._._.]._.].",
"_._._._.].].].].].].].].]._._._._._._._._._._._._._.].].].].].]._._._.].Y.hXbXSXW.7 ^ b b / / / w =Xe 7 5 7 k !.kXcXDXyXK.].].]._.].]._./._. X/.'.]._._._._._._.",
"].].].].].].].].].].].].].].].]._._.].[.]._._._.]._._.].].].]._._._.|.J.uXDXlX+X<.6 5 %Xv ' / ^ w &Xn ^ 5 $ h <.+XcXSXxXo..X_.]._._.].].].].].].].].].].].].].].",
"]._.].].].].].].].].].].].]._._.].]._.]._.]._._.].].].].].].]._.].].[.L.FXSXlX!.2.h [ m V c 1XZ b ;XZ #X$Xx J.o.!.~.rXiXN H.].].].[.].]._._.]._.].].].].].].]._.",
"_._._._._.].].].].].].].].].].].^._.]._._._._._.].].].].].].[._.].].|.+.sXfX+X!.o..X).q B b 1X:X*Xx B &X%Xc @.}.j sXPXLXHXO.`.]._._.].].].].].].].].].]._._._._.",
"_._._._._.].].].].].].]._.]./.^.#.P.U._._._._._._.].].].].].].].].[.K.V CXCXuXj I.].).n &X%X$X*X#Xv &X*X%Xv o. XN IXPXPXLXyXJ._._._._.].].].].]._._._._._._._.).",
"'._._._.].].].].].]._.]._. XP.$.).^.#.`._._._._.]._.].].].].].]._. X+.GXLXLXLXrXJ.]..X[ $X$X1X7X*Xb =X&X$Xl j OXX.mXMXE.tXE.J.]._._._.].].].].]._._._._._._._._.",
"_._._._._.].].].].].].]._.].'.'.]._.'._._._.)._._.].].].].]._._._.[.+.GXCXxXGXV G.oXG.x v %X&X=X$Xv *X$X*X=Xb 1.X.CXtXkXlXW.O.`._._._.].].].].]._.]._._._._._._.",
"_._._._.].].].].].].].]._.`._._.'._._._._._._._._._.].].].]._._.].|.+.E.W.W.aXCX+.| B 7X$Xc b v v %X$X%X=X:X7Xc CXLXaXuXiXCXuXJ.[._.].].].].]._.]._._._._._._._.",
"_._._._._.].].].].]._.].].].]._._._._._._._._._.]._.].].].].].`.{.$.*.W.cXW.CXLXKXZ =X7X=X#Xl c v v z v &X=X=X2XCXdXPXHXPXLXAXo.|._._.].].].].]._.].].]._._._._.",
"_._._._._._.].].].]._.].]._._._._._._._._._._.'._.].].].].].].].[.&.yXCXsXCXPXrXV Z =X:X*X#Xx G.@.G.| z #X&X1Xl W N CXHXZXHXpXo.|._._._.].].].].].]._._._._._._.",
"_.'._._._.[.].].].]._.].]._._._.'._._._._._._._.]._.].].].].]._.[.J.uXLXLXPXKXV ~.k l &X$Xl { .X[.[.XX[ l &Xc k Q.fXUXiXaXV O.K.].].].].].].].].'.]._.]._._._._.",
"_._._._._.].].].].].].].]._.]._._._._._._._._._._.].].].].].]._.].K.E.AXCXAXsXKXE.W Q.z c f .X_._._._..Xm l t lXk rXpXd N | Y.].].].].].].].'.'.#.I.).]._._._._.",
"_._._.'._._._.].].]._.].]._.]._._._._._._._._._._.].].].].].].]._.[.G.C N eXs iXV fX+X& > |.{.].].].].]._.9 j kXDXeXg  X`.|.]._._._.].]._. X$.$.U.P.#.].].]._._.",
"_._._._._.[._.[.].]._.].].].].]._.].]._.].].]._._._.].].].].].].]._.[.Y.J.G.`.g xXvX~.j Y.|.].[.].].]._.[.].L +XSXxXG. X_._._._.]._.].].].].I.).[.'.U.[.].].].].",
"_._._._.'.$._.].].].].].].].]._._.]._._.]._._._.].].].].].].].].].]._.[.].[.`.E.DXlX<.@..XY.].].].].].].}.[.[ !.bXxX+.|._._._._._.].].].].].].].].].].].]._.]._.",
"_.].].%.P.$.%.U. X].].].].].].].].].].].].].].].].].].].].].].].].].]._.].[.J.yXDXlX<.J.[.].].].].].].].}.|.{ ~.vXFXL.`._._._._.].].].].].].].].].].].].].].].].",
"_._._.P.'.].(.U.`.].].].].].].].].].].].].].].].].].].].].].].]._._._._._.|.| R.nX~.L {.[.{.].].].].].]./.{.&.k W.tXN Y.|.].Y.].].]._._.].].].].].].].].].].].].",
"]._._.]._._. X]._.].].].]._.]._.]._._._._.].].].].].].].].].].]._._.]..X|.).*.aXaXaXN K.[.[.].].].].].].P.-.[ pXHXZXAXN )._.XX|._.].].[.].].].].].].].].]._.].].",
"].].].].].].].].].].]._.].].].].].].[._.].].].].].].].].].].].]._.[.K.[ g s C HXZXGXV K.[.].].].].].].[.'.}.G.C >XC m > N N g Y.[.].]._.].].].].].].].].].].].].",
"_.]._.].].].].].].].]. X].'.].]._.]._._.]._.].].].].].].].].'._.-.@.M sXUXHXdX, - > 9 G.[.].].].].].].]._.|.+.> > # m ZXLXLXMXM J.[._.].].].].].].]._.].]._.]._.",
"_._._._.].].].].].].].'./.#.^.)._._._._._._._._.].].]._._.].U.%.P.m HXLXLXLXLXaX> > dXO.).].].].].].]._.|.G.rX>X# m IXPXLXLXLXZXf ].].].].].].].].]._._._._._.].",
"[._.].].].].].].].].].#./.^.$.$.[.].]._._._._._.].].].].[.].'.{.[ sXLXLXLXPXHXPXrX# Z C K.[.].].].].]._. XG.m > > CXHXHXPXLXPXLXeXo.{.]._._.].].].]._.[.]._.].].",
"]._.].].].].].].].]._./.'.]./.'.]._._._._._._._.].].].].].]._.|.h rXiXiXiXiXeXeXrXo   X Y.]._.].]._.]._.|.+.o o m rXrXrXeXeXeXiXC g (.P.).]._.].].]._._._._._._.",
"_._.].].].].].].].].].[.]._.].]._._._._._._._._._.].].].].].].).m iXCXpXiXiXiXpXiXsXsXZ [ .X_._.]._._._. Xf eXCXmXaXaXmXaXaXCXAXdXd [.#./.]._.].]._.].]._._._._.",
"_._._.].].].].].].]._._.].]._._._._._._._._._._.].].].].].].].].M E.yXR.R.R.R.R.E.R.R.M o.|._._.].].]._.|.o.M X.N O.O.O.O.N O.O.M X.[.).`.].].]._.].].]._._._._.",
"_._._._.].].].].].]._.].]._._._._._._._._._._._._.].].].].].].]._.K.J.J.H.H.H.Y.K.K.J.Y.]._._.[.].].]._._.[.[.[.`.'.`._.`.`.`.`.`.|._.].]._.].]._._.].]._._._._.",
"_._._._._.].].].].].].].]._.]._._._._._._._._._._.].].].].].].].].].[.].].].]. X[.].].]._._._._.].].]._._._._._.'._._._._.)._._.{._._._.].].].].]._.]._._._._._.",
"_.'._._._.].].].].]._.].].].]._._._._._._._._._._.].].].].].].].]._._._._._.[.Y._.]. XY._._._._.].].]._._._._._._._._._.`._._._._._._.[.].].].]._.].]._._._._._."
};
