/* XPM */
static char *player_l9_resized[] = {
/* columns rows colors chars-per-pixel */
"80 80 256 2 ",
"   c #010100",
".  c #070500",
"X  c #191A06",
"o  c #121513",
"O  c #291A00",
"+  c #371B00",
"@  c #20181B",
"#  c #1A240A",
"$  c #11330D",
"%  c #2B2606",
"&  c #363805",
"*  c #252A13",
"=  c #2A361A",
"-  c #332E07",
";  c #2F2D2C",
":  c #182B23",
">  c #452A01",
",  c #583300",
"<  c #493100",
"1  c #653A01",
"2  c #461E00",
"3  c #104F12",
"4  c #2C4B19",
"5  c #176E10",
"6  c #3B5528",
"7  c #324B2A",
"8  c #2A7731",
"9  c #1C6B1F",
"0  c #494900",
"q  c #585405",
"w  c #6A4900",
"e  c #6F4F00",
"r  c #686600",
"t  c #766700",
"y  c #495C35",
"u  c #445429",
"i  c #4A632A",
"p  c #556B37",
"a  c #59783A",
"s  c #4A6636",
"d  c #70702C",
"f  c #64583E",
"g  c #1A3452",
"h  c #17355A",
"j  c #345058",
"k  c #0E4D72",
"l  c #264D75",
"z  c #29537A",
"x  c #2B4F68",
"c  c #306A5A",
"v  c #52534C",
"b  c #5C6A47",
"n  c #6B7859",
"m  c #68734E",
"M  c #495865",
"N  c #6E706B",
"B  c #526461",
"V  c #CB361D",
"C  c #8A4C00",
"Z  c #885401",
"A  c #945906",
"S  c #A85D00",
"D  c #867B00",
"F  c #946D01",
"G  c #B86C01",
"H  c #BC7702",
"J  c #AC6A04",
"K  c #9D772D",
"L  c #CC520B",
"P  c #CD7C00",
"I  c #C37400",
"U  c #CA7305",
"Y  c #EC7A0B",
"T  c #D34E2B",
"R  c #E8535C",
"E  c #B95856",
"W  c #188A16",
"Q  c #248C0F",
"!  c #2CAC15",
"~  c #1C8F23",
"^  c #279927",
"/  c #268824",
"(  c #2AA92A",
")  c #35B729",
"_  c #5A843E",
"`  c #6E8D3B",
"'  c #52B033",
"]  c #37CB2F",
"[  c #49C434",
"{  c #6A8646",
"}  c #769846",
"|  c #738655",
" . c #718F4D",
".. c #7DA44A",
"X. c #74B956",
"o. c #7CBB56",
"O. c #76BA58",
"+. c #70B253",
"@. c #79856A",
"#. c #5E9047",
"$. c #7FC253",
"%. c #3C8757",
"&. c #8A8700",
"*. c #9F8700",
"=. c #B08B09",
"-. c #A4A300",
";. c #B8B700",
":. c #BBAE00",
">. c #B09039",
",. c #99983A",
"<. c #D68300",
"1. c #DA8500",
"2. c #DD8900",
"3. c #D48E00",
"4. c #DB9700",
"5. c #C69300",
"6. c #E28C00",
"7. c #E78A00",
"8. c #E49300",
"9. c #EB9300",
"0. c #E69B00",
"q. c #F29500",
"w. c #F59B00",
"e. c #FC9D00",
"r. c #FA9401",
"t. c #F88400",
"y. c #D1B000",
"u. c #EDA400",
"i. c #ECAA00",
"p. c #E4A400",
"a. c #FEA200",
"s. c #FEAC00",
"d. c #F3A700",
"f. c #EBB500",
"g. c #FEB300",
"h. c #FEBC00",
"j. c #F6B500",
"k. c #E2B616",
"l. c #E58A2D",
"z. c #C7C500",
"x. c #D2D000",
"c. c #FFC300",
"v. c #FECB00",
"b. c #F2C700",
"n. c #FFD400",
"m. c #FEDB00",
"M. c #F6D900",
"N. c #EFCF06",
"B. c #FDE300",
"V. c #FDEB00",
"C. c #FEF300",
"Z. c #FFFE01",
"A. c #F4F700",
"S. c #E2CF32",
"D. c #8D8E54",
"F. c #AD9256",
"G. c #84A947",
"H. c #8FBA49",
"J. c #8AB34B",
"K. c #91BC4D",
"L. c #83BE56",
"P. c #8CBD55",
"I. c #88BB55",
"U. c #93BC53",
"Y. c #8BAD4D",
"T. c #889376",
"R. c #8A906E",
"E. c #B1AD77",
"W. c #A19D6E",
"Q. c #D4A951",
"!. c #DFB35F",
"~. c #95C34E",
"^. c #8CC156",
"/. c #8CC258",
"(. c #87C358",
"). c #94C356",
"_. c #9AC457",
"`. c #9DCA55",
"'. c #94C358",
"]. c #9BC558",
"[. c #9DC95A",
"{. c #94C95A",
"}. c #A1CD5B",
"|. c #A0C758",
" X c #A5D15C",
".X c #A9D55D",
"XX c #A8D75B",
"oX c #A8D661",
"OX c #90DA64",
"+X c #F9CC6D",
"@X c #F1CF62",
"#X c #355E87",
"$X c #2F5B8F",
"%X c #366898",
"&X c #346391",
"*X c #3769A6",
"=X c #3C73A9",
"-X c #3E7CB8",
";X c #417BB6",
":X c #506D8D",
">X c #447DC0",
",X c #847C83",
"<X c #1F9CBC",
"1X c #0097D1",
"2X c #07A7D6",
"3X c #03BAEC",
"4X c #2BBCD9",
"5X c #4482C7",
"6X c #49ADC4",
"7X c #00CAFE",
"8X c #00D2FF",
"9X c #1AD5FF",
"0X c #31D6D4",
"qX c #4DD5F3",
"wX c #4BE7FF",
"eX c #62D8D8",
"rX c #969695",
"tX c #8E8E8E",
"yX c #A59A89",
"uX c #9AA38D",
"iX c #ABA88E",
"pX c #A7A6A8",
"aX c #AEADB3",
"sX c #B9B7B9",
"dX c #B0B0AE",
"fX c #9C97A5",
"gX c #DCB0A8",
"hX c #B6CEA2",
"jX c #DBC490",
"kX c #FEDB84",
"lX c #FBDE9A",
"zX c #FFE697",
"xX c #E4EC99",
"cX c #D0C7B7",
"vX c #FFF3B5",
"bX c #FCE9AD",
"nX c #E4D0A5",
"mX c #C1BEC6",
"MX c #F8ADC4",
"NX c #96F6FF",
"BX c #B4E7E4",
"VX c #C7C7CA",
"CX c #D7D8DA",
"ZX c #D0CED4",
"AX c #FFF7C5",
"SX c #FFFAC7",
"DX c #FFF4DB",
"FX c #FBEBCD",
"GX c #DDDCE3",
"HX c #E1DEE5",
"JX c #E7E6EA",
"KX c #F4FBFC",
"LX c #FEFEFE",
"PX c #F5F4F7",
"IX c #F2ECF2",
"UX c #E0DCDF",
/* pixels */
"_._._._.].]._.U.[.].].].].]._._._._._._._._._._._._.].]._.].].`._._._._._._._._._._._._._._.].].].].].].].].].].].]._._._._._._._.]._.].]._.].].].]._._._._._._.",
"_._._._.].].].].].].]._.].]._._._._._._._._._._._._.]._._.P.L.]._._._._._._._._._._._._._._.].].].].].].].].].].].].].[._._._._._.].].].].].].].].]._._.P.o.`._.",
"_._._._.].].].].].].[.[.].].]._._._._._._._._._._._.].).X.I.L.O.^.[._._._._._._._._._.'._.].'.[.].].].].].].].U.].].].U.[.U._._.].].].].]._.].].].]._.X.(.o.o.^.",
"_._._._.].].].].].].P._.[._.]._._._._._._._.)._._._.]._.O.)._.o./.`._._._._._._._._.]. X].}.}._.].].].].].].].].U.[.]._._._._._.'.].].].].].].].].].].O._._.o.^.",
"_._._._.].].].[././.+.^.I._.[._._._.]._._.]._.].[._.]._.]._._._.].].].]._._._._._.|.U.i 4 7 ` }._.].].].].].].].]._.]._.].]._.].].].].].].].].].].].].]._._._._.",
"_._._._.].].].|.o.o.'.L.X._._._._.]._.].].]._.].].].].]._._.].].].].].]._._._._._.|.u 5 ^ W 3 6 U.[.].].].].].]._.]._.].]._._.].].].].].].].].].].].].].].]._._.",
"_._._._.].].].].'.'.|._.)._._.].]._.].].]._.].].].].].].[._.[.].].].].]._.]._._.}.i ~ ] ^ ^ ( 3 i  X].].].].].].].]._.[.[._._._.].].].].].].].].].].].].].].].].",
"_._._.[.].].].].[.[.]._._.].].].].].].].].].].].].].].]._._._.].].].[.).).[.].}. .9 ] ( ( ^ ^ ^ 4 ].].].].].].].].]._.).).+.I.).].].].].].].].].].].].].].].].].",
"].].].].].].].].].].].].].].].].].].].].].].].].].].].].].].].].].'.^.+.L.^._.|.4 ) ) ( ^ ( ( 3 u  X].].].].].].].].[.L.X.P.L.+.].].].].].].].].].].].].].].].].",
"].].].].].].].]._._.].].].].].].].].].].].].].].].].].].].].].].|.L.O.'.L.+. X} 9 ] ( ( ~ 9 3 i U.].].].].].].].].]._.'.P.|._.^.].].].].].].].].].].].].].].].].",
"].].].].].].].]._.].].].].].].].].].].].]._.].].].].].].].].].]._._.'.[._.U. Xp ^ ) ^ ~ $ 6 o.(.(./.].].].].].].].].]._._._.'.[.].].].].].].].].].].].].].].].].",
"_._._._._._.].]._._.].].].].]._._._._._._._._._.].].].].].].].]._.]._._.)._.XXi ^ ( / 3 a OX_.'.X.P.].].].].].]._._._._._._._._.]._._.].].].].].].].].]._._._._.",
"].].].].].].]._.].].].].].].].].].].].].].].]._.].].].]._._.[.]._.]._.|..X|.P.6 ( ^ 9 $ _ } Y. X.X}.].U.].].].].].].].]._._.].].].].].].].].].].].].].].].].].].",
"]._.]._.].[.[._.].].].].].].]._.]._._.].].].L.)._.].].]._.[._._._. X XG.p = & O ~ ^ 9 % q 0 & = s G. X X].'.].]._._._._._._._._._.].].].].].].].].].].].]._._.].",
"_._._.]._._.O.'.].].].].].].].].]._._.].^.L.X.L.o._.].]._._.).}. X{ = 4 &.x.M.I 4 4 % F B.Z.A.z.D & =  .}.}.].[.]._._.]._._._.].].].].].].].].].].].].].].]._.].",
"_._._._.o.L.o.L.O.[.].].]._.]._._._._.].(.o._.'.O._._.]._._..X..= 0 ;.Z.Z.Z.V.C.V.x.V.Z.Z.C.C.Z.Z.Z.;.& = G..X'._._._._._._._._._.].].].].].].].].].].'._._._._.",
"_._.)._.I.P.[.P.L.`._.].].].]._._._._.]._.U.]._.].].].].]. Xy - ;.Z.Z.Z.Z.C.n.Z.Z.Z.Z.v.V.Z.h.b.C.Z.Z.Z.-.% s  X[._.[.].].].U.]._._.].].].]._._.[.].].]._._._._.",
"_._._._.]._._.[.].]._.[.]._._._._._._._._.]._._.].].U. XU.= r Z.Z.m.Z.Z.Z.B.C.Z.Z.Z.Z.v.s.C.V.s.g.B.C.v.Z.A.0 = _.|.U.].].].].]._.]._.].].]._.[.].].].]._._._._.",
"_._._._._._._._._.].[._.]._._._._._._._._._._._.].]. XG.@ -.Z.m.v.C.B.C.m.v.Z.Z.Z.Z.Z.v.s.g.C.h.s.s.m.C.d.m.Z.&.# J.}.]._._._._._.].].].].].]._._.L.P._._._._._.",
"_._._._._._.].].]._._._.[._._._._._.)._._._._._.U. X..# z.Z.b.c.C.n.h.c.j.V.Z.Z.Z.Z.V.g.h.a.n.M.a.s.a.m.V.e.h.Z.-.o J.}.U.]._._._.]._.]._.]._.P.o.o.L.o.).[.U._.",
"_._._._.].]._.]._./.X.^._.{._._._._._._._._._.).}.Y.# x.Z.c.j.B.m.h.v.c.f.Z.Z.Z.Z.Z.c.g.g.s.g.B.d.s.s.a.B.b.e.s.Z.-.X U.[._._._._._._.]._.[.`./.o.[.'.O._._._._.",
"_._._._._.].].|.o.o.^.L.X.]._._._._._._._._._.[.U.# z.C.h.g.b.B.h.v.v.j.b.B.Z.Z.C.n.h.h.g.s.a.m.i.s.s.a.s.B.i.a.s.Z.&.: }._._._._.].].]._._.[.]._._.[.[._._._._.",
"_._._._._.].].].).^.]._.(._._._._._._._._._._.|.= -.C.h.c.p.B.c.c.c.v.u.M.c.m.m.c.h.h.h.g.g.a.c.f.d.s.s.e.h.b.9.a.d.Z.r u .X)._._.].].]._._.].]._._._.]._._._._.",
"_.)._._.].].].].].[._.].]._.]._._._._._._.). Xy r Z.h.v.0.N.v.c.v.v.h.p.n.c.v.v.c.c.h.g.g.s.s.s.b.9.s.s.s.e.n.p.e.a.g.Z.% } |._._.].].].[._.].].[._._.]._._._._.",
"_.]._.].].].].]._.].].].].].]._._._._._.].}.} & C.h.c.j.p.n.h.c.c.v.u.f.v.c.c.v.c.c.h.g.g.s.s.a.c.8.s.s.a.a.s.b.6.s.r.n.z.* [._._._._.].].].].].].].].]._._._._.",
"]._._.].].].]._.].].].].].].]._._._._._.].].* z.m.h.c.2.b.c.h.c.c.v.8.b.c.c.v.c.c.c.h.g.g.g.s.a.h.4.a.s.a.a.e.v.4.q.s.r.V.q p XX_.]._._.]._.].].].].].].].]._.].",
"_._._.].].].].].].].].].].].]._._._._.).oXa r V.g.c.u.8.n.h.c.c.c.h.4.v.h.c.c.c.c.h.h.g.g.s.s.e.g.4.w.s.s.a.e.s.f.2.a.e.h.x.# (.].].].].].].].].].].].].].].).].",
"].].].]._.].].].].].].].].].].].]._._._.].- x.c.h.h.2.f.c.h.h.c.v.u.8.v.h.c.c.c.c.h.h.g.s.s.s.a.g.p.9.s.a.a.a.a.g.1.w.a.r.B.q b {.L.[._.].].].].].].].].].].].].",
"_._.].]._._.].].].].].].].].].]._._._..Xa r B.g.c.u.1.b.h.h.h.h.c.0.p.c.h.h.c.c.c.h.h.g.s.s.s.a.a.i.6.s.a.a.a.e.g.4.6.a.e.g.:.= (.o.[.].].].].[.].].].]._._._.].",
"].].].]._.].]._.].].].].].].].].].]._.|.4 y.c.g.h.6.0.c.g.h.h.c.c.6.i.h.h.c.c.h.h.h.g.g.g.s.s.a.a.i.6.a.s.a.a.e.s.p.2.a.a.e.v.& J.`._.].].].].].].].].].].].].].",
"].].].|.P./.|._.].].].].].].].].]._.}.} 0 n.g.h.g.<.i.h.h.h.h.h.g.1.i.h.h.h.c.h.h.h.g.g.s.s.a.a.a.u.1.a.a.a.a.e.a.u.1.w.a.r.c.r m XXU._._.[._.L._._.].].].].].].",
"_.].P.L.o.L.o._.].].].].].].].]._.)..Xy D v.s.c.u.<.j.g.g.h.h.h.j.1.g.h.h.h.i.v.g.h.g.g.s.s.a.a.a.u.1.a.a.e.a.e.a.d.1.q.a.r.g.*.u .X_.[.].L.L.O.L.L._.]._._._._.",
"].].P.O.'.).O.).].].].]._._._._.I.o.[.4 y.h.s.4.p.1.g.g.g.h.h.h.w.1.g.g.h.h.I 5.v.g.g.g.s.s.a.a.a.d.<.e.a.a.a.a.e.d.1.0.a.e.a.5.4  X].].|.O.I.].L.o.].].].].].].",
"].].[.).]._._._.].].].]._.[.'.+.L.L.+.& h.g.s.A *.w.g.g.g.g.g.h.0.2.g.g.h.0.G X y.g.g.s.s.a.a.a.a.w.1.w.a.e.a.e.e.a.1.6.e.a.a.4.= [.].].].].].|.].].].].].].].].",
"].].].]._._._._.].].].]._.[._.L.U. X#.0 h.s.9.2 X d.s.g.g.g.g.h.0.2.g.g.j.<.1   r c.s.g.s.s.a.e.a.w.1.w.a.a.a.e.a.a.1.2.a.a.a.0.& ].[._.].].].].].].].].].].].].",
"]._._.]._.[.].].].].].[._._._.].]..X{ w h.j.I @.tXk.g.g.g.g.g.h.8.2.s.g.0.G sXIXUXS.s.g.s.a.a.e.a.q.<.w.a.e.a.a.a.r.1.6.e.a.a.<.= [._._.].].].].].].].].].]._.].",
"_._._._._.].]._.].].].].].].].].U..Xa w h.0.>.LXKXxXg.s.g.g.g.g.6.6.s.s.G E.LXLXNXBXh.s.s.a.e.a.a.q.1.w.a.a.a.e.a.w.1.7.a.e.s.G =  X_._.].].].].].].].].].]._._.",
"_._._._.]._._.].].].].].].]._._.]..Xa 1 h.P iXLXBXwXv.s.s.g.s.g.2.6.g.9.J eXLXLXqX9X@Xg.a.a.a.e.a.9.1.r.a.a.e.a.a.q.1.6.a.e.a.C 6  X_._.].].].].].].].].].]._.].",
"_._._._.].]._._.[._.].[._._._._._.}.a , w.H 4XBXeX8X+Xg.s.g.s.g.6.2.d.U D.7X6X6X3X8XVXj.a.a.a.a.a.6.2.e.e.a.e.e.a.9.<.9.a.e.q., { }._.].].].].].].].].].].].U.].",
"_._._._._.]._._._.].).L.[.]._._._.}.} > 2.A 2X1X1XwX@.i.s.g.s.g.8.6.7.S ; 3X2X1XwXNXx t h.a.a.a.e.6.2.e.a.e.a.a.a.6.<.w.a.6.P % U.[._.].]._.].].].].].].].].].].",
"_._._.U.[.]._.].].L.L.O.(.L._._._.[.P.% H 2 k 7X9XBXo *.h.s.s.s.8.1.3.Z X c 0X0XeXhX> q g.t.Y Y l.2.6.a.a.e.e.a.r.1.6.e.6.9.1 y  X_._.].].].].].].].]._._._._._.",
"_._._._.].]._._.].o.^._.L.L.[._.].U.{.d U K =.S.|.5.3.i.s.d.s.s.8.1.j.j.g.g.g.h.h.s.h.g.Y T R MXIXR 9.a.e.a.h.s.9.1.9.6.6.H % U.]._._.].].].].].].].]._._._._._.",
"_._._._._.].]._._._._._._._._.]._._._.T T MXMXt.e.7.w.s.s.g.g.g.e.6.9.s.d.a.a.a.w.9.s.Y V R R R R T e.a.e.c.n.d.1.1.1.2.1.O {  X_._._.].].].].].].]._._._._._._.",
"_.)._._._.]._.].].].].].[.]._._._._.].K V R T P Z F w.s.G < > > + O O % f.g.a.1   D g.w.T V T L L 9.a.e.e.c.g.6.1.1.9.<.O a  X_._.].].].]._.].].].].[.].)._._._.",
"_._._._.].]._.].].].].].].].].]._._._.'.F.+ C e.A r H G w               t F e . 4 h.e.a.a.r.q.1.4.e.a.e.e.r.2.<.2.q.J O a .X_._._._._.].]._.]._.].]._._.[._._._.",
"]._.].].].].].].].].].].].].].].[._._._.}.Y.o C w.H O       . . . . . .       t h.e.e.e.a.a.9.1.9.a.a.w.7.1.6.q.P 1 * } .X_._._._._.[._.].].].].'.].O.^.'._._._.",
"_._._._.].].].].].].].].].].].]._.]._._._.}.U.= 2 I 0.F - .           . - t f.h.e.a.a.a.a.6.<.6.w.9.6.6.7.9.I 1 % s ].}.U._._._._.[.].].].]._.|.L.o.L.L.+._._._.",
"].].].].].].].].].].].].].].[._._._.].].].].[.}.a # < J 8.4.=.F F D F 5.4.w.9.9.r.w.w.9.2.2.6.9.9.9.7.G C > * a U..X[.].|.].|._.].].].].[.]._.].^.^.|.).I.].].].",
"]._.]._.].].].].].].].].].].].]._._._._._._._._. X_._ = % , C G P 7.9.q.9.6.8.9.9.6.7.7.2.P I S C , + * 7 8 _ } .._.].].'.].].].[.].).L.]._._._.[.[.].]._._.]._.",
"]._._.].].].].].[.)._.].].].]._._.].]._.]._.]._.).]..X XJ.{ u = * - - < , , 1 , , , , - O # $ $ : k 3 [ [ ) ] $ u ).].'.].].[.U.|.o.L.O.L.L.[._.].].].].].]._.].",
"].].].].].].[.'.).O.P.'._.].].].].].].].].[.)._._.].]._.[. XoX X|.U.G.}  ._ # 3 W W / x x ) ) ] B *X9 ( ) ! 5 R.nXW.~.[.].[.[.].`.o.P.].L.L.[._.].].].].].].].].",
"]._.].].].].|.L.X.P.L.X.{.].].].].].].].).^.+.L.P.].].].].'.]._.].|.|.}.XX_.R.n 5 ! ! &Xc ' ] ! c *X3 Q ! Q p bXvXnXoXI.[.[.U.]._._._._._._._._.].].].].].].].].",
"_.].].].]._.].U./.|.'.P._.].].]._._._.|.L.+.).I.X.'.].].].].].].].].U.].).E.AXSXR.5 Q #Xx ! ! ! / *X3 5 5 5 d +XkXbXDXT.U.U.[.]._._._.].].].].].].].].].].].].].",
"].].].].].].].].[._._.].[.].].].].].].].'.).]._.'._.].].].].].].].].|.U.iXFXzXkXQ.4 3 z z Q ! ! 8 *Xc Q 3 $ u >.+XbXSXcXG.}.U.]._.[.].].].].].].].].].].].].].].",
"_.]._.[.]._.].]._._.].].].].].].]._.].].].]._.]._._._._.].].].].{.}.]...FXSXkX@X,.6 i M N x :Xc c :XM z &Xj ` ,.@X!.yXrXm U.}.[._._.].].].].].].].].].].].].].].",
"]._.].U._.].].].].[.].].].].].]._.].].].].].].]._._.[._.].].].].'.(.$.| cXjX+X!.` ].K.7 B #X5X;X*XM M *X&Xx J.U.K yXJXLXHX| ].P.]._.].].].].].].].].].].].].U.[.",
"_._._._._.].]._.].].].].].].].]._._._._._._.[._.'.].].].].].[.[./.O.J.n sXdXW.K J.}._.B $X$X%X=X#Xl *X=X&Xh } XXn HXLXKXLXiX+.o.^.^.[._.[._.].].].].]._._.'.].].",
"_._._._.].]._.].].].].].].].].]._._._._._._.U._._.].].].].].].].].{.| HXLXLXHXn K.]. X` *X%X;X>X*Xz -X*X%Xh ` .X| sXCXrXiXN ..].O.L.]._.]._.].].].].].]._.].]._.",
"_._._._._.]._._.].].].].].].].)._._._._.)._._._._.].].].].].].].{.[.R.PXCXCXIXN H.oXG.j z $X=X-X%Xx *X%X;X;Xx G.#.pXiX!.zXE.@.~.].'.].].].].].].].].]._._._._._.",
"_._._._._.].].].].].].].].].].]._._._._.]._._._._.].].].].].].].].]. .yXE.W.VXtX} Y.j >X&Xl z z l &X&X#X=X;X5Xj uXLXVXiXiXcXdXG.|._.].].]._.].].].].].]._._._._.",
"_._._._._._._._.].].].].].]._._._._._._.U._._._._.].].]._._._._.{.H.N +XbXE.VXLXmXv >X;X;Xz x x l l g l *X-X5X:XHXaXJXHXPXLXJX .`.]._.].].].].].].].].]._._.'._.",
"_._._._._._.].]._.].].].].].]._._._._.)._._._._._.].].]._.[._._.[...pXsXdXsXIXrXpX&X>X-X=X#Xg ` } } ` g $X*X=Xk n f dXPXJXUXVX| ].].].].].].].].].].].]._._._._.",
"_._.)._._.[._.'._.].].].].]._._._._.].]._._._._._.].].]._._._._. X..VXLXLXLXUXv F.u x %X&Xg ` XX[. XXX` h $Xx f F.iXVXsXVXtXN J.[._.].].].].].].].].]._._._._._.",
"_._._._._.).^.O.'.U.].].].].]._._._.]._._._._._._.].].]._._._._.|...pXUXCXZXCXsXF.F.F.g l a  X_._._._.XXb g , lXF.n HXv n ` H.]._.].].].].).].].].].].]._._._._.",
"_._._._.].+.L.^.o.o.|.].].].]._._._._._._._._._._.].].]._.].].].].[.| N tXrXN CXv jX@X+ 7 ].].].].].].].|.7 d kXAXuXy J._.|.[._._._._.].]._.].]._.[.]._._._._._.",
"_._.[._._.P.'.[./.P.].].].].].].].].].].].[.]._.].].]._._.].].].].]._.G.G.} ..y cXvXQ.a U.[.U.].].].].].].}.d +XvXcX...X_.]._.]._.].].].].].].]._._.[.]._._.].].",
"_._.[._.].].[.]._.[.].].].].].].].]._._._._._._.]._._._.].].].].].].].}.|.}.`.R.DXzXF.G. X].[._.].].].]._.[.` !.vXcX .}._._.]._.].].].].].].].].[._.O.P._.]._._.",
"_._._._.].].].].].].].].].].].].].].].]._._.[.[.).).[.[.].].].].].].].]._.[.H.uXDXkX>.J.[._._._.].].].]._.[.,.Q.vXDXR.|._.].].].].].].].].].].|.L.o.L.L.+._.].].",
"].].].].].].].].].].].].].].].].].].].].].]._./.P.O.P.'.].].].].].]._.].|.|.G.tXnXQ.K /.'.]._._.].].].]._.[.J.d F.iXm Y.}._._.[.].]._._.].].].[.P.L.|.'.o._.].].",
"]._.].].].].].].].].].].].].].].]._.].]._.]._.+.^.^.O.L.|.].].].[.].].}. X|.n sXsXsXn U.[._.[._.].].].]._.}. .aXJXCXZXn ~._.}.|._.]._.[.].].]._._._._.[.]._.].].",
"].].].].].].].].].].].].].].].].].].].].].].].^._.].'.'.].].].].|.|.K.` a u B JXCXHXN K.[.].].'.].].].].|. XG.N ,XN v ; n m a U.}.U.]._.].].].].].].].]._.[.].].",
"_.]._.].].].].].].].].].].].].].]._.]._.]._._._._._.].].].].].].|.G.b sXHXHXrX: * ; u G.[.'.(.o._.].|.|.U.|.{ ; ; @ v CXLXLXmXb J.}.).].].].].].].].].].].]._.].",
"_.]._.].]._.].].].].].].[.].]._.].]._._._.]._.]._._._._.[._.[.].~.b HXLXLXLXKXcX; ; fX| ~.X.L.L.X.^.[.].}.G.tX,X@ v PXPXLXLXLXCXp /.X.^.).].].].].].].].]._._.].",
"].].].].].].].].].].].].].^.).|.].].].].].].].].].]._._._._.]. X` dXLXLXLXKXIXIX,X@ B n H.L._._.I.U._.].|.G.v ; ; VXJXIXPXLXKXLXtX} {.L.X.].].].].].].].].].].].",
"]._.]._.].].].].].].].P.L.O.L.L.'.]._.].]._._.].]._._.[.].].].}.p tXpXpXpXpXrXrXrX@ . o U.[._.].].]._.].}.} o o v rXtXtXrXrXrXpXN a  X'.P.[.].].].].].].].].]._.",
"_._._._.].].]._.].].[./.X.).).X.'._._.].[.U._._._.[._._.].].[.).v fXVXdXpXpXpXaXaXaXaXB `  X_._.].].].]. Xp tXVXsXsXsXsXsXsXVXZXfXs }.'.[.].].].].].].].]._._._.",
"_._._._.].]._.].].].].]._._._.)._._._._._._._._._.].].].].].]._.b R.uXT.T.T.T.T.R.R.R.m } }._._.].].].].[.} b | n | | | | m | | m ` }._._._.].].].].].].].]._._.",
"U._._._.].].].].].].]._._._.]._._._._._._._._._.].].].]._.].].]._.U.J.H.H.H.K.K.Y.K.J.U.].]._.[.].].].].].[.|.].`.~.`._.`.`.`.`.}.|._.]._._.].].].].].].]._._._.",
"[._._._.].]._._.].].].]._.[._._._._._._.)._._._._.].].].].].].].].[.].|.].].].].].].|.]._._._.].].].].].].].U.]._._._.)._._._.)._._._.]._._._.].].].].]._._._._.",
"_._._._._.]._.].].].].]._._._._._._._._._._._._.].].].]._.].].].].].].U.].].].].].].|.U._.]._._.].].].].].].[.]._._._._._._._._._._._._._.[._.[.].].].].)._._._."
};
