/* XPM */
static char *player_l5_resized[] = {
/* columns rows colors chars-per-pixel */
"80 80 253 2 ",
"   c #010100",
".  c #080B00",
"X  c #171805",
"o  c #120F0B",
"O  c #251801",
"+  c #2B180C",
"@  c #152E10",
"#  c #272709",
"$  c #372706",
"%  c #232B15",
"&  c #293518",
"*  c #313606",
"=  c #2E2F2D",
"-  c #101E2A",
";  c #462A00",
":  c #4B3601",
">  c #593101",
",  c #6A3A00",
"<  c #753C00",
"1  c #134F13",
"2  c #30411C",
"3  c #2C4A17",
"4  c #1C771E",
"5  c #1A7308",
"6  c #344924",
"7  c #3B5629",
"8  c #2D4929",
"9  c #326A34",
"0  c #216B2C",
"q  c #454801",
"w  c #555300",
"e  c #564A0C",
"r  c #675C00",
"t  c #794601",
"y  c #686400",
"u  c #787500",
"i  c #776B00",
"p  c #47562F",
"a  c #4D6935",
"s  c #587639",
"d  c #506A35",
"f  c #667C38",
"g  c #7B6F2F",
"h  c #615720",
"j  c #1B3656",
"k  c #162E47",
"l  c #325058",
"z  c #31754D",
"x  c #194372",
"c  c #2B5072",
"v  c #356373",
"b  c #51514F",
"n  c #5C7646",
"m  c #59674E",
"M  c #6D7450",
"N  c #696865",
"B  c #737373",
"V  c #5E5D63",
"C  c #D73C2D",
"Z  c #C63417",
"A  c #8A4E00",
"S  c #895502",
"D  c #995B00",
"F  c #A25D01",
"G  c #906D00",
"H  c #AA6802",
"J  c #B56700",
"K  c #A87700",
"L  c #B57501",
"P  c #837834",
"I  c #AC6124",
"U  c #CC7B00",
"Y  c #C77600",
"T  c #D57C00",
"R  c #D36D08",
"E  c #DB5C21",
"W  c #E84B4C",
"Q  c #E94E60",
"!  c #B55B4D",
"~  c #249514",
"^  c #2BAD15",
"/  c #1C8B22",
"(  c #279927",
")  c #2A882A",
"_  c #29A82A",
"`  c #30B42B",
"'  c #1B980D",
"]  c #68853A",
"[  c #73903C",
"{  c #78A33D",
"}  c #45B233",
"|  c #34C933",
" . c #4AC330",
".. c #698546",
"X. c #728D43",
"o. c #779846",
"O. c #738654",
"+. c #6D8D49",
"@. c #74B956",
"#. c #7CBB56",
"$. c #76BA58",
"%. c #74AD51",
"&. c #788668",
"*. c #56AD46",
"=. c #7CC15A",
"-. c #989400",
";. c #928D00",
":. c #B98701",
">. c #B69305",
",. c #B7B600",
"<. c #B0A701",
"1. c #998E39",
"2. c #AE9136",
"3. c #B6B036",
"4. c #D68300",
"5. c #DA8500",
"6. c #DE8A00",
"7. c #D68B00",
"8. c #DA9400",
"9. c #C99708",
"0. c #E48C00",
"q. c #E78900",
"w. c #F98C00",
"e. c #E39300",
"r. c #EB9300",
"t. c #E59B00",
"y. c #EB9B00",
"u. c #FB9500",
"i. c #F39A00",
"p. c #FC9E00",
"a. c #F19600",
"s. c #D6A500",
"d. c #CBAF00",
"f. c #EBA600",
"g. c #FEA200",
"h. c #FEAC00",
"j. c #F4A800",
"k. c #EBB600",
"l. c #FEB300",
"z. c #FEBC00",
"x. c #F4B400",
"c. c #C39D30",
"v. c #D0CD00",
"b. c #FEC300",
"n. c #FECB00",
"m. c #F3C700",
"M. c #FED300",
"N. c #FFDB00",
"B. c #F5D500",
"V. c #EEC000",
"C. c #FEE300",
"Z. c #FEEB00",
"A. c #F1EE00",
"S. c #FEFE01",
"D. c #FCF400",
"F. c #E3E600",
"G. c #FFD630",
"H. c #C7CB3F",
"J. c #869151",
"K. c #85AA4A",
"L. c #8FBA49",
"P. c #89B349",
"I. c #92BC4D",
"U. c #83BE56",
"Y. c #88BB56",
"T. c #93BB53",
"R. c #86AB52",
"E. c #889377",
"W. c #8B9173",
"Q. c #AA986D",
"!. c #A89F64",
"~. c #DAAE5A",
"^. c #94C24E",
"/. c #8CC156",
"(. c #8CC258",
"). c #86C259",
"_. c #94C356",
"`. c #9AC457",
"'. c #9DC955",
"]. c #94C358",
"[. c #9BC558",
"{. c #9EC95A",
"}. c #95C95B",
"|. c #A1CD5B",
" X c #A0C857",
".X c #A5D25C",
"XX c #A9D55D",
"oX c #AAD95D",
"OX c #ADDB64",
"+X c #9FDB6C",
"@X c #F8D559",
"#X c #F5C767",
"$X c #FFE751",
"%X c #2D5886",
"&X c #2D588D",
"*X c #376896",
"=X c #36628C",
"-X c #3667A3",
";X c #3B73AA",
":X c #3D77B4",
">X c #375FA8",
",X c #427BB8",
"<X c #617491",
"1X c #457CC1",
"2X c #847C83",
"3X c #068CAE",
"4X c #4582BC",
"5X c #639C92",
"6X c #00B8F4",
"7X c #12B8E0",
"8X c #4483C6",
"9X c #00C6F9",
"0X c #15C4ED",
"qX c #39DAFF",
"wX c #29D0F8",
"eX c #4FDAFF",
"rX c #42E6FF",
"tX c #7BE2E3",
"yX c #969697",
"uX c #90908D",
"iX c #B2A992",
"pX c #A7A6A8",
"aX c #B7B5B8",
"sX c #B0ADAF",
"dX c #9CA09B",
"fX c #FAA8B1",
"gX c #E3B19C",
"hX c #A8D998",
"jX c #F5D58B",
"kX c #FFE797",
"lX c #CFCAB7",
"zX c #FFF4B4",
"xX c #FDEAB1",
"cX c #E6D0A5",
"vX c #BEBAC3",
"bX c #C0BDC5",
"nX c #FFA6C3",
"mX c #83F2FF",
"MX c #B3D7DC",
"NX c #C6C5C8",
"BX c #D8D7DA",
"VX c #D3D0D0",
"CX c #FFF4C9",
"ZX c #FFF7DA",
"AX c #DADCE2",
"SX c #E1DEE7",
"DX c #DEFCFC",
"FX c #C3E9F2",
"GX c #E7E8E9",
"HX c #FEFEFE",
"JX c #F5F4F6",
"KX c #EFF0EF",
"LX c #DFE4D6",
/* pixels */
"`.`.`.`.{.[.[.`.[.[.[.[.[.[.[.`.`.`.`.`.`._.`.`.`.[.[.[.[.[.[.`.`.`.`.`.`.`.`.`.`.`.`.`.`.`.`.`.{.`.`.{.[.[.[.{.[.[.`.`.`.{.[.`.`.[.[.[.[.[.[.[.[.[.`.`.`.`.}.`.",
"`.`.`.`.T.[.[.[.[.[.[.[.[.`.`.`.`.`.`.`.`.`.`.`.[.[.[.`.[.Y.U.'.`.[.`.`.`.`.`.`.`.`.`.`.`.[.`.`.`.`.`.`.[.[.[.T.T.[.`.`.`.T.`.`.`.[.`.[.[.[.[.[.[.[.`.`.T.U.`.`.",
"`.`.`.`.[.[.[.[.[.`. X[.[.[.[.`.`.`.`.`.`.`.`.[.`.[.[.].@.U.U.$./.'.`.`.`.`.`.`.`.`.`._.`.`.`.`.[.[.[.[.[.[.[.[.{.`.`.`.`.`.`.`.].[.[.[.[.[.[.[.[.[.`.$.U.#.@.Y.",
"`.`.`.`.[.[.[.[.`.[.Y.{.{.[.`.`.`.`.`.`.`.`.T.{.[.[.[._.$._.`.U._.`.`.`.`.`.`._.`._.'.|.{.`.`.`.[.[.[.[.[.[.[.[.[.`.`.`.`.`.`.`.[.[.[.[.[.`.[.[.[.[.`.$._.'.U./.",
"`.`.`.`.{.[.[.[.(.(.@.(.Y.`.`.`.`.[.`.`.`.[.`.[.[.[.[.`.`.`.`.[.[.[.[.`.`.`.`.`.`..XY.] o.[..X].[.[.[.[.[.[.[.].[.`.`.`.`.[.`.[.[.[.[.[.[.[.[.[.[.[.[.[.'.`.[.'.",
"`.`.`.`.[.`.[.{.#.$._.Y.@.`.{.`.`.`.[.[.[.`.[.[.[.[.[.[.[.[.[.[.[.[.[.[.`.`.`.`..XJ.3 1 1 3 X.|.[.[.[.[.[.[.[.[.`.[.[.[.[.`.`.[.[.[.[.[.[.[.[.[.[.[.[.[.[.`.`.`.",
"`.`.`.`.[.[.[.[.].]. X`._.`.`.`.[.[.[.[.[.`.[.[.[.[.[.[.[.[.[.[.[.[.[.{.`.`.`.{.P.1 _ ( ( ) 1 ] .X[.[.[.[.[.[.[.[.[.[.`.{._.T.{.[.[.[.[.[.[.[.[.[.[.[.[.[.[.`.[.",
"`.`.`.{.[.[.[.[.[.{.[.`.`.[.[.[.[.[.[.[.[.[.[.[.[.[.[.[.[.[.[.[.[.[.{.].T.{.`.|.6 _ | _ ( ( / 3 [.[.[.[.[.[.[.[.[.[.`._._.@.Y._.[.[.[.[.[.[.[.[.[.[.[.[.[.[.[.[.",
"[.[.[.[.[.[.[.[.[.[.[.[.[.[.[.[.[.[.[.[.[.[.[.[.[.[.[.[.[.[.[.[.[.T.].@.Y.Y..X] 4 | ` _ _ ( / 3 T.[.[.`.[.[.[.[.[.[. XU.@.Y.Y.@.`.`.`.[.[.[.[.[.[.[.[.[.[.[.[.[.",
"[.[.[.[.[.[.[.[.[.[.[.[.[.[.[.[.[.[.[.[.[.[.[.[.[.[.[.[.[.[.[.[. XU.$.(.Y.@.`.3 ` ` _ ( ( / 1 s .X[.{.`.[.[.[.[.[.[.[.].Y. X_./.[.[.{.[.[.[.[.[.[.[.[.[.[.[.[.[.",
"`.[.[.[.[.[.[.[.[.[.[.[.[.[.[.[.[.[.[.{.[.[.[.[.[.[.[.[.[.[.[.[.[.`.].{.`.`.o.4 | _ ( 4 @ 7 %.).#.T.{.`.[.[.[.[.[.[.[.[.`.`.`.{.[.[.[.[.[.[.[.[.[.[.[.[.[.[.[.[.",
"`.`.`.`.`.[.[.[.[.[.[.[.[.[.[.`.[.[.[.`.`.[._.`.[.].[.[.[.[.[.[.`.[.`.[.^..Xf / | ( / @ o.).}._.$.(.[.[.[.[.[.[.`.`.`.`.`.`.`.`.`.`.`.[.[.[.[.[.[.[.[.[.`.`.[.`.",
"[.[.`.{.[.[.[.[.[.[.[.[.[.[.[.[.`.`.`.`.`.`.[.`.[.`.[.[.[.[.[.[.`.`.`.`.[.OX] / _ ) 1 ] OX.X.X{.{.[.[.`.[.[.[.[.[.[.[.[.`.`.`.`.[.[.[.[.[.[.[.[.[.[.[.[.[.[.[.[.",
"`.`.`.`.[.[.[.[.[.[.[.[.[.[.[.`.[.`.`.`.[.'.U._.{.`.[.[.[.[.[.[.`.{..X|.Y.X.8 ( _ ) @ & 2 p f R.|.XX{.`.`.`.[.[.`.`.`.`.`.`.`.`.[.[.[.[.[.[.[.[.[.[.[.[.[.[.`.`.",
"`.`.`.`.[.`.$._.[.[.[.[.[.[.[.[.[.`.`. X/.U.$.U.#.[.[.[.[.[.[.]..X|...6 * r , 1 / 1 % :.,.-.y * & d T.XX[.[.[.[.[.`.`.`.`.`.`.`.`.[.[.[.[.[.[.[.[.[.[.[.[.[.`.[.",
"`.`.`.[.#.#.U.U.$.`.[.[.`.[.`.`.`.`.`.'.Y.$.`.T.$.[.[.[.`.`.|..Xs % w ,.D.S.z.G r i d.C.S.S.S.S.v.y % p `..X[.`.`.`.`.`.`.`.`.`.`.[.].[.[.[.[.[.[.[.[.[.`.`._.`.",
"`.`.`.`.U.Y. XY.U.[.`.`.{.`.[.`.`.`.`.[.`.T.`.`.[.`.`.`.[.XXK.& w v.S.S.S.C.D.S.S.S.S.S.S.n.C.S.S.S.F.y # ..oX`.`.`.`.`.`.`.`.`.`.[.`.[.[.[.[.[.[.`.`.`.`.`.`.`.",
"`.`.`.`.`.`.`.{. X[.`.[.`.`.`.`.`.`.`.`.`.`.`.`.`.`.[.`.XXd # ,.S.S.S.S.S.M.S.S.S.S.M.l.S.C.j.b.Z.D.Z.S.v.* 8 `. X_.[.`.`.`.`.`.`.[.`.[.[.[.[.`.`.{.`.{.`.`.`.`.",
"`.`.`.`.`.`.[.`.[.[.{.`.[.`.[.`.`.`.`.`.`.`.`.`.`.[.{.{.8 w D.S.N.D.S.S.N.Z.S.S.S.S.C.h.z.S.b.g.l.C.Z.l.Z.S.i @ P.|.`.`.`.`._.`.`.[.[.[.[.`.[.`.{.).Y.{.[.[.`.`.",
"`.`.`.`.`.`.[.[.[.[._.`.`.`.[.`.`.`.`.`.`.`.`.`.].{.[.& u S.C.b.D.N.C.N.b.S.S.S.S.S.M.l.g.N.C.h.h.g.N.Z.g.b.S.<.X R.|.`.`.`.`.`.`.[.`.[.[.[.`.T.#.#.U.$.T.`.`.`.",
"`.`.`.`.`.`.[.{._.].@./._.`.[.`.`.`.`.`.`.`.`._.{.{.% ;.S.M.z.Z.N.z.b.z.B.S.S.S.S.D.z.l.h.h.Z.x.h.h.g.C.B.u.l.S.,.X R..XT.`.`.`.`.[.`.[.{.`.[._.#.`._.#.T.{.`.`.",
"`.`.`.`.[.[.`. X#.$./.).@.`.[.`.`.`._.`.`.`.`.`.|.& ;.S.n.l.B.C.b.b.n.x.Z.S.S.S.S.n.l.l.l.g.M.k.g.l.h.g.C.x.p.j.S.,.X T.|.`.`.`.`.[.`.[.`.`.`.[.[.[.{.[.`.`.`.`.",
"`.T.`.`.`.`.`.[.T.(. X_.Y.`.`.`.`.`.`.`.`.`.`..X6 u S.b.z.k.Z.b.b.n.z.k.N.Z.S.D.n.z.z.l.l.h.z.m.y.l.h.g.l.N.y.g.j.S.-.% |.[.`.`.`.[.`.[.`.[.[.[.[.[.[.[.`.`.`.`.",
"`.{.`.`.[.[.[.[.[.{.[.`.{.`.[.`.`.`.`.`.`.`.XXs q S.b.b.f.B.n.b.b.n.k.k.n.b.M.b.b.z.z.z.l.h.g.n.y.h.g.h.p.b.k.y.g.p.S.w p XXT.`.`.[.`.[.[.[.[.[.`.[.[.[.`.`.`.`.",
"[.`.[.`.`.`.`.[.[.[.[.[.].[.[.[.`.`.`.`.].|.R.# A.M.b.j.f.N.z.b.b.n.t.B.b.n.n.b.b.z.z.l.l.h.g.b.f.g.h.h.g.g.M.8.j.p.h.D.# o.|.}.`.[.`.[.[.[.[.[.[.[.[.[._.`.`.`.",
"`.[.[.[.`.{.{.[.[.[.[.[.[.[.[.[.[.`.`.[.[..X& <.Z.z.b.e.B.b.b.b.n.z.t.M.b.b.n.b.b.z.z.l.l.h.g.l.k.r.h.g.g.p.l.k.q.h.p.n.,.% |.[.`.`.[.[.[.[.[.[.[.[.[.[.[.[.`.[.",
"[.`.`.`.`.`.`.`.[.[.[.[.[.[.[.[.`.[.[.T.XXf w D.l.b.f.f.M.z.b.b.n.j.f.n.b.n.b.b.b.z.l.l.h.h.g.h.k.0.h.h.h.g.p.b.6.p.g.u.D.w s }.`.`.[.[.[.[.[.[.[.[.[.[.[.[.[.`.",
"[.[.[.[.`.`.{.`.[.[.[.[.[.[.[.[.[.[.[.{.[.& v.n.z.b.6.k.b.z.z.b.n.t.f.n.z.b.b.b.z.z.z.l.l.h.g.g.x.6.g.h.g.g.p.z.t.0.h.p.z.d.% =.U.U.{.[.[.[.[.[.[.[.[.[.[.[.[.[.",
"`.`.[.`.`.`.{.`.[.[.[.[.[.[.[.[.`.`.T.XXs y C.l.b.f.8.n.z.z.b.b.b.6.x.z.b.b.b.b.z.z.l.l.h.h.g.g.l.6.j.g.g.g.g.g.k.5.g.g.p.N.q +.).Y.{.[.`.`.`.`.[.[.[.[.[.`.`.`.",
"[.[.[.[.[.[.`.`.[.[.[.[.[.[.[.[.[.[.{.|.2 d.b.z.z.0.f.b.z.z.z.b.x.6.b.z.z.b.b.z.z.z.z.l.h.h.h.p.h.8.a.h.g.p.p.g.h.5.r.g.u.z.-.6 XX_.[.[.`.`.{.[.[.[.[.[.[.[.[.[.",
"[.[.[.{.Y.(. X`.[.[.[.[.[.[.[.[.[.`..X+.w C.l.z.j.4.x.z.z.z.z.b.j.6.b.z.z.z.z.z.z.z.l.l.h.h.g.g.g.e.r.h.g.g.p.p.h.8.q.g.g.g.k.& {.[.[.{.`.{._.Y.`.{.[.[.[.[.[.{.",
"`.[.T.U.#.U.#.`.[.[.[.[.[.[.[.[.`.T.XX7 ;.n.l.z.y.6.b.l.z.z.z.z.y.8.z.z.z.z.n.z.z.z.l.h.h.h.g.p.h.t.0.g.g.g.g.p.h.t.5.p.g.u.z.3 o.|.`.`.{.U.U.$.Y.U.`.[.`.`.[.T.",
"`.{.Y.$.}.T.@._.[.[.[.[.[.[.`._.).=.}.& k.z.l.b.6.e.z.l.l.z.z.b.t.t.z.l.z.l.s.n.l.z.l.h.h.h.g.p.g.t.0.g.g.g.p.p.g.y.5.i.g.p.l.r ...X_.`.'.#.U.`.Y.$. X[.[.[.[.[.",
"`.`.{._.[.{.`.`.[.[.[.[.[.[._.@.).).+.q n.l.f.s.0.t.z.l.z.l.z.z.0.e.z.l.z.y.F <.b.l.l.h.h.g.g.g.g.y.6.g.g.p.g.p.g.y.5.r.g.p.l.G d oX_.`.{.`.[.{.{.`.`.[.[.[.[.[.",
"[.[.[.[.`.[.{.`.[.[.[.[.[.[.`.U._..Xa y b.l.q.S 9.j.l.l.l.l.z.l.6.y.l.l.h.T > . V.z.l.l.h.g.g.p.p.y.5.g.p.g.g.p.g.i.4.r.g.p.h.H p .X`.}.`.`.{.[.`.[.[.[.[.[.[.[.",
"`.`.[.`.[.[.`.`.[.[.[.[.[.[.[.[.`.XXa G b.l.T . r l.l.l.l.l.l.l.5.y.l.l.r.F p b 2.z.h.h.h.g.g.g.g.0.6.g.g.g.p.g.g.a.4.r.g.p.l.S a .X`.`.`.`.[.`.[.[.[.[.[.[.`.[.",
"`.`.`.`.{.`.`.`.[.[.[.[.[.[.[.`._..X7 K z.f.H <XQ.k.l.l.l.l.l.l.5.y.l.l.Y ~.HXHXDXG.l.h.g.g.p.g.g.q.5.p.g.p.p.p.p.r.5.r.g.p.h.t d .X`.`.[.[.[.[.[.[.[.[.`.`.`.`.",
"`.`.`.`.`.`.`.`.[.[.[.[.[.[.`.`.^..X6 L b.U ~.HXDX@Xh.l.l.h.l.h.5.r.l.y.H LXHXHXrXhXz.g.h.g.g.p.g.0.0.g.p.g.g.p.g.r.4.r.g.p.p., ..|.`.`.[.[.[.[.[.[.[.`.`.`.`.`.",
"`.`.`.`.`.`.{.`.[.`.[.'.[.[.[.`.'..X6 D z.L MXHXtXtXz.h.l.l.l.j.5.r.l.T J.eXJXFX9XqX$Xh.g.g.g.g.p.0.6.p.g.p.g.g.g.0.5.a.g.i.5.$ K.|.`.[.[.[.[.[.{.[.[.[.`.`.`.`.",
"`.`.`.`.`.`.`.`.`.[.`.U.[.[.[.[._..Xp A j.I wXFX0XwXG.h.h.h.l.h.4.r.i.J 5X9X3X3X0XrXW.f.g.g.g.g.p.5.0.g.p.g.g.p.p.0.5.p.p.r.J & {.`.`.[.[.[.[.[.`.[.[.`.`.`.`.`.",
"`.`.`.`.`.[.[.[.[.U.U.$.Y.Y.[.[.T.XXd , q.g 6X3X6XeX1.h.h.j.l.h.5.0.4.< - 6X6X6XtXMXo y z.p.p.u.w.6.r.g.g.p.p.g.i.5.0.g.0.r.> s .X`.`.[.[.[.[.[.[.[.[.`.`.`.`.`.",
"`.`.`.T.{.[.`.[. X#./.[.#.).[.`.`.|.X.$ Y o 3X9XrXsX. d.h.h.h.h.0.7.9.G w [ hX=.+Xc.;.9.p.E W gXgXR a.g.p.g.h.g.q.5.r.0.0.J % {.`.[.[.[.[.`.[.[.[.[.[.[.`.`.`.`.",
"`.`.`.`.`.[.`.`.[.[.`.`.`.`.`.`.`.[._.e R I >.H.3.9.s.x.h.h.h.h.r.6.h.z.z.h.h.l.l.l.l.w.C W Q nXnXE g.g.p.z.M.h.5.6.5.6.5.O o.|.T.{.[.[.[.`.[.[.[.[.[.[.`.`.`.`.",
"`.`.`.`.[.[.`.[.[.[.[.[.`.{.`.`.`.[.T.E W nXgXw.u.q.i.g.h.h.g.j.6.Y 4.8.j.g.y.L D :.l.R Z C Q C Z R g.p.g.n.z.0.5.5.0.0.$ s .X_.`.[.`.[.[.[.[.[.[.[.[.{.T.`.`.`.",
"`.`.`.`.`.[.`.[.[.[.[.[.[.[.[.`.`.[.T.I C W C T t :.y.h.D O O O X .   X m.h.0.O   <.h.p.T R R R 5.i.g.p.g.g.e.5.5.r.Y $ d XX`.`.`.[.`.[.[.`.[.[.[.[.`.`.`.`.`.`.",
"[.`.[.[.[.[.[.[.[.[.[.[.[.[.[.[.[.[.|.}.J.; F i.A i H H :             . q ; O X >.l.p.p.g.h.i.5.q.g.g.g.a.5.5.q.r.A O ...XT.`.`.[.[.[.[.[.[.[.[.].[.$./.`.`.`.`.",
"`.`.`.`.[.[.[.[.[.[.[.[.[.[.[.[.[.`.`.`..Xo.X A p.L O                       * s.l.u.g.g.p.a.5.0.p.p.r.0.6.r.0.F $ 2 R..XT.`.`.`.`.[.`.`.[.[.`. XU.@.U.U.@.`.`.`.",
"[.[.[.[.[.[.[.[.[.[.[.[.[.[.[.[.[.[.[.[.`.|.R.& ; L t.K : X         . * r 9.b.g.p.g.g.p.r.5.5.0.r.r.q.0.U S ; 2 X..X X[. X[.`. X`.`.{.{.[.[.[. X/./. X_.U.[.[.[.",
"[._.[.[.[.[.[.[.[.[.{.`.`.[.[.`.`.`.[.`.[.T.|.|.s % ; D 7.t.9.:.:.:.s.f.y.q.q.r.i.i.r.r.0.q.y.q.U H A ; % @ s T..X`.`.`.`.`.`.`.{.`._.#.[.{.[.[.[. X[.[.`.`.[.`.",
"[.`.`.[.[.[.[.[.{.T.`.`.[.[.[.[.[.`.`.[.[.{.`.[..X{...6 % ; < A F Y Y Y U 4.4.4.U Y J H D t , ; # - @ ) *. .} 8 d |.`.`.`.`.`.`. X#.U.#.U.U.[.[.[.[.[.[.[.[.`.[.",
"[.[.[.[.[.[.[.}.].#.U.].`.[.[.[.[.[.{.[.[.{.T._.`.`.|.XX].o.s 7 2 & & $ $ # X X # @ 3 - - 1 / ' z >X0  .} ^ ' 7 M T. X X`.`.`.`.'.#.Y.[.U.#.{.[.[.[.[.[.[.[.[.[.",
"[.`.[.[.[.[. XU.$.Y.Y.@.}.[.[.`.`.`.`.[._.(.@.U./.`.`.`.{.|..XXX.X|.[.T.T.Y.7 1 ' ^ ` *Xv  . .| z >X1 ^ ^ ^ 9 cXCXhXT.`. X`.`.`.[.[.`.`.[.[.[.[.[.[.[.[.[.`.[.[.",
"`.[.[.T.{.[.[.T.(.{.`.Y.`.[.[.[.`.`.`.`.Y.@._.Y.@.`.[.[.[.`.`.T.[.[.[.[.{.R.lXgXa ' ~ =Xl ^ ^ ^ z -X@ 4 / ' f kXkXzXVXo.`. X`.`.`.`.`.[.[.[.[.{.[.[.[.[.[.[.[.`.",
"[.[.[.[.[.[.[.[.{.`.`.[.{.[.[.[.`.{.`.{._._.[._./.`.[.[.[.[.[.[. X[.[.`.Y.cXxXzX!.5 5 =Xc ^ ^ ^ ) >X0 5 @ 1 h ~.jXxXZXlXK.|.`.[.`.`.{.[.[.[.[.`.[.[.[.[.[.[.[.[.",
"`.[.`.`.[.`.[.[.[.[.[.[.[.[.[.[.[.`.[.`.`.[.`.[.[.`.{.[.[.[.[.[.'.|.`.o.lXCXkX@X2.% 1 v v 8 z z 9 ,Xl z v k ] 1.@XjXgXiXn `.[.[.`.`.[.[.[.[.`.`.[.[.[.[.[.T.{.[.",
"[.`.`.[.[.[.[.[.[.[.[.[.[.[.[.[.`.`.`.`.`.`.[.`.`.`.[.[.[.[.[.[.}.}.=.&.ZXxXkX~.[ f [ b 2X%X4X,X>XV V >X*Xj ^.{ c.Q.aXSXNXO.T.T.[.[.[.[.[.[.`.[.[.[.[.[.[.[.[.[.",
"`.`.`.`.`.[.`.`.[.[.[.[.[.[.`.`.T.`.`.`.[.[.`.`.`.[.[.[.`.[.`. X(.$.P.m iXQ.#X2.K..X'.l %X=X*X*X=Xx %X;X=Xx o.oXd aXHXHXHXaX{ @././.[.`.`.`.[.[.[.[.[.[.`.`.`.`.",
"`.`.`.`.[.[.`.[.[.[.[.[.[.[.[.`.`.`.`.`.[.[.`.`.`.[.[.[.`.{.`.[._.}.O.VXKXAXuXf {.I.|.n :X=X,X4X=X%X4X-X=Xj ] OXf vXJXBXaXuXo.}.@.). X`.{.`.[.[.[.[.[.[.`.`.`.`.",
"`.`.`.`.`.[.`.`.[.[.[.[.[.[.`.`.`.`.`.`.`.`.`.`.`.[.[.[.`.[.[.`.{.P.yXHXHXHXGXO.'.|.o.l %X*X1X8X;Xc ;X*X;X,Xl K.I.W.aXQ.jXQ.&.^.`._.`.[.[.[.[.[.[.[.[.[.`.`.`.`.",
"`.`.`.`.`.[.`.`.[.[.[.[.[.[.[.`.`.`.`.`.`.`._.[.`.[.[.[.`.[.[.[.{.L.W.pXuXlXbXf oXP.l 8Xv c %Xc c v *X=X;X,X1Xv f lXNXQ.cXiXaXo. X`.[.[.`.[.[.[.[.[.{.`.`.T.`.`.",
"`.`.`.`.[.[.[.`.[.[.[.[.[.[.`.`.`.`.`.`.`.`.`.`.`.[.[.[.`.[.[.`. XR.W.jXjXQ.AXdXX.V :X8X;Xc x c %X&Xj x ;X:X4X;XdXJXGXbXNXKXHXE.L.{.[.[.[.[.[.[.[.[.[.[.`.`.T.`.",
"`.`.`.`.[.[.'.`.`.[.[.[.[.[.[.`.`.`.`.`.`.`.`.`.`.[.[.[.`.[.[.[.'.W.iXiXiXsXGXHXuXx 8X:X;X&X= n m m s j &X-X:Xx uXB uXHXJXGXJXyXK.|.`.[.[.[.[.[.[.[.[.[.`.`.{.[.",
"`.`.`.`.`.[.`.}.`.`.[.[.[.[.`.`.`.`._.`.`.`.`.`._.[.[.[.`.[.[.'.^.W.HXGXGXHXpXN N b l ;X*Xj [ oX|.'.oX[ j -Xj J.m Q.W.VXVXbXuX..[.`.`.[.[.].[.[.[.[.[.`.`.`.`.`.",
"`.`.`.`.[._.Y.@._.].[.[.[.[.[.`.`.`.`.`.`.`.`.`.[.[.[.`.[.[.[.|.^.E.JXKXGXKXyX!.1.cX!.k x s .X_.'.].}..Xm k > kXgXP VXNXV &.] T.[.`.[.[.[.`.[.[.[.[.[.[.`.`.`.`.",
"`._.`.`.`.@.U.).$.#. X[.[.[.[.`._.`.`.`.`.`.`.`.`.[.[.[.`.[.[.`. XX.dXpXNXyXJXQ.M xX#X% = |.'.`.`.}.`.{.`.6 g #XCXB M M K.I..X`.[.`.[.[.[.[.[.[.`.`.{.[.`.`._.`.",
"`.`.[.[.`.T.T.{.(.T.{.[.[.[.[.[.[.[.[.[.[.[.[.`.`.[.[.[.`.[.{.[.[.`.+.n &.p uXV iXzX~.f T.{.`.`.`.{.[.[.[.[.J.#XCXlX] ^.|.{.T.[.`.`.[.[.[.[.[.[.`.`.{.[.`.[.[.[.",
"`.`.`.[.[.[.{.[.[.[.[.[.[.[.[.[.`.[.[.`.`.`.`.`.[.{.`.`.`.[.`.`.[.{.|.|.T.|.1.O.ZXkX2.o.|.[.[.[.`.`.[.[._.|.] ~.zXlXo..X[.[.[.[.`.`.{.[.[.[.[.[.[.`.#.(._.[.[.[.",
"[.[.[.[.[.[.[.[.[.[.[.[.[.[.[.[.[.[.[.[.`.{.`.{._.].[.[.[.[.[.[.[.[.`.[. X X(.dXZXkX1.L.{.[.[.[.{.`.[.[.}.'.1.~.zXCXW. X[.[.[.[.[.[.[.[.[.[.[.{.).#.#.Y.$.[.[.[.",
"[.[.[.[.[.[.[.[.[.[.[.[.[.[.[.[.[.[.[.[.[.[.`./.Y.$.T.].[.[.[.[.[.[.[.`.`..X{ E.cX~.P {.'.{.[.[.[.[.[.[.'.{.P.g Q.iXm L.|.`.`.`.[.[.[.[.[.[.[.[.Y.). XT.#.`.[.[.",
"`.[.[.[.[.[.[.[.[.[.[.[.[.[.[.[.[.[.[.[.[.`.`.@.).(.$.U. X[.[.[.[.[. X|..X^.B aXaXsXM T.{.`.[.{.[.[.[.[._..XX.sXKXLXVXM ^.`.|.{.`.[.[.[.[.[.[.[.[.`.`.{.[.`.[.[.",
"[.[.[.[.[.[.[.[.[.[.[.[.[.[.[.[.[.[.[.[.[.[.[.Y.`.[.].].[.[.[.[.^.|.`.] f p N GXLXSXB I.{.[.[.`. X[.[.[.[.|.o.N <XN b = M M f I.|.T.[.[.[.[.[.[.[.[.[.[.[.[.[.[.",
"[.[.[.[.[.[.[.[.[.[.[.[.[.[.[.[.`.[.[.`.`.[.`.`.[.[.[.[.[.[.[.[.|.K.m sXSXAXyX= % = = P.{._.U.#.`.[.[.[.[.|.o.= = + b BXHXHXbXm P.|._.[.[.[.[.[.[.[.[.[.[.[.`.[.",
"`.[.`.`.`.`.[.[.[.[.[.[.`.{.`.`.[.[.`.`.[.`.`.[.[.[.`.`.[.[.[.{.I.m SXHXHXHXHXaX= = yX&.^.@.Y.Y.@.Y.|.[.|.K.uX2X+ V GXKXHXHXHXAXd /.@././.[.[.[.[.[.[.[.[.`.`.[.",
"[.[.[.[.[.[.[.[.[.[.[.[.'./._. X[.[.{.`.[.[.[.[.[.[.[.[.[.[.`..X..sXHXHXHXJXKXJXuX% V N L.).`.`.U.T.`.[. XR.b = = NXGXKXJXHXJXHXyX+.}.).@.{.[.[.[.[.[.[.[.[.[.[.",
"`.`.[.[.[.[.[.[.[.[.[.Y.U.$.U.U.].[.`.`.`.[.`.[.[.[.[.[.[.[.`.|.d yXpXpXpXpXyXuXuXo   o T.'.{.`.[.[.[.[.|.X.o % b yXuXuXyXyXyXpXB s .X_.T.{.[.[.[.[.[.[.[.[.`.[.",
"`.`.`.`.[.[.[.[.[.[. X(.$._._.$.].[.`.`.`.T.`.`.[.[.[.[.[.[.[._.p pXNXsXpXpXpXsXsXsXsXN ] .XT.{.[.[.[.[.|.a yXNXvXaXaXaXaXaXNXVXyXd '.`. X`.[.[.[.[.[.[.[.`.`.`.",
"`.`.`.[.[.[.[.`.[.[.[.[.`.`.`._.`.`.`.`.`.`.`.`.`.[.[.[.`.[.[.'.n W.uXW.E.E.E.E.E.W.E.m o.|.`.`.[.[.[.[.{.X.n M M M O.O.M O.O.O.M X.|.T.{.`.[.[.[.[.[.[.[.[.`.`.",
"[._.`.`.[.[.[.`.[.[.[.[.[.`.`.`.[.`.`.`.`.`.`.`.[.[.[.`.`.[.`.`.`.T.L.L.L.L.L.I.P.I.L.T.{.`.`.`.[.[.[.[.`.|.|.'.'.}.'.'.'.'.'.'.'.}.`.{.[.`.[.[.[.[.[.[.[.[.`.`.",
"`.`.`.`.`.`.`.[.[.[.[.[.[.[.`.`.`.`.`.`.`.`.`.`.`.[.[.[.`.[.[.[.[.[.[.[.[.[.[.[.[.[.[.[._.[.[.[.[.[.[.[.`.[.[.T.`._.`.[._._.`.`.`.`.`.`.[.[.[.[.[.[.[.[.`.`.`.`.",
"`.`.T.{.[.[.[.`.[.[.[.[.[.`.[.`.`.`.`.`.`.`.`.`.[.[.[.[.`.`.`.{.[.[.[.[.{.T.[.[.[.[. XT.`.[.`.[.[.[.[.[.{.[.[.`.`.`.`.`.`.`.`.`.`.`.`.`.[.`.[.[.[.[.[.[._.`.`.`."
};
