/* XPM */
static char *player_l3_resized[] = {
/* columns rows colors chars-per-pixel */
"80 80 256 2 ",
"   c #010100",
".  c #0D0700",
"X  c #14180C",
"o  c #29190C",
"O  c #122C0F",
"+  c #282907",
"@  c #392902",
"#  c #373805",
"$  c #283417",
"%  c #2A3115",
"&  c #2E302A",
"*  c #202329",
"=  c #472A00",
"-  c #463603",
";  c #573600",
":  c #473211",
">  c #673900",
",  c #733D00",
"<  c #403F33",
"1  c #135012",
"2  c #284419",
"3  c #334912",
"4  c #1A771C",
"5  c #156C13",
"6  c #217018",
"7  c #334625",
"8  c #3B5428",
"9  c #304A33",
"0  c #2C6C2C",
"q  c #1B4729",
"w  c #595500",
"e  c #4E4A09",
"r  c #7E4700",
"t  c #6E5C00",
"y  c #777600",
"u  c #726900",
"i  c #445A2B",
"p  c #4D4F34",
"a  c #4B6636",
"s  c #597839",
"d  c #566934",
"f  c #707631",
"g  c #153655",
"h  c #1D3447",
"j  c #1D544F",
"k  c #345456",
"l  c #2A4F70",
"z  c #2C5D61",
"x  c #53534D",
"c  c #5C6948",
"v  c #5A724C",
"b  c #677450",
"n  c #6F6F6A",
"m  c #5D5F67",
"M  c #CE3E2A",
"N  c #D73625",
"B  c #8C5400",
"V  c #935601",
"C  c #A95C05",
"Z  c #847500",
"A  c #8F6B02",
"S  c #A96700",
"D  c #BC6C00",
"F  c #B26901",
"G  c #B67600",
"H  c #827D2C",
"J  c #D57902",
"K  c #C57704",
"L  c #CE5824",
"P  c #8B7851",
"I  c #E3514D",
"U  c #25900F",
"Y  c #2DAF16",
"T  c #289126",
"R  c #2BA82B",
"E  c #30B32C",
"W  c #18880B",
"Q  c #66853B",
"!  c #71923C",
"~  c #48BA30",
"^  c #6B913D",
"/  c #31C531",
"(  c #49C234",
")  c #358248",
"_  c #688545",
"`  c #728C44",
"'  c #769846",
"]  c #748756",
"[  c #6D8D4E",
"{  c #7DA448",
"}  c #74B956",
"|  c #7CBB56",
" . c #76BA58",
".. c #72B353",
"X. c #7C866D",
"o. c #68C24A",
"O. c #868200",
"+. c #9D9C00",
"@. c #998700",
"#. c #B58806",
"$. c #A8A600",
"%. c #BAAC01",
"&. c #A78733",
"*. c #A29831",
"=. c #CA8500",
"-. c #D58300",
";. c #DA8500",
":. c #DC8A00",
">. c #D68C00",
",. c #DA9500",
"<. c #C89B00",
"1. c #E38C00",
"2. c #EA8B01",
"3. c #E49300",
"4. c #EC9300",
"5. c #E89B00",
"6. c #F29501",
"7. c #F39A00",
"8. c #FC9D00",
"9. c #F89500",
"0. c #F78709",
"q. c #D9AB00",
"w. c #D4BD00",
"e. c #E3A200",
"r. c #ECAB00",
"t. c #EAA400",
"y. c #FEA200",
"u. c #F4AC00",
"i. c #FEAB00",
"p. c #F2A401",
"a. c #EBB301",
"s. c #FEB400",
"d. c #FFBB00",
"f. c #F2B703",
"g. c #C99C31",
"h. c #D7D500",
"j. c #D2C600",
"k. c #EDC400",
"l. c #FFC300",
"z. c #FECB00",
"x. c #F5CB00",
"c. c #FED300",
"v. c #FEDC00",
"b. c #F5D700",
"n. c #ECDE00",
"m. c #FEE400",
"M. c #FEEB00",
"N. c #FEF300",
"B. c #FFFE01",
"V. c #F7F400",
"C. c #EAED00",
"Z. c #E3CC35",
"A. c #87AA49",
"S. c #8FBA49",
"D. c #8AB54A",
"F. c #94BA4D",
"G. c #83BE56",
"H. c #8BBE56",
"J. c #84BE58",
"K. c #89B452",
"L. c #92BB53",
"P. c #88AC53",
"I. c #889376",
"U. c #8A9072",
"Y. c #A9966F",
"T. c #99B36A",
"R. c #AC9D59",
"E. c #C6AA6D",
"W. c #E1B152",
"Q. c #95C34E",
"!. c #8CC156",
"~. c #8CC158",
"^. c #87C358",
"/. c #94C356",
"(. c #9AC457",
"). c #9DC955",
"_. c #94C358",
"`. c #9BC558",
"'. c #9EC95A",
"]. c #95CA5A",
"[. c #A1CC5B",
"{. c #A0C857",
"}. c #A5D15C",
"|. c #A9D55E",
" X c #ABD95E",
".X c #A6D360",
"XX c #FCC95B",
"oX c #F8CD6E",
"OX c #EEE86A",
"+X c #2D5988",
"@X c #2E5A88",
"#X c #376898",
"$X c #3A6786",
"%X c #3968A7",
"&X c #3B72A9",
"*X c #3A74B1",
"=X c #365EA2",
"-X c #456992",
";X c #427BB7",
":X c #457EC3",
">X c #847C83",
",X c #F97696",
"<X c #0090BC",
"1X c #4A82B6",
"2X c #68A3A6",
"3X c #05AEDC",
"4X c #11A7D2",
"5X c #4482C6",
"6X c #42B2CD",
"7X c #03CEFF",
"8X c #07C7FB",
"9X c #1AD2E8",
"0X c #36D6FA",
"qX c #78F8FF",
"wX c #60D0DE",
"eX c #979797",
"rX c #8B8B8D",
"tX c #98A18D",
"yX c #AEAA96",
"uX c #A8A7A8",
"iX c #ADACB2",
"pX c #B8B6B9",
"aX c #B5B0AA",
"sX c #A0999A",
"dX c #CFBA8A",
"fX c #F98BA1",
"gX c #C4BAA7",
"hX c #F6D78F",
"jX c #FFE28C",
"kX c #FFE996",
"lX c #D5CBB2",
"zX c #FFF4A8",
"xX c #FFF2B3",
"cX c #FDE4A8",
"vX c #E0D6AB",
"bX c #BDBDC2",
"nX c #C1BEC6",
"mX c #FFBBC6",
"MX c #B7EAD4",
"NX c #90E1F2",
"BX c #C6C7CA",
"VX c #D8D7DA",
"CX c #CFCDD2",
"ZX c #FFFBCB",
"AX c #FFF2C9",
"SX c #FFFDD6",
"DX c #FFF1D9",
"FX c #F5E5C9",
"GX c #DCDCE1",
"HX c #E1DEE4",
"JX c #C5FEFF",
"KX c #E7E7E9",
"LX c #FEFEFE",
"PX c #F5F5F6",
"IX c #F2EFF1",
"UX c #E0E5C9",
/* pixels */
"(.(.(.(.`.`.(.(.`.`.`.`.`.`.(.(.(.(.(.(.(.(.(.(.(.`.`.`.(.'.(.(.(.(.(.(.(.(./.(.`.L.{.`.(.`.`.`.`.`.`.`.`.`.`.(.(.(.(.(.(.(.L.`.(.`.(.`.`.`.`.`.`.`._.(.(.(.(.(.",
"(.(.(.(.(.`.(.`.`.`.(.(.`.`.(.(.(.(.(.(.(.(.(.(.(.(.`.(.(.H.G.(.`.`.(.(.(.(.(.(.`.`.`.`.(.(.`.`.`.`.`.`.`.`.`.`.(.(.(.(.(.(.(.(.(.`.`.`.`.`.`.`.`.`.(.'.H.G.`.(.",
"(.(.(.(.(.`.(.(.`.(.`.'.`.`.(.(.(.(.(.(.(.(.(.(.`.`.`._.} G.G.| !.'.(.(.(.(.(.(.`.`.{.L.L.L.`.`.`.`.`.`.`.`.`.{.(.(.(.(.(.(.(.(.`.`.`.`.`.`.`.`.`.(.(.} G.|  .H.",
"(.(.(.(.(.`.(.(.`.'.H.(.`.(.`.(.(.(.(.(.(._.(.(.`.`.`._. ._.(.| /.(.(.(.(.(.(.(.`.{.L.{..X.X.X`.`.`.`.`.`.`.`.L.(.(.(.(.(.(.(.(.`.`.`.`.(.`.`.`.`.'.(. ./.).G.~.",
"(.(.(.(.`.`.`.'.~.^...^.H.(.`.(.(.(.`.(.(.`.(.`.`.`.`.`.`.(.(.(.(.(.(.(.(.(.(.(.(.(.[.A.i i Q `.{.(.`.`.`.`.`.`.(.(.(.`.(.(.(.`.`.`.`.`.`.`.`.`.`.`.(.'.(.(.(.`.",
"(.(.(.(.`.`.`.{.| | _.H. .'.`.(.(.`.(.`.`.(.`.`.`.`.`.`.(.'.`.(.(.'.(.(.(.(.(.(.(.[.' 1 W 4 1 2 P.[.`.`.`.`.`.`.`.`.`.(.`.`.(.`.`.`.`.`.`.`.`.`.`.`.`.`.(.(.(.(.",
"(.(.(.(.`.`.`.`._._.`.(._.`.(.`.`.`.(.`.`.`.(.`.`.`.`.`.(.`.`.`.`.(.(.'.`.(.(.(.].L.q / E T R 4 $ L.{.`.`.`.`.`.`.`.(.`.'.L.(.'.`.`.`.`.`.`.`.`.`.`.`.`.(.`.(.`.",
"(.(.(.'.`.`.`.`.'.'.(.(.`.`.`.`.`.`.`.`.`.`.`.`.`.`.`.`.`.`.`.`.`.`.(._.(.'.(.(.'.8 R E R R T R 5 ` .X`.`.`.`.`.`.`.'._./.} J._.`.`.`.`.`._.`.`.`.`.`.`.`.`.`.`.",
"`.`.`.`.`.`.`.`.(.(.`.(.(.`.`.`.(.(.'.(.'.(.`.`.`.`.`.`.`.`.`.`.'.H._.} H.~.(.}.` 4 / R R R R T 1 P.'.`.`.`.`.`.`.(.{.G.} H.G...`.`.`.`.`.`.`.`.`.`.`.`.`.`.`.`.",
"`.`.`.`.`.`.`.`.`.`.`.`.`.`.`.`.(.(.(.(.(.(.`.(.`.`.`.`.`.`.`.`.{.J.} _.^.../.{.8 R E R T T 1 1 s [.(.`.`.`.`.`.`.`.`._.H.{./.H.`.`.`.`.`.`.`.`.`.`.`.`.`.`.`.(.",
"`.`.(.(.`.`.`.`.`.`.`.`.`.`.`.`.(.'.`.`.(.'.(.(.`.`.`.`.`.`.(.(.(.(._.'.(.L.{.A.6 / E T 5 O d | ^.L.`.`.`.`.`.`.`.`.`.`.'.(.(.'.`.`.`.`.`.`.`.`.`.`.`.`.`.`.'.(.",
"(.(.(.(.(.'.`.`.`.`.`.`.`.`.`.(.(.(.(.(.(.(.(.(.(.`.`.`.`.`.(.(.(.`.(.(.(.(.[.' 4 / T 4 2 ...X/. .H.`.`.`.`.`.`.(.(.(.(.(.(.(.(.(.(.(.`.`.`.`.`.`.`.`.(.(.(.(.(.",
"`.`.`.`.(.(.`.`.`.`.`.`.`.`.`.`.(.(.`.`.(.(.`.'.`.`.`.`.'.(.(.'.`.(./.(.}.|.|.` 4 E T 1 i H.L.|.|.{.(.(.`.`.`.`.`.`.`.`.(.(.(.(.`.`.`.`.`.`.`.`.`.`.`.`.(.(.(.(.",
"(.`.(.(.(.(.`.`.`.`.`.`.`.`.`.(.(.(.(.(.(.(.H.~.`.`.`.`.(.(.(.(.L.'.|._.[ 8 $ + 4 E T O @ # % 7 s P.|.[.`.`.`.`.(.(.(.(.(.(.(.(.`.`.`.`.`.`.`.`.`.`.`.`.(.(.(.(.",
"(.(.`.(.(.(.| _.`.`.`.`.`.`.`.(.(.(.(.{.!.G.| J.| `.`.`.(.(.(.(.|.L.a $ w +.j.:.# 1 O @ t.B.n.%.u + & ' |.[._.(.`.(.(.(.(.(.(.(.`.`.`.`.`.`.`.`.`.`.`.`.(.(.(.(.",
"(.(.(.`.| G.| G. .'.`.`.`.(.`.(.(.(.(.`.^. .(.~.| `.`.`.(./.}.].a + Z n.B.B.B.M.b.w.j.m.B.B.B.B.B.V.$.# $ P.|.(.(.(.(.(.(.(.(.(.(.`.`.`.`.`.`.`.`.`.`.`.(.(.(.(.",
"(.(.(.(.G.H.'.H.H.(.(.`.(.(.(.(.(.(.(.(.(.(.(.(.(.(.(.(.L. X' % u C.B.B.B.B.c.N.B.B.B.m.m.B.c.l.N.B.B.B.+.+ a }.(./.`.`.`.(.(.(.(.(.`.`.`.`.`.`.`.(.`.(.(.(.(.(.",
"(.(.(.(.(.`.`.`.`.`.(.`.`.(.(.(.(.(.(.(.(.(.(.(.(.{.(.(.|.d + j.B.m.N.B.B.N.m.B.B.B.B.m.y.m.B.i.s.m.B.v.B.V.e $ /.{.L.(.`.(.(.(.(.`.(.`.`.`.(.(.`.'.`.(.(.(.(.(.",
"(.(.(.(.(.(.(.(.`.`.(.(.`.(.(.(.(.(.(.(.(.(.(.(.(.(.Q.).7 w B.B.l.M.M.N.M.x.N.B.B.B.B.m.s.i.N.c.i.y.c.N.f.v.B.O.X K.}.(.(.(.(.(.(.`.`.`.`.`.`.(.(.J.H.`.(.(.(.(.",
"(.(.(.(.(.(.`.`.`.'._.(.'.(.(.(.(.(.(.(.(.(.(.(.(.{.{.# y B.v.s.M.M.l.l.d.x.B.B.B.B.B.l.s.i.z.M.i.s.y.z.N.y.d.B.$.X K.[.(.(.(.(.(.`.(.`.(.`.'.~.| J.J. ./.(.(.(.",
"(.(.(.(.(.`.(.`._._.} !.H.(.`.(.(.(.(.(.(.(._.(.(.[.$ ! B.c.s.b.M.d.z.z.u.M.B.B.B.B.m.s.s.s.i.m.u.i.s.8.v.b.8.i.B.%.X L.`.(.(.(.(.(.(.`.(.(.'._.| `._.| _.(.(.(.",
"(.(.(.(.`.(.(.{.G.| H.J. .'._.(.(.(.(.(.(.(.(./.}.7 y B.l.d.a.m.l.l.z.l.a.m.B.B.B.m.d.d.s.i.y.z.k.y.i.y.y.m.f.8.u.B.+.O {.(.(.(.(.`.`.`.'.(.(.`.`.(.(.'.(.(.(.(.",
"(.(.(.(.`.`.`.`._.H.{./.~.(.(.(.(.(.(.(.(.(./.|.a w B.l.l.r.b.z.l.l.z.u.k.c.c.M.c.d.d.d.s.s.i.s.x.5.s.i.y.i.b.5.y.y.B.u 7 |./.(.(.`.(.`.(.(.`.`.'.(.(.(.(.(.(.(.",
"'.L.(.(.`.`.`.`.`.`.(.`.'.`.`.(.(.(.(.(.(./.}.` @ B.z.l.u.a.v.d.l.z.z.5.b.l.l.z.l.l.d.d.s.s.i.y.x.3.i.i.i.8.z.a.7.y.i.B.# Q }.L.(.`.(.`.(.(.`.`.(.(.'.(.(.(.(.(.",
"`.(.(.`.(.(.(.(.`.`.`.`.`.`.`.(.(.(.(.(.(.(.L.% h.v.d.d.,.c.l.l.l.z.f.e.c.l.z.z.l.l.d.s.s.s.i.y.l.e.y.i.i.y.y.x.1.i.8.l.h.X (.'.(.(.'.(.(.`.`.`.`.`.`.`.(.(.(.(.",
"`.`.(.`.(.'.`.`.`.`.`.`.`.`.`.(.(.(.(.(.(.|.i Z M.f.l.5.a.c.d.l.l.z.t.a.z.d.l.l.l.l.d.d.s.i.i.y.s.e.7.i.y.y.8.l.e.4.i.9.M.y i  X_.(.(.(.`.`.`.`.`.`.`.`.`.`.`.(.",
"(.(.(.`.(.(.(.(.`.`.`.`.`.`.`.`.(.(.(.(.[.{ # M.d.l.s.>.x.d.d.l.l.l.3.f.l.l.l.z.l.l.d.d.s.s.i.y.i.a.4.i.i.y.y.i.f.;.y.y.i.n.+ ..`.(.`.`.`.`.`.`.`.`.`.`.`.`.(.`.",
"`.(.`.`.(.(.'.(.`.`.`.`.`.`.`.`.'.`.(./.}.7 $.c.s.l.3.e.z.d.d.l.l.d.,.l.d.l.l.l.l.d.d.s.s.i.i.y.y.a.1.i.i.y.y.8.d.,.4.y.9.v.y 9 ].H.`.(.`.`.`.`.`.`.`.`.`.`.`.`.",
"(.(.`.`.(.(.'.(.`.`.`.`.`.`.`.(.(.(.(.{.' 3 m.s.d.s.;.f.l.d.d.l.l.r.3.l.d.l.l.l.l.d.d.s.s.i.i.y.y.u.1.y.y.y.y.8.s.5.1.y.8.i.j.% | J.'.(.(.'.(.(.`.`.`.(.(.(.(.(.",
"`.`.`.`.`.`.(.(.`.`.`.`.`.`.`.`.(.(.(.|.i @.c.s.l.5.:.l.d.d.d.d.l.5.5.l.d.d.l.d.d.d.d.s.s.i.i.y.y.u.>.y.i.y.y.8.y.r.-.8.y.8.z.e ' }.(.(.(.(.(.`.`.`.`.`.`.`.`.`.",
"`.`.`.{.H.~.{.(.`.`.`.`.`.`.`.`.(.(.'.L.# x.s.d.s.:.5.d.s.d.d.d.d.1.5.d.d.d.d.d.d.d.d.s.i.i.i.y.8.i.>.8.y.y.y.8.y.u.;.6.y.8.d.O.a  X(.(.(.'.(.G.(.(.`.`.`.`.`.(.",
"(.`.H.J.| J.G./.`.`.`.`.`.`.`.`.(./.}._ w c.i.l.u.-.r.d.s.d.d.d.s.>.r.d.d.d.f.x.d.d.s.s.i.i.y.y.8.y.>.7.y.y.y.y.8.i.>.2.8.8.i.<.$ [.(.(.'.J.J. .^.J.'.`.(.(.(.(.",
"`.`.H. .(.H. ._.`.`.`.`.(.(.(._.J.|  X8 @.l.s.,.r.-.u.s.s.d.s.d.s.-.u.s.s.l.-.<.z.d.s.s.i.i.y.y.y.y.-.5.y.y.y.y.8.y.:.1.8.y.8.r.$ (.`.(.'. .^.`.H. .'.(.(.(.'.(.",
"`.`.'._.'.`.(.(.`.`.`.`.(.'._...J.J.| 2 q.s.s.F A 5.s.s.s.s.d.d.p.;.i.s.d.u.K @ <.l.s.i.i.i.y.y.y.y.:.6.y.y.8.y.8.i.3.:.8.y.8.u.# K.'.(.`.`.`.{.(.(.(.(.(.(.(.(.",
"`.`.'.(.(.(.`.`.`.`.(.`.'.(.(.G.(.[...# s.s.p.,   q.i.s.s.s.s.d.t.;.i.s.d.:.B   # l.s.i.i.i.y.y.y.8.;.4.y.y.8.y.8.y.1.;.8.y.8.i.: P.[.`.`.`.`.`.`.`.(.`.(.'.(.(.",
"`.`.(.(.(.`.`.(.`.`.(.(.'.(.(.'.`.[.{ - s.s.-.P 2Xg.s.s.s.s.s.d.5.;.i.s.p.D Y.BXnXZ.s.i.i.y.y.8.y.8.;.4.y.8.y.8.y.y.1.;.8.y.8.8.# K.`.`.`.`.`.`.`.`.`.`.`.(.(.(.",
"(.(.(.(.(.`.`.(.`.`.`.`.(.(.(.(.(.[.' - s.p.K PXLXUXl.s.s.s.s.d.5.:.i.s.-.g.LXLXJXMXd.y.i.y.y.y.y.7.-.6.y.y.8.y.y.8.:.;.8.y.y.1.+ L.{.`.`.`.`.`.`.`.`.`.(.(.(.(.",
"(.(.(.(.`.(.(.`.(.`.`.`.(.'.(.(.(.[.` = i.1.Y.LXIX0XZ.i.i.s.i.s.3.;.i.p.D 2XLXLXqX7XOXi.i.y.8.8.y.9.-.7.y.8.y.8.y.8.;.1.8.8.y.D $ '.`.`.(.(.`.`.`.`.`.(.(.(.(.(.",
"(.(.L.'.(.`.(.(.(.(.'.'.(.(.(.(.(.[.{ @ 7.J 6XNXNX7XvXd.i.s.i.s.3.;.i.-.L 8X6XwX3X7XMXd.y.y.8.8.y.4.;.7.y.y.8.y.y.9.-.2.y.8.8.B 8 |.L.`.`.`.`.`.`.`.`.(.(.(.(.(.",
"(.(.(.(.`.(.(.(.(.'./.G.(.'.(.(.(.].P.@ -.C 4X<X<X0X2Xe.s.i.i.s.4.:.5.G # 3X4X<X0XqX1Xt d.8.y.y.y.2.;.8.y.8.y.8.y.4.-.4.y.6.4.= ` }.`.`.`.(.`.`.`.`.`.`.(.(.(.(.",
"(.(.(.L.'.`.(.(.'.| ^.} H.H.{.(.(.(.[.$ S e g 7X8XJX* y d.i.i.s.4.;.>.A . j 9X9X0XMX: + l.8.9.0.0.5.1.8.y.y.8.8.8.1.;.8.6.2.F % '.`.`.`.`.`.`.`.`.`.(.(.(.(.(.(.",
"(.(.(.(.`.`.(.(.`.| ^.).| G.`.(.(.L.}.s F L @.Z.Q.g.=.q.s.y.i.i.5.-.p.u.r.r.f.f.k.u.u.d.0.L I fXIXI 1.y.8.8.i.i.6.;.4.4.-.4.@ Q [.(.`.`.`.`.`.`.`.`.(.(.(.(.(.(.",
"(.(.(.(.(.`.`.(.`.`.`.`.`.`.`.(.(.`.].L N ,XmX0.8.2.6.i.i.s.s.s.y.1.6.i.y.i.y.y.y.8.i.9.N N I ,XfXI 4.y.8.s.c.d.1.;.1.-.4., 7 }.L.'.(.(.`.`.`.`.`.`.(.(.(.(.(.(.",
"(.(.(.(.`.(.`.(.`.`.`.`.`.(.(.(.(.(.].&.M I I K V A 5.y.=.; ; ; - = @ @ q.d.y.B . t d.9.L N M M N J y.8.8.l.z.4.-.;.;.6.r $ (.(.(.(.(.'.`.(.`.`.`.`.(.(.(.(.(.(.",
"(.(.(.(.(.`.`.(.`.`.`.`.`.`.`.(.(.(.(.`.(.: , 9.C w #.K B               u G S X X q.y.y.y.2.2.J =.7.8.y.y.y.4.-.-.2.2.> $ _.'.(.(.(.(.`.`.(.`.`.`.(.`.(.(.(.(.(.",
"`.(.(.`.`.`.`.`.`.`.`.`.`.`.`.`.(.(.(.(.{.L.% , 7.K @           .             e a.i.8.8.y.y.7.:.:.y.y.8.6.;.;.2.4.S @ 8 '.'.(.(.(.(.`.`.`.`.`.`.`.(.| ^.(.(.(.(.",
"(.(.(.(.`.`.`.`.`.`.`.`.`.`.`.`.(.(.(.(.(.[.L.& @ F 5.A @               X w #.d.y.8.y.y.y.4.-.:.8.7.4.1.:.4.1.S = $ ` |.(.(.(.(.(.'.`.(.`.`.(.{.G. .G.G...(.(.`.",
"`.`.`.`.`.`.`.`.`.`.`.`.`.`.`.`.`.`.(.(.(.].`.|._ + = F 3.<.S A t t A #.<.p.8.9.p.8.7.6.1.-.1.2.4.4.2.;.D r = 7 _ {.|.L.(.(.(.'.`.`.`.'.`.`.`.`.~.^.'.(.G.`.`.`.",
"(.(.(.(.(.(.`.`.`.`.`.`.`.`.`.(.`.(.(.(.(.`.(.(.}.(.s $ @ > V K 1.4.8.7.4.4.1.1.4.4.4.:.4.2.;.K S B > @ 2 q 8 P.L.`.L.`.`.`.`.`.'.(./.| `.`.`.`.`.{.`.`.`.`.(.(.",
"(.`.`.(.`.(.`.`.`.(.(.`.`.`.`.`.`.`.`.`.(.(.`.(.(.(.|.|.K.s 8 $ + @ = ; > > r r , > r r ; @ + + O g * T o.( ( 5 $ `.{.`.`.`.`.`.{.| G.| J.G.(.`.`.`.`.`.(.`.`.(.",
"`.`.`.`.`.(.'._._. .H._.(.`.`.`.`.`.`.`.`.`._./.`.(.(.(.{..X.X[.H.P.' _ s a X O 5 5 4 j g T R Y ) %X0 Y E Y W a tXP.).{.`.'.`.`.`.| H.'.J.| (.`.`.`.`.`.`.`.`.`.",
"`.(.`.(.(.(.{.J. .H.J.} _.`.`.`.`.`.`.`._.~.} G.^.(.(.(.`.'.L.(.'.[.[.}. X}.U.c U Y Y -Xl ~ ( / ) =Xq U Y U 8 cXZXvXL.L.'.L.`.`.(.(.(.`.'.(.`.'.`.`.`.`.`.(.`.(.",
"(.(.(.(.`.(.`._.H.[.(.^.(.(.(.(.(.(.(.`.H. .H.H.} (.`.`.`.`.`.`.(.(.(.(.L.T.FXAXU.5 U z l Y Y Y 0 %X5 5 6 W d hXhXxXFXU.L.'.`.`.(.(.(.`.`.`.`.`.`.`.`.`.`.`.(.`.",
"`.`.`.`.`.`.`.`.'.`.`.`.'.(.`.`.`.(.(.'._._.{./._.(.`.`.`.`.`.(.(.(.{.L.T.FXcXjXE.3 5 $Xl U Y Y T %Xj W 1 O 7 g.oXcXSXlXP.[.L.`.`.(.`.`.`.`.`.`.`.`.`.`.`.`.`.`.",
"`.`.(.`.`.(.`.`.(.`.`.`.`.`.`.`.(.(.(.(.(.(.(.(.(.(.].`.`.`.`.(.].'.].{ UXAXhXXX&.2 3 z -X9 ) z j -Xl z z 9 Q *.XXjXdXsXc ).{.{.(.(.(.`.`.`.`.`.`.`.`.`.`.(.`.`.",
"(.(.`.(.(.`.`.`.`.`.`.`.`.`.`.(.(.(.(.(.(.(.(.(.(.`.'.`.`.`.`.'.`.].| [ CXhXjXXX! P.D.x n @X5X1X%Xm n =X&Xl K.K.H Y.BXKXbX[ '.H.'.`.`.`.`.`.`.`.`.`.`.`.`.`.(.(.",
"(.(.(.(.(.(.(.(.(.`.`.`.`.`.`.(.(.(.(.(.(.(.(.(.(.`.`.`.`.`.`.`.~. .K.b aXuXY.&.K.[.Q.x +X@X#X#X@Xl @X&X+Xl ' |.b VXLXLXLXtX.. .!.^.'.(.(.(.`.`.`.`.`.(.(.(.(._.",
"(.(.(.(.(.'.(.(.`.`.`.`.`.`.(.(.(.(.(./.(.(.(.(.(.`.`.`.`.`.`.`._.].` VXLXLXVXc Q.L.}._ *X#X*X5X%Xl 1X%X#Xg Q  X] BXKXpXpXI.{ (. .J.{.(.`.`.`.`.`.`.`.(.(.(.(.(.",
"(.(.(.(.(.(.(.(.`.`.`.`.`.`.`.(.(.(.(.(.(.(.(.(.(.(.`.`.`.`.`.`.].`.U.LXKXKXIXX.D.}.A.k +X#X*X1X&Xl &X#X&X;Xl A.! tXyXE.hXY.] [._.(.'.'.`.(.'.(.`.`.(.(.(.(.(.(.",
"(.(.(.(.(.(.(.(.(.`.`.`.`.`.(.(.(.(.(.(.(.(.(.(.(.`.`.`.(.`.`.`.`.`.[ tXY.Y.VXn A.A.k 5X@Xl l @Xl +X#X+X&X;X5Xk U.IXaXdXdXyXtXS.`.(.(.`.`.(.(.(.`.`.(.(.(.(.(.(.",
"(.(.(.(.(.(.(.(.`.`.`.`.`.`.`.(.(.(.(.(.(.(.(.(.(.`.`.(.(.`.`.(.'.L.n oXxXE.BXLXaXx :X5X*Xl l l +X+Xg l %X;X1X-XHXKXKXpXCXLXGX' '.(.(.(.`.`.`.`.`.`.`.`.(.(.(.(.",
"(.(.(.(.(.(.(.'.`.`.`.`.`.`.(.(.(.(.(.(.(.(.(.(.(.(.`.`.(.`.`.(.[...eXaXaXaXKXiXpX$X*X*X&X+Xh Q v Q s g @X%X*Xl P x BXLXIXIXGX[ `.`.(.(.`.`.`.`.`.`.`.(.(.(.(.(.",
"(.(.(._.(.'.`._.`.'.`.`.`.`.`.(.(./.(.(.(.(.(.(.(.`.`.(.(.`.`.`.[.{ CXLXPXLXGXx P < j %X#Xg !  X[.[. X` g %Xl x R.Y.iXCXVXiXrX' '.`.(.`.`.(.`.`.`.`.`.`.(.(.(.(.",
"(.(.(.(.(._.~.} _.L.`.`.`.`.(.(.(.(.(.(.(.(.(.(.(.`.`.`.(.`.`.`.}.' aXIXVXVXVXuXE.Y.R.h l d }./.(.(.(.[.a g > hXP U.PXm I.c ' _.(.`.`.`.`.`.`.`.`.`.`.`.(.(.(.(.",
"(.(.(.(.`.} J.H.| | '.(.`.`.(.(.(.(.(.(.(.(.(.(.(.(.(.(.(.`.`.`.`.(.] rXeXeXrXKXp dXoX+ 9 {.(.`.`.`.`.`.`.7 f jXlXn n ! D.).[.(.(.(.(.`.`.`.`.`.(.`.`.(.(.(._.(.",
"(.(.(.`.`.H._.'._.~.`.(.`.`.`.`.`.`.`.(.(.`.`.(.(.`.(.(.(.`.`.`.`.'.L.{ ` ` ! p gXxXW.s L.`.L.`.`.`.`.`.{.'.f oXSXlX! |.'.(.(.`.`.(.`.`.`.(.`.`.(.(.'.(.(.(.`.`.",
"(.(.(.`.`.`.`.`.`.`.`.`.`.`.`.(.`.(.(.`.(.(.(.(.(.(.(.(.`.`.`.`.`.`.`.[.'.[.'.U.DXkX&.A..X(.`.`.`.`.`.`.`.[.! W.xXlX' {.(.(.(.(.(.`.`.`.`.(.`.`.(.(.| ~.(.`.`.`.",
"(.'.(.(.`.(.`.`.`.`.`.`.`.`.`.`.`.`.`.`.(.(.'.'.(._.'.'.`.`.`.`.`.`.(.(.(.'.D.tXSXkX&.K.`.`.`.`.`.`.`.`.`.{.! W.zXDXU.{.(.(.`.`.`.`.`.`.`.(.(.{.H.| | J.} `.`.`.",
"`.`.`.`.`.`.`.`.`.`.`.`.(.'.(.'.`.`.`.`.(.`.(.~.H. .~._.`.`.`.`.(.(.(.(.(.[.A.I.vXW.H '.`.`.`.`.`.`.`.`.`.[.P.H Y.sXb L.[.(.L.'.`.`.(.`.`.`.(.`.H.J.{._.| (.`.`.",
"(.(.(.`.`.`.`.`.`.`.`.`.(.(.(.(.(.`.`.`.`.`._.} H.~. .J.{.`.`.`.(.(.'.}.}.Q.X.pXiXpXb F.`.`.`.`.`.(.`.`.L..X` iXKXGXCXb Q.(..X{.(.`.`.(.`.`.`.`.`.'.(.(.`.`.(.`.",
"`.`.`.`.`.`.`.`.`.`.(.(.(.(.(.(.`.`.`.`.`.`.(.H.(.`._._.`.`.`.`.(.'.(.Q f i m KXVXHXn S.'.`.`.`.{.(.(.(.{.{.A.m P n x & b b s F.'.(.(.(.`.`.`.`.`.`.`.`.`.`.`.`.",
"`.`.`.`.`.`.`.`.`.`.`.'.`.(.(.(.`.(.`.`.(.`.(.'.`.(.`.`.`.`.`.`.[.A.c iXHXHXeX* * & p A.'.`.J.| (.(.{.`.(.{.b < & * x VXLXLXnXc D.[.(.`.{.`.`.`.`.`.`.`.`.`.`.`.",
"(.(.(.(.(.(.`.`.`.`.`.`.(.`.`.(.(.`.(.(.`.(.`.(.(.(.(.'.(.(.'.`.Q.c HXLXLXLXLXpX* & eXX.!...J.H...!.`.(.[.A.rX>X* x PXIXLXLXLXGXa !.} ~._.(.(.(.`.`.`.`.(.(.`.(.",
"`.`.`.`.`.`.`.`.`.`.`.`.'.!._.{.`.`.`.`.`.`.`.`.`.`.(.(.(.(.(..X^ iXLXLXLXPXIXPXeXo m b S.J.(.'.H._.(.(.{.A.x & & nXKXIXPXLXPXLXeX^ ].^...'.(.(.`.`.`.`.`.`.`.`.",
"(.(.`.(.`.`.`.`.`.`.`.~.G. .G.J._.`.(.(.(.`.(.`.'.(.(.(.`.`.L..Xd rXuXuXuXuXeXrXrXo   X L.[.`.`.'.(.(.(.[.[ X X x eXrXrXeXeXeXuXn s }._.~.'.`.`.`.`.`.`.`.`.(.(.",
"(.(.(.(.`.`.`.`.`.`.{.H. .(.~. .`.`.(.(.(._.(.(.(.(.'.(.(.(.`.(.x uXbXaXuXuXuXiXiXiXpXm Q }.L.(.(.(.(.(.[.d eXBXnXpXpXpXpXpXBXCXeXd [._.'.`.`.`.`.`.`.`.(.(.(.(.",
"(.(.(.(.(.(.`.(.`.`.`.`.(.(.(._.(.(.(.(.(.(.(.(.`.`.`.(.(.`.`.(.c U.tXI.I.I.I.I.I.U.U.c ' [.'.'.(.(.`.(.[.' c ] b ] ] ] b [ ] ] b ` '.(.`.`.`.`.`.`.(.`.`.(.(.(.",
"(.(.(.(.`.(.`.(.`.`.`.`.(.(.`.(.(.(.(._.(.(.(.(.(.`.`.(.(.`.(.'.'.K.S.S.S.S.S.F.D.D.L.L.`.(.(.(.(.'.`.`.(.'.[.'.Q.).{.`.).{.).Q.`.'.(.`.`.`.`.`.`.`.(.(.`.(.(.(.",
"(.(.(.(.(.(.(.`.`.`.`.`.(.`.(.(.(.(.(.(.(.(.(.(.`.`.(.(.(.`.(.(.`.`.`.`.`.`.`.`.`.`.`.`.(.`.(.(.(.'.(.(.'.(.(.L.(.L.{.`.(.(.(.(.(.(.(.`.`.`.`.`.].`.`.(.(.(.(.(.",
"(.(.(.(.`.`.`.(.`.`.`.`.`.`.(.(.(.(.(.(.(.(.(.(.(.`.'.(.(.`.`.`.`.`.`.(.`.`.(.`.`.(.(.(.(.(.(.(.(.(.(.(.(.(.(.`.(.(.(.(.(.(.(.(.(.(.(.(.`.(.`.`.'.`.'.(.(.(.(.(."
};
