/* XPM */
static char *player_l4_resized[] = {
/* columns rows colors chars-per-pixel */
"80 80 256 2 ",
"   c #010100",
".  c #0C0D04",
"X  c #171805",
"o  c #111510",
"O  c #331C00",
"+  c #241810",
"@  c #152C0F",
"#  c #282703",
"$  c #372504",
"%  c #353904",
"&  c #2A3A1A",
"*  c #293010",
"=  c #0E283C",
"-  c #2E2F2D",
";  c #1B1D22",
":  c #423D00",
">  c #5C3200",
",  c #533302",
"<  c #4B2C02",
"1  c #6B3C00",
"2  c #623200",
"3  c #773E00",
"4  c #114F11",
"5  c #2E4818",
"6  c #176C16",
"7  c #354A26",
"8  c #3C5528",
"9  c #2B4D31",
"0  c #2E6A2F",
"q  c #1A6022",
"w  c #464501",
"e  c #575400",
"r  c #564A0B",
"t  c #6D5301",
"y  c #6B6700",
"u  c #767600",
"i  c #716800",
"p  c #45582A",
"a  c #4C6634",
"s  c #576C36",
"d  c #57773A",
"f  c #496F31",
"g  c #6B7635",
"h  c #1A3656",
"j  c #1C3347",
"k  c #385254",
"l  c #1E416A",
"z  c #2B5070",
"x  c #2F6B55",
"c  c #51544B",
"v  c #5A7647",
"b  c #5D6847",
"n  c #6B7757",
"m  c #6A6E4A",
"M  c #676667",
"N  c #7A7A71",
"B  c #5F6169",
"V  c #CD3A15",
"C  c #DB3837",
"Z  c #834A00",
"A  c #894A00",
"S  c #985700",
"D  c #885300",
"F  c #A55C00",
"G  c #8C6401",
"H  c #937701",
"J  c #AD6500",
"K  c #A46600",
"L  c #B76B01",
"P  c #BA7800",
"I  c #B4760D",
"U  c #99722C",
"Y  c #C97A01",
"T  c #D77502",
"R  c #C06A00",
"E  c #DA5D21",
"W  c #88734B",
"Q  c #E14A4E",
"!  c #882012",
"~  c #1B8E0A",
"^  c #259811",
"/  c #2DAE16",
"(  c #1E8D22",
")  c #299228",
"_  c #29A72A",
"`  c #32B92D",
"'  c #688639",
"]  c #748B3B",
"[  c #4BBA36",
"{  c #6B913D",
"}  c #31C832",
"|  c #49C232",
" . c #38804F",
".. c #688446",
"X. c #728C46",
"o. c #769847",
"O. c #738655",
"+. c #749252",
"@. c #79A547",
"#. c #74B956",
"$. c #7CBC56",
"%. c #77BA58",
"&. c #72B453",
"*. c #788565",
"=. c #54A647",
"-. c #7AC25C",
";. c #928C00",
":. c #B68A00",
">. c #B59801",
",. c #A98D00",
"<. c #A8A600",
"1. c #BAAC00",
"2. c #B28F38",
"3. c #928D3B",
"4. c #D68400",
"5. c #DA8500",
"6. c #DD8A00",
"7. c #C79600",
"8. c #DA9500",
"9. c #CF8800",
"0. c #E38C00",
"q. c #EA8E00",
"w. c #E08700",
"e. c #E49300",
"r. c #EB9300",
"t. c #E29A00",
"y. c #E99D00",
"u. c #F19500",
"i. c #F49B00",
"p. c #FC9D00",
"a. c #FB9600",
"s. c #F98D00",
"d. c #D4A706",
"f. c #E9A700",
"g. c #F3A301",
"h. c #FEA200",
"j. c #FEAB00",
"k. c #F2AB00",
"l. c #EBB900",
"z. c #FEB300",
"x. c #FEBC00",
"c. c #F4B300",
"v. c #C78632",
"b. c #BFC43D",
"n. c #CFD100",
"m. c #FFC300",
"M. c #FECB00",
"N. c #F2C300",
"B. c #FED400",
"V. c #FDDA00",
"C. c #F5DB00",
"Z. c #E9C100",
"A. c #FEEB00",
"S. c #FEE300",
"D. c #FEF400",
"F. c #FFFE00",
"G. c #F4F600",
"H. c #EEF100",
"J. c #FFD624",
"K. c #819C53",
"L. c #85AA48",
"P. c #8FBA49",
"I. c #8AB348",
"U. c #92BD4D",
"Y. c #83BE56",
"T. c #87BC56",
"R. c #93BB54",
"E. c #8CAD50",
"W. c #889376",
"Q. c #8A8F74",
"!. c #AD9A6F",
"~. c #A4A065",
"^. c #D2A952",
"/. c #DBAF64",
"(. c #8CC156",
"). c #8CC158",
"_. c #85C459",
"`. c #94C356",
"'. c #9AC457",
"]. c #9CC955",
"[. c #95C358",
"{. c #9BC558",
"}. c #9ECA5A",
"|. c #93CA5C",
" X c #9BCF59",
".X c #A1CD5B",
"XX c #A0C857",
"oX c #A5D15C",
"OX c #A8D55D",
"+X c #ABDA5E",
"@X c #BDC945",
"#X c #ADD560",
"$X c #F9D552",
"%X c #F8CC6C",
"&X c #2D5886",
"*X c #2C578A",
"=X c #376897",
"-X c #38668A",
";X c #3867A6",
":X c #3C73AA",
">X c #3D77B4",
",X c #355CA0",
"<X c #427BB7",
"1X c #5F7594",
"2X c #457DC3",
"3X c #847C83",
"4X c #F57893",
"5X c #008CB7",
"6X c #0583A8",
"7X c #2BA2BF",
"8X c #4582BD",
"9X c #6AA6AD",
"0X c #0DB6E9",
"qX c #13A8C9",
"wX c #4382C5",
"eX c #00CDFF",
"rX c #04C6FB",
"tX c #10CAF5",
"yX c #50E7FD",
"uX c #52DAD6",
"iX c #969596",
"pX c #8E8E8F",
"aX c #AEAB95",
"sX c #A8A6A8",
"dX c #B8B6B8",
"fX c #B0AEB1",
"gX c #9F9B93",
"hX c #F09B9B",
"jX c #AFC79A",
"kX c #D1C38F",
"lX c #F2D690",
"zX c #FFE993",
"xX c #FFE598",
"cX c #EFEE82",
"vX c #E8D4B0",
"bX c #FEE7A7",
"nX c #FFF2B3",
"mX c #FFF2B1",
"MX c #D3D2B3",
"NX c #BFBCC4",
"BX c #C0BDC5",
"VX c #9AF4FF",
"CX c #B0DDE0",
"ZX c #C7C6C9",
"AX c #D7D7DA",
"SX c #D3CFCF",
"DX c #FFF8C8",
"FX c #FFF8D8",
"GX c #F4E4CF",
"HX c #E1DEE5",
"JX c #D0FBFF",
"KX c #E6E6E8",
"LX c #FEFEFE",
"PX c #F5F5F7",
"IX c #EFF0F3",
"UX c #E8D7D3",
/* pixels */
"'.'.'.'.'.'.'.'.].{.{.{.{.{.{.'.'.'.'.'.'.'.'.'.'.'.{.{.{.{.{.{.{.{.'.'.[.'.'.'.'.'.'.'.'.'.{.{.].{.{.{.{.{.{.{.'.'.'.`.'.'.'.'.'.'.{.{.{.{.{.{.{.{.{.{.'.'.'.'.",
"'.'.Y.(.].'.'.'.{.{.{.{.{.{.{.'.'.'.'.'.'.'.'.'.'.'.{.{.{.{.{.{.{.{.{.'.'.'.'.'.'.'.'.'.'.'.{.{.{.Y.T.].{.{.{.'.'.'.'.'.'.'.'.'.'.'.{.{.{.{.{.{.{.{.{.'.'.'.'.'.",
"T.%.$.Y.%.'.{.{.{.{.{.{.{.'.{.'.'.'.'.'.'.'.'.'.'.{.{.{.{.{.{.{.{.'.{.'.'.'.'.'.'.'.'.'.R.`.}.(.%.Y.Y.&.[.'.'.{.'.'.'.'.'.'.'.'.'.'.{.{.{.{.{.{.{.'.{.'.'.'.'.'.",
"(.Y.{.[.$.'.{.{.{.{.{.{.{.'.{.'.'.'.'.'.`.'.'.'.'.{.{.{.{.{.{.{.{.'.'.'.'.'.'.'.'.'.`.oXoXoX{.(.$.{.`.$.'.{.{.'.'.'.'.'.'.'.'.'.'.{.'.XX{.(.{.{.'.'.{.{.'.'.'.'.",
"{.].'.'.{.{.{.{.{.{.{.{.{.{.{.{.'.{.'.'.'.'.'.{.'.{.{.{.{.{.{.{.{.{.{.'.'.'.'.'.'.'..XX.d X.}. X'.'.'.].].'.{.{.{.'.'.'.'.'.'.'.'.{.{.(._.#.).).{.{.{.{.{.'.{.'.",
"'.'.{.{.{.{.{.{.{.{.{.{.{.{.{.{.'.'.{.{.'.{.{.'.{.'.{.{.{.{.{.{.{.{.{.'.'.'.'.'.'.#Xs 4 6 4 5 o..X'.{.'.'.'.{.{.{.{.{.{.'.'.'.'.'.{.{.&._.[.$.$.XX'.{.{.{.{.'.{.",
"'.'.{.{.{.{.{.{.{.{.{.{.{.{.{.{.{.'.'.{.{.'.{.{.{.{.{.{.{.{.{.{.{.{.{.{.'.'.'.[.oXd 6 ` ) _ ( @ o..X{.{.{.{.{.{.{.'.{.{.'.{.'.'.{.{.'.`.'.{.[.[.{.{.{.{.{.'.{.{.",
"{.{.{.{.{.{.{.{.{.{.{.{.{.{.{.{.`.T.#.`.`.{.'.{.{.{.{.{.{.{.{.{.{.{.{.{.{.'.'..XE.4 } ` _ ( ) ( p .X'.{.{.{.'.{.{.{.{.{.{.{.{.'.{.{.{.{.'.'.{.{.{.{.{.{.{.{.{.{.",
"{.{.{.{.{.{.{.{.{.{.{.{.{.{.{.[.&.Y._.$.Y.{.'.{.{.{.{.{.{.{.{.{.{.{.{.{.'.'.'..X8 _ ` _ _ _ _ 6 p oX'.{.{.{.{.{.{.{.{.{.{.{.{.{.{.{.{.{.{.{.{.{.{.{.{.{.{.{.{.{.",
"{.{.{.{.{.{.{.{.{.{.{.{.{.{.{.{.(.`.{.(.`.{.{.{.{.{.{.{.{.{.{.XXY.).XX{.'.'..XK.6 } _ _ _ 6 q 5 L.}.'.{.{.{.{.{.{.{.{.{.{.{.{.{.{.{.{.{.{.{.{.{.{.{.{.{.{.{.{.{.",
"{.{.{.{.{.{.{.{.{.{.{.{.{.{.{.{.{.{.{.{.{.{.{.{.{.{.{.{.{.{.(.$.$.Y.$.[.{.'.+Xf ( ` _ ) 4 & ' '.}.[.{.{.{.{.{.{.{.{.{.{.{.{.{.{.{.{.{.{.{.{.{.{.{.{.'.{.{.'.'.{.",
"'.'.'.'.{.{.{.{.{.{.{.{.{.{.{.{.'.'.{.'.{.'.'.'.{.{.{.{.{.{.).$.{.[.%.`.'.'.XX8 _ ` ) 4 p XXoX'.'.{.{.{.{.{.{.'.'.'.'.'.'.'.'.{.'.{.{.{.{.{.{.{.{.{.'.'.'.'.'.'.",
"{.{.{.{.{.{.{.{.{.{.{.{.{.{.{.{.{.{.{.{.{.{.{.{.{.{.{.{.{.{.{.{.{.{.[.'.}.OX#X8 _ _ 6 4 R.#XoX#X}.'.[.{.{.{.{.'.{.{.{.{.{.{.{.{.{.{.{.{.{.{.{.{.{.{.{.{.'.{.{.{.",
"{.'.{.{.{.{.{.{.{.{.{.{.{.{.{.{.'.'.'.'.'.'.'.'.{.{.{.{.{.{.{.{.'.'.oXoXE.d 7 @ ` _ 6 X * - 8 d E.oXoX'.'.'.{.{.`.Y.].{.{.'.'.'.'.{.{.{.{.{.{.{.{.{.{.{.'.'.'.'.",
"'.'.{.{.{.{.{.{.{.{.{.{.{.{.{.{.'.{.{.'.'.{.'.'.{.{.{.{.{.{.{.[.OX{...5 % u ,.1 4 q @ t Z.n.<.y % & ...XoX'.{.$.Y.#.Y.).{.'.'.{.'.{.{.{.{.{.{.'.[.%.'.{.'.'.'.'.",
"'.'.'.[.[.{.{.{.{.{.{.{.{.{.{.'.'.'.'.'.'.'.'.'.'.{.{.XX{.[..XoX..* e 1.F.F.D.N.,.;.<.C.F.F.F.F.G.1.r @ ..OX}.&.`.'.$.T.{.'.'.'.'.'.{.'.{.'.XX%.Y.$.Y.$.{.'.'.'.",
"'.'.'.'.'.{.{.{.{.{.{.{.{.'.'.'.'.'.'.[.'.'.'.'.'.{.'.(.{.OXE.& e n.F.F.F.A.V.F.F.F.F.A.F.A.N.A.F.F.F.n.w & E.OX`.'.R.{.{.'.'.'.[.'.'.{.{.{.{.Y.(.XXT.Y.].'.'.'.",
"'.'.'.'.'.{.{.{.{.{.{.{.{.{.{.'.'.'.'.'.'.'.'.'.`._.Y.#. Xd # <.F.D.F.F.F.A.A.F.D.F.F.x.m.F.M.j.M.F.A.A.F.;.X ..OX`.'.'.'.'.'.'.'.'.'.{.{.{.{.{.{.{.{.{.'.'.'.'.",
"'.'.'.'.{.(.Y.{.[.{.'.{.{.'.{.'.'.'.'.'.'.'.'.'.{.#.).}.9 w H.F.M.A.D.F.A.B.F.F.F.F.F.M.j.B.D.z.j.z.D.M.m.F.n.# a OX[.'.'.'.'.'.'.{.{.{.{.{.{.{.'.'.{.{.'.'.{.R.",
"'.'.'.`.$.Y.$.$.`.{.{.{.{.{.{.'.'.'.'.'.'.'.'.'.'.[..X7 y F.A.z.A.A.M.B.x.S.F.F.F.F.D.z.z.j.A.m.j.j.j.F.m.j.D.F.: 8 OX'.'.'.'.'.'.{.'.{.{.[.{.XX{.{.{.{.'.'.'.'.",
"'.'.'.`.%.'.'.$.`.{.'.{.{.{.'.'.'.'.`.'.'.'.'.`.'..X& u F.B.z.C.A.x.m.m.l.D.F.F.F.F.B.z.z.j.m.C.g.z.h.z.D.c.p.B.F.w p OXR.'.'.'.'.'.'.`.(.#.`.[.{.{.{.'.'.'.'.'.",
"'.'.'.'.{.{.].'.{.'.{.{.{.'.{.'.'.'.'.'.'.'.'.'..X7 i F.M.x.N.A.x.m.M.x.N.D.F.F.F.S.x.z.z.j.j.C.g.j.j.h.x.C.i.h.M.F.% a OX'.'.'.'.{.'.#.Y.(.$.$.XX'.{.'.'.'.'.'.",
"'.'.'.'.{.{.{.{.{.{.{.{.{.'.{.'.'.'.'.'.'.'.R.OXa e F.M.m.k.C.M.m.m.M.k.B.M.A.D.B.x.x.z.z.z.h.M.f.h.j.j.p.B.l.a.p.M.G.# o..X`.'.'.{.'.(.[.{.`.).{.{.{.{.'.'.'.'.",
"'.'.{.{.{.{.{.{.{.{.'.{.{.{.{.'.'.'.'.'.'.'..Xo.% F.M.m.k.l.V.m.m.M.N.f.V.m.M.M.m.m.x.x.z.j.j.x.Z.i.z.j.h.j.V.t.j.a.V.n.X '.'.'.'.'.'.}.{.{.{.{.{.{.{.{.'.'.'.'.",
"'.'.'.'.{.{.{.{.{.{.{.{.{.{.{.'.'.'.'.'.{.{.[.+ n.V.x.x.t.V.m.m.m.B.k.l.M.m.M.M.m.m.x.z.z.z.h.j.N.e.z.h.h.p.x.l.q.j.i.D.u 7 OXR.'.{.{.{.{.{.{.{.'.{.{.'.'.{.'.{.",
"'.'.'.'.{.{.{.{.{.{.{.{.{.{.{.{.{.{.{.{.'.+X8 ;.D.c.M.t.l.M.x.m.m.M.y.l.m.m.M.m.m.m.x.z.z.j.j.h.x.t.h.j.j.h.h.M.6.h.h.h.D.% o..X'.{.{.{.{.{.{.{.{.{.{.{.{.'.{.'.",
"'.'.{.{.{.{.{.{.{.{.{.{.{.{.'.'.Y.`.{.'..Xo.% D.x.m.z.6.M.x.x.m.m.x.8.M.x.m.m.m.m.x.x.z.z.j.j.h.x.8.h.j.h.h.p.x.f.q.h.a.B.<.& #X`.{.{.{.{.{.{.{.{.{.{.{.'.'.'.'.",
"{.{.{.{.{.{.{.{.{.{.{.{.{.XXY.Y.&.Y.Y.'.OX& 1.B.z.m.8.f.M.x.m.m.M.k.t.M.x.m.M.m.m.x.x.z.z.j.h.h.z.t.r.j.j.h.h.h.l.5.h.h.p.S.% o..X{.{.{.{.{.{.{.{.{.{.{.{.{.{.{.",
"'.'.'.'.'.{.{.{.{.{.{.{.{.XXY.Y.{.(.#..Xo.w A.z.m.c.5.N.x.x.x.m.m.y.f.m.x.m.m.m.x.x.x.z.z.j.j.p.j.f.0.j.j.h.h.p.x.6.r.h.a.m.;.8 OX{.{.{.{.{.{.{.{.{.'.'.'.'.'.'.",
"{.{.{.{.{.{.{.{.{.{.{.{.{.{.[.{.'.'.`.OX8 ,.B.z.x.r.8.m.z.x.x.m.m.0.f.m.x.m.m.x.x.x.x.z.z.j.h.h.h.k.0.j.h.h.h.p.z.t.0.h.p.h.Z.* R.}.{.{.{.{.{.{.{.{.{.{.{.{.{.{.",
"{.{.{.{.{.{.{.{.Y.'.{.{.{.{.{.{.'.'.}.E.5 B.z.x.z.5.f.x.x.x.x.x.x.5.k.x.x.x.x.x.x.x.z.z.j.j.j.h.h.f.6.h.h.h.h.p.h.f.5.a.h.a.M.e X.oX{.{.{.{.{.{.'.XX`.T.XX{.{.{.",
"'.'.'.'.'.{.Y._.%.Y.Y.{.{.{.{.{.'.'.OXd y M.z.x.k.4.c.x.z.x.x.x.c.5.c.x.x.x.N.m.x.x.z.z.j.j.h.h.p.g.5.h.h.h.p.h.h.g.4.u.h.i.x.H a OX'.{.{.{.{.{.`.Y.-.$.$.`.'.'.",
"{.{.{.{.{.{.$.Y.{.Y.$.XX{.{.{.{.{.{.#X8 >.x.j.l.y.6.x.z.z.z.x.m.g.6.z.z.x.x.9.N.m.z.z.j.j.j.h.h.h.g.5.p.h.h.h.h.p.g.4.r.h.p.j.:.7 oX`.'.'.{.{.{.[.#.`.[.%.).{.{.",
"{.{.{.{.{.'.'.{.XX{.'.{.{.{.{.{.{.{.R.% l.z.c.P 8.6.z.z.x.x.z.x.y.6.z.z.x.k.L i M.z.z.z.j.j.h.h.h.i.6.i.h.h.h.p.h.h.5.0.h.p.h.8.& ].'.'.{.{.{.{.'.'.{.].[.{.{.{.",
"{.{.{.{.{.{.{.{.{.{.'.{.{.{.{.{.{..X@.w m.z.g.1 e k.j.z.z.z.z.x.e.6.j.z.z.0.Z   H m.j.z.j.h.h.h.h.i.4.i.h.p.h.p.h.p.6.0.h.h.h.t.& '.{.{.{.{.{.{.{.{.{.{.{.{.{.'.",
"{.{.{.{.{.{.{.{.{.{.{.{.{.{.{.{.R.oX..e x.j.4.< * f.z.z.z.z.z.x.t.0.z.z.k.R W 1XQ.M.j.j.j.h.h.h.h.i.5.i.h.h.p.h.h.p.4.0.h.h.h.6.& ].{.{.{.{.{.{.{.{.{.{.'.'.'.'.",
"'.'.'.'.{.{.{.{.{.{.{.{.{.{.{.'.{.oXv t x.g.I AXPX$Xl.c.j.z.z.z.e.0.z.z.Y v.LXLXJX%Xx.j.j.h.h.h.h.u.5.i.h.h.h.p.h.i.5.0.p.p.j.R & }.{.{.{.{.{.{.{.'.{.'.`.'.'.'.",
"'.'.'.'.'.{.{.{.{.{.{.{.{.{.'.'.{.oXd 1 m.4.^.LXJXCXx.k.z.z.z.z.6.0.j.k.J dXLXLXyXyXJ.j.j.h.p.p.h.r.5.i.h.p.h.p.h.u.4.0.h.p.j.S 7 oX{.{.{.{.{.{.{.'.{.{.'.'.'.'.",
"'.'.'.'.'.{.{.{.{.{.{.{.{.'.{.{.(. Xd > j.Y 9XLXVXeX$Xj.z.j.j.z.0.6.j.T 2.tXCXCXtXeXvXx.h.h.p.h.p.r.5.a.h.h.p.h.h.u.5.r.h.p.a.1 d OX'.{.{.{.{.{.'.'.{.'.'.'.'.'.",
"'.'.'.'.'.{.{.{.{.{.{.{.{.{.{.{.(.-...< u.I tX7XqXeXkXz.j.z.j.z.0.0.i.R b eX5X5XtXyX9X:.j.p.h.h.h.0.6.p.h.p.h.p.h.q.4.u.h.r.6.$ L.XX'.{.Y.{.{.{.{.'.{.'.'.'.'.'.",
"'.'.'.'.'.'.'.'.{.{.'.{.{.'.{.{.].|.@.$ Y 2 5X0X0XVX9 7.z.j.j.z.e.6.4.D   :XeXrXyXCX= % m.p.a.a.a.8.q.p.p.h.p.h.p.6.6.p.r.q.S & oX'.T.Y.%.Y.Y.{.{.'.{.'.'.'.}.R.",
"'.'.'.'.'.'.{.{.{.{.{.{.{.'.{.{.'.'.|.& P > 5 uXuXaXw >.z.g.k.j.0.4.f.>.,.>.@X@Xb.d.8.d.a.E Q hXGXE q.h.p.p.j.h.u.4.r.r.6.w.O @..X'.Y.Y.}.).$.{.{.'.{.{.'.'.'.'.",
"'.'.'.'.{.{.{.{.{.{.{.{.{.'.{.{.'.'.'.U C hX%Xp.i.6.j.z.j.z.z.z.h.e.j.x.z.z.h.j.j.j.j.a.V Q Q hXhXQ u.h.p.z.B.z.w.5.0.4.r.> p OXR.{.'.'.'.'.'.{.'.'.'.'.'.'.'.'.",
"'.'.`.'.'.{.{.'.{.{.{.{.{.{.{.R.'.'.].E C 4X4XT 9.9.0.h.t.Y P P K D D S f.j.g.K > H z.q.V C Q C V T h.h.p.M.m.r.5.5.5.u.1 5 .X{.'.{.{.{.'.}.'.'.'.{.{.'.'.'.'.'.",
"'.'.'.{.{.'.{.{.{.{.{.{.{.{.{.'.{.{.XXE.I ! R T 1 i j.p.S               1.h.6.O   1.j.h.u.T T T T u.h.p.p.j.r.5.4.0.q.> & }.'.'.{.{.{.'.{.{.{.{.{.'.{.'.'.'.'.'.",
"'.{.'.[.(.%.'.'.{.{.{.{.{.{.{.{.{.{.{.{.oXa O w.6.G < $ $           .   X .   # d.j.p.p.h.h.i.6.w.p.h.h.i.w.5.0.r.J $ p .X}.'.'.{.{.{.{.{.{.{.{.{.{.{.{.{.'.{.'.",
"'.'.'.#.Y.Y.%.Y.XX{.{.{.{.{.{.{.'.'.'.'.'.OXs O F e.S X                   . i l.j.i.h.h.h.u.5.6.p.p.r.0.6.q.q.L , * X.OX{.R.'.'.{.{.{.{.{.{.{.{.{.{.{.{.{.'.'.{.",
"{.{.{.Y.[.].(.(.{.'.{.{.XX{.{.{.{.{.{.'.'.[.OXX.* < P y.:.t : # # # % t H f.z.p.a.h.p.i.q.4.5.q.r.0.r.q.Y S , & d }.oX'.{.}.{.{.{.{.{.{.{.{.{.{.{.{.{.{.{.{.{.{.",
"'.'.{.{.{.{.XX{.{.{.{.{.$.'.{.{.{.'.'.'.'.'.`..XXXd * $ A P 0.y.g.h.j.h.i.q.0.y.i.i.u.t.r.r.e.0.Y J Z , & ; a T.oX'.[.{.'.'.{.'.'.{.{.{.{.{.}.{.{.{.'.'.'.{.'.'.",
"'.'.{.{.{.{.{.{.{.XX$._.%.Y.Y.{.'.'.{.{.{.{.{.'.{._.T.=.0 @ # < 2 t A S F J L J F F F S Z 1 , # X = o ) [ [ [ 5 p {.{.{.{.'.{.'.{.{.{.{.].{.[.].{.{.'.{.'.{.{.'.",
"{.{.{.{.{.{.{.{.{.{.Y.Y.{.(.$.{.'.{.}.{.{.{.{.{.'.%.[..X|.|.R.o.d a 8 7 7 & . . 4 @ 4 = = 6 ^ ^ x ,Xq ` ` / ~ 8 N T.].{.{.{.{.{.{.{.{.'.[.Y.%.[.[.{.{.{.{.{.{.{.",
"{.{.{.{.'.{.{.{.{.{.{.{.{.{.{.{.'.'.'.{.'.{.{.'.'.{.{.{.{.{.}..XOXOXOXoXoX].g 0 / / | -Xz [ | }  .,Xq / / / 0 vXDXkX$.P.{.'.'.{.'.{.{.{.#.Y.T.%.Y.{.'.{.{.'.{.{.",
"{.{.'.'.'.{.{.{.{.{.{.{.{.'.'.'.'.'.'.'.'.'.'.'.{.{.{.{.{.{.{.'.{.`.'.'.|.E.vXvXa ^ ^ z x ^ _ / 0 ;X4 6 ( ~ g xXlXDXUXK.'.'.'.'.{.{.{.'.).{.{.).[.{.'.'.'.{.{.'.",
"{.{.{.{.{.{.{.{.{.{.{.{.{.{.{.{.'.'.{.{.{.'.'.'.{.{.{.{.{.{.{.{.{.{.'.`.~.vXmXbX!.6 6 -Xz ^ / / ) ;X9 ~ @ 4 r ^.%XbXFXMXI..X'.'.{.{.{.'.{.{.{.{.}.{.{.{.{.{.{.{.",
"{.'.{.{.{.{.{.{.{.{.{.{.{.{.'.'.{.{.'.{.{.'.'.'.{.{.{.{.{.{.{.{.'.'.XXL.SXDXlX%X2.* 5 k =Xk  .0 k =Xz x x - f 3.%XxXkXaXv {.{.'.'.{.{.{.{.{.{.{.'.}.'.'.'.{.'.'.",
"'.'.'.'.{.{.{.{.{.{.{.{.{.{.{.].(.'.{.'.'.'.'.'.{.{.{.{.{.{.{.{.'.].].W.GXbXzX$X] o.L.c W &XwX<X;XB M =X;Xz (.L.v.~.fXHXdXX.{.{.{.{.{.{.{.{.{.{.'.'.'.'.{.'.'.{.",
"'.'.'.'.{.{.{.{.{.{.{.{.'.{.).(.&._.Y.{.{.'.'.'.{.{.{.{.{.{.{.{.'.}.U.n sXgX^.2.L.OX`.k &X&X=X=X*Xz &X:X-Xl o.+Xs BXLXLXLXaX@. X'.'.'.{.{.{.{.{.'.'.'.'.[.'.'.'.",
"'.'.'.{.'.{.{.{.{.{.'.{.'.XX$.$.`.T.#.{.'.'.'.'.{.{.{.{.{.{.{.{.'.].+.SXLXIXfXs {.'.oXv >X=X>X8X=Xz <X;X=Xh ' +X..ZXIXAXZXpXL.oX'.{.'.{.{.{.{.{.'.'.'.'.'.'.'.'.",
"'.'.'.`.{.{.{.{.{.{.'.{.{.].'.[.{.'.`.'.'.'.'.'.{.{.{.{.{.{.{.{.{.U.W.LXPXPXIXN U..X@.k &X=X8XwX>Xz :X=X:X<Xk E.L.pXdX!.lX!.*.].{.{.{.{.{.{.{.{.'.'.'.'.'.'.'.'.",
"'.'.'.'.'.{.{.{.{.{.'.{.{.'.'.'.`.'.'.'.'.'.'.'.'.'.{.{.{.{.{.{.{.].*.aX!.aXSXs ].L.k wXz z &X&Xz z =X*X>X<XwXz g AXdX/.kXaXgX@.}.'.{.{.{.{.{.{.{.'.'.'.'.'.'.'.",
"'.'.`.'.'.{.{.{.{.{.{.'.{.{.{.'.'.'.'.'.'.'.'.'.{.{.{.{.{.{.{.{.].&.W lXbX!.AXSXK.c 2X2X:Xz l z *X,Xh l =X<X<X=XNXPXHXdXNXKXPX+.].'.'.{.{.{.{.{.{.'.{.'.'.'.'.'.",
"'.'.'.'.{.{.{.{.{.{.{.{.{.{.{.'.'.'.'.'.'.'.'.'.'.'.{.{.{.{.{.{.}.+.fXaXaXfXKXKXBXz wX>X:X*Xj ..v v v h &X<X<Xl iXM fXLXLXIXIXQ.U.}.'.{.{.{.{.{.'.'.{.'.'.'.'.'.",
"'.'.'.'.'.{.{.{.{.{.{.{.{.'.{.'.'.'.'.'.'.'.[.'.'.'.{.{.{.{.{.{.].+.PXPXIXLXNXc n c z ;X=Xh ] +X.X.XOX{ h ;Xl m g !.pXAXAXdXiXX.}.'.{.{.{.{.{.{.{.{.XX'.'.'.'.'.",
"'.'.'.'.{.{.{.{.{.{.{.{.{.{.'.'.'.`.'.'.'.'.'.'.'.{.{.{.{.{.{.}.oX+.AXIXHXHXZX!.!./.~.j l s oXR.'.'.[. Xb = r zX!.W IXiX*.N g R.{.{.{.{.{.{.[.[.#.T.[.'.'.'.'.'.",
"'.'.'.'.'.{.{.{.{.{.{.{.{.{.{.'.'.'.'.'.'.'.'.'.'.{.{.{.{.{.{.{.}.L.Q.iXBXpXSXZXp vX%X$ 9 XXR.{.{.{.'.{.XX7 g lXvXM N m L.(..X{.'.'.{.{.'.XX$.$.T.Y.#.{.{.'.'.'.",
"'.'.'.{.{.{.{.{.{.{.{.{.{.{.{.{.{.{.{.'.{.{.{.'.{.'.{.{.{.{.{.{.{.}.@...n v O.M aXnX^.g R.}.{.{.{.{.{.'.'.}.U %XDXMX' ]..X].'.'.{.'.'.{.'.{.`.(.}.`.T.{.{.{.{.{.",
"'.'.'.{.).$.{.{.{.{.{.{.{.{.{.{.{.'.'.{.{.'.'.'.'.{.{.{.{.{.{.{.{.'.}.oX]..XU.n FXxX2.@.oX'.{.{.{.{.'.'.].oX' ^.mXMXo..X'.'.'.'.{.{.{.{.{.{.{.{.{.{.{.{.{.'.{.'.",
"'.{.'.#.Y.$.$.Y.{.{.{.{.{.{.{.{.{.{.{.{.{.{.{.{.{.{.{.{.{.{.{.{.{.{.'.'.R.XXU.aXFXzX3.E.}.{.{.{.{.{.'.'.'.XX@.^.mXFXW.].'.'.'.].{.{.{.{.{.{.{.'.{.{.{.{.{.{.{.{.",
"{.{.{.Y.[.{._.T.XX'.'.{.{.{.{.{.{.'.{.{.'.{.{.{.{.{.{.{.{.{.{.{.].{.{.{.R..X@.Q.vX^.U |.`.`.{.{.{.{.{.{.`.`.@.g !.gXm E..X{.{.{.{.{.{.{.{.{.{.{.{.{.{.{.{.{.{.{.",
"{.{.'.{.{.{.XX{.{.{.{.{.{.{.{.{.'.{.{.'.{.'.{.'.{.{.{.{.{.{.{.{.'.'.{.oXOX].*.dXdXdXn `.'.].{.{.{.{.{.{.T.-.' sXIXHXAXn `.'.oXXX'.{.{.{.{.{.{.{.{.{.{.{.{.'.{.{.",
"{.{.{.{.{.{.{.{.{.{.{.{.{.XX{.{.{.{.{.{.{.{.{.{.{.{.{.{.{.'.{.{.'.}.`.' g p M KXAXKXN U.}.'.].{.{.{.{.{.`.}.L.M W M c - n n d R..X'.{.{.{.{.{.{.{.{.{.{.{.{.{.{.",
"{.'.{.{.{.{.{.{.{.{.{.{.'.[.{.{.'.{.{.{.{.'.{.{.{.{.{.{.{.'.'.'.-.@.b fXHXHXiX; + - - I.}.'.{.{.{.{.{.{.{..XX.- - ; c AXLXPXBXb E.}.'.{.{.{.{.{.{.{.{.'.{.'.'.{.",
"'.{.'.'.{.{.{.{.{.{.{.`.`.#.).(.'.{.'.'.{.'.{.'.{.{.{.{.{.{.).%.$.a HXLXLXLXPXZX; - iX*.`.{.{.{.{.{.{.{..XL.pX3X; c PXPXLXLXLXAXa {.{.{.{.{.{.{.{.{.{.'.'.'.'.'.",
"{.{.{.{.{.{.{.{.{.{.{.#.Y.(.$.$.{.{.{.{.{.{.{.{.{.{.{.{.{.].).|.] fXLXLXLXPXIXPXiX; B n U.{.{.{.{.{.{.{..XL.c - - ZXKXIXPXLXPXLXiX@.|.{.{.{.{.{.{.{.{.{.{.'.{.{.",
"'.'.{.{.{.{.{.{.{.{.{.).[.{.`.(.{.{.'.'.'.{.'.'.{.{.{.{.{.'.'..Xa pXsXaXsXsXiXpXpX+   X R.].{.{.{.{.{.{..XX.o + c pXpXpXiXiXiXsXN d _.Y.(.XX'.{.{.{.{.{.'.'.'.'.",
"'.'.{.{.{.{.{.{.{.{.{.{.{.'.{.'.'.'.'.'.'.[.'.'.{.'.{.{.{.'.'.'.c sXZXfXsXsXsXfXsXfXfXM ' oX'.{.{.{.{.'..Xs pXZXBXdXdXdXdXdXZXSXiXa  X&.(.}.'.{.{.{.{.{.'.'.'.'.",
"'.'.'.{.{.{.{.{.{.{.{.{.{.{.{.'.'.'.'.'.'.'.'.'.'.{.{.{.{.{.{.'.v Q.pXW.W.W.W.Q.Q.Q.W.b o.oX'.{.{.{.{.'.}.o.v n n n n X.O.n O.O.b X.}.[.'.{.{.{.'.{.{.{.'.'.'.'.",
"'.'.'.'.{.{.{.{.{.{.{.{.{.{.{.'.'.'.'.'.'.'.'.'.'.'.{.{.{.{.{.{.'.R.P.P.P.P.P.U.E.U.U.R.{.'.'.'.{.{.{.'.'.}..X{.].].].].].].].].].}.'.{.{.'.{.{.'.{.{.{.'.'.'.'.",
"'.'.'.'.'.{.{.{.{.{.{.{.{.{.{.'.'.'.'.'.'.'.'.'.'.{.{.{.{.{.{.{.{.{.{.{.{.{.{.{.{.{.}.'.'.'.'.'.{.{.{.'.'.'.'.{.'.'.'.'.].'.'.U.[.'.{.{.{.{.{.{.{.'.{.'.'.'.'.'.",
"[.'.'.'.'.{.{.{.{.{.{.{.{.{.{.'.'.'.'.'.'.'.'.'.'.{.{.{.{.{.{.{.{.{.{.[.{.{.'.'.{.'.'.'.'.'.{.'.{.{.{.'.'.{.'.'.'.'.'.'.'.'.'.'.{.{.{.{.{.{.{.{.'.'.{.'.'.'.'.'."
};
