/* XPM */
static char *New_Project__3__resized[] = {
/* columns rows colors chars-per-pixel */
"80 80 256 2 ",
"   c #010100",
".  c #0D0700",
"X  c #14180C",
"o  c #29190C",
"O  c #132D0F",
"+  c #292907",
"@  c #3A2802",
"#  c #363805",
"$  c #283416",
"%  c #2A3115",
"&  c #2F302A",
"*  c #202329",
"=  c #482A00",
"-  c #463603",
";  c #573600",
":  c #473211",
">  c #673900",
",  c #733D00",
"<  c #403F33",
"1  c #135012",
"2  c #28451A",
"3  c #344913",
"4  c #1A771C",
"5  c #156C13",
"6  c #217018",
"7  c #3C5428",
"8  c #31462A",
"9  c #2C6C2C",
"0  c #1B4829",
"q  c #585500",
"w  c #4E4A09",
"e  c #7E4700",
"r  c #6E5C00",
"t  c #777600",
"y  c #726900",
"u  c #47552E",
"i  c #4A6535",
"p  c #59783A",
"a  c #536D35",
"s  c #6D7531",
"d  c #153555",
"f  c #1D3447",
"g  c #1D544F",
"h  c #355656",
"j  c #2A4F70",
"k  c #2C5D61",
"l  c #52544C",
"z  c #5E7445",
"x  c #5E694A",
"c  c #667550",
"v  c #6F6F6A",
"b  c #5D5F67",
"n  c #CE3E2A",
"m  c #D73625",
"M  c #8C5400",
"N  c #935601",
"B  c #A95C05",
"V  c #847500",
"C  c #8F6B02",
"Z  c #A86600",
"A  c #BC6C00",
"S  c #B26901",
"D  c #B67600",
"F  c #827D2C",
"G  c #D57902",
"H  c #C57704",
"J  c #CE5824",
"K  c #8B7851",
"L  c #E3514D",
"P  c #25900F",
"I  c #2DAF16",
"U  c #289327",
"Y  c #2BA82B",
"T  c #30B32C",
"R  c #1A8612",
"E  c #67863B",
"W  c #738F3B",
"Q  c #48BA30",
"!  c #79A23D",
"~  c #31C531",
"^  c #49C234",
"/  c #358248",
"(  c #5C8E44",
")  c #698645",
"_  c #779846",
"`  c #748756",
"'  c #6F8E47",
"]  c #79A347",
"[  c #74B956",
"{  c #7CBB56",
"}  c #78B957",
"|  c #70B452",
" . c #7B8569",
".. c #65C24F",
"X. c #868200",
"o. c #9D9C00",
"O. c #998700",
"+. c #B58806",
"@. c #A8A600",
"#. c #BAAC01",
"$. c #A78733",
"%. c #A29831",
"&. c #CA8500",
"*. c #D58300",
"=. c #DA8500",
"-. c #DC8A00",
";. c #D68C00",
":. c #DA9500",
">. c #C89B00",
",. c #E38C00",
"<. c #EA8B01",
"1. c #E49300",
"2. c #EC9300",
"3. c #EA9A00",
"4. c #E49D00",
"5. c #F29501",
"6. c #F39A00",
"7. c #FC9D00",
"8. c #F89500",
"9. c #F78709",
"0. c #D8AB00",
"q. c #D4BD00",
"w. c #E3A200",
"e. c #ECAB00",
"r. c #EAA400",
"t. c #FEA200",
"y. c #F4AC00",
"u. c #FEAB00",
"i. c #F2A401",
"p. c #EBB301",
"a. c #FEB400",
"s. c #FFBB00",
"d. c #F2B703",
"f. c #C99C31",
"g. c #D7D500",
"h. c #D1C600",
"j. c #EDC400",
"k. c #FFC300",
"l. c #FECB00",
"z. c #F5CB00",
"x. c #FED300",
"c. c #FEDC00",
"v. c #F5D700",
"b. c #ECDE00",
"n. c #FEE400",
"m. c #FEEB00",
"M. c #FEF300",
"N. c #FFFE01",
"B. c #F7F400",
"V. c #EAED00",
"C. c #E3CC35",
"Z. c #909A5F",
"A. c #86A94A",
"S. c #8FBA49",
"D. c #8BB448",
"F. c #94BB4D",
"G. c #83BE56",
"H. c #8ABF56",
"J. c #88B855",
"K. c #92BA53",
"L. c #87AC52",
"P. c #889376",
"I. c #8A8F73",
"U. c #AA966F",
"Y. c #95B26A",
"T. c #B09F57",
"R. c #C6AA6D",
"E. c #E0B152",
"W. c #8CC156",
"Q. c #8CC158",
"!. c #85C359",
"~. c #95C356",
"^. c #9AC457",
"/. c #9CC954",
"(. c #95C358",
"). c #9BC558",
"_. c #9ECA5A",
"`. c #94C95B",
"'. c #96C752",
"]. c #A1CD5B",
"[. c #A0C857",
"{. c #A5D15C",
"}. c #A9D55E",
"|. c #AAD85E",
" X c #A7D560",
".X c #FCC95B",
"XX c #F8CD6E",
"oX c #EEE86A",
"OX c #2D5988",
"+X c #2E5A88",
"@X c #376898",
"#X c #3A6786",
"$X c #3968A7",
"%X c #3B72A9",
"&X c #3B74B1",
"*X c #365EA2",
"=X c #456992",
"-X c #427BB7",
";X c #457EC3",
":X c #847C83",
">X c #F97696",
",X c #008BBD",
"<X c #0095BC",
"1X c #4A82B6",
"2X c #68A3A6",
"3X c #05AEDC",
"4X c #11A7D2",
"5X c #4482C6",
"6X c #42B2CD",
"7X c #03CEFF",
"8X c #07C7FB",
"9X c #1AD2E8",
"0X c #36D6FA",
"qX c #78F8FF",
"wX c #60D0DE",
"eX c #979796",
"rX c #8B8A8C",
"tX c #A69C8F",
"yX c #AFAC98",
"uX c #A8A7A8",
"iX c #ACACB2",
"pX c #B8B6B9",
"aX c #B4B0AB",
"sX c #9B9D97",
"dX c #CFBA8A",
"fX c #F98BA1",
"gX c #C4BAA7",
"hX c #F6D78F",
"jX c #FFE28C",
"kX c #FFE996",
"lX c #D5CBB2",
"zX c #FFF4A8",
"xX c #FFF2B3",
"cX c #FDE4A8",
"vX c #DFD6AB",
"bX c #BDBDC2",
"nX c #C1BEC6",
"mX c #FFBBC6",
"MX c #B7EAD4",
"NX c #90E1F2",
"BX c #C6C7CA",
"VX c #D7D7DA",
"CX c #CFCDD2",
"ZX c #FFFBCB",
"AX c #FFF2C9",
"SX c #FFFDD6",
"DX c #FFF1D9",
"FX c #F4E4C9",
"GX c #DCDCE1",
"HX c #E1DEE4",
"JX c #C5FEFF",
"KX c #E7E7E9",
"LX c #FEFEFE",
"PX c #F5F5F6",
"IX c #F2EFF1",
"UX c #DFE5C9",
/* pixels */
"^.^.^.^.^.).^.).).).).).).^.^.).^.^.^.^.^.^.^.^.^.^.^.^.).).).^.^.^.^.^.^.^.^.^.^.^.^.^.^.^.^.^.^.).).).).).).^.^.^.^.^.^.^.^.^.^.).^.).).).).).).).^.^.).).^.^.",
"^.^.^.^.^.).).^.).).).).).^.).^.^.^.^.^.^.^.^.^.^.^.^.^.^.H.G._.^.^.^.^.^.^.^.^.^.^.^.^.^.^.^.^.).).).).).).^.^.^.^.^.^.^.^.^.(.^.).).).).^.).).).).^.^.H.G.^.^.",
"^.^.^.^.^.).).).).).).).).).).~.^.^.^.^.^.^.^.^.^.^.).(.[ G.G.} W.^.^.~.^.^.^.^.^.^.^.^.^.^.^.^.).).).).).).).^.^.^.^.^.^.^.^.^.^.).).).).^.).).).).(.} G.{ } !.",
"~.^.^.^.).).^.).^.).~.).).).).^.^.^.^.^.~.^.^.^._.^.^.^.} ~.^.{ W.}.{.{._.F.^.^.^.^.^.^.^.^.^.^.).).).).).).^.^.^.^.^.^.^.^.^.^.^.).).).).).).).).).).{ ^.).{ W.",
"^.^.^.).).).).).W.Q.| W.H.^.).^.^.^.^.).^.^.^.).^.^.).^._.^.^._.(.E i u A.[.K.K.^.).^.).).).).).).).).).).).).^.^.).^.^.^.^.^.^.).).).).).).).).).).).)./.^.)./.",
").^.^.).).).).[.{ { (.H.[ ).).^.^.).).^.).).).).).).).).^.^.{.L.2 1 R 4 1 A.{.[.).^.^.^.).).).).).).).).).).^.^.).^.).^.^.^.^.^.).).).).).).).).).).).).^.^.^.).",
").^.).).).).).).`.(.[.~.~.).).).).).^.).).).^.).).).).).^.^.).2 4 Y U Y T 1 L.].^.).).).).).).).).).).).).).).).).).^.).).(.^.).).)._.).).).).).).).).).).^.).).",
").).).).).).).).).^.^.).).).).).).).).).).).).).).).).).^.{.' 1 Y U Y T T Y u ].^.).).).).).).).).).^.).).).).).).^._.~.~.} G.(.).).(.).).).).).).).).).).).).).",
").).).).).).).).^.).).).).).).).).).).).).^.).).).).).).)._.L.1 U T Y Y Y ~ 4 ) {.~./.^.).)._.).).).).).).).).).).^.[.G.} H.G.[ ).).).).).).).).).).).).).).).).",
").).).).).).).).).).).).).).).).).).).).).).).).).).).).).)._.s 2 1 R U Y T T 7 _.`.^.^.).).Q.G.).).).).).).).).).).).(.Q.).~.H.).).).).).).).).).).).).).).).).",
").).).).).).).).).).).).).).).).^.).).).).).).).).).).).).).^.].[.p O 4 U Y ~ 9 L._.^.).~.{ !.{ G.Q.).^.).).).).).^.^.).).^.^.).).).).).).).).).).).).).).).^.^.",
"^.^.^.^.^.).).).).).).).).).).^.^.^.^.^.^.^.^.^.).).).).).).^.(.^. XL.2 4 U ~ 4 A.].~.^.~.[ ~.^.} Q._.).).).).).^.^.^.^.^.^.^.^.^.^.^.).).).).).).).).^.^.^.^.^.",
"^._.^.^.^.^.).).).).).).).).).).^.).^.).^.^.).^.).).).).).(.]. X XK.F.u 1 U T 4 s  X X{.).^.^.).).).).)._.^.^.).).).).).).).^.).).).).).).).).).).).).).^.^.^.^.",
"^.^.^.^.).^.).).).).).).).).).^.^.^.^.).)._.G.~.).)._.K.{.|.L.p & % 3 @ O U T 5 + $ 7 ' ^.}._.(.).).).).^.^.).).^.^.^.^.^.^.^.^.).).).).).).).).).).).).^.^.^.^.",
").^.).^._.^.{ (.).).).).).).).).^.^.^.[.W.G.} G.{ ~.]. X_ $ + y #.V.M.w.@ O 1 - -.h.o.q % i ~.|.).^.).).^.^.).).).^.^.).^.^.^.^.).).).).).).).).).).).).).).^.).",
"^.^.^.).{ { { G.} ).).).).^.).^.^.^.^.).G.{ ~.~.[ |.A.& # @.B.N.N.N.N.N.n.h.q.b.m.N.N.N.g.V + i [.].^.).)._.^.^.^.^.^.^.^.^.^.^.^.).).).).).).).).).).).^.^.^.^.",
"^.^.^.).G.H.[.H.G.).).).).).^.^.^.^.^.^.^.~.F._.].i + o.N.N.N.M.k.l.N.n.n.N.N.N.m.x.N.N.N.N.V.y % _ |.^.Q.`.[.^.^.^.^.^.^.^.^.^.^.^.^.).).^.^.^.^.^.).^.^.^.^.^.",
"^.^.).(.^.^.^.^.).).).).).).).^.^.^.^.^.^.^.[.^.$ q V.N.c.N.n.u.u.N.n.u.n.N.N.N.N.n.M.N.N.B.n.N.h.+ i `.[ { W.^.^.^.~.^.^.^.^.^.^.).).).).).^.^._.).).^.^.^.^.^.",
"^.^.^.).).^.^.).).)._.^.).).).^.^.^.^.^.^.{.D.X X.N.c.a.M.x.t.u.x.M.u.a.n.N.N.N.N.M.l.m.M.m.m.k.N.N.q 0 ].`.| ^.^.^.^.^.^.^.^.^.^.^.^.).).^.).^.^.!.W.).^.(.^.^.",
"^.^.).).^.).^.).).).(.^.).).).^.^.^.^.~.].L.X @.N.s.t.m.x.t.a.i.n.l.u.a.k.N.N.N.N.N.z.s.k.k.m.m.a.n.N.t $ _.~.^.^.^.^.^.^.^.^.^.^.).).).^.^.).~.{ { G.{ (.^.^.^.",
").).^.^.^.).^.).~.~.[ Q.~.^.^.^.^.^.^.[.K.X #.N.u.7.v.c.t.u.u.y.n.u.a.a.a.c.N.N.N.N.n.d.l.k.s.m.z.s.x.N.t $ ].^.^.^.^.^.~.^.^.^.^.^.^.).).).).~.{ ).^.{ (.^.^.^.",
"K.).^.^.^.^.^.[.{ { W.G.[ ^.^.^.^.^.^.[.O o.N.i.7.p.n.t.u.u.t.j.l.i.a.a.s.s.n.N.N.N.n.p.k.l.k.k.m.p.s.l.N.t 8 {.~.^.^.^.^.^.^.^.^.).).).).).).).).^.).).^.^.^.^.",
").).^.^.).^.^._.(.Q.[.(.H.^.^.^.^.~.}.8 y N.i.t.3.v.a.t.u.u.3.z.a.t.a.a.s.s.k.x.m.x.l.j.y.x.k.k.l.v.r.k.k.N.q i }.K.^.^.^.^.^.^.^.^.).).).).).).).).).^.^.^.^.^.",
"^.^.^.^.^.^.^.^.).).).).).^.^.^.^.{.E # N.a.t.6.p.l.7.u.u.u.3.z.u.u.a.a.s.s.k.k.l.k.k.v.4.l.l.k.s.c.p.y.k.l.N.# _ {.K.^.^.^.^.^.^.).).).).).).).).).).).^.^.^.^.",
").).^.^.).).).).).).).).^.).).^.^.~.X g.l.7.t.,.z.u.t.t.u.t.4.k.t.u.u.a.s.s.k.l.l.l.k.x.w.s.l.k.k.k.v.-.k.s.c.g.+ (.).).).).).^.^.).^.).).).).).).).).).^.^.^.^.",
").^.).).).).).).).).).).).).).^.}.u t m.8.u.2.w.k.7.t.u.u.6.w.s.t.u.a.a.a.s.k.k.k.l.s.l.e.r.l.k.k.s.x.p.3.k.a.m.V 7 }.^.).).).).).).).).).).).).).).).).).).).).",
"^.^.^.^.).).).).).).).).).).^.[.J.+ b.u.t.t.-.d.u.t.t.u.u.2.p.u.t.u.u.a.s.s.s.k.k.k.k.k.d.1.k.k.k.s.s.l.-.d.k.s.M.# _ ].^.^.^.G.).).).).).).).).).).).).).).^.^.",
").).).).).).).).).).).).).^.^.|.i t x.8.t.5.;.s.7.t.t.t.u.,.p.t.t.u.u.a.a.s.s.k.k.k.k.s.z.-.s.k.k.s.s.l.4.1.k.a.c.@.8 }.^.G.G.[ G.G.[.).).).).).).).).).^.).).).",
"^.^.^.^.^.^.).).).).).).).).).).% h.u.7.t.,.w.a.7.t.t.t.u.-.y.t.t.u.u.u.a.s.s.k.k.k.k.s.k.:.y.k.s.k.s.s.d.*.a.k.a.n.3 ] [.{ H.^.{ G.[.^.).).).).).).).).^.^.^.).",
").).).).[.).).).).).).).).(.].' w l.8.t.7.=.e.t.7.t.t.u.t.-.y.7.t.u.u.a.a.s.s.s.s.k.s.s.s.4.3.k.s.s.s.s.k.-.4.s.a.x.O.7 |.~.^.^.^.^.).).).).).).).).).).).).).).",
")._.^.[.H.Q.[.).).).).).).K.|.i X.s.7.t.2.*.y.t.7.t.t.t.6.-.y.t.t.u.u.a.a.s.s.s.s.k.s.s.s.r.,.k.s.s.s.a.s.4.=.s.s.a.j.# K._.^.^.).).).).).).~.G.).).).).).).).).",
"^.^.H.G.{ G.G.(.).).).).).).{.8 >.u.7.t.<.-.y.7.t.7.t.t.6.;.t.t.t.t.u.u.a.a.s.s.k.d.s.s.s.r.=.s.s.s.s.a.s.e.=.y.k.u.x.q ) {.^.^.^.^.).).[.G.!.} !.J.^.(.^.).~.^.",
"^.).W.} (.(.} ~.).).).).).).).2 e.7.t.t.,.;.u.7.7.t.t.t.2.-.t.t.t.t.u.u.a.a.a.l.>.*.s.s.a.y.=.y.s.a.s.a.s.y.=.p.:.a.k.O.7  XK.[.).).).^.[.} W.^.G.{ _.^.).).).).",
").^.^.^.).).~.).^.).).).^.].L.# y.7.t.7.,.1.t.7.t.t.t.t.3.=.t.7.t.u.t.u.a.a.s.#.= H y.a.a.y.=.i.s.s.a.a.a.y.3.C S a.s.0.3 _.).[.).).).^.).^.).[.^.^.^.^.).).).).",
").).).).).).^.^.^._.).).^.].L.- t.7.7.7.=.,.t.7.7.t.t.t.2.=.7.7.7.t.t.u.a.u.k.#   M ;.a.a.u.=.i.s.s.a.a.a.a.:.  , r.a.a.# Y._.K.).).).).).).).).^.^.^.^.).).).).",
"^.^.^.^.).).).^.).)._.^.^.[.L.# 7.t.t.7.=.,.t.7.t.7.t.t.2.=.7.t.t.t.u.u.u.a.C.bXCXU.A y.a.y.=.3.s.a.a.a.a.s.f.2XK G a.a.- ] ]._.).).).).).^.).).^._.).^.).).^.).",
"^.^.^.^.^.).^.).).).).).^.).K.+ ,.t.t.t.-.=.7.t.7.t.7.t.2.=.6.t.t.t.t.y.t.k.MXJXLXLXf.G a.u.=.1.a.a.a.u.u.s.UXLXLXH i.s.- _ _.~.^.).).).).).).)._.^.).).^.^.).^.",
"^.^.^.^.).).^.^.).).).).^.^._.% A t.t.7.-.=.7.t.t.7.7.t.5.=.6.t.7.t.t.t.u.oX7XNXLXPX2XS i.u.=.3.a.u.a.a.u.C.0XIXLXZ.=.u.= _ {.^.^.).^.).).^.).).).^.).).^.^.).).",
"^.^.^.^.^.).).).).).).^.).^.{.7 M 7.7.t.,.=.8.t.7.7.t.t.6.*.2.t.7.t.t.t.k.MX7X3XwX6X7XH *.u.=.1.a.a.u.u.a.vX7XNXNX6XG 2.@ ' `.~.).).^.).^.).).).).).).^.^.^.).).",
"^.^.^.^.^.).^.).).).(.G.).^.{.' = 2.2.t.2.*.2.t.t.t.7.t.7.=.2.u.t.t.7.s.r 1XqX0X&X3X8X: A 3.=.2.a.u.u.a.w.2X0X<X<X4XB =.+ } [ ~.).^.).).).^.).).).).).^.^.^.).(.",
"^.^.^.^.^.^.^.^._.G.G.[ !.G.[.).% S ,.6.7.=.-.7.7.7.t.7.7.,.:.7.9.9.t.j.+ # MX0X9X9Xg . C =.=.3.a.u.u.s.V * JX8X8Xd ; S $ `.Q.).^.).^.).).).).).).).).^.^.^.^.^.",
"^.^.^.^.^.^.^.^.).{ W.^.G.G.^.].E = <.=.2.2.*.8.u.u.7.t.t.,.L KXfXL J 2.a.y.y.d.k.d.e.p.d.r.*.2.u.y.t.u.0.>.+.[.f.+.J B s {.^.).^.).^.).).^.).).).).).^.~.^.^.^.",
"^.^.^.^.^.).^.^._.^.).).).).).^.].8 , 2.*.-.-.,.s.x.a.7.t.2.L >X>XL L m 8.t.t.u.t.t.t.u.u.5.,.t.a.a.a.u.u.5.<.8.3.mXfXm J `.^.^.^.).).).).).).).).).^.^.^.^.^.^.",
"(.^.^.^.).^.^.^.).).).^.).^.).^.).).$ e 5.=.=.=.2.k.k.7.7.t.G m m n m m 8.s.r . M t.s.0.@ @ = - ; ; ; &.t.6.V N &.L L m %.`.^.^.^.).).).).^.).).).^.^.^.^.^.^.^.",
"^.^.^.^.^.).^.).).).).).).).^.^.^._.~.$ > ,.<.*.=.2.t.t.7.t.6.*.=.<.<.t.t.t.0.X o Z D t               M H +.q B 6., : F.`.^.).(.).).).).).).).).).^.).^.^.^.^.^.",
").^.).).).).).).^.).).).).).).^.^.^._.[.7 @ Z 2.,.=.=.5.t.t.7.,.=.6.t.t.7.7.u.p.w             .           @ *.5.> $ K.].).).^.^.).).).).).).).).^.^.[ W.^.^.^.^.",
"^.^.^.^.).).).).).).).).).).).).^.^.^.^.}.' % = Z <.2.,.,.2.6.7.,.=.2.7.t.t.7.t.s.+.q X               @ C 4.S @ 8 F.].K.).).^.^.).).).).).).).[.{ { !.G.[ ^.^.^.",
").).).).).).).).).).^.).).).).).).).).^.^.{.].) 2 = e A =.<.2.<.,.-.=.,.2.7.7.6.5.7.r.>.+.V r r C D :.:.S = o E  X[.).^.).^._.).).).).).).).).).Q.W.[.~.G.).).).",
").^.).^.^.^.).).).).).).).).).).^.^.^.^.^.^.(.^.L.i 0 $ @ > M B H G ,.2.<.3.5.3.2.1.2.2.7.7.2.-.D N > @ O ( `. XK.).^.^.).^.^.^.^.^.~.G.^.).).).)._.).).).).).).",
").^.^.).^.^.).).).).)._.).).).).^.).^.).).).(.2 1 ^ ^ ^ U O d O O + - ; > , , , e e , > ; = @ + $ 7 i | !.`.} (.).).).).^.).).^._.G.G.} !.G.[.).).).).).^.).).).",
").).).)._.^._.(.(.} G.(.).).).).).).).^.).'.L.U.a P Y Q T 9 &X/ I Y U d g 5 5 5 O X a p ) _ L.K.].|.`.{ ^.(.} ).).).).).).).).).^.{ W.^.G.{ ).).).).).).).).).).",
").^.).).^.^.^.G.} H.G.[ (.).).).^.^.^.).H.Y.vXZXvX9 P I P 0 *X/ Q Q Q k =XI I R z ` ]. X{._._._.^.^.).`.).).).).).).).).).).).^.).^.^.).^.^.).).).).).).).^.).^.",
"^.).).^.^.).).(.Q.[.(.H.^._.).).).).).~.Z.FXxXhXhXs 5 R 5 1 =X9 I I I k #XP R I.AXFXY.F.^.^.^.^.).).).).).).).).^.^.^.^.).).).).).^.).).).).).).).).).).).).^.^.",
").).).).).).^._._.^.).^.^.^.).).).).].L.lXSXcXXXf.w O 1 P g $XU I I P j j 1 1 E.jXkXFXY.~._.^.^.).).).).).).).).).).).).).).).).).).).).).).).).).).).).).).).).",
"^.).^.^.).^.).).).).).).).).).).^.).(.z sXdXhX.XA.E f #Xh k =Xg p k 0 =Xj w : F .XcXZXVX] _.^.).).).).).).).).).^.).^.^.^.^.).^.).).).).).).).).).).).).).).^.).",
").^.^.).(.^.).).).).).).).).).).(._.' bXKXnXU.$.A.A.j =X@Xb b %X5X;XOXv l F.L.A.E.kXhXvXZ._.^.^.).).).).).).).).^.^.^.^.^.^.).H.).).^.).).).).).).).).).).^.^.^.",
"^.^.^.^.^.^.^.).).).).).).).).)._.D.sXLXLXLXVXx }._ j +X&X+Xj +X@X@X+XOXk '.].D.$.Z.yXaXc K.).^.).).).).).).).^.^.^.^.^.^.G.!.| !.Q.).).).).).).).).).^.^.^.^.^.",
"^.^.^.^.).).).^.).).).).).).).)._.D.P.pXbXKXCX) |.p d @X%X&Xj $X5X1X@X&X) {.^.W.b GXLXLXVX' _.).).).).).).).^.^.^.^.^.^.^.[ W.(.} !.[.^.).^.).).).).).^.^.(.^.^.",
"^.^.^.^.^.).).^.).).).).).).).K.'.` U.hXR.yXeX! A.k 1X&X@X%Xj &X5X&X@Xj h A.{.D. .PXKXKXLXZ.K.^.).).).).).).).^.^.^.^.^.^.~.^.).(.(.).).).).).).).).^.^.^.^.^.^.",
"^.^.^.^.^.).).^.).).).).).).)._.D.eXyXdXdXaXPX .h 5X&X&X+X@Xj j j OXj +X;Xh D.]  .CXtXU.tX` _.^.).).).).).).^.^.^.^.^.^.^.^.^.^.^.^.).).).^.).).).).^.^.^.^.^.^.",
"^.^.^.~.).).^.).).).).).).).)._._ KXLXCXnXHXHXIX=X-X&X$Xj d OXOXj j j -X-X-Xl aXLXBXR.zXXXv { _.).).).).).).^.^.^.^.~.^.^.^.~.^.^.).^.).).).).).).).).).^.^.^.^.",
"^.^.^.^.).).).).).).).).).).)._.c VXIXIXLXCXl K j -X%X+Xg p c z z & OX-X-X-X#XpXiXKXaXyXaXsX( {.^.).).).).).).^.^.^.^.^.^.^.^.^.^.).^.).).).).).).).).^.^.^.^.^.",
"^.^.^.^.^.).^.(.^.^.).).).).^._.A.rXuXVXCXiXR.K u j @Xd W |.].].{.' d *X$Xh 8 K l HXLXLXLXCX_ _.^.).).).^.^.^.^.^.^.^.^.^.^.^.^.^.).^.).).).).).).).).).^.^.^.^.",
"^.^.^.^.^.~.Q.[ ~.(.).).).).).^.[.W x rXb PXI.K hX: d z ].^.^.~.~.{.i j f T.U.R.yXVXCXGXKXiXA.].^.).).).^.^.^.^.^.^.^.^.^.^.^.^.^.).^.).).).).).).).).^.(.^.^.^.",
"^.^.^.^.).[ G.W.} { [.).).).).).K.].).D.' v v vXjXs 8 [.).^.).).^.^.[.8 + XXdXu KXrXeXeXrXc ^.).).).).).).).).).^.^.^.^.^.^.^.^.^.).).).).).).).).).).).).).^.^.",
"^.^.).^.).H.~.).(.H.).).).).).)._.).)._.{.W lXZX.XF _.[.^.).).).).^.[.K.p E.xXgXl ' ' ' ] ~._.).).).).).).).).^.).).^.).).).).).^.).).).).^.).).).).).).^.).).).",
"^.^.^.^.^.[.).).).).).).).).).).).).).K._._ BXxXE.E [.K.).).).).[.[.K. X] $.zXDX .[.[.[.{.^.^.).).).).).).).).^.^.^.^.^.^.^.).^.^.).).).).).).).).).{ Q.^.^.^.^.",
"^.^.^.).^.).).).).).).).).).).).).)._.)._.Z.DXzXE.' ].[.).).).).Y._.].].L.$.kXSXtXD.[.[.^.).).).).).).).).).).).).).^._.).).).).).).).).).).).[.G.{ { G.} ^.^.^.",
").).).).).).).).).).).).).).)._.).K.^.[.D.x sXU.s | (.~.).).).).).).).K.K.F E.vXP.! ].^.^.^.).).^.).).).).).).).).).).).).).).).).).).).).).).).Q.G.[.(.{ ).).).",
").).).).^.).).).).).).).).)._.K._. X^.^.c VXGXIXuX' { G.[.^.).).).).)._.F.v aXpXpXI.'.}.{.^.^.).^.).).).).).).).^.).).^.^.).^.^.^.).^.).).).).)._.).^.^._.^.).).",
").).).).).).).).).).).).).).).].K.p c c & l b K v A.`.~.).^.).).).).K.[.F.v HXGXKXx u z E ^.[.~._.).).).).).).).).).).).).).^.^.).).[.).).).).).^.)._.).^.^.).).",
").).^.).).^.).).).).).).).).[.D.x nXLXLXGXb o & & z [.).).).).).).).[.[.A.u & o * eXHXHXiXx ] !.^.^.).).).).).).).^.).).^.).^.^.^.^.(.).).).).).^.^.^.).^.^.^.).",
").).).).).).).).).^.).).)._.^.i GXLXLXLXIXIXb X :XeXA.].^.^.).).).)._.~.` eX& * pXLXLXLXLXKXl D.[ W./.^.).).).).^.^.^.^.^.).^.^.(.(.[ H.(.^.).).).).).).^.^.).^.",
").).).).).).).).).^.).).).`.] eXLXPXLXIXKXKXnX* & l A.].^.^.).).).^._.K.v b * eXPXIXPXLXLXLXiXE `.K.).^.).).).).)._.).^.).).).^.} { Q.G.[ ).^.).).).).).).).).).",
").^.).).).).).).^.^.).(.G.!.a v uXeXeXeXeXI.eXl o X ` ].K.).)._.^.^.).K.X   X rXeXeXuXuXuXuXeXa ].^.^.).^.)._.).^.^.^.^.^.).).^.Q.(.).^.(.).).).).).).).).^.^.^.",
"^.^.^.^.).^.).).^.^.).W.[ ].i eXCXBXpXpXpXbXpXnXBXeXi ].).).).).^.).{.W b aXpXuXiXuXuXuXiXBXsXl ~._.).).^.^.^.^.^.^.^.^.^.^.).~.).).^.).).).).).).).).).).^.^.^.",
"^.~.^.^.).).).).).)._.).~._.' z ` ` ` ` ` ) c ` c z _ ].^.^.).).).).]._ x P.P.P.P.P.P.P.P.sXI.p ^.^.).).).).).^.^.^.).).).~.^.^.^.^.).).^.^.).).).).).).).).^.^.",
"^.^.^.^.).).).).^._.).).).)._._._.^./.'./.^.[.[.].[.].K.^._.).).).).).).F.S.S.S.S.S.S.S.S.S.S.^._.).).).).).).^.^.^.).).^.).^.^.^.^.^.).).).).).).).).).).^.^.^.",
"^.^.^.^.).).K.).^.).).).^.).).^.^.F.^.^.^.^.^.^.).).).).).).).).).K.).(.)._.)._.).).).).)._.).).^.^.).).).).^.^.^.^.^.(.^.^.^.^.^.).^.).^.).).).).).).^.^.^.^.^.",
"^.^.^.^.^.).).).^.).).).).^.).^.).^.^.^.^.^.^.^.).).).).).).).).).).).).).).^.^.^.^.^.^.^.^.).).^.^.).).).).^.^.^.^.^.).^.^.^.^.^.^.).).).^.).).).).).).^.^.(.^."
};
