/* XPM */
static char *New_Project__8__resized[] = {
/* columns rows colors chars-per-pixel */
"80 80 256 2 ",
"   c #020100",
".  c #090702",
"X  c #181708",
"o  c #161A11",
"O  c #271A00",
"+  c #291B0F",
"@  c #172708",
"#  c #1D2511",
"$  c #0C380D",
"%  c #292805",
"&  c #362806",
"*  c #363805",
"=  c #293215",
"-  c #2E312B",
";  c #103027",
":  c #4B2A00",
">  c #482702",
",  c #542D00",
"<  c #523801",
"1  c #6A3A00",
"2  c #413720",
"3  c #164514",
"4  c #135A16",
"5  c #0C4D12",
"6  c #284618",
"7  c #2F4C13",
"8  c #167214",
"9  c #22701C",
"0  c #354A25",
"q  c #3B5329",
"w  c #2B4E28",
"e  c #1F7230",
"r  c #295D2C",
"t  c #494801",
"y  c #574D0A",
"u  c #7C4500",
"i  c #6F4F00",
"p  c #777400",
"a  c #696801",
"s  c #445B2B",
"d  c #48502E",
"f  c #4A6634",
"g  c #556A3A",
"h  c #58773A",
"j  c #4A662D",
"k  c #667B38",
"l  c #67582B",
"z  c #183653",
"x  c #1A3351",
"c  c #335352",
"v  c #38744F",
"b  c #1D436F",
"n  c #264D77",
"m  c #2C516E",
"M  c #366E6A",
"N  c #51534A",
"B  c #596B46",
"V  c #66744E",
"C  c #666663",
"Z  c #727571",
"A  c #545F5F",
"S  c #D03725",
"D  c #C63E0B",
"F  c #844900",
"G  c #875801",
"H  c #9B5A01",
"J  c #AA5E00",
"K  c #876900",
"L  c #947201",
"P  c #B77700",
"I  c #AC6D02",
"U  c #8A7A2B",
"Y  c #A86229",
"T  c #C97800",
"R  c #D27500",
"E  c #D95423",
"W  c #83734C",
"Q  c #817E74",
"!  c #EA4E5A",
"~  c #BC2C2C",
"^  c #1B8C0C",
"/  c #25910E",
"(  c #2DAE15",
")  c #279326",
"_  c #2BA92B",
"`  c #34B72A",
"'  c #1F9923",
"]  c #6F8F3D",
"[  c #49B735",
"{  c #7CA43D",
"}  c #32C62D",
"|  c #3D8464",
" . c #698744",
".. c #769645",
"X. c #748558",
"o. c #6F9248",
"O. c #7AA34A",
"+. c #74B956",
"@. c #7CBC56",
"#. c #77BA57",
"$. c #75B353",
"%. c #7A8767",
"&. c #5E9A4C",
"*. c #7BC35B",
"=. c #54C842",
"-. c #48C232",
";. c #989700",
":. c #8A8800",
">. c #BA9200",
",. c #AB9100",
"<. c #BBBA00",
"1. c #B2A200",
"2. c #AF8A36",
"3. c #85973C",
"4. c #C68301",
"5. c #D68300",
"6. c #DA8500",
"7. c #DD8A00",
"8. c #DD9400",
"9. c #C49201",
"0. c #E48D00",
"q. c #EB8802",
"w. c #E49300",
"e. c #EB9301",
"r. c #EA9C00",
"t. c #E39B00",
"y. c #F19600",
"u. c #F49B00",
"i. c #FC9E00",
"p. c #F99600",
"a. c #F4860D",
"s. c #C8A701",
"d. c #E8A800",
"f. c #FEA200",
"g. c #FEAB00",
"h. c #F4AA00",
"j. c #EBB600",
"k. c #F4B500",
"l. c #FEB300",
"z. c #FEBB00",
"x. c #F4BD00",
"c. c #C8AD32",
"v. c #C5C300",
"b. c #D7D100",
"n. c #FFC300",
"m. c #FECB00",
"M. c #F4C700",
"N. c #FED401",
"B. c #FEDB00",
"V. c #F4D500",
"C. c #F1CE04",
"Z. c #FEE300",
"A. c #FCEB00",
"S. c #FEF400",
"D. c #FFFE00",
"F. c #F7F500",
"G. c #E9EB00",
"H. c #FDD231",
"J. c #CCC437",
"K. c #84A74A",
"L. c #8DB848",
"P. c #8CB54A",
"I. c #92BC4E",
"U. c #89AE52",
"Y. c #83BE56",
"T. c #8BBD56",
"R. c #87BA55",
"E. c #95BD55",
"W. c #9EA343",
"Q. c #838A74",
"!. c #8A946F",
"~. c #B1A977",
"^. c #9CA462",
"/. c #D2AF6E",
"(. c #DEAC52",
"). c #95C24E",
"_. c #8CC156",
"`. c #8CC158",
"'. c #85C459",
"]. c #95C356",
"[. c #9AC457",
"{. c #9CCA55",
"}. c #95C458",
"|. c #9BC558",
" X c #9ECA5A",
".X c #94CB5C",
"XX c #9AD35D",
"oX c #A2CD5B",
"OX c #A0C757",
"+X c #A5D25D",
"@X c #A9D55D",
"#X c #ABDA5E",
"$X c #ABD960",
"%X c #FCD172",
"&X c #EBCC64",
"*X c #2B5788",
"=X c #315D8F",
"-X c #356697",
";X c #37628B",
":X c #386AA6",
">X c #3C73A9",
",X c #3E77B3",
"<X c #345AA7",
"1X c #417AB7",
"2X c #56708E",
"3X c #437FC5",
"4X c #EF738D",
"5X c #038FB5",
"6X c #379FB6",
"7X c #4481BD",
"8X c #00A7E4",
"9X c #04BCEC",
"0X c #02A9DA",
"qX c #4482C4",
"wX c #1BD7FF",
"eX c #03CAFC",
"rX c #32D3FC",
"tX c #6DECF7",
"yX c #61D3E0",
"uX c #62D9BB",
"iX c #979897",
"pX c #8E8D88",
"aX c #A39C95",
"sX c #B1A98F",
"dX c #9B98A7",
"fX c #A9A8A6",
"gX c #B8B6BA",
"hX c #ACAFB1",
"jX c #DDA896",
"kX c #F6D68A",
"lX c #FFEA92",
"zX c #FFE79B",
"xX c #F6ED95",
"cX c #F7DEAF",
"vX c #FFEBB7",
"bX c #FEEBA7",
"nX c #D9CBA2",
"mX c #BDBBC2",
"MX c #DBB8C3",
"NX c #AFF0F6",
"BX c #99D6EB",
"VX c #C9C9CC",
"CX c #D6D5DA",
"ZX c #D5CECC",
"AX c #F3D8CA",
"SX c #FFF4C3",
"DX c #FFF9D8",
"FX c #EFE6D3",
"GX c #DCDCE2",
"HX c #E2DFE8",
"JX c #E8E7E9",
"KX c #FEFEFE",
"LX c #F5F6F7",
"PX c #EDF0F3",
"IX c #DFE0DD",
"UX c #ADE4AB",
/* pixels */
"[.[.[.[.|.|.[.[.|.|.|.|.|.|.[.[.[.[.[.[.[.[.[.}.[.|.|.|.|.|.|.|.|.|.[.[.[.[.[.[.[.[.[.[.[.[.[.[.|.|.|.|.|.|.[.|.[.[.[.[.[.[.[.[.[.[.[.|.|.|.|.|.|.|.[.[.|.|.[.[.",
"[.[.[.[.[.|.[.|.|.|.|.|.|.|.[.[.[.[.[.}.[.[.[.[.[.[.|.[.[.Y.Y.|.[.|.[.[.[.[.[.[.[.[.[.[.[.[.[.[.|.|.|.|.|.|.|.[.[.[.[.[.[.[.[.[.}.|.[.|.|.|.|.|.|.|.[.|.T.Y.[.[.",
"[.[.[.[.[.|.|.|.[.|.OX|.[.|.[.[.[.[.[.[.[.[.[.[.|.[.|.}.#.R.Y.#._.|.[.[.[.[.[.[.[.[.[.[.[.[.[.[.|.|.|.|.|.|.[.|.[.[.}.[.[.[.[.}.|.|.|.|.|.|.|.|.|.[.[.#.Y.@.@.'.",
"].[.[.[.[.|.|.|.|.|._.[. X[.[.[.[.[.[.[.[.[.[.[.[.[.[.[.#.].[.Y._.{.oX+XoX{.E.[.[.[.[.[.[.[.[.[.|.|.|.|.|.|.|.[.[.[.[.[.[.[.[.[.|.|.|.|.|.[.|.|.|.[.[.@.].{.@._.",
"[.[.|.[.|.|.[.|.`.`.+.T.T.[.|.[.[.[.[.[.[.|.[.|.|.|.|.[.|.[.|.|.oXOXo.f j U.+X[.[.[.[.[.[.|.|.|.|.|.|.|.|.|.|.[.|.[.|.[.[.[.[.[.|.|.|.|.|.|.|.|.|.|.|.|.|.[.|.|.",
"|.[.[.|.|.|.[.OX@.#.].'.#.[.|.[.[.|.|.|.|.[.|.|.[. X|.|.[.[.|.oXU.= 4 8 8 3 K.oX[.[.[.[.[.|.|.|.|.|.|.|.|.|.|.|.[.|.[.[.[.|.|.[.|.|.|.|.|.|.|.|.|.|.|.|.|.|.[.|.",
"|.|.[.|.|.|.|.|.}.}.|.[.}.|.|.|.|.|.[.|.|.|.|.|.|.|.|.|.|.|.|.E.= ^ _ ) _ ` 6 E. X[.|.|.|.|.|.|.|.|.|.|.|.|.|.|.|.|.[.|.|.[.[.|.|.|.|.|.|.|.|.|.|.|.|.|.|.|.|.|.",
"|.|.|.|.|.|.|.|.|.|.[.[.|.|.|.|.|.|.|.|.|.|.|.|.|.|.|.|.[.[.+Xo.4 _ ) _ _ } ) s oX[.|.|.|.|.|.|.|.|.|.|.|.|.|.|.|.|.[.}.}.$.Y.}.|.|.|.|.|.|.|.|.|.|.|.|.|.|.|.|.",
"|.|.|.|.|.|.|.|.|.|.|.|.[.|.|.|.|.|.|.|.|.|.|.|.|.|.|.|. XE.oXK.3 ' ` _ _ _ } 4 o.XX[.[.[.|. X|.|.|.|.|.|.|.|.|.|.[.|.Y.@.T.Y.+.|.|.|.|.|.|.|.|.|.|.|.|.|.|.|.|.",
"|.|.|.[.|.|.|.|.|.|.|.|.|.|.|.|.[. X|.|.|.|.|.|.|.|.|.|.|.|.[.oXB 6 4 ) _ _ ` _ s @X[.|.[.|._.'.OX|.|.|.|.|.|.|.|.[.[.}.`.|.[.Y.|.|.|.|.|.|.|.|.|.|.|.|.|.|.|.|.",
"|.|.[. X|.|.|.|.|.|.|.|.|.|.|.|.|.[.[.|.|.|.|.[.|.|.|.|.|.|.|.[.+XE.h $ 9 ' _ } r E. X[.].@.'.@.@.}.|.|.|.|.|.|.|.|.[. X|.[.[.|.|.|.|.|.|.|.|.|.|.|.|.|.|.|.|.|.",
"[.[.[.[.[.[.|.|.|.|.|.|.|.|.|.[.[.[.[.[.[.[.[.[.[.|.|.|.|.|.|.|.E.}.@X3.3 e _ ` 9 K. XE.].+.].|.@.T.|.|.|.|.|.|.[.[.[.[.[.[.[.[.[.[.[.|.|.|.|.|.|.|.|.|.[.[.[.[.",
"|.|.|.|.|.[. X[.|.|. X[.|.|.|.|.[.|.|.|.[.[.|.[.|.|.|.|.|.[.[.+X$X@XE.E.d 4 ) _ 9 K.$X+X X}.[.|.[.[.[.|.|.|.|.|.[. X|.[.|.|.|.|.[.|.|.|.|.|.|.|.|.|.|.|.[.[.[.|.",
"[.[.[.[.|.|.|.|.|.[.[.[.|.|.|.[.[.[.[.|.|.{.Y.E.|.|.|.[.|.+XoX..f 0 * 7 O 5 ) } 4 & q  .E.@XoX}.[.[.|.|.|.|.|.|.[.[.[.[.[.[.[.[.[. X|.|.|.|.|.|.|.|.|.|.[.[.[.[.",
"[.[.|.|.[.[.@.[.|.|. X[.|.|.|.[.[.[.[.OX`.Y.#.Y.@.[.E.@X[.h = t K <.G.S.5.% 5 5 < 4.1.a * q ..$X X}.|.|.[.|.|.|.[.[.[.[.[.[.[.[.[.[.|.|.|.|.|.|.|.|.|.|.[.[.[.[.",
"[.[.[.|.@.@.@.Y.#.|.[.|.[.|.[.[.[.[.[.|.Y.@.}.}.$. X@X .# t v.D.D.D.D.D.D.C.1.s.C.Z.D.D.F.:.& q T.@X[.[.|. X[.[.[.[.[.[.[.[.[.[.}.|.|.|.|.|.|.|.|.|.|.|.[.[.[.[.",
"[.[.}.|.Y.T.OXT.Y.|.|.|.|.|.[.[.[.[.[.[.[.].[.].@XP.= t b.D.D.D.A.z.B.D.B.D.D.D.D.Z.B.D.D.D.D.;.% g @XOXT.}.OX[.[.[.[.[.[.[.[.[.[.|.[.|.|.|.|.|.|.[.[.[.[.[.[.[.",
"[.[.[.[.|.|.[.|.|.|.|.|.|.|.[.[.[.[.[.[.[.[.E.@Xo.X ;.D.A.B.D.N.g.z.D.N.g.S.D.D.D.D.B.D.D.D.A.D.F.t - `.*.Y._.[.[.[.[.[.[.[.[.[.[.[.|.|.|.[.[.[. X|. X[.[.[.[.[.",
"[.[.[.[.[.[.[.[.|.|.|.|.|.|.|.[.[.[.[.[.[.[.@Xj % b.D.z.m.S.z.g.g.Z.Z.g.l.S.D.D.D.D.Z.B.D.D.S.N.Z.D.:.= $..X+.}.[.[.[.].].[.[.[.[.|.[.|.|.|.|.}. XY.T.|.[.[.[.[.",
"[.[.[.[.[.[.|.|.|.|.[.|.|.|.|.[.[.[.[.[.].@Xd * D.S.f.l.D.l.g.g.h.S.l.l.l.B.D.D.D.D.F.z.m.n.m.D.n.m.D.<.X U.{.].[.[.[.[.[.[.[.[.[.|.|.[.|.|.|.}.@.@.Y.#.E.[.[.[.",
"[.[.[.[.[.[. X|.}.].+._.}.[.[.[.[.[.[.].@Xj < D.N.f.h.A.l.g.l.f.M.B.g.l.l.z.S.D.D.D.D.M.z.m.n.N.S.x.n.D.v.# U.+XE.[.[.[.[.[.[.[.[.[.[.[.|.[.|.}.@.|.[.#.}.|.[.[.",
"E.[.[.[.[.|.[.OX@.@.'.Y.+.[.[.[.[.[.[.@Xh & D.m.f.u.V.m.i.g.g.u.V.l.g.g.z.l.m.D.D.D.D.V.d.m.n.z.B.V.k.x.D.v.o E.{.].[.[.[.[.[.[.[.|.|. X[.[.|.|.|.|.|.|.[.[.[.[.",
"[.[.[.[.[.[.|.|.}.`.OX}.`.[.[.[.[.E.oXO.X G.N.i.i.d.N.i.g.g.g.d.m.g.g.l.z.z.z.m.Z.S.m.B.d.M.m.m.z.Z.d.z.z.D.;.= oX[.[.[.[.[.[.[.[.[.[.|.|.[.|.|.|.|.|.|.[.[.[.[.",
"[.[.[.[.|.|.|.|.|. X[.|.[.[.[.[.[.[. X# <.B.p.g.0.V.g.f.g.g.u.d.n.f.g.l.l.z.z.n.n.m.n.N.M.h.m.n.n.m.B.d.m.z.D.p s #XE.[.[.[.[.[.[.|.|.|.|.|.|.|.|.|.|.[.[.[.[.[.",
"|.[.[.|.|.|.|.|.|.|.|.|.[. X[.[.[.@Xf a S.i.g.y.d.n.i.g.f.g.e.j.l.g.g.l.l.z.z.n.m.m.n.n.M.d.m.n.n.z.B.j.h.m.n.D.* o.+X].[.[.[.[.[.|.[.[.|.[.|.|.|.|.|.|.[.[.[.[.",
"|.|.[.|.|.|.|.[.|.|.|.|.|.|.[.[.{.K.@ Z.g.i.f.6.M.g.i.g.g.g.w.k.g.g.g.l.l.z.z.n.m.n.n.n.m.t.n.n.n.n.z.M.7.z.l.B.v.#  X[.|.|.|.|.[.[. X[.|.|.|.|.|.|.|.|.|.|.[.|.",
"[.[.[.|.|.|.|.|.|.|.|.|.[.[.[.[.@X0 K Z.p.g.r.8.z.i.f.g.g.g.w.x.i.f.g.l.l.z.z.n.n.m.n.z.m.t.h.m.n.n.z.N.d.r.n.k.S.p f #X[.OX[.Y.[.|.[. X|.|.|.|.|.|.|.|.|.|.|.[.",
"|.|.|.|.[.|.|.|.|.|.|.|.[.[.[.{.U.* Z.f.f.f.6.d.g.i.i.f.g.u.8.z.i.g.g.g.l.z.z.n.n.m.n.z.n.d.t.m.n.z.z.n.x.6.z.z.z.V.= }.|.@.Y.+.Y.T.|.[.|.|.|.|.|.|.|.|.|.|.|.|.",
"[.[.[.[.[.[.|.|.|.|.|.|.|.|.[.@Xf p m.p.f.u.6.k.f.i.f.g.g.y.t.g.i.g.g.l.l.z.z.z.n.n.n.n.z.j.7.n.n.z.z.z.m.8.d.n.g.B.p f @X$._.|.@.Y.oX[.|.|.|.|.|.|.|.|.[.[.[.[.",
"|.|.|.|.|.|.[.[.|.|.|.|.|.|.}.+X6 s.g.i.f.0.7.g.i.f.f.f.g.e.w.g.i.g.g.g.l.l.z.z.z.n.z.z.z.k.7.z.n.z.z.z.n.d.0.l.z.z.b.= |.[.}.{.[.[.|.|.|.|.|.|.|.|.|.|.|.|.|.|.",
"|.|.|.OXT.`.OX[.|.|.|.|.|.|. XU.7 n.i.f.i.6.w.g.i.i.f.f.g.0.t.g.i.f.g.g.l.l.z.z.z.n.n.z.z.z.6.h.n.z.z.z.z.k.5.h.z.l.B.t  .+X[.|.|.|.|.|.|.|.[.Y.[. X}.|.|.|.|.|.",
"[.|.`.Y.@.Y.Y.}. X[.|.|.|.[.@XB i z.p.f.i.5.d.g.i.f.f.f.f.0.e.f.i.g.g.g.l.l.l.z.n.x.z.z.l.k.0.d.z.z.z.l.l.z.6.t.z.l.n.1.s +X[.[.[.[.[.[.OXY.Y.#.'.Y.|.[.[.[.[.[.",
"|.|.`.+.}.}.+.}. X|.|.|.|.[.$Xq K l.i.f.e.6.h.f.f.i.f.f.f.0.e.f.i.f.g.g.g.l.l.z.n.4.l.z.l.l.7.t.z.z.l.z.l.z.7.w.j.l.z.j.7 }.|.|.|.|.|.[. X#.`.[.Y.#.OX[.|.[.|.|.",
"|.|.[.[.|.|.[.[.[.|.|.|.|.|.XXw L g.i.f.e.6.u.f.i.f.i.f.f.6.r.f.i.f.f.g.g.l.g.N.a H t.z.l.z.w.w.z.z.l.l.l.z.t.8.P r.l.n.t K.oX|.|.|.|.|.|.|.|.OX|.[.|.[.|.|.|.|.",
"|.|.|.|.[.[.|.|.[.|.|.|.|.[.+X6 P g.i.f.0.7.u.f.f.i.i.f.u.6.e.f.f.f.g.g.g.l.z.,.  , T g.l.l.0.0.z.z.z.l.l.l.f.K : 8.k.n.i  .+XE.|.|.|.|.|.|.|.|.|.|.[.|.|.|.|.[.",
"|.|.[.[.|.|.[.[.|.|.|.|.[.[.#X0 H g.i.f.0.6.u.f.i.f.f.f.i.6.e.f.i.f.f.g.g.g.m.~.dXpXI 8.l.l.w.7.l.l.l.l.l.g.k.d + T g.n.K f @X|.|.|.|.|.|.|.|.|.|.|.|.|.|.|.[.[.",
"[.[.[.[.[.|.|.|.|.|.|.|.|.[.+Xq F g.i.i.0.6.y.f.f.i.f.f.i.6.e.f.i.f.i.g.g.g.%XNXKXKX/.T l.l.0.7.l.l.l.g.l.g.H.PXLXY w.n.L 0 +XE.[.|.|.|.|.|.|.|.|.|.|.|.[.[.[.[.",
"[.[.[.[.|.[.[.[.|.|.|.|.[.[.@Xg 1 i.i.f.e.5.e.f.i.f.f.i.i.6.0.f.f.i.f.g.f.N.tXrXKXKXNXJ w.l.0.7.g.l.l.l.g.l.UXNXKXnXT n.G 0 #X[.[.|.[.|.|.[.|.|.|.|.|.[.[.[.[.[.",
"[.[.[.[.|.|.|.[.|.[.[. X|.|.+X..& q.u.f.y.6.0.f.f.i.i.f.f.0.0.i.i.i.f.f.l.xXwXeXyXBXeX!.R g.0.7.l.l.g.l.g.H.wXtXKXyXP l.F w .X].|.|.|.|.|.[.|.|.|.|.|.|.[.[.[.[.",
"[.[.[.[.[.|.[.[.[.|.}.Y.|.|.[.oX= I e.i.i.6.0.i.i.f.f.i.f.0.6.g.f.g.i.g.,.Z tXrX5X5XeXA J w.0.7.g.l.g.g.g.&XwX0X7X9XU q.i g *.E.|.[.[.|.|.[.|.|.|.|.|.|.[.[.[.[.",
"[.[.[.[.[.[.[.[.OXY.Y.+.'.Y.[.+Xk , y.7.i.0.6.u.i.i.i.f.f.e.7.a.a.a.p.n.a . hXtXeXeX5X  1 T 7.7.g.g.g.g.j.= BXrX0X0X, R , o. X|.[.|.[.|.|.[.|.|.|.|.[.[.[.[.[.[.",
"[.[.[.[.[.[.[.[.|.@._.|.Y.Y.[.[. X= J e.0.e.5.0.g.l.f.i.f.y.E AXMX! E a.k.l.d.J.J.J.s.>.>.d.5.8.h.g.g.l.s.y ~.uXuXv , R & E. X|.[.[.|.|.|.[.|.|.|.[.[.[.[.[.[.[.",
"[.[.[.[.|.[.[.[.|.|.|.|.|.|.|.[.oX..X T e.5.0.5.h.m.n.f.f.f.E 4X4X! ! S R g.g.l.g.g.g.g.z.g.0.h.z.l.l.g.l.l.0.u.h.(.jXS Y [.E.|.[.|.|.|.|.|.|.|. X[.[.[.[.[.[.[.",
"[.[.}.[.[.[.[.[.|.|.|.|.|.|.|.[.].@X] O R e.5.6.0.l.m.f.i.f.5.D S S S D q.z.L & G u.g.k.G G F H I I P 8.f.w.4.4.R 4XjX! S E.|.[.[.|.[.|.|.[.|.|.|.[.[.[.[.[.[.[.",
"[.[.[.[.|.|.[.[.|.|.|.|.|.|.|.|.|.E.oX] O I e.7.5.0.u.i.f.f.u.7.a.q.q.p.f.f.j.X . P 7.,.              u p.i.K , e.D u Y W.{.[.[.|.|.|.|.|.[.|.[.|.|.[.[.|.[.[.[.",
"[.|.|.[.|.|.|.|.|.|.|.|.|.|.|.|.|.|.E.+XO.# 1 5.e.7.5.e.i.f.f.e.6.e.g.f.i.i.f.M.t         .   .   .   X O O i 8.0.> d XX.X|.[.|.|.|.|.|.|.|.|.|.}.[.#.`.}.[.|.[.",
"[.[.[.|.|.|.|.|.|.|.|.|.|.|.|.|.|.|.|.E.oX|.f % u T e.w.0.0.y.i.0.5.e.i.f.f.i.f.l.,.&                   X K e.I O s +X[.}.|.[.[.|.|.|.|.|.|.[.OXY.@.Y.Y.+.[.[.[.",
"|.|.|.|.|.|.|.|.|.|.|.|.|.|.|.|.|.|.|.|.|.|.+XE.f % : J R 0.e.e.w.7.6.7.y.u.i.u.i.g.d.>.L t % % % < K 9.r.T > o ..#X[.|.|.|.|.|.|.|.|.|.|.|.[.|.`.`.OX].Y.|.|.|.",
"|.|.[.[.[.[.|.|.|.|.|.|.|.|.|.|.[.[.[.[.[.[.].P.U.h r 6 & : u H T R e.e.q.e.u.y.y.e.q.y.i.g.h.d.r.7.P F & = h |.+X}.[.[.[.[.[.[.|.|.}.'.[.[.|.|.|.|.|.OX|.|.|.[.",
"|.[.|.|.|.|.|.|.|.[.|. X|.|.|.}.[.[.[.|.[.|.+Xs 3 ` [ =.[ $ z ; @ O & , 1 u F u F H F F 1 1 , > O % 3 f &.'.'.|.E.|.|.|.[.|.[.[.|.Y.Y.#.Y.Y.OX|.|.|.|.|.|.[.|.|.",
"|.|.|.|.|.|.|.}.}.#.T.}.[.|.|.|.|.|.|.[. X.XR.sXV ^ ( ` ` 9 :X| ( _ ) z z 4 4 5 . . 0 0 s f h  .O.E..X'.oXE.$.|. X|.|.|.|.|.|.|.|.@._.|.'.@.|.|.|.|.|.|. X[.|.|.",
"|.|.[.|.|.|. XY.#.Y.Y.+.|.|.|.[.[.[.[.OXT.^.nXSXvXB ^ ( / 5 <X| [ [ -.M -X` ` ^ f  .OX$X@X$X@XoXoX X|.|.|.|. X}.|.|.|.|.|.[.|.[.[.[.[.|.[.[.|.|.|.|.|.|.[.[.|.[.",
"[.[.[.|.[.[.|.E.`.|.[.Y.[.|.|.|.[.[.|.].!.FXvXkXkXk 8 ^ 4 r :Xv ( ( ( c 2X/ ^ B vXcX^._.[.].[.[.|.|.|.|.|.|.|.|.[.[.[.[.[.[.[.|.[.[.|.|.|.|.|.|.|.|.|.|.[.[.[.[.",
"|.|.|.|.|.|.|.|.OX[. X X[.|.|.|.|.[.oXK.ZXSXcX%Xc.l @ $ ^ e <Xe ( ( ( n ;X4 4 (.zXcXFX~.). X[.[.|.|.|.|.|.|.|.|.|.[. X|.|.|.|.|.|.|.|.|.|.|.|.[.|.|.|.|.|.|.|.|.",
"|.[.|.|.|.[.|.|.|.|.|.|.|.|.|.[.[.|.I.V aX~.%X&X3.] x ;Xc m 2Xc | M r -Xm 0 7 2.&XkXSXZX.. X[.[.|.|.|.|.|.|.|.|.[.|.[.[.[.[.|.|.|.[.[.|.|.|. X[.|.|.|.|.|.[.|.|.",
"[.|.[.[.|.[.|.|.|.|.|.|.|.|.|.|.[.[.X.HXPXCX!.3.U.P.c -X:XA A :X1X3X*XZ 0 P.K.k (.lXxXFX!.[. X[.|.|.|.|.|.|.|.|.[.[.[.[.[.|.|.T.|.|.|.|.|.|.|.|.|.|.|.|.[.[.[.[.",
"[.[.[.[.|.[.|.[.|.|.|.|.|.|.[.[.oX{ iXKXLXKXGXV +Xo.b =X>X-Xn m ;Xm m *Xm ).+XR.2.(.Q.aXZ P.oX[.|.|.|.|.|.|.|.[.[.[.}.[.[.Y.T.+.'.T.|.|.|.[.|.|.|.|. X[.[.[.[.[.",
"[.[.[.[.[.|.[.|.|.|.|.|.|.|.[.[.OXO.Q.sXfXJXgXo.#X] z ;X:X7X*X:XqX7X-X1X .+XE.{.V mXLXKXHXo.{.|.|.|.|.|.|.|.[.[.[.[.[.[.|.+.Y.}.@.Y.OX[.|.|.|.|.|.|.[.[.[.[.[.[.",
"[.[.[.[.|.|.|.[.|.|.|.|.|.|.|.|.E.Z ~.zX/.sXpX{ K.c 7X>X-X>Xn :X7X1X-Xm c P.oX].Q.JXPXPXKX!.E.OX|.|.|.|.|.|.|.[.[.[.[.[.[.].[.[.}.}.|.|.|.[.|.|.|.|.[.[.[.[.[.[.",
"[.[.[.[.|.[.[.|.|.|.|.|.|.|.|. XK.gXsXsXsXZXPX%.c qX7X>X*X-X*Xb m *Xm *X3Xc K.).B CXsX!.aXX.OX|.|.|.|.|.|.|.|.[.[.[.[.[.[.|.[.[.[.[.|.|.[.|.|.|.|.|.[.[.[.}.[.[.",
"[.[.].[.[.|.[.|.|.|.|.|.|.|.|.].!.KXKXJXGXIXCXCX,XqX,X>Xn x n n n b m 1X1X3Xc !.JXIX~.bXkXQ O.oX|.|.|.|.|.|.[.[.[.[.[.[.[.[.[.[.[.|.[.|.|.|.|.|.|.|.|.[.[.[.[.[.",
"[.[.[.[.|.[.|.|.|.|.|.|.|.|.|.E.%.GXIXJXLXaXB Z b ,X>X*Xc ] V ]  .- *X>X1X7Xn mXVXIXgXsXsXfX&.oX[.|.|.|.|.|.[.[.[.[.[.[.[.[.[.[.[.|.|.|.|.|.|.|.|.|.|.[.[.[.}.[.",
"[.[.[.[.[.{.[.}.|. X|.|.|.[.[.OX..C iXVXZXfX/.W W b -Xz ] #XoXoX$X..x -X:Xx d W N mXKXLXKXPXO.oX[.|.|.|.|.|.[.[.].[.[.[.[.[.[.[.[.|.[.|.|.|.|.|.|.|.|.|.[.[.[.[.",
"[.[.[.[.[.}._.+.].}.|.[.|.[.[.[.[.{ X.C Z HXl sXzXy z B oX].[.[.].@Xf b x (.sX/.sXVXIXIXPXVX .oX[.|.|.|.|.[.[.[.[.[.[.[.[.[.[.].[.|.[.|.|.|.|.|.|.|.|.[.[.[.[.[.",
"[.[.[.[.|.#.Y._.#.@.OX|.|.|.|.[.[.oX|.]...B pXSX%XU 0 [.OX|.|.|.[.|.OXw & %XcX2 VXgXpXhX2X!.W.|.|.|.|.|.|.|.|.|.[.[.[.[.[.[.[.[.[.|.[.|.|.|.|.|.|.|.|.|.|.[.[.[.",
"[.[.|.[.|.T.}.|.}.T.|.|.|.|.|.|.[.[.|.|.@X{ AXSX%X3. XOXE.OX|.|.|.[. XU.] (.bXgXC  . .V o.P.oX{.|.|.|.|.|.|.|.|.|.|.[.[.|.[.|.|.[.|.|.|.|.[.|.|.|.|.|.|.[.[.|.[.",
"[.[.[.[.|.|.|.[.|.|.|.|.|.|.|.|.|.|.|.[.{...MXvX(.] oXE.|.|.|.|.|.|.[.@X..c.cXDX!.).+XoXoXOX[.|.|.|.|.|.|.|.|.[.[.|.|.[.[.[.[.[.|.|.|.|.|.|.|.|.|.|.@.T.[.[.[.[.",
"[.[.[.|.|.[.|.[.|.}.|.|.|.|.|.|.|.|.|.[.{.!.DXbX(.] +XOX|.|.|.|.|.[.[.OXU.2.lXDXsXL.|.[.[.[.|.|.|.|.|.|.|.|.|.|.|.|.|.|. X[.|.|.|.|.|.|.|.|.[. XY.#.Y.Y.#.[.[.[.",
"[.|.|.|.|.|.|.|.|.|.|.|.|.|.|.|.[.E.[.oXP.V aX~.l &.}.}.|.|.|.|.|.|.|.|.[.U (.nX%.{ +X[.[.[.[.[.|.|.|.|.|.|.|.|.|.[.|.|.|.|.|.|.|.|.|.|.|.|.|.|._.'.OX].Y.|.|.|.",
"|.|.[.|.|.|.|.|.|.|.|.|.|.|.|.[.oX+X[.[.V CXHXPXhX .*.Y.OX|.|.|.|.|.[.|.I.C dXdXfX%.).+X+X|.[.[.[.[.|.|.|.|.|.|.|.|.[.|.[.[.|.|.[.|.|.|.|.|.|.|.|.|.[.|.|.|.|.|.",
"|.|.|.|.|.|.|.|.|.|.|.|.|.|.[.oXI.k V V - N C Q C K..X}.|.|.|.|.|.|.[.OXP.Q GXCXGXC s V ] ). X).|.|.|.|.|.|.|.|.|.|.|.|.|.|.|.|.[.|.OX|.|.|.|.|.|.|.|.|.[.|.|.|.",
"[.|.|.|.|.|.|.|.|.|.|.|.|.|. XP.N VXKXKXJXN o - -  .OX|.|.|.|.|.|.|.[.OXP.- - o o dXJXJXgXN $.'.[.[.|.|.|.|.|.|.[.|.|.[.|.|.|.|.|.|.}.|.|.|.|.|.|.|.|.|.[.[.|.|.",
"[.[.[.[.|.[.|.|.|.|.|.|.[. X|.g CXKXKXKXPXPXN o pXpXK.OX|.|.|.|.|.|.|.).X.iX- - gXLXKXKXKXHXf R.@._.|.[.|.|.|.|.[.[.[.[.[.[.[.|.}.].+.T.].|.[.|.|.|.|.|.[.[.[.|.",
"|.|.|.|.|.|.|.|.|.|.|.|.|.}.{ iXKXLXKXLXPXJXVX- - N K.oX|.|.|.|.|.|.|.E.C A + iXLXPXLXKXKXKXgX] .XT.{.[.|.|.|.|.|.|.|.|.[.[.[.|.@.@.`.Y.+.|.[.|.|.|.|.|.|.|..X|.",
"[.[.|.[.|.|.|.|.|.|. XT.Y.*.h Z fXiXiXiXpXpXiXN o o X.oX|.|.|.|.|.[.|.E.+   o iXiXfXfXfXhXhXiXg oX[.[.[.|.|.|.|.[.[.[.[.[.[.[.[._.}.|.}.}.|.|.|.|.|.|.|.[.|.[.[.",
"[.[.[.[.|.|.|.|.|.|. XT.#.oXf dXCXVXmXmXmXmXgXVXZXdXk oXE.|.|.|.|.[.+X..Z gXmXgXgXhXgXgXgXVXhXN ]. X|.|.|.|.|.|.[.[.[.[.[.[.[.[.|.|.[.|.|.|.|.|.|.|.|.|.[.[.[.[.",
"[.[.[.[.[.|.|.[.|.|.|.[.}.oXo.V %.X.X.X.X.X.V X.X.B ..OX[.|.|.|.|.[.oXO.B Q.Q.Q.Q.Q.Q.Q.Q.iX%.g [.|.|.|.|.|.[.[.[.[.[.[.[.[.[.[.[.[.|.|.[.[.|.|.|.|.|.|.|.|.[.[.",
"[.[.[.[.[.|.[.|.|.|.|.|.[.[. X{.[.).{.{.[.[.{.{.{.OXoX[.|.|.|.|.|.|.[. XE.L.L.L.L.L.L.L.P.P.L.{.|.[.|.|.|.|.|.[.[.[.[.[.[.[.[.[.[.|.[.|.|.|.|.|.|.|.|.|.|.[.[.[.",
"[.[.[.[.|.|.[.[.|.|.|.|.[.|.[.[.[.[.[.[.[.[.[.[.[.[.|.|.|.|.|.|.[.[.[.[.[.|.|.|.|.|.{. X|. X|.[.|.|.|.|.|.|.|.[.[.[.[.[.}.[.[.[.[.[.[.|.|.[.|.|.|.|.|.|.[.[.}.[.",
"[.[.[.[.[.|.[.|.|.|.|.|.[.[.[.[.[.[.[.[.[.[.[.[.[.[.|.|.[.|.|.|.[.[.[.[.[.[.[.[.|.[.[.[.[.[.[.[.|.|.|.|.|.|.[.[.[.[.[.[.[.[.[.[.[.[.|.|.|.[.|.|.|.|.|.|.[.[.[.[."
};
