/* XPM */
static char *New_Project__9__resized[] = {
/* columns rows colors chars-per-pixel */
"80 80 256 2 ",
"   c #010100",
".  c #070500",
"X  c #191A06",
"o  c #121513",
"O  c #291A00",
"+  c #371B00",
"@  c #20181B",
"#  c #19240A",
"$  c #143110",
"%  c #292606",
"&  c #382604",
"*  c #363804",
"=  c #252C13",
"-  c #293719",
";  c #24390A",
":  c #2F2D2C",
">  c #182B23",
",  c #452A01",
"<  c #583300",
"1  c #4A3100",
"2  c #653A01",
"3  c #461E00",
"4  c #0F4E12",
"5  c #2F4917",
"6  c #176E10",
"7  c #3B5527",
"8  c #324B2A",
"9  c #2A7731",
"0  c #1C6B1F",
"q  c #514F03",
"w  c #6A4900",
"e  c #6F4F00",
"r  c #686600",
"t  c #766700",
"y  c #485C35",
"u  c #445529",
"i  c #556B37",
"p  c #58783B",
"a  c #4C652F",
"s  c #6F702D",
"d  c #64583E",
"f  c #1A3452",
"g  c #17355A",
"h  c #355058",
"j  c #0E4E72",
"k  c #264D75",
"l  c #29537A",
"z  c #2B4F68",
"x  c #376869",
"c  c #2C6B4D",
"v  c #52544B",
"b  c #5E6E46",
"n  c #6B7859",
"m  c #697150",
"M  c #495865",
"N  c #6F716B",
"B  c #566361",
"V  c #CB361D",
"C  c #8A4C00",
"Z  c #885401",
"A  c #945906",
"S  c #A85D00",
"D  c #907101",
"F  c #B86C01",
"G  c #BC7702",
"H  c #AD6A04",
"J  c #9D772D",
"K  c #CC520B",
"L  c #CD7C00",
"P  c #C37400",
"I  c #CA7305",
"U  c #EC7A0B",
"Y  c #D34E2B",
"T  c #E8535C",
"R  c #B95856",
"E  c #188A16",
"W  c #248C0F",
"Q  c #2CAC15",
"!  c #1C8F23",
"~  c #279927",
"^  c #268824",
"/  c #2AA92A",
"(  c #35B729",
")  c #56823F",
"_  c #68863A",
"`  c #74913A",
"'  c #52B033",
"]  c #37CB2F",
"[  c #49C434",
"{  c #6B8747",
"}  c #769746",
"|  c #738655",
" . c #708E49",
".. c #7BA449",
"X. c #74B956",
"o. c #7CBB56",
"O. c #77BA58",
"+. c #72B452",
"@. c #778669",
"#. c #5B9C44",
"$. c #7AC25A",
"%. c #3C8757",
"&. c #8A8700",
"*. c #9E8700",
"=. c #B08B09",
"-. c #A3A300",
";. c #B8B700",
":. c #BBAE00",
">. c #B09039",
",. c #99983A",
"<. c #D68300",
"1. c #DA8500",
"2. c #DD8900",
"3. c #D48E00",
"4. c #DB9700",
"5. c #C69300",
"6. c #E28C00",
"7. c #E78A00",
"8. c #E49300",
"9. c #EB9300",
"0. c #E39A00",
"q. c #EB9C00",
"w. c #F29500",
"e. c #F59B00",
"r. c #FC9D00",
"t. c #FA9401",
"y. c #F88400",
"u. c #D1B000",
"i. c #EDA400",
"p. c #ECAA00",
"a. c #E4A400",
"s. c #FEA200",
"d. c #FEAC00",
"f. c #F3A700",
"g. c #EBB500",
"h. c #FEB300",
"j. c #FEBC00",
"k. c #F6B500",
"l. c #E2B616",
"z. c #E58A2D",
"x. c #C7C500",
"c. c #D2D000",
"v. c #FFC300",
"b. c #FECB00",
"n. c #F2C700",
"m. c #FFD400",
"M. c #FEDB00",
"N. c #F6D900",
"B. c #EFCF06",
"V. c #FDE300",
"C. c #FDEB00",
"Z. c #FEF300",
"A. c #FFFE01",
"S. c #F4F700",
"D. c #E2CF32",
"F. c #8B9156",
"G. c #AD9256",
"H. c #84A947",
"J. c #8FBA4A",
"K. c #8CB44A",
"L. c #92BC4D",
"P. c #83BE56",
"I. c #8BBD55",
"U. c #87BA56",
"Y. c #93BB54",
"T. c #89AA4F",
"R. c #889376",
"E. c #898F6E",
"W. c #98AE73",
"Q. c #B4A975",
"!. c #A9956D",
"~. c #D4A951",
"^. c #DFB35F",
"/. c #8CC156",
"(. c #8CC158",
"). c #85C359",
"_. c #95C356",
"`. c #9AC457",
"'. c #9CCA55",
"]. c #95C358",
"[. c #9BC558",
"{. c #9DCA5A",
"}. c #93CA5C",
"|. c #96C650",
" X c #A2CD5B",
".X c #A0C857",
"XX c #A5D15D",
"oX c #A9D55D",
"OX c #A7D65A",
"+X c #A8D561",
"@X c #B4E463",
"#X c #F9CC6D",
"$X c #F1CF62",
"%X c #355E87",
"&X c #2F5B8F",
"*X c #366898",
"=X c #346391",
"-X c #3769A6",
";X c #3C73A9",
":X c #3E7CB8",
">X c #417BB6",
",X c #506D8D",
"<X c #447DC0",
"1X c #847C83",
"2X c #1F9CBC",
"3X c #0097D1",
"4X c #07A7D6",
"5X c #03BAEC",
"6X c #2BBCD9",
"7X c #4482C7",
"8X c #49ADC4",
"9X c #00CAFE",
"0X c #00D2FF",
"qX c #1AD5FF",
"wX c #31D6D4",
"eX c #4DD5F3",
"rX c #4BE7FF",
"tX c #62D8D8",
"yX c #979695",
"uX c #8D8D8E",
"iX c #A69B8A",
"pX c #9AA18F",
"aX c #AAA98D",
"sX c #A7A6A8",
"dX c #B8B6B9",
"fX c #AFAFB0",
"gX c #9D97A5",
"hX c #C2BBB0",
"jX c #ECA8A3",
"kX c #B6CEA2",
"lX c #FEDB84",
"zX c #EDD498",
"xX c #FFE697",
"cX c #E4EC99",
"vX c #D0C7B7",
"bX c #FFF3B5",
"nX c #FFEBAB",
"mX c #E0CC9C",
"MX c #C1BEC6",
"NX c #F8ADC4",
"BX c #96F6FF",
"VX c #B4E7E4",
"CX c #C7C7CA",
"ZX c #D7D8DA",
"AX c #D0CED4",
"SX c #FFF9C6",
"DX c #FFF4DA",
"FX c #FBEACD",
"GX c #DDDCE3",
"HX c #E1DEE5",
"JX c #E7E6EA",
"KX c #F4FBFC",
"LX c #FEFEFE",
"PX c #F5F4F7",
"IX c #F2ECF2",
"UX c #E0DCDF",
/* pixels */
"`.`.`.`.`.[.`.`.[.[.[.[.[.[.`.`.`.`.`.`.`.`.`.`.`.`.`.`.[.[.[.[.[.[.`.`.`.`.`.`.`.].`.`.`.`.[.[.[.[.[.[.[.[.[.`.`.`.`.`.`.`.].`.`.`.`.{.`.`.[.[.[.[.`.`.[.[.`.`.",
"`.`.`.`.[.[.[.`.[.[.[.[.[.[.`.`.`.`.`.`.`.`.`.`.`.`.`.`.`.I.P.[.`.[.`.`.`.`.`.`.`.`.`.`.`.`.`.[.[.[.[.[.[.[.`.[.`.].`.`.`.`.`.`.].[.`.[.[.[.[.[.[.[.`.[.I.P.[.`.",
"`.`.`.`.[.`.[.[.`.[..X[.`.[.`.`.`.`.`.`.`.`.`.`.`.`.[.].X.P.P.o.).[.`.`.Y.`.`.`.`.`.`.`.`.`.`.[.[.[.[.[.[.[.[.`.`.`.`.`.`.`.`.`.`.[.[.[.[.[.[.[.`.[.`.O.P.o.o.).",
"_.`.`.`.`.[.[.[.[.[./.`.[.[.`.`.`.`.`.`._.`.`.`.[.`.`.`.O.].`.o._.XX X`.XX`.`.`.`.`.`.`.`.[.`.[.[.[.[.[.[.[.`.[.`.`.`.`.`.`.`.`.`.[.[.[.[.`.[.[.[.`.`.O._.`.P./.",
"`.`.[.[.[.[.`.[.(.(.+.).I.[.[.`.`.`.`.[.[.`.`.[.{.`.[.[.[.`.].[.{._ 7 5 a `.`.`.`.`.`.`.`.[.`.`.[.[.[.[.[.[.[.`.`.[.[.`.`.`.`.`.[.[.[.[.[.[.[.[.[.[.`.{.[.`.[.`.",
"[.`.`.[.[.[.`..Xo.o.].).O.[.[.`.`.[.[.`.`.[.[.`.[.`.[.[.`.`.{.Y.8 4 ! ^ 6 7 {.`.`.`.`.`.`.[.[.`.[.[.[.[.[.[.[.[.[.`.[.`.`.`.`.`.[.[.[.[.[.[.[.[.[.[.[.[.[.`.`.`.",
"[.[.`.[.[.[.`.[.].].[.`.].[.[.[.`.[.[.[.[.[.[.[.[.[.[.[.`.`.XXa 4 / ~ ~ ] E a  X`.`.`.[.[.[.`.{.[.[.[.[.[.[.[.[.[.[.`.[.[.].`.{.[.[.[.[.[.[.[.[.[.[.[.[.[.[.[.`.",
"[.[.[.[.[.[.[.[.[.{.`.`.[.[.[.[.[.[.[.[.[.[.[.[.[.[.[.[.{.`.[.5 ~ ~ ~ / / ] 0 } XX`.[.[.[.[.`.`.[.[.[.[.[.[.[.[.[.`.[._._.X.U.].[.[.[.[.[.[.[.[.[.[.[.[.[.[.[.[.",
"[.`.`.`.[.[.[.[.[.[.[.[.[.[.[.[.[.[.[.[.[.[.[.[.`.`.[.[.`.`.XXu 4 / ( ~ / ( / 8 }.[.[.[.`.`.[.`.[.[.[.[.[.[.[.[.[.`..XP.O.I.P.X.[.[.[.[.[.[.[.[.[.[.[.[.[.[.[.[.",
"[.`.{.`.[.[.[.[.[.[.[.[.[.[.[.[.[.[.[.[.[.[.[.[.`.{.[.[.`.`.{.Y.i 4 4 ^ ~ / ] 6 } OX`.[.`.'./.(.[.[.[.[.[.[.[.[.[.`.[.].(.[.].I.{.[.[.[.[.[.[.[.[.[.[.[.[.[.[.[.",
"[.[.`.{.[.[.[.[.[.[.[.[.[.[.[.[.`.[.[.[.`.[.[.[.[.[.[.[.[.[.`.[.XXY.a 4 9 / ] ! i  X].'.].o.P.o.P.I.[.`.[.[.[.[.[.[.`.[.`.`.`.{.`.[.[.[.[.[.[.[.[.[.[.[.[.[.[.[.",
"`.`.`.`.`.`.`.[.[.[.[.[.[.[.[.[.`.`.`.`.`.`.`.`.`.`.[.`.[.[.`.`._.{.@Xs 4 ! / ~ a oX_.`._.O.].`.o.(.{.[.[.[.[.[.`.`.`.`.`.`.`.`.].`.`.[.[.[.[.[.[.[.[.`.`.`.`.`.",
"[.[.[.[.`.`.{.`.[.[.[.[.[.[.[.[.[.[.[.[.[.[.[.`.`.[.[.[.].`. X+X XT. .) $ 0 / / 7 I. X+X X`.`.[.[.[.`.[.`.[.[.[.`.`.`.{.`.`.`.[.[.[.[.[.[.[.[.[.[.[.[.[.`.`.{.`.",
"`.`.[.`.`.`.`.[.[.[.[.[.[.[.[.`.`.`.`.[.[.[.P._.{.[.`.`.XXXX..a - * q w ; 0 ~ ! O * - a ..XXXX`.[.[.[.[.`.{.[.[.`.`.`.`.`.`.`.`.[.[.[.[.[.[.[.[.[.[.[.[.`.`.`.`.",
"`.`.`.[.`.`.o.].`.[.[.[.[.[.[.`.`.`.[.[./.P.O.P.o.Y. XXX{ - * &.x.S.A.V.D ; ; ; P N.c.&.* -  .XX X`.[.[.`.`.[.[.`.[.`.`.`.`.`.`.[.[.[.[.[.[.[.[.[.[.[.[.`.`.`.`.",
"`.`.`.[.o.P.o.P.o.[.`.[.[.`.[.`.`.`.`..XP.o.`.(.O.+XT.- * :.A.A.A.Z.Z.A.A.V.N.C.Z.C.A.A.A.;.q - ..oX`.`.[.{.`.`.`.`.`.`.`.`.`.`.`.[.[.[.[.[.[.[.[.[.[.[.`.`.`.`.",
"`.`.].[.P.I..XI.P.[.`.[.[.`.`.`.`.`.`.`.`.[.`.[. Xa % -.A.A.A.Z.v.j.A.C.b.A.A.A.A.m.Z.A.A.A.A.;.& y XX{.(.].{.`.`.`.`.`.`.`.`.`.`.[.`.[.[.[.{.`.[.{.`.`._.`.`.`.",
"`.`.`.`.[.[.[.[..X[.`.[.[.`.`.`.`.`.`.`.`.Y..X`.- q S.A.b.Z.V.h.s.C.Z.d.b.A.A.A.A.Z.M.A.A.A.M.A.A.r - U.$.o.(.`.`.`.`.`.`.].`.`.`.`.[.[.[.`.`.`.`.[.{.`.`.`.`.`.",
"`.`.`.`.`.`.[.[.[.[.[.[.`.[.[.`.`.`.`.`.`. XJ.# &.A.M.d.Z.M.s.d.j.A.j.d.b.A.A.A.A.A.b.M.Z.V.Z.b.M.A.-.X .. X+.`.`.`.`.`.`.`.`.`.`.[.`.[.[.[.[.].[.P.I.[.`.`.`.`.",
"`.`.`.`.`.`.[.[.[.[.`.[.[.[.[.`.`.`.`._. XK.o -.A.j.r.C.M.s.h.s.N.M.s.j.h.C.A.A.A.A.C.k.b.j.b.A.v.n.A.x.# ..{.].`.`.`.`.`.`.`.`.`.[.[.[.[.[.[.].o.o.P.O._.`.`.`.",
"`.`.`.`.`.`.`.[.]._.X.)._.`.`.`.`.`.].{.Y.# -.A.d.e.n.V.r.d.h.f.N.j.d.h.h.b.A.A.A.A.A.g.v.b.j.m.V.k.v.A.c.X T. X_.`.`.`.`.`.`._.`.[.`.[.[.`.[.].o.[.`.O.`.`.`.`.",
"`.`.`.`.`.[.[..Xo.o.(.).X.`.`.`.`.`.`.XX= &.A.f.s.f.C.s.s.d.d.p.m.s.h.h.h.j.b.A.A.A.V.n.k.b.b.j.M.B.k.j.A.x.# Y.[.`.`.`.`.`.`.`.`.`.[.[.[.`.`.[.[.[.[.[.`.`.`.`.",
"`.`.`.`.[.[.[.[.].(..X].I.`.`.`.`.Y.OX7 r A.f.s.9.B.j.s.d.d.e.g.v.s.d.h.j.j.j.b.M.M.v.N.a.b.b.v.v.V.p.j.j.A.-.-  X`.`.`.`.`.`.`.`.`.`.{.`.[.[.[.[.[.[.[.`.`.`.`.",
"`.`.`.`.[.[.[.[.[.[.`.[.[.`.`.`.`. X} % Z.h.s.r.a.m.r.s.d.h.9.n.h.d.d.h.h.j.v.v.v.b.v.m.a.j.b.b.v.b.B.q.b.k.A.r y oXY.`.`.`.`.`.`.`.`.[.[.`.[.[.[.[.[.[.`.`.`.`.",
"`.`.`.`.[.[.[.`.[.[.[.[.[.[.`.`.`.{.= ;.m.t.d.7.n.d.s.s.d.d.8.n.s.d.d.h.j.j.v.v.b.b.v.b.g.i.b.v.v.j.m.a.f.v.j.A.* } XX`.`.`.`.`.`.`.`.`.[.[.[.[.[.[.[.[.`.`.`.`.",
"`.`.`.`.[.[.[.`.[.[.[.[.[.[.[.`.oXi r Z.t.d.w.4.b.r.d.s.d.s.4.j.r.d.d.h.h.j.v.v.v.b.v.v.n.8.v.v.v.v.v.n.6.v.j.m.x.= {.].`.`.[.[.`.`.{.`.[.[.[.[.[.[.[.[.[.[.`.[.",
"[.`.`.[.[.[.[.[.[.[.[.[.[.[.`.`.].# c.d.r.s.1.g.h.s.s.s.d.e.0.h.r.d.d.h.h.j.j.v.v.v.v.j.b.4.k.b.v.j.j.m.4.i.v.h.C.r i +X`.[._.P.`.`.[.[.[.[.[.[.[.[.[.[.[.[.`.`.",
"[.`.[.[.[.[.[.[.[.[.[.[.[.`.`.OXb r M.t.s.e.2.k.s.s.s.s.d.9.a.d.s.d.d.d.h.j.j.v.v.v.v.j.v.0.f.v.j.v.j.v.g.2.j.j.v.B.; ].[.o.P.O.P.I..X[.[.[.[.[.[.[.[.[.[.[.[.[.",
"`.`.`.`.`.`.`.[.[.[.[.[.[.[.[.XX- :.h.r.s.7.8.h.r.s.s.d.d.6.p.s.s.s.d.d.h.j.j.v.v.v.v.j.v.a.q.v.v.j.j.j.n.2.f.v.h.V.r p OX+./.[.o.P..X[.[.[.[.[.[.[.[.[.`.`.`.`.",
"[.[.{.`.[.`.`.`.[.[.[.[.[.[. XU.* b.r.s.r.1.a.d.r.r.s.s.s.6.i.s.s.d.d.h.h.h.j.j.j.v.j.j.j.p.2.v.j.j.j.j.v.0.6.j.j.b.u.-  X`.`.[.`.`.[.[.[.[.[.[.[.[.[.[.{.[.`.`.",
"[.[.[..XI.(..X`.[.[.[.[.[.].+Xb r v.r.s.r.<.i.s.r.s.s.s.s.2.i.s.s.s.d.d.h.h.j.j.j.v.j.j.j.f.1.k.j.j.j.h.j.p.<.k.j.d.M.q }  X[.[.[.[.[.[.[.[.`.P.`.[.[.[.[.[.[.[.",
"`.[.(.P.o.P.P.].[.[.[.[.[.`.oX7 *.h.e.s.9.1.f.s.s.r.s.s.s.1.i.s.s.d.d.d.h.h.h.j.b.p.j.j.j.k.2.f.v.j.j.h.h.k.<.q.v.h.b.D y OX`.`.`.[.[.[.[.).P.O.).P.[.`.`.`.`.`.",
"[.[./.X.]._.X.].[.[.[.[.[.`.+X5 5.d.r.s.8.1.s.r.r.s.s.s.e.2.s.r.s.s.s.d.h.h.h.v.5.P j.j.h.h.2.i.j.j.j.h.h.k.2.q.4.k.j.u.- {.].[.[.[.[.`.[.o.).`.P.o..X`.[.[.[.`.",
"[.[.`.`.[.[.`.`.[.[.[.[.[.[.[.; 4.s.r.s.2.1.s.s.s.s.s.s.e.<.e.s.s.s.d.d.d.h.v.u.X H i.j.h.h.2.q.j.h.h.h.h.k.e.*.A f.h.v.q T.{.[.[.[.[.[.[.[.[..X[.`.`.[.[.[.[.[.",
"[.[.[.[.[.[.`.`.[.[.[.[.[.[.`.- 8.s.r.s.6.2.r.s.r.s.s.s.e.<.e.s.r.s.s.d.h.d.v.r   2 L d.h.h.2.8.j.j.h.h.h.d.p.X , 7.d.j.q } XX[.[.[.[.[.[.[.[.[.[.[.[.[.`.`.`.`.",
"[.[.`.`.[.[.[.`.[.[.[.[.[.[..X- <.s.s.s.2.1.e.s.s.r.s.s.e.<.w.s.s.s.s.d.d.d.D.ZXIXhXF 8.h.d.6.8.h.h.h.h.h.h.l.uX@.I d.j.e b XX].[.[.[.[.[.[.[.[.[.[.[.[.`.`.`.`.",
"[.`.`.`.`.[.[.`.[.[.[.[.[.`. X- F s.s.s.6.1.e.r.r.s.r.s.e.<.9.s.s.s.s.d.s.b.VXBXLXLX^.F h.d.2.8.h.h.h.h.d.h.cXKXLX>.8.v.w p XX_.`.[.`.[.[.`.[.[.[.[.[.[.[.`.`.`.",
"`.`.`.`.`.[.`.[.[.[.[.[.[.`.+Xu Z s.r.s.7.<.e.s.s.r.s.s.r.1.9.s.r.s.s.s.d.$XqXeXLXLXeXH 9.h.6.2.h.h.d.h.s.b.rXVXLXpXL j.2 p XX_.`.[.`.[.[.[.[.[.[.[.[.`.`.`.`.`.",
"`.`.`.`.[.[.[.[.[.[.`.[.[.[. X_ < 9.e.s.9.<.9.s.s.r.r.s.e.2.9.s.r.s.s.s.j.kX0X9X8X8X9XG.I d.2.6.h.h.d.d.d.$X0XtXVX6XG r.< ) }._.[.[.[.[.[.`.[.[.[.[.[.`.`.`.`.`.",
"`.`.`.`.[.[.[.[.[.[.].P.[.[.[.Y.% L 9.s.e.1.7.s.r.s.r.s.r.6.2.d.s.s.r.j.t z BXeX3X3X5X> S 6.6.6.d.d.d.h.f.@.rX4X3X4XA 6.&  .$._.[.[.`.[.[.`.[.[.[.[.[.[.`.`.`.`.",
"`.`.`.`.`.`.`.`.{.P.P.o.P.P.`.oXu w 9.6.r.7.1.e.s.r.r.s.s.7.2.z.z.U t.j.q 1 kXtXwXwXc O Z 4.1.8.h.d.d.h.*.o VXqX9Xj & G % U._.`.`.[.`.[.[.[.[.[.[.[.[.`.`.`.`.`.",
"`.`.`.`.`.`.`.`.[.o.).[.P.P.`.[.Y.O G 6.6.7.1.9.d.j.s.r.s.9.T IXNXT Y U h.h.h.h.j.h.d.k.k.f.1.0.d.d.s.d.g.5.:.~.D.=.Y K s }.`.`.`.[.`.[.[.[.[.[.[.[.[.`.`.`.`.`.",
"`.`._.`.`.[.`.`.{.`.[.[.[.[.[.`.+X .O 1.6.1.1.1.f.m.v.r.s.e.Y T T T T V 7.s.9.q.q.s.d.s.d.9.1.e.h.d.h.d.d.9.7.r.7.NXNXY Y `.`.`.`.`.[.[.`.[.[.[.[.[.`.`._.`.`.`.",
"`.`.`.`.`.`.`.`.[.[.[.`.[.[.[.`.Y.+Xp + <.9.1.1.6.h.v.r.r.s.6.K Y V V K w.j.D   2 s.j.g.& O O & & 1 1 G s.e.D Z L Y T V J {.Y.`.`.[.[.[.[.`.[.[.[.`.`.`.`.`.`.`.",
"`.`.`.`.[.[.`.`.[.[.[.[.[.[.[.`.[.Y.oXp O H 9.6.<.1.r.s.s.s.e.2.7.y.e.s.s.r.j.q . e A t               w G G r Z e.C , K.'.[.`.`.[.[.[.[.[.[.[.[.[.`.{.`.`.`.`.`.",
"`.[.`.`.[.[.{.[.`.[.[.[.[.[.[.[.[.`.`.+X} = 2 L w.6.<.7.e.s.s.9.1.9.s.r.s.r.r.j.t         .     . .       O G e.C o T.XX[.[.[.`.[.[.[.[.[.[.[.[.`.`.O.).`.`.`.`.",
"`.`.`.`.[.[.`.`.[.[.[.[.[.[.[.[.[.[.`.`. X[.a % 2 P 9.9.6.6.9.t.7.1.7.r.s.s.s.r.j.a.t * .           . & A q.P , - I.XX_.[.`.`.`.[.[.[.[.[.[.`.'.).o.P.P.X.`.`.`.",
"[.[.`.{.[.[.[.[.[.[.`.[.[.[.[.[.[.[.[.[.`.[.+XY.i % , C F 6.9.7.9.6.2.2.9.w.e.e.w.w.i.0.5.*.D D D =.4.4.H < # p  X[.].[.[.[.[.[.[.[.[.[.[.[.`.`./.U..X`.P.[.[.[.",
"[.[.`.`.[.`.[.[.[.[.[.[.[.[.[.[.`.`.`.`.`.`.Y.H.} p 9 8 = + < e S F L 6.6.7.9.e.9.9.8.7.w.w.7.L F Z 2 & $ b }.OX].`.`.`.`.`.`.`.[.[.`.o.`.{.[.[.[..X[.[.[.[.[.[.",
"[.`.`.[.`.[.[.[.{.Y.].[.[.[.[.[.[.[.`.[.`.[.Y.u 4 ( [ [ ' 4 k > $ $ % O , 1 < < 2 2 < 1 1 & & = - u b +.).}.$._.`.`.`.`.{.`.`.`..Xo.P.o.P.P.[.[.[.[.[.[.`.[.[.[.",
"[.[.[.[.[.[.{.].].O.P.].`.[.[.[.[.[.[.[.{.'.W.vXF.6 Q ( ( 0 -X%.] ( ( z l E ^ E 4 o {  .} T.U.[.XXOX}.$.`._.o.`.{.`.`.`.[.[.`.`.[.o.I.'.).o.[.[.[.[.[.[.[.[.[.[.",
"`.[.[.[.[.[.{.P.O.I.(.X.[.[.[.[.[.[.[.[.U.W.cXbXbXi E Q W 4 -Xc Q [ ( z ,XQ Q 6 | E.`.+X X{. X[.}._.`.|.{.[.`.[.`.`.`.`.[.[.`.`.`.`.`.[.`.`.[.[.[.[.[.[.[.`.[.`.",
"[.`.`.[.`.`.[.Y.(.[.`.).`.[.[.`.`.`.`.L.R.DXbXlX#Xs 6 6 6 5 -X9 Q Q Q h %XW 6 F.SXFXQ.|.[.`.`.`.[.[.[.[.[.[.`.[.`.`.`.`.`.[.`.`.[.`.[.[.[.[.[.[.[.[.[.[.[.[.`.`.",
"[.[.[.[.[.[.[.[..X`.`.{.`.[.[.[.`.`.XX..vXFXnX#X>.u $ 4 W c -X9 Q Q W k %X4 5 ~.#XxXSXaXI. X[.[.[.[.[.[.[.[.[.[.[.[.[.[.[.[.[.[.[.[.[.[.[.[.[.[.[.[.[.[.[.[.[.[.",
"[.[.[.[.[.`.[.[.[.[.[.[.[.[.[.[.`.{.U.m gX!.^.$X,.H.h *Xl h ,Xx x x h x z a 5 J $XnXSXUX..{.`.[.[.[.[.[.[.[.[.[.[.[.`.`.`.`.[.{.[.[.[.[.[.[.[.[.[.[.[.[.[.[.[.[.",
"`.`.`.`.`.[.[.[.[.[.[.[.[.[.[.`.`.`.| JXLXJXiXs U.T.f =X*XM M -X7X<X&XN 8 Y.[.F.D.#XzXvXF.{.`.[.[.[.[.[.[.[.[.[.`.`.`.`.`.[.].(.[.[.`.[.[.[.[.[.[.[.[.[.[.[.`.`.",
"`.`.`.`.`.`.`.[.[.[.[.[.[.[.[.`.[.K.pXLXKXLXJXn OX} k &X>X*Xk l ;X*X%X*Xx |..XU.J E.fXdXn L.{.`.[.[.[.[.[.[.[.`.`.`.`.`.`.).P.X.).I.[.[.[.[.[.[.[.[.[.`.`.].`.`.",
"`.`.`.`.[.[.[.`.[.[.[.[.[.[.`.`.'.H.E.iXpXAXdX{ OXp g *X-X>Xl >X7X<X*X-Xp OX[.L.n JXLXLXJX| {.`.[.[.[.[.[.[.`.`.`.`.`.`.`.X.U._.O.)..X[.[.[.[.[.[.[.[.`.`.`.`.`.",
"`.`.`.`.`.[.[.`.[.[.[.[.[.[.`.[.|.@.Q.xX^.aXfX` H.x >X;X=X;Xk *X>X>X%Xl h H.XXJ.@.JXZXZXPXF.`.].[.[.[.[.[.[.[.`.`.`.`.`.`._.`.[.].].[.[.[.[.[.[.[.[.`.`.`.`.`.`.",
"`.`.`.`.`.[.[.`.[.[.[.[.[.[.[.{.H.dXhXaXaXCXLXpXh <X>X;X%X=X%Xk l l z %X<XM H.} uXAX!.Q.iX| {.{.[.[.[.[.[.[.`.`.`.`.`.`.`.`.`.`.`.`.[.[.[.[.[.[.[.[.`.`.`.`.`.`.",
"`.`.`.`.`.[.`.[.[.[.[.[.[.[.[.{.| IXLXPXHXIXfXUX,X<X:X-Xl f k k z z l >X>X7Xh vXLXCXQ.xXmX@.o.{.[.[.[.[.[.[.`.`.`.`.`.`.`.`.`.`.`.[.`.[.[.[.[.[.[.[.[.[.`.`.`.`.",
"`.`.`._.`.`.[.[.`.[.[.[.[.[.`.{.{ CXJXUXIXfXd m g <X;X&Xf ` } ` ` f &X;X>X7X%XpXpXIXdXfXfXpX_ {.`.[.[.[.[.[.[.`.`.`.`.`.`.`.`.`.`.[.[.[.[.[.[.[.[.[.[.`.`.`.`.`.",
"`.`.`.`.`.{.`.].[.{.`.`.`.`.`.{.T.N uXAXhXCXQ.G.v z *Xf ` +X X XoX` f *X-Xh u G.v UXLXPXLXCX} XX`.[.[.[.[.[.`.`._.`.`.`.`.`.`.`.`.[.`.[.[.[.[.[.[.[.[.[.`.].`.`.",
"`.`.`.`.`.].(.X.].Y.{.`.`.`.`.`.[.K.{ n v HXN F.xX1 f b XXY.[..XY. Xb g f G.Q.G.dXZXAXZXJXsXH. X`.[.[.[.[.`.`.`.`.`.`.`.`.`.`.].`.[.`.[.[.[.[.[.[.[.[.`.`.`.`.`.",
"`.`.`.`.[.O.P.).O.o..X`.{.`.[.`.`.{. X`.K.a yXFXlXs 5 [.[.`.{.`.{.Y. X: - #XmXy ZXN yXuXN | XX`.`.`.{.`.`.[.`.`.`.`.`.`.`.`.`.`.`.`.`.[.[.[.[.[.[.[.[.[.`.`.`.`.",
"`.`.[.`.[.I._..X].I.[.[.`.`.[.[.`.`.`.`.XX..vXSX$XJ {.`.`.`.[.`.{.Y. XY.s ~.bXvXv } ..` H.[.{.{.[.[.[.[.`.[.`.`.[.[.[.[.[.`.[.[.[.[.[.[.[.[.[.[.[.[.[.[.`.[.[.[.",
"`.`.`.`.[.[.[.[.{.[.[.[.[.[.[.`.[.`.`.`. X} vXbX^._ XX`.`.[.[.[.{.{.Y.XX..>.xXFXF..X X X.X[.`.[.[.[.[.[.[.[.[.[.[.`.`.`.`.[.`.[.`.[.[.[.[.`.[.[.[.[.o.I.`.`.`.`.",
"`.`.[.[.[.`.[.[.[.[.[.[.[.[.[.[.[.[.`.`. XF.DXnX~.` XX`.[.[.[.[.Y..X{.{.U.>.xXDXpXK.[.`.`.[.[.[.[.[.[.[.[.[.[.[.[.[.[.[.[.[.[.[.[.[.[.[.[.[.[.[.P.O.P.P.O.`.`.[.",
"[.[.[.[.[.[.[.[.[.[.[.[.[.[.`.`.[.Y.[..XK.b iX!.s +.].].{.[.[.[.[.[.[.[.Y.J ^.mXR... X`.`.`.[.[.[.[.[.[.[.[.[.[.[.[.[.[.[.[.[.[.[.[.[.[.[.[.[.[.(.)..X].o.`.[.[.",
"[.`.[.[.[.[.[.[.[.[.[.[.[.`.`.`.{.+X`.`.| AXUXIXsX{ $.P.[.[.[.[.[.[.[.{.I.n dXfXdX@.`.XX X`.`.[.`.[.[.[.[.[.[.[.[.[.`.[.[.`.[.`.[.[.[.[.[.[.`.{.[.[.`.`.{.`.[.[.",
"[.[.[.[.[.[.[.[.[.[.`.{.[.[.`. XY.p m n : v N 1XN H.}.].[.[.[.[.[.[.[..XJ.N HXGXJXN u b _ `. X_.[.[.`.`.[.[.[.[.[.[.[.[.[.[.{.`.[.[.[.[.[.[.[.[.[.[.[.[.`.[.[.[.",
"[.`.[.[.[.[.[.[.[.[.`.[.`.`. XK.b MXPXLXZXB o @ : m .X[.[.[.[.[..X.XY. XT.8 : @ = yXGXHXfXb ..$.`.`.{.`.[.[.[.[.[.`.[.[.`.[.`.`.[.[.].[.[.[.[.[.[.[.[.[.[.`.[.`.",
"`.`.`.`.[.`.[.[.[.[.[.[.`.[.'.y ZXLXLXLXIXIXv o uXuXH..X[.[.[.[.`.`.[.`.| gX: : dXLXLXLXLXJXv o.O.(.[.`.[.[.[.`.`.`.`.`.`.`.`.`._._.+.(._.`.`.`.`.[.[.`.`.[.`.[.",
"[.[.[.[.[.[.[.[.[.[.[.[.{.}...yXLXPXLXKXIXJXCX: : v T..X[.[.[.[.{.`.[.Y.n B @ yXPXIXPXLXLXLXfX` }.(.[.[.[.[.[.[.{.`.[.`.`.`.[.{.O.o.(.P.X.[.`.{.`.`.`.{.[.[.[.[.",
"`.`.[.`.[.[.[.[.[.[.{.I.P.$.p N sXyXyXyXyXuXuXv @ o }  X`.[.[.[.`.`.{.Y.X . @ uXyXyXsXsXsXsXuXa XX`.[.[.[.[.[.[.`.`.`.`.`.`.`.`./.].{.`.].[.[.[.[.[.[.[.[.`.`.`.",
"`.`.`.`.[.[.[.[.[.[..XI.O.XXy yXAXCXfXdXdXdXdXMXCXuXi  X`.[.[.[.`.`.+X_ B fXfXsXsXfXsXsXfXCXsXv `.[.[.[.[.[.[.[.`.`.`.`.`.`.`.`.[.`.`.[.[.[.[.[.[.[.[.[.[.`.`.`.",
"`.`.`.`.`.`.[.`.[.[.[.[.]. X .b | | | | | | { | { b }  X`.`.`.`.[.`. X} b R.R.R.R.R.R.R.R.pXE.b `.`.`.[.[.[.`.`.`.`.`.`.`.`.`.`.`.`.[.[.`.`.[.[.[.[.[.[.[.[.`.`.",
"`.`.`.`.`.`.`.[.[.[.[.[.`.`.{.{.'.'.'.'.[.{.[.[.{. X.X`.`.`.[.[.[.[.[.[.Y.J.J.J.J.J.J.J.J.J.J.`.[.`.[.[.[.[.[.`.`.`.`.`.`.].`.`.`.`.`.[.[.[.[.[.[.[.[.[.[.`.`.`.",
"`.`.`.`.`.[.`.`.[.[.[.[.`.[.`.`.`._.`.`.Y.[.`.`.`.`.`.`.`.[.`.[.`.`.`.`.`.{.`.[.`.{.{.`.[.[.[.`.`.[.[.[.[.[.`.`.`.`.`.`.`.`.`.`.`.[.`.[.`.`.[.[.[.[.[.[.`.`.`.].",
"`.`.`.`.`.[.`.[.[.[.[.[.`.`.`.`.`.`.`.`.`.`.`.`.`.`.[.[.`.[.[.[.`.`.`.`.`.`.`.`.`.`.`.`.`.[.[.`.[.[.[.[.[.[.[.`.`.`.`.`.`.`.`.`.`.`.[.[.[.[.[.[.[.[.[.`.`.`.`.`."
};
