/* XPM */
static char *New_Project__6__resized[] = {
/* columns rows colors chars-per-pixel */
"80 80 256 2 ",
"   c #010100",
".  c #070900",
"X  c #1B1A08",
"o  c #15130E",
"O  c #291600",
"+  c #261914",
"@  c #1C2815",
"#  c #12290F",
"$  c #2B2504",
"%  c #362906",
"&  c #353704",
"*  c #232C15",
"=  c #283618",
"-  c #31360D",
";  c #121A25",
":  c #2E2E2D",
">  c #222A2A",
",  c #492C01",
"<  c #483600",
"1  c #553500",
"2  c #522E00",
"3  c #6C3800",
"4  c #185716",
"5  c #0F490E",
"6  c #2F4716",
"7  c #196E13",
"8  c #354926",
"9  c #3A5528",
"0  c #325535",
"q  c #366C33",
"w  c #237223",
"e  c #484602",
"r  c #554E04",
"t  c #794600",
"y  c #645900",
"u  c #745000",
"i  c #6B6800",
"p  c #7A6600",
"a  c #797600",
"s  c #42592A",
"d  c #455436",
"f  c #5B7538",
"g  c #4F6A35",
"h  c #6F7633",
"j  c #6D5D22",
"k  c #1B3656",
"l  c #162F47",
"z  c #304E58",
"x  c #2E6D51",
"c  c #174B78",
"v  c #2A5071",
"b  c #357261",
"n  c #51554C",
"m  c #5A7446",
"M  c #5C6D4B",
"N  c #6C7759",
"B  c #6A7448",
"V  c #6F6F6F",
"C  c #545D63",
"Z  c #CE341C",
"A  c #965500",
"S  c #875000",
"D  c #957000",
"F  c #B46B00",
"G  c #BA6B00",
"H  c #B27303",
"J  c #9D5E1C",
"K  c #D75C0C",
"L  c #C97900",
"P  c #D77702",
"I  c #D16902",
"U  c #E4562C",
"Y  c #88764C",
"T  c #E94656",
"R  c #E75D5B",
"E  c #B82C29",
"W  c #188A13",
"Q  c #2AA917",
"!  c #2CB013",
"~  c #1C9325",
"^  c #289826",
"/  c #29882B",
"(  c #2CAD2C",
")  c #259714",
"_  c #69883A",
"`  c #728B39",
"'  c #7AA13D",
"]  c #43A134",
"[  c #32C932",
"{  c #4AC431",
"}  c #6B8846",
"|  c #759847",
" . c #738557",
".. c #749051",
"X. c #7BA549",
"o. c #74B956",
"O. c #7CBB56",
"+. c #74BA58",
"@. c #7ABA57",
"#. c #71B553",
"$. c #77896D",
"%. c #52A14D",
"&. c #7BC25E",
"*. c #969500",
"=. c #948602",
"-. c #B29600",
";. c #ABAA00",
":. c #BDBD00",
">. c #A78E33",
",. c #90893D",
"<. c #D68300",
"1. c #DA8500",
"2. c #DC8900",
"3. c #D48901",
"4. c #DD9401",
"5. c #C88A01",
"6. c #E48C00",
"7. c #E78900",
"8. c #E49400",
"9. c #EC9300",
"0. c #E39A00",
"q. c #F29500",
"w. c #F49B00",
"e. c #FC9D00",
"r. c #FB9500",
"t. c #FC8903",
"y. c #CDAC00",
"u. c #ECA400",
"i. c #E8A700",
"p. c #F3A400",
"a. c #FEA200",
"s. c #F3AC00",
"d. c #FEAB00",
"f. c #ECB900",
"g. c #FEB400",
"h. c #FFBC00",
"j. c #F4B800",
"k. c #E8B71C",
"l. c #D8A037",
"z. c #D2CB00",
"x. c #FEC300",
"c. c #FECB00",
"v. c #F3C900",
"b. c #FED400",
"n. c #FDDB00",
"m. c #F4DB00",
"M. c #F4C806",
"N. c #FEE200",
"B. c #FDEA00",
"V. c #FEF400",
"C. c #FEFE00",
"Z. c #F6FB00",
"A. c #E9E900",
"S. c #94825D",
"D. c #AE9050",
"F. c #85A849",
"G. c #8FBA49",
"H. c #8BB44A",
"J. c #92BD4D",
"K. c #83BE56",
"L. c #8ABE56",
"P. c #86BA56",
"I. c #92B953",
"U. c #87AC50",
"Y. c #889376",
"T. c #8E8F6E",
"R. c #AB986C",
"E. c #A4A867",
"W. c #D3AC4D",
"Q. c #E8B753",
"!. c #C9A975",
"~. c #F0A278",
"^. c #8CC156",
"/. c #8CC158",
"(. c #85C258",
"). c #94C356",
"_. c #9AC457",
"`. c #95C358",
"'. c #9BC558",
"]. c #9DCA5A",
"[. c #9AC956",
"{. c #96C34E",
"}. c #A2CD5B",
"|. c #A0C957",
" X c #A5D15C",
".X c #A9D65D",
"XX c #ABD85E",
"oX c #AADA61",
"OX c #B4E164",
"+X c #FDD16F",
"@X c #EADE54",
"#X c #2D5988",
"$X c #345C84",
"%X c #2C5792",
"&X c #366698",
"*X c #3B73AA",
"=X c #3A71AE",
"-X c #375EAB",
";X c #427CB9",
":X c #68778F",
">X c #457EC5",
",X c #847C83",
"<X c #4581BB",
"1X c #43A6A4",
"2X c #51D8B4",
"3X c #009DDB",
"4X c #0096CF",
"5X c #02B9F0",
"6X c #08A7CF",
"7X c #4584C5",
"8X c #7BAACE",
"9X c #00C7FD",
"0X c #16CEFF",
"qX c #5EE8FF",
"wX c #6EE6FF",
"eX c #4ED3DD",
"rX c #349CB2",
"tX c #969696",
"yX c #908F8D",
"uX c #A49E91",
"iX c #AEAA8E",
"pX c #A8A7A8",
"aX c #B0ADB5",
"sX c #B7B5B8",
"dX c #B1B1AD",
"fX c #9A9A99",
"gX c #CDBC8E",
"hX c #EEA4A3",
"jX c #D1C597",
"kX c #F3D58D",
"lX c #FFE993",
"zX c #FFE496",
"xX c #D2CAB8",
"cX c #FFF3B4",
"vX c #FFF8BD",
"bX c #FBECAA",
"nX c #E7D0AA",
"mX c #BDBBC0",
"MX c #83B9D4",
"NX c #C1BEC5",
"BX c #FFB8D4",
"VX c #98F0F6",
"CX c #9FEAEB",
"ZX c #C6C5C9",
"AX c #D9D9DC",
"SX c #CECDD0",
"DX c #FFF5C5",
"FX c #FFF8D8",
"GX c #F7EDC6",
"HX c #E1DEE5",
"JX c #DDEDF0",
"KX c #E8E8EA",
"LX c #FEFDFE",
"PX c #F5F6F6",
"IX c #F3F3EF",
"UX c #95DB9D",
/* pixels */
"_._._._._.'.'.'.'.'.'.'.'.'.'.'._._._._._.)._._._.'.'.'._.'.'.'.'._._._._._._._._._._._._._._.'.'.'.'.'.'.'.'.'.`._._._._._._._._.'._.'.'.'.'.'.'.'._._._._._.'.",
"_._._._._.'._._._.'.'.'.'.'.'._._._._._._._._._.'.'.'._._.L.K.[._._._._._._._._._._._._._._._.'.'.'.'.'.'.'._._._._._._.`._._._._.'._.'.'.'.'.'.'.'._._./.O.[._.",
"_._._._._.'.'.'._.'.|.'.'.'._._._._._.'._._._._._.'.'.`.o.K.K.@./.|.'._._._._._.`._._._._._._.'.'.'.'.'.'.'.'._._._._._._._._._.'.'.'.'.'.'.'.'.'.'.).+.^.@.O.^.",
"`._._._.'.'._._.'.'.L.'.'.'.'._._._._.)._._._._.'._._.`.@.)._.O.^.[._._.'.[._.`._._._._._._._.'.'.'.'.'.'.'._._._._._._._._._._.'.'.'.'.'._.'.'.'.[._.O.)._.O.^.",
"_._._.'.'.'._.'././.#.^.L.'.'._._._.'.'.'._._._.'.'.'._.'._._._.[.). X[.F.U.|.|._.'.'._._.'.'.'.'.'.'.'.'.'.'.'.'._.'.'._._._._.'.'.'.'.'.'.'.'.'.'.'.'.'.'._._.",
"_._.'._.'.'._.|.@.@.).^.+.'.'._._._.'._.'.'.'.'.'.'.'.'._._.'.'._. X} 6 4 4 s _.[.'._._._.'.'.'.'.'.'.'.'.'.'.'._.'._._._._._._.'.'.'.'.'.'.'.'.'.'.'.'.'.'._._.",
"'.'.'.'.'.'.'.'.).`.'._.`.'.'.'.'.'.'.'._.'.'.'.'.'.'.'.].'.'._. Xf # ~ ^ ( w s }.`.'.'.'.'.'.'.'.'.'.'.'.'.'.'.'.'.'.'.'.`._.'.'.'.'.'.'.'.'.'.'.'.'.'.'.'.'.'.",
"'.'.'.'.'.'.'.'.'.[._._.'.'.'.'.'.'.'.'.'.'.'.'.'.'.'.'._._._.].U.5 ^ ^ ^ ( [ 7 h  X_.[.'.'._._.'.'.'.'.'.'.'.'.'.'.'.).).+.P.`.`.'.'.'.'.'.'.'.'.'.'.'.'.'.'.'.",
"'.'.'.'.'.'.'.'.'.'.'.'.'.'.'.'.'.'.'.'.'.'.'.'.'.'.'.'.'.'._.}.F.4 ^ ^ ( ( ( [ 4 I.'.'.'.'.'.'.'.'.'.'.'.'.'.'.'._.].K.@.L.K.o.'.'.'.'.'.'.'.'.'.'.'.'.'.'.'.'.",
"'.'.'.'.'.'.'.'.'.'.'.'.'.'.'.'.'.'.'.'.'.'.'.'.'.'.'.'.'.'.'.'.|.s 4 ^ ^ ^ ( [ / g  X_.'.'././.'.'.'.'.'.'.'.'.'.'.'.`.L.'.).^.'.'.'.'.'.'.'.'.'.'.'.'.'.'.'.'.",
"'.'.'.'.'.'.'.'.'.'.'.'.'.'.'.'.'.'.'.'.'.'.'.'.'.'.'.'.'.'._._.'.'._ = 4 ~ ^ ( ( 9 |.'.).O.K.@.K./.'._.'.'.'.'.'.'.'.'.'._._.'.'.'.'.'.'.'.'.'.'.'.'.'.'.'.'.'.",
"_._._._.'.'.'.'.'.'.'.'.'.'.'.'._._._._._._._._._.'.'.'.'.'._._.'._. X[.s 5 ^ ( [ 4 U.'.`.+.`.'.O.^.].'.'.'.'.'._._._._._._._._._._._.'.'.'.'.'.'.'.'._._.'._._.",
"_.'.'.'._.'.'.'.'.'.'.'.'.'.'.'._.'.'.'.'._.'._.'.'.'.'._._._._.'.].].oXOX9 4 ^ [ 7 U..X_._.'.'.'.'._.'.'.'.'.'.'.'.'.'._.'.'._.'.'.'.'.'.'.'.'.'.'.'.'._.'.'.'.",
"_._._._.'._.[.'.'.'.'.'.'.'.'.'._._._.'.'._.L.).'.'.'.'._.`.}..X].U._ g 9 * 4 / ( 4 f '. X X_.`.'.'.'.'.'.'.'.'._._._._._._._._.'.'.'.'.'.'.'.'.'.'.'.'._._._._.",
"'.'.'._._._.@.).`.'.'.'.'.'.'.'._._._.'./.K.o.K.@.'.'._.|..XU.g = & y =.;.t # ~ ( # , - 8 } |. X_._.'.'.'.'.'.'.'.'.'.'._._._._.'.'.'.'.'.'.'.'.'.'.'.'._._._._.",
"_._.'.'.@.(.O.K.@.'.'.'._.'.'.'._._._._.^.@.'.`.+._.'..XX.8 $ a z.Z.C.C.C.f.i e 6 D x.A.;.r * _ }.}._.'.'.'._._._._._._._._._._._.'.'.'.'.'.'.'.'.'.'.'._._._._.",
"_._._._.K.L.|.L.K.'.'.'.'._._._._._._._._.`._._.).}.'.9 $ *.Z.C.C.C.n.N.C.C.C.V.V.C.B.C.C.C.z.y * | XX|./.`.[._._._._._._._._._._._._.'.'.'.'.'.'.'.'._._._._._.",
"_._._._._._._.'.|.'.'.'.'._._._._._._._._._._.). X| X a C.C.B.C.N.g.g.C.B.h.V.C.C.C.N.N.C.C.C.C.:.& 0 ].@.K./.'._._._._._._._._._.'.'.'.'._.'.'.'.'.'._._._._.`.",
"_._._._._._._._.'.'._._._._.'._._._._._._._._. Xg $ z.C.c.x.V.c.d.a.N.V.d.h.C.C.C.C.C.n.C.C.C.N.V.C.i = L.`.o.'.'._._._._._._.`._._.'.'.'._.'._.).L./.'._._._._.",
"_._._._._._.'.'.'.[.)._.'.'.'._._._._._.I._. X9 & Z.V.d.g.C.x.a.g.g.V.g.g.g.V.C.C.C.C.N.c.V.B.V.b.n.C.*.* L.[.I._._._._._._._._._.'._.'.'._.'.).O.O.(.@.)._._._.",
"_._._._._._.'.'.).).+./.`.'._._._._.'.'._..X8 r C.n.e.s.V.h.a.g.a.v.n.a.g.g.n.C.C.C.C.V.j.c.x.c.V.c.c.C.;.@ I.}._._._._._._._._._.'._.'.'.'.[.^.O._._.@.`.'._._.",
"_._._._.'.'._.|.O.O./.(.+.'.'._._._._.I.XXs e C.x.a.w.m.x.e.d.d.u.m.g.d.g.g.h.B.C.C.C.C.f.x.c.h.b.B.j.x.C.;.@ `._._._._._._._._._.'._.'.'.'.'.'.[._.'.'._._._._.",
"_._._._.'.'._.'.`./.|.`.L.`.'._._._.`..Xf & C.x.a.w.f.n.e.d.d.d.i.b.a.g.g.g.g.x.B.C.C.N.v.s.b.x.x.N.v.h.x.C.*.= }._._._._._._._.'.'.'.'.'.'.'.'.'.'.'.'._._._._.",
"_._._._.'.'.'.'.'.'.'.'.'.'._._._._.}.F.X A.x.e.a.8.n.a.a.d.g.w.f.h.a.g.g.g.x.x.x.b.n.x.n.u.c.x.x.x.N.i.x.h.C.i s .XI._._._._.`.'.'.'.'.'.'.'.'.'.'.'.'._._._._.",
"_._._._.'.'.'.'.'.'.'.'.'.'._._._._.}.* ;.n.e.d.7.f.h.a.d.d.d.8.v.d.d.d.g.g.h.x.x.x.c.x.b.i.h.c.x.x.b.v.u.x.x.C.& | }._.'._._.'._.'._.'.'.'.'.'.'.'.'.'._._._._.",
"_._._._.'.'.'.'.'.'.'.'.'.'.'._.`..Xg r V.r.a.w.4.c.e.a.a.d.a.8.h.a.d.d.g.g.g.x.x.c.c.x.c.f.u.b.x.x.h.n.0.h.x.n.z.* _._._.'.'.'.'.'.'.'.'.'.'.'.'.'.'.'.'.'.'.'.",
"_._._._.'.'.'.'.'.'.'.'.'.'._._.'.I.* z.g.e.a.6.i.g.e.a.a.d.w.0.g.a.d.d.g.g.h.x.x.c.x.x.x.v.8.c.x.x.h.c.f.8.x.g.V.a s .X_.'.`.K._._.'.'.'.'.'.'.'.'.'.'.'.'._._.",
"'._.'._.'.'.'.'.'.'.'.'._._._._..Xg a n.r.a.w.2.x.a.a.a.d.d.9.i.g.a.d.d.g.g.g.x.x.x.x.x.h.c.2.h.x.x.x.h.b.2.g.x.h.B.- P.[.O.L.o.K.L.'.'.'.'.'.'.'.'.'.'._.'.'.'.",
"_._._._._._.'.'.'.'.'.'.'.'._._.[.* z.a.e.a.7.0.h.e.a.a.a.d.6.u.a.a.d.d.g.g.h.h.x.x.x.x.h.x.4.g.c.h.x.g.c.i.8.x.h.N.=.s XXo.L.'.O.L.].'.'.'.'.'.'.'.'.'._._._.'.",
"'.'.'._.'.'.'.'.'.'.'.'.'.'._. X} r c.r.a.e.1.u.a.e.a.a.d.a.2.s.a.a.d.d.g.g.h.h.h.x.x.x.h.x.0.0.x.x.x.h.h.v.1.g.h.h.m.- I.'._.'.'._.'.'.'.'.'.'.'.'.'.'.'.'.'.'.",
"'.'.'.|.L./.|.'.'.'.'.'.'.'.`..X9 =.g.e.a.q.<.s.a.e.a.a.a.a.2.s.a.a.d.d.g.g.g.h.x.x.x.x.h.x.i.8.x.h.h.h.g.x.2.u.x.g.n.i g .X_._.'.'.'.'.'.'.).K.[._.'.'.'.'.'.'.",
"_.'.`.O.O.K.K.`.'.'.'.'.'.'.'.].6 y.a.a.a.7.2.s.a.a.e.a.d.w.2.p.a.a.a.d.g.g.g.h.g.x.h.h.h.g.u.6.x.x.h.g.g.x.8.2.h.g.x.y.6 }._._.)._.'.'.'.^.L.+.(.L.'.`._._._._.",
"'.'./.+.`.`.+.`.|.'.'.'.|.}.I.U.& s.e.a.e.6.4.d.e.a.e.a.a.0.2.a.e.a.d.d.d.g.g.g.c.v.s.x.g.g.u.2.h.h.h.g.g.x.u.1.g.h.d.b.6 U.]._.'.'._._.|.@.(.'.L.@.'.'.'.'._.'.",
"'.'.'.`.'.'._._.'.'.'.'.I.I.}.%.e d.e.a.e.1.8.a.e.e.a.a.a.9.2.a.e.a.a.d.d.g.g.g.v.H 3.h.g.g.p.1.g.h.h.g.g.g.s.<.f.s.g.b.p f  X_.'.'.'.'._._.'.|.'.`.'.'.'.'.'.'.",
"'.'.'.'._.'._._.'.'.'.'.}.'.}.%.r d.e.a.q.1.8.a.a.e.a.e.a.9.2.e.a.a.a.a.d.g.g.c.i O L s.h.g.s.1.g.h.g.h.g.g.s.8.-.L g.x.=.s .X_.'.'.'.'.'._.'.'.'.'.'.'.'.'._._.",
"'.'._._.'.'.'.'.'.'.'.'.}.I. X| 1 a.e.a.q.<.7.e.e.a.e.a.a.8.2.e.e.a.a.d.d.g.g.y.: + A 4.h.g.p.1.p.h.g.g.g.g.d.4.$ F d.g.5.8  XI.'.'.'.'.'.'.'.'.'.'.'.'.'.'._._.",
"_._._._._.'.'._.'.'.'.'.'.'.}.X., e.a.a.w.1.7.a.a.a.e.e.a.6.2.e.e.a.a.a.d.a.x.bXPXPX!.H g.g.p.1.u.g.g.g.g.d.g.=.; S u.g.i.- |.'._._.'.'.'.'.'.'.'.'.'.'.'._._._.",
"_._._._._.'._.'.'.'.'.'.'._.|.H.$ 1.e.a.w.1.6.a.e.a.a.a.a.6.2.e.a.a.a.d.d.d.@XqXJXLXPXH 4.g.w.1.p.h.g.g.g.d.h.GXLX!.<.g.u.6 `.'._.'._.'.'._.'.'.'.'.'.'._._._._.",
"_._._._._.'.'.'.'.'.'.'._._._.].* F w.a.e.1.6.e.e.a.e.e.e.9.<.e.a.e.e.a.w.b.CX9XJXLXVX$.I g.w.<.p.g.g.d.g.d.@XVXLXIXH g.8.- (._.'.'.'.'.'._.'.'.'.'.'.'._._._._.",
"_._._._.'.'.'.'.'.'.`.P.'._._..Xg t 9.r.e.6.1.w.a.e.a.a.a.9.<.e.a.a.a.e.g.W.qX9X6XrX3XeXI 0.p.P p.g.d.g.s.h.2X0XLXVXY e.<.* +.).'._._.'.'._.'.'.'.'.'.'._._._._.",
"_._._._._._._._.'.K.L.o.(.L.'.|.U.$ 2.2.e.q.<.9.a.e.e.e.a.q.P 7.r.d.d.d.-.  MXVX5X3X9X#X3 P 8.1.p.d.d.d.g.k.eX9XrX5X$.6.H = }.`._._._.'.'._.'.'.'.'.'._._._._._.",
"_._._._._._._._.].O.^._.K.O.'.`. X9 3 8.1.9.2.6.a.g.a.e.a.e.P ~.hXR U a.y.p >.UX2X2X1X# < 5.3.2.a.g.d.d.h.$ 8XqX3X5X> I t 9 .X_._.'.'.'.'.'.'.'.'.'.'._._._._._.",
"_._._._._.'._._.'._.'.'.'.'.'._.'._.@ F 9.<.2.P q.c.x.e.e.a.K hXBXR T U t.h.g.g.g.g.g.g.g.j.4.1.s.s.s.d.j.p >.UX2X$.X -.< } }._._.'._.'._.'.'.'.'.'.'._._._._._.",
"_._.`._.'._._._.'.'.'.'.'.'.'._._.|.X.O G 9.1.2.2.g.b.d.e.a.7.Z T T U Z K d.4.L 4.u.a.p.a.a.7.q.g.g.g.g.d.g.7.9.d.k.hXU J I.'.'._.'._.'.'._.'.'.'.'._._._._._._.",
"_._._._._.'._.'.'.'.'.'.'.'.'.'.'.I..X| X A e.2.1.6.e.a.e.e.e.<.K K K P r.a.y.  O 1.g.x.r O % 1 u u u H a.9.5.H P R hXT Z D.[.[.'.'.'.'.'._.'.'.'.'._._.'._._._.",
"'._._.'.'.'.'.'.'.'.'.'.'.'.'.'.'.'._.}.U.* 3 2.9.2.1.9.a.a.a.8.<.8.a.d.a.e.d.-.  , S D .             2 7.9.-., <.K E J >.|.'.[.'.'.'.'.'.'.'.'.`.'.@./.`.'.'._.",
"_._._._.'.'.'.'.'.'.'.'.'.'.'.'.'.'._.`.}.'.s $ S 1.9.2.6.9.a.e.2.1.q.a.a.e.e.g.-.X         .   . .   . O O u 2.8.1 = ^.].'.`.'.'.'.'.'.'.'._.|.K.@.(.K.#.`._._.",
"'.'.'.'.'.'.'.'.'.'.'.'.'.'.'.'.'.'.'.'._.'..XF.8 % S L 8.7.7.9.7.<.<.9.e.a.a.e.d.h.=.& .               $ D 0.G O 8 ].].'.'.'.'.'.'.'.'.'.'.'.'.^.^.[.).L.'.'.'.",
"_._._.'._._.'.'.'.'.'.'.'.'.'._._._._._._._._. X|.} @ @ 1 S F P 9.q.7.2.9.0.w.q.9.9.9.0.5.D p y y u D 4.4.F 2 @ _  X'._._._._._.'.'._.O._.'.'.'.'.|.'.'.'.'.'._.",
"'._.'._.'.'.'.'.'.`.'.'.'.'.'.'._.'._.'._._..Xf 6 ] { %./ # ; * , 3 A F L P P 6.7.8.7.6.w.r.q.9.1.L A 3 $ = q ]. X`._.'.'._.'._.'.O.K.@.(.K.[.'.'.'.'.'.'.'.'.'.",
"'.'.'.'.'.'.'.`.`.+.P.`._.'.'.'.'.'.'._.'.[.H. .9 ) ( { { w &Xb W 7 5 @ ; $ $ % , , < 1 < , % O * = 9 g U.}.(.`.'.'.'.'.'.'.'.'.[.K./.'.K.K.'.'.'.'.'.'.'.'.'.'.",
"_.'._.'.'.'.].P.@./.(.+.).'.'.'._._._.|.).O.iXDXnX9 Q Q ! 4 %Xb { { { b &X^ ) ) 5 @ } | | X.U.P.`.[.oXoX}.'.'.'.'.'.'.'.'._._.'._._._.'._._._._.'.'.'.'._.'.'.'.",
"_.'._._._._.'.`./.[.)./.'.'.'._.'.'._._...SXDXzXbX` W ) 7 5 -Xx Q Q ! z &X) ! w iXdXJ..X}. X}.'.[.[._._._._.'.'._.'._._._.'._._._._.'.'.'.'.'.'.'.'.'.'.'.'._._.",
"'.'.'.'.'.'.'.'.|.'.'.].'.'.'.'.'.'.}.U.xXFXbX+XQ.j 5 5 7 w -Xw ! ! ! v &X7 7 D.cXcXjXI.`.'._._.`.'.'.'.'.'.'.'.'.'.'.'.'.'.'.'.'.'.'.'.'.'.'.'.'.'.'.'.'.'.'.'.",
"_._.'.'.'._.'.'.'.'.'.'.'.'.'.'._.'.J.M uXgXzX+X>.f > $Xx z *Xx / x w v v 5 = l.+XkXDXxXX.}.'.'.[.'.'.'.'.'.'.'.'.'._.'.'._.'.'.'.'.'.'.'.'.'.'.'.'.'.'.'.'.'._.",
"'._._._.'._.'.'.'.'.'.'.'.'.'._.'.{. .AXKXsXD.l.X.J.z &X&XC V %X;X7X#XV z _ g ` Q.zXcXFXE.{.'.'.'.'.'.'.'.'.'.'._._._._._.].`.L.[._.'.'.'.'.'.'.'.'.'.'.'._._._.",
"_._._._._.'._.'.'.'.'.'.'.'._._. X' ZXLXPXLXpXf .XX.v #X*X#Xv $X&X;X$Xv z ^..XX.l.+XR.iXV H.}._.'.'.'.'.'.'.'._._._._._._.K.K.o././.'._._._.'.'.'.'.'.'._._._.`.",
"_._._._._.'._._.'.'.'.'.'.'._._.}.| yXdXSXPXdX_ oX_ k &X*X;X#X&X;X;X&X>XN  X_.].` S.ZXHXZX..{.[.'.'.'.'.'.'._._._._._._._.o.L.`.@.K.|._.'._.'.'.'.'.'._._._._._.",
"_._._._.'._._.'.'.'.'.'.'.'._.'.H.V !.kXR.mX$.{.F.z <X*X&X*Xv =X<X;X&X$Xz H.].].} SXLXLXLXpXF.}._.'.'.'.'.'.'._._.`._._._.)._._.`.).'.'.'.'.'.'.'.'.'._._._._._.",
"_._._._._.'._.'._.'.'.'.'._._._.T.NXiXjXR.HXpX_ b 7X=X*X#X&Xv c v $Xv v <Xz F.oX} dXAXuXsXyXF.[._.'.'.'.'.'.'._._._._._._._._._._.'.'.'.'._.'.'.'.'._._._._._._.",
"_._._._.'.'.'.'.'.'.'.'.'._.}.F.dXLXPXZXSXKXLX:X;X>X=X-Xv k %X#Xc v v *X<X;XC '  .SXtX!.kXT.X.[.'.'.'.'.'.'._._._._._._._._._._._.'._.'.'.'.'.'.'.'.'.'._._._._.",
"_._._._.'.'.'.'.'.'.'.'.'.'.|.X.pXKXKXPXIXV yX:Xc ;X*X#Xk f m m m > #X*X;X<Xc n LXLXdXgXgXiX$.{.'.'.'.'.'.'._._.)._._._._._._._._.'._.'.'.'.'.'.'.'.'._._._._._.",
"_._._._._.[._.).'.'.'.'.'.'._.{. .,XSXZXZXT.D.Y Y c &Xk ` XX X|.XX| k &X=Xz n V yXtXLXAXAXPXuXG.}.'.'.'.'.'._._._._._._._._.)._._.'.`.'.'.'.'.'.'.'.'.'._._._._.",
"_._._.)._.)./.o.`.`.'.'.'.'._.'.{.` V C HXgXY xXzX< l m  XI._.'.I. Xg c l D.DXY D.V KXKXPXLXpXF.}.'.'.'.'._._._._._._._._._._._._._._.'.'.'.'.'.'.'.'._.'.)._._.",
"_._._._.'.o.P./.O.@.|.'.'.'.'._.'.}.I.' $.d uXFX+Xh 8 _._._.'.'.].'.|.: - Q.GXS.R.HXmXZXsXaX ._.'.'.'.'.'.'.'._._._._._._._._._._._.'.'.'._.'.'.'.'.'._._._.'._.",
"_._._.'.'.L.).'././.'.'.'.'.'.'.'._.'.}.{.` xXDX+XY ].'._.'.'.'.].I.].I.m Q.cXjXn sXM V B m I.'.'.'.'.'.'.'._.'.'.'._.'._._.'.'._.'._.'._.'.'.'.'.'.'.'._._.'.'.",
"_._._._.'.'.'.'.'.'.'.'.'.'.'.'.'.'._.I. X| SXcXW.`  X_._.'.'.'.}.].I..XX.D.zXFXN ` I.J.`.}.'._.'.'.'.'.'.'.'._._.'.'._.'._.'._.'.'.'.'.'.'.'.'.'.'.O./.).'.'.'.",
"_._.'.'.'.'.'.'.'.'.'.'.'.'.'.'.'.'.'.'.{.T.FXcXl.|  X'.'.'.'._.I.].}.}.H.>.lXFXiXJ.}.|.'._.'.'.'.'.'.'.'.'.'.'.'.'.'.'.'.'.'.'.'.'.'.'.'._._.|.^.O.O.K.@.`.'.'.",
"'.'.'.'.'.'.'.'.'.'.'.'.'.'._._.'.'.'.}.H.M uXR.j #.`.`.'.'.'.'.'.'.'.I.{.Y W.nXY.| }.I.|.|.'.'.'.'.'.'.'.'.'.'.'.'.'.'.'.'.'.'.'.'.'.'.'.'._.'./.^.'.).O._.'.'.",
"_.'.'.'.'.'.'.'.'.'.'.'.'.'.'._.'. X'.{. .SXHXJXaX_ &.K.|._.'.'.'.'.'.].J.N sXsXsX$.{. X X'._.'.'.'.'.'.'.'.'.'.'.'.'._.'._.'.'.'.'.'.'.'.'.'.'.'.'._._.'.'._.'.",
"'.'.'.'.'.'.'.'.'.'.'.'.'.'.`.}.I.f N N : n V Y V X.[.`.'.'.'.'.I.}._.|.G.N HXAXKXC s B _ J.}.`.'.'.'.'.'.'.'.'.'.'.'.'.'.'.'.'.'.'.|.'.'.'.'.'.'.'.'.'.'.'.'.'.",
"_.'.'.'.'.'.'.'.'.'.'.'.'._.].H.M NXPXLXAXC + + : } |.'.'.'.'.'.|.|.I.|.F.d : + * tXKXHXaXM X.(.`._.'.'.'.'.'.'._.'.'._.'._.'.'.'.'.`.'.'.'.'.'.'.'.'.'.'.'.'.'.",
"_._._.'._._.'.'.'.'.'.'.].].`.g AXLXLXPXPXIXn + yXyXF.|.|.'.'.'.'.'.'._. .tX: : sXLXLXLXLXKXd O.+.P.].'.'.'.'.'._.'._._._._._.'.).).#./.).'.'.'.'.'.'.'.'._.'._.",
"'.'.'.'.'.'.'.'.'.'.'.'.].`.X.tXLXPXLXPXKXKXNX> : n U.}.I.}.'.'.'.'.'.I.N C ; yXPXIXPXLXLXLXaX` `.`.[.'.'.'.'.'.'.'.'.'.'._.'.'.@.O./.(.o.'.'.'.'.'.'.'.'.'.'.'.",
"_._._.'.'.'.'.'.'.'.'./.O.(.g V pXtXtXtXtX,XtXn o o } }.I.'.'.'.'.'.|.I.+   o yXtXtXpXpXpXpXyXg }._.'.'.'.'.'.'._.'.'._._._._._./.).'.`.).'.'.'.'.'.'.'.'.'.'._.",
"_._._._.'.'.'.'.'.'.'./.+.].g tXSXZXmXaXmXmXsXNXZXtXg  X'.'.'.'.'.'. X_ V pXaXaXaXpXpXpXaXZXpXn _.'.'.'.'.'.'.'._._.'.)._._._._.'.'.'.'.'.'.'.'.'.'.'.'.'.'.)._.",
"_._._._._.'.'._.'.'.'.'._.].` B  . . . . .}  .} B M | }.'.'.'.'.'._.}.| M Y.Y.Y.Y.Y.Y.Y.Y.uX$.f _.'.'.'.'.'._.'._._._._._._._._._.'.'.'._._.'.'.'.'.'.'.'.'._._.",
"_._._._._.'._.'.'.'.'.'.'._.}.[.].[.{.[.[._._._.}.|.}.'.'.'.'.'.'.'._.'.).G.G.H.G.G.G.G.G.G.{._.'.'.'.'.'.'.'._._._._._._._.`._._.'.'.'.'._.'.'.'.'.'.'.'.'._._.",
"_._._._._.'._._.'.'.'.'.'.'._._._.'.'.'._._._._._._.'.'.'.'.'.'._._._._.'.'.'.'.'.'.'.'.'.'.'.'.'.'.'.'.'.'.'.'._._._.`._._._._._.'._.'.'.'.'.'.'.'.'.'.)._._._.",
"_._._._._.'._.'.'.'.'.'.'.'._._._.'.'.'._._._._._.'.'.'.'.'.'.'._._._._._._._._.'._._.'._._._.'.'.'.'.'.'.'.'.'._._._._._._._._._._._.'.'._.'.'.'.'.'.'._._._._."
};
