/* XPM */
static char *New_Project10_resized[] = {
/* columns rows colors chars-per-pixel */
"80 80 256 2 ",
"   c #010100",
".  c #0A0700",
"X  c #1B1803",
"o  c #151816",
"O  c #0C1200",
"+  c #271A02",
"@  c #371D00",
"#  c #20181B",
"$  c #182A0F",
"%  c #2C2B01",
"&  c #282809",
"*  c #392903",
"=  c #373805",
"-  c #242912",
";  c #2A3618",
":  c #2D3205",
">  c #312C2C",
",  c #241F20",
"<  c #472B01",
"1  c #473803",
"2  c #5E3300",
"3  c #522B00",
"4  c #6C3C01",
"5  c #134B11",
"6  c #334514",
"7  c #176C14",
"8  c #216919",
"9  c #354825",
"0  c #385124",
"q  c #30432F",
"w  c #2D702D",
"e  c #165B29",
"r  c #5B5A00",
"t  c #534907",
"y  c #784600",
"u  c #685800",
"i  c #686600",
"p  c #7A7600",
"a  c #776C07",
"s  c #49562F",
"d  c #4C6734",
"f  c #546B37",
"g  c #5A773A",
"h  c #4A692F",
"j  c #6E7131",
"k  c #665732",
"l  c #1B3654",
"z  c #203246",
"x  c #354E54",
"c  c #274868",
"v  c #284E75",
"b  c #2E5772",
"n  c #2C6161",
"m  c #50544B",
"M  c #5E6E45",
"N  c #687250",
"B  c #4A5864",
"V  c #757375",
"C  c #6C6D67",
"Z  c #57606E",
"A  c #D62F24",
"S  c #995600",
"D  c #844F03",
"F  c #896E01",
"G  c #A96600",
"H  c #B56900",
"J  c #B07604",
"K  c #AD702D",
"L  c #936F1F",
"P  c #CB500D",
"I  c #CC7B01",
"U  c #C47600",
"Y  c #D57B03",
"T  c #C56800",
"R  c #E76C10",
"E  c #DC4336",
"W  c #877857",
"Q  c #E64859",
"!  c #EC675D",
"~  c #822112",
"^  c #299511",
"/  c #2CAC16",
"(  c #279627",
")  c #30872B",
"_  c #2AA62A",
"`  c #31B62B",
"'  c #1B9118",
"]  c #58863C",
"[  c #69873A",
"{  c #74923C",
"}  c #44B82E",
"|  c #7CA23D",
" . c #32C932",
".. c #49C632",
"X. c #6C8648",
"o. c #769847",
"O. c #738556",
"+. c #748D4E",
"@. c #7AA449",
"#. c #73B956",
"$. c #7CBB56",
"%. c #77BA58",
"&. c #6EB150",
"*. c #78826A",
"=. c #4F8640",
"-. c #7DC35A",
";. c #3C8852",
":. c #958B00",
">. c #AE9000",
",. c #B1B000",
"<. c #B08D38",
"1. c #82A73E",
"2. c #888635",
"3. c #D58300",
"4. c #DA8500",
"5. c #DD8A00",
"6. c #D58C00",
"7. c #DC9600",
"8. c #CC8B04",
"9. c #E38C00",
"0. c #EB8C00",
"q. c #E59300",
"w. c #EB9200",
"e. c #E89C00",
"r. c #F19600",
"t. c #F59A00",
"y. c #FC9E00",
"u. c #FA9700",
"i. c #F98809",
"p. c #CBAE00",
"a. c #ECAC00",
"s. c #E8A200",
"d. c #FEA200",
"f. c #F4AC00",
"g. c #FDAB00",
"h. c #F5A301",
"j. c #EBB800",
"k. c #FEB400",
"l. c #FEBC00",
"z. c #F5B700",
"x. c #BFC100",
"c. c #D3D100",
"v. c #FFC300",
"b. c #FFCB00",
"n. c #F4C903",
"m. c #FED300",
"M. c #FEDB00",
"N. c #F4D600",
"B. c #EEC400",
"V. c #FEE400",
"C. c #FCEB00",
"Z. c #FEF500",
"A. c #FEFE00",
"S. c #F6FB00",
"D. c #EAEC00",
"F. c #FFD422",
"G. c #86AA4A",
"H. c #8FBA49",
"J. c #8BB54A",
"K. c #93BC4D",
"L. c #84AB51",
"P. c #83BE56",
"I. c #8BBE55",
"U. c #86BB56",
"Y. c #92BB53",
"T. c #91AD4F",
"R. c #889376",
"E. c #8A8F70",
"W. c #AE996F",
"Q. c #A09C58",
"!. c #EDB750",
"~. c #DCA660",
"^. c #8CC157",
"/. c #8CC158",
"(. c #86C359",
"). c #95C356",
"_. c #9AC457",
"`. c #9CC954",
"'. c #95C358",
"]. c #9BC558",
"[. c #9ECA5A",
"{. c #93C95B",
"}. c #98CA54",
"|. c #A2CD5B",
" X c #A0C857",
".X c #A5D25D",
"XX c #A9D55D",
"oX c #ABDA5E",
"OX c #ACD862",
"+X c #F2D270",
"@X c #DEC35B",
"#X c #2F5A88",
"$X c #356697",
"%X c #35638B",
"&X c #3868A4",
"*X c #3B72A9",
"=X c #3874B3",
"-X c #02709C",
";X c #4F7389",
":X c #417AB6",
">X c #847C83",
",X c #F67490",
"<X c #0A90B5",
"1X c #4480BB",
"2X c #6B969A",
"3X c #6AD299",
"4X c #00A9E5",
"5X c #00B3F2",
"6X c #1EADCD",
"7X c #4381C6",
"8X c #02CCFF",
"9X c #08C7FF",
"0X c #0CDAFF",
"qX c #34CCEC",
"wX c #56DBE6",
"eX c #969696",
"rX c #908F8B",
"tX c #AA9E86",
"yX c #96A287",
"uX c #AEAA90",
"iX c #A7A6A8",
"pX c #ADADB2",
"aX c #B9B7B9",
"sX c #B5AFAE",
"dX c #9D97A5",
"fX c #C6B58C",
"gX c #E0ABB3",
"hX c #B0C793",
"jX c #97D69C",
"kX c #F8D98E",
"lX c #FFE596",
"zX c #F5EB82",
"xX c #D3C9B9",
"cX c #FFE7AA",
"vX c #FFF5B9",
"bX c #FCEDB5",
"nX c #DBE0A4",
"mX c #BEBCC3",
"MX c #C1BEC6",
"NX c #98F2FA",
"BX c #B8F5FD",
"VX c #91CEDA",
"CX c #C8C7CA",
"ZX c #D8D8DA",
"AX c #D1CED2",
"SX c #FFFAC5",
"DX c #FFF2CF",
"FX c #FAEDD1",
"GX c #E1DEE5",
"HX c #E8E8EA",
"JX c #EBFBFF",
"KX c #ECF6F7",
"LX c #FEFEFE",
"PX c #F4F4F5",
"IX c #F7EDF1",
"UX c #DCE0E0",
/* pixels */
"_._._._._.]._._.].]._._._.]._._._._._._._._._._._.].].]._.].]._._._._._.'._._._._._.]._._.]._.].].].].].].].].]._._._._._._._.]._._.].].].].].].].]._._.]._._._.",
"_._._._.]._._.].].]._._.]._._._._._._._._._._._._.].].].].U.P.`.].]._._._._._._._._._._._._._.].].].].].].]._._._._._._._._.'.]._.]._.].].].].].].]._._.I.P._._.",
"_._._._.].]._.].].].]._.].].]._._._._._._.]._._.].].].).#.U.P.%.I.].[._._._._._._._._._._._._.].].].].].].]._.]._.'._._._._.].]._.].].].].].].]._.[._.%.(.$.$.^.",
")._._._._.].].]._.].)._.[.]._._._._._._._.)._._.].].].).%.)._.P.`.|.T.Y.|.)._._._._._._._.].].].].].].].].].]._._._._._._._._._._.]._.]._.].].]._.].'.$.'.].$./.",
"_._._.].].].].]././.#.^.I.].]._._._.]._._._._.].].].]._.]._._.|.j 9 e 5 g .X'._._._.]._._.].].].].].].].].].]._._._._.]._.]._._._.].].].].].].]._._.].[._._._._.",
"]._._.].].].]. X$.%.).(.#.].]._._._._.].].].].].].].].]._._. Xd 5 ' ( _ 7 j .X]._._._._._.].].]._._.].].].]._.].].].].].]._.].].].].].].].].].].[._.].]._._._._.",
"]._.].].].].].].'.'.]._.'.].].].].]._.].].]._.].].].].]._.|.o.5 _ ( ( `  .5 o.|._._.].].].].].]._._._.].].].].].].].].].].).).].].]._._.].].].]._._.].]._.].].].",
"].].].].].].].].].]._._.].].].].].].].].].].].].].].].]._..Xg 7 _ ( _ _  .` 9  X]._.].].].]._._._._.].].].].].].].].].).).#.I.).]._._.].].].].]._._.].].].].].].",
"].].].].].].].].].].].]._.].].].].].].].].].].].].].].]._.[.L.; 7 _ _ _ _  .7 ] .X]._._._.].[.].].].].].]._._._.].].].U.%.I.P.#.].].].].].].].].].].].].].].].].",
"].].].].].].].].].].].].].].].].].].].].].].].].].].].]._.}.[.G.h $ 7 ( _ ` ` 0 [.{._.]._._.^.(. X].].].]._._.[.].].].'./.].).I.].].].].].].].].].].].].].].].].",
"].].].].].].].].].].].].].].].]._.].].]._.].].].].].].].].].].|..XL.9 5 ( _  .8 T._._.].).$.P.$.$.).].].].].].].].].].].]._._.].].].].].].].].].].].].].].].].].",
"_._._._._._.]._.].].].].].].]._._._._._._._._._._.].].].]._.Y._.[.OXoX0 e (  .8 T.oX].].).%.'._.%./.[._.].].].]._._._._._._._._._._.].].].].].].].].].]._._._._.",
"].].].].[._._._._.].].].].].].].].].].]._._.]._._._._._._.[.XX[.L.g f ; 5 ( ` e s o.Y.OX.X]._._.]._._.].].].].].].].].]._._.].].].].].].].].].].].].].].].].].].",
"_.]._._._.]._.[.].].].].].].]._._._._._.].`.U.).[._._.[.OXL.d ; = r :.y $ 7 ' 5 y t : 9 X.].XX_._.].].].]._.].]._._._._._._._._.].].].].].].].].].].].].].].).].",
"_._.]._._._.$.'._.].].].].].]._.].].].].^.P.%.U.$._.oXL.9 % p c.A.A.A.n.p t t J N.A.D.,.r ; g ]..X_._.]._._.].].]._._._._._._._.].].].].].].].].].].].].].]._.].",
"_._._.].$.P.$.P.$.]._.].].]._._._._._.].(.$.].I.-.|.0 & :.S.A.A.Z.V.A.A.A.A.A.A.C.C.A.A.A.c.i - X.XX]._.].[._._._._._._._._._._.).].].].].].].].].].].]._._._._.",
"_._.).].U.I.]./.P.].].].].]._._._._._._._._.).XX@.o i S.A.A.A.m.g.V.A.l.V.A.A.A.Z.m.A.A.Z.A.A.c.6 0 [..X^.'.`._._._._._._._._._._._.].].]._.].].].].].]._._._._.",
"_._._.]._.].].]. X]._.].]._._._._._._._._.Y.oXg & ,.A.m.M.Z.l.d.v.A.v.g.C.A.A.A.A.V.V.A.A.S.m.Z.A.F $ L.-.$.^._._._._._._._._._._.]._.].].]._._.].].].]._._._._.",
"_.].'.]._._.].].].].[._._.].]._._._._._.'.XXf % D.A.g.b.Z.k.g.g.V.M.g.g.M.A.A.A.A.A.l.M.M.m.Z.v.m.A.,.$ o.{.&._._._._.'._.)._._._._.].].]._.].'.].U./._._._._._.",
"_._.].]._._.].].].].'._.].]._._._._._.).XXd * A.C.y.z.A.k.d.k.f.C.k.k.k.l.A.A.A.A.A.N.z.v.l.m.Z.l.v.A.c.& @.[.)._._._._._._._._._.]._.].]._.[.'.$.$.(.$.'._._.'.",
"_._._._._.].].].'.).#./.)._._._._._._.XXg % S.M.d.h.C.k.d.g.g.j.M.d.k.k.k.m.A.A.A.A.C.a.b.v.v.M.N.z.l.Z.c.& G.|._._._._._._._._._._.].]._._.].'.$._._.$.'._._._.",
"_._._._.]._._. X$.$.^.P.#._._._._._.|.@.& D.M.d.h.B.b.d.g.k.t.n.l.g.k.k.l.l.m.Z.A.V.M.j.l.b.v.v.V.j.z.l.Z.c.o Y.]._._._._._._._._.]._.].]._._.[.`._.].]._._._._.",
"_._._._._.]._.].'./. X'.I._._._._._._.o x.V.u.d.e.M.d.d.g.k.e.n.g.g.k.k.l.l.v.v.m.v.b.n.a.b.v.v.v.M.s.v.z.Z.,.; |._.].]._._._._._._.].].]._.].]._.].].]._._._._.",
"_._._._._.].].].].].].].]._._._.Y.XX9 p A.u.g.w.B.l.d.g.g.d.e.b.d.g.k.k.l.l.v.v.b.b.v.N.e.v.b.v.v.m.B.e.b.z.A.i s XXY._.)._._._._.]._.].]._.]._._._.].]._._._._.",
"_._._.]._.[._._.].].].].].]._._.|.o.: Z.d.d.y.7.b.y.d.g.g.h.s.l.d.g.k.k.l.l.v.v.b.v.v.m.s.a.b.v.v.l.M.7.z.v.v.Z.: o..X].].Y. X]._.].].].]._.].].].].].]._._._._.",
"_.]._.]._._._._.].].].].].].]._..X; ,.b.u.g.9.j.k.y.d.d.g.w.j.g.d.g.g.k.k.l.v.v.b.v.v.v.a.e.b.v.v.l.b.j.9.v.k.m.c.;  X_.].].]. X_.].].].].].].].].].].].].].]._.",
"_._._.].[._.].].].].].].].]._.|.{ 6 V.y.g.y.5.z.d.d.g.d.g.9.j.d.d.g.g.k.k.l.v.v.v.v.l.v.n.q.v.v.v.l.l.b.5.f.v.k.V.r g .X_.].Y.U._.]._._.].].].].].].].].].]._._.",
"].].].]._.].].].].].].].]._._..X9 >.v.u.d.w.7.l.y.d.d.g.g.9.f.d.d.g.g.k.k.l.l.v.v.v.v.l.v.5.z.v.v.l.l.v.a.5.v.l.v.c.; ].].-.U.%.P.U.|._.].].].].].].].]._.].]._.",
"_._.].]._._._._.].].].].].].|.I.: N.y.y.d.4.s.g.y.y.d.g.d.5.f.d.d.d.g.k.k.l.l.v.v.v.l.l.v.7.h.v.l.l.l.l.n.4.h.l.g.V.u g XX#.I.].$.U.|._.].].]._.]._.]._._._._._.",
"].].].].].]._._.].].].].].'.oXM i b.u.d.u.4.f.d.y.d.d.d.h.5.g.d.d.g.g.k.k.l.l.l.v.l.l.l.l.e.q.v.l.l.l.l.v.5.q.l.z.v.p.6 .X)._.]._._._._.].].].].].[.].].].].].].",
"].].]. XI./. X_.].].].].].Y.OX0 :.k.y.d.w.4.f.d.d.y.d.g.t.5.g.y.d.g.g.g.k.l.l.l.v.l.l.l.l.s.9.l.l.l.l.k.l.s.4.k.l.k.m.6 G.|.`._.].].].]._.[._.P.].].].].].].].].",
"_.].I.P.$.P.P.).[.].].].].].|.; p.d.y.d.9.5.g.y.y.d.d.d.r.5.h.d.d.g.g.g.k.k.k.v.B.s.l.k.l.f.4.z.l.k.l.k.l.f.4.a.a.k.b.a f XXY._._._.].].].P.P.%.(.P.].]._._._._.",
"].]./.#.'.).#.).]._.].]._.|.Y.; f.y.h.y.9.5.g.y.d.y.d.g.r.5.d.y.d.d.g.g.k.k.k.n.G 8.z.k.k.f.4.f.l.l.k.l.k.f.q.8.8.k.l.>.0 .XY. X]._.]._. X$.(.].U.%.].].].].]._.",
"].]._._.].]._._.].].].]._.|.L.= g.y.y.y.4.q.d.y.y.d.y.d.w.4.h.d.d.d.d.g.g.k.b.a   T e.l.k.g.4.h.l.k.k.k.k.g.s.= S f.k.j.6 ].]. X].].].]._._._.|._._.].].].].].].",
"].].].]._.].].].].].].]._.|.G.1 g.y.d.y.4.9.d.d.d.y.y.d.w.5.y.d.d.d.d.g.g.k.j.s q D I k.k.g.4.e.l.k.k.k.z.k.>.o 4 w.k.k.1 L.|.].].].].]._.[._.].].].].]._._._._.",
"].]._._._.`.]._.].].]._._.[.I.* r.d.d.y.4.9.y.d.y.d.d.d.w.4.u.y.y.d.g.g.g.k.zXJXLXZXH w.k.g.4.e.k.k.k.k.k.l.+XJXxXH g.l.1 o..XY.].].].]._._._._.].].].]._._._._.",
"_._._._._.].]._.].].].]._.].Y.; 4.d.y.y.5.4.y.d.d.d.y.d.r.4.u.d.y.d.d.g.d.F.wXNXLXLXW.U k.g.4.w.k.k.g.k.g.v.NXJXLX<.q.k.< o.[.'._.].].].].].].].].].].].]._._._.",
"_._._._._.].]._.].].].]._._.|.; H d.d.y.9.4.u.d.y.y.y.d.r.4.e.d.d.d.d.d.l.nX8XwXLXBXqXH q.k.4.q.k.k.k.k.k.+X8XKXJX2XY d.< o..X'._.]._.].]._.].].].].].]._._._._.",
"_._._._._.]._.].].].].].]._.XXd y u.y.d.9.4.r.d.y.y.d.d.u.4.w.y.y.y.h.g.a.VX0X4X<X<X9XL I h.4.q.k.k.g.g.k.hX8X6X6X6XU 0.% o.{.).].]._.]._.].].].].].].]._._._._.",
"_._._.]._.].]._._.]._.P.]._.|.@.* 5.0.d.r.3.0.d.d.d.d.y.y.4.9.y.d.d.d.v.% b BXqX4X5X<X. G 4.5.w.g.g.g.k.>.b NX4X5X-X4 U & U.#./.]._.].].]._.].].].].].]._._._._.",
"_._._._._.]._._.].P.P.%.(.U.]..X; S w.9.y.4.5.y.d.y.y.d.y.9.R ~.~.R R g.F F @XjX3X3Xa u >.7.3.w.g.g.h.l.:.1 jXwX3X6 ~ H 0 .X^.)._._._.].]._.].].].].]._.]._._._.",
"_._._._.].]._.].].$.^.].P.P.].[.L.X Y 9.9.w.4.0.k.l.d.y.d.0.! IXgXQ E R k.k.k.k.k.g.k.k.l.d.9.h.k.k.g.g.k.g.3.d.y.kXgXE K `._._._.].].].]._.].].].].]._._._._._.",
")._._._._.].]._._._._._._.]._._.XXg * 9.5.3.5.4.g.m.l.y.d.u.P Q Q Q E A 0.g.J J 8.h.d.h.8.H H 8.6.7.7.e.d.5.I 3.R ,X,XA K `.)._._.].].].].].].].].]._._._._._._.",
"_._._._.].]._._.].].].]._._._._.)..Xh @ 5.0.4.4.9.k.l.y.y.d.9.T P P P R h.l.F   2 t.l.p.              H y.g.i y 5.P 4 K T.]._._._.]._.].]._.].].]._._._.].)._._.",
"_.].)._._.]._.].].].].]._.].]._._._..Xg + H w.9.4.4.r.d.d.d.u.4.0.y.d.d.d.y.l.p . @ < =               * 3 1 D 9.3.+ f .X X X XY.].].].].].].].].]._.]._._._._._.",
"].].]._.].].].].].].].].].].].].].].)..Xo.- 2 I w.9.4.9.r.y.d.r.4.0.y.d.d.d.y.l.>.%                     . F s.G X g XX]. XY.]. X].].].].].].].]._._.%./.)._._._.",
"_._._.].].].].].].].].].].].].].]._._.].|._.d & 2 H 0.r.9.9.9.r.9.3.5.u.y.d.d.y.k.l.>.u = & . O O % t J e.U 3 - o..XY. X_.]._._.].].].].]._.]. XP.%.(.P.#._.].].",
"].].].].].].].].].].].].].].].].].]._._._._.OX[.g - @ 4 G 3.9.9.w.0.9.9.w.w.u.r.w.9.0.u.f.a.7.7.e.e.8.S < - f `.|._.].].].].].].].].].].].].].]./.I.`.'.U.].].].",
"_.]._._.]._.].].].]._._._.].]._._._._._._._.).[ ] ] ) w ; X < 2 y S H U U I Y Y 4.Y Y U H H S D 2 < - 9 =./.OX_._._._._._._._._.].]._.$.].]._.].].[.].].].].].].",
"]._._.].].].].].].).]._._.].].]._.].]._.].[.).0 5 /  ...} e #Xe 5 5 $ o # % & % + + & ; ; ; 9 s ] L.(.{.(.P.%._._._._.].]._._._. X$.U.%.(.P.[._.].].].]._.].].].",
"].].].].].].].'.'.#.I.'._.].].].].].].].[.).W.FXW.8 / ` / e &X;. ...} b b ` / / 5 ; Y.Y. X|..X.X.X|./.$._._.%.'.].].].].].].].].`.$.^.].P.P.]._.].].].].].].].].",
"]._.].].].].|.U.%.I.(.#.].].]._._._._.[.L.hXbXcXcXf ^ / 7 5 &X;./ ` } n %X/ / w uXuXJ.|._.].].].]._.`._.].].].[._.]._._.]._.]._._._._.]._._._._.].].].].]._.]._.",
"_.].]._._.].].Y./.].].(._.].]._._._.].K.uXFXcXkX!.k 5 7 7 e &Xw / / / n %X^ 7 W.vXvXhXY.[._.].].].].].]._.]._.]._._._.]._._._._._._.].].].].].].].].].].].]._._.",
"].].].].].].].]. X_._.[._.].].]._.]..Xo.aXSXlX+X<.h $ e ^ e $Xw / / ^ v b 5 = <.+XlXDXuXT. X].].].].].].].].].].].].].].].].[._.].].].].].].].].].].].].].].].].",
"].]._._.].].].]._.[.].].].].].]._.].K.N iXyX~.!.1.J.x &X#XZ ;Xb ;X;Xc Z x [ d L !.lXSXFXL. X].].].].].].].].].].].].]._.].]._.]._._.].].].].].].].].].].].]._.].",
"_._.]._.).].].].].].].].].].]._._._.O.HXLXIXiXj _.G.c #X&XB B &X=X:X#XZ x /..XG.!.+XfXsX+.|.].]._._.].].].].].]._._._.].].].'./.`.]._.].].].].].].].].]._._._._.",
"_._._._._._._.].].].].].].].].].].H.yXLXPXPXIX*.).o.c %X*X&Xv #X$X$X%X&Xn ). XY.j uXCXCX*.J. X].].]._.].].].]._._._._._._.P.P.#.U./.].].]._.].].].].]._._._.].].",
"_._._._.].].]._.].].].].].].].'.[.J.*.tXrXxXaXX.oXX.l $X*X:Xv *X7X7X$X$X[ XX].G.rXLXLXLXGX+..XY.].].].].].].]._._._._._._.#.I.).%.P. X].].].].].].].]._._._._.'.",
"_._._._._.].]._.].].].].].].].Y.}.O.W.lXkXtXMXo.| b 1X*X$X*Xv %X:X*X%Xv m 1.OX@.*.HXaXCXZXO. X].].].].].].]._._._._._._._.)._.].).].].].]._.].].].].].]._._.].].",
"_._._._._.]._.].].].].].].].].|.J.iXCXuXtXaXLXCXx 7X=X*X#X$X#Xv b v c %X7Xn { E.mXaXW.fXE.L. X].].].].].].].]._._._._._._._._._._._.].]._.].].].].].].]._.)._._.",
"_._._.).].]._.].].].].].].].].|.o.AXLXPXIXIXeXMX2X=X:X*Xv z c v c c #X=X1X=XZ PXPXaXW.lXW.O.^.`.].].].].].]._._._._._._._.)._._._.].].].].].].].].].].]._._._._.",
"_._._._.]._.].].].].].].].].Y.|.o.pXHXZXHXMXN W l :X*X#Xx o.@.@.1.z %X&X=X1XZ *.rXPXAXaXCXyX&. X].].].].].].]._._._._._._._._._.).]._.].].].].].].].].]._._._._.",
"_._._._._.].[.'.].].].].].].].[.K.O.V MXiXUXsX~.s v $Xl { .X[.[.XX{ l $X*Xl k W.V IXKXLXLXiXG. X_.].].].].].].]._._._._._._._._._.].].].].].].].].].].]._._._._.",
"_._._._._.)./.#.'.Y.].].].].].]._.).o.N s pXrXk kX1 l M |.'._._.).XXf c z Q.W W.KXaXAXCXZX*.).].].].].].].].].].Y._._._._.`.)._._.]._.].]._.].].].].]._._.'._._.",
"_._.]._.].%.P.I.$.$. X].].].].].].].|.]. Xg eXDX+XL 9  X]._.].].].].].q & +X~.V iXd eXN C G.|.'._._.].].].].]._._._._._._._._._._.].].].].].].].].].]._._._._._.",
"_._.]._.].I.).]./.I.].].].].].].].].].].|.@.xXvX+X[ ]. X_.].].].].].|.Y.j ~.vXAXM (.@.U.Y.[.`.`.]._.].].].].]._.].].]._.].]._.]._.].].].]._.].].].].[._._._._._.",
"_._._._.].].]._.].].].].].].].].].].].Y.|.+.xXbX~.[  XK.].].].].]._.]..X@.<.lXDXE.).|.].[._.].].].].].].].].]._.]._._._._._.].]._.].].].].].].]._._.$./._._._._.",
"_._._.].]._.].].].].].].].].].].].].].].|.L.DXcX~.| .X X].].].].].].].[.J.2.lXDXyXH.[.].].].].].].].].].].].].].].].].].].].].].].].].].].].].].U.%.P.P.#._._.[.",
"].].].].].].].].].].].].].].].].].]._. XJ.M dXW.j &.'.).].].].].].].]._.{.L ~.nXR.1.|._._.]._._.].].].].].].].].].].].].].].].].].].].].].].].]./.U.[.'.$._.].].",
"]._._.].].].].].].].].].].].].].[.|.}.}.N AXGXKXiXX.-.U. X].].].].].].[.).C sXsXaX*.}.XX.X]._._.].].].].].].].].].]._.]._.].].]._.].].].].].].].].]._.].[.]._.].",
"].].].].].].].].].].].].].].]. XY.g N C > m C W C G.{.'.].].].].].].].[.K.*.GXGXHXC s M [ K.|.'.[._.].].].].].].].].].].].].].].].]. X].].].].].].]._._._.].].].",
"]._.].].].].].].].].].].].].[.J.M MXLXLXUXm # > > X. X].].].].].].]._.[.J.> > , , eXZXGXpXM @.(.'._.].].].].].].]._.].]._.]._.].].].).].].].].].].].].[._._.].].",
"_._._._._._.].].].].].]._._.`.d ZXLXLXLXIXIXZ o >XrXG.|._.].].].].].].).O.eX> , mXLXLXLXLXHXm P.%.^.].].].].].].]._._._._._._.].).).#./.).`._._._.].[._._._.]._.",
"].].].].].].].].].]._._.`.{.@.eXLXLXLXPXHXHXCX, > m G.|._.].].].].].].Y.N Z , rXPXIXPXLXLXLXpX[ {./.].].].].].].].].].].]._.].].%.$.^.U.#.]._._._.]._._.].].].].",
"_._.]._.].].].].].].]./.$.(.g V iXeXeXeXrXrXrXm # o X.|._.].].].].].[.Y.+   # rXrXeXiXiXiXiXrXf .X_.].].].].].]._._.]._._._._._./.).].'.).].].].].].].].].]._._.",
"_._._._.].].].].].]. X/.%.[.d eXAXCXpXaXaXaXaXCXCXeXf |._.].].].].]..X[ Z sXpXpXiXpXiXiXpXCXiXm ).].].].].].].]._._._._._._._._.].]._.].].].].].].].].]._._._._.",
"_._._._.].].]._.].].].].).|.X.M O.O.O.O.O.X.N O.X.M o.|._._._._.].].[.o.M R.R.R.R.R.R.R.R.yXE.M `._.].].].]._._._._._._._._._._._.].].]._._.].].].].].].].]._._.",
"_._.'.].].].]._.].].].].]._.[.`.`.`.`.`.`.]. X`.].|.[._._._.]._.].].].].Y.H.H.H.H.H.H.H.H.J.H._.]._.].].].].]._._._._._._.)._._._.].].].]._.].].].].].].]._.'._.",
"_._._.]._._._.].].].].]._.]._._.]._.).].].].Y._._.]._._._.].].].].].].'.].].[._.].].].[.[.[.].].].].].].].]._._._._._._._._._._._.]._.].].].].].].].]._._._._._.",
"_._._.].].].]._.].].].].].]._._._._._._.].].]._._.].]._._.].].].].].].].].]._._._._._._.Y.].].].].].].].].].]._._._._._._._._._._._._.].]._.].].].].].]._._._._."
};
