/* XPM */
static char *New_Project__7__resized[] = {
/* columns rows colors chars-per-pixel */
"80 80 256 2 ",
"   c #000100",
".  c #0B0800",
"X  c #091100",
"o  c #181905",
"O  c #150F0C",
"+  c #26180A",
"@  c #1B2614",
"#  c #16320F",
"$  c #282606",
"%  c #3A3A02",
"&  c #242C14",
"*  c #293618",
"=  c #342E0A",
"-  c #132F32",
";  c #2F2E2E",
":  c #121826",
">  c #472A00",
",  c #423900",
"<  c #683900",
"1  c #144E14",
"2  c #324312",
"3  c #176D12",
"4  c #344924",
"5  c #344F2A",
"6  c #236F2C",
"7  c #585400",
"8  c #53450B",
"9  c #7B4901",
"0  c #745402",
"q  c #696800",
"w  c #7A6A00",
"e  c #767300",
"r  c #7C7800",
"t  c #43592C",
"y  c #4B5A2D",
"u  c #47632C",
"i  c #4A6736",
"p  c #5A773A",
"a  c #536B37",
"s  c #637A39",
"d  c #776F32",
"f  c #6D592B",
"g  c #183251",
"h  c #162F47",
"j  c #315155",
"k  c #347652",
"l  c #1A4473",
"z  c #24476B",
"x  c #2F5472",
"c  c #336A65",
"v  c #52554B",
"b  c #5B6E4A",
"n  c #697351",
"m  c #777677",
"M  c #696766",
"N  c #5B5D65",
"B  c #D53A30",
"V  c #C43115",
"C  c #9C5C00",
"Z  c #965601",
"A  c #895000",
"S  c #AE5E00",
"D  c #856801",
"F  c #9B6E00",
"G  c #A76402",
"H  c #B76900",
"J  c #A87402",
"K  c #BE7400",
"L  c #A36A16",
"P  c #996D27",
"I  c #CD7D00",
"U  c #C47700",
"Y  c #D57800",
"T  c #D0700A",
"R  c #E17800",
"E  c #D55327",
"W  c #D54B1B",
"Q  c #E94C52",
"!  c #E74E5E",
"~  c #8F7D59",
"^  c #239312",
"/  c #2BAD14",
"(  c #1E8F22",
")  c #248625",
"_  c #289927",
"`  c #2AA52A",
"'  c #35B72A",
"]  c #1B9113",
"[  c #568D3A",
"{  c #6D8A3B",
"}  c #47BA31",
"|  c #79A13C",
" . c #31C531",
".. c #4FC237",
"X. c #6B8946",
"o. c #789846",
"O. c #738555",
"+. c #718F48",
"@. c #7BA34A",
"#. c #74B956",
"$. c #7CBC56",
"%. c #77BA58",
"&. c #72B052",
"*. c #788A6A",
"=. c #578842",
"-. c #6EC355",
";. c #938C00",
":. c #BA8B01",
">. c #B99816",
",. c #A7A600",
"<. c #B5B500",
"1. c #B4A000",
"2. c #B08E38",
"3. c #9CA036",
"4. c #D78400",
"5. c #DA8500",
"6. c #DD8A00",
"7. c #D58A00",
"8. c #DB9601",
"9. c #C99502",
"0. c #E38C00",
"q. c #E78A00",
"w. c #F78900",
"e. c #E39300",
"r. c #EB9301",
"t. c #EB9A01",
"y. c #E59C00",
"u. c #F29600",
"i. c #F49B00",
"p. c #FC9E00",
"a. c #F89502",
"s. c #D6A900",
"d. c #CEA907",
"f. c #E9A800",
"g. c #FEA200",
"h. c #F5AC00",
"j. c #FEAC00",
"k. c #F3A500",
"l. c #EBB600",
"z. c #FEB300",
"x. c #FEBC00",
"c. c #F5B600",
"v. c #CECD00",
"b. c #D4D500",
"n. c #FEC300",
"m. c #FECB00",
"M. c #F5C700",
"N. c #FED400",
"B. c #FDDB00",
"V. c #F6D500",
"C. c #EECD08",
"Z. c #FEE300",
"A. c #FFEB00",
"S. c #F5E500",
"D. c #FEF400",
"F. c #FFFE01",
"G. c #EBEC00",
"H. c #E4CE34",
"J. c #85AA49",
"K. c #8DB849",
"L. c #93BC4D",
"P. c #83BE56",
"I. c #8BBD55",
"U. c #88B956",
"Y. c #94BB54",
"T. c #88AD52",
"R. c #889376",
"E. c #899072",
"W. c #A9966C",
"Q. c #B0A173",
"!. c #989559",
"~. c #D8AC4D",
"^. c #DCB15F",
"/. c #8CC156",
"(. c #8CC158",
"). c #85C258",
"_. c #95C356",
"`. c #9AC457",
"'. c #9CC954",
"]. c #95C358",
"[. c #9BC558",
"{. c #9ECA5A",
"}. c #93CA5B",
"|. c #97C551",
" X c #A2CD5B",
".X c #A0C857",
"XX c #A5D15C",
"oX c #A9D55E",
"OX c #A9D85E",
"+X c #B6CD55",
"@X c #ADDB61",
"#X c #9AD46B",
"$X c #F9D14E",
"%X c #F7CB6C",
"&X c #FFE448",
"*X c #2D5887",
"=X c #2F5A89",
"-X c #376797",
";X c #35628D",
":X c #3669A5",
">X c #3B73A9",
",X c #3E77B3",
"<X c #365EAC",
"1X c #427CB8",
"2X c #4B6F9B",
"3X c #457DC2",
"4X c #847C83",
"5X c #F17C9D",
"6X c #048EB2",
"7X c #4B8DB5",
"8X c #00BBF8",
"9X c #00BBED",
"0X c #4482C5",
"qX c #00C7FC",
"wX c #15C5EF",
"eX c #31D4FB",
"rX c #4DD9FF",
"tX c #52E8FF",
"yX c #64E0FF",
"uX c #969595",
"iX c #908F8B",
"pX c #B2AC94",
"aX c #9B98A1",
"sX c #A7A6A8",
"dX c #B8B6B9",
"fX c #AFADAF",
"gX c #9EA195",
"hX c #D2B98C",
"jX c #E6AFA6",
"kX c #A4E6B0",
"lX c #F8D98E",
"zX c #FFE994",
"xX c #FFE596",
"cX c #D7CAB5",
"vX c #EDD3B1",
"bX c #FFF6AB",
"nX c #FFF4B4",
"mX c #FEE8B2",
"MX c #C6C998",
"NX c #BFBCC4",
"BX c #C1BEC7",
"VX c #FFACCA",
"CX c #A9DDE4",
"ZX c #C6C4C9",
"AX c #D6D6D9",
"SX c #D6D0CF",
"DX c #FFF5C9",
"FX c #FFF8D9",
"GX c #F0E8DA",
"HX c #E1DEE6",
"JX c #DAF4F4",
"KX c #E8E8EA",
"LX c #FDFEFE",
"PX c #F4F4F6",
"IX c #ECEFEF",
"UX c #E4DCD9",
/* pixels */
"`.`.`.`.[.[.`.`.[.[.`.`.`.`.[.`.`.`.`.`.`.`.`.`.`.`.`.`.[.[.[.[.[.[.`.`.`.`.`.`.`.`.`.`.[.`.`.[.[.[.[.[.[.[.[.`.`.`.`.`.`.[.[.].`.[.`.[.[.[.[.[.[.[.`.`.[.[.`.`.",
"`.`.`.`.`.[.`.[.[.[.`.`.`.[.`.`.`.`.`.`.`.`.`.`.`.`.`.`.[.P.P.[.[.[.`.`.`.`.`.`.`.`.`.`.`.[.[.[.[.[.[.[.[.[.`.[.`.`.`.`.[.[.`.[.`.`.[.[.[.`.[.[.[.[.`.[.I.P.`.`.",
"`.`.`.`.`.[.[.[.[.[.[.`.[.[.[.`.`.`.`.`.`.`.`.`.`.`.[.].#.P.).%./.'.`._._.`.`.`.`.`.`.`.`.`.`.[.[.[.[.[.[.[.`.`.`.`.`.`.`.`.`.`.`.[.`.[.[.`.[.[.[.[.`.%.).$.$./.",
"_.`.`.`.[.[.`.[.`.[._.`.{.[.`.`.`.`.`.`.].`.`.`.`.`.[.`.$.].`.$._.`.`. XXX.X_.`.`.`.`.`.`.[.`.[.[.[.[.[.[.[.`.`.`.`.].`.`.`.`.`.`.[.[.[.[.[.[.[.[.`.`.$.].[.$.(.",
"`.`.[.`.[.[.[.[.(.(.#.(.I.[.[.`.`.`.`.[.`.`.`.[.{.`.[.[.[.`.`.[.`.{..X+.p o. XY.[.[.[.`.`.[.[.[.[.[.[.[.[.[.`.`.[.[.[.[.`.[.`.[.[.[.[.[.[.[.[.[.[.[.[.[.[.`.`.`.",
"[.`.`.[.[.[.[..X$.%._.).#.`.[.`.`.[.[.`.[.[.[.[.`.`.[.[.[.[.`.`.XXo.2 1 3 1 s oXY.[.`.`.`.[.[.[.[.[.[.[.[.[.`.`.`.[.[.[.[.`.`.[.[.`.[.[.[.[.[.[.[.[.[.[.[.[.].'.",
"[.[.`.[.[.[.[.[.].].[.`.].[.[.[.[.[.`.[.[.[.`.[.[.[.[.[.[.[.`.{.o.# ) ` _ ' 1 +. X[.[.[.[.[.[.[.[.[.[.[.[.[.[.`.[.[.[.[.[._._.[.`.`.[.[.[.[.[.[.[.[.[.[.[.[.[.[.",
"[.[.[.[.[.[.[.[.[.[.`.`.[.[.[.[.[.[.[.[.[.[.[.[.[.[.[.[.[.[.`.XX5 ( _ _ ` '  .1 Y.{.`.[.[.[.`.`.[.[.[.[.[.[.`.`.[.[.[.]._.#.U._.`.[.[.[.[.[.[.[.[.[.[.[.[.[.[.[.",
"[.[.[.[.[.[.[.[.[.[.[.[.[.[.[.[.[.[.`.[.[.[.[.[.[.[.[.[.[.[.[.XX5 3 ` ` ` `  .` t  XY.{.[.[.[.[.[.[.[.[.[.[.[.[.[.`..XP.$.I.P.#.[.[.[.[.[.[.[.[.[.[.[.[.[.[.[.[.",
"[.[.[.[.[.[.[.[.[.[.[.[.[.[.[.[.[.[.[.[.[.[.[.[.[.[.[.[.[.[.[.{.J.2 3 _ _ _ `  .6 J.{.[.[.'.(./.[.[.[.[.[.[.[.[.[.`.[._.I.[.].P.[.[.[.[.[.[.[.[.[.[.[.[.[.[.[.[.",
"[.[.[.[.[.[.[.[.[.[.[.[.[.[.[.[.[.[.`.[.[.[.[.[.[.[.[.[.[.[.[.[. X`.b # 3 _ `  .) s XX[.].$.P.$.P.(..X`.[.[.[.[.[.[.`.[.[.`.[.[.[.[.[.[.[.[.[.[.[.[.[.[.[.[.[.[.",
"`.`.`.`.[.[.[.[.[.[.[.[.[.[.[.`.`.`.`.`.`.`.`.`.].[.[.[.[.[.[.`.`.`.XX_.4 1 _ ' ` i XXY.].%.].`.$.(.[.`.[.[.[.[.`.`.`.`.[.[.[.[.`.`.`.[.[.[.[.[.[.[.[.[.`.`.`.`.",
"`.[.[.[.[.[.[.[.`.[.[.[.[.[.[.[.[.[.[.[.[.[.[..X[.[.[.[.[.[.Y.[. XXXXX@XJ.# ) ` _ u @X.X`.`.[.[.[.[.`.[.[.[.[.[.`.[.[.[.[.[.[.[.[.[.[.[.[.[.[.[.[.[.[.[.[.[.[.[.",
"`.`.`.`.[.[.[.[.{.[.[.[.[.[.[.`.`.`.`.[.[.[.P.I.[.[.[.[.[.{.oX X@.p 5 * * # ) ` ` # p J..XoX[.[.[.[.[.[.[.[.[.[.`.`.`.`.`.`.`.`.[.[.[.[.[.[.[.[.[.[.[.[.[.[.`.`.",
"[.`.`.[.[.`.$.].`.`.[.[.[.[.[.`.[.`.[.[.(.P.$.P.$.[.[.[.@XY.i & % e ,.v.s.> 1 3 3 < w 2 * a Y.oX[.`.[.[.`.[.[.`.`.[.`.`.`.`.`.`.`.[.[.[.[.[.[.[.[.[.[.[.[.[.`.[.",
"`.[.[.[.$.$.$.P.$.[.`.[.[.[.`.`.`.`.`.[.I.$.[.I.%.[.oXY.5 $ e v.F.F.F.F.D.C.D e F C.F.F.v.e $ i `.XX`.`.{.[.`.`.`.`.`.`.`.`.`.`.`.[.].[.[.[.[.[.[.[.[.[.`.`.`._.",
"`.`.`.`.P.I.[.(.P.[.[.[.[.[.`.`.`.`.`.`.`._.`.`.[.@Xb o e G.F.F.F.Z.M.D.F.D.F.F.F.F.B.F.F.F.G.e & X.OX'./._.'.`.`.`.`.`.`.`.`.`.`.`.`.[.[.`.[.[.`.[.[.[.`.`.`.`.",
"`.`.`.`.`.[.[.[.[.[.[.[.[.[.[.`.`.`.`.`.`.`._..X{.* 8 b.F.A.D.D.n.g.Z.F.x.m.F.D.F.F.B.D.F.F.D.F.b., 5 }.$.P./.`.`.`.`.`.`.`.`.`.`.[.[.[.{.`.[.[.[.[.[.[.`.`.`.`.",
"`.`.`.`.`.`.[.[.[.[.[.[.[.[.`.`.`.`.`.`.`.Y. XK.@ e F.A.z.A.Z.j.g.x.F.n.g.B.F.F.F.F.D.B.F.F.F.B.A.F.e @ U.[.#.`.`.`.`.`.].`.`.`.`.[.[.[.`.`.[.`.[.P.(.{.`.`.`.`.",
"`.`.`.`.`.[.[.[.[.[.`.[.[.[.[.`.`.`.`.`._. XT.o ,.F.n.p.Z.Z.g.j.j.B.B.j.z.n.F.F.F.F.F.M.m.Z.N.D.m.N.F.,.@ T.'.`.`.`.`.].`.`.`.`.`.[.`.[.`.[.{.(.$.$.P.%._.`.`.`.",
"`.`.`.`.`.`.`.[._.].#.(._.`.[.`.`.`.`._. XJ.O <.F.z.p.V.Z.g.j.j.k.S.z.j.z.z.A.F.F.F.F.S.c.n.x.N.D.n.M.F.<.@ T. XY.`.`.`.`.`.`.`.`.[.`.[.[.`.[.].$.`.`.$._.[.`.`.",
"`.`.`.`.`.[.[..X$.$.).P.#.`.[.`.`.`.`.[.Y.@ <.F.g.p.f.Z.g.j.j.j.l.N.g.z.z.z.n.D.F.F.F.D.l.m.m.x.B.S.z.n.F.<.@ I.{._.`.`.`.`.`.`.`.`.`.[.[.[.[.`.[.[.[.[.`.`.`.`.",
"`.`.`.`.`.[.[.[.].(..X].I.`.[.[.`.`._.XX& ;.F.i.g.t.V.z.g.j.j.i.M.x.j.z.z.x.x.n.A.F.A.N.l.x.m.m.x.Z.l.c.x.F.,.*  X`.`.`.`.`.`.`.`.[.`.[.[.`.`.`.[.[.[.[.`.`.`.`.",
"`.`.`.`.[.[.[.[.[.{.`.`.`.`.[.[.`._.oXi 7 F.g.j.u.l.m.p.j.j.j.e.M.j.j.j.z.x.n.x.n.N.n.m.M.f.m.n.n.n.Z.f.n.n.F.q t oX_.`.`.`.`.`.`.[.`.[.[.[.{.`.[.[.[.[.`.`.`.`.",
"`.`.`.`.[.[.`.`.`.[.[.[.[.[.[.`.`..XJ.$ D.z.p.g.6.V.g.g.j.j.g.f.M.g.j.z.z.z.x.n.m.m.m.n.N.y.n.n.n.x.N.l.k.n.n.F.% +.XX`.`.`.`.`.`.`.`.[.`.[.[.[.[.[.[.[.`.`.`.`.",
"`.`.[.[.[.[.[.[.[.[.[.[.[.[.[.[._.XX& ,.N.a.g.r.f.n.p.g.g.z.u.f.z.g.j.j.z.x.x.n.n.n.n.n.m.f.c.m.n.n.n.N.8.x.x.B.v.& [.[.`.`.[.[.`.`.[.[.[.[.[.[.[.[.[.[.[.[.`.[.",
"[.`.`.`.[.[.[.[.`.`.[.[.[.[.[.Y. XX.8 A.a.g.g.6.M.g.g.g.g.j.0.l.j.g.j.z.z.z.x.n.n.m.n.n.m.f.f.m.n.n.x.N.f.y.m.z.D.q i OX`.[._.P.`.`.[.[.[.[.[.[.[.[.[.[.[.[.[.`.",
"[.[.[.[.[.`.[.[.`.{.[.[.[.[.[.[.XX* <.x.p.g.r.8.x.p.g.g.g.j.0.c.g.j.j.j.z.x.x.x.n.n.n.n.n.c.e.n.n.n.x.n.M.6.z.n.x.S.= I..X$.P.$.P.I..X[.[.[.[.[.[.[.[.[.[.[.[.[.",
"`.`.`.`.`.`.[.[.`.`.[.[.[.[.]. Xo.2 N.p.g.p.5.f.j.p.g.g.g.g.6.h.g.g.j.j.z.x.x.x.n.n.n.x.x.x.6.c.n.n.x.x.m.8.t.n.z.Z.r y oX#./.[.$.P..X[.[.[.[.[.[.[.[.[.[.`.`.`.",
"[.[.[.[.`.[.`.`.[.[.[.[.[.[.[.oXt ;.x.p.g.u.4.h.g.p.g.g.j.i.8.j.g.g.j.j.z.z.x.x.n.n.x.n.x.n.8.h.n.x.x.x.n.l.5.z.x.n.C.* Y.[.`.[.`.`.[.[.[.[.[.[.[.[.[.[.[.[.[.[.",
"[.[.[..XI.(..X`.{.[.[.[.[.[.[.{.* s.j.p.g.q.6.z.p.g.g.g.j.t.6.j.p.g.j.j.z.z.x.x.x.x.x.x.x.x.8.k.n.x.x.x.x.x.4.k.n.z.B.q p XX`.`.[.[.[.[.[..X`.P.[.[.[.[.[.[.[.[.",
"`.`.(.P.$.P.P.].`.`.[.[.[.`. XT.% c.p.g.p.6.e.j.p.p.p.g.g.r.e.g.g.g.j.j.j.z.z.x.x.m.x.x.x.x.e.t.x.x.x.x.z.n.6.e.x.z.m.1.4 XX`.`.`.`.[.[.[.P.).%.P.P.[._.`.`.`._.",
"[.[.(.#.]._.#.].[.`.[.[.'._.XX{ 7 x.p.g.a.4.t.g.p.g.p.g.g.0.e.g.p.g.g.j.z.z.z.z.m.s.k.x.z.x.y.0.n.x.x.z.z.x.y.4.c.x.z.M.2 Y.[.[.[.[.[.`.[.$.(.`.P.%.{.`.[.[.[.[.",
"[.[.[.`.[.[.`.[.[.[.[.[.`.|. Xk w j.p.g.u.4.t.g.p.p.g.g.g.0.e.g.p.g.g.j.j.z.z.n.d.C 8.x.z.x.t.6.x.z.z.x.z.z.f.0.s.t.z.m.7 X.XX`.[.[.[.[.[.[.[..X`.`.[.[.[.[.[.[.",
"[.[.[.[.[.[.`.`.[.[.[.[.[.`.XXi A j.p.g.t.4.t.g.g.p.g.p.g.0.0.g.g.g.g.j.j.z.z.M.. + I j.z.z.t.5.z.x.x.z.z.z.h.9.D 5.z.n.D a oX`.[.[.[.[.[.[.[.[.[.[.`.[.[.[.[.[.",
"[.[.`.`.[.[.[.`.[.[.[.[.[.].oXp 9 j.p.p.r.4.r.g.p.g.g.g.g.6.q.g.p.g.g.j.j.z.m.2.N v G 6.z.z.k.4.j.x.z.z.z.z.z.w   H h.n.:.5 oXY.[.[.[.[.[.[.[.[.[.[.[.[.[.[.`.[.",
"`.`.`.`.`.[.`.[.[.[.[.[.[.`. X=.< g.g.g.r.4.r.g.g.p.g.p.g.0.0.p.g.p.g.j.j.j.C.JXLXLX^.U j.z.u.5.h.z.z.z.z.j.n.Q.iXL t.x.:.4  X].`.`.`.[.[.`.[.[.[.[.[.[.[.`.`.`.",
"`.`.`.`.`.[.`.[.[.[.[.[.[.`. Xo.> i.g.g.u.5.0.g.p.g.p.g.p.0.6.p.p.g.g.g.g.x.kXeXLXLXJXL e.z.t.4.h.z.z.z.j.j.$XJXLXhXI x.K 2 XX].[.[.`.[.[.[.[.[.[.[.[.`.`.`.`.[.",
"`.`.`.`.`.[.`.[.[.[.[.{.[.[.[.Y.$ I i.g.i.5.q.g.g.p.g.p.p.q.5.p.g.p.g.g.g.&XtXqXCXPXrX%.Y j.t.5.h.z.j.j.j.x.kXyXLXAXG z.H 2 }.].[.[.`.[.[.`.[.[.[.[.[.`.`.`.`.[.",
"`.`.`.`.`.[.[.[.[.'.].P.[.[.`.XX4 Z r.p.p.6.5.p.p.g.g.p.p.r.5.a.g.g.g.g.f.!.tXwX6X6X9X7XS t.t.4.j.z.j.z.j.H.eXqXCXeX!.u.C 5 $.(.[.[.`.[.[.[.[.[.[.[.[.[.`.`.`.[.",
"`.`.`.`.`.`.`.`.[.P.P.$.P.P.[. X+.> q.q.p.r.4.u.g.p.p.g.g.r.R w.w.a.p.x.D   dXCXqXqXqX: < I 6.6.j.z.j.j.h.3.yXwX6X9Xn R 9 u }._.`.`.`.[.[.`.[.[.[.[.`.`.`.`.`.`.",
"`.`.`.`.`.`.`.`.'.$./.[.P.P.[.[.XX* A r.5.r.5.0.g.z.g.p.g.i.R jXvXQ E a.s.9.>.OX#X#X3.0 D 8.7.6.h.j.j.j.s.X sXtXqX6X. U > X. X`.`.[.[.[.[.[.[.[.[.`.`.`.`.`.`.`.",
"`.`.`.`.`.[.`.`.[.[.[.[.[.[.[.`.{.U.+ U r.4.6.4.i.N.n.g.p.g.E jXVX! ! B R z.j.z.z.j.z.x.x.z.0.r.j.j.j.g.h.s.9.2.H.9.L E 8 Y..X`.`.[.[.[.[.`.[.[.[.{.`.`.`.`.`.`.",
"`.`._.`.`.[.`.[.[.[.[.[.[.[.`.`.]. Xo.o U r.4.6.0.z.m.g.p.g.q.V B Q B V R z.:.0 J y.g.k.7.I K 7.k.k.j.g.g.p.q.w.q.jXVXQ E L.`.`.`.[.[.[.`.[.[.[.`.`.`.`.`.`.`.`.",
"`.`.`.`.[.[.`.[.[.`.[.[.[.`.[.`.`._.XX+.+ G u.6.4.q.i.g.g.p.p.5.T R R q.p.p.s.  . 4.g.x.o   . . o + o A g.g.:.7 4.E Q B E Y.[.`.[.[.[.[.[.[.[.[.[.[.`.`.[.`.`.`.",
"[.`.[.[.[.[.[.`.[.[.[.[.[.[.[.[.[.`.`. X@.& < Y r.5.4.r.p.g.g.r.Y u.j.g.p.p.j.s.$ . = , .             > C G e A t.G + 3.].].`.[.[.[.[.[.[.[.[.[.].`.%.(.Y.`.[.`.",
"`.`.[.[.[.[.[.[.[.[.[.[.[.[.[.[.[.`.`.[..X[.u $ A I r.0.0.r.i.p.q.4.r.g.p.g.p.j.f.7                       o J u.Z O +.XX`.`.`.`.[.[.[.[.[.[.`.'.P.$.).P.#.`.`.`.",
"[.[.[.[.[.[.`.[.[.`.[.[.[.[.[.[.[.[.[.[.[.[.oXT.t = < H 6.0.e.r.r.5.4.0.p.p.p.p.g.x.9.w % o       . + , J t.U > * J.XX`.`.[.[.[.[.[.[.[.[.[.`.[././..X].P.[.[.[.",
"[.`.`.[.`.`.[.[.[.[.`.`.[.[.[.`.`.`.`.`.`.`.`..XY.b * @ > < C H 6.r.u.r.r.u.u.u.r.q.q.u.i.f.9.:.9.7.y.7.C > @ p  X{.].`.`.`.`.`.[.[.`.$.[.[.[.{.[.[.{.[.`.[.`.[.",
"`.[.[.`.`.`.[.[.{.`.`.[.[.[.[.[.`.[.[.`.`.`. Xu 1 } ....' # h : $ > < A C G H H U I I U U U H G A < = @ 4 =.$.XX`.].`.`.[.`.`.`..X$.P.%.P.P.[.`.[.[.[.[.[.[.[.`.",
"[.[.[.[.[.`.`.].].%.P.].`.[.[.[.[.[.[.`.[.{.T.E.a ^ ' ' ' 6 <Xk / ) 3 - - # # # o o $ = & * * 4 t [ o.$.XX{.$.Y.[.`.`.{.[.{.[.[.'.$./.[.).P.[.`.[.[.[.[.[.[.[.[.",
"[.[.`.[.`.`.{.P.%.(.P.#.[.[.[.`.`.`.`..X(.U.MXDXvXu ^ ` / 1 =Xk } } ..c -X` ' / 1 t U.[.`..X XXXoXXX X'.`.[.[.[.'.`.`.`.[.`.[.`.`.`.`.[.[.[.`.[.[.[.[.[.`.[.[.`.",
"`.`.[.`.`.[.[.Y.(.[.[.).`.`.[.`.[.[.`.`.!.UXmXlXzXd ] ] 3 1 :Xk / / / j ;X^ ^ y cXvXT.|.[.[.`.`.Y.[.[.[.[.[.[.[.[.`.`.`.[.[.[.[.`.`.`.[.[.[.[.[.[.[.[.[.[.[.`.[.",
"[.[.[.[.[.[.[.[.[.`.`.{.`.{.[.[.[.`. XJ.cXFXmXlX~.f # 1 3 6 <X) / / / x ;X3 3 2.bXmXvXY._.`.[.[.[.[.[.[.[.[.[.[.[.[.[.[.[.[.[.[.[.[.[.[.[.[.[.[.[.[.[.[.[.[.[.[.",
"[.`.[.`.`.[.[.[.[.[.[.[.[.[.[.`.`.[.|.b iXpXlX$X3.[ ; ;Xc j 2Xj k k 6 x x 1 # 2.%XlXDXSXJ.XX`.`.[.[.[.[.[.[.[.[.[.`.[.`.`.`.[.[.`.`.`.[.[.[.[.[.[.[.[.[.[.[.[.[.",
"`.[.`.[.[.`.[.[.[.{.[.[.[.[.[.`.[.`.O.AXIXBX!.2.@.K.z -X-XN N <X1X3X*Xm v o.X.3.~.xXmXFXR.'.`.`.[.[.[.[.[.[.[.[.`.`.`.`.`.[.].I.{.[.`.[.[.[.[.[.[.[.[.[.[.[.[.`.",
"`.`.`.`.`.[.`.[.[.[.`.[.[.[.[.[. XJ.dXLXPXLXBXp OX@.z ;X>X;Xz =X;X-X*X*Xj |.OXJ.2.^.Q.pXn K.{.`.[.[.[.[.[.[.[.`.`.`.`.`.`.P.P.#.P.I.[.`.[.[.[.[.[.[.[.`.`.`.`.`.",
"`.`.`.`.[.[.`.`.[.[.[.[.[.[.[.[. Xo.iXgXdXIXdXX.OX{ g ;X:X1X=X-X1X1X-X,Xb OX_. Xd uXHXPXAXO.'.`.[.[.[.[.[.[.`.`.`.`.`.`.`.#.I._.$.P..X`.[.`.[.[.[.[.[.`.`.`.`.[.",
"`.`.`.`.`.[.`.[.[.[.[.[.[.[.[.[.U.*.hXlXQ.dXE.K.J.x ,X>X-X>Xz ,X0X1X-X*Xj K.{._.O.HXLXLXLXgXJ.{.`.[.[.[.[.[.[.`.`.`.[.`.`.].].[._.[.[.[.[.[.[.[.[.[.[.[._.`.[.[.",
"`.`.`.`.`.[.[.[.[.[.[.[.[.[.`.{.o.BXpXhXQ.AXSXs c 0X0X>X=X-X*Xz x =Xz =X3Xj J.OXs ZXdXR.fXE.K.'.`.[.[.[.[.[.[.`.`.`.`.`.`.`.[.`.`.`.[.[.[.`.[.[.[.[.[.[.`.`.].[.",
"`.`.`.`.[.[.`.[.[.[.[.[.[.`.[.K.gXLXLXAXAXHXIXsX:X1X1X:Xz g *X*X*Xz z 1X0X1Xv X.sXKXW.lXlXE.&..X[.[.[.[.[.[.`.`.`.`.`.`.`.`.`.`.`.[.[.[.[.[.[.[.[.[.[.[.`.`.`.[.",
"`.`.`._.[.[.[.`.[.[.[.[.[.[. XJ.iXKXAXPXPX4XM m l 1X>X=Xj s b =.[ ; =X>X1X7X*XuXPXGXfXpXpXpX*.'.[.[.[.[.[.`.`.`.`.`.`.`.`.`.`.`.`.[.`.[.[.[.[.[.[.[.[.[.`.`.`.`.",
"`.`.`.`.`.[.`.].[.[.[.[.`.`.[.'.+.m dXBXSXiX^.n ~ z -Xg { OX X XoX+.g -X:Xj v N M sXLXKXIXLXR.|.{.[.[.[.`.`.`.`.`.`._.`.`.`.`.`.`.[.[.[.[.[.[.[.[.[.[.`.`.`.`.`.",
"`.`.`.`.`.].(.#.].].[.[.{.`.`.`.'.{ *.v NXZXf MXxX, h b XXY.`.`.`.XXa l g 2.vX~ Q.aXIXGXIXPXR.L.{.[.[.[.`.`.`.`.`.`.`.`.`.`.`.`._.[.`.[.[.`.[.[.[.[.[.[.`.`.].`.",
"`.`.`.`.[.#.P./.$.$.[.[.[.[.[.`.`. X`.K.O.v R.FX%XP 4 '.`.`.`.`.[.[.[.; = %XmXn uXPX4XSXsXiX+. X[.[.[.[.[.[.[.[.`.`.`.`.`.`.Y.[.[.[.[.[.[.[.[.[.[.[.[.[.`.`.`.`.",
"`.`.[.`.[.I._.[.(.].[.[.[.[.[.[.[.`.[.[.'.+.cXDX%X{ [.`.`.`.[.[.[.[. XY.p ~.nXpXM E.a n b o.'.[.[.[.[.[.[.[.[.[.`.[.[.[.`.[.[.[.[.[.[.[.[.`.[.[.[.[.[.[.`.`.[.[.",
"`.`.`.`.[.[.[.[.[.[.[.[.[.[.[.`.[.`.`.`. Xo.cXmX^.{  X`.[.[.[.[.[.[.[.XX@.2.xXFXn J.XXY. X{.{.`.[.[.[.[.[.[.`.[.`.[.[.`.[.`.[.`.`.[.[.[.[.[.[.[.[.`.%.(.`.`.`.`.",
"`.`.[.[.[.[.[.[.].[.[.[.[.[.[.[.[.[.[.[._.!.FXbX~.o.XX`.[.[.[.[.[.[.[.{.T.3.zXFXpXY.[..X[.[.`.`.[.[.[.[.[.[.[.[.[.[.[.[.[.[.[.[.[.[.[.[.[.[.[..XP.$.P.P.%.`.[.[.",
"[.[.[.[.[.[.[.[.[.[.[.[.[.[.[.[.[.Y.[. XK.b gXW.f &.].].{.`.[.[.[.[.[.`.}.P ~.vXR.| XXY..X[.`.`.[.[.[.[.[.[.[.[.[.[.[.[.[.[.[.[.[.`.[.[.[.[.[.[.I.P..X].$.`.[.[.",
"[.`.[.[.[.[.[.[.[.[.[.[.[.[.[.`..XXX`.'.n AXHXKXfX+.$.P.[.`.[.[.`.`.`.{.|.M fXdXdX*.Y. XXX.X`.{.[.[.[.[.[.[.[.[.[.[.].[.[.[.[.[.`.[.[.[.[.[.[.[.[.[.`.[.{.`.[.[.",
"[.[.[.[.[.[.[.[.[.[.[.[.[.[.`.{.Y.p n n ; v M m M @.}.].{.`.[.[.{.`.`.{.K.*.HXAXKXN y s { Y. X].[.[.[.[.[.[.[.[.[.[.[.[.[.[.[.{.[.[..X[.`.[.[.[.[.[.[.[.`.{.[.[.",
"[.`.`.[.[.[.[.[.[.[.[.[.[.[.{.K.b BXPXLXAXN + ; ; +..X`.`.[.[.[.`.`.`. XJ.; ; + & aXHXHXfXb @.$.`.`.[.[.[.[.[.[.[.[.[.[.[.[.`.`.[.[.].[.[.[.[.[.[.[.[.[.[.[.[.`.",
"`.`.[.`.`.`.[.[.[.[.[.[.].{.'.a AXLXLXLXIXPXv O iXiXJ.[.[.[.[.[.[.[.[._.O.uX; ; dXLXLXLXLXKXv T.#.(.[.[.[.[.[.`.`.`.`.`.`.`.`.`._._.#./.].'.`.`.`.`.`.`.`.[.`.[.",
"[.[.[.[.[.[.[.[.[.[.[.[.'.}.o.uXLXPXLXPXIXKXZX; ; v T. X[.[.[.[.[.`.{.Y.M N : uXPXKXLXLXLXLXfX{ ].(.[.[.[.[.[.{.`.`.[.[.`.`.`.{.$.$.(.P.#.[.`.`.`.{.[.[.[.[.[.[.",
"`.`.[.`.[.[.[.[.[.[.[.(.P.).a m sXuXaXuXuXiXiXv @ O +. XY.[.[.[.`.`.`.Y.o   @ iXuXuXsXsXsXsXiXa XX`.[.[.[.[.[.[.`.`.`.`.`.`.`.`.(._.[.].].[.[.[.[.[.[.[.[.`.`.`.",
"`.`.`.`.[.[.[.[.[.[.[.I.#. Xi uXAXZXfXdXdXdXdXBXBXuXa  X[.[.[.[.`.`.XX{ M fXfXfXsXfXsXsXfXZXsXv `.[.[.[.[.[.[.[.`.`.`.`.`.`.`.`.[.[.`.[.[.[.[.[.[.[.[.[.[.`.`.`.",
"`.`.`.`.[.[.[.`.[.[.[.[.`. X+.b O.O.O.O.O.O.O.O.X.b o.[.[.[.[.[.[.Y. Xo.b R.R.R.R.R.R.R.R.gX*.p `.`.[.[.[.[.`.`.`.`.`.`.`.].`.`.`.`.[.[.`.`.[.[.[.[.[.[.[.[.`.`.",
"`.`.`.`.[.[.[.`.[.[.[.[.`.`.{.'.'.'.'.`.'..X|.'.[. X.X[.[.[.[.[.[.[.`.{.Y.K.K.K.L.K.K.K.K.K.L.`.[.`.[.[.[.[.[.`.`.`.`.`.`.`.`.`.`.`.`.[.[.[.[.[.[.[.[.[.[.`.].`.",
"`.`.`.`.`.`.`.[.[.[.[.[.`.[.`.`.`.`.`.`.[.Y.[.Y.`.[.[.[.[.[.[.[.[.`.`.`.[.{.[.{.`.`.{.{.[.{.[.`.`.[.[.[.`.[.[.`.`.`.`.`.`.`.`.`.`.[.`.[.[.`.[.[.[.[.[.[.`.`.`.`.",
"`.`.`.`.[.[.[.`.[.[.[.[.`.`.`.`.`.`.`.`.[.[.[.`.`.[.[.[.[.[.[.[.[.[.`.[.[.[.`.`.`.`.`.`.`.`.[.`.[.[.[.[.[.[.`.`.`.`.`.`.`.`.`.`.`.`.[.[.`.[.[.[.[.[.[.[.`.`.`.`."
};
