/* XPM */
static char *New_Project__5__resized[] = {
/* columns rows colors chars-per-pixel */
"80 80 256 2 ",
"   c #010000",
".  c #070603",
"X  c #160D00",
"o  c #151409",
"O  c #16160F",
"+  c #271A02",
"@  c #331D00",
"#  c #211512",
"$  c #142E0F",
"%  c #262706",
"&  c #392702",
"*  c #232C16",
"=  c #28361A",
"-  c #31360F",
";  c #0E2231",
":  c #2E302D",
">  c #000E24",
",  c #562D00",
"<  c #4F3001",
"1  c #6B3A00",
"2  c #713C00",
"3  c #401F00",
"4  c #124E12",
"5  c #3D4004",
"6  c #2C4B1B",
"7  c #1A7317",
"8  c #344823",
"9  c #32552A",
"0  c #316B2E",
"q  c #1C7228",
"w  c #595500",
"e  c #514B07",
"r  c #6C5B00",
"t  c #794C01",
"y  c #6A6500",
"u  c #756F00",
"i  c #42592D",
"p  c #534730",
"a  c #556A39",
"s  c #58793A",
"d  c #4D6933",
"f  c #647C39",
"g  c #747338",
"h  c #635822",
"j  c #1B3555",
"k  c #132B4A",
"l  c #334E51",
"z  c #1B4371",
"x  c #2B5170",
"c  c #32725C",
"v  c #51534D",
"b  c #576946",
"n  c #597847",
"m  c #67734F",
"M  c #71716B",
"N  c #526166",
"B  c #D73C2D",
"V  c #C63218",
"C  c #884D00",
"Z  c #895501",
"A  c #985A00",
"S  c #A15C01",
"D  c #926901",
"F  c #856801",
"G  c #AA6502",
"H  c #B26900",
"J  c #B37300",
"K  c #AB7B01",
"L  c #887931",
"P  c #AC6427",
"I  c #CA7800",
"U  c #D47A00",
"Y  c #D36C08",
"T  c #DE5D26",
"R  c #E63D4A",
"E  c #817660",
"W  c #E54B57",
"Q  c #1B8B0A",
"!  c #259A13",
"~  c #2CAE14",
"^  c #1D8C21",
"/  c #269827",
"(  c #2D882C",
")  c #2AA729",
"_  c #2FB32B",
"`  c #1DA511",
"'  c #69873B",
"]  c #75993E",
"[  c #758D39",
"{  c #46B732",
"}  c #7AA23B",
"|  c #32C732",
" . c #4DC433",
".. c #3C8454",
"X. c #688543",
"o. c #738D45",
"O. c #769746",
"+. c #748558",
"@. c #6D924E",
"#. c #74B956",
"$. c #7CBB56",
"%. c #78BA57",
"&. c #76AD50",
"*. c #7A8568",
"=. c #54A145",
"-. c #7CC768",
";. c #959400",
":. c #938C00",
">. c #BA8602",
",. c #B19405",
"<. c #ABAB00",
"1. c #B8B800",
"2. c #918C38",
"3. c #B49336",
"4. c #B7A82F",
"5. c #D68300",
"6. c #DA8500",
"7. c #DE8A00",
"8. c #D68A00",
"9. c #DA9600",
"0. c #C69605",
"q. c #E38C00",
"w. c #E58700",
"e. c #F98C00",
"r. c #E39300",
"t. c #EB9300",
"y. c #E59D00",
"u. c #EA9B00",
"i. c #FB9500",
"p. c #F49B00",
"a. c #FC9E00",
"s. c #F19600",
"d. c #CEAD00",
"f. c #EAA600",
"g. c #FEA200",
"h. c #FEAC00",
"j. c #F3A700",
"k. c #EBB700",
"l. c #FEB400",
"z. c #FEBC00",
"x. c #F5B500",
"c. c #C09939",
"v. c #D5D300",
"b. c #FEC300",
"n. c #FFCB00",
"m. c #F3C900",
"M. c #FED200",
"N. c #FEDC00",
"B. c #F5D700",
"V. c #EEC000",
"C. c #FEE300",
"Z. c #FEEB00",
"A. c #F0EC00",
"S. c #FFFE01",
"D. c #FDF400",
"F. c #E3E500",
"G. c #FFD52F",
"H. c #CCCE38",
"J. c #859450",
"K. c #84A94A",
"L. c #8DB848",
"P. c #8CB44A",
"I. c #93BD4D",
"U. c #83BE56",
"Y. c #88BC56",
"T. c #93BA54",
"R. c #88AD52",
"E. c #848A75",
"W. c #899270",
"Q. c #AF9866",
"!. c #A19B5D",
"~. c #D7AA4C",
"^. c #C9AE7A",
"/. c #E1B058",
"(. c #8CC156",
"). c #8CC158",
"_. c #85C158",
"`. c #95C356",
"'. c #9AC457",
"]. c #95C358",
"[. c #9BC558",
"{. c #9ECA5A",
"}. c #9ACA57",
"|. c #97C652",
" X c #A2CD5B",
".X c #A0C857",
"XX c #A5D25D",
"oX c #A9D55D",
"OX c #A9D95F",
"+X c #ADDD65",
"@X c #FBCE6B",
"#X c #F7E55C",
"$X c #2D5887",
"%X c #2F598B",
"&X c #376897",
"*X c #35638E",
"=X c #3B73AA",
"-X c #3D77B4",
";X c #3768A7",
":X c #385DAA",
">X c #427BB8",
",X c #416497",
"<X c #457EC4",
"1X c #058EB0",
"2X c #4581BB",
"3X c #6AA294",
"4X c #00B9F5",
"5X c #10BBE9",
"6X c #4583C5",
"7X c #03C7F8",
"8X c #1DC5EE",
"9X c #3ADAFF",
"0X c #2BD0F7",
"qX c #4DE8FF",
"wX c #70E9FF",
"eX c #5EDCEE",
"rX c #72D9A0",
"tX c #979798",
"yX c #8E8D8A",
"uX c #ABA788",
"iX c #B1AA91",
"pX c #9B98A7",
"aX c #A7A6A6",
"sX c #B7B5B9",
"dX c #B0AFB2",
"fX c #A09E87",
"gX c #C7B692",
"hX c #C4BEAE",
"jX c #F9A3A3",
"kX c #F5D68D",
"lX c #FFEA93",
"zX c #FFE496",
"xX c #FFF198",
"cX c #D2CDB7",
"vX c #FEECB7",
"bX c #FFF7B4",
"nX c #FDECA4",
"mX c #E4CDA4",
"MX c #BDBAC2",
"NX c #C1BEC6",
"BX c #FFADC8",
"VX c #ADD3DA",
"CX c #C9C8CA",
"ZX c #D6D5D9",
"AX c #D1CDCE",
"SX c #FFF3C9",
"DX c #FFFCDC",
"FX c #FFF1DA",
"GX c #D1DCE2",
"HX c #DBFCFD",
"JX c #E8E8EA",
"KX c #FEFEFE",
"LX c #F4F4F5",
"PX c #EFF1F1",
"IX c #DFDECF",
"UX c #B7EBAC",
/* pixels */
"'.'.'.'.'.[.'.'.[.[.[.[.[.[.[.[.'.'.'.'.'.'.'.'.'.'.[.'.[.[.[.[.[.[.'.'.'.'.`.'.`.'.'.'.'.'.'.[.[.[.[.[.[.[.[.[.'.'.'.'.'.'.'.'.'.[.'.[.[.[.[.[.[.[.[.'.'.'.`.'.",
"'.'.'.'.[.'.[.'.[.[.[.[.[.[.[.[.'.'.'.`.'.'.'.'.'.'.[.[.[.Y.U.[.'.[.'.'.'.'.'.'.'.'.'.'.'.'.'.[.[.[.[.[.[.[.'.'.'.'.'.'.'.'.'.'.'.[.[.[.[.'.[.[.[.[.'.'.T.U.}.[.",
"'.'.'.'.[.[.'.[.'.[..X[.[.[.[.'.'.'.'.'.'.'.'.'.'.'.[.].#.U.$.$.(..X'.'.`.'.'.'.'.'.'.'.'.'.'.[.[.[.[.[.[.[.[.'.'.'.].'.'.'.'.'.[.[.[.[.[.'.[.[.[.}.`.%._.$.$._.",
"`.'.'.'.'.[.[.'.[.[.Y.[.[.[.[.'.'.'.'.'.'.'.'.'.[.[.[.].$.`.[.$.(.'.'. X X'.'.'.'.'.'.'.'.'.'.[.[.[.[.[.[.[.'.'.'.'.'.'.'.'.'.].[.[.[.[.[.[.[.[.[.'.'.$.`.'.U.(.",
"'.[.[.'.[.[.'.[.(.(.#._.Y.[.[.'.'.'.'.'.'.[.'.[.[.[.[.[.[.'.[.[.[. X.XK.[ T.{.].'.'.'.'.[.[.[.[.[.[.[.[.[.[.[.'.'.'.'.[.'.'.'.'.].[.[.[.[.[.[.[.[.[.[.[.'.'.[.'.",
"[.'.'.[.[.[.'..X$.$.`._.%.[.[.'.'.[.[.[.[.'.[.[.[.[.[.[.'.[.[.'. Xo.6 4 7 = O. X'.'.'.'.[.[.[.[.[.[.[.[.[.[.[.[.[.[.[.[.'.[.[.'.[.[.[.[.[.[.[.[.[.[.[.[.[.'.'.'.",
"[.[.'.[.[.[.[.[.].].[.'.`.[.[.[.[.[.'.[.[.[.[.[.[.[.[.[.[.[.'.XXX.$ ^ / / _ 6 P. X'.[.[.[.[.[.[.[.[.[.[.[.[.[.[.[.[.[.[.'.].'.[.[.[.[.[.[.[.[.[.[.[.[.[.[.[.[.'.",
"[.[.[.[.[.[.[.[.[.[.'.'.[.[.[.[.[.[.[.[.[.[.[.[.[.[.[.[.[.[.[.[.6 ^ / ^ ) | ) 9 .X[.[.[.[.[.[.[.[.[.[.[.[.[.[.[.[.[.[.`.`.#.Y.].[.[.[.[.[.[.[.[.[.[.[.[.[.[.[.[.",
"[.[.[.[.[.[.[.[.[.[.[.[.[.[.[.[.[.[.[.[.[.[.[.[.[.[.[.[.[.[.[.[.6 ^ ) ) ) ) | q s XX`.[.[.[.[.[.[.[.[.[.[.[.[.[.[.'..XU.#.Y._.#.[.[.[.[.[.[.[.[.[.[.[.[.[.[.[.[.",
"[.[.[.[.[.[.[.[.[.[.[.[.[.[.[.[.[.[.[.[.[.[.[.[.[.[.[.[.[.[.'. X' 4 7 / / ) _ | 9 '.'.[.[.[.(._..X[.[.[.[.[.[.[.[.[.[.].T.[.`.U.'.[.[.[.[.[.[.[.[.[.[.[.[.[.[.[.",
"[.[.[.[.[.[.[.[.[.[.[.[.[.[.[.[.[.[.'.[.[.[.[.'.[.[.[.[.[.[.[.[. XP.d $ ^ / _ | 7 J.XX'.`.$.U.$.$.`.[.[.[.[.[.[.[.[.'.[.[.[.[.[.[.[.[.[.[.[.[.[.[.[.[.[.[.[.[.[.",
"'.'.'.[.[.[.[.[.[.[.[.[.[.[.[.[.'.'.'.'.'.[.'.'.'.'.[.[.[.[.[.[.'.}.XXo.$ q / _ ^ f  X'.`.%.].'.$.(.[.[.[.[.[.[.'.'.'.'.[.[.[.[.'.'.'.[.[.[.[.[.[.[.[.[.'.].'.'.",
"'.[.[.[.[.[.[.[.[.[.[.[.[.[.[.[.[.'.[.[.[.[.[.[.'.[.[.[.[.[.`.[. XXXXX+XO.4 ( _ ^ f +X}.'.'.[.[.'.[.[.[.[.[.[.[.[.[.[.[.[.[.[.[.[.[.[.[.[.[.[.[.[.[.[.[.[.[.[.[.",
"'.'.'.'.[.[.[.[.[.[.[.[.[.[.[.[.'.'.'.[.[.[.U.].[.[.[.[.'.{.oX XR.n i 9 - 4 ^ ) / = @.R.XXXX[.].'.'.[.[.[.[.[.[.'.'.'.'.'.'.'.'.[.[.[.[.[.[.[.[.[.[.[.[.[.[.'.'.",
"[.[.[.'.[.'.$.`.[.[.[.[.[.[.[.[.'.'.[.[.(._.%.$.$.'.'.[.oXT.d = 5 y ;.d.J % 4 ^ 4 1 r 5 8 f {.XX'.'.[.[.[.[.[.[.[.[.'.'.'.'.'.[.'.[.[.[.[.[.[.[.[.[.[.[.'.[.'.'.",
"'.'.[.[.$.$.$.U.$.[.'.[.[.'.[.[.'.'.'..XU.$.[.T.%.'.oX'.d $ w d.S.S.S.S.Z.0.y w F b.S.S.<.e * ' XX X'.[.[.[.'.'.'.'.'.'.'.'.'.'.'.[.[.[.[.[.[.[.[.[.[.[.'.'.'.'.",
"'.'.'.'.U.Y..X_.U.[.[.[.[.[.'.'.'.'.'.'.'.`.'.'.[.oXX.% u F.S.S.S.C.M.S.S.D.S.S.S.D.C.S.S.S.v.w * &.oX.X).].{.[.'.'.'.'.'.'.'.'.'.'.'.[.[.'.[.[.[.[.[.[.'.'.'.'.",
"'.'.'.'.'.[.'..X[.[.[.[.[.[.[.'.'.'.'.'.'.'.'.[..X9 % v.S.C.D.D.b.g.C.S.z.N.S.S.S.S.M.S.S.S.S.S.<.% a {.#.U._.[.'.'.'.'.'.'.'.'.'.[.[.[.[.'.[.[.[.}.[.[.'.'.'.'.",
"'.'.'.'.'.'.'.'.[.[.[.[.[.[.[.'.'.'.'.'.'.T. XP.O u S.Z.x.Z.C.h.g.m.S.z.h.C.S.S.S.S.Z.N.S.S.D.M.S.D.e 6 {.).#.[.[.'.'.'.'.'.'.'.'.'.[.[.[.[.[.[.[.U.Y.[.'.'.[.`.",
"'.'.'.'.'.'.'.'.[.[.[.[.[.[.[.'.'.'.'.'.`.XXR.o <.S.n.p.Z.C.g.h.g.C.M.h.l.M.S.S.S.S.S.b.N.C.N.D.b.C.S.u * }.].].'.'.'.'.'.'.'.].'.[.[.[.[.[.[.`.$.$._.$.`.'.'.'.",
"'.'.'.'.[.[.'.[.`.(.#.(.`.[.'.'.'.'.'.'. XK.o 1.S.l.a.M.N.g.h.h.x.Z.l.l.l.z.D.S.S.S.S.B.x.b.b.N.D.x.n.S.:.* [.[.`.'.'.[.'.'.'.'.'.'.'.[.'.[.[.`.$.[.'.$.`.'.'.'.",
"'.'.'.'.'.[.[..X$.$._.Y.#.[.[.'.'.'.'..X`.O 1.S.g.a.k.C.g.h.l.g.k.M.g.l.l.z.b.S.S.S.S.C.f.n.b.b.C.B.x.b.S.;.=  X'.'.'.[.'.'.'.'.'.[.'.[.[.[.[.[.'.[.[.[.'.[.'.'.",
"'.'.'.'.[.[.[.[.].]..X]._.'.'.'.'.'.[. X* ;.S.g.h.u.B.l.g.h.l.p.m.l.h.h.l.z.z.n.D.S.C.C.k.b.n.n.b.C.k.z.m.S.y 8 oXT.[.[.'.[.'.'.'.'.'.[.[.'.[.[.[.[.[.[.'.'.'.'.",
"[.T.'.'.'.[.[.[.[.[.[.[.[.'.'.'.[.T.OX9 w S.a.h.t.k.b.a.h.h.h.y.n.g.h.l.l.z.z.b.b.n.b.M.m.j.n.b.b.n.B.f.b.b.S.w s OXT.'.'.[.[.T.'.[.[.[.[.[.[.[.[.[.[.[.'.'.'.'.",
"[.[.[.'.[.[.[.'.[.[.[.[.[.[.'.'.'. XO.- D.l.a.g.7.M.g.g.g.h.g.9.b.g.h.l.l.z.z.b.b.n.n.b.n.f.n.b.b.z.N.f.x.b.M.A.% R..X'.[.[.'.'.'.[.[.[.[.'.[.[.[.[.[.[.'.'.'.'.",
"[.[.[.[.[.[.[.'.[.[.[.[.[.[.[.'.'. X* 1.n.a.h.w.k.b.g.g.h.h.t.k.l.g.h.h.l.z.z.b.b.n.b.b.M.9.z.n.b.b.b.B.q.b.z.C.<.* XX].[.[.[.[.'.[.[.[.[.[.[.[.[.[.[.[.[.[.'.'.",
"[.'.'.[.[.[.[.[.[.[.[.[.[.[.[.'. XX.- Z.i.g.a.6.m.g.g.g.g.h.q.k.h.g.h.l.l.z.z.b.b.n.b.b.n.f.f.n.b.b.z.M.y.u.n.x.D.w X.XX'.[.`.U.[.[.[.[.[.[.[.[.[.[.[.[.[.[.'.'.",
"[.'.[.[.[.[.[.[.[.[.[.[.[.[.[.[.}.= d.z.a.g.q.y.l.a.g.g.h.g.q.x.g.g.h.l.l.z.z.z.b.b.b.z.b.k.r.b.b.b.z.b.V.7.z.z.n.v.- {.[.$.U.%._.Y.[.[.[.[.[.[.[.[.[.[.'.[.[.[.",
"'.'.'.'.'.'.[.[.[.[.[.[.[.[.'. XO.e N.i.g.a.6.k.g.g.g.g.h.a.9.z.a.h.h.h.l.l.z.z.b.b.b.b.b.x.7.b.b.z.b.l.M.9.j.b.x.C.y s oX$.Y.'.$.U..X[.[.[.[.[.[.[.[.].'.'.'.'.",
"[.[.[.'.[.[.'.[.[.[.[.[.[.[.'.OX9 ;.z.a.g.t.6.x.a.g.g.g.h.s.r.l.a.g.h.h.l.l.z.z.b.b.z.z.z.x.7.x.b.z.z.z.b.f.7.z.z.n.d.$ .X`.'.[.[.'.[.[.[.[.[.[.[.[.[.[.[.[.[.[.",
"[.[.[.[.Y.)..X[.[.[.[.[.[.[.[.{.6 d.h.a.g.q.7.h.a.g.g.g.h.t.y.h.a.g.h.h.l.z.z.z.z.z.z.z.z.z.7.x.b.z.z.z.z.x.5.j.z.l.N.e o.XX'.'.[.[.[.[.[.[.[.U.[.[.[.[.[.[.[.[.",
"'.[.`.U.$._.U.`.[.[.[.[.[.[. XO.< b.a.g.g.6.r.h.a.g.a.g.g.q.r.g.g.g.h.h.h.l.l.z.b.b.z.z.z.z.7.u.z.z.z.z.z.z.6.u.z.l.b.<.9 oX'.'.'.'.'.[.[._.U.$._.U.[.[.'.'.'.'.",
"[.[.(.%.].`.#.`.[.[.[.[.}.].XXn w l.a.g.a.5.u.g.a.g.a.g.g.q.u.g.g.g.h.h.h.l.z.l.M.d.l.z.l.z.r.t.b.l.z.z.l.z.r.6.z.z.l.V.6 {.'.[.[.[.[.[.[.$._.[.Y.$.{.'.[.[.[.[.",
"[.[.[.`.[.[.'.'.[.[.[.[.}.].XX9 t h.a.g.s.5.f.g.a.a.g.g.g.q.y.g.a.g.g.h.h.l.l.b.0.S u.z.l.l.r.q.z.z.l.l.l.z.y.q.9.f.l.b.e O. X[.[.[.[.[.[.[.[.[.[.[.'.[.[.[.[.[.",
"[.[.[.[.[.[.[.[.[.[.[.[.[.].XX9 D l.a.g.t.5.s.g.g.a.a.g.g.7.q.g.g.g.g.h.h.h.l.m.. , 5.l.l.l.u.7.z.l.z.l.l.l.j.0.Z 7.z.b.y X.XX'.[.[.[.[.[.'.[.[.[.[.[.[.[.[.[.[.",
"[.[.[.'.[.[.'.[.[.[.[.[.'.'.oXi Z l.a.g.t.5.s.g.a.g.g.a.g.7.t.g.a.g.g.h.h.x.z.3.l p G y.z.l.u.6.l.z.l.l.l.l.h.r . I x.b.D i XX'.[.[.[.[.[.[.[.[.[.[.[.[.[.[.'.'.",
"'.'.'.'.[.[.'.'.[.[.[.[.[.'.oXd 2 h.a.g.t.6.s.g.g.a.g.a.a.7.q.g.a.g.g.h.h.h.G.HXKXKX~.I l.l.u.6.l.l.l.l.h.h.x.uXtXH f.z.K 6 XX'.'.[.[.[.[.[.[.[.[.[.[.[.'.'.'.'.",
"'.'.'.'.'.[.[.'.[.[.[.[.'.'.XXs < a.a.g.t.5.t.g.a.g.a.g.a.q.q.g.a.g.g.g.g.z.UX9XKXKXGXG u.l.t.6.h.l.l.l.l.h.#XHXKX^.U b.J 8 XX`.'.'.'.[.[.[.[.[.[.[.[.'.'.'.'.'.",
"'.'.'.'.'.[.[.[.[.[.[.[.[.'..XK.& w.a.g.s.6.q.g.g.a.g.a.a.q.7.g.g.a.g.g.h.#X9X7XGXLX9X+.U l.t.6.h.l.l.l.h.z.eXwXKXVXH l.S 8 }.].'.[.'.[.[.[.[.[.[.[.[.[.'.'.'.'.",
"'.'.'.'.'.[.[.[.[.[.`.U.[.[.'. X= H t.a.a.6.q.a.a.g.a.g.g.r.7.g.g.g.a.a.k.uXqX7X1X1X4X3XY j.t.6.x.h.h.h.g.G.0X8XGX0X2.a.C 6 -.).'.[.[.[.[.'.[.[.[.[.[.'.'.'.'.'.",
"'.'.'.'.'.'.'.'.[.U.U.$.U.U.'.oXs , s.q.a.q.5.p.g.g.g.g.g.t.8.t.i.a.g.z.u   VXwX4X4X4X> 2 U q.6.h.h.h.h.l.[ wX5X1X4Xg U 2 s {.].'.[.'.[.[.[.[.[.[.[.[.'.'.'.'.'.",
"'.'.'.'.'.'.[.'.[.$._..XY.U.[.'.[.* H q.q.s.5.t.g.h.a.a.g.s.T jXjXT T g.,.D 4.{.rXrX[ e u 9.6.q.h.h.h.h.d.. MXqX7X1XX I < O..X'.'.[.'.[.[.[.[.[.[.[.[.'.'.'.'.'.",
"'.'.'.'.'.[.'.[.[.}.[.[.[.[.[.`.XXO.+ 5.q.6.6.6.g.M.z.g.a.g.T jXBXW W B e.l.h.h.l.h.h.z.z.l.6.t.l.h.h.h.x.y.0.4.H.,.P Y h ].[.[.'.[.[.[.[.[.[.[.[.[.[.'.'.'.'.'.",
"'.`.'.'.'.[.'.'.[.[.[.[.[.[.[.'.'.oXs @ t.q.6.6.q.z.M.g.a.g.U V R R B V U l.>.D >.p.g.j.9.6.I 8.j.h.h.h.h.p.U s.e.jXBXR B T.[.'.'.[.'.[.[.'.[.[.[.[.[.'.'.'.'.'.",
"'.'.'.'.[.[.'.'.[.[.[.[.[.'.'.'.'.`.XXa @ I t.6.5.q.g.g.a.g.p.5.Y Y Y U g.h.d.  + w.l.k.o . X X X + + D h.a.>.t I T R B P |.'.'.'.[.'.[.[.[.[.[.[.'.[.'.[.'.'.'.",
"'.[.'.[.[.[.[.[.'.[.[.[.[.[.[.[.[.'.'.oXX.o A t.t.5.6.s.g.g.g.q.7.p.h.g.a.a.l.,.X X & &               , H J y t p.G @ K.}.}.'.'.[.[.[.[.[.[.[.[.].[.$._.`.'.'.'.",
"'.'.'.'.[.[.[.[.[.[.[.[.[.[.[.[.[.'.[.`.oXR.= 3 G q.t.6.q.t.a.a.q.5.s.a.a.a.a.h.d.-                       + J p.C O O.XX'.'.'.'.[.[.[.[.[.[.'..XU.$.U.U.#.'.[.'.",
"[.[.[.[.[.[.[.[.[.[.[.[.[.[.[.[.[.[.[.[.].{.OXO.= & C U q.t.r.t.r.5.5.t.a.g.g.a.g.l.d.r % .         X < K f.I 3 * T. X'.[.[.[.[.[.[.[.[.[.[.'..X(._..X`.U.[.[.[.",
"'.'.'.'.[.[.[.[.[.[.[.[.[.[.[.[.'.'.'.'.'.'.'.oXT.a * * , C H U w.s.t.t.q.t.p.u.t.w.t.p.f.9.>.>.>.0.9.8.D < * s {..X`.'.'.'.'.'.[.[.'.$.'.[.[.[.[..X[.[.[.'.'.'.",
"[.[.'.[.[.[.[.[.[.'.[.{.[.[.[.[.'.[.[.'.'.'.oXd 6 {  .=.( $ ; # @ , 2 C H I I I U q.5.U I I I G C 1 @ % 6 X.$. X'.'.[.[.'.'.'.'.[.$.U.$.U.U.[.[.[.[.[.[.[.[.[.'.",
"[.[.[.[.[.[.[.].].$.Y.).[.[.[.[.[.[.[.[.[.[.P.+.9 ` _ _ _ q ;Xc Q q 7 ; ; % % - % @ & - - - - 8 9 s @.#.XX{.$.'.[.[.[.[.[.[.[.[..XU._.[._.U.[.[.[.[.[.[.[.[.[.[.",
"[.'.[.[.[.[.[.Y.%._.Y.#.].[.[.[.'.'.'..X].$.iXSXmXi ! _ ~ 4 :X.. . . .c &X_ ~ ` 4 8 R.Y.T.'..XXXoXoX X}.'.'.'.[.[.[.[.'.[.[.'.[.'.'.'.[.'.'.'.'.[.[.[.[.'.[.[.[.",
"[.'.'.'.[.].[.].)..X'._.[.[.[.[.[.T..X[.@.AXvXzXxXg Q Q 7 4 ;Xc ~ ~ ~ x ,X! ~ i iXhXP..X[.[.[.[.T.'.'.[.[.[.[.[.'.[.'.'.'.'.'.'.'.'.[.[.[.[.[.[.[.[.[.[.[.[.'.'.",
"[.[.[.[.[.[.[.[.[.[.[.[.[.[.[.[.[.[. XR.cXDXnX@X~.h 4 4 7 q :X0 ~ ~ ` x ,X7 7 Q.bXvXmXT.}.}.[.[.[.[.[.[.[.[.[.[.[.[.[.[.[.[.[.[.[.[.[.[.[.'.[.[.[.[.[.[.[.[.[.[.",
"[.[.'.[.'.'.[.[.[.[.[.[.[.[.[.'.'.[.I.m aXgXzX@X2.s : x 0 x &X0 ( ..0 x x 4 = 3.@XzXSXcXO.XX[.[.[.[.[.[.[.[.[.[.[.'.[.'.[.[.[.[.[.[.[.[.[.[.[.[.[.[.[.[.[.[.'.[.",
"'.'.[.'.'.[.[.[.[.[.[.[.[.[.[.'.[.'.o.AXIXdX!.3.P.I.x &X;XN N ;X>X6X%XyXl ] ' g ~.xXvXFXW.'.[.[.[.[.[.[.[.[.[.[.[.'.'.'.'.{.[.Y.[.[.'.[.[.[.[.[.[.[.[.[.[.'.[.'.",
"'.'.'.'.'.'.'.[.[.[.[.[.[.[.[.'. XO.aXKXKXKXsXs OXO.z %X-Xx z *X&X,X%Xx l `.oXK.c./.uXdX+.L.[.[.[.[.[.[.[.[.[.'.'.'.'.'.'.U.Y.#._.(.[.[.[.[.[.[.[.[.[.'.'.'.'.'.",
"'.'.'.'.[.[.[.'.[.[.[.[.[.[.'.'.{.O.yXhXCXPXNXX.+X' j *X=X-X$X&X>X>X*X-Xn XXT.{.g tXIXLXAX+.}.[.[.[.[.[.[.[.'.[.'.'.'.'.'.#.Y.`.$.U..X[.[.[.[.[.[.[.[.'.'.'.'.'.",
"'.'.'.'.'.[.[.'.[.[.[.[.[.'.'.[.T.M ^.kXQ.sXM L.K.l -X=X&X=Xx =X6X2X&X$Xl P.XX].m JXKXKXKXiXP.{.[.[.[.[.[.[.[.'.'.'.'.'.'.`.'.[.].].[.[.[.[.[.[.[.[.[.'.'.'.'.'.",
"'.'.'.'.'.[.'.[.[.[.[.[.[.[.'.{.&.dXQ.mX^.CXsX' c 6X2X-X$X&X$Xz x %Xx $X6Xl K.OXs MXcXfXaXW.`.[.[.[.[.[.[.[.'.[.'.'.].'.'.'.'.'.'.[.[.[.[.[.[.[.[.[.'.'.].'.'.'.",
"'.'.'.`.'.[.'.[.[.[.[.[.[.[.[.I.W.KXPXCXCXJXKXpX-X<X-X;Xz j %X$X$Xz x -X>X<XN ' fXJXfXkXkXE &.}.'.[.[.[.[.[.'.'.'.'.'.'.'.'.`.'.'.'.'.[.[.[.[.[.[.[.[.[.'.'.`.'.",
"'.'.'.'.[.[.'.[.[.[.[.[.[.[.[.P.yXPXJXLXKXtXE yXz -X=X%Xl s b b n : %X,X>X6Xz yXKXPXdXiXgXiX+.|.[.[.[.[.[.[.[.'.'.`.'.'.'.'.'.'.'.[.'.[.[.[.[.[.[.[.[.'.'.'.'.'.",
"'.'.'.'.[.[.'.`.[.[.[.[.[.}.'.[.+.yXCXZXZXE.^.g E l &Xj [ OX X XXXO.j &X;Xj b M v aXKXJXJXKX*.|.[.[.[.[.[.[.'.'.'.'.'.'.'.'.'.'.'.'.'.[.[.'.[.[.[.[.[.'.'.'.'.'.",
"'.'.'.'.}.`.(.#.`.'.[.[.[.'.'.[.T.f E N CXAXL iXxXp k b  X'.'.].].XXa z j c.mX!.Q.tXJXJXPXLXE.I.{.[.[.[.[.[.'.'.'.'.'.'.'.'.'.'.'.[.[.[.[.[.[.[.[.[.[.[.'.'.'.'.",
"'.'.'.'.[.%.U._.$.$..X[.[.[.[.'.[. XI.} m N E SX@XL 8 [.[.[.[.[.[.[.[.: - @XvXL iXLXtXCXaXtXo. X[.[.[.[.[.[.[.T.'.'.'.'.'.'.'.'.'.[.'.[.[.[.[.[.[.[.[.[.[.'.'.'.",
"'.'.[.'.[.Y.]..X).).[.[.[.[.[.[.'.'.[. X|.[ IXSX@X2.}.[.[.[.[.[.[.[..XT.' /.vXiXN tXa M n o.[.[.[.[.[.[.[.[.[.[.[.[.'.[.[.'.[.[.[.'.[.[.[.[.[.[.[.[.[.[.'.[.[.[.",
"'.'.'.[.[.[.[.[.[.[.[.[.[.[.[.[.'.'.[.'. XO.cXvX/.[ {.'.[.[.[.[.[.[.[.XXO.3.zXDX*.]  XT.{. X[.'.[.[.[.[.[.[.[.[.[.'.'.'.'.[.'.[.'.[.[.[.[.[.[.[.[.[.$.T.`.].[.[.",
"'.'.'.[.[.[.[.[.[.[.[.[.[.[.[.[.[.[.[.[.}.W.FXvX~.O.XX[.[.[.[.[.[.[.[..XY.3.lXDXuXT.{..X[.'.[.[.[.[.[.[.[.[.[.[.[.[.[.[.[.[.[.[.[.[.[.[.[.[.[.[._.$.$.U.%.[.[.[.",
"[.[.[.[.[.[.[.[.[.[.[.[.[.[.[.[.[.'.[. XP.m iXQ.h =.].].[.[.[.[.[.[.'.[.].L ~.mXE.}  X.XT..X'.'.[.[.[.[.[.[.[.[.[.[.[.[.[.[.[.[.[.[.[.[.[.[.[.[.(._..X].$.[.[.[.",
"[.[.'.[.[.[.[.[.[.[.[.[.[.[.[.[.[. X'.'.m ZXJXLXdX' -.U..X[.[.[.[.[.'.[.T.m pXpXaX*.|.XXXX.X'.'.[.[.[.[.[.[.[.[.'.[.'.[.'.[.[.[.[.[.[.[.[.[.[.[.[.[.'.[.[.'.[.[.",
"[.[.[.[.[.[.[.[.[.[.[.[.[.[.`. XT.f m m : v N E M O.}.].[.[.[.[.[.[.'. XL.*.GXZXJXN d m ' T..X'..X[.[.[.[.[.[.[.[.[.[.[.[.[.[.[.[.[.[.[.[.[.[.[.[.[.[.[.[.[.[.[.",
"[.'.[.[.[.[.[.[.[.[.[.[.[.[.{.L.b NXKXKXJXv # : : X..X[.[.[.[.[.[.'.'..XR.: : # O tXJXJXsXa &.Y.'.[.[.[.[.[.[.[.[.'.[.'.[.[.[.[.[.[.].[..X[.[.[.[.[.[.[.[.[.'.[.",
"'.[.'.'.'.'.[.[.[.[.[.[.}.{.}.b ZXKXKXKXPXJXN # yXtXK..X[.[.[.[.[.[.[.'.+.tX: : sXKXKXKXKXJXi $.%._.[.[.[.[.[.[.'.[.'.[.'.'.'.[.].`.#.Y.`.[.[.[.[.[.[.[.'.[.'.'.",
"[.[.[.[.[.[.[.[.[.[.[.[.{.].O.tXKXKXKXLXPXJXCX: : v K..X}.[.[.[.[.[.[.I.M v # tXLXPXLXKXKXKXMX[ ).].[.[.[.[.[.[.[.[.[.[.'.'.[.[.$.$._.Y.#..X[.[.[.[.[.[.[.[.[.[.",
"[.[.[.[.[.[.[.[.[.[.[.].$._.s M aXtXtXtXyXyXtXp O # o..X'.[.[.[.[.[.{.'.O . # tXtXaXaXdXdXdXtXa  X[.[.[.[.[.[.[.[.'.'.[.'.'.'.'.(.`.{.'.).[.[.[.[.[.[.[.[.[.'.'.",
"'.[.[.T.[.[.[.'.[.[.[.Y.#.}.a pXZXAXMXMXMXNXNXCXNXpXm XX'.[.[.[.[.[. XO.M MXMXsXdXdXsXdXsXCXdXv '.[.[.[.[.[.[.[.'.'.'.'.'.'.'.'.'.[.'.[.[.'.[.[.[.[.[.[.[.[.`.'.",
"'.'.'.'.'.[.[.'.[.[.[.[.'.{.[ m *.+.+.+.+.+.+.m +.b O..X'.[.[.[.[.'. XO.b E.E.E.E.E.E.E.E.fX*.b '.[.[.[.[.[.[.'.'.'.'.'.'.'.'.'.'.[.'.[.[.[.[.[.[.[.[.[.[.[.'.'.",
"'.'.'.'.[.'.[.'.[.[.[.[.[.'.{.}.|.|.|.|.|.'.|.|.|. X X'.'.[.[.[.[.[.[.[.I.L.P.L.L.L.L.L.L.L.L.].[.[.[.[.[.[.'.[.`.'.'.'.'.'.'.'.'.[.[.[.[.[.[.[.[.[.[.[.[.'.'.'.",
"'.'.'.'.'.'.[.[.[.[.[.[.[.[.'.[.'.'.'.'.'.'.'.'.'.'.'.[.[.[.[.[.'.'.'.'.[.[.[.[.[.[.}.{.[.[.[.[.[.[.[.[.[.[.[.'.'.'.'.'.'.`.'.'.'.[.'.[.[.[.[.[.[.[.[.[.`.'.'.'.",
"'.'.'.'.[.[.'.'.[.[.[.[.[.'.'.'.[.'.'.'.'.'.'.'.'.'.[.[.'.[.[.[.[.'.'.[.[.[.'.[.[.'.'.'.'.[.[.[.[.[.[.[.[.[.[.'.'.'.'.'.'.'.'.'.'.[.'.[.[.'.[.[.[.[.[.[.[.'.'.'."
};
