/* XPM */
static char *New_Project__2__resized[] = {
/* columns rows colors chars-per-pixel */
"80 80 256 2 ",
"   c #010100",
".  c #0B0A00",
"X  c #171A04",
"o  c #17110F",
"O  c #2A1B0C",
"+  c #1C2512",
"@  c #113009",
"#  c #292606",
"$  c #352905",
"%  c #363704",
"&  c #252C13",
"*  c #2B3719",
"=  c #302E2B",
"-  c #172E21",
";  c #482900",
":  c #583700",
">  c #4A2D01",
",  c #633500",
"<  c #0F4C10",
"1  c #2F4B18",
"2  c #186C11",
"3  c #164B27",
"4  c #354925",
"5  c #35502B",
"6  c #1E6D21",
"7  c #2F732E",
"8  c #464501",
"9  c #595500",
"0  c #58470B",
"q  c #794500",
"w  c #635804",
"e  c #785F03",
"r  c #676400",
"t  c #747000",
"y  c #445928",
"u  c #53532B",
"i  c #556A39",
"p  c #59783B",
"a  c #4C6733",
"s  c #71742F",
"d  c #675A3A",
"f  c #1B3654",
"g  c #263E44",
"h  c #061F46",
"j  c #344F57",
"k  c #1C4177",
"l  c #244668",
"z  c #264D76",
"x  c #295479",
"c  c #355B68",
"v  c #316B5F",
"b  c #50544A",
"n  c #5E6B47",
"m  c #6A7552",
"M  c #4B5966",
"N  c #506874",
"B  c #686867",
"V  c #76786D",
"C  c #625B59",
"Z  c #D83429",
"A  c #844700",
"S  c #905500",
"D  c #AC5800",
"F  c #8D6E00",
"G  c #B86A00",
"H  c #AE6F01",
"J  c #AF7427",
"K  c #827D2C",
"L  c #CA4B10",
"P  c #C87700",
"I  c #CE7705",
"U  c #D5462D",
"Y  c #EB7615",
"T  c #EB5767",
"R  c #832414",
"E  c #258A0E",
"W  c #2BA618",
"Q  c #2AAB11",
"!  c #1D9124",
"~  c #289727",
"^  c #2BAA2B",
"/  c #31B629",
"(  c #1C9416",
")  c #69863A",
"_  c #74903C",
"`  c #43B52F",
"'  c #5C8D3D",
"]  c #33C532",
"[  c #33C21F",
"{  c #46C52E",
"}  c #6A8747",
"|  c #769646",
" . c #738755",
".. c #738E4B",
"X. c #7BA449",
"o. c #74B956",
"O. c #7CBB56",
"+. c #77BA58",
"@. c #6FB351",
"#. c #76866A",
"$. c #7DC25B",
"%. c #3B8B4C",
"&. c #878700",
"*. c #9B8D00",
"=. c #AD8E00",
"-. c #AAAA00",
";. c #B9B700",
":. c #B6A600",
">. c #AA8C38",
",. c #86953C",
"<. c #D58300",
"1. c #DA8500",
"2. c #DD8A00",
"3. c #D68903",
"4. c #DC9601",
"5. c #C98B02",
"6. c #E38C00",
"7. c #E68A00",
"8. c #E49200",
"9. c #EB9300",
"0. c #E49D00",
"q. c #EB9C00",
"w. c #F49B00",
"e. c #FC9D00",
"r. c #F49501",
"t. c #D9AD00",
"y. c #E9A700",
"u. c #F5A500",
"i. c #FEA200",
"p. c #FEAC00",
"a. c #F2AB00",
"s. c #E9B601",
"d. c #FEB300",
"f. c #FEBC00",
"g. c #F4B300",
"h. c #F6973F",
"j. c #CECC00",
"k. c #FFC300",
"l. c #FFCB00",
"z. c #F3C800",
"x. c #FDD400",
"c. c #FFDC00",
"v. c #F4D500",
"b. c #F4C610",
"n. c #FEE300",
"m. c #FEEC00",
"M. c #FEF400",
"N. c #FEFE00",
"B. c #F3F500",
"V. c #ECEC00",
"C. c #FFD72B",
"Z. c #84A947",
"A. c #8FBA4A",
"S. c #8BB549",
"D. c #92BC4D",
"F. c #84AA50",
"G. c #83BE56",
"H. c #8ABF56",
"J. c #88B855",
"K. c #95BB53",
"L. c #889376",
"P. c #8B8C73",
"I. c #AC9A70",
"U. c #BBA475",
"Y. c #9C9658",
"T. c #D2A852",
"R. c #F1B950",
"E. c #CBB37A",
"W. c #F58378",
"Q. c #8BC157",
"!. c #8CC258",
"~. c #86C359",
"^. c #95C356",
"/. c #9AC457",
"(. c #94C358",
"). c #9BC558",
"_. c #9ECA5A",
"`. c #9ACA57",
"'. c #98C952",
"]. c #A1CC5B",
"[. c #A0C857",
"{. c #A5D25D",
"}. c #A9D55E",
"|. c #AAD95C",
" X c #ADD468",
".X c #B2E262",
"XX c #F8CD6F",
"oX c #E4D36B",
"OX c #315C88",
"+X c #366798",
"@X c #366588",
"#X c #3867A6",
"$X c #3B72A8",
"%X c #3874B3",
"&X c #026F9A",
"*X c #4B6A88",
"=X c #417BB5",
"-X c #467EC0",
";X c #847C83",
":X c #F77390",
">X c #1E9EBB",
",X c #5B84AE",
"<X c #61D1A2",
"1X c #00A2DE",
"2X c #03ADD5",
"3X c #18AACF",
"4X c #1FB8DC",
"5X c #4382C6",
"6X c #42B3C0",
"7X c #00C4FF",
"8X c #03CCFF",
"9X c #0CCFFC",
"0X c #25CFFF",
"qX c #60DFE9",
"wX c #979695",
"eX c #8C8E8D",
"rX c #A79D89",
"tX c #96A187",
"yX c #ACAC8F",
"uX c #A7A6A8",
"iX c #B7B6B9",
"pX c #B1B0B0",
"aX c #9D97A5",
"sX c #C2BBB2",
"dX c #DBAB9C",
"fX c #A9CB96",
"gX c #FBDA8A",
"hX c #F1D18D",
"jX c #FFE798",
"kX c #F2EA8B",
"lX c #D6CAB6",
"zX c #FFF3B5",
"xX c #FCE7AA",
"cX c #DDDFAE",
"vX c #BFBEC0",
"bX c #C0BEC5",
"nX c #8FFBFF",
"mX c #91EFFC",
"MX c #B5F9FF",
"NX c #B3EEFF",
"BX c #96DCDA",
"VX c #C6C5C8",
"CX c #D7D6DA",
"ZX c #D0D0D3",
"AX c #FFFCC5",
"SX c #FFFCC8",
"DX c #FFF3D7",
"FX c #FFEAC1",
"GX c #DDDBE3",
"HX c #E1DEE5",
"JX c #E8E8EA",
"KX c #EEF6F9",
"LX c #FEFEFE",
"PX c #F4F5F5",
"IX c #F2ECF5",
"UX c #DFEEE9",
/* pixels */
"/././././.)./.).).).).).).).)././.^././././.^./.).).).).).).).).).)./././././././././././././././.).).).).).)./././.(./././.).).).).).).).).).).).).)./.)./././.",
"/././././.).)./.).).).).)./.).^./././././././././.).).)./.H.G.)./.)././././.K./././././././././.).).).).).).)./././././././.).).(.).).).).).).).).)././.H.G././.",
"/././././.).).).).).).).).).)./././././././././.).).).K.o.J.G.O.H.`.`./.^.)././././././././././.).).).).).).)./././././././.).^.).).).).).).).)./.).^.+.~.O.O.Q.",
"^./././.).)./.)./.).^.).)./.)./././././././././.).).).(.O.H./.O.`.].K.[.].)././././././././././.).).).).).)./././././././././.).).).).).).).).)./././.O.^./.O.!.",
"/./.)./.).).).).!.!.o.Q.H./.)././././././.)./.).).).).).)././.].s 4 6 1 Z.].K.[./.)./.).).).).).).).).).).)./.)./.).).).).)./.).).).).).).).).).).)./.).).).)./.",
")././.).).).).[.O.+.^.G.o.).)././.).).).)./.).).).).).)././.[.y < ! ! ! < F.{.K././././.).).).).).).).)._.).)./.).).).).)././.).).).).).).).).).).).).).).)././.",
").)./.).).).).).(.(.[./.^.).).).).)./.).).).).).).).).)./.{.p < ^ ~ ~ ] ^ 1 K.[././.).).).).).).).).).)./.).).).).).).).).(.^.).).).).).).).).).).).).).).).).).",
").).).).).).).).).)././.).).).).).).).).).).).).).).).)./.{.y ! ~ ~ ^ ^ ] ! u  X/.).).).).).).)./.).).)././.).).).).).^.^.o.J.^.).).).).).).).).).).).).).).).).",
").).).).).).).).).).).).).).).).).).).).).).).).).).).).).].) < ! ^ ~ ^ ^ ] 6 Z.)././.)./.).).).).).).).).).).).).).[.G.O.H.G.@.).).).).).).).).).).).).).).).).",
").).).).).).).).).).).).).).).).).).).).).).).).).).).).)./.[.} 5 < 6 ~ ^ ] ! a }.^.).)./.).!.~.)./.).).).).).).).).).^.H.).^.Q.)./.).).).).).).).).).).).).).).",
").).).).).).).).).).).).).).).).).).).).).).)./.).).).).).).).]._._ @ 6 ~ / / 1 )././.)./.+.O.O.G.H.[.).).).).).).)./.).).).).)./._.).).).).).).).).).).).).).).",
"/././.).).).).).).).).).).).)./././././.)././././.).).).).)./.(.`..XK.1 6 ^ / 6 [.].)./.(.O.(./.O.H.).).).).).)./././././././././././.).).).).).).).)././.(././.",
").).)./.).).).)./.).).).).).).).).).).).).).).[.).).)./.(.).}.{.J.} p * 2 ~ ] < p F._.|.]././.`.).).).).).).).).).)._./.).).).).).).).).).).).).)./.).).).).).).",
"/./././.).).).)._.).).).).).)././././.).).[.G.H.).)./.].}.J.i * % 8 t : < 6 ! & 0 > * y | {.{./.).).).).).).).).).).)./.)./././.).).).).).).).).)./.).).)./././.",
"/.)./.).)./.O.(././.).).).).)././.).).).H.G.O.G.O./.}.F.4 # t j.B.N.N.y.0 1 > H c.N.j.*.8 * ..|.]./.).).).).).).).)./././././././.).).).).).).).).).)./.).)././.",
").).).).O.O.O.G.O.)./.).).)./././././.[.G.O.).H.$._.y # *.V.N.N.N.n.N.N.N.N.N.N.n.M.N.N.N.;.8 * F.}./.).).)././.(.)./././././././.)./.).)./.).).).).)./././././.",
"/./.^.).G.H.[.H.G.).).).).)./././././././.^.^.}.X.+ r B.N.N.N.x.d.m.N.k.m.N.N.N.m.c.N.B.N.N.N.-.# i }.`.H.(.)././././.^./././././././.).).)./././.).).)././././.",
"/./././.)./.).).).).).).).)././././././././.|.p X ;.N.x.n.M.f.i.l.N.f.p.N.N.N.N.N.c.M.N.N.M.x.N.B.9 * (.$.G.Q././././././././././.).).).)./././.).).).)././././.",
"/./././././.)./.).).)./.).).)./././././.K.{.a $ V.N.p.x.M.p.p.p.m.x.p.d.m.N.N.N.N.M.f.n.x.n.M.f.n.N.&.+ J.(.o././././././.^./././.).).).).).)././.~.Q.)././.).^.",
"/./././././.).).).`././.).)./././././.K.}.a % N.m.w.k.M.p.p.p.g.m.p.d.d.l.N.N.N.N.N.z.f.k.f.n.m.d.l.N.-.+ J.`././././././././././.)./.).).).).^.O.O.G.O.^./././.",
"/./.).K.).).).).(.!.o.Q.(././././.(.^.|.p $ N.c.i.a.m.d.i.p.i.z.x.i.d.f.d.c.N.N.N.N.v.g.l.l.f.n.v.d.k.N.;.+ K._././././././././././.).).)./.).!.O.)./.+././././.",
"/.).)././.).).[.O.O.Q.~.o././././.^.{.| # V.c.e.w.z.l.e.p.d.q.v.d.p.d.d.f.f.c.N.N.n.n.y.k.l.k.k.n.s.k.f.N.-.& )./.^./././././././.)./.).).).).).).).).)./././.).",
"/././././.).).).(.(.[.(.Q./././././.K.o j.n.w.i.y.c.e.p.p.p.0.l.i.p.d.d.f.f.f.l.x.k.x.s.g.l.k.k.l.v.q.k.g.N.&.4 {./././././././././.).).).).).).).).)./././././.",
"/./././.).).).).).)./.).)./././.^.}.4 &.M.w.i.9.z.d.i.p.p.i.y.k.i.p.d.d.f.k.k.l.l.k.l.x.0.l.k.k.f.c.s.y.l.f.N.8 p {.K././././././.)./.).)./.).).).).).)././././.",
"/././.)./.).)././.).)././.)././.]...% N.i.i.w.0.l.e.i.p.p.w.s.d.i.p.d.d.f.k.k.k.l.k.k.x.0.d.l.k.k.f.x.2.d.k.k.V.# J.]./././././.).).).).).).).).).).).)././././.",
").)./.).).).).).).).).).)./.)./.].& ;.l.e.p.7.s.d.e.i.i.p.9.s.p.i.p.p.d.d.f.k.k.l.k.k.l.y.y.l.k.k.f.x.s.8.k.d.n.*.4 {.^././.).).).).).).).).).).).).).)./.)./.).",
"/././.).).).).).).).).)./././.{.} 8 n.e.p.w.3.k.e.i.i.p.p.6.g.i.p.p.p.d.d.f.k.k.k.k.f.k.s.8.l.k.k.f.f.z.2.g.k.d.M.8 ..{./.).^.G.).).).).).).).).).).).).).)././.",
").).).).).).).).).).).)./././.{.1 :.f.w.i.6.0.f.e.i.i.p.p.2.g.i.i.p.d.d.f.f.f.k.k.k.k.f.f.2.f.k.k.f.f.k.y.8.k.f.l.;.* }.).O.G.O.G.H.).).).).).).).).).).)./.)./.",
"/./.)./.)./.).).).).).).)./._.F.% v.e.e.i.1.y.p.e.i.i.p.i.2.g.e.i.p.p.d.d.f.f.k.k.f.k.f.k.2.a.k.f.f.f.f.g.3.d.f.d.n.8 | {.o.H.).O.G.[.).).).).).)./._./././././.",
").).).)./.)./.).).).).)./.).}.i t k.w.i.r.1.a.i.e.i.i.i.u.2.p.e.i.p.p.d.d.f.f.f.k.f.f.f.f.0.q.k.f.f.f.f.f.1.0.f.d.x.*.5 }.^././.)./._.).).).).).).).)./.).).).).",
").).).[.H.!.[.).).).).)././.{.4 :.p.e.i.9.3.p.e.i.i.i.p.q.2.p.e.i.p.p.p.d.d.f.f.k.k.f.f.f.0.8.f.f.f.f.d.f.0.2.d.f.d.z.% A.[./.).).).).).)._./.G.`.).).).)./.).).",
"/.).H.G.O.G.G.^.).).).)./.).).* y.i.i.e.7.2.p.i.i.e.i.i.9.2.i.i.i.p.p.d.d.f.d.k.s.a.f.d.f.y.2.d.f.f.f.d.f.y.1.s.g.d.x.r n {./././././.).).G.G.+.H.G.)./././././.",
").).!.o.(.(.o./.).).).)./.].S.1 d.e.i.e.1.8.p.e.i.e.i.p.9.2.i.i.i.i.p.p.d.d.f.z.H <.f.d.d.a.3.p.f.f.d.d.f.u.8.=.<.d.f.*.5 }.K.[.).).).)./.O.Q.).G.+.).)./.).).).",
")./././././././.).).).)./.{.| > p.e.i.e.1.8.i.e.e.i.e.i.9.2.i.e.i.i.i.p.d.p.l.r . P y.d.d.u.3.u.f.d.d.d.d.u.4.% D d.d.t.4 [./.).).).).).).).).).).).).).).).).).",
").).).)././.).).).).).).).].X.8 p.e.i.w.3.9.i.i.i.i.e.i.8.1.e.i.i.i.i.p.d.d.t.= = S 3.d.d.u.1.u.f.d.d.d.d.d.=.o q 0.d.a.% K.[.).).).).).).)./.).).).).).).)././.",
").)./././.`./.).).).).).).].X.> i.e.e.w.1.6.e.i.i.e.i.i.9.1.e.e.i.i.p.p.p.k.kXKXLXlXG q.d.u.1.q.f.d.d.d.g.d.cXKXdX5.d.d.% F.].).).).).).).).).).).).).)././././.",
"/./././.).)././.).).).)./.].F.$ 9.i.i.e.1.6.i.e.e.i.e.i.9.1.w.i.i.i.i.p.i.C.qXMXLXLX>.P d.u.1.q.d.d.d.d.i.b.mXLXLX>.w.p.$ | ].)./.).).).).).).).).).).).)./././.",
"/././././.).)./.).).).)./.)./.& P i.i.e.1.1.e.i.i.e.e.i.r.1.r.i.e.i.i.i.f.cX8XqXLXNX6XP q.i.1.q.d.p.d.p.p.kX9XPXKX#.7.e.$ F.].)./.)./.).).).).).).).).)././././.",
"/./././.)././.).).).).).)./.}.4 S w.e.i.6.1.w.i.i.e.i.i.r.3.r.e.i.e.w.p.t.mX8X2X>X>X0XJ <.u.1.9.d.p.d.p.d.BX8X>X2X6XI I # @.(.(./././.).)./.).).).).).)././././.",
"/././././.).)././.)./.G.`./.{.} > 9.9.i.9.1.9.i.e.i.e.i.w.1.7.e.i.i.i.f.# *XMX0X1X7X&X. H 2.3.9.d.p.u.f.F *XnX2X1X&XA G * (.@.(./.).).).).).).).).).).)././././.",
"/././././.)././.[.G.G.+.G.G.[.).& G 6.r.e.3.6.e.e.e.e.i.e.6.4.R.h.Y Y u.w e  X<X<X<Xw 0 =.4.I q.p.p.u.f.F 0 fX6X<X% A D y {.H.(././.).).).).).).).).)./././././.",
")./././.).)./.).).O.Q.).G.G./.].} $ 6.3.9.6.3.r.d.d.e.i.e.7.T IXdXT Z Y d.d.p.d.d.d.d.f.f.u.7.i.d.p.p.p.f.a.t.i.e.hXdXZ J _.K.)./.)./.).).).).).).).)./.^./././.",
"(././././.)././.).`.).).).).).).{.y , r.<.1.3.7.d.c.d.e.i.r.U T T T Z Z r.u.5.5.2.u.i.y.5.P G 3.4.4.0.u.u.2.5.3.I :X:XZ J _.).)./.).).).).).).).).)././././././.",
")./././.).)./.).).).)./.).).)././.[.* , 9.7.<.1.8.f.f.e.e.i.3.L L L L I e.f.w   q i.f.:.  . .   .   . G e.p.9 q 7.D R J K.).).)./.)./.)./.).).).)./././././././.",
"/.).^././.)./.).).).).)./.)././.).).].4 ; P r.3.1.6.w.e.i.i.w.3.7.r.e.i.i.e.f.9 . ; : %               > > : S 4.I X p  XK.).).[.).).).).).).).).)./.`./././././.",
").).)./.).).).)./.).).).).).).).)./.).}.p O A 6.9.6.1.9.w.i.i.9.I r.i.e.i.i.e.f.&.X                     . F 0.D X ' }.K.).).).).).).).).).).).)././.O.Q././././.",
"/././.).).).).).).).).).).).).).)././.K.}.J.4 $ q I 9.9.7.6.9.w.7.1.7.w.i.e.i.e.p.d.=.9 $ X   . . # 0 H q.P ; & ,.}.K._.).).K.).).).).).).)./.].G.O.G.G.o./././.",
").).).).).).).).).).).).).).).).).).).)./.).|.F.a O ; S G 6.8.9.r.7.6.6.9.r.w.w.9.7.9.q.a.t.4.5.4.y.3.S ; & i ].].).).).).).).).).).).).).)./.).!.H.`.^.G.).).).",
"/./././.).).).).).).).).).).).).K.).).).).).K.Z.} ' 7 3 # O : q S H P I 1.1.I 1.1.7.I I P G D S , ; & 4 ' ~.}.).(.)././.)././.).).)./.O.).).).).).].).).).).).).",
").).).).).).).).).(.).).).).).).).).).).).).K.4 < [ { { ` 3 k - < @ @ X O $ $ $ $ $ $ $ & * 4 5 ' X.~.~.~.G.+.).).).)././.).)./.).O.G.+.~.G.)./.).).).)./.).).).",
").).).)._.).).(.(.o.G.(.(.).).).).).).)._.'.K.lXP.2 ^ / Q 6 =X%.[ ` ` z c ^ W Q < * J.K./.[. X{.}.].!.O./.(.O./.).).).).).).).).`.G.Q.).G.G.)./.).).).).).).).).",
").)./.).)./.[.G.O.H.H.o.).).).).).).)._.J.yXxXzXxXa E W E - +Xv ` ` / c @XQ Q 6 I.rXA.].).).).K././.)./.)././.).).).).).)././.)./././.).).)./.).).).).).)./.)./.",
"/./././.).^./.K.!.[.(.H.).).).)././.).D.tXDXzXXXXXw 2 2 2 3 #X7 Q Q Q c @X2 2 I.AXFXfXD.).).).).).).).).).)./.).)./.)././.)./.).)./.).).).).).).).).).).).)././.",
").).).).).).).).)./.).).).).).).)./.].Z.lXSXjXXX>.y @ < E j #X! Q Q E z c < 1 T.XXjXDXyXA.].).).).).).).).).).).).).).).).).).).).).).).).).).).).).).).).).).).",
").)./.).).).).).).).).).).).).)./.).K.n wXtXE.R.,.Z.j +Xv c *Xc v @Xj *XM p y ,.XXjXAXCXF.].).).).).).).).).).)./.)././././.)./.).)./.).).).).).).).).).).)./.).",
"/./.)./.).).).).).).).).).).).)./.[...CXPXJXuXs (.S.l +X+XM M #X5X-XOXB 5 '.'.,.R.oXdXdX .].).).).).).).).).).).)./././././.(.H.).)./.).).).).).).).).)././././.",
"/././././.)./.).).).).).).)././._.A.tXLXLXPXIXm _.| k @X$X+Xz OX*X$X@X+Xv ^.[.A.s rXbXVXV A.).).).)././.).).)././././././.G.H.@.G.!.)./.)./.).).).).)././.).)./.",
"/././././.)././.).).).).).)././._.D.V yXwXZXbX} |.) f @X$X%Xx $X5X5X+X#Xp }.).F.eXKXLXLXCX| ].).).).)./.).)./././././././.o.Q.^.O.G.[./.).).).).).).).)./.(.)./.",
"/./././.).)./.).).).).).).)./.).`...I.gXhXU.iX_ Z.c 5X$X+X$Xz +X$X$X+Xx j Z. XZ.P.JXvXZXGX,.].).).).)._.).).)././././././.^./.).^./.).)./.).).).).).)./././././.",
"/././././././.).).).).).).).)._.A.wXsXyXyXpXLXiXj 5X%X$XOX+XOXz x x l @X5XM _ ..iXsXI.E.P...{.(.).).).).).)././././././././././././.).).)./.).).).).).)././././.",
"/./././.).).).).).).).).).).)._.X.ZXLXJXCXIXpXHX,X=X=X+Xx f z z l l OX%X5X%XN JXLXiXyXjXU. .G._.)././.).).)./././././././././././.)./.).).).).).).).).)././././.",
"/./././.).).).).).).).).).).)._.| iXJXJXIXZXC V f =X=XOXg _ ..| _ g OX#X,X%XN P.eXKXlXpXVXeX@._./._.).).)./.)././././././././././.).).).(.).).).).).).)./.(././.",
"/././.^./.)./.(.).).).).).).).).A.V ;XVXsXZXyXT.u j +Xf _ }.]._.}.| f +X#Xf u U.B IXPXLXLXuXZ._.).).).)./././././././.^./././.^./././.).)./.).).).).)./././././.",
"/././././.(.H.o.^.(.).).).).).).[.D.) #.b sXwXd hXu h i ].^./././.{.a k f >.Y.I.UXlXZXZXCX#.D._.).).).)./././././././././././././.).).).).).).).).).).)././././.",
"/./././.).+.G.H.O.O.[.).).).).).K._.].K.^.i P.cXgXK 4 /./././.`.).).[.= & XXU.B iXb wXm V X.]./.).).).).).)./././././././././././././.).).).).).).).)./././././.",
"/././.).).H.^.).!.H.).).).).).)._.).).).{.X.lXSXXXs ).)././._./.).)._.K.) T.zXlXn '.X.F.A.].).).).).).).).)./.)./.)./.).)./.).).)./.).).)./._.).)./.).)././.).).",
"/./././.).).).)._.).).).).).).).).).).).{.| lXxXR.s {./.).).).).).).K. XZ.>.jXDXL.'.].).).).).).).).).).).).)././.).)././.)./.)./.).).).).)././.)./.O.!././././.",
"/./.).).).).).).).).).).).).).).).).).).'.L.DXzXT...{.).).).).).).[.K.[.S.>.jXDXtXA.)./.).).).).).).).).).).).).).).).).).).).).).).).).).).).).G.O.G.G.+././.).",
").).).).).).).).).).).).).)././.).K.).].A.n rXI.s @.(.(./.).).).).).).).).K T.lXP.Z.]././././.)./.).).).).).).).)./.).).).).).).).).).).).).).[.!.G.[.(.O./.).).",
"/.)./.).).).).).).).).).).).`./._.{././.m ZXCXJXuX} $.G.).).).).).).).).K.B sXvXiX#.'.}.]././.)./.).).).).).).).).)./.)././.).).).).).).).).).).).).).).)./.).).",
").).).).).).).).).)././.).)./.].K.p m m = b B ;XB Z.`.(.).).).).).).).].A.V HXHXJXB y n ) /.].^.).).).).).).).).).).).).).).).)./.).).).).).).).)./.).)./.).).).",
").).)./.)./.).).).).)._././.).S.n bXPXLXCXC + = = m ].).).).).).).).).[.Z.4 = o & wXGXHXpXn X.$././.).).).).).)./.).)./.).).).).).).(./._.).).).).).).)./.)./.).",
"/./.)./././.).).).).).).`._.).i GXLXLXLXIXJXC o eXeXZ.]././.).).).).).^. .wX= = iXLXLXLXLXHXa O.O.Q.`./.).).).)./././././././.).^.^.o.Q.(././.).).).)./.)././.).",
").).).).).).).).).).).).`.(.| wXLXPXLXPXJXJXbX= = b Z.)./.`.).).).)._.K.B C + eXPXIXPXLXLXLXpX_ !.(.)./.).)./.).).).).)./././.).O.O.Q.G.o.)./.`.).).).).).).).).",
")./.)./.).).).).).).).H.G.$.a V uXwXwXwXwXeXwXb O o } ]./.).).).)./.).K.+   o eXwXwXuXuXuXuXeXa {././.).).).).)././.)./././././.^.(.).(.(.).).).).).).).).)./.).",
"/./././.).).).).).).[.!.+._.a wXZXVXiXiXiXiXiXbXVXaXi ].).).).)././.}.) B pXpXpXpXuXuXuXpXVXuXb ^.).).).).).).)./././././././././.)./.).).).).).).).).).)./././.",
"/././././.)./.).).).).).^.].} m  . . . . . .m  .} n | ).).).).).)./.{.| n L.L.L.L.L.L.L.L.tXP.n ).).).).).)./././././././././.^.(./.).)././.).).).).).).).).)./.",
"/./././.).).)./.).).).)././.].`.`.`.'./.[.`.`.'.).].].).).).).)././.).).K.A.A.A.A.A.A.A.A.A.A./.).).).).).).)././././././././././.).).).)./.).)._.).).).).).).).",
"/././././././.).).).).)./.)./././././././.K././.)./.).).).).).)./././././.).)._.).).`.).).[.)./.).).).).).).)././././././././././.)./.).).).).)./.)._.).(././.).",
"/./././.).)./.).).).).)./.)./././././././././././.).).).(.).).)./././././././././././././.)././.).).).).).).)././././././././././././.).)./.).)././.).).).)./.K."
};
