/* XPM */
static char *New_Project__4__resized[] = {
/* columns rows colors chars-per-pixel */
"80 80 256 2 ",
"   c #010100",
".  c #0C0D04",
"X  c #171805",
"o  c #111510",
"O  c #331C00",
"+  c #241810",
"@  c #152C0F",
"#  c #282703",
"$  c #372504",
"%  c #353904",
"&  c #2A3A1A",
"*  c #293010",
"=  c #0E283C",
"-  c #2E2F2D",
";  c #1B1D22",
":  c #423D00",
">  c #5C3200",
",  c #533302",
"<  c #4B2C02",
"1  c #6B3C00",
"2  c #623200",
"3  c #773E00",
"4  c #114F11",
"5  c #2E4818",
"6  c #176C16",
"7  c #354A26",
"8  c #3C5528",
"9  c #2B4D31",
"0  c #2E6A2F",
"q  c #1A6022",
"w  c #464501",
"e  c #575400",
"r  c #564A0B",
"t  c #6D5301",
"y  c #6B6700",
"u  c #767600",
"i  c #716800",
"p  c #45582A",
"a  c #4C6634",
"s  c #576C36",
"d  c #57773A",
"f  c #496F31",
"g  c #6B7635",
"h  c #1A3656",
"j  c #1C3347",
"k  c #385254",
"l  c #1E416A",
"z  c #2B5070",
"x  c #2F6B55",
"c  c #51544B",
"v  c #5A7647",
"b  c #5D6847",
"n  c #6B7757",
"m  c #6A6E4A",
"M  c #676667",
"N  c #7A7A71",
"B  c #5F6169",
"V  c #CD3A15",
"C  c #DB3837",
"Z  c #834A00",
"A  c #894A00",
"S  c #985700",
"D  c #885300",
"F  c #A55C00",
"G  c #8C6401",
"H  c #937701",
"J  c #AD6500",
"K  c #A46600",
"L  c #B76B01",
"P  c #BA7800",
"I  c #B4760D",
"U  c #99722C",
"Y  c #C97A01",
"T  c #D77502",
"R  c #C06A00",
"E  c #DA5D21",
"W  c #88734B",
"Q  c #E14A4E",
"!  c #882012",
"~  c #1B8E0A",
"^  c #259811",
"/  c #2DAE16",
"(  c #1E8D22",
")  c #299228",
"_  c #29A72A",
"`  c #32B92D",
"'  c #688639",
"]  c #748B3B",
"[  c #4BBA36",
"{  c #6B913D",
"}  c #31C832",
"|  c #49C232",
" . c #38804F",
".. c #688446",
"X. c #728C46",
"o. c #769847",
"O. c #738655",
"+. c #749252",
"@. c #79A547",
"#. c #74B956",
"$. c #7CBC56",
"%. c #77BA58",
"&. c #72B453",
"*. c #788565",
"=. c #54A647",
"-. c #7AC25C",
";. c #928C00",
":. c #B68A00",
">. c #B59801",
",. c #A98D00",
"<. c #A8A600",
"1. c #BAAC00",
"2. c #B28F38",
"3. c #928D3B",
"4. c #D68400",
"5. c #DA8500",
"6. c #DD8A00",
"7. c #C79600",
"8. c #DA9500",
"9. c #CF8800",
"0. c #E38C00",
"q. c #EA8E00",
"w. c #E08700",
"e. c #E49300",
"r. c #EB9300",
"t. c #E29A00",
"y. c #E99D00",
"u. c #F19500",
"i. c #F49B00",
"p. c #FC9D00",
"a. c #FB9600",
"s. c #F98D00",
"d. c #D4A706",
"f. c #E9A700",
"g. c #F3A301",
"h. c #FEA200",
"j. c #FEAB00",
"k. c #F2AB00",
"l. c #EBB900",
"z. c #FEB300",
"x. c #FEBC00",
"c. c #F4B300",
"v. c #C78632",
"b. c #BFC43D",
"n. c #CFD100",
"m. c #FFC300",
"M. c #FECB00",
"N. c #F2C300",
"B. c #FED400",
"V. c #FDDA00",
"C. c #F5DB00",
"Z. c #E9C100",
"A. c #FEEB00",
"S. c #FEE300",
"D. c #FEF400",
"F. c #FFFE00",
"G. c #F4F600",
"H. c #EEF100",
"J. c #FFD624",
"K. c #819C53",
"L. c #85AA48",
"P. c #8FBA49",
"I. c #8AB348",
"U. c #92BD4D",
"Y. c #83BE56",
"T. c #87BC56",
"R. c #93BB54",
"E. c #8CAD50",
"W. c #889376",
"Q. c #8A8F74",
"!. c #AD9A6F",
"~. c #A4A065",
"^. c #D2A952",
"/. c #DBAF64",
"(. c #8CC156",
"). c #8CC158",
"_. c #85C459",
"`. c #94C356",
"'. c #9AC457",
"]. c #9CC955",
"[. c #95C358",
"{. c #9BC558",
"}. c #9ECA5A",
"|. c #93CA5C",
" X c #9BCF59",
".X c #A1CD5B",
"XX c #A0C857",
"oX c #A5D15C",
"OX c #A8D55D",
"+X c #ABDA5E",
"@X c #BDC945",
"#X c #ADD560",
"$X c #F9D552",
"%X c #F8CC6C",
"&X c #2D5886",
"*X c #2C578A",
"=X c #376897",
"-X c #38668A",
";X c #3867A6",
":X c #3C73AA",
">X c #3D77B4",
",X c #355CA0",
"<X c #427BB7",
"1X c #5F7594",
"2X c #457DC3",
"3X c #847C83",
"4X c #F57893",
"5X c #008CB7",
"6X c #0583A8",
"7X c #2BA2BF",
"8X c #4582BD",
"9X c #6AA6AD",
"0X c #0DB6E9",
"qX c #13A8C9",
"wX c #4382C5",
"eX c #00CDFF",
"rX c #04C6FB",
"tX c #10CAF5",
"yX c #50E7FD",
"uX c #52DAD6",
"iX c #969596",
"pX c #8E8E8F",
"aX c #AEAB95",
"sX c #A8A6A8",
"dX c #B8B6B8",
"fX c #B0AEB1",
"gX c #9F9B93",
"hX c #F09B9B",
"jX c #AFC79A",
"kX c #D1C38F",
"lX c #F2D690",
"zX c #FFE993",
"xX c #FFE598",
"cX c #EFEE82",
"vX c #E8D4B0",
"bX c #FEE7A7",
"nX c #FFF2B3",
"mX c #FFF2B1",
"MX c #D3D2B3",
"NX c #BFBCC4",
"BX c #C0BDC5",
"VX c #9AF4FF",
"CX c #B0DDE0",
"ZX c #C7C6C9",
"AX c #D7D7DA",
"SX c #D3CFCF",
"DX c #FFF8C8",
"FX c #FFF8D8",
"GX c #F4E4CF",
"HX c #E1DEE5",
"JX c #D0FBFF",
"KX c #E6E6E8",
"LX c #FEFEFE",
"PX c #F5F5F7",
"IX c #EFF0F3",
"UX c #E8D7D3",
/* pixels */
"'.'.'.'.{.{.'.'.{.{.{.{.{.{.{.{.'.'.'.'.'.'.'.'.'.'.{.{.'.{.{.{.{.{.'.'.'.'.[.'.'.[.'.'.'.'.'.{.{.{.{.{.{.{.{.{.'.'.'.'.'.'.'.'.'.{.'.{.{.{.{.{.{.{.'.'.{.{.{.'.",
"'.'.'.'.'.{.{.'.{.{.{.{.{.{.{.{.'.'.'.'.'.'.'.'.'.'.{.'.'.T.Y.].'.'.'.'.'.'.'.'.'.'.'.'.'.'.'.{.{.{.{.{.{.{.'.'.'.'.'.'.'.'.'.'.'.{.'.{.{.{.{.{.{.{.'.'.T.Y.{.{.",
"'.'.'.'.{.'.'.{.'.{.XX{.'.{.'.'.'.'.'.'.'.'.'.'.'.{.{.[.&.Y.Y.$.(.{.'.'.'.{.'.'.'.'.'.'.'.'.'.{.{.{.{.{.{.{.{.'.'.'.'.'.'.'.[.'.{.{.{.{.{.{.{.{.{.'.[.%.Y.$.%._.",
"[.'.'.'.'.{.{.{.{.{.T.{.{.{.'.'.'.'.'.'.[.'.'.'.{.{.{.[.$.`.'.Y.(.].oXoX.XR.'.'.'.'.'.'.'.'.'.{.{.{.{.{.{.{.'.'.[.'.'.'.'.'.'.'.{.{.{.{.{.'.{.{.{.].'.$.`.'.Y.(.",
"'.'.'.{.{.{.'.{.).).&.(.T.{.{.{.'.'.'.{.{.'.'.{.{.{.{.{.{.'.'.`..X{.X.d o.XX`.'.'.'.'.'.'.{.{.{.{.{.{.{.{.{.{.{.'.'.'.'.'.'.'.'.{.{.{.{.{.{.{.{.{.{.{.].{.'.'.'.",
"'.'.'.{.{.{.'.XX$.%.`.(.%.{.{.{.'.{.{.'.'.{.{.'.{.{.{.{.'.{.'.oXo.5 4 6 4 s .X'.'.'.'.'.'.{.{.{.{.{.{.{.{.{.{.{.{.{.{.{.'.{.'.'.{.{.{.{.{.{.{.{.{.{.{.'.{.{.'.'.",
"{.{.{.{.{.{.{.{.[.[.XX`.`.{.{.{.'.{.{.{.{.{.{.{.{.{.{.{.{.'..Xo.@ ( ) ) } 6 g OX'.{.{.{.{.{.{.{.{.{.{.{.{.{.{.{.{.'.'.{.{.[.'.{.[.{.{.{.{.{.{.{.{.{.{.{.{.{.{.{.",
"{.{.{.{.{.{.{.{.}.{.{.'.{.{.{.{.{.{.{.{.{.{.{.{.{.{.{.{.{.'.oX8 6 _ ) _ ` } 4 L..X'.{.{.{.{.{.'.{.{.{.{.{.{.{.{.{.{.{.[.[.#.T.[.{.{.{.{.{.{.{.{.{.{.{.{.{.{.{.{.",
"{.{.{.{.{.{.{.{.'.'.{.{.{.{.{.{.{.{.{.{.{.{.{.{.{.{.{.{.{.'..Xp 6 ` _ _ _ } _ 8  X[.{.{.{.{.].{.{.{.{.{.{.{.{.{.{.'.XXY.#.T.T.#.{.{.{.{.{.{.{.{.{.{.{.{.{.{.{.{.",
"{.{.{.{.{.{.{.{.{.{.{.{.{.{.{.{.{.{.{.{.{.{.{.{.{.{.{.{.{.{.}.L.5 6 ( ) _ _ } q @.oX{.{.{.{.(.(.XX{.{.{.{.{.{.{.{.{.{.[.T.XX`.(.{.{.{.{.{.{.{.{.{.{.{.{.{.{.{.{.",
"{.{.{.{.{.{.{.{.{.{.{.{.{.{.{.{.'.{.{.{.'.{.{.{.{.{.{.{.{.{.{.}.{...& 4 ( _ } ( s OX[.{.`.$.-.$.$.`.{.{.{.{.{.{.{.{.{.{.{.'.'.{.{.{.{.{.{.{.{.{.{.{.{.{.{.{.{.{.",
"'.{.'.'.{.{.{.{.{.{.{.{.{.{.{.'.'.'.'.'.'.'.'.'.{.{.{.{.{.{.{.[.'.oX[.8 4 ( ` _ 8 .XR.{.`.%.[.{.%.(.{.{.{.{.{.{.'.'.'.'.'.'.'.'.'.'.'.{.{.{.{.{.{.{.{.{.'.'.'.'.",
"{.{.{.{.'.'.'.{.{.{.{.{.{.{.{.{.{.{.{.{.{.{.{.'.{.{.{.{.{.'.'.}.OXoXoXR.@ 0 _ _ 8 +XoX}.'.'.].{.{.{.'.{.{.{.{.{.{.{.{.{.{.{.{.'.{.{.{.{.{.{.{.{.{.{.{.{.'.{.'.{.",
"'.'.'.'.'.'.].{.{.{.{.{.{.{.{.{.'.'.'.'.{.{.Y.`.{.{.{.[.[.oXoXE.d 8 & % @ ( ) ` @ 8 d E..XoX{.[.{.{.{.{.{.{.{.{.'.{.'.'.'.'.'.'.{.{.{.{.{.{.{.{.{.{.{.{.'.'.'.'.",
"{.'.{.'.'.'.%.[.[.{.{.{.{.{.{.'.{.{.{.{.(.Y.#.Y.$.'.'.oX}...& % y <.n.l.1 @ 6 4 2 ,.u % & { |. X'.{.].{.'.'.{.{.{.'.{.'.'.'.'.'.{.{.{.{.{.{.{.{.{.{.{.{.'.'.'.'.",
"'.'.'.{.$._.$.Y.$.{.{.{.{.'.{.'.'.'.'.XXY.$.'.`.#.].OX..* w 1.G.F.F.F.F.C.>.;.,.N.F.F.F.d.e * ..oXXX'.{.}.{.'.'.'.'.'.'.'.'.'.'.'.{.{.{.{.{.{.{.{.{.{.{.'.'.'.'.",
"'.'.'.{.Y.T.XXT.Y.].{.{.{.{.{.'.'.'.'.'.'.[.'.R.oXT.& : n.F.F.F.A.m.A.F.A.F.F.F.F.B.G.F.F.F.n.e & E.OX{.(.[.{.'.'.'.'.'.'.'.'.'.'.'.'.{.{.'.{.{.{.{.{.{.'.'.'.'.",
"'.'.'.[.'.'.{.XX{.{.{.{.{.{.'.'.'.'.'.'.'.'.'.+X..# ;.F.A.A.F.M.j.M.F.m.x.F.F.F.F.A.S.F.F.D.D.F.<.# v  X#.Y.(.{.'.[.'.'.'.'.'.'.'.{.{.{.{.{.{.{.{.{.{.{.'.'.'.'.",
"'.'.'.'.'.'.{.'.{.{.{.{.{.'.{.'.'.'.'.'.'.'.oXa # n.F.x.B.D.x.j.j.F.B.j.M.F.F.F.F.F.B.A.F.F.A.B.F.H.5 7 {.).&.'.'.'.'.'.'.'.'.[.'.'.'.{.{.{.{.[.'._.).{.`.'.'.'.",
"'.'.'.'.'.'.{.{.{.{.[.{.{.{.'.'.'.'.'.'.R.oX8 : F.A.j.m.D.z.h.j.N.A.j.z.z.D.F.F.F.F.S.x.B.m.S.A.x.A.F.y 7 oX`.'.'.'.'.'.'.'.'.'.'.{.{.{.{.'.{.`.$.$.Y.%.`.'.'.'.",
"'.'.'.'.'.{.{.{.[.`.#.(.[.[.'.'.'.'.{.R.OXp w F.V.p.j.G.z.j.z.g.C.m.j.z.z.B.F.F.F.F.F.c.m.m.x.A.C.z.V.F.u & oX{.'.'.'.'.'.'.'.'.'.'.'.{.{.{.].`.$.'.'.%.'.'.'.'.",
"'.'.'.'.{.'.'.XX$.$.(.Y.#.{.'.'.'.'.`.+Xs % F.M.h.i.S.x.h.j.j.g.V.j.j.z.x.z.V.F.F.F.D.Z.x.M.m.m.A.N.x.M.F.i 7 .X'.'.'.'.'.'.'.'.'.{.{.{.{.{.{.{.{.{.{.{.'.'.'.'.",
"'.'.'.'.{.{.{.{.[.).XX[.).'.'.'.'.`..Xo.# G.M.p.i.l.B.p.j.j.j.f.B.h.z.z.x.x.x.V.D.D.B.C.f.M.m.m.M.C.f.m.M.F.e a oX`.{.'.'.'.'.'.'.{.{.{.{.{.{.{.{.{.{.{.'.'.'.'.",
"'.'.'.'.'.{.{.{.{.{.{.{.{.'.'.'.'.'.[.o n.V.a.j.t.V.h.h.j.j.u.Z.x.h.j.z.z.x.m.m.m.m.m.B.f.m.M.M.x.V.l.k.m.M.F.% o..XR.'.'.'.[.'.'.{.'.{.{.'.{.{.{.{.{.{.'.'.'.'.",
"'.'.'.'.{.{.{.'.{.{.{.{.{.{.'.'.R.+X7 H D.a.j.q.l.m.p.h.h.j.r.N.j.h.j.z.x.x.m.m.M.M.m.B.l.g.M.m.m.x.V.t.x.x.V.n.# R.{.{.{.{.'.'.'.{.{.{.{.'.{.{.{.{.{.{.'.'.'.'.",
"'.'.'.'.{.{.{.'.{.{.{.{.{.{.{.'.oXo.# G.h.h.i.e.M.p.h.j.j.j.t.x.h.j.j.z.z.x.m.m.m.M.m.m.l.t.M.m.m.m.M.l.e.M.z.D.;.8 OX'.{.{.{.{.'.{.{.{.{.{.{.{.{.{.{.{.{.{.'.{.",
"'.'.'.'.{.{.{.{.{.{.{.{.{.{.'.'.OX& <.B.a.j.0.f.x.p.h.h.j.g.t.z.h.j.j.z.z.x.x.m.m.M.m.x.M.t.x.M.m.m.x.B.6.c.m.x.A.% o..X'.'.'.Y.'.{.{.{.{.{.{.{.{.{.{.{.{.{.'.'.",
"{.'.{.{.{.'.{.{.{.{.{.{.{.'.'..Xo.% S.p.h.p.5.l.h.h.h.j.j.u.t.z.h.h.j.z.z.x.x.m.m.m.m.x.M.t.k.m.x.m.x.M.f.e.m.z.B.<.7 OX`.Y.Y.#.Y.(.{.{.{.{.{.{.{.{.{.{.{.{.{.{.",
"'.'.'.'.'.'.{.{.{.{.{.{.{.{.'.OX8 ;.m.a.h.r.6.x.p.h.h.h.j.e.f.j.h.j.j.z.z.x.x.x.m.m.x.x.m.f.y.M.m.m.x.x.N.5.j.m.z.S.w o.oX$.T.'.$.Y.}.'.{.{.{.{.{.{.{.{.'.'.'.'.",
"{.{.{.'.{.{.'.{.{.{.{.{.{.{.}.[.* Z.h.h.h.0.t.z.p.h.h.h.j.0.f.h.h.h.j.z.z.x.x.x.m.m.m.x.x.f.0.m.x.x.x.z.m.8.e.m.z.M.<.7 +XR.'.{.{.'.{.{.{.{.{.{.{.{.{.{.{.{.{.{.",
"{.{.{.XXT.).XX'.{.{.{.{.{.'..XX.e m.a.h.i.5.f.h.p.h.h.h.h.6.g.h.h.h.j.j.z.z.x.x.x.x.x.x.x.k.6.z.x.x.x.x.m.f.5.x.x.z.B.% E.XX'.'.{.{.{.{.{.{.'.Y.{.{.{.{.'.{.{.{.",
"'.{.[.$.$._.Y.[.{.{.{.{.{.'.OXa H x.i.h.u.5.g.h.p.h.h.h.h.5.g.h.h.h.j.j.z.z.x.x.m.m.x.x.x.c.6.k.m.x.x.z.z.c.5.g.x.c.B.y d +X`.'.'.'.{.{.{.T.Y.%._.Y.{.{.'.'.'.'.",
"{.XX(.#.[.`.#.[.{.{.{.{.{.[.OX7 :.j.p.h.e.5.g.p.p.h.h.h.g.5.i.h.h.h.j.j.z.z.z.m.N.9.m.x.z.x.6.g.x.x.z.z.z.z.4.f.l.k.m.>.7 OXR.XX{.{.{.{.{.$._.'.Y.%.XX{.'.{.{.{.",
"{.{.{.[.{.].'.'.{.{.{.{.{.].{.& 8.h.h.h.q.5.h.h.h.h.h.h.p.6.i.h.h.h.h.j.j.z.z.M.t L k.x.z.z.6.y.x.x.z.x.z.x.e.8.P j.z.l.5 R.{.XX{.{.{.{.{.{.{.XX{.'.{.{.{.{.{.{.",
"{.{.{.{.{.{.{.{.{.{.{.{.{.{.'.* 8.h.i.h.6.5.h.h.p.h.p.h.i.5.i.h.h.h.h.j.c.j.m.H   A 6.x.z.z.6.e.x.z.z.z.z.j.k.e 1 g.j.m.w @..X'.{.{.{.{.{.{.{.{.{.{.{.{.{.{.'.'.",
"{.{.'.'.{.{.'.'.{.{.{.{.{.{.XX& 5.j.h.h.0.5.a.h.h.p.h.h.i.4.u.h.h.h.j.j.j.j.M.Q.1XW L f.z.j.0.t.x.x.z.z.c.z.f.& < 9.c.x.t ..oX'.{.{.{.{.{.{.{.{.{.{.{.{.{.'.'.'.",
"'.'.'.'.'.{.{.{.{.{.{.{.'.'..X& P j.p.p.0.5.i.h.p.p.h.h.i.5.u.h.h.h.h.j.j.z.cXJXLXLXv.9.z.j.6.e.z.z.z.j.z.j.$XPXAXI g.m.t d oX'.'.{.{.{.{.{.{.{.{.{.{.{.{.'.'.'.",
"'.'.'.'.{.'.'.'.{.{.{.{.'.'.oX7 S h.h.h.q.5.u.h.h.h.h.p.i.4.r.h.p.p.h.j.h.J.yXyXLXLXdXK k.j.0.0.z.z.z.z.j.x.CXJXLX^.4.x.2 d OXR.'.'.'.{.{.{.{.{.{.{.{.'.'.'.'.'.",
"'.'.'.'.{.{.{.'.'.'.'.}.{.'.OXd 1 u.p.h.e.5.u.h.h.p.p.h.p.5.r.h.p.h.h.h.x.lXrXtXCXCXtX2.5.j.6.0.z.z.j.z.j.J.tXVXLX9XY j., d |.[.'.{.'.{.{.{.{.{.{.{.{.'.'.'.'.'.",
"'.[.'.'.'.{.'.'.'.{.[.Y.{.{..XL.$ 6.r.h.r.4.q.h.p.h.p.h.p.6.0.h.h.h.h.z.:.9XyX0X5X5XrXm L i.6.0.j.z.j.j.j.jXeXqX7XtXI e., ' -.`.'.{.{.{.{.'.{.{.{.{.{.{.'.'.'.'.",
"'.'.[.'.'.'.'.'.].Y.Y.%._.Y.'..X& F e.r.h.6.6.p.h.p.h.h.h.0.q.s.s.p.h.m.% ; CXyXrXeX6X  D 9.5.e.j.j.j.z.7.j VX0X0X5X2 T $ L.[.R.'.{.'.{.{.{.{.{.{.{.{.'.'.'.'.'.",
"'.'.'.'.'.'.'.'.{.%.(.{.Y.T.'.XX@.O 0.5.r.r.5.u.h.j.p.p.h.q.E UXhXQ E i.d.8.d.@X@X@X:.,.7.f.4.e.j.k.j.z.>.e aXuXuX7 2 P 5 XX{.{.'.{.'.{.{.'.{.{.{.{.{.'.'.'.'.'.",
"'.'.'.'.'.{.'.'.].{.'.{.{.{.{.[.oXp > u.4.0.5.w.z.B.z.p.h.u.Q hXhXQ Q V a.j.j.x.j.h.z.z.x.h.0.j.x.z.z.j.z.z.6.i.h.%XhXC U }.'.'.'.'.{.{.{.{.{.{.{.{.'.'.'.'.'.'.",
"'.'.'.'.{.{.'.{.{.{.'.{.'.{.{.'.'..X& 1 u.5.5.5.r.M.m.p.p.h.T V Q C C V q.x.G > K g.j.f.G D D K P P P t.h.0.9.9.T 4X4XC E [.'.'.'.{.'.{.{.'.{.{.{.{.'.'.'.'.'.'.",
"'.'.'.'.'.{.'.'.{.{.{.{.{.{.{.'.'.{.}.& > q.0.4.5.e.h.h.h.h.y.T T T T s.h.j.>.  O 6.h.7.              S p.j.i 1 q.R ! U E.{.'.'.{.{.{.{.{.{.{.{.{.{.'.'.'.'.'.'.",
"'.'.'.{.{.{.{.{.{.{.{.{.{.{.{.{.{.{.{..Xp O J r.e.T 0.i.h.h.h.0.w.a.j.h.p.p.z.d.#   . X .             $ $ < G 6.T O a .X[.'.{.'.{.{.{.{.{.{.{.{.[.{.%.(.[.'.'.{.",
"'.'.'.{.{.{.{.{.{.{.{.{.{.{.{.{.{.'.'.'.+XX.* , L q.e.6.0.r.p.p.w.5.u.h.h.h.a.j.l.i X                   X D u.F O a oX{.'.'.'.'.{.{.{.{.{.{.{.XX$.$.Y.Y.#.'.'.'.",
"{.{.{.{.{.{.{.{.{.{.{.{.{.{.{.{.{.{.{.{.[.oX.Xd & , S Y q.q.q.q.q.5.5.0.i.p.h.i.p.j.d.H t % # # # : t :.y.Y < @ o.OX'.'.{.{.{.{.{.{.{.{.{.{.{.].(.(.XX[.Y.{.{.{.",
"'.'.'.'.{.{.{.{.{.{.{.{.{.{.{.{.{.'.'.'.'.'.'.oXP.p ; & , A J Y 6.q.r.y.r.u.u.i.r.0.q.u.h.j.k.k.f.0.R D O * v XX.X'.'.'.'.'.{.'.{.{.{.$.{.{.{.{.{.XX{.{.{.{.{.'.",
"{.'.'.{.{.{.{.{.{.'.[.{.{.{.{.{.'.{.{.{.'.'.].p 5 [ [ [ ) o = X # , 1 D S S K K L L J F S A 3 2 < # & 9 =.)._.'.'.{.{.'.{.'.'.'.{.$.Y.%._.Y.{.{.{.{.{.{.{.{.'.{.",
"{.{.{.{.{.{.{.[.[.%.T.[.{.{.{.{.{.{.{.{.{.{.E.*.0 ^ ` ` ` 6 ;X .^ ( 0 = = 4 @ 4 . . & 7 7 8 a d @.T.|._..X[.#.'.{.{.{.{.{.{.{.{.].$.(.{.Y.Y.{.{.{.{.{.{.{.{.{.{.",
"{.{.'.{.{.{.{.T.%.).Y.#.[.{.{.{.{.'.'.}.(.Y.kXFXkX8 / _ / 4 ,Xx | [ | z -X/ ` ^ 0 d }.OXoXOX#XoX.X{.].].{.{.{.{.'.'.'.{.{.'.{.{.'.'.'.].{.{.{.{.{.{.{.{.'.{.{.'.",
"'.'.'.{.'.'.{.[.).].[.(.{.{.{.'.{.'.{.'.+.UXnXlXxXg ~ ~ 6 4 ;Xx / / / x 1X^ ~ c vXvXE.].{.R.{.{.{.{.{.{.'.{.{.{.{.'.{.'.'.'.{.'.'.'.'.{.{.{.{.{.{.{.{.{.{.{.{.'.",
"{.{.{.{.{.{.{.{.{.{.{.}.{.{.{.{.].'..XL.MXFXbXlX^.r 4 4 6 x ;X) / / ^ z z 6 6 ^.bXbXUXR.[.{.{.{.{.{.{.{.{.{.{.{.{.{.{.{.{.{.{.{.{.{.{.{.{.{.{.{.{.{.{.{.{.{.{.{.",
"{.{.'.{.{.'.{.{.{.{.{.{.{.{.{.{.'.'.].m sXkXlX$X3.d - z 0 z -X0 ) x 9 &Xz 5 * 2.%XxXDXSXE..X{.{.{.{.{.{.{.{.{.{.'.{.{.'.{.{.{.{.'.'.{.{.{.{.{.{.{.{.{.{.{.{.'.'.",
"'.'.'.'.'.{.{.{.{.{.{.{.{.{.{.'.'.].X.dXAXdX~.2.L.U.z ;X,XB M ;X<XwX*XN 9 L.o.g $XzXbXGXK.].{.{.{.{.{.{.{.{.{.{.'.'.{.'.'.{.{.T.{.'.{.{.{.{.{.{.{.{.{.{.{.'.'.{.",
"'.'.'.'.{.'.{.'.{.{.{.{.{.{.{.'.XXI.aXLXLXLXNXd  Xo.l &X:X&Xz *X;X=Xz &Xk `.oXL.2.^.gXsXm `.{.{.{.{.{.{.{.'.{.'.'.'.'.'.'.Y.(.&.(.(.{.{.{.'.{.{.{.{.{.'.'.'.[.'.",
"'.'.'.'.'.{.'.'.{.{.{.{.{.{.'.'.XXL.pXZXSXIXZX..+X' h =X:XwXz ;X<X<X=X<Xn oXR.].b fXIXLXSXX.XX{.{.{.{.{.{.}.'.{.'.'.[.'.{.#.(.`.%.Y.XX'.{.{.{.{.{.{.{.'.'.'.'.'.",
"'.'.'.'.{.{.'.'.{.{.{.{.'.'.'.'.'.*.!.kX!.dXpX@.I.z >X:X=X:Xl >XwX<X=X&Xk L.oXU.n IXPXPXLXW.`.].{.{.{.{.{.{.'.'.'.'.'.'.'.`.[.{.[.[.'.{.{.{.{.{.{.{.'.'.'.'.'.'.",
"'.'.'.'.{.'.'.'.{.{.{.{.{.'.'..XL.gXaXlX/.NXAX' x wX8X:X&X=X*Xl z -Xz &X2Xk I.].v AXaX!.aX*.'.{.{.{.{.{.{.{.{.'.'.'.'.'.'.'.'.'.'.{.{.{.{.'.{.{.{.{.'.'.'.'.'.'.",
"'.'.[.'.{.{.{.'.{.{.{.{.{.{.'.'.+.PXKXNXdXHXPXBX;X8X<X;Xl h *X*X*Xz l >X8X2Xk +.SXAX!.zXlXN &..X'.{.{.{.{.{.'.'.'.'.'.[.'.`.'.'.'.'.{.{.{.{.{.{.{.{.{.'.'.'.'.'.",
"'.'.'.'.{.{.'.{.{.{.{.{.{.{.{.U.Q.IXPXPXLXfXM pXl <X:X&Xk s v v v - *X:X>X8X&XZXHXHXfXaXaXsX+.}.'.{.{.{.{.'.{.'.'.'.'.'.'.'.'.'.'.{.'.{.{.{.{.{.{.{.{.{.'.'.'.'.",
"'.'.'.'.{.].'.[.{.{.{.{.{.{.{..XX.pXdXSXAXpX!.W m l =Xh ] +XXXXXoX{ h ,X;Xk c m c ZXLXIXPXIXK.XX{.{.{.{.'.'.'.'.'.'.'.'.'.'.'.'.'.'.'.{.{.{.{.{.{.{.{.'.'.'.'.'.",
"'.'.'.'.'.`.(.#.`.[.{.{.{.{.{.{.`.' N N iXIXW !.xX: j v oX[.'.'.'.oXs l h 2.kX!.!.NXKXUXIXHX+.].{.{.{.{.'.'.'.'.'.'.'.'.'.'.'.'.'.{.{.{.{.{.{.{.{.{.{.'.[.'.'.'.",
"'.'.'.'.{.#.Y.(.%.$.XX'.{.{.'.'.'..XR.@...*.M vXlXU 5 XX{.'.{.{.{.{.{.9 O %XvXr ZXSXpXNXiXpX@.}.'.'.{.{.{.{.'.'.'.'.'.'.'.'.'.'.'.'.'.{.{.'.{.{.{.{.{.{.'.'.'.'.",
"'.'.'.{.{.T.[.{.[.).{.{.{.{.{.{.{.'.XX.XXX' MXDX%Xg '.'.'.{.{.{.{.'..XR.g ^.nXaXN n v n ' L.{.'.{.{.{.'.{.{.'.{.{.{.{.'.{.{.{.{.{.{.{.{.{.{.{.{.{.{.{.{.'.'.{.{.",
"'.'.'.{.{.XX{.{.{.{.{.{.{.{.{.'.{.{.'.R.XXo.MXmX/.] oX].'.{.{.{.{.{.'.oX@.2.xXFXn U..X{.oX}.{.{.{.{.{.{.{.{.{.'.{.'.'.'.'.{.'.{.'.{.{.{.{.{.{.{.{.{.$.T.'.{.{.{.",
"'.{.{.{.{.{.{.{.{.{.{.{.{.{.{.{.{.{.{.{.].W.FXbX^.] oX].{.{.{.{.{.{.'.}.T.3.xXFXaXP.{.'.'.{.{.{.{.{.{.{.{.{.{.{.{.{.{.{.{.{.{.{.{.{.{.{.{.{.{.{.Y.$.Y.Y.#.{.{.{.",
"{.{.{.{.'.{.{.{.{.{.{.{.{.{.'.'.{.{.`.XXP.b gX!.g &.[.[.{.{.{.{.{.{.{.{.[.U ^.vXQ.@..X[.'.{.'.{.{.{.{.{.{.{.{.{.{.{.{.{.{.{.{.{.{.{.{.{.{.{.{.{.(._.XX[.$.'.{.{.",
"'.{.'.{.'.{.{.{.{.{.{.{.{.{.{.'..X.X'.].n AXAXIXsX' -.Y.XX'.{.{.{.{.{.{.R.n fXdXdX*.`.oXoX{.'.'.{.{.{.{.{.{.{.{.'.{.{.{.{.'.{.'.'.{.{.{.{.{.{.{.{.{.'.{.{.'.{.{.",
"{.{.{.{.{.{.{.{.{.{.{.{.{.{.'.}.R.d n n - c M 3XM L.|.[.{.{.{.{.{.{.}.}.P.*.HXUXKXM p g ' [..X'.{.{.{.{.{.{.{.{.{.{.{.{.{.{.{.{.'.{.XX{.{.{.{.{.{.{.{.{.}.{.{.{.",
"'.{.'.{.'.{.{.{.{.{.{.{.{.{..XI.b BXPXLXAXc + - - ..XX{.{.{.{.{.{.{.{.}.E.- - + ; gXHXHXfXb @.-.'.'.{.{.{.{.{.{.{.'.{.{.'.{.{.{.{.{.[.{.{.{.{.{.{.{.{.{.'.'.'.{.",
"'.{.'.'.'.{.{.{.{.{.{.{.{.{.{.s AXLXLXLXIXIXc o 3XiXL.XXR.{.{.{.{.{.{.'.O.iX- - dXLXLXLXLXKXc I.#.Y.XX{.{.{.{.{.'.'.'.'.'.'.'.{.`.`.#.(.`.{.{.{.{.{.{.{.{.'.'.{.",
"{.{.{.{.{.{.{.{.{.{.{.{.{.|.o.iXLXPXLXPXIXIXBX- - c E..XXX{.{.{.{.{.{.`.n B ; pXPXIXPXLXLXLXfX' |.`.{.{.{.{.{.{.{.{.{.{.'.'.{.{.%.$.(._.#.XX{.{.{.{.{.{.{.{.{.{.",
"'.'.{.'.{.{.{.{.{.{.{.).T.-.f N sXiXiXiXpXpXiXc + o X..XR.{.{.{.{.{.}.R.X   ; pXiXiXsXsXsXsXpXs .X{.{.{.{.{.{.{.'.'.'.{.'.'.'.'.`.`.{.[.).{.{.{.{.{.{.{.{.'.'.'.",
"'.'.'.'.{.{.{.{.{.{.{.).%..Xa iXAXZXfXdXdXdXdXBXZXiXs .X{.{.{.{.{.'.oX' B fXfXsXfXsXsXsXfXZXsXc `.{.{.{.{.{.{.'.'.'.'.'.'.'.'.'.'.{.'.{.{.'.{.{.{.{.{.{.{.'.'.[.",
"'.'.'.'.'.'.{.'.{.{.{.{.'.}.X.v O.O.O.O.O.O.n ..O.b o.}.{.{.{.{.{.'..Xo.b W.W.W.W.W.W.W.W.gX*.d {.{.{.{.{.{.{.'.'.'.'.'.'.'.'.'.'.'.'.{.{.{.{.{.{.{.{.{.{.{.'.'.",
"'.'.'.'.'.{.'.{.{.{.{.{.{.{.}.].'.].].'.].].].].'..X.X{.{.{.{.{.{.{.{.{.R.P.P.P.P.P.P.P.P.P.`.'.{.{.{.{.{.{.{.'.'.'.'.'.'.[.'.'.'.'.'.{.{.{.{.{.{.{.{.{.{.[.'.'.",
"'.'.'.'.'.{.'.'.{.{.{.{.{.{.'.'.'.'.`.`.R.'.'.'.'.'.{.{.{.{.{.{.{.'.'.[.{.{.{.{.{.{.'.{.{.XX{.'.{.{.{.{.{.{.{.{.'.'.'.'.'.'.'.'.'.'.'.{.{.{.{.{.{.{.{.{.'.'.'.'.",
"'.'.'.'.{.{.'.{.{.{.{.{.{.{.'.'.'.'.'.'.'.'.'.'.'.'.{.{.{.{.{.{.'.'.'.{.{.{.'.'.{.'.'.'.'.'.'.'.{.{.{.{.{.{.{.{.'.'.'.'.'.'.'.'.'.'.'.{.{.'.{.{.{.{.{.{.'.'.'.'."
};
