/* XPM */
static char *door_resized[] = {
/* columns rows colors chars-per-pixel */
"80 80 254 2 ",
"   c #29172B",
".  c #2B192C",
"X  c #321C2E",
"o  c #2D1A33",
"O  c #261B3B",
"+  c #2C1B3C",
"@  c #321B34",
"#  c #321B3B",
"$  c #371D38",
"%  c #36213A",
"&  c #502239",
"*  c #6F2830",
"=  c #6B5B3D",
"-  c #261C45",
";  c #2C1D44",
":  c #2C1D4B",
">  c #341D43",
",  c #3A1D45",
"<  c #321D4A",
"1  c #3C1D4A",
"2  c #2A1F53",
"3  c #3B1C58",
"4  c #2D2144",
"5  c #352145",
"6  c #3B2445",
"7  c #34234A",
"8  c #3B234B",
"9  c #3A2A4B",
"0  c #2C2356",
"q  c #382754",
"w  c #3C2B5A",
"e  c #3B3159",
"r  c #362C64",
"t  c #37346C",
"y  c #3C3768",
"u  c #421E49",
"i  c #461D57",
"p  c #472748",
"a  c #43224D",
"s  c #4D324B",
"d  c #442452",
"f  c #4A2354",
"g  c #422A53",
"h  c #4A2759",
"j  c #432C5C",
"k  c #4B2B5C",
"l  c #572758",
"z  c #54265B",
"x  c #552A5C",
"c  c #5B2A5D",
"v  c #48315A",
"b  c #583759",
"n  c #6C314C",
"m  c #76374A",
"M  c #662D57",
"N  c #663557",
"B  c #4C1B6A",
"V  c #511E69",
"C  c #531C75",
"Z  c #492564",
"A  c #452D62",
"S  c #4B2D63",
"D  c #552766",
"F  c #5B2A63",
"G  c #453363",
"H  c #4B3365",
"J  c #463967",
"K  c #4C356B",
"L  c #433C6D",
"P  c #4D3A6B",
"I  c #533464",
"U  c #593766",
"Y  c #53346A",
"T  c #5C3B6D",
"R  c #4D2070",
"E  c #433D72",
"W  c #4B3A75",
"Q  c #5C3B71",
"!  c #573C78",
"~  c #622C64",
"^  c #662D6B",
"/  c #643263",
"(  c #673967",
")  c #6B336B",
"_  c #73336D",
"`  c #78396C",
"'  c #692D73",
"]  c #712E74",
"[  c #6D3274",
"{  c #663977",
"}  c #743374",
"|  c #793A77",
" . c #72347B",
".. c #3F416D",
"X. c #585057",
"o. c #784849",
"O. c #6F4F59",
"+. c #596559",
"@. c #6A6A55",
"#. c #6B7656",
"$. c #74785A",
"%. c #47426C",
"&. c #584669",
"*. c #55556B",
"=. c #484779",
"-. c #574678",
";. c #58547A",
":. c #664769",
">. c #784669",
",. c #695969",
"<. c #7C5868",
"1. c #68467A",
"2. c #76457C",
"3. c #695678",
"4. c #7A527A",
"5. c #586570",
"6. c #696765",
"7. c #73716C",
"8. c #696579",
"9. c #8E312D",
"0. c #A73923",
"q. c #8C4A37",
"w. c #AF6D37",
"e. c #D45923",
"r. c #923A4D",
"t. c #853754",
"y. c #973C52",
"u. c #A13D50",
"i. c #853B63",
"p. c #813C75",
"a. c #864B4A",
"s. c #8F4F4F",
"d. c #99564B",
"f. c #AB5251",
"g. c #946C54",
"h. c #B9684B",
"j. c #B26E52",
"k. c #894F6D",
"l. c #865977",
"z. c #90716D",
"x. c #856577",
"c. c #897979",
"v. c #AE7069",
"b. c #C15D53",
"n. c #C66C4E",
"m. c #CA744C",
"M. c #CF6D52",
"N. c #CC7751",
"B. c #D77852",
"V. c #E17D52",
"C. c #708B4F",
"Z. c #77885B",
"A. c #7C9656",
"S. c #77A355",
"D. c #7ABA57",
"F. c #7CBC56",
"G. c #778963",
"H. c #BC9231",
"J. c #D08D35",
"K. c #E4B13F",
"L. c #918B52",
"P. c #849959",
"I. c #B29154",
"U. c #86A84E",
"Y. c #89A857",
"T. c #94AA59",
"R. c #8EB354",
"E. c #84BE56",
"W. c #89BB57",
"Q. c #95BC56",
"!. c #94B759",
"~. c #B2A95C",
"^. c #899966",
"/. c #919A69",
"(. c #948977",
"). c #8B9073",
"_. c #A78878",
"`. c #AF917C",
"'. c #90AA69",
"]. c #94B663",
"[. c #8BA576",
"{. c #D98753",
"}. c #D08E57",
"|. c #E68853",
" X c #E99354",
".X c #EA9657",
"XX c #D6AD58",
"oX c #ECAA56",
"OX c #CF9465",
"+X c #CBAB6A",
"@X c #EEA866",
"#X c #89C057",
"$X c #8BC157",
"%X c #94C357",
"&X c #9AC457",
"*X c #9CC857",
"=X c #95C458",
"-X c #9BC558",
";X c #E8D269",
":X c #FEE874",
">X c #582D86",
",X c #6C2B83",
"<X c #6B3A84",
"1X c #7A3C83",
"2X c #464A80",
"3X c #4B4D82",
"4X c #564383",
"5X c #594683",
"6X c #524D83",
"7X c #4C5284",
"8X c #4D568A",
"9X c #4F5A8D",
"0X c #585687",
"qX c #674683",
"wX c #774687",
"eX c #675886",
"rX c #745886",
"tX c #7D5D8D",
"yX c #7E5890",
"uX c #5A628E",
"iX c #696689",
"pX c #796788",
"aX c #797688",
"sX c #6B6B93",
"dX c #776B93",
"fX c #6E7296",
"gX c #767A97",
"hX c #71749B",
"jX c #803E83",
"kX c #864B89",
"lX c #8E5787",
"zX c #884C95",
"xX c #8D5397",
"cX c #975799",
"vX c #946B89",
"bX c #877889",
"nX c #96768A",
"mX c #8D6990",
"MX c #857B93",
"NX c #937D95",
"BX c #9857A3",
"VX c #A26CA1",
"CX c #A868AE",
"ZX c #7D8988",
"AX c #7A819B",
"SX c #89878C",
"DX c #978696",
"FX c #A28A97",
"GX c #AA97AA",
"HX c #AF9BAB",
"JX c #B2A0AE",
"KX c #B7A6B5",
"LX c #F9EF92",
"PX c #FFFDB3",
/* pixels */
"&X&X&X&X-X&X-X&X-X-X-X-X-X-X-X-X&X&X&X&X&X&X&X&X-X-X-X-X-X-X-X&X-X&X&X&X&X&X*X%X*X&XQ.&X&X&X-X-X-X-X-X-X-X-X-X-X&X&X&X&X&X-X-X-X-X-X-X-X-X-X-X-X-X-X-X-X&X&X&X&X",
"&X&X&X&X-X-X&X-X-X-X-X-X-X-X-X-X&X&X&X&X&X&X&X&X-X-X-X&X=XW.E.%X&X*X*X*XQ.T./.)./.SXDX/.T.Q.-X-X-X-X-X-X-X-X-X-X&X&X&X&XQ.&X&X-X-X-X-X-X-X-X-X-X-X-X&X=X$XF.%X%X",
"&X&X&X&X-X&X-X&X-X&X-X-X-X-X-X-X-X&X&X&XQ.&X&X&X&X&X-XQ.F.E.F.F.Q.T./.(.nXVXcXlX2.xXCXCXCXVX`.'.Q.*X-X-X-X-X-XQ.-X-X-X&X&X&X&X&X-X-X-X-X-X-X-X-X-X-X=XD.#XE.F.$X",
"&X&X&X&X-X-X&X-X-X&XW.-X-X-X-X-X-XQ.&X-X-X&X&X&X&X&X*X%XF.R.P.c.vXvXcXxX2.2.1.{ I Y T { 2.kXzXmXvXnX/.T.Q.&X-X-X-X-X&X&X&X&X&X&X-X-X-X-X-X-X-X-X-X-X%X#X%X%X#X#X",
"&X&X-X-X-X-X&X&X#X#XD.#X$X%XQ.&X-X-X-X-X-X-X-X-X&X&XQ./.c.l.lXcXwX2.{ &.( Q Q T I S I H I Y I T qXkXzX4.x.).].-X&X-X&X&X&X&X-X&X-X-X-X-X-X-X-X-X-X-X*X-X&X&X&X&X",
"&X&X&X-X-X-X-X-XD.#X$X#XS.#.!.&X-X-X-X-X-X-X-X-X!./.vXcXkX2.T ( ( T U U H I v v a g g j A H Y Y Y Y Q { wXxXmX(.Q.&X&X&X&X-X-X-X-X-X-X-X-X-X-X-X-X-X-X-X-X-X&X&X",
"&X&X&X-X-X-X-X-X%X%X*X%X+.s P.*X-X-X-X-X-X-X-X/.vXcXkX2.{ T T U Y v g 9 8 6 # 5 6 # 4 + 5 8 g j H I K Y I Y <XxXvX/.&X&X*X%XQ.&X-X-X-X-X-X-X-X-X-X-X-X-X-X-X-X-X",
"&X&X-X-X-X-X-X-X*X%X%X*XU.s #.&X-X-X*X*XQ.!.c.cXkX2.{ ( U b I v 9 % + 7 A j 7 q q g r 0 7 v q + > g k H S H Y { wXxXc.R.$XF.W.%X-X-X-X-X-X-X-X-X-X-X-X-X-X-X-X-X",
"-X-X-X-X-X-X&X&XA.X.C.R.#.s #.%X-X-X-X/.nXvXcXkX1.( U v H Y 8 ; 0 0 r q j 9 w l s j H w 9 j w 0 2 : % 8 S A H Y <XwXzXtXc.^.#XD.-X-X-X-X-X-X-X-X-X-X-X-X-X-X-X-X",
"-X-X-X-X-X-X&X&XA.9 X.+.s 9 A.*X-X!.(.VXBXcX2.T I v v v wXkXS 0 r J L y + 5 j * 9.& j J 7 ; 9 y t r 2 7 <X<XA w H Y <XwXwXxX).E.-X-X-X-X-X-X-X-X-X-X-X-X-X-X-X-X",
"-X-X&X-X-X-X-X*XQ.@.s 9 9 9 @.%X-X(.cXcXkX{ T U k p @ % 2.zX1.q t y %.L e w n 0.0.* p v e 9 e y E t 0 D wX1X7 ; q A H { wXzXxX).Q.-X-X-X-X-X-X-X-X-X-X-X-X-X-X-X",
"&X&X&X&X&X&X-X-X*X*XU.+.g 9 @.R.c.BXcX2.^ F S g % 4 r 0 k T v 5 E %.J J %.P o.J.J.w.m -.%.%.J y J E 0 Z ! W 2 r 2 > w H ! wXzXxXc.].-X=X-X-X-X-X-X-X-X-X&X&X&X&X",
"-X&X-X-X-X-X-X-X&X&X&XR.A.+.c.vXBXkX{ U H v 7 4 0 t 8Xt 4 4 @ O J J =.-.6X6X,.j.d.= N ;.;.=.-.-.y y 4 o 9 4 e ..t 0 4 9 Z K <XxXBXmX(.].-X-X-X*X-X-X-X-X&X&X-X-X",
"&X&X&X-X-X-X%X-X&X&X&XQ.Z.4.kXxX2.Y H S w + 0 t 2X3X3X=.q O 9 e L e L ;.;.6X3.a.n $ U 3X6X6X6X=.w L e 7 O O y ..7X..r 4 > j H { zXxXwX,.P.-X-X*X-X-X-X-X&X&X&X&X",
"&X&X&X-X%X%XE.%X&X&X'.).l.kXkX{ K H j 9 + 0 r y t E =.E v e y %.L e e L =.=.-.N & p %.-.=.4X=.L e y y y e 0 y y ..2Xy r 4 % w Z Y zXxXxXSX/.].*X-X-X-X-X&X&X&X&X",
"&X&X&X&XF.#XF.#XW.*XG.wXxXzX{ S v w 7 O 0 r y L =.=.;.0X0X0XuXeXuX&.w G K K K H j A K W -.=.=.J e 8X8X9X7X=...2X2X=.y 0 0 O # j H W wXBXCXCX(.-X-X-X-X-X&X&X&X&X",
"&X&X&X&XE.%X%XW.$X*XQ.8.kXY G j q % 4 t ..3XE 0XuX9XsXgXgXAXgXgXeX-.U Y Y S j d 8 7 1 w Z K K j %.9X9X9X9X7X3X9X9X8X=...t t 2 # q H K wXxXmX!.*X-X-X-X-X&X&X&X&X",
"&X&X&X-X&X&X-X-X-X-X-XP.I S w 9 % 4 t 2X9X8Xt sXhXhXAXAXAXAXsX;.1.| { S q ; ; - - O O ; < q Z r E 8X9X9X9X8X9X9X9X8X2X=.2Xt t 7 % s H H 1.^.-X-X-X-X-X-X&X&X&X&X",
"&X&X&XQ.&X&X-X-X&X&X-X=X+.j q o @.+.2X8X7X8X;.hXAXgXAXgXgXiX1.2.) x q - - ; ; ; ; ; ; O - O 5 3 Z r =.9X9X9X9X9X9X8X2X2X2X2X..+.#.% q A +.Q.-X=X=X#X$X-X%X&X&X&X",
"&X&X&X&X&X-X-X-X-X-X=X*XP.9 9 C.%XC.2X8XuXfX0XAXAXAXAXgXiXrXk.' q 4 - - : : 2 2 2 2 - : ; ; O O < 3 3 r 2X8X9X9X9X7X7X9X9X9X2X#.-XC.9 8 A.%X-X%XF.F.#XF.Q.&X&X&X",
"&X&X&X&X&X&X-X-X%X#XF.%XQ.C.C.&X*XA.8XuXsXsX*.uXiXiX;.%.4.kX) 8 O - : 4 : 0 2 2 2 2 2 - - ; ; + O + 3 3 K W =.2X2Xy y 3X8X9X2XG.*X-XA.C.&X-X&X=XW.=X=XF.%X-X&X&X",
"&X%X&X&X-X&X-X-XF.#X#XF.F.&X-X&X*XW.*.=.=.&.%.;.iX8.L :.kX) g O - ; 2 2 0 0 0 q 8 3 0 2 2 2 - 4 O o O d Y { %.=.....y y ......A.*X&X&X-X-X&X&X-X-X-X-X-X&X-X&X&X",
"&X&X&X&X-X-X-X-X$X%X-X%X$X&X&X&X*XW.=.9XfX* X.8.MXfX-.v.i.l O O ; : 0 0 q w v v g q 8 8 7 : - 4 ; + o 5 / k.rX0X9X8X2XU 3X9X2XS.&X&X&X-X&X-X-X-X-X-X-X-X&X&X&X&X",
"&X&X&X&X&X-X-X-X-X-X-X-X-X-X-X&X-XY.;.sXx.9.* N SXiXlXl.>.& O + : 0 q q v U U U b b v 9 9 7 7 4 ; O o o b k.mX0X0X8XO.n =.9X9XS.&X-X-X-X-X-X-X-X-X-X*X-X&X&X&X&X",
"&X&X-X&X-X-X-X&X-X-X-X-X-X-X-X&X-X!.;.fX<.* q.= SXaXnXl.>.% O ; 2 q v U U ( :.b U b b v 8 p 6 5 > O O o g mXNXiXuX3.9.* v 8X7XY.*X-X-X-X-X-X-X-X-X-X-X-X&X&X&X&X",
"-X-X-X-X-X-X-X-X-X-X-X-X-X-X-X-X-X!.5.fXbXh.{.w.bXbXFXvXx.o + : : q b / ( b b b N N b b s g p 9 7 ; O o o pXNXMXiX7.H.q.X.8X0X!.-X-X-X-X-X-X-X-X-X-X-X-X-X-X&X-X",
"&X&X&X-X-X-X-X-X-X-X-X-X-X-X-X-X*X$X8.fXgXg.J.H.c.SXFXnXx.o ; : q I U ( N s N g.~.~.g.( b p & 6 5 > ; o . ,.NXMXsXc.oXw.*.9X5.F.&X-X-X-X-X-X-X-X-X-X-X-X-X-X&X&X",
"-X&X-X-X-X-X-X-X-X-X-X-X-X-X-X-X*X=X7.sXSXx.w.q.c.aXFXnX<.o + : j U ( ( N n L.;XLXLXLX7.` s 9 6 6 5 4 # . ,.DXDXdXz.J.= 0X8X+.D.E.$X-X-X-X-X-X-X-X-X-X-X-X-X-X-X",
"&X-X-X-X-X-X-X-X-X-X-X-X-X-X-X-X*X*XG.uXgXaXO.q.SXaXFXnXx.  + : j ( ( :.N = XX:X:XLXPX~.O.N & 6 6 5 5 +   ,.DXDXdXx.o.*.uX*.S.$XE.W.*X-X-X-X-X-X-X-X-X-X&X&X&X&X",
"-X-X-X-X-X-X-X-X-X-X-X-X-X-X-X-X=X*XA.*.fXSXx.a.SX7.nXvX<.  ; 7 k / >.b b d.K.:XLXLXPXLXo.b 9 p 6 6 > o   O.vXnXdXmXo.0X9X5.Q.-X=X=X-X-X-X-X-X-X-X-X-X-X-X-X-X-X",
"-X-X-X-X#X=X-X-X-X-X-X-X-X-X-X-X-X*XR.X.8.iX8.7.bX7.bXvX<.. # < k ) >.x O.g.H.;X:XLXLX~.<.b p p 6 6 5 o   b l.nXiX3.&.0X7X6.%X-X-X-X-X-X-X-X%X#X-X-X-X-X-X-X-X-X",
"Q.-X$XW.F.#XE.&X-X-X-X-X-X-X-X-X=X*X^.pXaXaXbXSXDXc.l.k.>.. # < j ` >.( O.s.L.H.XXXXI.g.k.O.p s 6 5 5 o . M k.x.rXeX=.=.=.=.A.-X-X-X-X-X=X#X#XD.#XW.-X-X&X&X&X&X",
"-X-XW.E.%X$XF.&X-X-X-X-X-X-X=X=XE.E.G.aXgXSXSXDXDXbXk.i.>.. # < k ` ( k.k.<.O.L.I.g.x.<._.z.a p 6 > > o . n k.l.rXeX0X6X4X4X7.=X-X-X-X-X-XE.$X%XW.E.-X-X-X-X&X-X",
"-X-X=X%X-X-X%X&X-X-X-X-X-X-X$XD.E.E.S.aXMXaXMXMXDXpX<.2.>.. # < j ( ) k.k.k.g.z.z.g.g.<.(.<.1 p 9 6 > o X ( ` l.eXeX6X6X8X3XZ.*X-X-X-X-X&X%X-X-X-X=X-X-X-X-X-X-X",
"-X-X-X-X-X-X&X&X-X-X-X-X-X-X%XE.%X=XS.aXMXSXMXMXbX8.>.| >.. # < h F ( k.k.>.z._.`.`.`.z.z.>., 1 7 > # o X N ` 4.qXeX6X8X9X=.A.=X-X-X-X-X-X-X-X-X-X-X-X-X&X-X&X&X",
"-X-X-X-X-X-X-X-X-X-X-X-X-X-X-X-X-X-X!.7.gXMXMXMXMX3.N ` ` . @ > h x N k.>.>.>.v._._._.z.l./ , # > : # . @ ( >.>.5X0X6X6X6X=.Y.*X-X-X-X-X-X&X-X-X-X-X-X-X&X&X&X&X",
"&X&X&X&X-X&X-X&X-X-X-X-X-X-X-X&X-X-X&XG.pXaXaXaXpX:.b | >.. X > d ~ N p.` ` ( k.l.z.z.>._ c , ; : ; # . @ N ` 1.W 4X3X3X=.5.Q.-X&X-X-X-X-X-X-X-X-X-X-X-X-X-X&X&X",
"&X&X&X&X-X-X&X-X-X-X-X-X-X&X&X&X-X&X-XR.6.;.3.;.*.&.U [ ` X . > d ^ ( | _ ` / _ ` ` } ^ _ c , > ; < # . X ( ` :.E W E E %.S.&X-X&X-X&X-X-X-X-X-X-X-X-X-X-X-X&X&X",
"&X%X&X&X-X&X-X-X-X-X-X-X-X-X&X&X&X&X-XT.8.pXpX3.3.3./ _ ` X X > a / ) } } } ~ _ ) ) ] M _ l , 1 < ; # . X ( | >.6XeXeXeX=.G.$X&X&X-X-X-X-X-X-X-X-X-X-X-X=X&X&X&X",
"&X&X&X&X-X-X&X-X-X-X=X$X&X&X&X&X&X&X%X^.pXmXpXpXMXpX:.' ` X . > a F / } } | M _ M ^ ~ c ' z , 8 : < #   X M ` 1.6X6X0X0X9X3.D.%X&X-X-X-X-X-X-X-X-X-X-X-X-X&X&X&X",
"&X&X&X&X&X&X&X&X-XE.E.F.E.%X&X&X%X&X*X^.aXrXwXrXpXdX( ' ` X . # 8 F U } } p.~ ' _ _ ^ M _ f , 8 < ; #   @ c } :.6X0XeX5X5X7.$X-X&X-X&X-X-X-X-X-X-X&X&X&X&X&X&X&X",
"&X&X&X&X&X&X&X&X&XF.$X%XE.$X&X&X&X&X-XP.3.1.1.1.rXpX( [ ` $ X $ a F c } ] p.M ] ] ^ ^ ~ ] i , a : : @ . @ ~ _ 1.4X4XW ! >X7.-X-X&X-X&X-X-X&X-X-X-X&X&X&X&X&X&X&X",
"&X&X&X&X-X&X&X&X&X&X*X*X-X-X-X&X&X&X&XY.3.{ 1.rXrXpX( _ p.$ X $ 8 x c } } p.c ] ] _ ~ F ' d > g < : # . % M _ { W W W 5XC 7.-X-X-X-X-X-X-X&X-X-X-X-X&X&X&X&X&X&X",
"&X&X&X&X-X&X&X&X-X-X-X-X-X-X&X&X&X&X&XR.:.qXpXrX1.rX/ ` ` $ . $ 1 l l ] ] ^ l ] ] ] ~ F ] u , h < : # . $ n i.qX4X! =.4XW 6.Q.-X-X-X-X-X-X&X-X-X-X-X&X&X&X&X&X&X",
"&X&X&X&X-X&X-X-X-X-X-X-X&X&X&X&X*X*X*XQ.:.Q rX1.1.3.U ] ] $   # & 9.n ] ] ~ z ] ] _ F l ] 1 > x : ; o   $ ~ ] 1.! W K A A #.U.=X-X-X-X-X-X-X-X-X-X-X-X-X&X&X&X&X",
"&X&X&X-X-X-X-X&X-X-X-X-X&X&X&X&X%X*XR.A.,.1.{ rXrXrXU ] } & . # & e.a.) ] ~ M ] p.] ~ M ' 1 > k : < o   $ ~ } { E 4X4X-.W #.Q.-X-X-X-X-X-X-X-X-X-X%XE.$X%X&X&X-X",
"&X&X-X-X-X-X-X-X-X-X&X&X-X&X*X*X&X&XQ.C.X.rXpXtXrXrXU ]  .&   # * e.e.[ ] ^ l ] ] } M V ~ 1 > x ; < #   $ F } qX! 5X5X5X-.A.-X-X-X-X-X-X-X-X-X-X#XF.F.E.D.%X&X&X",
"-X-X-X-X-X-X-X-X-X-X&X&X&X&X*X&X&X&X=XQ.$.Y Q T Y I g ] ] u   # * e.e.t._ ^ l ] } } c ~ F 1 > S : < @   u D | Q E E %.=.*.Q.-X-X-X-X-X*X-X-X-X-X$X$X&X%XW.&X-X-X",
"-X-X&X-X-X-X-X-X-X-X-X-X-X-X-X-X-X-X-XQ.$.T -.&.1.&.k ) | u X @ * 0.0.n _ ^ z } } } x ^ ^ 1 > x ; < o   u ~ | ! J J W W 6.=X-X-X&X-X%X#X=X-X-X-X-X*X-X-X-X-X&X-X",
"-X&X-X&X-X-X-X-X&X&X-X-X-X-X-X-X-X-X-XQ.,.rXtXtXtXrXY ^ ] p   $ * 0.* ) | ' x [ } } h ) F > , I ; < o   u D | <X4X4X4X4X$.=X-X-X&X#X#XD.#X#X-X-X-X-X*X-X-X&X-X&X",
"-X-X-X-X-X-X-X%X%XD.$X=X-X-X-X-X-X*X*XQ.,.yXtXtXtXyXY ' ] f   # & 9.n ~ } ) F ) ) ) l } ) 8 6 h < > o   u ~ 1X{ 4X5X5X4X6.-X-X-X&XF.$X%XE.#X%X-X-X-X-X-X-X-X-X-X",
"-X-X&X-X-X-X-XE.E.E.W.F.-X-X-X-X-X-X*XQ.6.rXyXtXtXrXY ' ] f   # & 9.n ^  .| 1X1XwX1XwX1X1X .{ [ ^ i @   u D jX4X4X4X4X4X7.-X-X-X&X&X%X&X=X=X&X-X-X-X-X-X-X&X-X-X",
"Q.-X-X-X-X-X-XW.=X&X$X$X-X-X-X%X-X-X-X-X6.eXtXyXtXrXI ^ _ f   # $ * M ] ' ]  . . . . . . . . . .} f o . f c 1XqX4X4X4X4X#.=X-X=X-X&X-X-X-X-X-X-X-X-X-X-X-X-X&X&X",
"-X-X-X-X-X-X-X-X-X-X*X&X-X-X-XR.!.-XQ.*X$.qXtXmXyXrXD ' ] l   # u & l l m ^ ' '  . . . .| t. .{ [ f o   f M 1X<XK ! 4X4XG.*X-X-X-X-X-X-X-X-X-X-X-X-X-X-X-X-X-X-X",
"-X-X-X-X-X-X-X-X-X-X&X*X*X*X-X^.Y.Q.R.-XG.1.yXtXtX3.I D ] f . # u , u , 1 1 u f i z h D D l F ~ ~ , o . f V jX! K ! 4X! Z.*X-X-X-X-X-X-X-X-X-X-X-X-X-X-X-X-X-X-X",
"-X-X-X-X-X-X-X-X-X-X&X*X%X*X%Xz.!.Y.Y.-XA.! tXtXtXwXS V ,Xl   # # u u o # + # i D D u z , # u a u # X   f V jXQ 4X-.4X-.P.*X=X=X&X-X-X-X-X-X-X-X-X-X-X-X-X-X-X-X",
"&X&X&X&X-X-X&X-X-X-X-X-X-X&X&X$.$.P.R.Q.Y.( tXtXtX2.Z D ' z o o , i l z z z d F ' [ F ' i > D d + # X . i V 1X! 4X! 5X-.Y.$X$XF.$X%X-X-X-X-X-X-X-X-X&X&X&X&X&X-X",
"&X&X&X&X-X-X-X&X-X-X-X-X-X-X-XY.P.$.*X*XR.&.qXrXqXQ q V ,Xz o # , z D ~ F D h F '  ./ F i 1 ^ 8 + #   . i V <XK W ! ! &.R.F.$XW.F.W.-X-X-X-X-X-X-X-X&X&X&X&X&XQ.",
"&X&X&X&X&X-X&X-X-X-X-X&X-X%X&X-X).,.Q.&X-X@.S Y I v < B ,XV o # , h F ~ F F f F ' { ) F i , ^ 1 o + @ . f V 1XH S K Z X.%X%X%X&X%X%X-X-X-X-X-X-X-X-X&X&X&X&X&X&X",
"Q.&X&X&X&X-X-X&X-X%X!.&X%X!.!.<. .C.Q.Q.Q.,.:.1.1.rX{ V ' z o # , f F ~ F D f F ' [ ) S d 1 ^ > o + . X i V 1X! { -.! +.%X&X&X&X-X-X-X-X-X-X-X-X-X-X&X&X&X&X&X&X",
"&X&X&X&X&X&X&X&XR.I.OX~.T.T.<.V w A.A.T.+XOXOXx.tXtX1.Z ' D o # > h F ~ D F i l F [ / F i u V , + o     i V <X{ qX! 1.,.Q.&X&X&X&X-X&X-X-X-X-X-X-X-X-X-X&X&X&X&X",
"-X&X&X&X&X&X*X&XL.@X@X.X@XOXOXg.s.}.OX}..X@X@XOXlXrX{ D C z + # > f ~ F F l u x F / / F i u l > + o   @ i V  .-.! 1.! ,.U.Q.Q.&X&X-X-X-X-X-X-X-X-X-X-X-X&X&X&X&X",
"&X&X&X&X&X&X-XU.OX@X{.f.@X.X.X.XB.|.oXoX{.{..X@Xv.rXQ S C i @ # 5 h ^ c F F f l F ~ c F u u z > # @   X i D { ! qX! -.6.R.&XY.Q.&X-X-X-X-X-X-X-X-X-X-X&X&X&X&X%X",
"&X&X&X&X&X&XR.L..X Xg.s N. X.X{.{. X X}.o.d. X@XOX4.Q S C Z @ # 5 d ~ c F F a z F / l c i u i + # @   @ i R D S H Y T >.$.P.Z.!.&X-X-X-X-X-X-X-X-X-X-X-X&X&X&X&X",
"&X&X&X&XQ.D.D.j.|.|.o.a o.{..XB.|. X{.s.f o..X.X@X>.Y Z C Z @ # > d F c F F a z c ~ f c a 1 f ; + @   X i i D d d { <X&.U.$.P.Q.&X-X-X-X*X-X-X-X-X-X-X-X&X&X&X&X",
"&X&X-X-X&XW.U.{.|.|.j.o.a.o.j.n.{.j.a.a.j.d. X|.@Xs.< < C D o # 5 d F c F F a x F c u F a 1 d ; # @   @ i V F Y { 1XB &.T.#.$.R.&XQ.W.U.R.R.R.-X-X-X-X-X%X-X-X-X",
"&X&X-X-X&X&XL.B.B.B.N.n.B.n.j.h.n.B.{.B.B.{.V.V. Xd.: 3 V V $ # > a F l F ~ , f c l , c a 1 i + ; @   @ i Z { Y ' ,XI.}.I.L.b L.~.~.I.R.R.U.R.-X-X-XE.%X-X-X-X-X",
"&X&X-X-X&X%Xg.b.B.N.d.h.|.|.|.h.o.N.|.B.B.j.b.V.|.j.2 i C V o # > 8 l / ( ( N ^ ( ) N ~ c x x 8 ; @   @ i D ' I C v.@X{. X}.{..X XN..X~.&X-X-X&X#XE.F.E.F.-X-X-X",
"-X-X-X-X&X%X@.y.b.M.j.o.s.h.h.d.n.n.f.s.m a.M.V.V.f.2 i C V @ $ > 8 l ^ ) ) t.[ } } } } | ` } F > @   # 3 D F S s {..Xd.j. X{.|.g.a. X}.&X-X-X-X$X#X=X$XF.&X-X-X",
"-X-X-X-X&X&X@.t.t.u.OXj.n n m n d.t.a.d.a.n.V.M.M.y.< 3 C h o @ > , p u 8 i p p h d f h f f f 6 + .   + 3 V h : & |.|.h.w.h.m.n.h.h.|.{.Q.-X-X-X-X-X&X-X-X&X&X-X",
"-X-X-X-X-X-Xg.t.n t.s.j.j.j.{.a.m s.N.B.f.f.u.u.y.k.3.pXmXbXb b ,.:.&.b 1.:.:.:.:.:.,.:.:.:.:.&.:.&.&.:.eXmX3.j M n.m.h.m.m.w.M.m.h.B.n.T.!.].-X-X-X-X-X-X-X-X-X",
"-X-X-X-X-X-XW.s.t.t.r.t.f.j.n.f.h.b.h.u.u.u.f.vXFXJXKXKXKXDXMXHXKXKXGXHXHXKXHXHXHXHXJXKXKXKXJXHXGXKXKXGXDXFXJXGXNXx.g.s.d.d.d.s.d.h.h.a.#.c./.T.-X-X-X-X-X-X-X-X",
"-X-X-X-X&X&XT.<.i.t.t.r.y.y.y.y.u.u.u.t.y.m 1.3.rXrXpXmXpXU pXdXdXmXMXMXbXmXpXpXpXpXrXpXtXpXpXpX3.pXMXtXpX&.1.-.-.-.-.>.f.f.d.n.h.s.m n ' qX).&X*X&X&X&X&X&X&X&X",
"-X-X-X-X&X&X^.Q ' i.t.t.f.u.y.r.r.u.y.m y.M J P K W K K J G P P K H 1.-.K J G G H K J I P H K Y H J -.Y -.&.-.K K Y P b n u.u.9.r.m n V >XqX7./.].-X-X-X-X-X-X-X",
"-X-X-X-X&XY.6.Y R S M n M N N N N N M M M i r G G K K K K j P H G H H K J H H A A G J J G H K K H v P P I 9 K H A S A 7 p n n n n M f B C >XiX).^.].-X-X&X&X&X&X",
"-X*X!.[.ZXaXiXsXeXeXeXqX-.-.-.-.-.-.P J w G G G K W W P -.&.-.-.-.;.-.%.-.0X0XeX-.&.&.I -.0X5X0X;.5X-.-.P H J Y -.%.-.L P P P %.-.eX-.&.-.eXgXAXAXZXZXSX[.Q.&X&X",
"-X=X&X].[.[.SX[.ZXgXiXiXeXsXaXgXdXgXfXfXfXfXfXfXfXhXhXhXfXfXhXhXhXhXeX&.sXhXhXhXsX;.;.eXhXhXhXhXhXhXhXhXhXsXfXfXfXfXfXgXgXiX;.gXgXgXgXaXaXZXZXSXSX[.[.[.].&X&X&X",
"&X&X&X&X-X&X-X&X-XP.$.7.Z.Y.].].].].'.G.8.3.8.^.'.'.[.'.[.[.[.[.[.[.[.[.[.[.[.[.[.[.[.[.[.[.[.[.[.[.[.[.[.[.[.'.[.7.iXiX8.^.].].].!.=X].].=X-X-X=X*X*X*X-X-X&X&X",
"&X&X&X&X-X&X&X-X-X-X-X-X-X-X-X-X&X&X&XP.G.Z.P.&X-X*X*X&X&X*X*X*X-X-X&X&X-X&X&X&X&X&X%X&X&X&X&X&X-X-X*X-X*X*X&X*XR.6.6.6.7.R.-X&X*X*X&X&X*X*X-X-X*X-X-X-X%X&X&X&X",
"&X&X&X&X&X-X&X&X-X-X-X-X-X-X-X=X&X&X&X-X-X-X-X-X-X-X&X&X&X&X&X&X&X&X&X&X&X-X&X&X&X&X&X&X&X&X&X-X-X-X-X-X&X&X&X&X&X-X=X-X&X&X-X&X&X-X-X-X*X-X-X-X=X-X-X-X-X-X&X&X"
};
