/* XPM */
static char *New_Project__20__resized[] = {
/* columns rows colors chars-per-pixel */
"80 80 239 2 ",
"   c #010202",
".  c #0B0301",
"X  c #05050A",
"o  c #07080B",
"O  c #0A0B0C",
"+  c #080708",
"@  c #140401",
"#  c #170907",
"$  c #0E110D",
"%  c #12120D",
"&  c #1A110E",
"*  c #0C0D12",
"=  c #0A0915",
"-  c #100E14",
";  c #0E1012",
":  c #121314",
">  c #141519",
",  c #16191B",
"<  c #1A1B1C",
"1  c #181914",
"2  c #2A0401",
"3  c #260903",
"4  c #3C0C02",
"5  c #340902",
"6  c #2A130A",
"7  c #3B150B",
"8  c #251D1A",
"9  c #381A14",
"0  c #1D2217",
"q  c #252C1A",
"w  c #232819",
"e  c #29321C",
"r  c #2C371E",
"t  c #38331D",
"y  c #1C1E21",
"u  c #171922",
"i  c #1F2124",
"p  c #222425",
"a  c #232529",
"s  c #2A2C2D",
"d  c #292926",
"f  c #343829",
"g  c #2C2D32",
"h  c #2E3132",
"j  c #323333",
"k  c #353639",
"l  c #37383A",
"z  c #393A3D",
"x  c #393A34",
"c  c #32302A",
"v  c #221E2B",
"b  c #490900",
"n  c #471607",
"m  c #591B05",
"M  c #540F07",
"N  c #750000",
"B  c #641A03",
"V  c #680A00",
"C  c #492317",
"Z  c #542918",
"A  c #5B2C14",
"S  c #782605",
"D  c #773415",
"F  c #6E2E14",
"G  c #522F23",
"H  c #573527",
"J  c #463A3A",
"K  c #4F322B",
"L  c #643829",
"P  c #3B4727",
"I  c #3C4A32",
"U  c #414D2E",
"Y  c #48572D",
"T  c #434D37",
"R  c #5B4639",
"E  c #4B5B32",
"W  c #485535",
"Q  c #6A4A35",
"!  c #566938",
"~  c #5D723B",
"^  c #4E6033",
"/  c #63793D",
"(  c #767939",
")  c #7D441D",
"_  c #3D3E41",
"`  c #3F4042",
"'  c #414244",
"]  c #4B4C4D",
"[  c #464748",
"{  c #53564B",
"}  c #5B5B5D",
"|  c #545556",
" . c #4E5348",
".. c #71594A",
"X. c #596745",
"o. c #5E6B4B",
"O. c #647A43",
"+. c #677653",
"@. c #766B58",
"#. c #5E5E61",
"$. c #666768",
"%. c #777778",
"&. c #71706B",
"*. c #872B04",
"=. c #932000",
"-. c #9E2B0D",
";. c #8A3409",
":. c #8A3C16",
">. c #96380C",
",. c #863923",
"<. c #A63F00",
"1. c #994613",
"2. c #B34A06",
"3. c #AF4F0B",
"4. c #8C4B2B",
"5. c #95692F",
"6. c #B66C2C",
"7. c #C85100",
"8. c #C95A02",
"9. c #C54E00",
"0. c #CC6306",
"q. c #D56A06",
"w. c #D17016",
"e. c #E77C09",
"r. c #D27A28",
"t. c #8F5C44",
"y. c #916C55",
"u. c #B3754C",
"i. c #8E7865",
"p. c #A17B60",
"a. c #CA7C52",
"s. c #67803E",
"d. c #5E8744",
"f. c #6B8546",
"g. c #728C4B",
"h. c #728C47",
"j. c #79974A",
"k. c #748856",
"l. c #7C9653",
"z. c #6F8256",
"x. c #6FB757",
"c. c #74B956",
"v. c #7CBC56",
"b. c #78BA58",
"n. c #75A651",
"m. c #788A61",
"M. c #68A863",
"N. c #7BC359",
"B. c #A79237",
"V. c #EE8E16",
"C. c #D68E32",
"Z. c #ED962A",
"A. c #F6AA2D",
"S. c #D5A233",
"D. c #829D57",
"F. c #838C4E",
"G. c #84A54E",
"H. c #8AAD52",
"J. c #8DAC5D",
"K. c #86A557",
"L. c #8EB255",
"P. c #83BE56",
"I. c #8BBF57",
"U. c #86BC58",
"Y. c #91B655",
"T. c #94BC55",
"R. c #96BB5B",
"E. c #95B75C",
"W. c #99A856",
"Q. c #AAB14C",
"!. c #8C8C6C",
"~. c #B08C6F",
"^. c #8DA865",
"/. c #94AD68",
"(. c #98BA64",
"). c #95AF75",
"_. c #A4AD75",
"`. c #BB9347",
"'. c #D8914F",
"]. c #E59B4F",
"[. c #C4B047",
"{. c #F2B053",
"}. c #D29666",
"|. c #DBA374",
" X c #ECB572",
".X c #85C057",
"XX c #8CC156",
"oX c #8CC158",
"OX c #88C65A",
"+X c #94C356",
"@X c #9AC457",
"#X c #9DC957",
"$X c #95C458",
"%X c #9BC558",
"&X c #95CB5C",
"*X c #9ECA5A",
"=X c #97C44F",
"-X c #A2CD5B",
";X c #A1C658",
":X c #A5D25D",
">X c #A8D65F",
",X c #BAC154",
"<X c #9DC362",
"1X c #98C364",
"2X c #9ED361",
"3X c #A3C966",
"4X c #A9D762",
"5X c #ADCB72",
"6X c #F9C852",
"7X c #FFD877",
"8X c #F7C972",
"9X c #C0CB63",
"0X c #7E7F80",
"qX c #848587",
"wX c #969697",
"eX c #8D8D90",
"rX c #A9AD93",
"tX c #AFAFAB",
"yX c #CFB290",
"uX c #E6B489",
"iX c #C9B6AC",
"pX c #CA9E81",
"aX c #B8CD88",
"sX c #CFDF98",
"dX c #F6D18F",
"fX c #FDE597",
"gX c #D7CAB4",
"hX c #F3D6AE",
"jX c #FCE4A7",
"kX c #FCE8B6",
"lX c #FFF0B7",
"zX c #CCC8C5",
"xX c #EBDBC2",
"cX c #F9EFD9",
"vX c #FDF5D6",
"bX c #F9EBCB",
"nX c #FFF9E6",
"mX c #FFFFFE",
"MX c #F5FEF3",
/* pixels */
"@X@X@X@X@X%X@X%X%X%X@X@X@X@X%X@X@X@X@X@X@X@X@X@X@X%X%X%X@X@X*X%X@X@X@X@X@X@X@X@X@X@X@X@X@X@X@X%X%X%X%X%X%X%X@X@X@X@X@X@X@X@X@X@X@X%X@X%X%X@X%X%X%X%X@X@X%X%X%X@X",
"@X@X@X@X%X%X%X@X@X%X@X@X*X@X@X@X@X@X@X@X@X@X@X@X@X@X%X@X@XI.P.@X@X@X@X@X@X@X@X@X@X@X@X+X@X@X@X%X%X%X%X%X%X%X%X@X@X@X@X@X@X@X@X@X@X%X%X%X%X%X%X%X%X%X@X*XU.P.%X@X",
"@X@X@X@X%X@X%X@X@X%X%X@X%X%X%X@X@X@X@X@X@X@X@X$X@X@X%X$Xc.P.P.v.XX#X%X@X@X@X@X@X@X@X;X%X@X@X@X%X%X%X%X%X%X%X%X@X@X@X@X@X@X@X@X@X@X@X@X%X%X%X%X%X@X@X@Xc.P.v.b.oX",
"@X@X@X@X@X%X%X%X%X*XT.@X*X@X%X@X@X@X@X@X@X@X@X@X%X@X@X@Xb.$X@Xv.XX#X@X@X@X@X@X@X#X;XJ.R.#X@X@X%X%X%X%X%X%X%X%X@X@X@X@X@X@X@X$X@X@X%X%X%X%X@X%X%X@X@X@Xv.$X@XP.oX",
"@X@X@X%X%X%X@X%XoXoXx.XXU.@X*X@X@X%X@X%X%X@X@X%X%X%X%X%X#X@X@X@X@X*X@X@X@X@X@X@X;Xm.J f R.%X%X%X%X%X%X%X%X%X%X@X%X@X%X%X@X@X@X%X%X%X%X%X%X%X%X%X%X*X%X#X@X@X@X@X",
"@X@X%X@X%X%X@X*Xv.v.+XU.b.@X%X@X@X@X%X@X%X%X%X%X%X%X%X%X@X@X@X@X@X@X@X@X@X@X@X*X&.z > c R.;X%X%X%X%X%X%X%X%X@X%X@X%X%X%X@X%X%X@X@X%X%X%X%X%X%X%X@X@X%X@X*X@X@X@X",
"@X@X@X@X%X%X%X*X$X$X%X@X+X%X@X%X%X%X%X%X%X@X%X%X%X%X%X%X@X@X@X@X*X@X@X*X%X$X*X!.] & Y :X%X@X%X%X%X%X%X%X%X%X%X%X%X%X@X%X%X+X@X%X%X%X%X%X%X%X%X%X%X%X%X%X@X%X%X@X",
"@X@X*X@X%X%X%X%X%X*X@X@X%X%X%X%X%X%X%X%X%X%X%X%X%X%X%X%X#X@X*X@X@X%X@X+X@X#XR.&.d 0 <X%X@X%X%X@X%X%X%X%X%X%X%X%X%X%X%X+X+Xc.I.+X%X%X%X%X%X%X%X%X%X%X%X%X@X%X%X%X",
"%X%X%X%X%X%X%X%X@X@X%X@X@X@X%X%X%X%X%X%X%X%X%X%X%X%X%X%X@X*X@X@X*X$X$Xc.XX=X).&.& I :X@X%X%X*X%X%X%X%X%X%X%X%X%X%X@X;XP.v.I.P.x.%X%X%X%X%X%X%X%X%X%X%X%X%X%X@X*X",
"*X%X%X%X%X%X%X%X@X*X%X%X*X@X%X%X%X%X%X%X%X%X%X%X*X%X%X%X@X@X@X*X%Xv.x.oXOXM.wX$.g h 1X&X&X&XI.U.;X%X%X%X%X%X%X%X%X@X%X+XXX%X+XI.@X*X%X%X%X%X%X%X%X%X%X%X%X%X@X%X",
"@X@X%X%X@X%X%X%X@X@X@X%X%X%X%X%X@X%X%X%X%X%X@X%X@X@X%X%X@X%X*X$X>X,X[.[.S.[.C.5.5.3.B.Q.Q.L.OXN.v.T.%X%X*X@X%X%X%X%X@X%X%X@X@X%X%X@X%X%X%X%X%X%X%X%X%X%X@X%X%X%X",
"@X@X@X@X@X@X%X%X@X*X@X%X%X%X%X@X@X@X@X@X@X@X@X@X@X@X%X%X%X%X#X9X6XA.A.6XV.{.A.w.A.V.e.7.0.0.6.Q.N.I.*X@X@X@X%X%X@X@X@X@X@X@X@X@X@X@X@X%X%X%X%X%X%X%X%X@X@X@X@X@X",
"@X%X%X%X@X@X*X%X%X%X%X%X%X%X%X@X%X%X%X%X%X%X%X%X@X%X%X%X%X$X5X6X6X7XfXfX{.jX{.C.A.q.V.8.2.0.2.>.W.#X@X@X*X@X@X%X@X*X%X%X%X%X%X%X%X%X%X%X@X@X%X%X*X@X%X%X%X%X%X%X",
"@X@X@X@X%X@X%X%X%X%X%X@X%X%X%X@X@X@X@X%X%X#XP.T.*X%X%X%X@X5XfXfX7X XhXjXdXvX{.].{.0.r.8.2.3.>.S >.E.*X@X%X@X@X@X@X@X@X@X@X@X@X@X%X%X%X%X@X*X%X%X@X@X%X%X%X@X@X@X",
"@X%X%X@X@X@Xb.$X%X%X*X@X%X%X%X@X@X@X@X#XXXP.b.P.P.%X%X%X@XsXkXjXfXa.-.'.dXkX].'.{.2.w.2.3.V F :.D 5.*X@X@X@X@X@X@X@X@X@X@X@X@X@X@X%X%X%X%X@X%X%X%X%X%X%X@X@X@X@X",
"@X@X%X%Xv.P.v.P.v.%X@X%X%X@X%X@X@X@X@X%XU.v.@XI.b.%X*XT.3XcXvXhXkX|.N V 3.Z.w.r.Z.*.*.}.cX,.*.:.L t.E.@X*X*X@X@X@X@X@X@X@X#X#X%X@X%X@X%X%X%X%X%X%X%X%X@X+X@X@X@X",
"@X@X@X@XU.U.;XoXU.%X%X%X%X@X@X@X@X@X@X@X@X+X@X@X@X@X;X+X5XnXvX8XkXhX-.M G r.*.>.;.5 y.mXmXt.4.F Q i._.@XXX$X;X@X@X@X@X@X@XW.F.T.@XT.*X%X%X%X@X@X%X@X%X@X@X@X@X@X",
"@X@X@X@X@X@X@X%X%X%X@X%X%X@X@X@X@X@X@X@X@X@X@X@X%X%XK.T.sXnXjX8XuXdX Xr.{.Z.3.t.5 m ,.u.1.4.4.B ..!.rXI.c.P.XX@X@X@X$X+X&X/.J j.4X2X@X@X%X@X@X*X*X%X%X%X@X@X@X@X",
"@X@X@X@X@X@X@X%X%X%X*X@X%X%X%X@X@X@X@X@X@X@X@X@X@X-XK.U aXvXfX XdXr.0.1.V.0.}.zXy.S B V *.B m G R !.rXc.+XXXc.%X@X&X*XQ.B.[.) ( Q.W.;X-X@X@X%X$X%XU.U.*X@X@X@X@X",
"@X@X@X@X@X@X@X*X%X%X$X@X%X%X%X@X@X@X@X@X@X@X@X@X%X%X>XY R dX{.Z. XuX:.4.q.3.}.yX}.>.b b B C G C R i._.#X>X*X+X%X$XQ.Z.V.].hXZ.7.r.uXr.W.*X@X*XT.v.v.U.b.+X@X@X@X",
"*XT.@X@X@X%X@X%X$X+Xc.XX$X@X%X@X+X@X@X@X@X@X@X@X@XT.>XO.n A.Z.V.C. XyXyX6.u.4.2 2.:.G G Q H H 7 R ..W.l.E O.R.%X;XZ.A. XmXmXdX7.hXmXuX:.(.@X%X+Xv.#X@Xb.@X@X@X@X",
"@X@X@X@X@X@X@X;Xv.v.XXP.x.@X%X@X@X@X@X@X@X@X@X@X;X-X;XQ 7 3.e.q.2.C.bXxXgXpXyXQ ~.y.i.i.Q ~.Z 7 Z F 6   1 Y.*X$X[.A.dX].].|.uX'.pX'.r.*._.#X#X%X#X@X%X%X@X@X@X@X",
"@X@X@X@X@X%X%X*XT.oX;X$XoX@X%X@X@X@X@X@X@X@X@X@XY.g.R R C 9 ;.3.1.>.|.zXbXgXbXcXbXiX~.yXyXy.4 n M 4     ^ >XT.&XS.V.Z.hX].=.u.nX<.6. XS !.5X@X@X@X@X@X%X@X@X@X@X",
"@X@X@X@X%X%X%X@X@X*X@X%X*X@X@X@X@X@X@X@X@X@X#XL.W x K J R H 3 4 B M m F gXiXcXhXnX~.rXp.y.C n n b .     0 @X-X$XC.e.q.|.mXyX}.dXhXmXyXM i.aX$X%X@X@X%X%X@X@X@X@X",
"@X%X@X%X*X@X@X@X@X@X@X*X%X%X@X@X@X@X@X@X@X@X@XR.*X*XH.O.c K G @ @ 2 5 b 7 2 ..H y.7 G 5 n Z n 5 .         q G.4XB.9.2.2.|.lXvXmXmXvXD 5 @.3X@X@X%X%X%X%X@X@X@X@X",
"@X@X@X%X@X@X@X@X*X@X@X@X%X%X%X%X@X@X@X@X@X@X@X*X@X@X-X3X<   % 8 % @ # 2 5 9 n 7 4 C 7 n 7 3 @               $ ! G.;.*.;.S y.yXhX~.4.2 # W ;X@X@X%X%X%X%X%X%X@X%X",
"@X@X@X%X*X@X@X#X%X%X%X%X%X%X%X@X@X@X@X@X@X@X@X@X%X@X=X5Xa       . + O c & @ 3 6 6 3 # . - 8 :       1 ! h.H.L.G.H.F.C 9 b 9 G 4 8 @   > R.#X@X@X%X%X%X%X%X%X@X@X",
"%X%X@X%X@X@X@X%X%X%X%X%X%X%X%X%X@X@X@X*X@X*X@X@X@X*X;X).h     O , ` + { &.w o         # 1 < O     O W 4X:X*X*X-X*X*XG.< . & X   *   % f.3X@X@X@X%X%X%X%X%X%X%X%X",
"@X@X@X@X@X@X%X%X%X%X%X%X%X%X%X@X@X@X@X@X@X@X@X@X@X4X! #.p     , k z % H eXJ &     # 8 p         O O x %X@X@X@X@X#X>XF.$   X : 0 d d.@X#X@X@X@X@X%X%X%X%X@X@X@X@X",
"%X%X@X@X*X@X@X@X%X%X%X%X%X%X@X@X*X@X%X*X%X@X@X#X-XY   $.s     < i j i n ~.#.# d | _ w 8         p : g l.-X$X*X-XH./.{   P j.L.@X%X-X@X@X@X@X*X%X@X%X%X%X%X@X%X%X",
"%X%X%X*XU.oX;X@X%X%X%X%X%X%X%X@X@X*X@X%XR.%X:XT.f   ] | X     < h l u 3 ;.tXiXzXzXtX} <     + + : + = f *X-X$XX.a | } + ! 3X#X%X%X@X@X@X@X*X$XU.@X*X%X%X*X@X@X@X",
"@X%XT.P.v.P.P.$X%X%X%X%X%X%X%X*X@X$XT.@X-X;Xf.1   j tX&.a     , s _ y O S L eXqXi.&.J     : , O       = z.G.0 - ; | ' j j D.#X$X@X@X%X@X*XP.P.b.U.P.*X@X@X@X@X@X",
"@X*XoXb.$XR.c.$X*X%X%X@X@X@X@X$XU.v.*X*Xh.q     , &.] O       * , s i ; D m 9 f { J &     , >           O O , ; X l ] ' | E.@X@X%X%X%X@X#Xv..X%X.Xv.%X%X@X@X@X@X",
"%X@X@X$X@X%X@X@X@X%X%X@X@X@X+Xc.&Xv.d.e       < z <           + * y i ; 5 6 @ @ 8 : . @   :   w P           * +   + j _ +.;X@X@X%X%X%X%X%X@X%X;X%X@X%X%X*X@X@X*X",
"%X%X%X*X@X#X%X@X@X%X@X@X#X4X#Xn.^ 0       j #.} z a :           * > i i @ m n @ . @ 3 @   +   Y 4Xq     + O         + o W 3X@X@X%X%X%X%X@X%X%X%X%X%X%X%X#X@X@X@X",
"@X@X@X@X@X@X%X@X@X*X@X#XH.! e +         p | ` k y 1           + * , g s   6 @ . # @ # @   :   ! >XY.1   O o +           T *X@X@X%X%X%X%X%X@X%X%X%X%X%X%X@X@X@X@X",
"@X@X@X@X@X%X@X%X@X@X#XR.:             s %.` > ,               O , i l p     7 9 & . @     y u f.-X*XH.0             : I I Y.@X@X@X%X%X%X%X%X%X%X%X%X%X%X%X@X@X@X",
"@X@X@X@X%X@X%X@X%XR.-XO.  O o     O | eX&.i o                 O k g _ 1   3 :.G 1 @ #     , k z.-X@X-XT.j.~ 0 1 I I  .z.+.J.*X$X@X%X@X%X%X@X%X%X%X%X%X@X@X@X@X@X",
"@X@X@X@X@X@X@X@X@X#XR.1   +   $ ] 0XeX%.j O                   < #.` ] ;   # A ) c b .     + g z.-X@X@X@X-X-X<Xm.l.X.J.m.m.K.XX$X%X%X@X%X%X@X%X%X%X%X%X%X@X@X@X@X",
"@X@X@X@X@X*X@X@X@X-Xr       % z $.$.%.[ ; O                   z } #.$.+   H u.) f B b .   $ x o.-X@X@X@X@X@X@X(.^.+.&X)./.U.c.+X%X%X@X%X%X%X%X%X%X%X%X%X@X@X@X@X",
"@X@X@X@X@X@X@X@X:Xr   +   + > $.tXtX%., > +     e P         O ] | %.]     m 5.y.L *.m 3 @   h.] K.#X@X@X%X%X@X*XR.^.@X(.<X%XXX@X@X@X@X%X%X@X%X%X%X@X*X@X@X@X@X@X",
"@X@X@X@X@X@XT.4X~ I E X + h , &. .x { + +     E -X:XP       y [ } 0X,   Z |. XQ @ :.>.B m . r g.| -X@X@X%X@X@X@X(.3X@X%X@X@X%X@X@X%X%X%X%X%X%X%X%X@X@X@X@X@X@X@X",
"@X@X@X@X@X@X;XH.^ :X-XT x  .j j ..%.% O     O T.@X:XY       s z | }     Z '.A   o   F 2.;.@   f.[ g.:X@X%X%X@X@X@X@X@X@X@X@X@X@X@X%X@X%X%X%X%X%X%X%X@X@X@X@X@X@X",
"@X@X@X$X@X@X-Xg.G.3X^.z l     o s p , 1     w #X%XT.O     + z h [ 1       .     ; +   n #     r l.[ <X@X@X%X%X@X@X@X@X@X@X@X@X@X@X%X%X%X%X@X%X%X%X@X@X@X@X@X@X@X",
"@X@X@X@X@X@X@X(.*X} k T s ~ L.f.k O : O     Y *X:X~       > k k k                 o *           ^ e +.:X@X*X@X@X@X@X@X@X@X@X@X@X@X%X%X%X%X%X%X%X%X@X@X@X@X@X@X@X",
"@X@X@X@X@X@X@X-XD.W W T Y 3X#X4XX.o     + $ ^.#X#Xw       i [ [ +       X : : ; + > a O             - D.-X@X@X@X@X%X@X@X@X@X@X@X%X%X%X%X%X%X%X%X@X@Xb.oX+X@X@X@X",
"@X@X@X@X@X@X@X:X~ l.U j.*X@X@X*Xo.o   r ! < Y.:Xj.        j #.,       O : , y y + i < < k ' z y +     : H.-X$X%X@X@X@X@X@X@X@X@X%X%X%X%X%X%X@X%X.Xc.U.P.c.@X@X%X",
"@X*X@X*X@X@X@X-X! O.d Y.#X@X#X1X@.p : ! ^ x 3X-Xr       O } j         ; : 1 , , a d g ] } %.wXqX| a $   % H.4X@X%X%X*X@X@X@X@X#X%X%X%X#X%X%X@X#XXXXX;X$XU.%X%X%X",
"@X@X@X@X@X%X%X*XL.l.Y ~ 3X@X$X-Xz.{  .k.W O.>Xh.        k z     : p a y i < < : o : i l #.%.eXwXeX%.| h X ; j.:X$X@X@X@X@X@X@X@X%X;X$Xv.%X%X*X@X*X*X%X%X*X@X@X@X",
"@X@X%X%X@X@X%X@X#X@X@XY.@X@X@X-Xl.+.+.l.{ (.@X1       : k     ] &.l p a a o   + * o o : u i h } %.qXqXqX&.l i ~ -X@X@X@X@X@X@X@X%Xv.U.b..XP.#X@X@X@X%X%X@X%X%X@X",
"%X%X%X*X%X%X@X$X$Xb.U.$X@X%X@X#X^.^.D.(.).4XY         a O   ' tX] > 0 y + + * * * * O X * u a y i s [ %.zX] s j ^ 4X@X@X*X%X*X@X;Xv.U.*X.XP.%X@X%X%X%X%X%X%X%X%X",
"%X@X@X@X@X@X;XU.b.oXU.x.%X%X@X@X(.(.D.%X:Xd.        + O   y wX%.> , h O   X             o O X = i _ } 0X} O a l   E :X#XR.@X@X@X@X@X@X%X@X@X@X@X%X%X%X%X%X@X%X@X",
"@X@X@X%X@X@X%X$XoX;X$XoX%X%X%X#X*X(.E.>Xh.      +   +   O qXtXg o g : X X   X   X X         ~ ^ , h | y i ; > { P   q R.:X@X@X@X@X@X@X%X%X%X%X%X%X%X%X%X@X@X@X@X",
"%X%X%X%X%X%X%X%X*X@X@X*X%X%X@X@X%XR.3Xj.o X o +         | tX$.* , a * *   X X   X       O ~ -X4Xz.-   i z     +.4XH.e : g.:X@X@X@X@X@X%X%X%X%X%X%X%X%X%X%X%X%X%X",
"%X@X%X%X%X@X%X%X@X@X#X@X@X#X@X@X@X#XH.O X O           , wXqXa ; y : * +   o o o O       q 4X@X%Xm.K.I l * +    .-X#X:Xs.* X.3X%X@X@X@X%X%X%X%X%X%X%X%X%X%X%X%X%X",
"@X%X@X@X@X%X%X%X*X@X@X@X@X@X@X@X*X$X0   O         +   ] wX` , : o ; X   X o o o O   +   o H.*XR.^.5XK.* O O   W -X@X@X:XG.> O.&X@X*X%X%X%X%X@X*X%X%X%X%X@X@X@X@X",
"@X@X@X@X@X@X@X%X@X@X%X%X%X%X@X@X:X!   O   o   + X X 1 0X} < p   X o   X   o o o O X X *   ! :X@X<X-XO.X , O   U -X@X@XT.:Xn.p f.OXOX#X@X@X@X%X@X%X%X%X@X@X@X@X@X",
"@X@X@X@X%X%X%X@X%X@X%X%X%X@X@X@X@Xw   X o   o O X X &.%.a i O   O X o   o o o * * X O O X 0 @X@X@X-Xg.o , *   W -X+X@X@X@XN.n.d n..X*X@X@X@X%X@X%X%X%X@X@X@X@X$X",
"@X@X@X@X@X%X@X%X%X%X%X%X*X@XR.:Xh.  + o + O ; *   * %._ o O   + o X     O X o ; o O ;   ;   ! 4X$X-XH.u , > X W >XT.%X@X@XXX:Xq r 4X@X@X@X@X@X@X%X%X%X@X@X@X@X@X",
"@X@X@X@X@X%X%X@X%X%X%X%X@X@X#X*Xq   O     O ; o   * ,         X o X     O X   ; * o O 0 o X o f.-X@X@XI > i X U -X@X%X%X@X@X#Xg.d l.-X@X*X@X@X*X%X%X%X@X@X@X@X@X",
"@X@X@X@X@X*X@X@X@X%X%X%X@X*XR.P   O   1 ! X       : >   > * O X X     + X < e X O   I &Xd.O   $ l.*X-X^ - i X r -XT.@X@X@X@X@X3XL.O.-X@X%X%X%X%X%X%X%X%X@X@X@X@X",
"@X@X@X@X@X@X@X%X%X%X%X@X@X%Xl.j.%     G.s.$ P 1 X ; , y i > > o +       ^ %X:Xf.  O n.N.2Xh.  P (.@X-XO.= > X 0 @X@X@X@X@X@X@X+X#Xj.R.@X%X%X%X%X%X%X%X@X@X@X@X@X",
"@X+X@X@X@X#X@X$X%X*X@X@X*XR.<XH.    Y D.~ T.:XG.O   u i i i p         E >X@X+X>X/ $ T.$X$X#X1 / 4X@X-Xj.> ; , : H.;X@X@X@X@X@X@X@X/.$X@X@X%X%X%X%X%X%X%X@X@X@X@X",
"@X@X@X@X@X+XXXc.+XR.*X@X@X@X:XE   w (.H.:X@XT.4Xe 0 f = i a s e       G.#X@X@X+X-XY H.#X$XT.l.J.@X@X#XR.p > g * g.-X+X@X@X@X@X@X@X<X%X%X%X%X%X%X%X%X%X@X@X@X@X@X",
"@X@X@X@X%Xc.U.I.v.v.*X%X%X@X-Xw   ! :X@X@X@X$X;XE H.~ X > = X.4X/     j.#X@X@XR.;XG.H.@X@XR.(.E.@X@X@X*Xf u j X W :X+X@X@X@X@X@X@X@X@X%X%X%X%X%X@X@X@X@X@X@X@X@X",
"@X@X%X%X@XI.+X%XoXT.%X%X@X-Xj.q / f.-X@X%X%X*XR.l.>XO.= * = g.:X-Xe g.K.*X@X%X%X#XE.E.#X@X<X(.J.*X%X@X-XI u p o d ;X@X%X%X@X%X%X@X%X%X%X%X@X%X%X*X@X*X@X@X@X%X%X",
"@X%X@X%X%X%X*X@X*X%X@X%XR.:XO.j.;Xj.#X@X$X@X#XL.L.>XO.= * X g.:XR.U R.3X%X@X%X@X*XR.1X@X@X3X1XR.@X*X@X:XE = > * : H.#X@X@X%X@X%X%X%X%X%X%X%X%X%X@X@Xv.I.@X@X@X@X",
"%X%X%X%X%X@X%X@X@X%X%X%X%X;Xf.@XR.Y.#X@X#X@X@X/.$X&Xg.=   > G.*XY.O.*X<X%X@X%X%X*X@X*X@X@X;X*X#X%X@XR.:X! = ; i * O.:X@X%X%X%X%X%X%X%X%X%X@X@X;XU.b.P.P.c.@X@X%X",
"%X%X%X%X%X%X%X%X@X%X%X%X%X@XD.*XL.K.*X@X@X@X@X(..XN.h.    w R.#X@XK.*X@X@X%X%X%X@X@X@X@X%X@X@X@X%X@X@X:XO.- u , O j.-XT.%X%X%X%X%X%X%X@X%X%X@X#XI.U.*X$Xv.@X%X%X",
"@X%X@X%X%X%X%X%X@X@X%X%X%X%XJ.#XL.H.*X%X%X@X$Xx.P.&XT   i a (.@X@X<X%X%X%X@X%X%X@X@X@X@X%X@X@X@X@X@X@X-Xg.X +     O.>X@X%X%X%X%X@X%X@X@X%X%X@X*X*X%X@X%X*X@X%X%X",
"%X%X%X%X@X*X%X%X%X*X%X%X%X%XR.*X*X*X%X%X%X%X@X+X:Xg.o : _ ` R.@X%X@X%X%X%X%X%X%X%X%X%X*X@X*X@X@X%X%X+X:X/       s X f.-X@X@X@XT.%X%X@X*X@X@X@X*X%X%X%X%X%X%X%X%X",
"%X%X%X@X@X@X%X%X%X%X%X%X%X%X%X@X%X%X%X%X@X%X*XY.k.-   ` a y %X#X%X%X%X%X@X%X@X%X%X@X%X%X@X$XU.v.@X@X@X:XE   o O ] '   W 4X:X:X:X;X@X$X%X*X@X@X@X%X%X%X%X@X@X@X%X",
"@X@X%X@X@X@X@X%X%X%X%X%X@X*X@X@X@X@X@X@X@X#X1X{   , k ' $ U *X@X@X%X@X@X@X@X@X@X@X@X@X%X+Xc.U.U.c.I.@X-XY   * * o ] } X w ! ~ ~ H.&Xx.$X+X@X@X%X%X%X%X@X@X@X@X%X",
"%X%X%X%X*X%X@X%X%X%X%X%X#XXX$X%X*X@X@X*X@X-X+.v   < p   ~ 4X@X%X@X@X%X%X@X*X%X%X%X%X%X#X+XU.@X%XU.+X*X:XP       >   p l z z g   y n.XXU.c.%X@X%X%X%X@X*X%X%X%X%X",
"@X@X%X@X%X%X%X%X%X@X*XI.U.b.P.U.$X@X@X@X@X;Xf.w w q r ^ J.*X@X%X@X*X@X@X@X@X@X@X@X@X@X%X%X%X@X@X%X@X@X;Xj.! E Y P w   X , > *     j 3X$X+X%X%X%X*X@X@X@X%X%X@X@X",
"@X@X@X@X%X%X%X%X%X%X;XI.c.+X$Xc.@X@X@X@X@X@X#X*X#X-X>X:X@X%X%X%X@X@X*X@X@X@X@X@X@X@X@X@X@X%X@X@X@X*X@X@X;X>X:X:X-XR.G.O.~ ! Y U P X.^.*X%X%X%X%X@X@X@X*X%X%X@X@X",
"@X@X@X@X@X@X@X@X%X%X%X%X@X@X@X$X@X@X@X@X@X$X@XR.@X@X@X@X@X@X@X*X%X%X%X*X@X@X@X@X@X@X@X@X@X@X@X@X%X%X%X%X@XR.T.@X@X@X#X-X:X-X-X:X:X:X#X@X@X@X%X%X@X@X%X%X%X%X@X@X",
"@X@X@X@X@X@X%X%X@X*X%X%X*X@X@X@X@X@X@X@X@X@X@X@X@X%X%X@X@X@X@X@X%X%X@X%X@X@X@X@X@X@X@X@X@X@X@X*X%X%X%X@X@X*X%X@X@X@X@X+X@X@X@XT.+X@X@X%X%X@X%X%X*X@X%X%X@X@X@X@X",
"@X@X@X@X%X%X@X@X@X%X%X%X@X@X@X@X@X$X@X@X@X@X@X@X@X%X@X%X@X@X@X*X@X@X@X$X@X@X@X@X@X@X@X@X@X@X@X@X%X%X%X@X*X@X@X@X@X@X@X@X@X@X@X@X@X@X@X%X%X@X%X%X@X%X%X@X@X@X@X@X",
"@X@X@X@X@X%X%X@X@X%X%X%X@X@X@X@X@X@X@X@X@X@X@X@X%X%X@X*X@X@X@X@X@X@X@X@X@X@X@X@X@X@X@X@X@X*X@X@X@X%X*X@X@X@X%X@X@X@X@X@X@X@X@X@X@X@X@X%X%X%X%X%X@X@X%X@X@X@X@X@X"
};
