/* XPM */
static char *New_Project__5__resized[] = {
/* columns rows colors chars-per-pixel */
"80 80 127 2 ",
"   c #9F6B00",
".  c #9F7100",
"X  c #A06D00",
"o  c #A07301",
"O  c #A67800",
"+  c #AD7C00",
"@  c #B17D00",
"#  c #78B449",
"$  c #6FB755",
"%  c #6DB558",
"&  c #6FB858",
"*  c #72B756",
"=  c #74B955",
"-  c #7CBC56",
";  c #74B958",
":  c #7BBC58",
">  c #7DC05B",
",  c #9D870E",
"<  c #9D8A12",
"1  c #AE8201",
"2  c #AB8609",
"3  c #AA890D",
"4  c #B08200",
"5  c #BF9000",
"6  c #A88C12",
"7  c #A79017",
"8  c #A4921B",
"9  c #AC9C1E",
"0  c #B2A21F",
"q  c #9E9323",
"w  c #9E9C2C",
"e  c #A59620",
"r  c #A69D26",
"t  c #AA9D22",
"y  c #A29F2C",
"u  c #98A027",
"i  c #99A229",
"p  c #9EA434",
"a  c #93AC3E",
"s  c #9EAC3C",
"d  c #AFA626",
"f  c #A6A42D",
"g  c #ACAC2E",
"h  c #B4A822",
"j  c #B8AA21",
"k  c #BFB525",
"l  c #B5B52F",
"z  c #B9B42A",
"x  c #A2A631",
"c  c #A5AB34",
"v  c #AAAE32",
"b  c #A3AE39",
"n  c #A4B23D",
"m  c #AEB739",
"M  c #B0B533",
"N  c #C38E00",
"B  c #C19200",
"V  c #C89E05",
"C  c #D49E00",
"Z  c #CEA506",
"A  c #CFA808",
"S  c #D2A200",
"D  c #DAA700",
"F  c #D0A807",
"G  c #DDAA00",
"H  c #CAB61C",
"J  c #CFB818",
"K  c #E3AD00",
"L  c #E8AF00",
"P  c #E2B200",
"I  c #E8B100",
"U  c #E6BA05",
"Y  c #EBBB00",
"T  c #C5B520",
"R  c #D3D50A",
"E  c #DEDB0D",
"W  c #C8CC1A",
"Q  c #D5D114",
"!  c #DAD811",
"~  c #EFC801",
"^  c #E1C10A",
"/  c #F3C200",
"(  c #F9C600",
")  c #FFCE00",
"_  c #FFD400",
"`  c #FFDB00",
"'  c #E6E000",
"]  c #ECE703",
"[  c #E9E308",
"{  c #FFFE01",
"}  c #C4C620",
"|  c #9DB445",
" . c #9CB749",
".. c #94BD4C",
"X. c #9CBA4C",
"o. c #83BE56",
"O. c #8ABF56",
"+. c #81B658",
"@. c #84BE58",
"#. c #8CBF58",
"$. c #96BD53",
"%. c #99BD51",
"&. c #95BD5A",
"*. c #A1B542",
"=. c #A0B846",
"-. c #86C056",
";. c #8CC156",
":. c #85C15A",
">. c #8CC258",
",. c #94C356",
"<. c #9AC457",
"1. c #9EC857",
"2. c #95C45A",
"3. c #9BC558",
"4. c #97C85E",
"5. c #9AC95D",
"6. c #A0C657",
"7. c #A0C857",
"8. c #A0C658",
"9. c #D2D266",
"0. c #E0DD74",
"q. c #CDCE8B",
"w. c #FFFF9A",
"e. c #D2D7A5",
"r. c #FFFFA0",
"t. c #FFFEE7",
"y. c #FFFFF3",
/* pixels */
"<.<.<.<.<.3.<.<.3.3.3.3.3.3.3.<.<.<.<.<.<.<.<.<.<.3.3.3.<.<.<.<.5.=.V F Z F Z Z F F F Z A V b 3.3.3.3.3.3.3.3.3.<.<.<.<.<.<.<.<.2.<.<.3.<.<.3.3.3.3.<.<.<.<.<.<.",
"<.<.<.<.<.3.3.<.3.3.3.3.3.3.3.<.<.<.<.,.<.<.$.<.3.3.3.3.<.O.o.<.1.n K P P P P P P P L P P L c 4.<.3.3.3.3.3.<.<.<.<.<.,.<.<.<.<.<.3.<.3.3.3.3.3.3.3.3.3.O.o.<.<.",
"<.<.<.<.<.3.<.3.<.3.8.3.3.3.<.<.<.<.<.<.<.<.<.<.<.3.3.2.= o.- - :.*.P U P U I U U P P U U L g 4.<.3.3.3.3.3.<.3.<.<.<.<.<.<.<.<.3.3.3.3.3.3.3.3.3.3.3.; o.- : ;.",
"<.<.,.<.<.3.<.<.3.3.>.3.3.3.<.<.<.<.<.,.<.<.<.<.3.<.<.,.- ,.<.o.>.m ) ) ) ) ) ) ) ) ) ) ) ) z 4.3.3.3.3.3.3.3.<.<.<.<.<.<.<.,.<.3.3.3.3.3.<.3.3.3.3.3.- ,.1.- ;.",
"<.<.<.3.3.3.<.3.>.>.$ >.O.<.<.<.<.3.<.3.3.<.3.<.3.3.3.<.<.<.<.<.4.M ) ) ) ) ) ) ) ) ) ) ) ) z 2.3.3.3.3.3.3.3.<.3.<.3.3.<.<.<.<.3.3.3.3.3.3.3.3.3.3.3.3.<.<.<.<.",
"<.<.<.3.3.3.3.8.: : ,.-.; <.<.<.<.<.3.<.3.3.<.3.3.3.3.3.<.<.3.6.4.l ) ) ) ) ) ) ) ) ) ) ) ) T 2.<.3.3.3.3.3.<.3.<.3.<.3.<.<.3.<.3.3.3.3.3.3.3.3.3.3.3.<.<.<.<.<.",
"<.3.<.3.3.3.3.3.,.,.8.<.,.3.3.<.3.3.3.3.<.3.3.3.3.3.3.3.3.3.3.<.4.z ) ) ) ) ) ) ) ) ) ) ) ) H 4.<.3.3.3.3.3.3.3.3.3.3.3.3.$.<.3.3.3.3.3.3.3.3.3.3.3.3.3.3.3.3.3.",
"3.3.3.3.3.3.3.3.3.3.<.<.<.3.3.3.3.3.3.3.3.3.3.3.3.3.3.3.3.3.3.<.2.k ) ) ) _ ) ) _ ) ) ) ) _ J &.8.3.3.3.3.3.3.3.3.3.3.,.,.* O.,.3.3.3.3.3.3.3.3.3.3.3.3.3.3.3.3.",
"3.3.3.3.3.3.3.3.3.3.3.3.3.3.3.3.3.3.3.3.3.3.3.3.3.3.3.3.3.3.3.3.&.} { { { { { { { { { { { { Q &.7.3.3.3.3.3.3.3.3.3.6.o.= #.o.* 3.3.3.3.3.3.3.3.3.3.3.3.3.3.3.3.",
"3.3.3.3.3.3.3.3.3.3.3.3.3.3.3.3.3.3.3.3.3.3.3.3.3.3.3.3.3.3.3.7.&.} { { { { { { { { { { { { R - 7.<.<.3.3.3.3.3.3.3.<.2.#.<.,.;.3.3.3.3.3.3.3.3.3.3.3.3.3.3.3.3.",
"3.3.3.3.3.3.3.3.3.3.3.3.3.3.3.3.3.3.3.3.3.3.3.<.3.3.3.3.3.3.3.3...q.y.t.t.t.t.t.t.t.t.t.t.y.e.# > ,.<.3.3.3.3.3.3.3.3.3.<.<.<.<.3.3.3.3.3.3.3.3.3.3.3.3.3.3.3.3.",
"<.<.<.<.<.3.3.3.3.3.3.3.3.3.3.3.<.<.<.<.<.3.<.<.3.3.3.3.3.3.3.3.$.9.w.w.w.w.w.w.w.w.w.w.w.r.0...: >.3.3.3.3.3.3.<.<.<.<.<.<.<.<.<.<.<.3.3.3.3.3.3.3.<.<.<.<.<.<.",
"3.3.3.3.3.3.3.3.3.3.3.3.3.3.3.3.3.3.3.3.<.<.<.<.3.3.3.3.3.3.3.5.&.R { { { { { { { { { { { { ' $.1.3.<.3.3.3.3.3.3.3.3.3.<.<.3.3.3.3.3.3.3.3.3.3.<.3.3.3.<.3.3.3.",
"3.<.<.<.3.3.3.3.3.3.3.3.3.3.3.3.<.<.3.3.3.1.o.,.3.3.3.3.3.3.3.3.$.! { { { { { { { { { { { { [ %.3.<.3.3.3.3.3.3.3.<.<.<.<.<.<.<.<.3.3.3.3.3.3.3.3.3.3.3.3.<.<.<.",
"3.<.3.<.3.3.- ,.3.3.3.3.3.3.3.<.<.<.<.6.>.o.= o.- 3.3.3.3.3.3.1.$.! { { { { { { { { { { { { ] X.1.3.3.3.3.3.3.3.<.3.<.3.3.<.3.<.<.3.3.3.3.3.3.3.3.3.3.3.<.<.<.<.",
"<.<.<.<.- - - o.- <.3.3.3.<.3.<.<.<.<.<.o.- <.,.- 3.3.3.2.3.3.1.$.^ ` ` ` _ ` _ _ _ _ ` ` ` ~ X.5.<.3.3.3.3.<.<.<.<.<.<.<.<.<.<.<.3.<.3.3.<.3.3.3.3.3.<.,.<.<.<.",
"<.<.<.<.o.O.6.#.o.1.3.3.3.3.<.<.<.<.<.<.<.<.<.<.3.3.3.3.<.3.3.3.$.U ) ) ) ) ) ) ) ) ) ) ) ) (  .5.3.3.3.>.<.<.<.<.<.<.<.<.<.<.<.<.3.<.3.3.3.3.3.3.3.3.<.<.<.<.<.",
"<.<.<.<.<.<.<.<.3.3.3.3.3.<.3.<.<.<.<.,.<.<.<.<.<.3.3.3.<.3.3.5.%.U _ ) ) ) ) ) ) ) ) ) ) ) / | 3.3.2.>.= o.;.<.<.<.<.,.<.<.<.<.<.3.<.3.3.3.3.3.3.<.5.3.<.<.<.<.",
"<.<.<.,.<.<.3.<.<.<.3.<.3.<.3.<.<.<.<.<.<.<.,.<.<.3.3.3.<.3.3.3.X.Y _ _ ) ) _ ) ) ) ) ) ) _ ( *.5.6.o.= ,.>.* ,.<.<.<.<.<.<.<.<.<.3.3.3.3.3.3.3.<.o.>.<.<.<.<.<.",
"<.<.<.<.<.<.3.3.<.1.,.<.3.<.<.<.<.<.<.<.<.<.<.<.<.3.3.<.<.3.<.1.X.G Y I Y Y U Y Y Y Y Y Y Y U *.5.<.<.,.1.3.,.<.<.<.<.<.<.,.<.<.<.3.<.3.3.<.<.>.- - o.: ,.<.<.,.",
"<.<.<.<.3.<.<.3.,.,.* ;.,.<.<.<.<.<.<.<.<.<.<.<.<.<.<.1.<.<.<.5. .D P G P P G P K G P P P P G n 5.<.3.3.3.3.3.<.<.<.$.<.<.<.<.<.<.3.<.3.3.3.<.,.- <.<.: ,.<.<.<.",
"<.<.<.<.<.3.3.8.- - ;.:.* <.3.<.<.<.<.<.<.<.,.<.<.<.<.<.<.<.6.5.| D U P P P P P P P P P P P G n 5.<.3.3.3.3.3.<.<.<.<.<.<.<.<.<.<.3.<.3.3.<.<.3.1.<.3.6.<.<.<.<.",
"<.<.<.<.3.3.3.3.2.>.7.,.;.<.3.<.<.<.<.<.<.<.<.<.<.<.<.<.<.>.o.5.| G P P P P P P P P P P P P G b 3.3.3.3.3.3.3.<.<.<.<.<.<.<.<.<.<.<.<.3.3.<.3.3.<.<.<.3.<.<.<.<.",
"<.<.<.<.<.3.3.3.3.3.3.3.1.<.<.<.<.<.<.<.$.<.<.<.<.<.<.,.- o.- > a G P P P G P P P P P P P P K v 4.3.3.3.3.3.3.3.<.<.<.<.<.<.,.<.<.3.3.3.3.3.3.3.<.<.3.3.<.<.<.<.",
"<.<.<.<.3.3.3.<.3.3.3.3.3.3.3.<.<.<.<.,.<.<.<.<.<.<.3.<.; ,.<.: a G P P P P P P P P P P P P K v 5.<.3.3.3.3.3.3.<.<.<.3.<.<.<.<.<.3.3.3.3.3.3.3.3.3.3.3.<.<.<.<.",
"<.<.<.<.3.3.3.<.3.3.3.3.3.3.3.3.<.<.<.<.3.<.<.<.3.<.3.<.3.3.<.3.b G P P P P P P P G P P P P K g 4.<.3.3.3.3.3.3.<.<.<.<.3.<.3.3.3.3.3.3.3.3.3.3.3.3.3.3.3.3.<.<.",
"<.<.<.<.3.3.3.3.3.3.3.3.3.3.3.<.<.<.<.<.<.<.<.<.3.3.3.3.3.3.3.5.b K P P G P P P P P P P P P G g 5.<.3.3.3.3.3.3.<.3.<.3.<.<.2.o.<.3.3.3.3.3.3.3.3.3.3.3.3.<.<.<.",
"<.<.<.<.3.3.3.3.3.3.3.3.3.3.3.3.3.<.3.3.<.3.3.<.<.3.3.3.3.3.3.3.b K P P P P P P P P P P P P P i :.<.3.3.3.3.3.3.<.3.3.3.<.o.o.; o.O.8.3.3.3.3.3.3.3.3.3.3.3.3.<.",
"<.<.<.<.<.<.3.3.3.3.3.3.3.3.3.3.<.<.<.3.<.<.<.<.<.<.3.3.3.3.3.4.b G P P P P P P G P P P P P L i > - ,.<.3.3.3.3.<.<.<.3.<.: ;.<.- o.7.3.3.3.3.<.3.3.3.3.<.<.<.<.",
"3.3.<.<.3.3.3.3.3.3.3.3.3.3.3.3.3.<.3.3.3.3.3.3.3.3.3.3.3.3.3.4.v P P G P P P P P P P P P P K d 4.: ,.3.3.3.3.3.3.3.3.3.<.<.<.<.3.<.3.3.3.3.3.<.3.3.3.3.3.3.3.3.",
"3.<.3.8.#.,.8.3.3.3.3.3.3.3.3.3.3.3.3.3.3.3.3.3.3.3.3.3.3.3.3.4.v P P P P P P P P P P P P P K h 3.<.3.3.3.3.3.3.3.3.<.1.<.<.<.<.3.<.3.3.3.7.,.o.3.3.3.3.<.3.3.3.",
"<.3.>.@.- : - ,.3.3.3.3.3.3.3.3.<.2.<.<.<.<.<.<.<.<.3.3.3.3.<.4.v L P P P P P P P P P P P P L h 5.<.3.3.3.3.3.3.,.<.<.<.<.<.<.<.<.<.3.3.<.@.-.; >.o.<.2.<.<.<.<.",
"3.7.>.; 2.,.; ,.3.3.3.3.3.<.<.,.o.- <.<.3.3.<.3.3.3.3.3.3.3.3.4.v K P P P P P P P P P P P P P h 3.3.3.3.3.3.3.3.3.3.3.3.3.3.3.3.3.3.3.3.<.- >.<.o.: <.3.3.3.3.3.",
"3.<.<.<.<.<.<.<.3.3.3.3.3.1.2.* o.o.= >.3.3.3.3.3.3.3.3.3.3.3.4.g P P P P P P P P P P P P P P j 4.3.3.3.3.3.3.3.3.3.3.3.3.3.3.3.3.3.3.3.3.3.3.3.3.3.3.3.3.3.3.3.",
"3.3.3.3.<.<.<.<.3.3.3.3.3.3.<.o.<.6.o.,.<.3.3.3.3.3.3.3.3.3.<.3.g L P P P P P P K P P P G P P j 3.3.3.3.3.3.<.3.3.3.3.3.3.3.3.3.3.3.3.3.3.3.<.3.<.3.3.3.3.3.3.3.",
"<.3.<.<.<.3.3.3.3.3.3.3.3.3.<.3.<.<.3.<.<.<.<.<.3.3.3.3.3.3.<.4.M L P P P P P P P U P P P P I j 4.3.3.3.3.3.<.<.3.<.3.<.<.3.<.<.3.3.3.3.3.3.3.3.3.3.3.3.3.3.3.<.",
"<.<.<.<.<.3.3.<.3.3.3.3.3.3.3.<.<.<.<.<.<.<.<.<.3.3.3.3.,.<.<.5.f C S S S S Z S S S S S S S S 0 4.<.3.3.3.3.<.<.<.<.<.<.<.<.<.<.<.3.<.3.3.3.3.3.3.3.3.3.<.<.<.<.",
"<.<.<.<.<.3.<.3.3.3.3.3.3.3.3.<.<.<.<.<.,.<.<.<.<.3.,.2.* ,.<.5.f N 5 5 5 5 5 5 5 B 5 5 5 N N 9 4.<.3.3.3.3.3.<.<.<.<.1.2.2.3.,.<.3.3.3.3.3.3.3.3.3.3.<.<.<.<.<.",
",.<.<.<.<.3.<.3.<.3.<.1.3.3.3.<.<.<.<.<.<.<.<.<.<.6.= - ;.- : 8.f N B B B B B B B B B B B B N 0 3.3.3.3.3.3.3.<.<.<.,.;.- o.>.,.<.<.<.3.3.3.3.3.3.3.3.3.<.<.<.,.",
"<.<.<.<.3.3.<.<.3.1.,.o.<.3.3.<.<.<.<.<.<.<.<.<.<.<.;.2.3.,.>.5.f N B B B B B B B B B B B B N 9 4.3.3.3.3.3.3.<.<.<.O.* >.#.* ,.<.3.3.3.3.3.3.3.3.3.3.3.<.<.<.<.",
"<.<.<.<.<.<.<.<.3.o.o.: -.o.<.<.<.<.<.<.<.<.<.<.<.3.3.3.<.<.<.5.f N B B B B B B B B B B B B N 9 3.3.3.3.3.3.3.<.<.<...,.<.<.#.<.<.3.<.3.3.3.3.3.3.3.3.3.<.<.<.<.",
"<.<.<.,.<.<.<.<.8.; >.<.@.@.<.<.<.<.<.<.<.<.<.,.3.3.3.3.<.3.3.5.f N B B B B B B B B B B B B N 9 4.3.3.3.3.3.<.<.<.<.<.<.<.<.<.<.<.<.3.3.3.<.3.3.3.3.3.<.<.,.<.<.",
"<.<.<.<.<.3.<.<.3.3.<.3.<.<.3.<.<.,.<.<.<.<.<.<.3.3.3.3.<.3.<.5.f N B B B B B B B B B B B B N 9 4.3.3.3.3.3.3.<.<.<.<.<.<.<.<.<.<.3.3.3.3.<.3.3.3.3.3.<.<.<.<.<.",
"<.<.<.<.<.<.<.<.<.3.3.3.3.3.3.<.<.<.<.<.<.<.<.<.3.3.3.3.3.3.<.5.f B B B B B B B N B B B B B N 9 3.3.3.3.3.3.3.3.<.<.,.<.<.<.<.<.<.3.<.3.3.3.3.3.3.3.<.<.<.<.<.<.",
"<.<.<.<.3.3.<.<.3.3.3.3.3.3.3.<.<.<.<.<.<.<.<.<.3.3.3.3.3.3.3.5.f N B B B B B B B B B B B B N 9 4.3.3.3.3.3.3.3.<.<.<.<.<.<.<.<.<.3.3.3.3.3.<.1.3.<.<.<.<.<.<.<.",
"<.<.<.3.3.3.3.3.3.3.3.3.3.3.3.3.3.3.<.<.<.<.<.<.3.3.3.3.3.3.3.5.f N B B B B B B B B B B B B N 9 4.3.3.3.3.3.3.3.<.<.<.<.<.<.<.<.3.3.3.3.3.3.3.<.2.<.- >.<.<.<.<.",
"<.<.<.<.3.3.3.3.3.3.3.3.3.3.3.3.3.<.<.<.<.<.<.<.3.3.3.3.3.3.<.5.f N B B B B B B B B B B B B N t 3.3.3.3.3.3.3.3.<.<.<.<.<.<.<.<.3.3.3.3.3.3.<.7.o.= o.o.* <.<.3.",
"3.3.3.3.3.3.3.3.3.3.3.3.3.3.3.3.3.3.3.<.<.<.<.<.3.3.3.3.3.3.3.5.f N B B B B B B B B B B B B N t 5.3.3.3.3.3.3.3.3.3.3.3.3.<.<.<.3.3.3.3.3.3.<.<.>.;.7.,.o.3.3.3.",
"<.<.<.3.3.<.3.3.3.3.3.3.3.3.3.3.<.<.3.<.<.3.<.<.<.3.3.3.3.3.<.5.f N B B B B B B B B B B B B N t 5.3.3.3.o.>.3.3.<.3.<.3.<.<.3.<.<.<.<.o.3.3.3.3.3.5.<.6.<.3.<.<.",
"3.<.3.<.3.3.3.3.3.<.3.3.3.3.3.3.3.3.<.3.<.<.<.<.<.<.3.3.3.3.<.5.c N B B B B B B B B B B B B N t 5.3.>.@.: o.- <.3.<.<.3.3.<.3.<.1.- o.; -.o.3.3.3.3.3.<.3.3.3.<.",
"3.3.3.3.3.3.3.2.,.; O.,.3.3.3.3.3.3.3.3.3.<.,.,.5.3.3.3.3.3.3.5.x N B B B B B B B B B B B B N r 5.<.>.: <.,.: 3.3.3.3.3.3.3.3.3.1.- ;.<.-.o.<.3.3.3.3.3.3.3.3.3.",
"3.3.<.3.3.3.3.@.= >.o.* 2.3.3.3.<.3.<.3.2.>.* o.>.3.3.3.3.3.3.5.c N B B B N B B B B B B B B N t 5.<.<.<.<.1.<.3.3.3.<.3.3.3.,.3.<.<.<.<.3.2.3.3.3.3.3.3.<.3.3.<.",
"<.<.<.3.<.3.<.&.>.5.<.;.<.3.3.<.<.3.<.8.o.= >.O.* <.3.3.3.3.<.5.x N 5 B B N B B B B B B B B N r 5.<.3.3.3.3.3.3.3.<.<.<.<.3.<.3.<.<.3.3.3.3.3.3.3.3.3.3.<.<.<.3.",
"3.3.3.3.3.3.3.3.<.3.1.3.<.3.3.3.3.3.3.3.,.,.6.<.,.<.3.3.3.3.<.5.c N B B B B B B B B B B B B N r 5.<.3.3.3.3.3.3.3.3.3.3.3.3.3.3.3.3.3.3.3.3.3.3.3.3.3.3.3.3.3.3.",
"3.<.3.<.<.3.3.3.<.<.3.3.3.3.3.3.3.<.3.<.<.<.<.<.<.<.<.3.3.3.<.5.b B B B B B N V B B B B B V N f 5.<.3.3.3.3.3.3.3.<.<.<.<.<.3.<.<.<.3.3.3.3.3.3.3.3.3.3.3.<.3.3.",
"3.<.<.3.3.<.3.3.3.3.3.3.3.3.3.<.<.3.<.<.<.<.<.<.<.<.3.3.3.3.<.5.b 4 4 4 5 4 4 4 4 5 4 4 4 4 @ y 5.3.3.3.3.3.3.3.3.<.<.<.<.<.,.>.<.3.3.3.3.3.3.3.3.3.3.3.<.3.<.<.",
"<.<.<.<.<.3.<.3.3.3.3.3.3.3.3.<.<.<.<.<.<.<.<.<.<.3.3.3.<.<.6.5.b + 1 1 4 1 1 4 1 + 4 4 1 4 @ y 5.<.3.3.3.3.3.<.<.<.<.<.<.o.-.= o.>.6.3.3.3.3.3.3.3.3.<.<.<.<.<.",
"<.<.<.<.3.3.<.<.3.3.3.3.3.3.3.<.<.<.<.<.,.<.<.<.<.3.3.3.<.<.<.5.s @ 4 4 4 4 4 4 4 4 4 4 4 4 @ p 5.<.3.3.3.3.<.<.<.<.<.<.<.= O.,.- o.6.3.3.<.3.3.3.3.3.<.<.<.<.<.",
"<.<.<.<.<.3.<.<.3.3.3.3.3.3.<.<.<.2.<.<.<.<.<.<.<.3.3.3.<.3.<.5.| @ @ 4 1 4 4 1 4 1 4 1 1 4 @ x 5.3.3.3.3.3.3.<.<.<.<.<.<.,.,.<.2.2.3.3.3.3.3.3.3.3.3.<.<.<.<.<.",
"<.<.<.<.<.3.<.<.<.3.3.3.3.3.3.<.<.<.<.<.<.<.<.$.<.3.3.<.<.3.<.5.| + 4 @ 4 4 4 4 4 4 4 4 4 4 @ p 5.3.3.3.3.3.<.<.<.<.<.<.<.1.<.<.3.3.3.3.3.<.3.3.3.3.<.<.<.,.<.<.",
"<.<.<.<.<.<.<.<.3.3.3.3.3.3.<.<.$.<.<.<.<.<.<.<.<.3.3.3.<.3.<.5.| + 4 4 4 1 4 4 4 4 1 4 4 4 + b 5.<.3.3.3.3.<.<.<.<.<.<.<.<.<.<.<.<.<.3.3.3.3.3.3.3.3.<.<.<.<.,.",
"<.<.<.,.<.<.<.<.3.3.3.3.3.3.<.<.<.<.<.<.<.<.<.<.<.3.3.3.<.3.<.5.| + 4 1 4 @ 4 4 4 4 4 4 4 4 @ s 5.3.3.3.3.3.<.<.<.,.<.<.<.<.,.<.<.3.<.3.3.<.3.3.3.3.3.<.<.<.<.<.",
"<.<.<.<.<.1.<.,.<.3.3.3.3.3.3.<.<.<.<.<.<.,.<.<.<.3.3.3.<.3.3.5. .1 4 4 4 1 1 4 4 1 1 4 1 4 @ | 5.<.3.3.3.3.<.<.<.<.<.<.<.<.<.<.<.<.<.3.3.<.3.3.3.3.3.<.<.<.<.<.",
"<.<.<.<.<.,.>.= ,.2.3.3.3.3.<.<.<.<.<.<.<.<.<.<.<.3.3.<.<.3.3.3.%.1 4 4 4 4 4 4 4 4 4 4 4 4 @ *.5.<.3.3.3.<.<.<.<.<.%.<.<.<.<.<.<.3.<.3.3.3.3.3.3.3.3.<.<.<.<.,.",
"<.<.<.<.3.* o.;.: - <.<.<.3.<.<.<.<.<.<.<.<.<.<.<.3.3.3.3.3.3.3.%.1 4 4 4 4 4 1 4 4 1 4 4 4 1 | 5.3.3.3.3.3.<.<.<.<.<.<.<.<.<.<.<.3.<.3.3.3.3.3.3.3.3.<.<.<.3.<.",
"<.<.<.3.3.#.,.3.>.2.<.<.3.3.3.3.3.3.<.3.<.3.3.<.<.3.3.3.<.3.3.3.%.2 4 4 4 4 4 4 4 4 4 4 4 4 +  .5.<.3.3.3.3.<.3.3.3.<.<.<.<.3.3.3.<.3.3.3.3.3.3.3.3.3.<.<.<.3.3.",
"<.<.<.<.3.3.3.3.3.3.3.3.3.3.3.<.<.3.3.<.<.3.<.<.3.3.3.3.3.3.3.3.<.2 4 4 4 4 4 4 1 @ 4 1 4 4 4 X.5.<.3.3.3.3.3.3.3.<.<.<.<.<.3.<.<.3.3.3.3.3.3.3.<.<.- >.<.3.3.3.",
"<.<.3.3.3.3.3.3.3.3.3.3.3.3.3.3.3.3.3.3.3.3.3.1.,.,.7.3.3.3.3.3.<.3 @ 4 1 4 4 1 4 4 4 4 4 4 1 %.3.<.3.3.3.3.3.3.3.3.3.3.3.3.3.3.3.3.3.3.3.3.3.3.o.: o.o.* 3.3.3.",
"<.3.3.3.3.3.3.3.3.3.3.3.3.3.3.3.3.3.3.3.3.3.3.>.;.= 2.,.3.3.3.3.3.6 @ 4 4 1 4 4 4 4 4 4 4 4 1 %.5.3.3.3.3.3.3.3.3.3.<.3.3.3.3.3.3.3.3.3.3.3.3.3.>.:.6.,.- <.3.3.",
"<.3.3.3.3.3.3.3.3.3.3.3.3.3.3.3.3.3.3.3.3.<.,.$ ;.>.* @.7.3.3.3.5.6 4 4 4 4 4 1 1 4 1 4 4 @ 2 %.<.3.3.3.3.3.3.3.3.<.<.3.<.3.3.3.3.3.3.3.3.3.3.3.<.6.<.<.<.<.2.3.",
"3.3.3.3.3.3.3.3.3.3.3.3.3.3.3.3.3.3.3.3.3.3.3.,.,.6.,.2.3.3.3.3.3.7 4 1 4 4 4 4 4 4 1 4 1 4 2 <.6.<.3.3.3.3.3.3.3.3.3.3.3.3.3.3.3.3.3.3.3.3.3.3.3.3.3.3.3.3.3.3.",
"3.3.3.3.3.3.3.3.3.3.3.3.3.3.3.3.<.3.3.<.<.3.<.<.<.<.3.3.3.3.3.3.5.8 @ 4 4 1 4 4 4 4 4 4 4 4 , - <.<.3.3.3.3.3.3.3.<.3.<.3.3.3.3.3.<.2.3.8.3.3.3.3.3.3.3.<.<.<.3.",
"<.<.<.<.<.<.3.3.3.3.3.3.<.<.<.<.<.<.<.<.<.<.<.<.<.<.3.3.3.3.3.<.5.e @ 4 4 4 4 1 4 4 4 4 4 4 < :.= O.<.<.3.3.3.3.<.3.<.3.<.<.<.3.,.,.* >.,.3.3.3.3.3.3.3.3.<.<.3.",
"3.3.3.3.3.3.3.<.3.3.3.3.1.;.,.3.3.3.3.<.3.3.<.<.<.<.3.3.3.3.3.<.5.r @ 4 4 4 4 1 4 4 4 4 4 4 7 3.O.,.3.3.3.3.3.3.3.3.3.3.3.3.3.3.- - ;.@.* 8.3.3.3.3.3.3.3.3.3.3.",
"<.<.<.<.3.3.3.3.3.3.3.2.o.: o.o.4.<.<.<.<.<.<.<.3.3.3.3.3.3.3.<.5.w o O O O O O O + O O + + 8 5.<.<.3.3.3.3.3.3.<.<.<.3.<.<.<.3.,.,.<.,.>.<.3.3.3.3.3.3.3.3.<.<.",
"<.<.<.<.3.3.3.3.3.3.3.O.= ,.2.= 2.<.<.<.<.<.<.<.<.3.3.3.3.3.<.<.5.w X . . . . . . . . .   X q 5.<.3.3.3.3.3.3.3.<.<.<.<.<.<.<.$.<.3.<.3.<.<.3.3.3.3.3.3.3.<.<.<.",
"<.<.<.$.3.3.3.<.3.3.3.3.<.<.<.,.<.<.<.<.<.<.<.<.<.3.3.3.<.3.3.<.4.p   o o o . . o o o o o X q 5.<.<.3.3.3.3.3.<.<.<.<.<.<.<.<.<.<.<.<.3.3.3.3.3.3.3.3.3.3.3.<.<.",
"<.<.<.<.3.3.3.<.3.3.3.3.<.<.3.<.<.<.<.<.<.<.<.<.<.3.3.3.<.3.3.<.3.s   . o o . . . o . o o o w 5.<.3.3.3.3.3.<.3.<.<.<.<.<.<.<.<.<.3.3.3.3.3.3.3.3.3.3.3.3.3.<.<.",
"<.<.<.2.3.3.3.<.3.3.3.3.<.3.<.<.<.<.,.<.<.<.<.<.3.3.3.3.<.3.3.<.5.| . . . o . . o o o X . X p 5.<.3.3.3.3.3.<.<.<.<.<.<.<.<.<.<.<.3.<.3.3.3.3.3.3.3.3.3.<.<.<.<.",
"<.<.<.<.3.3.<.<.3.3.3.3.3.3.<.<.<.<.<.<.<.<.<.<.<.3.3.3.<.3.3.<.4. .. 2 . o O . o . o . .   s 3.<.6.3.3.3.3.3.<.<.,.<.<.<.,.<.<.<.<.3.3.<.3.3.3.3.3.3.3.,.<.<.<."
};
