/* XPM */
static char *New_Project__7__resized[] = {
/* columns rows colors chars-per-pixel */
"80 80 201 2 ",
"   c #946600",
".  c #966800",
"X  c #9C6E00",
"o  c #9E7000",
"O  c #9F7B0A",
"+  c #9F7807",
"@  c #A16E00",
"#  c #A27400",
"$  c #A67900",
"%  c #AB7D00",
"&  c #A07B09",
"*  c #B17D00",
"=  c #6FB656",
"-  c #73B956",
";  c #7CBB56",
":  c #73BA59",
">  c #7DBD59",
",  c #70B753",
"<  c #9F800E",
"1  c #9F8616",
"2  c #AE8000",
"3  c #AA8509",
"4  c #A7870E",
"5  c #B18300",
"6  c #B98700",
"7  c #B78900",
"8  c #BB8C00",
"9  c #B69600",
"0  c #BE9100",
"q  c #B79800",
"w  c #BA9A00",
"e  c #B4920C",
"r  c #BA960A",
"t  c #A5931D",
"y  c #AD9718",
"u  c #AA9918",
"i  c #B49611",
"p  c #B59A14",
"a  c #B59C15",
"s  c #BEA200",
"d  c #B8A51C",
"f  c #BEB51E",
"g  c #9E9222",
"h  c #9E9A29",
"j  c #A29B26",
"k  c #AA9F23",
"l  c #9BA12F",
"z  c #9EA734",
"x  c #95AC3B",
"c  c #9EAC3C",
"v  c #9FAD37",
"b  c #ABA225",
"n  c #A2A22E",
"m  c #A9A429",
"M  c #ABA92C",
"N  c #A5A322",
"B  c #B9AF25",
"V  c #AEB32E",
"C  c #B7B729",
"Z  c #A5AB34",
"A  c #A3AF3A",
"S  c #A8AB32",
"D  c #AAB234",
"F  c #A2B23D",
"G  c #AAB839",
"H  c #C28E00",
"J  c #C29300",
"K  c #CA9600",
"L  c #C59A01",
"P  c #CB9C00",
"I  c #C29B08",
"U  c #D09D00",
"Y  c #C5A401",
"T  c #CDA101",
"R  c #C5A900",
"E  c #CCAB01",
"W  c #CBA60B",
"Q  c #CEAA0A",
"!  c #C5A50F",
"~  c #D4A400",
"^  c #D9A600",
"/  c #D3AA02",
"(  c #DCAC00",
")  c #CBB300",
"_  c #CEB800",
"`  c #CFB80E",
"'  c #D2B100",
"]  c #DCB201",
"[  c #D6BB04",
"{  c #DCBB01",
"}  c #D3B60E",
"|  c #C3A612",
" . c #C7AA13",
".. c #CCB219",
"X. c #E2AE00",
"o. c #E2B200",
"O. c #E9B500",
"+. c #E4BC01",
"@. c #ECBC00",
"#. c #F0BC00",
"$. c #E9BD1A",
"%. c #C1B620",
"&. c #DBB32B",
"*. c #D5C300",
"=. c #DDC201",
"-. c #D7C900",
";. c #DCCD00",
":. c #CEC314",
">. c #C7C71B",
",. c #D1C217",
"<. c #E5C301",
"1. c #EBC401",
"2. c #E3CB00",
"3. c #ECCB01",
"4. c #F2C200",
"5. c #F9C700",
"6. c #F3CC00",
"7. c #FECD00",
"8. c #E3D300",
"9. c #EDDC00",
"0. c #E9D601",
"q. c #F3D200",
"w. c #FED300",
"e. c #FEDC01",
"r. c #F6DA06",
"t. c #FED817",
"y. c #EBE400",
"u. c #F3E400",
"i. c #FFE200",
"p. c #F4EA00",
"a. c #FFEC00",
"s. c #F5F201",
"d. c #FEF300",
"f. c #FFFD01",
"g. c #FEF20B",
"h. c #FFFF0D",
"j. c #FFE311",
"k. c #FEEE1A",
"l. c #FFFF1A",
"z. c #FFF419",
"x. c #C0C220",
"c. c #FFD526",
"v. c #FCDE36",
"b. c #FFE624",
"n. c #FFE82D",
"m. c #FFFF23",
"M. c #FFFF2C",
"N. c #FCFC33",
"B. c #FEF537",
"V. c #82AF4C",
"C. c #9DB444",
"Z. c #9BB74A",
"A. c #94BA4F",
"S. c #9CB94B",
"D. c #83BE56",
"F. c #8BBF56",
"G. c #84BF59",
"H. c #8CBF58",
"J. c #95BC53",
"K. c #99BE52",
"L. c #A1B341",
"P. c #AEB86E",
"I. c #86C057",
"U. c #8CC157",
"Y. c #84C15A",
"T. c #8CC158",
"R. c #94C357",
"E. c #9AC457",
"W. c #95C45B",
"Q. c #9BC558",
"!. c #9AC85C",
"~. c #9EC857",
"^. c #A0C657",
"/. c #A0C658",
"(. c #A1C857",
"). c #E8DE57",
"_. c #FFE849",
"`. c #FFE956",
"'. c #F1EE52",
"]. c #FFFE52",
"[. c #FFFF59",
"{. c #FFF97B",
"}. c #E8DB96",
"|. c #FEED8C",
" X c #FFFF81",
".X c #FFFE8D",
"XX c #E9E19C",
"oX c #FEEF98",
"OX c #FEFE91",
"+X c #FFFF9A",
"@X c #FEF19A",
"#X c #FFF6A4",
"$X c #FFFEB4",
"%X c #FFFFBC",
"&X c #FFF3B8",
"*X c #FFFFC7",
"=X c #FFFBCE",
"-X c #FFFFE5",
";X c #FFFEEC",
":X c #FFFEF2",
">X c #FFFFFE",
/* pixels */
"E.E.E.E.E.Q.E.E.Q.Q.Q.Q.Q.Q.Q.E.E.E.E.E.E.E.E.E.E.Q.!.J.S.C ` <.3.3.<.( P L P ~ / / ~ ~ W W W ! d d m A J.W.Q.E.E.E.E.E.E.E.E.E.K.Q.Q.Q.Q.Q.Q.Q.Q.Q.Q.E.E.E.E.E.",
"E.E.E.E.E.Q.E.Q.Q.Q.Q.Q.Q.Q.Q.E.E.E.E.E.E.E.E.E.Q.W.L.,.q.e.i.i.i.e.i.w.w.5.@.( ^ O.O.O.O.O.O.@.#.#.O.O.o.B J.!.E.E.E.E.E.R.E.E.E.Q.Q.Q.Q.Q.Q.Q.Q.Q.E.E.F.; ~.E.",
"E.E.E.E.E.Q.E.Q.E.Q./.Q.Q.Q.E.E.E.E.E.E.E.E.E.W.S.,.e.i.e.e.e.e.e.e.e.e.7.w.w.7.O.] 4.7.5.7.7.7.w.7.w.w.w.7.} Z.!.E.E.E.E.E.E.E.Q.Q.Q.Q.Q.E.Q.Q.Q.Q.Q.- D.> > I.",
"E.E.E.E.E.Q.E.E.Q.Q.U.Q.Q.Q.E.E.E.E.E.E.E.E.H.G 3.e.e.e.e.e.e.i.e.e.e.e.7.7.7.7.w.5.O.4.w.w.7.7.7.7.7.7.7.7.7.+.L.W.E.E.E.E.K.E.Q.Q.Q.Q.Q.E.Q.Q.Q.Q.Q.; E.E.D.U.",
"E.R.E.Q.Q.Q.E.Q.T.U.= I.F.E.Q.E.E.E.Q.E.~.W.C w.i.e.e.a.d.{.].f.f.f.d.a.e.7.7.7.7.7.w.O.@.w.7.7.7.7.7.7.7.7.7.w.#.A W.Q.E.E.Q.E.Q.Q.Q.Q.Q.Q.Q.Q.Q.Q.Q.E.E.E.E.E.",
"E.E.E.Q.Q.Q.E./.> > R.I.- E.Q.E.E.Q.E.Q.R.%.e.e.e.i.d.[.:X-Xl.f.f.f.f.f.f.d.i.7.7.7.7.w.o.O.w.7.7.7.7.7.7.w.7.7.w.4.D !.E.E.E.Q.Q.Q.Q.Q.Q.Q.Q.Q.Q.Q.Q.E.E.E.E.E.",
"Q.Q.E.Q.Q.Q.Q.Q.R.R.^.E.R.E.Q.Q.Q.Q.Q.W.C e.e.e.i.m.%X>X=Xg.a.i.e.e.e.i.e.e.a.a.w.7.7.7.5.( @.w.7.7.7.7.7.7.7.7.7.w.4.Z W.E.E.Q.Q.Q.Q.Q.Q.Q.Q.Q.Q.Q.Q.Q.Q.Q.Q.Q.",
"Q.Q.Q.Q.Q.Q.Q.Q.Q.Q.Q.E.E.Q.Q.Q.Q.Q.W.V w.i.e.a.[.>X>X@Xi.e.e.e.q.e.e.e.e.w.7.w.i.e.7.7.5.1.^ 4.w.w.w.w.w.7.w.w.w.7.w.4.L.: G.R.Q.Q.Q.Q.Q.Q.Q.Q.Q.Q.Q.Q.Q.Q.Q.Q.",
"Q.Q.Q.Q.Q.Q.Q.Q.Q.Q.Q.Q.Q.Q.Q.Q.E.!.L.1.e.e.a..X>X;X`.i.w.<.' R Y Y Y R [ O.w.w.7.w.w.7.7.O.@.( s.f.d.f.f.f.f.f.f.f.f.f.0.V.I., Q.Q.Q.Q.Q.Q.Q.Q.Q.Q.Q.Q.!.E.Q.Q.",
"Q.Q.Q.Q.Q.Q.Q.Q.Q.Q.Q.Q.Q.Q.Q.E.~.K.[ e.e.i.[.>X|.j.e.{ Y 9 9 9 q w q 9 9 $ 5 O.w.7.7.w.7.@.1.O.=.h.f.f.f.f.f.f.f.f.f.f.f.:.U.T.Q.Q.Q.Q.Q.Q.Q.Q.Q.Q.Q.Q.Q.Q.Q.Q.",
"Q.Q.Q.Q.E.Q.Q.Q.Q.Q.Q.Q.Q.Q.Q.E.W.f 6.e.i.f.z.t.e.6.W 9 q R { 3.+.E 6.<.' %   X L 5.w.7.7.@.O.1.X.}.>X-X;X;X;X;X;X;X;X;X;X-XP.E.Q.Q.Q.Q.Q.Q.Q.Q.Q.Q.Q.Q.Q.Q.Q.Q.",
"E.E.E.E.E.E.Q.Q.Q.Q.Q.Q.Q.E.E.!.F <.q.e.f.d.e.i.2.w 9 R <.e.i.d.{ 8 f.d.a.6.P #   5 5.w.7.1.@.@.@.&.+X.XOXOXOXOXOXOXOXOX.X+X).x Q.Q.Q.Q.Q.Q.Q.Q.Q.Q.Q.E.E.E.E.E.",
"Q.Q.Q.Q.E.E.Q.Q.Q.Q.Q.Q.Q.E./.E.` 6.e.d.f.e.i.<.q w { e.i.d.f.f.) 5 f.f.f.d.e.@.5   % #.w.4.@.@.4.O.2.f.f.f.f.f.f.f.f.f.f.f.f.x.W.Q.Q.Q.Q.Q.Q.Q.Q.Q.Q.Q.E.E.Q.Q.",
"E.E.Q.E.E.E.Q.Q.Q.Q.Q.Q.Q.E.!.D 1.6.i.f.i.e.3.q w 3.i.a.N.%XM.f.E ~ 2.d.e.w.7.w.7.J   % o.o.@.@.O.1.] s.f.f.f.f.f.f.f.f.f.f.f.p.Z.!.Q.Q.Q.Q.Q.Q.Q.Q.Q.Q.E.E.E.E.",
"E.E.E.Q.E.E.; R.Q.Q.Q.Q.Q.~.J.Q 3.q.f.a.e.q.w w 3.i.d. X>X$Xf.y./ o.T i.e.w.7.7.w.w.J   5 ^ ^ @.@.@.o.=.f.f.f.f.f.f.f.f.f.f.f.f.>.J.E.Q.Q.Q.Q.Q.Q.Q.Q.Q.E.E.R.E.",
"E.E.E.E.> > ; D.; E.Q.Q.Q.!.Z X.1.i.f.e.e.R q 1.i.g.%X>X$Xf.f.{ { 5.0 i.e.7.7.7.7.7.w.8 . 8 ^ ( @.@.@.~ 6.e.w.w.w.w.w.w.w.w.w.e.4.C.Q.Q.Q.Q.Q.Q.Q.Q.Q.E.E.E.E.R.",
"E.E.E.E.D.F.E.T.I.E.Q.Q.E.E.| o.4.f.i.i.{ 9 { i.k.-X>XOXf.f.a.Y 3.7.0 6.e.7.7.w.7.7.7.7.% X K ~ ( @.4.^ ( w.7.7.7.7.7.7.7.7.7.7.7.%.W.Q.Q.Q.Q.Q.Q.Q.Q.E.E.E.E.E.",
"E.E.E.E.Q.E.E.E.E.Q.Q.E.!.C.( X.q.d.e.q.q E e.b.:X>X].f.f.i.w.R e.7.L +.e.7.7.7.7.7.7.w.O.X 5 ^ ~ o.1.o.P 7.w.7.7.7.7.7.7.7.7.7.7.@.A.Q.Q.Q.Q.Q.Q.Q.Q.E.E.E.E.E.",
"E.E.E.E.E.E.E.E.E.E.Q.~.W.d o.X.u.i.e.E q q._.;XOXh.f.f.e.i.1._ i.7.~ Y e.7.7.7.w.7.7.7.w.L   L ^ ~ @.O.P @.w.w.7.w.7.w.w.w.w.7.7.7.D !.Q.Q.Q.W.E.G.T.Q.E.E.E.E.",
"E.E.E.E.E.Q.Q.Q.E.~.W.~.K./ O.o.e.i.q.9 { i.B.m.f.f.f.i.e.i./ ;.e.7.o.0 7.7.7.7.7.7.7.7.w.O.# % ^ ~ ( @.~ P @.O.O.@.O.@.O.O.@.O.@.#. .W.Q.Q./.J.; > Y.; R.E.E.E.",
"E.E.E.E.Q.E.Q.Q.E.U., T.A X.o.+.w.e.) w w.i.f.f.f.f.i.e.e.i.L u.w.5.@.J 4.w.7.7.7.7.7.7.7.4.L . L ^ ~ O.( P ( ] ( o.o.( o.o.] o.X.o./ L.Q.E.E.R.; E.E.; E.R.E.E.",
"E.E.E.E.E.Q.Q./.> > U.> u O.( 1.w.1.q { i.f.f.f.f.i.e.e.e.r...d.7.7.#.T ( w.7.7.7.w.7.w.7.@.o.# % / ~ ( ( P ~ O.o.o.o.o.o.o.o.o.o.o.X.M !.E.E.Q.E.E.Q.~.E.Q.E.E.",
"E.E.E.E.Q.E.E.Q.R.U.~.J.W O.] 4.w.J q q.a.f.f.f.a.e.e.e.e.v.'.d.7.7.@.o.L w.7.7.7.7.7.7.5.@.1.8 X P ^ ~ ^ ~ P O.o.o.o.o.o.o.o.o.o.o.o.| Q.Q.Q.Q.E.E.E.E.E.E.E.E.",
"E.E.E.E.E.Q.Q.Q.Q.Q.!.L.( o.] 7.4.X L i.f.f.f.d.e.i.e.e.e.@X*Xi.7.w.O.@.8 7.w.7.7.7.7.w.6.O.#.~ X 5 ~ ~ / ~ P ( o.o.o.o.o.X.o.o.o.o.o./ K.Q.Q.Q.E.~.E.E.E.E.E.E.",
"E.E.E.E.Q.Q.E.E.Q.E.!.M X.( ] w.~   ( a.f.f.f.e.e.e.e.e.`.>X>X#Xc.7.O.4.I @.w.7.w.7.7.7.4.O.@.O.% o P ^ ~ / P ~ O.] o.o.o.o.o.o.o.o.o.( F !.Q.Q.Q.Q.Q.Q.E.E.E.E.",
"E.E.E.E.Q.Q.Q.Q.Q.E.W.a X.^ o.7.2 $ 7.d.f.f.a.e.e.e.n.&X>X>X>X>X>X|.$.@.( ^ w.7.7.7.7.7.1.@.@.@.J X 8 ~ ~ ^ P U O.o.o.o.o.X.o.o.o.o.o.X.M W.Q.Q.Q.Q.Q.Q.Q.Q.Q.E.",
"E.E.E.E.Q.Q.Q.Q.Q.~.E.I ( P O.O.X J i.f.f.f.e.e.e.e.e.b.oX>X>X&Xc.7.@.@.@.P w.7.7.7.7.5.O.@.@.4.~ o % P ^ ~ P P o.] o.o.o.o.o.o.o.o.o.o.| E.Q.Q.Q.Q.Q.Q.Q.Q.E.Q.",
"Q.Q.Q.E.Q.E.Q.E.Q.!.C.U ~ L 4.T   ^ d.f.f.i.e.a.i.i.e.e.T XX>Xt.7.7.@.( 5.8 4.w.w.w.w.4.4.@.@.@.( % # L ^ ~ P L o.o.o.o.o.o.o.] o.o.o.o.Q K.Q.Q.Q.Q.Q.Q.E.Q.Q.Q.",
"E.E.E.E.E.E.E.E.E.!.Z U ~ K #.8 X 6.f.f.p.O.o./ / P T P R N.#Xw.7.w.O.o.5.^ 8 J L T ~ ~ ^ o.O.1.@.8 X 8 ~ ~ P J ( o.o.o.o.o.o.o.o.o.X.O.^ S.Q.E.Q.Q.Q.Q.E.E.E.E.",
"Q.Q.E.Q.Q.Q.E.E.Q.!.M ^ P P o.% % ~ ) Y L T ' { 8.y.s.f.f.h.n.7.7.w.O.] #.w.1.o.^ P P L 0 8 J 8 J 8 o 5 P ~ P L ^ o.] o.o.X.o.o.o.o.o.o.X.F !.E.E.Q.Q.Q.Q.Q.Q.Q.",
"Q.E.!./.H.U.(.E.Q.W.b ^ L P ~ X J P ' f.f.f.f.f.f.f.a.e.e.w.7.7.7.7.O.] o.7.w.7.6.5.@.O.O.O.^ 0 2 P o % P P P J ~ O.o.o.o.o.o.o.o.o.o.o.X.D W.G.Q.Q.Q.Q.E.Q.Q.Q.",
"E.E.H.D.> > D.E.Q.E.! ^ H P L . U d.s s.f.e.e.w.7.7.7.7.7.7.7.7.w.7.o.o.o.O.O.O.O.O.O.] O./ P 5 ^ o.# $ 8 P P L T O.X.o.o.] o.o.o.o.o.X.O.N > > G.G.Q.E.E.E.E.E.",
"Q.Q.U.- R.E.= E.~.J.I ^ 8 P H . ] f.y.w d.7.7.w.7.7.w.7.7.7.7.7.7.7.o.o.o.o.o.( X.o.o.o.^ P 8 L #.O.2 # 8 L P L K O.] o.o.X.o.o.o.o.o.o.O.u G.E.G.> Q.E.Q.Q.Q.Q.",
"Q.Q.Q.W.Q.E.E.E.!.K.P ^ 8 P 8 X 1.f.f.~ [ d.#.5.w.7.7.7.7.w.7.7.7.5.X.o.o.o.o.o.o.o.o.( P J 5 @.@.O.7 o 5 J P P P o.o.o.o.o.o.o.o.o.o.] O.! Q./.E.E.Q.Q.Q.Q.Q.Q.",
"Q.Q.Q.Q.E.Q.E.E.!.S.~ ~ 5 K 5 @ 6.f.a.w.0 y.e.X.4.7.w.7.7.7.7.7.w.4.] o.o.o.o.o.] o.X.K P 2 ] #.@.@.8 o 5 J P P L o.o.o.o.] o.o.] o.o.o.o.W E.Q.Q.Q.Q.Q.Q.Q.Q.E.",
"E.E.E.E.E.Q.Q.E.!.L.P ~ 8 P * @ 3.f.i.7.5.q d.4.( o.4.5.7.w.7.w.7.O.o.o.o.o.o.o.o.o.P L 5 P 4.@.@.@.J o 5 8 P P L o.o.O.o.O.o.o.O.o.o.O.O./ K.Q.E.Q.Q.Q.Q.E.E.E.",
"E.E.E.E.E.Q.Q.E.!.L.U ~ 8 L % $ 3.s.e.7.w.( ) a.O.X.] o.O.@.4.4.O.( o.o.o.o.o.o.o.P 8 8 8 1.@.@.@.1.K X 2 8 P P L P ~ P P P ~ P P P ~ P U I K.Q.Q.Q.Q.Q.E.E.R.E.",
"E.E.E.E.Q.E.E.Q.!.F U ~ 5 H $ $ 3.y.5.7.7.w.L 8.e.X.o.o.o.( ] X.o.o.o.o.o.o.o.o.~ 5 8 5 O.@.@.@.@.@.L X 5 5 P P H 8 8 8 J 8 8 J J 8 8 0 H r L.!.E.Q.Q.E.E.E.E.E.",
"E.E.E.E.E.Q.Q.Q.Q.A ~ ~ 6 H % $ 3.9.O.6.w.w.7.0 a.4.( o.o.o.o.o.o.o.o.o.o.o.o.~ 5 8 5 ~ 4.O.@.@.@.O.J o % 5 P P 0 8 J J J J J J J 0 J J J 8 S.Q.E.Q.Q.E.E.E.E.E.",
"E.E.E.E.E.Q.Q.Q.!.A ~ U 5 H $ $ <.0.@.@.4.7.w.o.Y a.o.o.o.o.o.o.o.o.o.o.o.o.~ 8 % 8 J 4.@.@.@.@.@.o.L X 5 5 L K J J J 0 J J J J J J H J L 8 S.!.Q.Q.Q.E.E.E.E.E.",
"E.E.E.E.E.E.E.E.!.x ~ ~ 5 8 $ % { 0.@.@.O.@.5.w.P -.w.X.o.o.o.o.o.o.o.o.o.( 0 $ 8 7 @.@.@.@.@.1.O.( J o * 5 L P 8 0 J J 0 J 0 J H J 0 0 J 8 S.Q.E.Q.E.E.E.E.E.E.",
"E.E.E.E.E.R.E.E.!.x U ~ 5 6 $ $ { 3.@.@.@.@.O.@.#.8 9.#.] o.o.o.o.o.o.] O.^ % 5 5 ^ 1.@.@.@.@.O.( ( J o 5 5 J U 0 H J J J J J J J J J J J 8 S.!.E.Q.E.E.E.E.E.E.",
"E.E.E.E.E.E.E.E.!.F U ~ 8 8 $ $ / <.@.@.@.@.1.@.1.( w e.X.o.o.o.o.o.o.o.o.( 5 % P 4.O.@.@.@.O.o.( ( H o 5 5 J P J 8 J J J J 8 J J 0 J J L 8 K.Q.E.Q.E.E.E.E.E.E.",
"E.E.E.E.E.E.E.E.!.L.U ~ 5 8 % $ / O.@.@.@.@.@.@.@.O.Y e.O.o.o.o.o.o.o.o.o.X.8 # ~ 4.@.@.@.@.o.( ( ( 8 X 5 5 L P 8 J J J 8 J J J J J 0 J J 8 S.!.Q.Q.E.E.E.E.E.E.",
"E.E.E.E.E.E.E.E.!.C.P ~ 7 7 % # ~ ] @.@.@.@.@.@.4.~ ) e.4.] o.o.o.o.o.o.o.( J % L 4.@.@.@.o.( ( ] ^ 7 o 5 5 L T 8 8 J J J J J J J H 0 0 J e K.~.Q.Q.Q.E.E.E.E.E.",
"E.E.E.Q.E.E.Q.E.Q.S.L ~ 8 7 2 # T ( O.@.@.@.@.O.4.P ;.e.7.o.o.o.o.o.o.o.o.o.K 5 8 @.@.@.o.( ( ( ( ~ 5 # 5 5 J K 0 J J J J J J 0 J 0 J J J e E.E.R.Q.; I.E.E.E.E.",
"E.E.E.E.Q.Q.Q.Q.!.K.0 U 8 5 5 o L ~ o.@.@.@.@.@.@.L u.w.7.O.o.o.o.o.X.o.o.] P 5 2 o.1.o.( ( ( ( ( T 5 # 5 5 L P 8 J J 8 J J J H J J J J H i W.(.D.; G.D.= E.E.E.",
"Q.Q.Q.Q.Q.Q.Q.Q.Q.E.r P 8 7 5 o J ^ ^ @.@.@.@.1.O.Y a.7.w.O.o.o.( P P ~ o.o.P 5 % ~ O.( ( ( ( o.^ P % # 5 5 K P 8 J J J 0 J 0 J J J H J H y Q.^.I.F.(.R.G.Q.Q.Q.",
"Q.E.Q.E.E.E.Q.Q.Q.Q.p U 8 5 7 # 8 ^ ~ O.1.O.@.1.( ) d.7.7.O.o.o.~ J L L P ( ~ 8 2 0 o.( ( ( ( ] / P # % 5 5 P P 8 J H 0 J 0 J J J J J J H k !.Q.Q.Q.Q./.Q.Q.Q.E.",
"Q.E.E.Q.E.Q.Q.Q.Q.W.k U J * 5 # % ^ ~ ^ 1.@.@.4.K ;.i.7.5.o.o.( K P K K L P K 8 5 8 ( ( ( X.( ( T J X % 5 5 P P 8 J J J J J 0 J J J J 0 H z !.E.Q.Q.Q.Q.E.Q.Q.Q.",
"Q.Q.Q.Q.Q.Q.Q.W.W.: z U L 5 5 % $ ~ / ~ O.@.@.4.J y.e.7.@.] o.~ 8 % J P K L P J 7 5 ^ X.( ( X.~ P 8 X 5 5 8 P J 8 L H 0 J J J J J 8 J J 8 x !.E.Q.Q.Q.Q.Q.Q.Q.Q.",
"Q.Q.E.Q.Q.E./.G.- Y.x K P 5 5 % # P ^ ~ ^ @.@.O.L f.7.7.O.o.( J $ # % J P K K L 8 7 P o.( ] ] P P 5 # 5 5 8 P 0 8 J J J J J 8 J J J J J 8 S.!.Q.Q.Q.Q.Q.Q.E.Q.E.",
"E.E.E.E.Q.R.Q.J.T.(.Z.L P 8 5 5 X 8 ~ ~ ~ o.4.X.) f.7.5.o.o.K 5 5 0 % % 8 K P P 6 7 J o.( X.~ P P % $ 5 5 J P 0 8 J J J J 8 J J J J 0 J e K.Q.Q.Q.Q.Q.Q.Q.E.E.E.",
"Q.Q.Q.Q.Q.Q.Q.Q.Q.Q.E.r K 8 5 5 # % P P ~ ~ @.P -.f.7.O.o.^ 8 5 o.@.8 % % 8 K P 8 5 8 ( ( ( P P J X % 5 * L P 8 J J 0 J J J J J 0 J J H y !.Q.Q.Q.Q.Q.Q.Q.Q.Q.Q.",
"Q.Q.Q.Q.Q.E.Q.Q.Q.Q.!.y K J 5 5 % # L P P P ( 0 y.a.5.o.o.0 5 o.O.( o.J % % 6 P 8 8 5 ^ ( P P T 7 X 2 5 5 P P 8 J J J J J J J 8 J J J H m !.E.Q.Q.Q.Q.Q.Q.Q.E.E.",
"E.E.E.E.E.Q.Q.Q.Q.E.!.S K L 5 5 % X 8 P P P P 7 f.i.#.O.J 5 ( ] ^ ( ( o.L 5 % 5 J 8 8 T ~ P P P % # 5 5 8 P J % 5 5 5 5 5 5 5 5 5 5 5 * C.!.E.Q.Q.Q.Q.Q.E.E.E.E.",
"E.E.E.E.E.Q.E.Q.E.E.!.Z.K P 8 5 5 # % P K T H R f.e.O.J 7 o.X.( ( ( ( ( o.P 2 5 % 8 8 8 K P P J X % 5 5 0 T 7 2 5 5 2 5 2 5 2 2 2 2 5 3 K.Q.Q.Q.Q.Q.E.E.R.E.E.E.",
"E.E.E.E.E.Q.E.Q.Q.Q.Q.K.r P 8 * 5 % X J P T 6 *.f.6.8 0 o.( ( ( ( ] ( X.( o.~ 5 5 % J 5 P P P % o 5 5 5 L T 5 2 5 2 2 5 5 2 5 5 5 2 5 t !.E.Q.Q.Q.Q.E.E.E.E.E.E.",
"E.E.E.E.Q.Q.E.~.Q.Q.E.!.k K J 5 5 5 o % P P 5 y.f.8 5 ^ ^ ] ( ] ( ( ( ( ( ( o.~ * 7 P % L P L # $ 5 5 6 P L 2 2 2 5 2 5 2 5 2 5 2 5 % Z !.E.Q.Q.Q.Q.E.E.E.E.E.E.",
"E.E.E.E.Q.E.E.E.Q.Q.^.Q.F P P 5 5 5 $ # L K 9 a.J 6 P P P ~ ~ ^ ( X.] ( ( ^ T P L 5 8 8 0 ~ 5 X 5 5 5 8 P 8 2 5 5 2 5 2 5 2 5 2 5 2 2 K.~.Q.Q.Q.Q.Q.E.R.E.E.E.E.",
"E.E.E.E.E.Q.E.E.Q.Q.Q.Q.K.r P 8 * 5 5 X 5 K 9 0 8 P P P L P L P P P P P P P L P P L 5 % 8 L @ $ 5 5 5 K P 5 2 5 2 5 5 5 2 5 2 5 5 * t !.Q.Q.Q.Q.Q.Q.Q.E.E.E.E.E.",
"E.E.E.E.E.E.E.E.Q.Q.Q.Q.!.b K L 5 5 5 $ # 5 $ J P P P P P P P P P P P K P P P P P P P % 5 2 X % 5 5 8 P w 2 2 2 5 5 2 2 5 2 5 2 5 * c !.Q.Q.Q.Q.Q.Q.!.E.E.E.R.E.",
"E.E.E.E.E.E.E.R.E.Q.E.Q.!.C.L K 8 5 5 5 o o L P L P P P P P P P P P P L P L L P P P P P 5 X % 5 5 5 8 P 7 2 5 5 5 2 2 5 5 5 2 5 * 4 E.Q.Q.E.Q.Q.Q.Q.Q.E.E.E.E.E.",
"E.E.E.R.E.W.U.- R.E.Q.Q.E.!.p U 8 5 5 5 % X % P P P L P P L P P P P P P P P P P P P P J # # 5 5 5 5 P P 2 5 2 5 2 5 5 5 2 2 5 5 * n !.K.Q.Q.Q.Q.Q.Q.Q.E.E.E.E.E.",
"E.E.E.E.Q.- D.G.; ; /.E.Q.!.c J P 5 5 5 5 % X 5 ~ P P P P L P P P P K P P P P P L P L $ X % 5 5 5 8 P 8 2 5 2 5 2 5 2 5 2 5 5 5 3 S.Q.Q.Q.Q.Q.Q.E.E.Q.Q.E.E.E.E.",
"E.R.Q.Q.Q.H.E./.T.R.Q.E.Q.Q.Q.i U 8 5 5 5 5 # X 8 P P P P P P P P L P L P P P P P P % X % 5 5 5 5 K P 5 5 2 2 5 5 2 5 2 5 2 5 % j !.Q.Q.Q.Q.Q.Q.E.E.~.E.E.E.Q.Q.",
"E.E.E.E.Q.Q.Q.E.Q.Q.Q.Q.Q.Q.!.A K P 5 5 5 5 % # X 5 P K L P L P P P P P L P P P L % . $ 5 5 5 5 8 P 8 % 5 2 5 2 2 5 2 5 2 5 5 2 S.!.Q.Q.Q.Q.Q.Q.E.E.; U.E.Q.Q.Q.",
"E.E.E.Q.Q.E.E.E.Q.E.Q.Q.Q.Q.Q.Q.p U J 5 5 5 5 * # X % L P P P P P P L P P P P 8 # X $ 5 5 5 5 5 L K 5 5 2 5 2 5 5 2 5 2 5 2 5 j !.Q.Q.Q.Q.Q.Q.Q.G.> > D.- Q.Q.Q.",
"Q.Q.Q.Q.Q.Q.Q.Q.Q.Q.Q.Q.Q.Q.Q.~.C.J P 8 5 5 5 5 % # X # 5 L P K K P T P P 8 % X X $ 5 6 * 5 5 8 T 7 2 5 5 2 5 2 5 5 2 5 2 5 2 K.Q.E.Q.Q.Q.Q.Q.Q.U.I.Q.E.; Q.Q.Q.",
"E.Q.Q.Q.Q.Q.Q.Q.Q.Q.Q.Q.Q.Q.Q.E.!.j K P 5 5 5 5 5 5 $ # X # % 5 8 8 8 5 $ # X # % 5 5 5 5 5 7 P 0 2 5 2 2 5 5 5 2 5 5 2 2 * n !.E.Q.Q.Q.Q.Q.Q.Q.E.E.E.Q.Q.E.E.Q.",
"Q.Q.Q.Q.Q.Q.Q.Q.Q.Q.Q.Q.Q.Q.Q.Q.Q.E.p U J 5 5 5 5 5 5 % $ o o X X X X . X # % * 5 5 5 5 5 5 K P 2 5 2 5 2 5 2 5 5 2 5 % 5 3 E.Q.Q.Q.E.~.Q.Q.Q.Q.Q.Q.Q.Q.Q.Q.Q.Q.",
"E.Q.Q.Q.Q.Q.Q.Q.Q.Q.Q.Q.Q.Q.Q.Q.Q.!.Z.8 P J 5 5 5 5 5 5 5 2 % $ # $ $ % % 5 5 5 5 5 5 5 5 J P 5 2 5 5 2 5 2 5 2 2 5 5 5 % L.Q.E.E.E.R.E./.Q.Q.Q.Q.Q.Q.Q.Q.Q.E.Q.",
"E.E.E.E.E.E.Q.Q.Q.Q.Q.Q.Q.Q.Q.Q.E.E.!.c L P 0 5 5 5 5 5 5 5 6 5 5 5 5 6 5 5 5 5 5 5 5 5 J T 7 2 2 5 2 5 5 2 5 2 5 2 5 5 j E.E.E.R.R., U.R.Q.Q.Q.Q.Q.Q.Q.E.E.E.E.",
"Q.Q.Q.Q.Q.Q.Q.Q.Q.Q.Q.Q.Q.F.R./.Q.Q.Q.!.n K P J 5 5 5 5 5 5 5 5 5 5 5 5 5 5 5 5 5 5 5 L P 8 2 5 5 2 5 2 2 5 2 5 2 5 5 3 K.Q.E.Q.> > U.G.- Q.Q.Q.Q.Q.Q.Q.Q.Q.Q.Q.",
"E.E.E.E.Q.Q.Q.Q.Q.Q.Q.H.G.; D.D.W.E.E.E.!.n J K K 7 5 5 5 5 5 5 5 5 5 5 5 5 5 5 5 6 L P 8 2 5 2 5 2 2 5 5 2 2 5 5 5 % C.!.E.E.E.U.R.E.E.R.Q.E.Q.Q.Q.Q.Q.Q.Q.E.Q.",
"E.E.E.E.Q.Q.Q.Q.E.Q./.H.- R.R.- Q.E.Q.Q.Q.!.Z H U P 0 5 5 5 5 5 5 5 5 5 5 5 5 6 J K P 7 2 5 5 5 5 5 5 5 2 5 5 2 5 * l !.E.E.E.E.E.E.E.E.E.E.Q.Q.Q.Q.Q.Q.Q.Q.E.E.",
"E.E.E.E.E.E.Q.E.Q.Q.Q.Q.Q.Q.R.E.E.E.R.E.E.E.!.C.r K P P L 8 8 5 5 5 5 5 8 8 L P T L % # # # $ $ 2 $ % 2 2 2 5 5 * j W.Q.E.E.E.E.E.E.Q.Q.Q.E.Q.Q.Q.Q.Q.Q.Q.E.E.E.",
"E.E.E.E.Q.Q.E.Q.Q.Q.Q.Q.Q.E.E.E.E.E.E.E.E.E.E.!.K.m J K U K P P L L L K P P U K 8 # X # o o o o o o o o # o @ # h E.E.E.E.E.E.E.E.~.E.Q.Q.Q.Q.Q.Q.Q.Q.Q.Q.E.E.E.",
"E.E.E.E.E.Q.E.E.Q.Q.Q.Q.Q.Q.E.E.E.E.E.E.R.E.E.E.Q.!.K.k r L K K K U P K K J 5 # X X # X # # o o o o # o o < g Z.!.E.K.E.E.E.E.E.E.Q.E.Q.Q.Q.Q.Q.Q.Q.Q.Q.E.R.E.E.",
"E.E.R.E.E.Q.E.Q.E.Q.Q.Q.Q.Q.E.E.E.E.E.E.E.E.E.Q.Q.Q.!.!.K.C.u e p p i i 4 O + & & & & & O & O < 1 g h c S.Q.!.!.E.E.E.E.E.R.E.E.E.E.Q.Q.E.Q.Q.Q.Q.Q.Q.E.E.E.E.E."
};
