/* XPM */
static char *New_Project__8__resized[] = {
/* columns rows colors chars-per-pixel */
"80 80 219 2 ",
"   c #966800",
".  c #9C6E00",
"X  c #9E7100",
"o  c #9F7D0C",
"O  c #A06E00",
"+  c #A27400",
"@  c #A57901",
"#  c #AB7C00",
"$  c #B17D00",
"%  c #6EB959",
"&  c #73B956",
"*  c #7CBB56",
"=  c #73BA58",
"-  c #7CBD59",
";  c #7AB654",
":  c #9F8818",
">  c #AE8101",
",  c #A9850A",
"<  c #A8890F",
"1  c #B28300",
"2  c #B78900",
"3  c #BB8C00",
"4  c #B58F08",
"5  c #B69600",
"6  c #BE9101",
"7  c #BA9A00",
"8  c #B6950E",
"9  c #B9960B",
"0  c #B89A09",
"q  c #A78C13",
"w  c #AD9B1C",
"e  c #A3941E",
"r  c #B39915",
"t  c #B49914",
"y  c #BFA200",
"u  c #AFA019",
"i  c #BAA51A",
"p  c #9E9627",
"a  c #AB9E21",
"s  c #9FA82F",
"d  c #9FAC3C",
"f  c #9BA636",
"g  c #9FB13F",
"h  c #ACA225",
"j  c #ABA528",
"k  c #ADA92B",
"l  c #A0A22F",
"z  c #B1A624",
"x  c #B2AD2A",
"c  c #A3A630",
"v  c #A6AB34",
"b  c #ABAE32",
"n  c #A1AD3A",
"m  c #A5B33B",
"M  c #ABB535",
"N  c #B6B92C",
"B  c #C38E00",
"V  c #C29300",
"C  c #CA9600",
"Z  c #C69900",
"A  c #CB9C00",
"S  c #D29D00",
"D  c #C3A300",
"F  c #CEA100",
"G  c #C5AA00",
"H  c #CBAC00",
"J  c #C5A40D",
"K  c #CCA809",
"L  c #D4A400",
"P  c #D9A300",
"I  c #D6A901",
"U  c #DCAC00",
"Y  c #CBB400",
"T  c #CDB806",
"R  c #D5B301",
"E  c #DEB100",
"W  c #DABB02",
"Q  c #D7B808",
"!  c #C5A610",
"~  c #C4AD19",
"^  c #C8B91A",
"/  c #D6B319",
"(  c #E1AD00",
")  c #E3B200",
"_  c #EAB600",
"`  c #E4BA02",
"'  c #ECBC00",
"]  c #E2B40B",
"[  c #F0BE00",
"{  c #F0BD0F",
"}  c #E4B818",
"|  c #C7B12B",
" . c #E5BC26",
".. c #D5C400",
"X. c #DEC101",
"o. c #DBCE00",
"O. c #DDD000",
"+. c #D9C510",
"@. c #CDC914",
"#. c #E3C500",
"$. c #EBC400",
"%. c #E4CA02",
"&. c #ECCA01",
"*. c #E3C50A",
"=. c #F3C300",
"-. c #FBC600",
";. c #F2CD00",
":. c #FECD00",
">. c #E2D401",
",. c #ECD200",
"<. c #ECDD00",
"1. c #E3D801",
"2. c #F5D301",
"3. c #FFD300",
"4. c #F3DD01",
"5. c #FEDC01",
"6. c #FFDF0A",
"7. c #FFD20B",
"8. c #F0C211",
"9. c #FFDA14",
"0. c #EBE401",
"q. c #EFEA08",
"w. c #FFE300",
"e. c #F5EE00",
"r. c #FEEB00",
"t. c #F7E106",
"y. c #F4F300",
"u. c #FFF300",
"i. c #FFFE00",
"p. c #FFFD0A",
"a. c #FFE413",
"s. c #FFE816",
"d. c #FFE219",
"f. c #FEEC1E",
"g. c #FFFE14",
"h. c #FEFD19",
"j. c #FCF318",
"k. c #C3C239",
"l. c #FFD626",
"z. c #E8C132",
"x. c #F7D034",
"c. c #FFEA21",
"v. c #FFE428",
"b. c #FFFD26",
"n. c #FEF728",
"m. c #FFE638",
"M. c #FFFC35",
"N. c #9CB444",
"B. c #9AB549",
"V. c #9BBA4D",
"C. c #99B848",
"Z. c #83BE56",
"A. c #84BF59",
"S. c #8BBF57",
"D. c #96BC54",
"F. c #99BD52",
"G. c #95BF59",
"H. c #A0B241",
"J. c #A0BB48",
"K. c #DBB946",
"L. c #D2B562",
"P. c #8CC157",
"I. c #8BC158",
"U. c #86C159",
"Y. c #94C356",
"T. c #9AC457",
"R. c #96C55C",
"E. c #9BC558",
"W. c #97C85D",
"Q. c #9AC95C",
"!. c #9EC857",
"~. c #A0C657",
"^. c #E7C446",
"/. c #EED14E",
"(. c #FFDD45",
"). c #ECCC57",
"_. c #FFDD51",
"`. c #FFFF47",
"'. c #FFE651",
"]. c #FFFF5A",
"[. c #FEF15D",
"{. c #D5C37B",
"}. c #E6CA67",
"|. c #F0D677",
" X c #FEE868",
".X c #FFFF6D",
"XX c #FFF860",
"oX c #FFEA74",
"OX c #FEEE7C",
"+X c #FEFF7D",
"@X c #DBC280",
"#X c #F3DE92",
"$X c #FFEC8B",
"%X c #FAE48B",
"&X c #FFFE85",
"*X c #FFFF8B",
"=X c #FEF08E",
"-X c #FFEC9D",
";X c #FFEA93",
":X c #FFFE91",
">X c #FDFF99",
",X c #F7E7A7",
"<X c #FFFFAB",
"1X c #FEF9A7",
"2X c #FFFDBC",
"3X c #FEF2B7",
"4X c #D5CEA7",
"5X c #E6D8C1",
"6X c #F8EEC5",
"7X c #FFFFC4",
"8X c #FFFDCA",
"9X c #FAF4CD",
"0X c #FFFFD4",
"qX c #FFFFD9",
"wX c #FCF4D7",
"eX c #FFFDEC",
"rX c #FFFBE0",
"tX c #FFFEF3",
"yX c #FFFFFE",
/* pixels */
"T.T.T.T.T.E.T.T.E.E.E.E.E.E.E.T.T.T.T.T.T.T.T.T.E.E.W.G.V.N ^ +.*.&.&.&.#.I Z A A F L I I L L K ! i b N.G.Q.!.T.T.T.T.T.T.T.T.T.T.T.T.E.E.T.E.E.E.E.T.T.T.T.T.T.",
"T.T.T.T.T.E.T.E.E.E.E.E.E.E.E.T.T.T.T.T.T.Y.E.R.Y.V.N +.2.5.5.w.w.w.5.w.5.3.3.:.=._ I I ( ` ) ) ) ( ( I ! z B.R.E.T.T.T.T.T.T.T.T.E.T.E.E.E.E.E.E.E.T.E.P.* !.T.",
"T.T.T.T.T.E.T.T.T.E.~.E.E.E.T.T.T.T.T.T.T.E.R.C.^ ;.5.w.5.5.5.5.5.5.5.5.w.3.:.:.3.3.:.[ U L ) ' ` _ _ _ ' _ U ~ N.R.E.T.T.T.T.T.T.E.T.E.E.E.E.E.E.E.T.& U.* * P.",
"T.T.T.T.T.E.E.E.E.E.P.E.E.T.E.T.T.T.T.T.R.C.^ 2.w.w.5.5.5.5.5.5.5.5.5.5.5.5.:.:.:.:.:.3.3.=.) =.3.:.:.3.:.:.3.:.=.~ B.R.T.T.T.Y.T.E.T.E.E.T.E.E.E.E.T.* T.T.* P.",
"Y.E.E.T.E.E.T.E.I.I.% I.S.T.E.T.T.T.E.T.M %.5.5.5.5.w.r.u.XX:Xp.i.i.i.u.u.r.5.:.:.:.:.:.:.3.:.' ) :.3.:.:.:.:.:.3.:.' b G.Q.T.E.E.E.E.E.E.E.E.E.E.E.E.E.T.T.T.T.",
"E.E.T.E.E.E.T.~.* * Y.I.= T.E.T.T.E.T.N 5.w.5.5.5.u.h.+XtXyX].i.i.i.i.i.i.i.i.i.r.5.:.:.:.:.:.3.=.I =.3.:.:.:.:.:.:.3.-.~ D.Q.T.E.E.E.E.E.E.E.E.E.E.E.E.T.E.T.T.",
"T.E.E.T.E.E.E.E.Y.Y.~.Y.Y.E.E.E.Q.F.^ 5.5.5.5.r.h.&XyXyX8Xj.r.r.w.5.w.w.w.5.5.5.w.r.r.5.:.:.3.:.:.' I =.3.:.:.:.:.:.:.:.:.Q B.Q.E.E.E.E.E.E.E.E.E.E.E.E.E.E.E.E.",
"E.E.E.E.E.E.E.E.E.E.T.E.E.E.E.E.V.Q 5.w.5.5.u..XtXyXeXoX5.w.a.5.2.5.2.2.5.5.w.3.:.:.3.w.w.:.:.:.:.[ ' I ' 3.3.3.:.3.3.3.:.3.) B.Q.E.E.E.E.E.E.E.E.E.E.E.E.E.E.E.",
"E.E.E.T.E.E.E.E.E.E.E.E.E.E.E.F.T 5.5.5.w.n.qXyXyX=Xa.w.5.&.Q H G D Z G G H W W =.3.3.:.3.3.3.:.:.$._ =.I <.i.i.i.i.i.i.i.i.i.>.C.Q.E.!.E.E.E.E.T.E.E.E.E.E.E.E.",
"E.E.E.E.E.E.E.E.E.E.E.E.E.!.F.T 2.5.5.w.g.eXeXOXa.5.;.Q D 7 t 0 5 7 7 7 7 5 5 > + V ) :.3.3.:.:.3.=.' ' [ U q.i.i.i.i.i.i.i.i.i.O.N.Q.E.E.E.E.E.E.E.E.E.E.E.E.E.",
"E.E.E.E.E.E.E.E.E.E.E.E.T.T.^ =.5.5.w.i.i.v.5.w.2.R 7 5 7 D / *.$.&.H ;.$.` R 6     X 3 _ 3.:.:.:.-.' ' ' ' / 9XtXeXeXeXeXeXeXeXtX4XF.!.E.E.E.E.E.E.E.E.E.E.E.T.",
"T.T.T.T.T.T.E.E.E.E.E.E.R.N $.2.5.w.i.u.5.5.w.` 7 5 7 I &.2.v.a.r.4.# w.u.u.r.5.) V X   X C :.3.3.-.' ' ' ' _ K.>X*X:X:X:X:X:X:X:X*Xk.D.E.E.E.E.E.E.E.T.T.T.T.T.",
"E.E.E.E.E.E.T.E.E.E.T.Q.m $.&.2.5.i.i.5.5.5.H 7 7 R &.5.r.u.M.h.i...1 O.i.i.i.i.r.5.' V .   2 ' :.-.$.' ' ' ' ) %.i.i.i.i.i.i.i.i.i.i.M Q.E.E.E.E.E.E.E.E.E.E.E.",
"T.T.T.T.E.E.E.E.E.E.E.F.W &.;.5.i.i.5.5.2.G 5 7 #.5.w.u.M.1X7Xg.i.G _ D i.w.w.5.:.:.3.3.) #   + L _ ) ' ' ' ' =.E 0.i.i.i.i.i.i.i.i.i.0.B.Q.E.E.E.E.E.E.E.E.T.T.",
"E.T.T.T.T.T.* Y.E.T.R.z $.&.2.u.i.5.5.2.D 5 H 2.5.r.b.<XyXqX&Xb.0.Y 5.B ;.5.5.3.:.:.:.:.3.=.3   + L I I _ $.' ' _ R i.i.i.i.i.i.i.i.i.i.@.G.E.E.E.E.T.E.T.T.Y.T.",
"T.T.T.E.- Z.* Z.* !.m P $.&.r.i.w.5.5.G 5 I 5.w.r.+XyXyX2Xi.+XM.R X.5.C R w.5.3.:.:.:.:.:.3.:.V   + A P I _ ' _ =.I E 5.3.3.5.3.3.5.3.3.:.b W.T.E.E.E.T.T.T.T.T.",
"T.T.T.E.A.S.~.S.Z.T.! ) ` 2.i.r.5.5.H 5 H 5.5.n.0XyXtX.Xi.i.1X(.Z 4.3.( V w.5.3.:.:.:.:.:.:.:.3.V   @ L P L ` ' ' ` A =.:.:.:.:.:.:.:.:.3.E D.Q.E.E.E.E.T.T.T.T.",
"T.T.T.Y.T.T.T.T.Q.v U ) ) r.u.3.w.R 5 H 5.5.[.yXyX:Xg.i.i.w.2X/.Y r.:.' 6 2.5.:.:.:.3.:.:.:.:.3.3.3   # I L P _ ' ' L I 3.:.:.:.:.:.:.:.:.:.x R.E.E.E.E.T.T.T.T.",
"T.T.T.T.T.T.T.E.T.J ) ( ` u.5.w.$.5 D 2.a.3XeX*Xh.i.i.u.5.5.qXL.O.w.:.=.V R 5.:.:.:.:.:.:.:.:.:.3.-.# . 3 I P I ' ' U C -.3.:.3.3.:.3.3.:.3.` D.!.Z.P.E.T.T.T.T.",
"T.T.T.T.T.E.T.Q.m ( ) U 2.w.5.5.D 7 &.5.c.`.i.i.i.i.u.5.5.5.tX{.y.7.:.=.L Z 3.:.:.3.:.3.:.:.:.:.:.:.I + + A L L U ' ) L L ' _ _ ' _ _ _ _ ' ' c - * Z.* S.T.T.T.",
"T.T.T.T.E.T.E.T.! ) ) ) 2.:.w.R 5 R w.w.i.i.i.i.i.r.5.5.5.d.yX1Xu.:.3.=._ B =.3.:.:.:.:.:.:.:.:.:.=.=.V   1 L L L _ ) L Z U ) E U ) ) U ( ) ( J * E.Y.- T.T.T.T.",
"T.T.T.T.T.T.Q.N.U ) ) ) 3.3.$.5 D 5.5.i.i.i.i.i.w.5.5.5.5.m.yX8Xu.:.3.[ $.A I 3.:.:.3.:.:.:.3.:.:.=.' _ @ . Z L L I ) I F L ) ) ) ) ) ) ) ) ) ( m Q.E.E.T.T.T.T.",
"T.T.T.T.T.T.W.x ) ) E ' 3.:.3 5 #.5.u.i.i.i.i.r.5.5.5.5.5. XyXeXa.:.:.=._ ) V 3.:.:.:.:.:.:.:.:.:.$.' [ A . # L L L I P L A ) ) ) ) ) ) ) ) E ) i R.E.E.T.T.T.T.",
"T.T.T.T.T.E.F.J ) ) U =.3.I   2 5.r.i.i.i.i.w.5.5.5.5.5.5.1XyXyX(.:.3.=.) =.6 =.3.:.:.:.3.:.:.:.:._ ' ' ) # . 3 I L P L I A I ) E ) ) ) ) ) ) ) L F.E.E.T.T.T.T.",
"T.T.T.E.T.Q.H.P ) U U ;.:.2   L 5.i.i.i.i.r.5.5.5.5.5.5.a.eXyXyX-X:.:.-.U -.L I 3.:.:.3.:.:.:.3.-._ ' ' ' Z + + A I L I L S F ) ) ) ) ) ) U ) ) ( b Q.T.T.T.E.T.",
"T.T.T.E.E.Q.j P ) L E 3.U . @ -.w.i.i.i.u.5.5.5.5.w.5.5.oXyXyXyXyX(.:.=.U =.{ 6 3.:.:.:.:.:.:.3.=.' ' ' ' U @ O 3 L L L I L Z ) ) ) ) ) ) ) ) ) _ z R.T.E.E.T.T.",
"T.T.T.E.E.E.i P U A ) :.3   C 5.i.i.i.i.5.5.5.5.5.5.6.OXyXyXyXyXyXyX-X(.) ( :.3 ' 3.:.:.:.:.:.:.' ' ' ' ' ) 3 . @ C P L P L V U ) ) ) ) ) ) ) E _ F F.Q.E.E.T.E.",
"E.E.E.T.Q.N.A P F A ' _ + . _ r.i.i.i.5.t.s.c.m.'.$XrXyXyXyXyXyXyXyXyXyXwX,XoXK. .9.:.7.3.3.3.-.$.' [ ' ' ' A + + 3 L L L A Z L ) ) ) ) ) ) ) ) ) P H.Q.T.E.T.E.",
"T.T.T.T.W.n S I Z S =.A . > 5.i.i.i.t.{ z.^.@X5XyXyXyXyXyXyXyXyXyXyXyXyXyXyX9X,X}.| B C L I U L U ) ) ' ' [ ) # X 1 A P L A Z F ) ) ) ) ( ) ) ) ` ( x Q.T.T.T.T.",
"E.E.E.T.Q.k P L 6 F _ 3   V I H D Z Z A D R X.,.j.].7XyXyXyXyXyXyXyXeX%Xz.] _ :.=.) U P F F C Z 3 3 3 3 3 V Z 3 . # 6 L A C C Z ) ) ) ) ) ) ) ) ) ( z W.T.E.E.E.",
"E.E.E.~.S.u P L 3 A I # . ) V H u.u.i.i.i.i.i.i.u.u.w.'.eXyXyXyXyX3X7.=.U ) ) -.3.3.3.:.=.=.' _ _ ) ) I Z @ 6 S X @ 2 F A A A Z U ) ) ) ) ) ) ) ) _ ! T.E.T.~.T.",
"T.E.S.Z.* 8 U L 2 L C @ + =.i.G 1.i.r.w.5.5.3.:.:.:.:.:.(.yXyXyXyX9.:.=.) ) ) ) ' _ _ ' _ ) ) ) ) ) L A 2 6 =.I + + 2 Z A A A 6 I ) ) ) E ) ) ) ( ) P F.E.T.T.T.",
"E.E.P.= F.Z I A 2 L 3 X # 3.i.i.7 0.r.-.:.:.:.:.:.:.:.:.:.wXyXyX9X:.3.' ) ) ) ) ( E ) U ) ) ) ) ) F A 3 3 ' ' ) $ X 1 3 C A A Z L ) ) ) ) ) ) ) ) ) I H.Q.T.T.T.",
"E.E.E.R.N.S U C 2 L 2 . B r.i.i.2.3 y.r.[ =.3.3.:.:.:.7.:.$XyXyX;X-.3._ ( ) ) ) ) ) ) ) ) ) ) ) A C 6 1 ' $.' ) 3 . > 2 Z A C Z L _ ) ) E ) ) ) ) ) ( m W.T.T.Q.",
"E.E.T.Q.n S I Z 2 A 1 . C u.i.u.3.[ 5 i.5.) _ =.:.3.:.3.:._.yXyX X-.:.) E ) ) ) E ) ) ) ) ) U A C V 1 ) [ _ ' ' 3 . # 1 Z A A Z A ) ( ) ) ) ) ) ) ) ( b W.T.T.T.",
"E.T.T.Q.b S L V 3 A > . A r.i.r.:.3._ 7 i.3.( ) ) ' =.:.:.l.yXyX(.:.' ( ) ) ) ) ) ) ) ) ) U C V Z # ) =.' ' ' ' C X # > 3 A A Z F ) ) ) ) ) ) ) ) ) _ x W.T.T.T.",
"T.T.T.Q.k P L V 2 C # . P <.y.5.:.:.3.) D i.:.) ) ) ( ) _ 8.eXyXx.' ) ) ) ) ( ) ( ) ) ) U V 3 Z > U $.' ' ' ' ' A . @ 1 3 A A A V L A L L A F S L A S z R.T.T.T.",
"T.T.T.R.j P I 3 2 V @ . P 0.0.=.:.:.:.3.P G i.=.) ) ) ) ( ) wXyX] U ) ) ) ) ) ) ) ) ) I V # Z > L =.' ' ' ' ' ' A + @ 1 1 C A A 3 3 6 6 3 6 6 3 V 6 3 w E.T.T.T.",
"T.T.T.R.h P P 3 2 V @ + S <.<._ =.:.3.:.5.S T u.' ) ) ) ) ( 6XeX) ) ) U ) ) ) E ) ) P V @ Z > F =.' ' ' ' ' ' ` C + @ 1 1 Z A A V V V V V V V V V V B w R.T.T.T.",
"T.T.T.R.z P L 3 2 V @ . A <.,.' ' ' =.:.:.5.C ..u._ E ) ( P ,XrX( ) ) ) ) ) ) ) ) L V + B 1 A =._ ' ' ' ' ' _ U C + + 1 1 Z A A 3 3 V V V V 6 V V 6 V r R.T.T.T.",
"T.T.T.R.z P L 3 2 3 @ + C >.&.' ' ' ' ' =.-.3.V o.w.) ( ) ( #X6XU ) ) ) ) ) ) ) A 6 + 3 2 V =._ ' ' ' ' ' ' E U A X @ 2 1 V A A 6 V V V V V V V V 6 B r Y.T.T.T.",
"T.T.T.R.z P L 3 1 2 @ O C #.&.' ' ' $.' ' ' ' =.3 >.5.( ) U |.,X( ) ) ) ) ) ) ) C + 1 3 3 =.' ' ' ' ' ' ' U U U Z + + 1 $ V A A 3 6 V 6 V 6 V V V V B w R.T.T.T.",
"T.T.T.R.j P I V 2 2 # . C W $.' ' ' ' ' ' ' ' ' _ 3 <.=.) ( }.#XU ] ) ) ) ) ) ) A @ 2 3 ' ' ' ' ' ' ' ' ) I U U V X @ 1 1 6 A A 3 V 6 V V V V 3 V 6 V w R.T.T.T.",
"T.T.T.R.k P L V 1 3 # . Z I ` ' ' ' ' ' ' ' ' ' =.Z >.3.) ( /.|.( ) ) ) ) ) ) ) P 2 @ A =.' ' ' ' ' ' ) U U ( L V X @ 2 > V A A 3 B V V 3 V V V V V B a R.T.T.T.",
"T.T.T.Q.v S P Z 2 2 $ . 6 I E ' ' ' ' ' ' ' ' ' _ D r.:.=.) z.).( ) E ) ) ) ) ) L 3 $ 3 ' ' ' ' ' _ ) U U U E L 3 X @ 1 1 V C A 3 V V 6 V V V V 6 V B j Q.T.T.T.",
"T.T.T.Q.d V P Z 1 2 1 . 3 U I _ ' ' ' ' ' ' ' =.I Y u.:.3.) z.^.U ) ) ) ) ( ) ) L 3 # 1 ) =.' ' _ E U U ( U U L 3 . # 2 > V A Z 3 V V V 6 6 V 6 V 6 B c R.T.E.E.",
"T.T.T.Q.N.Z A Z 1 2 2 X 1 I L E $.' ' ' ' ' ' =.Z >.w.:.3.' z.z.( ) ) ) ) ) ) ) I Z $ 1 F =.' ) U U U U U U I A 2 . > 1 1 V A C 3 V 3 V V V V V 6 V B f % E.T.T.",
"T.T.T.E.F.V A V 1 2 2 + @ L L P _ ' ' ' ' ' ' ' V y.3.:.:.' } } ) ) L C A I ) ) U A 1 1 V ' ) U E U U E U ) L A # . 1 1 1 V F Z 3 V V V 6 V 6 V V 6 2 B.U.E.E.E.",
"T.T.T.E.T.8 A Z 1 2 2 @ + S P L ) ' ' ' ' ' ' ( H i.:.:.3.) ] ] ) I Z Z Z Z A I E C 2 2 2 I U U U U U U U U F Z + + 1 1 1 C A V 3 V V V 6 V V B 6 V 2 F.~.E.E.T.",
"T.T.T.T.E.w S C 2 1 2 # . V I L L _ ' ' ' ' =.C o.i.:.:.-.) ) ) U C C C C C C Z A C B 1 2 C ) U U ( U E U L A V X @ 1 1 2 C A 6 3 V V V 6 V V 6 V V 8 T.E.T.E.E.",
"E.E.E.T.Q.j A A 3 # 2 # . 3 I L L I ' ' ' ' [ V y.w.-.3.' ) ) E F 6 # 3 C C C Z Z C C 1 3 3 ) U U U U ( U A A 2 . # 1 1 3 A A 3 6 V V V V 3 V V V B a Q.T.E.E.E.",
"T.E.T.T.Q.n C S 3 1 1 1 + @ L L L L ) ' ' $.) D i.5.:.:.) ) ) P 3 @ @ @ > A C C C Z A 1 3 2 U U ( U U E L A A # X 1 2 # 3 A A 3 V 6 B 6 V V V V 6 B c Q.T.E.T.E.",
"T.E.T.T.Q.B.V A Z 1 1 2 + O Z P L L L ) ' $.L ..i.3.:.=.U ) L V 1 > V 1 # @ V A C Z A 2 3 2 A ( U U U I C A V X + 1 1 1 V A Z 3 V 3 V V V 6 V 6 V 3 H.Q.T.T.T.T.",
"E.E.T.Q.T.T.t C C 1 1 1 # . 1 A F F L I _ =.6 0.i.:.:.) ) ) C 1 3 U =.L 1 > @ 2 A Z C 3 2 3 3 ) U E U A A F 2 . # 1 1 1 C F 6 6 V V V V V V V V V 4 G.E.E.T.E.E.",
"T.E.T.T.T.W.j C A 3 > 1 1 + + Z A A A L L ( 7 i.r.:.=.) ) A 1 Z ` _ U ) I 6 1 > # 6 A C 1 V 2 U U U A A A A @ X 1 1 > 3 F A 3 6 V V V V V 6 V 6 B w Q.T.T.E.T.E.",
"T.T.E.T.T.Q.H.C A V $ 1 2 @ . 2 F C A C A 3 W i.w.-.) ) Z # A ) U I U U U ) C 1 1 # 2 A 1 Z 1 L U A C A A 6 X @ 1 1 1 6 A C 1 1 1 2 1 1 2 1 2 1 1 n Q.T.T.T.T.T.",
"T.T.T.T.T.T.T.8 A A 2 > 1 1 . + C A A A A 1 1.i.5.[ E 6 3 I ) U U ( U E U U ) I 3 1 # # 1 B 3 3 F C A A A # + # 2 1 1 Z A V # > > > > > > > 1 1 > F.E.T.T.T.T.T.",
"T.T.T.T.T.T.Q.j A A 3 > 1 1 @ . 3 A Z A C 5 i.i.3.L 2 Z ) U U U U U U ( U U U ( U Z 2 2 + 2 C # A A A A 3 . + 1 1 > 2 A A 3 > 1 1 > 1 1 1 1 1 $ e W.E.E.T.T.T.E.",
"T.Y.T.T.T.T.E.N.Z A Z 1 1 1 1 + + Z A F 3 H i.u.A # C U U U U E U U U U U E U U U ) L 1 2 3 A 1 Z A A C @ + # 1 1 $ V F Z > > 1 > 1 > 1 > > 1 # d Q.T.T.T.T.T.Y.",
"T.T.T.T.T.E.E.R.r C C 3 $ 1 2 @ . 1 A A 2 <.r.3 2 A A C A L I I U ( E U ( U U U I F F A 2 # C 3 3 A A 2 . + 2 1 1 2 C A 3 > 1 > 1 > 1 > 1 > 1 < E.E.E.T.T.T.T.T.",
"T.T.T.T.E.E.T.!.n C A V 1 1 1 $ + X 3 A 2 W 1 6 A A A A Z A Z A A F F F F F A A Z Z Z A A 6 # 2 1 F V X X > 1 1 1 6 F C 1 > 1 1 1 > 1 > 1 1 $ l Q.T.E.E.T.T.T.T.",
"T.T.T.T.E.E.T.T.Y.8 S A 2 1 1 1 # X + 6 # 1 Z A C A A A A A A A C Z Z A C A A A A A A A A F C 1 @ V + X # 2 1 1 1 Z A 6 > > > > > 1 > 1 1 1 , G.Q.E.E.E.T.T.E.T.",
"T.T.T.T.T.E.E.Y.Q.n C A 3 1 1 1 1 # X X 6 F A A A A C A A Z A A A A A A A A A A A A A A A A A A V + X @ 1 1 1 > 6 A A > 1 > 1 > 1 > 1 1 1 # l Q.T.E.E.T.T.T.T.T.",
"T.T.Y.T.T.R.P.= Y.Y.t A C 2 1 1 1 1 + X # Z A Z A A A A A A A A A A A A C A A Z A A A A A C A A > . + 1 1 1 1 2 C A 3 > 1 1 > 1 > 1 > 1 $ , T.E.E.E.E.T.Y.T.T.T.",
"T.T.T.T.E.= Z.S.* - H.V A V $ 1 1 1 1 + . @ C A A A A A A A A Z A A A A A A Z A A Z A A C A A # X + $ 1 1 1 1 3 A Z > > 1 > > 1 > 1 > 1 > d Q.T.E.E.E.T.T.T.T.T.",
"E.T.T.E.E.S.T.E.P.G.Q.a C A 3 1 1 1 1 1 + O @ V A A A A A A A A A C A A A Z A A A A A Z A Z @ X + 1 1 1 1 1 2 C F 2 > > > 1 1 > 1 > > $ q Q.E.E.E.E.E.E.T.T.E.E.",
"T.T.E.T.E.E.T.T.Q.~.Q.F.V A C 1 1 1 1 1 1 + . + 3 A A C A Z A Z A A A A A A A A A A A A 3 + . + # 1 1 1 1 > V A V > 1 1 1 > 1 > > > 1 > V.E.T.E.T.E.* P.T.T.E.T.",
"E.E.E.E.E.E.T.E.T.T.~.Q.H.V A Z 1 1 1 1 1 1 + + . # 6 A A A A A A A A C Z A Z A A A 6 > . + + 1 2 1 1 1 > 3 F C 1 > > > > 1 > 1 1 1 > s Q.E.E.E.Z.* * Z.= E.E.E.",
"E.E.E.E.E.E.E.E.T.T.T.T.W.a C A 3 1 1 1 1 1 1 @ + . + # 3 Z A A A A A A A A A Z 6 # . . + @ 1 1 1 1 1 1 2 C A 2 > > > 1 > 1 > 1 1 # a Q.E.E.E.~.P.U.~.T.* T.E.E.",
"T.T.E.T.E.E.E.E.~.Q.E.T.Q.Q.r A A 3 > 1 1 1 1 2 1 + + . X + # 1 3 3 V 6 3 2 # + . X + + $ 2 1 1 1 1 1 1 Z A 2 > 1 1 1 > 1 > 1 > $ < D.!.E.E.E.E.E.E.T.E.E.T.E.E.",
"E.E.E.E.E.E.T.E.T.T.T.T.T.Q.G.8 A A 3 1 1 1 1 1 1 1 > @ + + X . . + . + . . O + + @ > 2 1 1 1 1 1 1 1 Z F 3 # 1 1 > 1 > > 1 1 $ , V.~.E.T.E.E.E.E.E.E.E.E.E.E.E.",
"T.E.E.T.E.T.E.E.T.T.Q.T.T.T.E.F.9 C A B 1 1 1 1 1 1 1 1 1 > @ @ + + + + + @ @ $ 1 1 1 1 1 1 1 1 1 1 Z F 3 > > 1 > 1 > 1 > > 1 > V.Q.Y.E.E.E.E.E.E.E.E.E.E.E.T.E.",
"T.E.T.T.T.E.E.E.E.E.E.E.T.E.E.Q.F.8 A A V 1 1 1 1 1 1 1 1 1 1 1 1 1 $ 1 1 1 1 1 1 1 1 1 1 1 1 1 2 C A 3 # 1 1 1 > > > 1 > $ , V.R.Y.% P.Y.T.E.E.E.E.E.T.T.T.E.T.",
"E.E.T.Q.E.E.E.E.E.E.E.T.!.I.Y.~.E.G.r C A Z 2 1 1 1 1 1 1 1 1 1 1 1 1 1 1 1 1 1 1 1 1 1 1 1 1 6 A A 3 1 1 2 1 > 1 1 1 1 $ < V.Q.* * P.Z.= E.T.E.E.E.E.E.E.E.E.E.",
"T.T.T.T.E.T.E.E.E.T.E.S.Z.* Z.Z.E.E.Y.a C A A V 2 1 1 1 1 1 1 1 1 1 1 1 1 1 1 1 1 1 1 $ 1 3 C F C > + @ + @ @ + @ + + + e T.E.T.P.Y.E.T.Y.E.E.E.E.E.E.E.E.E.T.E.",
"T.T.T.T.E.E.E.E.T.T.Q.S.& T.P.& E.E.E.W.d 6 C A C V 2 1 1 1 1 1 1 1 2 1 1 1 1 1 1 1 1 3 Z A A 6 @ . + + + . + + + O + f R.E.T.T.T.E.T.E.E.T.E.E.E.E.E.E.E.E.T.Y.",
"T.T.T.T.E.E.E.T.Q.T.E.E.E.E.E.T.T.T.T.T.Q.F.a V A A A Z B 3 2 1 $ 1 1 # 1 1 1 3 3 V Z A A Z > . X + + . + + O O + : V.W.T.T.Y.T.T.T.E.E.T.T.E.E.E.E.E.E.E.T.E.T.",
"T.T.T.T.T.E.E.T.T.T.E.~.E.T.T.T.T.T.T.T.T.T.Q.B.w V C S A A A C Z Z V V V Z C C A L A V 1 + . + + X X + O . O e B.Q.T.T.T.T.T.T.T.E.E.E.E.T.E.T.E.E.E.E.T.E.T.T.",
"T.T.T.T.T.T.T.E.T.E.E.T.E.E.T.T.T.T.T.T.T.T.T.E.Q.F.c t V Z C A S A A A F A A C V 2 @ + . O X . X O O + < a D.Q.Q.T.T.T.T.T.T.T.T.T.T.E.E.T.!.E.E.E.E.T.T.T.T.T.",
"T.T.T.T.E.E.E.T.E.E.E.E.E.E.T.T.T.T.T.T.T.T.T.T.T.Q.W.Y.V.n h r 8 9 V 9 9 4 , @ o X o @ o + o o : p f N.Y.W.R.G.T.T.T.T.T.T.T.T.T.T.T.E.E.T.E.E.E.E.E.T.T.T.T.T."
};
