/* XPM */
static char *New_Project__6__resized[] = {
/* columns rows colors chars-per-pixel */
"80 80 184 2 ",
"   c #9C6E00",
".  c #9F7100",
"X  c #9F7807",
"o  c #9F7A08",
"O  c #A06D00",
"+  c #A27400",
"@  c #A57802",
"#  c #AB7D00",
"$  c #B17E00",
"%  c #6EB556",
"&  c #6FBA59",
"*  c #72B655",
"=  c #74B956",
"-  c #7CBB56",
";  c #74BA58",
":  c #7CBC58",
">  c #9E8817",
",  c #AE8100",
"<  c #AA890D",
"1  c #AB870A",
"2  c #B18300",
"3  c #B88700",
"4  c #B68A01",
"5  c #BB8C00",
"6  c #B69501",
"7  c #BE9201",
"8  c #BC9B00",
"9  c #B6950D",
"0  c #BE9708",
"q  c #A78F15",
"w  c #A88D13",
"e  c #A6931B",
"r  c #AC9C1C",
"t  c #BB9D11",
"y  c #B49F19",
"u  c #B49914",
"i  c #BFA615",
"p  c #B9A41B",
"a  c #B6A41C",
"s  c #9A9F28",
"d  c #A39B25",
"f  c #AC9E20",
"g  c #9EB02B",
"h  c #9EA636",
"j  c #9FA837",
"k  c #9FAB3A",
"l  c #A4A32C",
"z  c #AAA529",
"x  c #ACAA2C",
"c  c #AFA322",
"v  c #B2A925",
"b  c #B0A928",
"n  c #B7B628",
"m  c #B7B82B",
"M  c #A2A631",
"N  c #A4A934",
"B  c #A9AC31",
"V  c #A3AE39",
"C  c #A7B137",
"Z  c #ABB235",
"A  c #A2B23D",
"S  c #A8B93C",
"D  c #A8B73B",
"F  c #B0BD31",
"G  c #C28E00",
"H  c #C29300",
"J  c #CB9600",
"K  c #C69901",
"L  c #CB9B00",
"P  c #C19B0A",
"I  c #D19C00",
"U  c #C4A301",
"Y  c #CEA100",
"T  c #C7A900",
"R  c #CCAB00",
"E  c #CEA90A",
"W  c #D3A400",
"Q  c #D8A600",
"!  c #D4A903",
"~  c #DCAC00",
"^  c #CDB500",
"/  c #D3B300",
"(  c #DBB400",
")  c #D4B900",
"_  c #DDBB01",
"`  c #DCB90D",
"'  c #C4AB13",
"]  c #C7A912",
"[  c #C0B61E",
"{  c #C6BC1A",
"}  c #D4B612",
"|  c #E1AE00",
" . c #E3B200",
".. c #E8B600",
"X. c #E3BC00",
"o. c #EBBB00",
"O. c #F0BE00",
"+. c #C1B422",
"@. c #DDB627",
"#. c #DBC300",
"$. c #DECF00",
"%. c #DFC20B",
"&. c #CBD01C",
"*. c #D1D015",
"=. c #E5C401",
"-. c #ECC300",
";. c #E6CC00",
":. c #ECCB00",
">. c #E2C30A",
",. c #F3C300",
"<. c #F9C600",
"1. c #F4CC00",
"2. c #FECD00",
"3. c #E4D206",
"4. c #EED300",
"5. c #E6DB00",
"6. c #EDDE00",
"7. c #F5D301",
"8. c #FFD300",
"9. c #F5DA00",
"0. c #FEDC00",
"q. c #F5D910",
"w. c #EDE402",
"e. c #FEE300",
"r. c #F1EB00",
"t. c #FEEB01",
"y. c #FFE70E",
"u. c #FFEE0E",
"i. c #F1E400",
"p. c #FFF401",
"a. c #FFFE01",
"s. c #FEFB08",
"d. c #FFFD1B",
"f. c #FFE52B",
"g. c #FEFF2F",
"h. c #FFF730",
"j. c #FFFC35",
"k. c #FEF33C",
"l. c #8CBA4F",
"z. c #9EB342",
"x. c #9CB648",
"c. c #9CBA4B",
"v. c #97BA4A",
"b. c #83BE56",
"n. c #8ABE55",
"m. c #84BE58",
"M. c #8CBF58",
"N. c #95BD56",
"B. c #99BD52",
"V. c #94BF5B",
"C. c #A1B643",
"Z. c #86C057",
"A. c #8CC156",
"S. c #86C159",
"D. c #8CC259",
"F. c #94C356",
"G. c #9AC457",
"H. c #9EC857",
"J. c #96C55B",
"K. c #9BC558",
"L. c #97C85D",
"P. c #99C95D",
"I. c #A0C657",
"U. c #A0C857",
"Y. c #A0C658",
"T. c #B7C177",
"R. c #D8D75D",
"E. c #FFEE50",
"W. c #FFF959",
"Q. c #E3CB69",
"!. c #FFFF73",
"~. c #FEFE8F",
"^. c #FEFE92",
"/. c #FEFC98",
"(. c #FEF1A1",
"). c #FEFFA4",
"_. c #FFFFAF",
"`. c #FFFEC2",
"'. c #FEFDCE",
"]. c #FFFED2",
"[. c #FEFFE5",
"{. c #FFFEED",
"}. c #FFFEF1",
"|. c #FEFFFE",
/* pixels */
"G.G.G.G.G.K.G.G.K.K.K.K.K.K.G.G.G.G.G.G.G.G.G.G.G.G.G.G.K.K.G.m %.:.! K ! ! E ! ! ! ! ! ! E ! ' C.P.G.G.K.K.G.K.G.G.G.G.G.G.G.G.G.G.G.G.G.G.K.K.K.Y.G.G.G.G.G.G.",
"G.G.G.G.K.G.K.G.K.K.G.K.K.K.G.G.G.G.G.G.G.G.G.G.G.G.G.G.G.n.{ 0.0.e.0.<.Q  . . . . . . . .|  . .Q N K.Y.K.G.G.G.G.G.G.G.G.G.G.G.G.K.G.P.G.G.K.K.K.P.G.G.M.b.G.G.",
"G.G.G.G.G.K.K.K.G.K.Y.K.P.G.G.G.G.G.G.G.G.G.G.N.G.G.G.J.% { 0.0.0.0.0.8.2.W ....o...o.....o...X.o. .B L.Y.G.G.G.G.G.G.G.G.G.G.G.G.G.G.K.K.K.K.K.K.K.G.= b.- - n.",
"G.G.G.G.K.K.G.K.K.K.D.G.Y.G.G.G.G.G.G.G.G.G.G.G.G.G.G.J.g 0.0.0.e.0.8.2.8.,...8.2.2.2.8.2.2.2.2.2.8.O.x.P.G.G.G.G.G.G.G.G.G.G.N.G.K.G.K.K.G.K.K.K.K.K.- G.G.- A.",
"G.G.G.G.G.K.G.K.D.D.* Z.M.G.K.G.G.G.G.G.K.K.K.K.G.G.P.c.1.0.t.W.d.p.t.2.2.8...,.8.2.2.2.2.2.8.2.2.2.8.} N.K.G.G.G.G.G.G.G.K.G.G.K.K.K.K.K.K.K.K.K.K.K.K.K.K.H.G.",
"G.G.G.G.K.K.G.Y.: : F.Z.; G.K.G.G.K.G.K.K.K.K.K.G.H.J.{ 0.t.!.`.a.a.a.p.8.2.<. .8.2.2.2.8.2.2.2.2.2.2.2.Z L.G.G.G.G.G.G.K.G.K.K.K.K.K.K.K.K.K.K.K.K.K.K.K.G.G.K.",
"G.G.G.G.K.K.K.K.F.F.K.F.G.K.K.K.K.G.K.K.K.K.K.K.G.P.c.7.0.j.|.k.t.0.0.t.t.2.8.~ ,.2.2.2.2.2.2.2.2.2.2.8.` N.P.G.G.G.G.G.G.G.G.G.K.K.K.K.K.K.K.K.K.K.K.K.K.K.K.K.",
"G.G.G.P.K.K.K.K.Y.K.G.G.G.K.K.K.K.K.K.K.K.K.K.K.K.L.n 0.t.}.(.0.0.0.0.8.8.0.2.o...8.8.8.2.8.2.8.2.8.2.8.2.Z P.G.G.P.G.G.F.* m.J.K.K.K.K.K.K.K.K.K.K.K.K.K.K.K.K.",
"K.K.K.K.K.K.K.K.K.K.K.K.G.K.K.K.K.K.K.K.K.K.K.K.H.B.%.0./.{.e.:.U 8 R -.2.8.8.O.( p.a.a.a.p.a.a.a.p.a.p.a.*.V.H.K.G.K.m.= M.b.* P.G.K.K.K.K.K.K.K.K.K.K.K.K.K.K.",
"K.K.K.K.K.K.K.K.K.K.K.K.K.K.K.K.K.K.K.K.K.K.K.K.P.S 1.u.'.f._ 6 6 6 6 , ~ 8.2.,.| w.a.a.a.a.a.a.a.a.a.a.a.r.x.G.K.G.G.G.M.I.G.M.K.K.K.K.K.K.K.K.K.K.K.K.K.K.K.K.",
"K.K.G.G.K.K.K.K.K.K.K.K.K.K.K.K.G.K.K.G.K.G.K.K.J.n 8.s.y.-.6 T X.U =.,   ,.8.,...Q.|.{.{.{.{.{.{.{.{.{.{.}.T.F.P.K.K.K.K.G.F.K.G.G.K.K.K.K.K.K.K.K.K.K.K.K.P.K.",
"G.G.G.G.G.G.K.P.K.K.K.K.K.K.K.K.G.G.G.G.G.G.G.G.B.X.t.p.0.U U e.9.8 p.:.+ 2 8.,.o.@./.~.~.^.^.^.~.^.~.~.~./.R.B.K.G.G.G.G.G.G.G.G.G.G.K.K.K.K.K.K.K.K.G.G.G.G.G.",
"K.G.K.K.G.G.G.G.G.K.K.K.K.K.K.K.K.K.K.K.G.G.K.P.S -.p.t.X.8 9.p.5., a.p.X.  ~ <.o.~ w.a.a.a.a.a.a.a.a.a.a.a.r.c.P.K.G.G.G.G.K.K.K.K.K.K.K.K.K.K.K.K.K.K.G.G.G.G.",
"G.G.G.G.G.G.H.G.K.K.K.K.K.K.K.G.G.G.G.G.K.K.M.M.n 7.p.0.8 _ t.!.3.@ e.0.8.H @ ..o...3.a.a.a.a.a.a.a.a.a.a.a.a.F J.G.G.G.G.G.G.G.K.K.K.K.K.K.K.K.K.K.K.K.G.G.G.G.",
"G.K.G.G.G.G.: F.G.K.K.K.K.K.K.G.G.G.K.K.Z.b.- - ' 0.p.=.U 0.^._.#.2 :.8.2.,.+ L o.o.X.a.a.a.a.a.a.a.a.a.a.a.a.&.J.K.G.G.G.G.G.G.G.K.K.K.K.K.K.K.K.K.K.K.G.F.G.G.",
"G.K.K.K.- b.- b.: K.G.K.K.K.G.G.G.G.G.K.M.- G.l.W t.t.T _ h.|.j.) H _ 0.2.8.H 2  .o.~ 7.0.8.8.0.0.8.8.0.8.8.0.>.N.K.G.G.G.G.G.G.G.K.K.K.K.K.K.K.K.K.K.G.G.G.G.G.",
"G.G.G.G.m.n.K.D.b.H.G.G.G.G.G.G.G.G.G.G.G.G.J.A  .t.9.K 9.].).p.! ! ! 0.2.8.o.@ W o.~ o.8.2.2.2.2.2.2.2.2.2.2.,.c.G.G.G.G.G.G.G.G.G.G.K.K.K.G.G.G.G.P.G.G.G.G.N.",
"G.G.G.G.G.G.G.K.K.G.G.G.G.G.G.G.G.G.G.G.G.G.J.x ..p.=.R E.[.s.e.T  .Y 8.2.2.2.2 H ..~  .8.2.2.2.2.2.2.2.2.2.2.2.Z P.G.G.G.G.G.G.G.G.G.K.K.G.G.G.K.H.K.G.G.G.G.G.",
"G.G.G.G.G.G.G.G.H.H.K.K.G.K.K.G.G.G.G.G.G.G.J.a o.t.! >.`.g.p.7.R O.H 8.2.2.8.K 2 ~  .~ 8.2.2.2.8.2.2.8.2.8.2.2.+.J.G.G.G.G.G.G.G.G.G.K.K.G.K.G.G.b.D.G.G.G.G.G.",
"G.G.G.G.G.G.K.K.K.K.G.K.K.K.G.G.G.G.G.G.G.G.N.] -.e.T q.d.a.t.:.R 2.5 2.2.2.8. .# ~  .L o.o.o.o.o...o.o...o.o.O.] J.G.G.G.G.G.G.G.K.K.G.K.G.K.J.: : b.: F.G.G.G.",
"G.G.G.G.G.K.G.K.F.F.* D.F.G.G.G.G.G.G.G.G.G.v.Y 1.1.T t.a.p.e.X.! 8.H 1.8.2.2.o.# L  .L ~  .~  .|  .|  .~  .(  .E N.G.G.G.G.N.G.G.G.G.G.K.K.K.F.: G.F.- G.G.G.G.",
"G.G.G.G.G.G.K.Y.: : Z.Z.; G.G.G.G.G.G.G.G.J.z.Q ,.X./ p.a.t.e.~ _ 8.J o.8.2.2.,.2 H ( I ~ .. . . . . . . . . . .~ c.J.G.G.G.G.G.G.G.G.G.K.K.K.K.K.G.H.K.G.G.G.G.",
"G.G.G.G.K.K.K.K.F.D.U.F.Z.K.G.G.G.G.G.G.G.J.C | 1.Y =.a.a.0.e.R =.8.L  .8.8.2.,.7 3 ~ L W  .|  . . .(  . . . . .~ C.J.G.G.G.G.G.G.G.H.K.K.K.K.K.K.K.K.G.G.G.G.G.",
"G.G.G.G.G.K.K.K.Y.K.K.K.K.K.G.G.G.G.G.G.K.P.x | ,.4 4.a.p.0.e.T 4.8.W W 8.2.2.,.L # ~ I W  . .(  . .|  . . . . .| B J.G.G.G.G.G.G.G.G.K.K.K.K.K.K.K.K.G.G.G.G.G.",
"G.G.G.G.K.K.K.G.G.K.K.K.G.K.K.G.G.G.G.G.G.J.v | o.# e.a.t.0.0.T 9.2.W W 8.2.2.O.~ @ W W I .. . .|  . . . . . . ...v P.G.G.G.G.G.G.K.K.K.K.G.K.K.K.K.K.K.G.G.G.G.",
"G.G.G.G.K.K.K.G.K.K.K.K.K.K.K.G.G.G.G.G.G.G.p | ~ 4 p.a.0.0.8.T t.2.~ L 8.2.2.o. .# L W L  . . . . . . . . .|  ...p P.K.G.G.G.G.K.K.K.K.K.K.K.K.K.K.K.K.G.G.G.G.",
"G.G.G.G.K.K.K.K.K.K.K.K.K.K.K.G.G.G.G.G.K.G.t | L 7 a.p.0.0.1.^ t.<.| L 2.2.,.o.o.# H W K  . . . . .|  . . . .( ..] V.K.G.Y.G.m.K.K.K.K.K.K.K.K.K.K.K.K.P.G.G.G.",
"K.K.K.G.K.K.K.K.K.K.K.K.K.K.K.K.G.G.G.G.K.G.P | H Y a.t.e.t.X.^ e.<...H <.0.2.o.O.2 4 ~ H  . . . . .(  . . . . . .E B.Y.G.- b.; b.Z.Y.G.K.K.K.K.K.K.K.K.K.G.K.G.",
"G.G.G.G.G.G.K.K.K.K.K.K.K.K.K.K.G.G.G.G.P.B.K ~ 3 _ a.-.~ W 7 5.t.<.o.W 3 W ~ ( ,.H $ Q H ~  . . . .( |  . . .| ..! G.K.G.- n.G.: b.I.K.K.K.K.K.K.K.K.K.G.G.G.G.",
"K.K.G.G.Y.K.G.K.K.K.K.K.K.K.K.K.P.G.G.G.G.x.L W 2 8 U K ) w.a.a.8.<. .<. .Y H 3 5 2 # W K ~  . . . . . .| (  . . .! c.K.K.G.G.G.G.G.K.K.K.K.K.K.K.K.K.K.K.K.K.K.",
"K.K.K.K.n.D.K.K.K.K.K.K.K.K.K.K.G.G.G.G.P.z.J L 2 2 i.a.a.a.t.8.2.<. .<.8.,.o...5 @ # L H ~  . .|  . . . . . . ...~ c.K.G.G.G.G.K.K.K.K.K.Y.G.b.G.K.K.K.K.K.K.K.",
"G.K.D.m.: m.b.F.K.K.K.K.K.K.K.K.G.G.G.G.P.V L H 3 ! $.p.8.2.<.2.8.<. . .o... .~ 4 K # L H ~  . . . . . . . . . . .~ C.P.G.G.G.G.G.K.K.K.K.b.b.; S.b.Y.G.G.G.G.K.",
"G.I.D.; F.G.= F.H.K.K.K.G.G.J.K.b.- G.G.P.V J H 4 6.U 8.2.2.2.2.8.,.|  . .|  .L 5 ~ @ H H ~ .. . .|  . . . .(  . .| C.P.G.G.Y.G.K.K.K.G.Y.- D.G.m.- K.K.G.G.P.K.",
"G.K.K.J.G.K.G.G.G.K.K.K.G.H.F.* b.b.* n.P.B I 5 2 a.T :.2.8.2.2.8.<.(  . . .~ 4 Y ..@ H H W  . . .(  . . . .|  . .| C P.G.G.G.G.K.K.K.K.K.G.K.Y.G.J.K.K.G.G.K.K.",
"K.K.G.G.G.G.K.K.K.K.K.K.G.K.G.b.K.K.m.G.P.B I 3 4 a. .) ,.<.8.2.2.,. . . . .W #  ...# 5 L W  . . . . . . . . . . .| B P.Y.P.G.G.K.K.K.K.G.K.K.K.K.K.K.K.G.G.G.G.",
"G.G.G.G.G.G.K.G.G.K.K.K.K.K.K.K.K.K.K.K.L.x J 4 4 p.<.U -. .<.8.8.o.|  . . .5 5 O...@ 3 K W .. . ... . . ... . . . .Z P.G.G.G.G.K.K.K.K.G.G.K.K.K.K.K.K.G.G.G.G.",
"G.G.G.G.G.K.K.G.K.K.K.K.K.K.K.G.K.K.H.G.L.x L 2 6 r.8.L =...( o.,. . . . .W $ W ,...# 4 L H W L L W I Y Y I L W W I x L.B.G.G.G.G.G.K.K.K.K.K.K.K.K.K.K.K.G.G.G.",
"G.G.G.G.K.G.G.G.K.K.P.G.K.K.G.G.K.K.G.G.J.b I $ 4 9.8.../ o.|  .|  . . . .5 # ..o.o.# 4 K 3 7 7 7 5 7 5 7 7 H 5 7 5 l P.G.G.G.G.G.K.G.K.G.K.K.K.K.K.K.K.G.G.G.G.",
"J.G.G.G.K.K.K.K.K.K.K.Y.K.G.G.G.G.G.G.G.J.b L , 4 4.,.2.K -.|  . . . . .W # H -.o.o.# 4 L 3 H H H H H H H H H H H G l S.- - Z.G.G.K.G.K.K.G.K.K.K.K.K.K.G.G.G.G.",
"G.G.G.G.G.K.K.K.K.K.F.b.K.K.G.G.G.G.G.c.P.v J , 4 4.o.8.Y _ .. . . . . .H @ ~ O.o.~ # 2 K 5 H H H H H H H H H 7 H H s = A.M.% J.K.P.G.K.K.K.K.K.K.K.K.K.G.G.G.G.",
"G.G.G.G.G.G.G.G.K.b.b.- b.b.I.G.G.G.G.G.J.v J # 4 :.o.,...R o. . . . .~ # 2 o.o.o.~ # 2 K 3 H H H H H H G H H H H G l D.K.G.F.G.G.G.G.K.K.K.K.K.G.G.G.G.G.G.G.G.",
"G.G.G.G.G.G.G.G.K.- Z.U.m.m.K.G.F.G.G.G.J.b L # 2 :.o.o.o.7 X. . . . .W @ H O.o.o.~ # 2 L 3 H H 7 H H 5 7 7 H H H G l P.K.K.G.G.G.K.G.K.K.G.K.K.P.G.G.G.G.G.G.G.",
"G.G.G.G.G.G.G.G.K.G.K.I.G.G.K.G.G.G.G.G.J.b I # 2 -.-.o.,.L ! X. . . .W @ ~ o.o. .Q # 2 K 5 H 7 H H H H H H H 7 H G l L.G.G.G.G.G.G.G.K.K.K.K.K.G.G.G.G.G.G.G.G.",
"G.G.G.G.G.J.G.G.K.K.G.K.K.K.G.G.G.G.G.G.L.b J 2 2 X.o.o.,.L ! o.~  . .~ @  .,.o.~ W # 2 H 5 H H 7 G H H 7 H H 7 H G l P.G.G.G.G.G.K.G.K.K.G.K.K.G.G.G.G.G.G.G.G.",
"G.G.G.G.G.G.G.G.K.K.K.K.K.G.G.G.G.G.G.G.L.x J 2 ,  .o.o.,.K X.o. . ...~ @ W o...~ ! @ 2 J 5 H H H H H H H H 7 G H G M J.G.G.G.G.G.K.G.K.K.G.K.G.K.G.G.G.G.G.G.G.",
"G.G.G.K.G.G.K.K.K.K.K.K.K.K.K.K.K.G.G.G.P.N J 2 # ~ o.o.o.H 1.o.(  . .~ # W ,.~ | W @ 4 H 5 H H H 7 5 H H 7 H H H G N P.B.G.G.G.K.K.K.K.K.K.G.K.P.G.= D.G.K.G.G.",
"G.G.G.K.K.K.K.K.K.K.K.K.K.K.K.K.K.G.K.G.P.N J 4 # ! o.o.o.H 2.o.| |  . .# L o.~ | L @ 3 H 5 H H 7 H H H G H H H H G V P.G.G.G.G.K.K.K.G.K.K.G.I.b.- b.b.* K.G.G.",
"K.K.K.K.K.K.K.K.K.K.K.K.K.K.K.K.K.K.K.K.P.V G 2 # W o.o.X.K 8.o. .W W  .2 5  .~ ( L @ 3 J 5 H H H H H H H 7 H H H 5 C.P.G.G.G.G.K.K.K.H.K.K.G.K.D.D.U.F.b.K.K.K.",
"G.G.G.P.G.K.K.K.K.K.G.G.G.K.G.G.G.G.G.G.P.V G 4 # L ..o. .U 0.o.~ L H W 3 2 | ~  .H @ 3 H 5 H H H H H H H H H H H 5 z.P.G.G.G.G.G.K.G.: G.G.K.K.K.K.H.K.K.K.G.G.",
"G.G.G.G.G.K.K.K.P.G.G.K.K.K.K.P.G.K.G.K.P.z.H 4 # L | ,.~ ! 0...~ L L L 7 , ~ ~ ~ 5 @ 3 H 5 H 7 H 5 H H H H H 7 H 5 C.P.G.K.G.G.K.b.b.- b.b.H.G.K.K.K.K.K.K.K.G.",
"K.K.K.K.K.K.K.G.G.; n.J.G.K.K.K.K.K.K.K.P.c.H 4 @ J ~ -.W ) 8. .I 4 L L H # ~ ~ ~ 3 @ 3 H 7 H H H 7 H 7 H 5 H H H 5 B.P.G.P.K.K.I.: Z.K.Z.: K.K.K.K.K.K.K.K.K.K.",
"G.K.G.K.K.G.G.m.; b.n.% G.K.K.K.K.K.K.K.F.n.H 3 @ H ~ o.W #.8. .H   G L H # W ( ! 2 # H H 5 H H H G H H H H 7 H H 7 B.K.G.G.G.G.K.K.K.K.G.G.K.K.K.K.K.K.G.K.G.K.",
"G.G.G.G.G.G.K.G.D.H.G.D.G.K.K.G.G.G.G.Y.b.* P 5 @ 3 W ..L ;.<.~ 2 + # L H 2 I  .W # # 5 H 5 H H 7 H H 5 H H H 7 G 9 G.G.G.G.G.G.G.G.G.K.K.K.K.K.K.K.K.K.K.K.G.G.",
"K.K.G.P.K.G.G.Y.K.G.G.K.K.K.K.K.G.G.G.K.G.V.t G # # W | H 4.,.W 4 W @ 3 L # L ~ L # # H 7 G H H H H H H H H H H G u G.G.G.G.G.P.K.G.P.K.K.K.K.K.K.K.K.K.K.K.K.K.",
"K.K.G.G.G.G.P.G.K.K.K.G.K.K.K.K.G.G.G.G.G.G.y G # # L W 8 9.O.3 J o.3 # J 2 H Q H # , H 5 H H H H H H H H H H H G r P.G.G.G.G.Y.G.G.K.K.K.K.K.K.K.K.K.K.K.K.G.K.",
"G.G.G.G.G.G.G.G.K.K.K.K.K.K.K.G.G.G.G.G.G.J.c G , @ L H 6 0.~ 4 ~ ~ W @ 4 3 7 W H @ 2 H 4 2 2 4 2 2 4 2 2 4 2 2 2 d P.G.G.K.G.M.H.K.G.K.K.K.K.K.K.K.K.K.K.G.G.G.",
"G.G.G.G.G.G.G.K.K.K.K.K.K.K.K.G.G.G.G.G.N.J.z H 2 @ H H 8 e.5 K  .~  .H @ 2 2 Y 5 @ 2 H 2 2 , , 2 # , , 2 , , , $ M J.G.G.b.Z.* m.n.K.G.K.K.K.K.G.G.G.G.G.G.G.G.",
"G.G.G.G.K.K.K.G.K.K.K.K.K.K.G.G.G.G.G.G.G.J.V H 4 @ H H R :.2  .~ ~ ~ ~ # # 2 L 2 @ 3 H # 2 2 , 2 2 2 2 2 , 2 2 $ z.P.G.G.= n.G.- m.Y.G.K.G.K.K.G.P.G.G.G.G.G.G.",
"G.G.G.G.G.K.G.G.K.K.K.K.P.G.G.G.G.G.G.G.G.P.z.H 4 @ 2 5 #.U H  .~ ~ ~  .L # 2 L # # 5 H , 2 2 2 , 2 , 2 , 2 , 2 # c.G.G.G.F.F.K.G.G.K.K.K.K.K.K.G.G.G.G.G.G.G.G.",
"G.G.G.G.G.K.K.K.K.K.K.K.K.G.G.G.G.G.G.G.G.G.B.7 5 # # 7 U 5 L W ~ ~ ~ ~ L 2 # H # # H 5 # 2 2 2 2 , 2 , 2 , 2 2 1 G.G.G.G.K.G.G.G.G.K.K.K.G.K.K.G.P.G.G.F.G.G.G.",
"G.G.G.G.G.G.G.G.K.K.K.K.K.K.K.G.G.G.G.G.G.G.G.t G # # 2 @ L L K L Y L L L H + 4 @ $ H 3 # 2 2 , , , 2 , 2 , 2 2 q J.G.G.G.G.G.G.G.K.G.K.K.K.K.G.G.K.K.G.G.G.G.G.",
"G.G.G.G.G.G.G.K.K.K.K.K.K.K.G.G.G.G.G.G.G.G.J.y G $ @ + 4 L L L L L L L L L 2 + # 2 H 4 , 2 , 2 2 2 , 2 , 2 , $ d K.B.G.G.G.G.G.G.K.K.K.K.G.K.G.G.G.P.G.G.G.G.G.",
"G.G.G.G.G.H.G.F.K.K.K.K.K.K.G.G.G.G.G.G.G.G.L.N G 2 # @ L L K L L K L K L L H + # 4 H 2 2 , , 2 , 2 2 , , 2 , 2 j K.G.G.G.G.G.G.G.G.G.K.K.G.G.G.K.K.G.G.G.G.G.G.",
"G.G.G.G.G.F.D.* J.G.K.G.K.G.G.G.G.N.G.G.G.G.P.V H 4 $ + K L L L L L L L L L H + 2 4 H # 2 2 2 , 2 , 2 2 2 , 2 , v.K.F.G.G.G.G.G.G.K.K.K.K.K.G.Y.P.G.G.G.G.G.G.G.",
"G.F.G.G.G.* m.M.- - K.K.K.K.G.G.G.G.G.G.G.G.K.v.H 3 2 + 4 L L L L L L L L L # @ 2 5 5 2 2 , 2 , 2 2 2 , 2 , 2 < B.G.G.G.G.G.G.G.G.K.G.K.K.K.K.K.K.K.K.K.K.G.G.G.",
"G.G.G.P.G.M.G.K.D.J.K.K.K.K.K.K.K.G.K.G.G.G.H.J.y 5 $ # + J L L K L L K L H + # 2 G 3 , 2 , , 2 2 , , 2 , 2 $ e P.G.K.K.G.K.K.K.K.G.K.K.K.K.K.K.K.K.K.K.G.K.K.G.",
"G.G.G.G.K.K.G.G.K.K.K.K.K.K.K.G.K.G.G.G.G.G.G.L.z J 2 4 . 4 L L L L L L Y , + 4 2 H 2 2 2 2 2 , , 2 , , 2 2 $ M P.Y.K.G.K.G.K.G.G.K.K.K.K.K.K.K.G.K.- D.G.G.G.G.",
"G.G.G.G.K.G.G.G.K.G.K.K.K.K.K.K.K.K.K.K.G.G.G.H.A H 2 2 # . H L L K L L 7 . # 2 4 7 , 2 , 2 , 2 2 , 2 2 , 2 , v.P.G.K.K.K.K.K.K.K.K.K.K.K.K.G.Y.b.: - b.= G.G.G.",
"K.K.K.K.K.K.K.K.K.K.K.K.K.K.K.K.K.K.K.K.K.K.G.D.n.6 5 $ 2 + @ H L L I H + @ 2 , 5 5 # 2 2 , 2 , 2 , 2 2 , $ w G.G.G.K.K.G.P.G.K.K.G.G.G.K.K.K.K.D.b.I.G.: K.K.K.",
"G.K.G.K.G.K.K.K.K.K.K.K.K.K.K.K.K.G.G.K.K.G.G.% D.r G 2 2 ,   @ 4 H 4 + O # 4 $ H 4 , 2 2 2 , 2 , 2 , , 2 $ M P.G.G.G.K.G.G.K.K.K.G.G.P.K.K.K.K.K.K.K.K.K.G.G.K.",
"K.K.K.K.K.K.K.K.K.K.K.K.K.K.K.K.K.K.K.K.K.K.K.F.P.V H 4 2 2 # .   O   + # 4 2 4 H # 2 2 , 2 , 2 2 , , 2 2 2 v.P.Y.G.G.P.G.G.K.K.P.G.G.G.K.K.K.K.K.K.K.K.K.K.K.K.",
"G.K.G.K.K.G.K.P.K.K.K.K.K.G.K.K.G.K.G.K.G.G.K.K.K.N.0 G $ 2 4 # + + @ # 2 2 $ H 3 , 2 2 2 , 2 , 2 2 2 2 $ q P.G.G.G.G.G.G.G.G.G.Y.G.G.K.Y.K.K.K.K.K.K.K.K.K.G.K.",
"G.K.G.G.G.K.K.K.K.K.K.K.K.H.K.G.G.G.G.G.K.G.G.G.K.P.z J 4 2 2 4 2 2 2 2 2 2 4 H 2 , 2 $ 2 , , 2 # 2 2 , $ M L.G.G.G.G.G.G.G.G.G.F.N.% D.F.G.G.K.K.K.K.K.G.G.G.G.",
"K.K.K.K.K.K.K.K.K.K.K.K.U.Z.J.K.P.G.K.G.K.K.K.K.G.K.c.H G # 2 2 2 2 2 2 2 $ 5 H # 2 2 2 2 2 2 2 2 2 2 2 w K.P.K.K.K.K.K.P.G.G.Y.- - Z.m.* K.G.K.K.K.K.K.G.G.G.P.",
"G.G.K.G.K.K.K.K.K.G.K.M.b.; b.b.G.G.G.G.G.K.G.G.K.K.P.f J 4 $ 2 2 2 2 2 2 3 L # @ @ @ @ @ @ + @ @ @ + + M P.G.G.G.G.K.K.G.G.G.G.D.F.U.G.J.K.K.G.K.K.K.K.P.G.G.G.",
"G.G.G.G.K.K.K.K.K.G.P.M.* G.F.* G.G.G.G.V.G.G.G.K.K.P.v.H J 4 2 2 4 2 2 3 L 3 . . + . . +   . .   O O > P.G.G.P.G.G.G.G.G.G.G.G.K.G.G.G.K.K.K.K.K.K.K.K.G.G.G.G.",
"G.G.G.G.G.G.K.G.K.K.K.K.G.K.G.G.G.G.G.G.G.G.G.G.G.G.G.L.M J L 4 2 2 2 5 L H + . + . + . + . . + + + + c.G.G.G.G.G.G.G.G.G.G.G.N.G.G.K.K.G.G.K.K.K.K.K.K.K.K.G.G.",
"G.G.G.G.K.G.G.K.K.K.K.K.K.G.G.G.G.G.G.G.G.G.G.G.G.P.G.G.P.r J L L H H L L # . + . + + . . + + . O O h P.G.G.K.G.G.G.G.G.G.G.G.G.G.G.G.K.K.G.K.K.K.K.K.K.G.G.G.G.",
"G.G.G.G.G.K.G.G.G.K.K.K.K.K.K.G.G.G.G.G.G.G.G.G.G.Y.G.G.G.G.r J L L L H #   . O +     + . O     + h P.G.G.K.G.G.G.G.V.G.G.G.G.G.G.G.G.K.K.G.H.K.K.K.K.G.G.G.G.G.",
"G.G.G.G.G.K.G.K.K.K.K.K.K.K.K.G.G.G.G.G.G.G.G.G.G.G.G.G.G.P.G.N 9 7 9 o o @ X X X @ X X o o o > x.P.G.G.K.K.G.G.G.G.G.G.G.G.G.G.G.G.G.K.K.G.G.P.K.K.K.G.G.G.G.G."
};
