/* XPM */
static char *New_Project__2__resized[] = {
/* columns rows colors chars-per-pixel */
"80 80 204 2 ",
"   c #976900",
".  c #9C6E00",
"X  c #956600",
"o  c #9E7100",
"O  c #9F7D0C",
"+  c #A06E00",
"@  c #A27400",
"#  c #A67901",
"$  c #AB7C00",
"%  c #A07908",
"&  c #B17D00",
"*  c #6EB958",
"=  c #73B956",
"-  c #7CBB56",
";  c #73BA59",
":  c #7CBD59",
">  c #9F8818",
",  c #AF8101",
"<  c #AA8409",
"1  c #A8880E",
"2  c #B28300",
"3  c #B78900",
"4  c #BB8C00",
"5  c #B69600",
"6  c #BE9101",
"7  c #B79800",
"8  c #BB9B00",
"9  c #B5950E",
"0  c #BA950A",
"q  c #BB9A0E",
"w  c #A68C13",
"e  c #A88910",
"r  c #AD9A1B",
"t  c #A3941E",
"y  c #B39A14",
"u  c #B19B18",
"i  c #BB9C10",
"p  c #BCAA1D",
"a  c #B6A41D",
"s  c #BFB01F",
"d  c #9E9727",
"f  c #AC9E20",
"g  c #9FAE3C",
"h  c #9BA636",
"j  c #ABA225",
"k  c #A4A52F",
"l  c #A9A429",
"z  c #AAAA2E",
"x  c #A7A42A",
"c  c #B3A924",
"v  c #B3B02B",
"b  c #A4AB35",
"n  c #A2AD3A",
"m  c #A6A931",
"M  c #ABB334",
"N  c #A5B039",
"B  c #C28E00",
"V  c #C29300",
"C  c #CA9600",
"Z  c #C69901",
"A  c #CB9C00",
"S  c #C39D0A",
"D  c #D19E00",
"F  c #C3A300",
"G  c #CEA101",
"H  c #C6AC00",
"J  c #CCAC01",
"K  c #C5A50E",
"L  c #CCA70A",
"P  c #D4A400",
"I  c #D9A500",
"U  c #D6AA01",
"Y  c #DCAC00",
"T  c #D3AA0B",
"R  c #CCB600",
"E  c #D4B201",
"W  c #DDB302",
"Q  c #DCBC01",
"!  c #D4B706",
"~  c #C3A612",
"^  c #C4AD19",
"/  c #C5B11B",
"(  c #DABB13",
")  c #D1B111",
"_  c #E1AD00",
"`  c #E2B200",
"'  c #EAB400",
"]  c #E4BB01",
"[  c #ECBC00",
"{  c #E3B60C",
"}  c #F1BD00",
"|  c #E3B713",
" . c #CBA420",
".. c #DDBD3E",
"X. c #E5BF32",
"o. c #E6BE26",
"O. c #D6C600",
"+. c #DCC100",
"@. c #DCCC00",
"#. c #DED100",
"$. c #D3C919",
"%. c #E6C101",
"&. c #ECC400",
"*. c #ECCB01",
"=. c #E2C604",
"-. c #F3C300",
";. c #FAC600",
":. c #F2CD00",
">. c #FECD00",
",. c #E3D501",
"<. c #E5DB00",
"1. c #EADB00",
"2. c #EBD500",
"3. c #F4D201",
"4. c #FED300",
"5. c #F3DB00",
"6. c #FEDC00",
"7. c #FFD109",
"8. c #F3C81D",
"9. c #FFD31C",
"0. c #EEE301",
"q. c #ECEA00",
"w. c #FFE300",
"e. c #F2ED02",
"r. c #FFEC00",
"t. c #FFE40B",
"y. c #FFEF0C",
"u. c #F5F201",
"i. c #FEF400",
"p. c #FFFE00",
"a. c #FEF40B",
"s. c #FFFD0B",
"d. c #FFE51B",
"f. c #FEE116",
"g. c #FFFF11",
"h. c #FFFF1B",
"j. c #C3C136",
"k. c #FBD62A",
"l. c #E8C33A",
"z. c #FFDC3B",
"x. c #FFE125",
"c. c #FFFF25",
"v. c #FEF828",
"b. c #F9EA33",
"n. c #FEFB3A",
"m. c #81B64E",
"M. c #9DB444",
"N. c #9BB649",
"B. c #9BBA4D",
"V. c #95B749",
"C. c #83BD56",
"Z. c #8BBF57",
"A. c #83BF59",
"S. c #8ABE58",
"D. c #96BC53",
"F. c #99BD52",
"G. c #94BE59",
"H. c #A0B240",
"J. c #CAA843",
"K. c #8CC157",
"L. c #8BC158",
"P. c #84C058",
"I. c #94C356",
"U. c #9AC457",
"Y. c #96C55C",
"T. c #9BC558",
"R. c #97C85E",
"E. c #9AC95C",
"W. c #9EC857",
"Q. c #A0C657",
"!. c #DFC644",
"~. c #FFDB48",
"^. c #E9CB54",
"/. c #FFEE4C",
"(. c #FFFF42",
"). c #FFE45C",
"_. c #FFFF5B",
"`. c #DEC879",
"'. c #ECD56A",
"]. c #FEEC6E",
"[. c #FEE778",
"{. c #FFFB73",
"}. c #FFFA7A",
"|. c #E2D888",
" X c #FBE489",
".X c #FFFD85",
"XX c #FFFF8C",
"oX c #FFED9E",
"OX c #FFFF91",
"+X c #FEFF9B",
"@X c #E9DFAE",
"#X c #FFEFA8",
"$X c #F8F7AB",
"%X c #FFF2BA",
"&X c #FDF9B6",
"*X c #D5CEAA",
"=X c #FFFCCC",
"-X c #FCF8C8",
";X c #FFF8DC",
":X c #FFF7D5",
">X c #FFFEE4",
",X c #FFFEED",
"<X c #FFFFF4",
"1X c #FFFFFF",
/* pixels */
"U.U.U.U.T.T.U.T.T.T.T.T.T.T.W.U.U.U.U.U.U.U.U.U.U.R.R.G.M.b a ~ L P P U P P G G G J Q =.*.*.&.=.) p M H.D.Y.R.T.U.U.U.U.U.U.I.U.U.T.U.T.T.T.T.T.T.T.U.U.U.W.U.U.",
"U.U.U.U.U.T.U.U.T.T.T.T.T.T.U.U.U.U.U.U.U.U.U.R.U.N.c K I Y ' ' ` ` ` ` Y W *.3.6.w.w.6.w.6.w.6.4.>.>.-.( v N.Y.T.U.U.U.U.U.U.U.U.T.U.T.T.U.T.T.T.T.U.U.S.C.U.U.",
"U.U.U.U.T.U.U.T.U.T.T.T.U.U.U.U.U.U.T.T.U.U.G.H.^ Y ' } [ [ [ ` [ ` Y ] 3.6.w.6.6.6.6.6.6.6.6.6.4.>.7.4.4.>.[ / M.E.W.W.U.U.U.U.U.T.T.T.T.U.T.T.T.U.U.= - - - S.",
"U.U.U.U.U.T.U.U.T.W.Z.T.T.U.U.U.U.U.U.T.Y.V./ -.>.>.>.>.>.>.4.4.[ &.3.w.w.6.6.6.6.6.6.6.6.6.6.6.6.>.>.>.>.>.4.4.} c V.R.U.U.U.U.U.T.U.T.T.T.T.T.T.U.W.- U.W.- K.",
"I.T.U.U.T.T.T.T.L.L.* P.S.U.T.T.T.U.T.G.z [ >.4.>.>.>.>.>.4.>.] :.6.w.6.6.w.r.a.{..Xp.p.p.i.i.i.r.6.>.>.>.>.>.>.4.>.] b Y.T.U.U.T.T.T.T.T.T.T.T.T.T.U.T.U.U.W.U.",
"T.T.T.T.T.T.U.Q.- - U.S.; W.T.U.U.R.D.^ >.4.>.>.>.>.>.>.4.-.] 6.w.6.6.w.i.c.XX1X<X(.p.p.p.p.p.p.p.p.p.r.4.>.>.>.>.>.4.} c D.T.U.T.T.T.T.T.T.T.T.T.T.U.W.T.U.U.U.",
"U.T.T.U.T.T.T.T.I.I.T.U.U.T.T.U.R.N.! >.>.>.>.>.>.>.>.4.-.%.w.6.6.6.r.c.OX1X1X&Xa.r.w.w.w.6.6.6.w.6.6.w.i.r.4.>.>.4.>.>.} ~ D.T.T.T.T.T.T.T.T.T.T.T.T.T.T.T.T.U.",
"T.T.T.T.T.T.T.T.T.T.U.U.U.T.U.E.N.] 4.7.>.4.4.>.4.4.4.&.] 6.6.6.w.a..X1X1X>X).6.6.w.6.6.3.6.6.6.6.w.4.>.>.4.w.6.>.>.>.>.} } K V.T.Q.T.T.T.T.T.T.T.T.T.T.T.T.T.T.",
"T.T.T.T.W.T.T.T.T.T.T.T.T.T.E.M.<.p.p.p.p.i.p.p.p.p.0.Q 6.6.6.w.n.,X1X,X[.t.w.3.*.! J F F 8 F H J Q ] -.4.4.>.4.6.>.>.>.&.[ } L B.E.T.T.T.T.T.T.T.T.T.T.T.T.T.T.",
"T.T.T.T.T.T.T.T.T.T.T.T.T.W.V.,.p.p.p.p.p.p.p.p.s.e.Q 3.6.6.r.c.1X;X].t.6.*.E F 7 5 7 7 8 8 8 7 5 7 # # V [ 4.>.>.>.>.>.-.[ [ } K D.T.T.T.T.T.T.T.T.T.T.T.T.T.T.",
"T.T.T.T.U.T.T.T.T.T.T.T.T.D.*X<X,X,X,X,X,X,X,X<X-X( *.6.6.r.p.a.x.6.6.:.T 8 5 7 F E %.&.:.G *.%.] E 2     o 4 -.4.>.>.4.-.[ [ [ } ~ I.W.T.T.T.T.T.T.T.T.T.T.T.T.",
"U.U.U.U.U.U.T.T.T.T.T.T.G.j.XXOXXXOXOXOXOXXXXX+X!.%.3.6.w.p.i.6.6.6.Q 8 7 8 E *.6.w.w.i.r.$ 5.p.i.r.6.` 4 o X o P 4.>.>.-.[ [ [ [ } c Y.T.T.T.T.T.T.T.U.U.U.U.U.",
"U.T.T.T.T.T.T.T.T.T.U.Y.M p.p.p.p.p.p.p.p.p.p.,.%.*.6.w.p.i.6.w.3.J 7 8 E 3.6.r.i.i.p.p.#.2 O.p.p.p.p.r.4.[ 4 . . 3 -.>.>.[ [ [ [ [ ' N R.Q.T.T.T.T.T.T.U.R.T.T.",
"U.U.U.U.T.T.W.T.T.U.T.N.0.p.p.p.p.p.p.p.p.p.q.] *.3.w.p.i.6.w.:.F 5 F &.w.w.i.(.=X_.p.p.H [ J i.w.w.4.>.>.4.4.Y @ . # Y ` ' [ [ [ [ } T F.T.U.T.U.T.T.T.U.U.T.T.",
"T.U.T.U.T.U.- I.T.T.G.$.p.p.p.p.p.p.p.p.p.p.E &.&.6.p.i.6.w.*.F 5 J 6.6.r.n.&X1X=Xs.s.u.F 6.B %.6.6.4.>.>.>.>.4.[ 2   # P P Y [ [ [ [ ' a Y.U.T.T.T.T.T.U.U.U.I.",
"U.U.U.T.- - - C.- E.N >.6.4.6.4.4.6.4.4.6.] Y %.*.r.p.6.w.3.8 7 E 6.w.a.OX1X1X+Xp.p.h.Q Q w.A U w.6.4.>.>.>.>.>.4.>.3   # P P U [ [ [ } I H.E.U.T.T.T.U.U.U.U.U.",
"U.U.U.T.C.S.Q.S.A.F.W 4.>.>.>.>.>.>.>.>.-.P ' ] 5.p.w.6.6.F 5 E 6.6.n.>X1X>X_.p.p.r.d.8 5.4.` Z w.6.>.>.4.>.>.4.>.>.>.3 . # P P P ` [ [ ' i I.T.T.T.T.T.U.U.U.U.",
"U.U.U.U.T.T.U.W.R.v >.>.>.>.>.>.>.>.>.4._ W ` ` i.r.6.6.J 5 E w.6.}.1X<X}.s.p.i.w.6.k.H r.>.-.4 *.6.>.>.>.>.>.>.>.>.4.>.$ . 3 Y P P [ [ [ P b E.T.T.T.T.U.U.U.U.",
"U.U.U.U.U.U.U.T.F.] 4.>.>.>.>.>.>.>.4.-.P ` ` &.p.6.w.] 5 F 6.k.=X>X{.g.p.p.i.6.6.w...@.w.>.-.V U 6.>.>.>.>.>.>.>.>.>.4.[ @ . V Y P Y [ [ Y q Y.U.S.L.T.U.U.U.U.",
"U.U.U.I.U.U.U.R.z ' [ [ [ [ [ [ [ [ [ P Y ' Y 5.w.6.3.8 8 3.6.v.(.p.p.p.p.r.6.6.6.w.^.u.4.>.-.Y V 4.>.>.>.4.>.>.>.4.>.>.>.P . # D P P Y [ Y D h : - C.- I.U.U.U.",
"U.U.U.U.T.U.T.F.K ' Y ` _ W ` _ Y ` Y G ` ` ` 6.4.6.J 5 Q 6.r.p.p.p.p.p.w.6.6.6.w.:.'.s.>.4.-.[ 6 &.4.>.>.4.4.>.>.>.>.4.} -.3 . 3 Y P P ` ` I y : U.I.- I.T.U.U.",
"U.U.U.U.U.U.E.N Y ` ` ` ` ` ` ` ` ` P Y ` ` ] 4.4.%.7 J 6.w.p.p.p.p.p.w.6.w.6.6.w.W |.p.>.>.-.[ A P 4.>.>.>.>.>.>.>.>.>.[ [ _ @ . A I P Y ` P D M.E.U.W.U.U.U.U.",
"U.U.U.U.T.U.R.c ' Y ` ` ` ` ` ` ` ` P ` ` ` &.4.-.2 5 *.w.i.p.p.p.p.w.6.6.6.6.6.6.S $Xy.>.>.-.' [ 4 4.>.>.>.4.>.4.>.>.>.[ [ [ V . $ P P P Y P P j R.U.T.T.U.U.U.",
"U.U.U.U.U.E.B.P ' W ` ` ` ` ` W ` U P ` ` Y -.4.G X Z w.r.p.p.p.p.w.6.6.6.6.6.w.:.K =Xf.>.>.>.` -.V } 4.>.>.>.>.>.>.>.>.[ [ [ Y # . V Y P P P I K F.T.T.U.U.U.U.",
"U.U.U.U.U.R.b _ ' ` ` ` ` ` ` ` ` P P ` I W 4.-.# . _ w.p.p.p.p.r.6.w.6.6.6.6.w.E $.<Xk.>.4.;.Y -.P P 4.>.>.>.>.>.>.>.-.[ [ [ [ 4 . # D I P P Y D H.E.U.U.U.U.U.",
"U.U.U.U.T.Y.p ' Y ` ` ` ` ` ` ` ` A Y ` P ] 4.P . 2 >.r.p.p.p.r.6.6.6.6.6.6.6.t.F b.1X~.>.7.;._ [ -.4 4.>.>.>.4.>.4.>.[ [ [ [ [ P @ @ 4 U P P P D j R.T.T.T.U.T.",
"U.U.U.U.T.U.L ` W ` ` ` ` ` ` ` Y A I Y A [ ;.2 . P 6.p.p.p.i.6.6.6.6.6.6.6.w.&.F XX1X#X>.>.;._ ' >.V } 4.>.>.>.>.>.>.[ [ [ [ [ W 3 . $ A U P P D 0 U.T.T.T.U.U.",
"R.U.T.U.T.M.Y ` _ ` ` ` ` ` ` ` P A Y A A -.Y . @ } r.p.p.p.6.w.w.w.t.t.f.b./.'.@X1X1X1X;XoX[.^.l.9.Y A 4.4.4.4.4.4.-.&.-.[ [ [ [ C o # 4 I P P A V B.T.U.T.T.T.",
"T.T.U.U.Y.z _ ` ` ` ` ` _ ` ` ` A P Y V P } V . 3 w.p.p.p.5.} ' ` W T T  .J.`.$X<X1X1X1X,X%X X'.l.8.>.3 4 6 A A P Y U Y ` ` [ -.} Y # @ 3 A P P A C n E.U.U.U.U.",
"T.T.T.W.R.p ' ` ` ` W ` ` ` ` ` A P P 4 Y ` 2 . P U J F Z Z Z J E ] ,.1.e.r.u.p.p.$X1X-X>.>.;.Y Y ` >.>.[ Y P P A A V 6 4 3 4 3 V V 2 o 2 V P A A C x E.U.T.T.T.",
"T.T.T.Q.S.~ ' ` ` ` ` ` ` ` ` Y A P P 3 P P # . &.F F i.u.p.p.p.p.p.p.p.i.y.w.6.4.z.1X[.;.7.;.` ` ` -.4.4.>.>.-.-.[ ` ' ] ` Y V $ 4 V . # 4 P A A A u R.U.T.T.T.",
"U.T.G.- m.G ` ` ` ` ` ` ` ` ` Y A Y A 3 P V @ # >.p.J @.p.r.w.6.6.4.>.>.>.>.>.>.>.k.1X).>.>.-.W ` ` ` [ ' [ [ [ [ ` ` ` ' I A 3 3 } P @ # 3 C A A A 0 F.T.U.T.T.",
"T.T.L.; N.Y ` ` ` ` ` ` ` ` ' P A I A 4 P 3 . 3 w.p.p.8 <.i.;.>.>.>.>.>.>.4.>.4.>.7.<X~.>.>.-.Y ` ` ` ` Y ` Y W ` Y ` ` P A 4 3 [ [ Y # @ 2 4 A A A V B.T.T.T.T.",
"T.T.T.Y.N Y ` ` ` ` ` ` ` W ` G A Y V 3 P 2 . D r.p.p.4.4 q.i.} -.>.4.>.>.>.>.>.>.>.:Xz.>.>.[ Y ` ` ` ` ` ` ' ` ` ` ` D V V 2 ' &.[ ' , o 2 3 A A A C M.R.T.T.T.",
"T.T.T.R.m _ ` ` ` ` ` ` ` _ ` P P Y V 3 A & . P p.p.r.4.-.6 u.r.' ` -.>.4.>.>.>.>.>.%Xk.>.>.` ` W ` ` ` ` ` ` ` ` Y A A V , ` &.[ [ ' 3 . 2 2 V A A C n E.U.U.U.",
"T.T.U.Y.c ' ` ` ` ` ` ` ` ` ` P P P 4 4 A $ . U i.p.w.>.4.[ 6 u.6.' W ` [ -.>.4.>.>.oXk.>.-.` ` ` ` ` ` ` ` ` ` ` A V V 2 Y } [ [ [ [ V . $ 2 V A A C b E.U.U.U.",
"W.U.U.Y.j D P P P A P A P A P V P P 4 4 V # @ Y 0.i.6.>.>.4.' 8 p.>.` ` ` _ ` [ [ -. X8.[ ` ` ` ` ` ` W ` ` ' Y A 3 V , P -.[ [ [ [ [ V . $ 2 4 A A C z R.U.U.U.",
"U.U.U.Y.r B 4 B 6 6 V 6 4 V 4 V P P 4 3 V # + Y 0.1.>.>.>.>.6._ 8 p.>.` ` ` ` W ` _ '.| Y ` ` ` ` ` ` ` ` ` Y V & V 2 A -.[ [ [ [ [ [ V . $ 2 3 A Z C l R.U.U.U.",
"U.U.U.T.r B 6 V V V V V V V V V I P 4 3 6 # o U 0.2.' -.>.4.>.6.Y H p.-.W ` ` ` ` Y ^.{ ` ` ` ` _ ` ` ` ` P V $ V 2 A -.[ [ [ [ [ [ ` V + # 2 3 A A A j T.U.U.U.",
"U.U.U.I.r B V V 6 V 6 V V V 4 V I P 3 3 6 @ @ P 0.*.[ [ [ ;.>.>.6.D R i.' _ ` ` ' ` l.{ ` ` ` ` ` ` ` ` P V # 4 3 V -.[ [ [ [ [ [ [ Y V + # 2 2 Z A A j R.U.U.U.",
"U.U.U.R.u B V B B 6 V V V V V V Y P 3 3 4 @ @ D 1.*.[ [ [ [ } -.;.4.A O.r._ ` ` ` ` o.` ` ` Y ` ` ` ` P V @ 3 4 4 -.[ [ [ [ [ &.[ Y Y V o # 2 2 V A D j R.U.I.U.",
"U.U.U.Y.r B V V V V V 6 6 V 4 V P P 3 3 3 # @ D =.&.[ [ [ [ [ [ [ [ -.3 ,.6._ ` ` ` | ` ` ` ` ` ` ` _ A # 2 4 3 } [ [ [ [ [ [ [ _ Y Y 6 @ # 2 2 C A C j R.U.U.U.",
"U.U.U.Y.r B 6 V V 6 V 4 V V 4 V P P 4 3 3 # @ A Q &.[ [ [ [ [ [ [ [ [ [ 4 1.>._ ` ` ` ` ` ` ` ` ` ` ` A # 3 3 [ [ [ [ [ [ [ [ Y Y Y Y 6 o # 3 2 V A C l R.U.U.U.",
"U.U.U.Y.f B 6 V V V V V V 6 V V P P 4 3 4 # + A E [ [ [ [ [ [ [ [ [ [ -.V @.6.` ` ` ` ` ` ` ` ` W ` ' I 2 $ A -.[ [ [ [ [ [ Y Y Y Y P 4 . $ 2 2 V A C k T.U.U.U.",
"U.U.U.R.x B V V V 6 V V V V V 4 P I B 3 3 $ + A U W &.[ [ } [ [ [ [ [ [ Z r.>.-.Y ` ` ` ` ` ` W ` ` ` P 4 $ 3 [ [ [ [ -.[ Y Y _ Y Y P 3 . $ 2 2 Z A C b E.U.U.U.",
"U.U.U.E.k B V 4 V V V 6 V V V 4 Z P V 2 3 & . V U P [ [ [ [ [ [ [ [ [ Y H i.>.>.` ` ` ` ` ` ` ' ` _ ` Y V $ 2 Y -.[ [ ` Y Y Y Y Y Y P 2 . , 2 2 V G V N Y.T.T.U.",
"U.U.U.R.n 4 V V V 6 V V V 6 V 4 V P V 2 3 2 . 3 Y P ` [ [ [ [ [ [ [ -.A #.r.>.4.-.` ` ` ` ` Y ` ` ` ` Y C , 2 A -.[ ` ` Y Y Y Y Y P A $ @ 2 2 2 V A A V.* T.U.U.",
"T.T.W.E.N.4 V V V 6 B 6 V V V 3 V A V 2 3 3 @ $ I P Y [ [ [ [ [ [ [ } V q.6.>.>.-.Y ` ` ` P A A U ` ` Y A 2 3 6 [ Y Y Y Y _ Y W Y P A # @ 2 2 2 A A V V.C.T.U.U.",
"U.U.U.T.F.0 B V V V 6 V V V V 4 V A V 2 3 3 # # D P P ` &.[ [ [ [ [ _ H p.>.>.>.[ ` ` ` I V V C V A I Y A 4 3 2 P _ _ Y W Y Y _ Y A V @ # 2 2 3 C A 0 F.T.T.T.U.",
"U.T.T.T.I.9 B V B V V V 4 V V 4 V A A 2 2 3 # . A I P P [ [ [ [ [ -.D O.p.>.>.>.` ` ` Y A A A A A C A A A V 2 3 V ` Y Y Y Y Y ` P A 4 . # 2 2 3 A A u R.T.U.T.W.",
"T.T.T.U.R.r B B 6 6 V V 6 V V V 4 A A 3 2 2 $ . 4 I P P Y [ [ [ [ &.6 q.r.>.4.-.W ` ` D V # 3 A C A A V A C 2 4 3 ` Y Y Y Y Y Y A A 2 . & 3 , 3 A C l E.U.T.T.T.",
"T.U.U.U.E.k B V V V V 6 V V V V 4 A A 4 , 2 2 o , Y P P P ` [ [ [ ' Z p.6.>.>.` W ' P B $ # # , V A V A V A 2 B 3 I Y Y Y Y Y G A A # @ 2 2 2 V A C n E.U.U.T.T.",
"U.T.U.U.T.M.4 V 6 V V V V V V V 4 V G V 2 2 2 # o A P P P P ' [ -.P ! p.4.4.-.` ` Y V 2 , V 2 $ $ 4 A C V A 4 3 3 A ` Y Y Y P A A V . # 2 2 2 A A V B.T.U.T.U.U.",
"T.T.T.T.E.F.0 V V V 6 V 4 V V V 4 V A A 2 2 2 # . 3 P A P P P [ -.V <.p.>.>.` ` _ A 2 3 Y -.Y 2 , $ 2 A A A B 3 4 3 ` Y ` Y A Z A 2 . $ 2 2 3 A A i U.T.T.T.T.T.",
"U.U.T.U.T.E.r B V 6 V V V V V V V 4 A A 3 2 2 2 o # A A A A A U ` 6 p.i.>.-.` ` A , 4 ` ` Y ` Y V $ 2 # 4 A A 2 V 3 Y Y P A A A C # @ 2 2 2 4 A C l E.U.T.T.U.T.",
"U.T.U.T.U.E.b & 3 2 2 2 2 3 2 2 2 2 A A B 2 2 2 # . 4 A A A A A V R p.w.>.` ` A , A ` _ Y Y Y Y ` A 2 2 $ 2 A 2 V 3 A Y A A A A 3 . # 2 2 2 V A C M.E.U.U.U.U.U.",
"U.U.U.U.U.E.B.< , , , , , , , 2 , , 6 A A 2 2 2 $ . $ A A A A A 3 ,.p.6.-.` V 2 U ` Y Y Y Y _ Y Y ` Y 3 2 2 $ 2 4 B 3 A A A A Z # o 2 2 2 3 A A 0 U.T.U.U.U.U.U.",
"U.U.U.U.U.U.E.t & 2 2 , 2 , 2 , , , 3 A A 3 2 2 3 # o 4 A A A A 3 u.p.4.I 3 V ` ` Y Y Y Y _ Y W Y Y Y ` C 2 3 # 2 A , A A A A 3 . # 2 2 & 4 A D x E.U.T.U.U.U.T.",
"I.U.U.U.U.U.E.g $ 2 2 2 , 2 , 2 , 2 , Z A V 2 2 2 $ . # A A A V F p.p.P $ A Y Y Y Y Y Y Y Y Y Y Y Y Y Y ` P 3 3 3 A 3 V A A C @ @ & 2 2 2 V A V N.T.T.U.U.U.U.U.",
"U.U.U.U.U.U.U.U.1 2 2 , 2 , 2 , 2 2 $ 4 A A 3 2 2 3 # . 2 A A 3 ,.i.4 2 A A A A P P Y Y Y ` Y Y Y Y Y P P A A 3 & V 4 3 A A , . # 2 2 2 3 A A y T.T.T.I.U.U.U.U.",
"U.U.U.U.T.T.U.E.h & , 2 , 2 , , 2 , , 2 A A 4 2 2 2 & @ @ V A 4 Q 3 4 A A Z A A Z A A A A A P A P A A Z Z A A A V $ 3 2 G 4 o @ 2 2 2 & V A C n E.T.T.U.U.U.T.U.",
"U.U.U.U.U.U.U.U.B.< 2 , 2 , , 2 , 2 2 , 4 A A 3 2 2 3 # . # V # , A A A A A A A A A A A A Z A A A A A A A A A V A A 2 # V @ o $ 2 2 2 3 A A 9 Y.T.T.T.T.U.U.I.U.",
"U.U.U.U.U.W.U.I.E.k 2 , 2 , 2 , 2 , 2 , 2 A A 4 2 2 2 2 # . # 6 A A Z A Z A A Z A Z A A A A A A A A A A A A A A A A D 4 @ . # 3 2 2 2 B A C b E.U.T.T.U.U.U.U.U.",
"U.U.U.U.U.I.K.= I.U.< 2 , 2 , 2 , 2 , 2 , 4 A C 2 2 2 2 2 @ . , A A A A A A A A A A A A A A V A A A Z A Z A A A A A A # . # 2 2 2 2 3 A A y Y.T.T.T.T.U.U.U.U.I.",
"U.U.U.U.T.* C.S.- : b & 2 , 2 , 2 2 , 2 , , Z G 6 , 2 2 2 2 @ . $ A A A A A A A A A A A A A A A A A A A Z A A V A C # . @ 2 2 2 2 & V A V H.E.T.T.T.T.U.U.U.U.U.",
"U.Y.U.T.W.S.U.Q.K.G.R.w 2 2 , 2 , , 2 , 2 , 4 A A 3 2 2 2 2 $ @ + # V P A Z A A Z A Z A A A Z A A Z A A A A A A V # . # & 2 2 3 2 3 A C f E.T.T.U.U.T.U.U.T.T.T.",
"U.U.U.T.T.T.U.U.Q.T.T.B.$ 2 2 , , 2 , 2 , 2 , V A V 3 2 2 2 2 2 @ . @ 4 A A A A A A A A A Z A A A Z A A A A A 3 @ . # 2 2 2 2 2 2 V P 0 F.T.T.T.Y.U.- K.U.T.U.U.",
"U.T.T.T.T.U.T.T.T.T.T.R.h & , 2 , , 2 , , , , , Z A 6 2 2 2 2 2 2 # . + $ V A A A A V A A A A A A A A A A 6 $ o + # 2 2 2 2 3 $ 4 A V n E.U.T.Q.S.- C.C.; T.T.T.",
"U.T.U.T.T.T.T.T.T.T.T.W.E.t & 2 2 , 2 , 2 , 2 , 3 A A 4 2 3 2 2 2 2 $ @ . @ $ 4 V A A A A A A A D A V 4 # o . @ # 2 2 2 2 2 & 3 A C x R.T.T.T.Q.S.P.Q.I.- U.T.T.",
"T.T.T.T.U.T.T.T.T.T.T.T.T.U.e & , 2 , 2 2 , , 2 , 4 A A 3 & 2 2 2 2 2 2 # @ . . # $ 3 4 4 V B 3 3 # # . o @ # 2 3 2 2 2 2 & 3 A C r U.T.T.T.T.T.U.W.U.T.T.T.U.T.",
"T.T.T.T.T.T.T.T.T.T.T.T.T.T.F.< 2 , 2 , , 2 , 2 2 $ 4 A A 3 & 2 2 2 2 2 2 $ # @ o . . . @ . o . . . o @ # 2 2 2 2 2 2 2 2 3 V D 9 F.T.W.T.T.T.T.T.T.T.T.W.T.T.T.",
"T.U.T.U.T.U.T.T.T.T.T.T.T.T.E.N.< 2 , 2 2 , 2 , 2 2 $ V A A 3 2 2 2 2 2 2 2 2 2 $ $ # # @ @ @ # # # & 2 2 2 2 2 2 2 2 $ 3 Z D 0 F.E.U.T.T.T.T.T.T.T.T.T.T.T.U.T.",
"U.T.U.U.U.U.T.T.T.T.T.U.T.T.U.R.N.< & $ , , 2 & , , 2 $ 4 A A 6 2 2 2 2 2 2 2 2 3 2 2 2 2 2 2 2 3 2 2 2 2 2 2 2 2 2 $ 3 A A 9 F.Y.I.* K.I.T.T.U.T.T.T.U.U.U.U.T.",
"T.T.T.T.T.T.T.T.T.T.T.T.W.P.I.Q.E.F.e $ 2 2 2 2 2 2 2 2 , 4 A G V 3 2 2 2 2 2 2 2 2 2 2 2 2 2 2 2 2 2 2 2 2 2 2 & 3 V A C u F.E.- - L.S.; T.T.T.T.T.T.T.T.T.T.T.",
"U.T.T.U.T.T.T.T.T.T.T.L.C.- C.C.U.T.F.f @ # # # # # # # # @ 2 A A A 4 3 2 2 2 2 2 2 2 2 2 2 2 2 2 2 2 2 2 2 2 2 3 A D C f I.Y.U.I.K.W.U.I.U.U.T.T.T.T.T.T.T.U.T.",
"U.U.U.U.T.T.T.T.T.T.Q.L.= U.I.= T.U.U.R.h @ . o o o @ o @ o . # V G A A B 3 2 2 2 & 2 2 2 2 2 2 2 2 2 2 2 3 4 A D C 0 g Y.U.U.U.U.U.U.U.T.U.T.T.T.T.T.T.T.T.U.U.",
"U.U.U.U.T.T.T.U.T.T.T.T.U.U.I.U.U.U.U.U.E.B.t o + o o @ @ @ @ . . & V A A A V V 4 3 2 & 2 2 2 2 2 2 3 6 V A A A V j F.E.U.U.U.U.U.U.T.T.T.T.T.T.T.T.T.T.T.T.I.U.",
"U.U.U.U.U.T.U.T.T.T.T.T.W.U.T.U.U.T.U.U.U.T.Y.M.> @ + + o o o @ @ . @ 2 V A G A A A A V V V V V C A A A A C V f N.Y.I.U.U.U.U.U.U.U.U.T.T.U.T.T.T.T.T.T.T.U.U.U.",
"U.I.U.U.U.U.U.U.T.T.T.T.U.T.T.U.U.U.U.U.U.I.U.T.E.B.d > @ + + + + + @ o @ # 3 B A A A A D A A A A C C V y k F.E.T.U.U.U.U.U.U.U.U.U.U.T.T.T.T.T.T.T.T.U.U.U.U.U.",
"U.U.U.U.T.T.U.T.T.T.T.T.T.U.U.U.U.U.U.U.U.U.U.U.W.E.E.U.N.h d > O O O % % @ O % # < 3 0 0 0 0 9 y f n B.T.E.T.T.T.T.U.U.U.U.U.U.U.U.U.T.T.U.T.T.T.T.T.U.U.U.U.U."
};
