/* XPM */
static char *New_Project__4__resized[] = {
/* columns rows colors chars-per-pixel */
"80 80 196 2 ",
"   c #976900",
".  c #9D6E00",
"X  c #9F7100",
"o  c #9E7D0D",
"O  c #A06D00",
"+  c #A27400",
"@  c #A47903",
"#  c #AB7D00",
"$  c #A07908",
"%  c #B17E00",
"&  c #6FB656",
"*  c #6EBA5A",
"=  c #72B755",
"-  c #74B956",
";  c #7CBB56",
":  c #74BA58",
">  c #7CBC58",
",  c #7BB759",
"<  c #9F850A",
"1  c #9F8818",
"2  c #AE8101",
"3  c #AB8508",
"4  c #B18300",
"5  c #B68900",
"6  c #BB8C00",
"7  c #B69700",
"8  c #BE9101",
"9  c #BB9B02",
"0  c #BC990C",
"q  c #B8960A",
"w  c #A88C11",
"e  c #A69119",
"r  c #B79C14",
"t  c #B19D1A",
"y  c #B59610",
"u  c #BEA819",
"i  c #9D9F30",
"p  c #9A9C26",
"a  c #AA9E22",
"s  c #A59921",
"d  c #9CA42C",
"f  c #87AA3D",
"g  c #9FA534",
"h  c #ABA225",
"j  c #A4A62E",
"k  c #A8A52A",
"l  c #ACAB2C",
"z  c #B9AC22",
"x  c #B1AF2C",
"c  c #B4A823",
"v  c #B4B22D",
"b  c #A2A632",
"n  c #A4AA34",
"m  c #A1AC39",
"M  c #AAAE33",
"N  c #AAB135",
"B  c #A3B13C",
"V  c #A3BC3F",
"C  c #B2B532",
"Z  c #C28E00",
"A  c #C29300",
"S  c #CA9600",
"D  c #C59A00",
"F  c #CB9B00",
"G  c #D29E00",
"H  c #C4A301",
"J  c #CDA200",
"K  c #CBAA01",
"L  c #C8A008",
"P  c #C9AC07",
"I  c #D3A400",
"U  c #D9A600",
"Y  c #D4A904",
"T  c #DCAC00",
"R  c #D1AB09",
"E  c #CFB300",
"W  c #D3B301",
"Q  c #DBB300",
"!  c #DBBC01",
"~  c #DCB90B",
"^  c #D1B30C",
"/  c #CBAC10",
"(  c #C2AC19",
")  c #C2A512",
"_  c #C8B81F",
"`  c #E2AE00",
"'  c #E2B200",
"]  c #E8B300",
"[  c #E5BB01",
"{  c #EBBB00",
"}  c #F1BE00",
"|  c #E3B714",
" . c #B8C42E",
".. c #DDC900",
"X. c #D6C500",
"o. c #D9D20D",
"O. c #C9CF18",
"+. c #E5C101",
"@. c #EBC200",
"#. c #E4C802",
"$. c #ECCA00",
"%. c #F3C300",
"&. c #FBC600",
"*. c #F4CA00",
"=. c #FECD00",
"-. c #FDCE08",
";. c #E4D102",
":. c #EBD200",
">. c #E7DB00",
",. c #ECDA01",
"<. c #F6D301",
"1. c #FFD300",
"2. c #F4DC00",
"3. c #FEDB01",
"4. c #F7D60A",
"5. c #E8C418",
"6. c #ECE305",
"7. c #F4E500",
"8. c #FEE300",
"9. c #F0EC00",
"0. c #FFEC00",
"q. c #FFE20E",
"w. c #FFE90E",
"e. c #FDF400",
"r. c #FFFE01",
"t. c #FFF808",
"y. c #F5F201",
"u. c #F0E810",
"i. c #FFFD1D",
"p. c #FEFF13",
"a. c #FFDC21",
"s. c #E8D424",
"d. c #FFF423",
"f. c #FFFF27",
"g. c #FEF729",
"h. c #FFE73C",
"j. c #8BB94E",
"k. c #9DB344",
"l. c #94B94D",
"z. c #9ABA4D",
"x. c #83BE56",
"c. c #8ABF56",
"v. c #84BE58",
"b. c #8CBF58",
"n. c #97BE54",
"m. c #99BD52",
"M. c #95BD58",
"N. c #A0B341",
"B. c #A3BA43",
"V. c #DABC5D",
"C. c #95C24F",
"Z. c #86C057",
"A. c #8CC156",
"S. c #86C05A",
"D. c #8CC259",
"F. c #94C356",
"G. c #9AC457",
"H. c #95C45A",
"J. c #9BC558",
"K. c #97C85D",
"L. c #99C95D",
"P. c #9EC857",
"I. c #A0C657",
"U. c #A0C857",
"Y. c #A0C658",
"T. c #DED95C",
"R. c #E1CB51",
"E. c #F4DD5B",
"W. c #FFE742",
"Q. c #FFEC41",
"!. c #FDE548",
"~. c #FEFF42",
"^. c #FEF44F",
"/. c #FFF850",
"(. c #FFFF5E",
"). c #DDCD7A",
"_. c #FFE470",
"`. c #FFEC75",
"'. c #FFFF77",
"]. c #FFF77C",
"[. c #BDC580",
"{. c #FEF88A",
"}. c #FDE994",
"|. c #FEFE90",
" X c #FFFF98",
".X c #FEFDBA",
"XX c #FEF3B7",
"oX c #FEFFC5",
"OX c #FFF9CF",
"+X c #FFFCD6",
"@X c #FBF4DC",
"#X c #F0EBE8",
"$X c #FFFFE1",
"%X c #FFFFED",
"&X c #FFFEF5",
"*X c #FFFFFE",
/* pixels */
"G.G.G.G.H.G.G.G.J.J.J.J.J.J.J.G.G.G.G.G.G.G.G.G.G.J.J.J.J.J.L.B ) Y Y Y Y Y Y Y Y Y Y I L ! $.~ N K.J.J.J.J.J.G.G.G.G.G.G.G.G.G.G.G.G.J.J.J.J.J.J.J.G.G.G.G.G.G.",
"G.G.G.G.G.J.G.G.J.J.J.J.J.J.G.G.G.G.G.G.G.G.G.G.G.F.J.J.P.S.d T ' ' ' ' ' ' ' ' ' ] T ! 3.8.3.3.&.( G.J.G.J.G.J.G.G.G.G.G.H.G.G.G.J.G.J.J.G.J.J.J.J.G.G.b.x.G.G.",
"G.G.G.G.G.J.G.J.J.G.I.J.J.J.J.G.G.G.G.G.G.G.G.n.J.J.J.G.: j ] { ] { ] ] [ { ] [ { ' Q 3.3.3.3.3.1.=.z H.G.G.G.G.G.G.G.G.H.G.G.G.G.G.J.J.J.J.J.J.G.G.J.: Z.; ; A.",
"G.G.G.G.J.J.G.G.Y.G.A.J.J.J.G.G.G.G.G.G.G.G.G.G.J.F.J.H.f %.1.=.1.=.=.1.=.=.=.=.1.{ 3.8.3.8.3.3.=.=.&.N K.Y.G.G.G.M.G.G.G.G.G.G.G.J.J.J.J.G.J.J.J.G.G.> F.G.> A.",
"G.G.G.J.J.J.G.J.D.D.& A.b.G.G.G.G.G.J.J.J.G.J.J.J.J.G.n.| 1.=.=.=.=.=.=.=.=.=.1.%.$.3.8./.i.r.0.=.=.1.[ z.K.G.G.J.G.G.G.G.G.G.G.J.J.J.J.J.J.J.J.J.J.J.J.G.G.P.G.",
"H.G.J.G.J.J.G.Y.> > F.Z.: G.G.G.G.G.J.G.J.J.J.J.J.J.K.C =.=.=.=.1.=.=.=.=.=.=.=.@.3.8.(.+Xr.r.r.e.1.=.=.c K.G.G.G.J.J.J.G.Y.G.G.J.J.J.J.J.J.J.J.J.J.P.G.G.G.G.G.",
"G.J.J.J.J.J.J.J.F.F.Y.G.F.P.G.G.J.J.J.J.G.J.J.J.J.J.n.[ =.=.=.=.=.=.=.=.=.=.1.%.*.8.g.*X^.0.8.3.8.0.=.1.Q z.L.G.J.J.J.G.G.G.H.Y.J.J.J.J.J.J.J.J.J.J.J.J.J.J.J.J.",
"G.J.J.J.J.J.J.J.J.J.G.G.J.J.J.J.J.J.J.J.J.J.J.J.G.K.C =.1.=.1.=.=.1.1.1.=.1.1.[ <.0.$XXX3.3.<.3.1.1.3.=.} x K.G.J.J.J.F.F.= c.n.J.J.J.J.J.J.J.J.J.J.J.J.J.J.J.J.",
"J.J.J.J.J.J.J.J.J.J.J.J.J.J.J.J.J.J.J.J.J.J.J.J.J.M.o.r.e.r.r.r.r.r.r.e.r.r.y.#.3.{.&Xq.$.K 9 K @.=.1.1.&./ G.J.J.J.J.x.: c.x.= J.J.J.J.J.J.J.J.J.J.J.J.J.J.J.J.",
"J.J.J.J.J.J.J.J.J.J.J.J.J.J.J.J.J.J.J.J.J.J.J.J.L.V e.r.r.r.r.r.r.r.r.r.r.r.6.*.0.oXh.+.7 7 7 7 @ U 1.=.%.` k.K.G.J.J.G.A.Y.F.c.J.J.J.J.J.J.J.J.J.J.J.J.J.J.J.J.",
"J.J.J.J.J.J.J.J.J.J.J.J.J.J.J.J.J.J.J.J.J.J.J.J.C.).&X%X%X%X%X%X%X%X%X%X%X&XR.<.t.w.$.9 H +.D +.5   { 1.%.{ z K.G.J.J.J.G.G.G.G.J.J.J.J.J.J.J.J.J.J.G.J.J.J.J.J.",
"J.G.G.G.G.G.J.J.J.J.J.J.J.J.J.G.G.G.G.G.J.G.G.J.j.T. X|.|.|.|.|.|.|.|.|. X{.5.8.e.3.H H <.8.7 0.<.@ # =.%.} R G.G.G.G.G.G.G.G.G.G.G.G.J.J.J.J.J.J.J.G.H.G.G.G.G.",
"J.J.J.J.J.J.J.J.J.J.J.J.J.J.J.J.J.J.J.J.G.G.G.K.l.y.r.r.r.r.r.r.r.r.r.r.r.9.{ e.0.+.9 *.e.y.# 9.r.@.. U &.{ ' k.L.G.J.J.J.J.J.J.J.J.J.J.J.J.J.J.J.J.J.J.G.G.J.J.",
"G.G.J.G.G.G.G.J.J.J.J.J.J.J.J.J.G.G.G.J.J.G.c.b. .r.r.r.r.r.r.r.r.r.r.r.r.;.$.e.8.H ! e.'.u.+ :.3.1.F + ] @.{ x K.G.G.G.G.G.G.G.J.J.J.J.J.J.J.J.J.J.J.J.H.G.G.G.",
"G.G.G.J.G.G.; F.J.J.J.J.J.J.J.G.J.G.G.G.A.x.; , O.r.r.r.r.r.r.r.r.r.r.r.r.! 2.e.@.9 3.].oX>.5 [ 3.=.&.@ A ] } ( G.J.G.J.G.J.J.G.G.J.J.J.J.J.J.J.J.J.J.J.G.G.G.G.",
"G.G.G.G.> > ; x.; G.J.J.J.G.J.G.G.G.G.Y.x.; F.n.+.3.3.1.1.3.1.1.1.3.1.3.*.T 7.0.K ! d.*X~...S Q 3.=.1.D # T } R n.J.G.G.G.G.G.G.G.J.J.J.J.J.J.J.J.J.J.G.G.G.G.G.",
"G.G.G.G.x.c.Y.A.Z.G.J.J.G.J.J.G.G.G.G.J.G.G.F.B.&.=.=.=.=.=.=.=.=.=.=.=.{ T 0.3.H <..X.Xr.W T J 1.=.1.{ @ G { T k.K.G.G.G.G.G.G.G.G.H.G.J.G.J.J.J.J.J.J.G.G.G.G.",
"G.G.G.G.J.G.G.G.J.J.J.J.J.G.J.G.G.G.G.G.G.G.H.v =.1.=.=.=.=.=.=.=.=.=.1.] Q 0.#.K Q.%Xp.0.J [ A 1.=.=.1.5 6 ' ] n K.G.G.G.G.G.G.G.J.G.G.J.J.J.J.J.J.J.J.G.G.G.G.",
"G.G.G.G.G.G.J.G.G.G.J.G.J.G.J.G.G.G.G.G.G.G.H._ 1.=.1.=.=.=.=.=.=.1.1.1.T [ 0.Y ! .X~.r.3.D *.A =.=.=.1.J 2 T ] u H.G.G.G.G.G.G.G.J.J.J.J.G.J.J.G.x.D.J.G.G.G.G.",
"G.G.G.G.G.G.J.J.G.P.G.G.J.G.G.G.G.G.G.G.G.J.H./ { ] { { { { { { { { { ] J [ 3.K 4.i.r.0.<.H 1.6 %.1.=.1.' # U ' r G.G.G.G.G.M.G.G.J.G.J.J.J.G.F.; > > ; A.G.G.G.",
"G.G.G.G.J.J.H.G.F.A.: A.F.F.G.G.G.n.G.G.G.J.m.Y ' ` ' ` ` Q ' T ` T ' U I @.<.K 8.r.r.8.$.K 3.Z { 1.=.1.%.# F ' D m.G.G.G.G.G.G.G.G.J.J.J.J.G.F.> G.G.> G.G.G.G.",
"G.G.G.G.G.J.G.Y.; ; A.v.- G.J.G.G.G.G.G.G.F.k.U ' Q ' ' ' ' ' ' ' ' ] T U *.[ W e.r.0.3.5.^ 3.F ' 1.=.=.&.5 8 T J z.F.G.G.G.G.G.G.J.G.J.J.P.G.J.P.G.J.G.G.G.G.G.",
"G.G.G.G.J.J.G.I.H.F.U.F.A.G.J.G.G.G.G.G.G.K.N ` ' ' ' ' ' ' ' ' ' ' ' Y U *.F X.r.r.8.3.E.s.1.U U 1.=.=.&.A 5 T G k.K.G.G.G.G.H.G.J.G.J.J.J.J.J.G.G.G.J.G.G.G.G.",
"G.G.G.G.G.J.J.J.J.J.J.J.J.J.J.G.G.G.G.G.G.K.x ' ' ' ' ' ' ' ' ` ' ' ' I U &.6 $.r.e.3.3.+X`.=.T I 1.=.=.%.J # U I n H.G.G.G.G.G.G.J.G.J.J.J.J.J.G.G.P.J.G.G.G.G.",
"G.G.G.G.J.J.J.G.J.J.J.J.J.J.G.G.G.G.G.G.G.H.z ] ' ' ' ' ' ' ' ' ' ' ' I T $.% 2.r.8.3.{.*X&X_.| A 1.=.=.} Q @ I U h K.G.G.G.G.G.G.J.J.J.J.G.J.J.J.J.J.J.G.G.G.G.",
"G.H.G.G.J.J.J.J.J.J.J.J.J.J.J.G.G.G.G.H.G.H.u ' ' ' ' ' ' ' ' ' ' ' ' G T ' % 0.r.!.+X*X&X*X*X@XV.-.1.&.} ] @ S U t K.G.G.G.G.I.G.J.J.J.J.J.J.J.J.J.J.J.J.J.G.J.",
"G.G.G.G.J.J.J.J.J.J.J.J.J.J.J.J.G.G.G.G.J.G./ ] ' ' ' Q ' ' ' ' ' ' Q F Q U 5 r.e.3.!.OX*X*X}.5.D &.=.&.{ { 4 6 ` y H.I.H.Y.G.x.G.J.J.J.J.J.J.J.J.J.J.J.J.J.G.G.",
"J.J.J.G.G.J.J.G.J.J.J.J.J.J.J.J.J.J.G.G.J.n.R ] ' ' ' ` ` Q ' ' ' ' T A U A F r.0.8.8.4.#XOX&.{ A { 3.=.{ %.5 4 U 0 M.J.G.; x.: x.c.I.J.J.J.J.J.J.J.J.J.G.J.J.J.",
"H.G.H.G.G.G.G.P.J.J.J.J.J.J.J.G.G.G.G.G.J.z.Y ] ' ` ' ' ' ' ' ' ' ' T A U 5 Q r.*.Q Y 8 ).`.&.{ U 5 I U Q %.A # U 0 F.J.Y.; c.G.> x.I.J.J.J.J.J.J.J.J.J.G.G.G.G.",
"J.G.J.G.Y.G.G.G.J.J.J.J.J.J.J.J.J.J.J.G.L.k.U ' Q ' ' ' ' ' ' ' ' ] T D I 5 8 K D W ,.e.f.a.=.' &.[ I A 6 6 5 # I A z.J.G.G.G.G.J.G.J.J.J.J.J.G.J.J.J.J.J.J.J.J.",
"J.G.J.J.b.A.Y.G.J.J.J.J.J.J.J.J.J.G.J.G.L.N.` ' ' ' ` ' T ' ' ' ' ' U F F 4 # ;.r.r.r.8.1.1.=.Q %.1.&.[ ] D + # F A z.P.G.G.G.G.G.J.J.J.J.P.G.x.J.J.J.J.J.J.G.G.",
"G.Y.F.x.> x.x.F.J.J.J.J.J.J.J.G.J.G.G.G.L.B ` ' ' ' ' ' ' ' ' ' Q ] U F D 4 ! X.e.1.=.=.=.=.=.' ] { ] ' ` 5 A # S F k.L.G.G.G.G.J.G.G.J.G.v.x.: A.x.G.J.G.G.G.G.",
"J.J.A.- F.F.: F.J.J.J.J.J.J.G.F.x.; G.G.K.N ` ' ' ' Q ' ' ' ' ' ' ] U D A # 7.K 1.=.=.1.=.=.&.' ' Q ' ' I 5 T # 6 F N.L.J.J.J.J.J.J.J.J.G.; D.J.x.; J.J.J.J.J.H.",
"J.J.J.G.J.G.G.G.J.J.J.J.J.J.F.- x.x.= c.L.N ` ' ' ' ' ' ' ' ' ' ' ' I F 8 # r.E ! =.=.=.=.1.&.' ' ' ' ' 6 A ] @ 6 S m L.J.J.J.J.J.J.J.J.J.J.J.I.J.J.J.J.J.J.J.J.",
"J.J.J.J.J.J.G.G.J.J.J.J.J.J.G.x.G.Y.x.G.K.x ` ' ' ' ' ' ' ` ' Q Q ' I F 6 4 e.@.K *.&.=.=.=.&.` ' ' ' U 4 T { @ 5 S n L.G.J.J.J.J.J.J.J.J.J.G.J.J.J.J.J.J.J.H.G.",
"J.J.G.J.J.J.J.J.J.J.J.J.J.J.G.J.G.G.I.G.K.x ] ' ] ' ' ] ' ' ] ' ] ] Y F 5 4 e.1.H @.' *.=.1.%.Q ' ' ' A 5 { ] # 5 F n L.G.H.J.J.J.J.J.J.J.J.J.J.J.J.J.J.J.G.G.G.",
"G.G.G.G.G.J.J.G.J.J.J.J.J.J.J.J.G.G.G.G.K.k G I J I F I I F I G F I F F 5 4 7.3.I ! { ' { %.' ` ' ' U 4 D %.[ # 5 S n K.Y.G.G.G.G.J.J.J.J.J.J.J.J.J.J.J.G.G.G.G.",
"G.G.G.G.G.J.G.J.J.J.J.J.J.J.G.G.G.G.G.F.K.h Z 6 8 6 8 6 8 6 6 8 A 8 8 F 4 5 ,.1.{ K %.T ' Q ' ' ' ' A # T %.{ 2 4 F j L.n.G.G.G.G.G.G.J.J.J.J.J.J.J.J.J.G.G.G.G.",
"G.G.G.G.G.J.G.J.J.J.J.U.J.J.G.G.G.G.G.G.K.h Z A A A A A A A A A A A 8 F 2 5 :.&.1.D @.` ' ' ' ' ] T 4 6 { { { 2 4 S d D.; x.A.F.G.J.G.J.J.J.J.J.J.J.J.G.G.G.G.G.",
"G.G.G.G.J.J.G.G.J.U.F.x.G.J.J.G.G.G.G.G.L.a Z 8 A A A A A 8 A A A 6 A F 4 4 $.{ 1.Y Y { ' ' ' ' ' F @ F %.{ ' # 4 S d * A.A.& F.G.J.J.J.J.G.J.J.J.J.J.J.G.G.G.G.",
"G.G.G.G.G.G.G.G.P.x.x.: Z.x.Y.G.G.G.G.I.J.a Z A A A A 8 A A Z 8 A 8 A F 4 2 $.{ %.} K { ` ' ' ' ` 4 # ' { { T 2 4 S j D.J.G.F.H.G.J.G.J.J.G.J.J.J.J.J.G.G.G.G.G.",
"G.G.G.G.G.G.G.G.G.; A.J.v.v.J.G.G.G.G.m.K.a Z A A 6 A A 8 Z A A A A A F 4 4 +.{ { { D [ ' ' ' ' U # 5 } { { T 2 # S k K.G.G.G.G.G.J.J.J.J.J.J.J.J.J.J.G.G.G.G.G.",
"G.G.G.G.G.G.G.G.G.P.G.Y.G.G.J.G.G.F.G.G.K.h Z A A A A A A 8 A 8 A A Z F 4 # [ { { %.J J { Q ' ' T # J @.{ ] U 2 4 S j K.G.G.G.G.G.G.G.J.J.J.J.J.J.J.G.G.G.G.G.G.",
"G.G.G.G.G.G.G.G.J.J.G.J.G.J.G.G.G.G.G.G.K.h A A A 8 A 8 A A A A 8 A 8 F 4 # [ } { @.U J { T ' ' T # U %.{ Q U # 4 S b K.G.G.G.G.G.J.J.J.J.G.J.J.J.J.H.G.G.G.G.G.",
"G.G.G.H.G.H.G.J.J.J.J.J.G.H.J.G.G.G.G.G.K.k Z A A Z 8 A A A A 6 A A Z F 4 # Q { { %.J Q { ' ' ' ' # F %.] Q U @ 4 S n L.F.G.G.G.G.J.J.J.J.J.J.P.J.G.G.G.G.G.G.G.",
"G.J.G.J.H.J.J.G.J.J.J.J.G.J.J.J.G.G.G.G.K.j Z A A 8 A A A A A A A A 6 F 5 # T { { } D [ &.T ' ' ' 2 A %.T T U @ 4 S m L.G.G.G.G.J.J.J.J.J.J.J.G.G.H.; A.G.G.G.G.",
"G.G.G.G.J.J.J.J.J.J.J.J.G.J.J.J.G.G.J.G.L.n Z A A A A A 8 A A A 6 A 6 D 5 # I { { %.D @.%.T ' ' ' 4 6 { U ' G @ 4 A m L.G.G.G.G.J.J.J.J.J.J.G.U.> ; x.x.- G.G.G.",
"J.J.J.J.J.J.J.J.J.J.J.J.J.J.J.J.J.J.J.J.L.n Z 8 A 8 A 8 Z A 8 A A A 6 A 5 @ F ] { { D <.%.' U I ] 6 5 ] T ` F + 5 S N.J.G.G.G.Y.J.J.J.J.J.J.G.G.A.A.U.F.x.J.J.J.",
"G.G.G.G.H.G.G.J.J.J.J.J.J.J.J.J.G.J.G.G.K.m Z A 8 A 8 A A A A A A A Z A 5 # F ' @.{ D 3.} ' F A Y A # T T ` D @ 5 A N.K.G.G.G.G.G.P.F.> G.G.J.J.J.P.J.J.Y.G.G.G.",
"G.J.G.J.J.J.G.J.J.G.J.J.J.J.J.G.G.J.J.G.K.B Z A A A A A 8 Z 8 A A A 6 A 5 @ D ' { ] H 3.{ T F S F A # Y ` Q A @ 5 A z.L.G.G.G.G.G.> x.> Z.x.U.J.J.J.J.J.J.J.G.J.",
"J.J.J.J.J.J.J.G.G.: c.F.G.J.J.J.J.J.J.G.L.k.6 A A A 8 A A A A 8 A A 6 A 5 @ A T { ' K 3.] U 5 A F S # I T U 6 @ 6 A m.I.J.J.G.G.G.x.A.U.Z.> G.J.J.J.J.J.J.J.J.G.",
"J.J.G.J.J.J.J.v.: A.x.: J.J.J.J.J.G.J.G.F.c.6 A 6 8 A A 8 A A A A A 6 Z Z @ A U { U W 1.] F . 5 F A # F ` U 5 @ 6 A n.L.G.G.J.G.G.G.G.G.J.J.G.G.J.J.J.J.G.J.G.G.",
"G.G.G.G.G.G.Y.M.D.P.F.A.G.J.J.G.J.G.G.J.x.= 0 A A A A 8 A A A A 8 A 6 8 6 # 5 U [ F ! 1.' 5 @ # A F # A ' I 4 # Z 0 G.J.G.G.G.G.G.G.J.J.J.J.J.J.J.J.J.J.J.J.H.G.",
"J.J.J.J.G.L.G.L.J.J.J.J.G.J.J.J.J.J.J.J.G.M.y Z A A A A 8 A 8 Z A A A 6 A # # F ` F #.=.Y 4 U # 5 F 4 A ` F 2 # Z r H.G.J.J.G.L.J.G.J.J.J.J.J.J.J.J.J.J.J.J.J.J.",
"G.G.G.G.G.G.G.J.J.J.J.J.J.J.J.J.J.G.J.G.G.G.t Z A A A A A A A A A A A 6 A # # D J 8 :.&.A 8 { A @ A 5 Z U D # # Z t K.G.G.G.Y.G.G.G.J.J.J.J.J.J.J.J.J.J.J.J.G.J.",
"G.J.G.J.G.G.G.I.J.J.J.J.J.J.J.G.G.J.G.G.G.J.s 4 4 4 5 4 4 5 4 5 5 4 5 5 A 2 @ D F 5 2.] 4 U T U # % 6 5 I A @ 2 Z h J.G.G.Y.H.b.G.G.H.J.J.J.J.J.J.J.J.J.J.J.G.G.",
"F.G.G.G.G.J.G.J.J.J.J.J.J.J.J.J.n.G.G.G.G.F.j # 2 2 4 # 2 2 2 2 # 4 # 4 A 4 @ Z F 8 0.S 8 ' T ' F @ 5 4 F Z @ 4 A n K.G.G.x.A.= x.A.I.J.J.J.J.J.J.G.H.G.G.G.G.G.",
"G.G.G.G.J.J.G.G.J.J.J.J.J.J.J.G.G.G.G.G.G.L.g % 4 4 4 4 4 4 4 4 4 4 4 4 D 5 # 5 A H 2.4 T T T T T 4 # % F 5 @ 5 A N.J.G.G.- x.G.; x.I.J.J.J.J.J.J.G.H.G.G.G.G.G.",
"G.G.G.G.G.J.G.J.J.J.J.J.J.J.G.G.G.G.G.G.G.F.k.% 4 2 4 2 4 2 4 2 2 4 4 2 A 5 # 4 A E W 6 ' T Q T ` F 2 4 A 4 # 5 A z.K.G.G.F.F.G.H.J.G.J.J.J.J.J.J.J.G.G.F.G.G.G.",
"G.G.G.G.G.J.G.G.J.J.J.J.J.J.J.G.G.G.G.G.G.J.m.3 4 2 2 4 2 4 2 4 4 2 2 # A 5 # # 6 H 6 F I U T ` U I 4 # Z # # 6 D M.J.G.G.G.G.G.G.J.J.J.J.J.J.J.J.J.G.G.G.G.G.G.",
"G.G.G.G.G.J.G.G.J.J.J.J.J.J.G.G.G.G.G.G.G.G.J.e % 2 4 4 4 2 4 2 4 4 4 # 6 Z 4 @ 5 + A F S F I F F F A @ 5 @ % Z r G.G.G.G.G.G.G.G.G.G.J.J.J.J.J.J.J.J.G.G.G.G.G.",
"G.G.G.G.J.J.G.G.G.J.J.J.J.J.J.G.G.G.G.G.G.G.K.e % 4 4 2 4 2 2 4 2 4 4 # 5 A 4 @ + 5 F F F D F D F F F 5 O @ 4 Z a J.G.G.G.G.G.G.G.J.G.J.J.J.J.J.J.J.J.G.G.G.G.G.",
"G.G.G.G.J.G.G.F.G.J.J.J.J.J.G.G.G.G.G.G.G.G.L.g % 2 2 4 2 4 2 4 4 2 4 4 5 A 4 % + A F F F F F F F F F F @ # 5 A n J.F.G.G.G.G.G.G.G.G.J.J.J.J.J.J.J.J.G.G.G.G.G.",
"G.G.G.G.J.F.A.- F.G.J.J.J.J.J.G.G.G.G.G.G.F.J.k.2 4 4 2 4 2 4 4 2 4 4 4 # A 5 % + A F D F F F F F F F A + % 5 A z.J.F.G.G.G.G.G.G.J.J.J.J.G.J.J.J.J.J.G.G.G.G.G.",
"G.G.G.G.Y.: x.c.; ; G.J.J.G.G.G.G.G.G.G.G.G.J.z.3 4 2 4 2 2 4 2 4 2 4 4 # A 5 4 @ 4 F F F D F F F A F 4 @ 4 5 A n.G.G.G.G.G.G.G.G.J.J.J.J.J.J.J.J.J.J.J.G.G.F.J.",
"G.G.J.J.G.b.G.G.H.D.G.J.J.J.J.J.J.J.J.G.G.P.G.L.e % 4 2 4 4 2 4 4 2 2 4 2 5 A 4 % + S F F F F F F F A + # 5 6 u H.Y.G.G.J.J.J.J.G.J.J.J.J.G.J.J.J.J.J.J.G.G.J.J.",
"G.G.H.G.J.J.G.J.J.J.J.J.J.J.J.J.J.G.G.J.G.G.G.L.j % 2 4 2 4 4 2 2 4 2 4 2 4 A 4 4 + 4 F F F F F F F 4 + 4 4 Z j K.G.G.G.G.G.J.G.J.G.J.J.J.J.J.J.J.J.; A.G.J.J.J.",
"G.H.G.G.J.J.G.J.J.J.J.J.J.J.J.J.J.J.J.J.G.G.G.L.k.# 4 2 4 4 2 4 4 2 4 4 4 2 A 5 4 # X A F F F F F A + # 5 4 A k.L.G.J.J.J.J.J.J.J.J.J.J.J.J.J.I.x.; > x.- J.J.J.",
"J.J.J.J.J.J.J.J.J.J.J.J.J.J.J.J.J.J.J.J.J.J.G.A.x.3 4 4 2 4 2 4 4 2 4 2 4 # 8 Z 4 4 + + A J F F A + + 4 % 6 0 M.Y.G.J.J.G.G.G.G.J.J.G.J.J.J.J.Y.A.Z.I.G.> G.J.J.",
"J.J.G.J.J.J.J.J.J.J.J.J.J.J.J.J.J.G.J.J.J.G.G.& S.p % 4 4 2 2 4 2 4 2 4 4 2 5 A % 5 % . + 5 Z 5 + + # 5 4 Z h L.G.J.J.J.G.G.G.Y.J.G.J.J.J.J.J.J.G.Y.G.J.G.G.J.J.",
"J.J.J.J.J.J.J.J.J.J.J.J.J.J.J.J.J.J.J.J.J.G.G.F.L.k.# 4 4 2 4 2 4 2 2 4 4 2 4 A 5 4 4 # + . . . . # 5 % 5 A N.L.G.J.J.J.J.J.G.L.J.J.J.J.H.J.J.J.J.J.J.J.J.J.J.J.",
"J.G.J.G.J.G.J.J.J.J.J.J.J.J.J.J.J.G.J.G.H.G.G.Y.J.J.w 4 2 4 2 4 4 2 4 2 4 4 # 6 A # 4 5 # @ + @ # 5 4 # Z 0 H.J.G.J.G.J.G.J.G.G.J.J.G.G.Y.J.J.J.J.J.J.J.J.G.G.J.",
"G.J.G.G.G.G.J.J.J.J.J.J.G.G.G.J.J.G.G.G.G.G.G.G.G.L.b % 4 4 2 4 4 2 4 2 2 4 4 4 S 5 4 4 4 5 4 4 4 4 4 4 A j L.G.G.G.G.G.G.G.G.G.H.F.& A.F.J.J.J.J.J.J.J.G.G.G.J.",
"J.J.J.J.J.J.J.J.J.J.J.J.P.A.F.I.J.J.J.G.J.J.J.G.J.P.m.3 4 2 4 4 4 % 4 4 4 4 4 # A A 4 4 4 4 4 4 4 4 4 Z A m.Y.L.G.G.Y.L.G.G.G.I.; ; A.v.- G.J.J.J.J.J.J.J.J.J.J.",
"G.G.J.J.J.J.J.J.J.J.I.D.x.: x.x.J.G.H.G.J.G.G.H.J.G.L.g + @ + @ @ @ @ @ @ @ @ @ # F 5 % 4 5 4 4 4 4 5 S h K.G.L.G.G.G.G.G.G.G.G.A.F.G.J.H.G.J.J.J.J.J.J.G.J.G.G.",
"G.G.G.G.J.J.J.J.J.J.I.b.- G.F.: J.G.G.G.G.G.G.G.J.J.J.J.o O X X X + O X . + O + . A F 5 % % 4 4 4 4 S q m.I.G.J.G.G.G.G.G.G.G.G.G.J.G.J.G.G.J.J.J.J.J.J.G.H.G.G.",
"G.G.G.G.G.G.J.G.J.J.J.J.G.G.G.F.G.G.G.G.G.G.G.G.G.J.G.L.k.O + + X + X X + X X + + @ S F 5 5 4 4 5 F S m K.G.G.G.H.G.G.G.H.G.G.G.G.G.G.J.J.J.J.J.J.J.J.J.J.J.G.G.",
"G.G.G.G.G.G.G.G.J.J.J.J.G.G.J.G.G.G.G.G.G.G.G.G.J.J.G.G.K.i O . X + + X X + X + + . # F F F A A F S a K.G.G.G.G.G.G.G.G.G.G.H.G.G.J.J.J.J.J.J.J.J.J.J.J.J.G.G.G.",
"G.G.G.G.G.H.G.J.J.J.J.J.G.J.G.G.G.G.G.G.G.G.G.G.G.J.J.G.G.L.i O + X X + . + + . X + . # F F F F S a H.I.G.G.G.G.G.m.G.G.G.G.G.G.G.J.G.J.J.J.J.J.J.J.J.J.G.G.G.G.",
"G.G.G.G.G.H.G.G.J.J.J.J.J.G.J.G.G.G.G.G.G.G.G.G.G.J.J.J.G.J.L.k.1 $ X $ $ X $ $ $ $ $ X $ 5 q y n K.J.G.G.Y.G.G.G.G.G.G.G.G.G.G.G.J.G.J.J.G.J.J.J.J.J.G.F.G.G.G."
};
