/* XPM */
static char *New_Project__3__resized[] = {
/* columns rows colors chars-per-pixel */
"80 80 217 2 ",
"   c #946600",
".  c #966900",
"X  c #9C6E00",
"o  c #9F7100",
"O  c #9F7B0B",
"+  c #A16E00",
"@  c #A27400",
"#  c #A67900",
"$  c #AB7D00",
"%  c #A07B09",
"&  c #B17E00",
"*  c #73B956",
"=  c #7CBB56",
"-  c #73BA59",
";  c #7DBD58",
":  c #70B754",
">  c #6FB656",
",  c #9E8A19",
"<  c #9D9519",
"1  c #AF8000",
"2  c #AA860B",
"3  c #A78709",
"4  c #B18300",
"5  c #B68900",
"6  c #BB8C00",
"7  c #AF900F",
"8  c #B69501",
"9  c #BE9201",
"0  c #BB9B00",
"q  c #BB960A",
"w  c #BB990C",
"e  c #B69707",
"r  c #A78C13",
"t  c #A18B18",
"y  c #A5911A",
"u  c #AC9C1B",
"i  c #AE9516",
"p  c #B59913",
"a  c #B89C13",
"s  c #B09C1A",
"d  c #B19310",
"f  c #B8A219",
"g  c #BAA81C",
"h  c #9A9C28",
"j  c #A49C26",
"k  c #9DAD3D",
"l  c #98A837",
"z  c #A5A42D",
"x  c #ABA528",
"c  c #BAAD22",
"v  c #B1AC2A",
"b  c #B6AC24",
"n  c #AFB92F",
"m  c #A5AB34",
"M  c #A2AD39",
"N  c #A7AA32",
"B  c #ABB034",
"V  c #A3B23D",
"C  c #A7B037",
"Z  c #C28D00",
"A  c #C29300",
"S  c #CA9600",
"D  c #C69A01",
"F  c #CB9C00",
"G  c #D19E00",
"H  c #C3A301",
"J  c #CEA202",
"K  c #C6AD00",
"L  c #CCAB01",
"P  c #C8A60C",
"I  c #D4A400",
"U  c #D8A600",
"Y  c #D5AA01",
"T  c #DCAC00",
"R  c #D4A60C",
"E  c #CCB700",
"W  c #D4B401",
"Q  c #DBB400",
"!  c #D5BA00",
"~  c #DCBB01",
"^  c #DAB70C",
"/  c #C2A714",
"(  c #C5B21C",
")  c #E1AE00",
"_  c #E2B200",
"`  c #EAB600",
"'  c #E4BB01",
"]  c #ECBC00",
"[  c #E2B40B",
"{  c #E0BD0E",
"}  c #F1BE00",
"|  c #E5B914",
" . c #E5BA19",
".. c #CBA73B",
"X. c #E6BD25",
"o. c #D6C400",
"O. c #DBC600",
"+. c #DDD407",
"@. c #E4C301",
"#. c #EBC300",
"$. c #ECCA01",
"%. c #F3C200",
"&. c #FAC600",
"*. c #F4CB00",
"=. c #FECD00",
"-. c #EBD300",
";. c #E5DD02",
":. c #EBDE00",
">. c #E2D600",
",. c #F4D300",
"<. c #FED301",
"1. c #FEDC01",
"2. c #FFD10B",
"3. c #FEDB0B",
"4. c #FEDC1C",
"5. c #FFD111",
"6. c #F2CC1A",
"7. c #EDE401",
"8. c #E6E000",
"9. c #F4E400",
"0. c #FFE200",
"q. c #F7EA00",
"w. c #FEEB00",
"e. c #FFE20D",
"r. c #FFEB0F",
"t. c #F5F400",
"y. c #FFF300",
"u. c #FFFE01",
"i. c #FEFE0C",
"p. c #FFE31C",
"a. c #FFE413",
"s. c #FEFB1F",
"d. c #FCF510",
"f. c #FFD72A",
"g. c #E8C234",
"h. c #F5CD30",
"j. c #FFE321",
"k. c #FFE42C",
"l. c #FEEF27",
"z. c #FFF223",
"x. c #FEFD28",
"c. c #FFEE39",
"v. c #FFFE34",
"b. c #FFFE3C",
"n. c #9EAF40",
"m. c #82B24F",
"M. c #9DB444",
"N. c #9CB649",
"B. c #9ABA4D",
"V. c #93B748",
"C. c #83BE56",
"Z. c #8BBE56",
"A. c #83BE59",
"S. c #8CBF58",
"D. c #95BB54",
"F. c #99BE52",
"G. c #A0B442",
"H. c #D2B973",
"J. c #86C057",
"K. c #8CC157",
"L. c #8CC158",
"P. c #84C25C",
"I. c #94C357",
"U. c #9AC457",
"Y. c #95C45B",
"T. c #9BC558",
"R. c #9AC95D",
"E. c #9EC857",
"W. c #A0C657",
"Q. c #A0C658",
"!. c #A1C858",
"~. c #EBC949",
"^. c #FFDE40",
"/. c #EAC958",
"(. c #FFDE54",
"). c #FFFF41",
"_. c #FFEA53",
"`. c #FFFB59",
"'. c #FFFF54",
"]. c #EAD268",
"[. c #F1D670",
"{. c #FFE567",
"}. c #FFEF69",
"|. c #F3E56D",
" X c #FFFD64",
".X c #FFFD6D",
"XX c #FFEB77",
"oX c #FBF772",
"OX c #D1C68C",
"+X c #F2DC89",
"@X c #F8ED86",
"#X c #FEFE8F",
"$X c #FFED93",
"%X c #FAE79A",
"&X c #FFFF91",
"*X c #FFFF9C",
"=X c #FFF29F",
"-X c #DCCCA7",
";X c #E6D5A5",
":X c #FFFFAA",
">X c #FEF1A5",
",X c #FFF6B6",
"<X c #F5E4A5",
"1X c #EFE4C3",
"2X c #FFF5C0",
"3X c #FDF4CB",
"4X c #FFFBCB",
"5X c #F9F9C7",
"6X c #F8EFD0",
"7X c #FFFCDA",
"8X c #FBF4DC",
"9X c #F8ECC1",
"0X c #FFFCE3",
"qX c #FFFEED",
"wX c #FFFEF5",
"eX c #FFFFFE",
"rX c #ECE2E2",
/* pixels */
"U.U.U.U.U.T.U.T.T.T.T.T.T.T.U.U.U.U.U.F.U.U.U.U.U.R.S.B.M x g P P P J R I Y Y I I F J Y ~ $.$.$.T / B F.Y.R.T.T.T.U.U.U.U.U.U.U.F.T.T.T.T.T.T.T.T.T.T.U.U.U.U.U.",
"U.U.U.U.U.T.U.U.T.T.T.T.T.T.T.U.U.U.U.U.U.U.U.U.R.N.( _ ` ` } ` ` ` ` _ _ ` _ T ' ,.1.0.0.0.1.0.1.=.=.] ( N.Y.T.U.I.U.U.U.U.U.U.T.T.T.T.T.T.T.T.T.T.U.U.Z.C.U.U.",
"U.U.U.U.U.T.U.T.U.T.Q.T.T.T.U.U.U.U.U.U.I.U.T.Y.M ' =.<.<.<.=.<.=.=.=.=.=.] ' ,.0.1.1.1.1.1.1.1.1.=.=.<.=.} c D.R.U.U.U.U.U.U.U.T.T.T.T.T.U.T.T.T.T.U.* C.= = L.",
"U.U.U.U.U.T.U.U.T.T.K.T.T.U.T.U.U.U.U.U.U.T.Y.B } <.=.=.=.=.=.=.=.=.=.=.#.$.1.0.1.1.1.1.0.1.1.1.1.<.=.=.=.<.=.^ M.Y.U.U.U.U.U.U.T.T.T.T.T.U.T.T.T.T.U.= U.U.; K.",
"U.I.U.U.T.T.T.T.L.L.> L.Z.U.U.U.T.T.T.U.T.Y.b &.<.=.=.=.=.=.=.=.=.=.=.] *.0.1.1.0.y. X.Xu.u.u.y.w.1.=.=.=.=.=.<.` m R.T.U.U.U.U.T.T.T.T.T.T.T.T.T.T.T.U.U.U.E.U.",
"T.U.T.U.T.T.U.Q.; = I.J.- U.U.U.T.T.T.T.I.c &.<.=.=.=.=.<.=.=.=.=.<.] ,.0.1.1.y.).7XeXv.u.u.u.u.u.u.u.0.=.=.=.=.<.} m R.U.U.U.U.T.T.T.T.T.T.T.T.T.T.T.U.T.U.U.U.",
"T.U.T.T.T.T.T.T.I.I.W.U.I.U.U.T.T.T.T.Y.c &.<.=.=.=.=.=.=.=.=.=.<.` ,.0.1.0.i.:XeXqXz.w.0.0.0.1.0.1.1.w.w.1.=.=.<.=._ m Y.U.U.U.T.T.T.T.T.T.T.T.T.T.T.U.T.T.U.T.",
"T.T.T.T.T.T.T.T.T.T.T.U.U.T.T.T.T.T.Y.v =.<.=.=.<.<.=.<.<.=.<.<.' $.0.1.0.b.qXeX,Xe.0.0.3.<.1.1.1.1.<.=.<.0.<.=.<.&.] ) M.- C.I.T.T.T.T.T.T.T.T.T.T.T.T.T.T.T.T.",
"T.T.T.T.T.T.T.T.T.T.T.T.T.T.T.T.U.R.V q.u.u.u.u.u.u.u.u.u.u.u.9.@.1.1.0. XeXeXXX0.1.$.W P H 0 H K ! ` =.<.=.<.<.=.=.] #.Y m.J.> T.T.T.T.T.T.T.T.T.T.T.T.T.T.T.T.",
"T.T.T.T.T.T.T.T.T.T.T.T.T.T.T.T.I.V.+.u.u.u.u.u.u.u.u.u.u.u.i.O.,.1.0.v.eX>Xj.1.@.H 0 e w 8 0 0 8 8 # $ T <.<.<.=.=.] ] } / I.L.T.T.T.T.T.T.T.T.T.T.T.T.T.T.T.T.",
"T.T.U.T.T.T.T.T.T.T.T.T.T.T.T.T.D.OXwXqXqXqXqXqXqXqXqXqXqXwX].@.1.1.u.i.4.0.,.L 8 8 H ^ 6.$.J #.@.! 5   . 6 %.<.=.=.%.] ] ` m R.T.T.T.T.T.T.T.T.T.T.T.T.T.U.T.T.",
"U.U.U.U.U.U.T.T.T.T.T.T.T.T.T.R.C oX*X&X&X&X&X&X&X&X&X&X&X@X^ ,.1.y.u.1.0.$.H 8 H @.<.a.z.w.1 9.y.w.,.U #   $ ` <.=.%.` ] } Y B.T.F.T.T.T.T.T.T.T.T.R.U.U.U.U.U.",
"U.T.T.T.T.T.T.T.T.T.T.T.T.T.E.D.+.u.u.u.u.u.u.u.u.u.u.u.u.@.$.,.w.u.0.0.$.0 8 ! 1.0.y.z.v.7.# >.u.u.y.0.%.A . @ _ <.%.' ] ] } b Y.T.T.T.T.T.T.T.T.T.T.T.U.T.T.U.",
"U.U.U.U.U.T.T.T.T.T.T.T.T.U.Y.n u.u.u.u.u.u.u.u.u.u.u.u.7.' $.0.u.w.1.,.0 0 @.1.w.x.:X.Xv.! G W y.0.<.=.<.<.F X @ Y ` ` ] ] ] ) M.R.T.T.T.T.T.T.T.T.T.T.U.U.U.U.",
"T.U.U.U.T.U.* U.T.T.T.T.T.R.D.>.u.u.u.u.u.u.u.u.u.u.u.u.! @.*.y.y.1.1.H 0 @.0.w. XeX4Xb.'.H %.D 1.1.<.=.=.=.<.I X $ Y U ` ] ] } c Y.U.T.T.T.T.T.T.T.T.T.I.U.U.U.",
"U.U.U.T.= C.= C.= W.T.T.Q.Y.B =.1.<.<.<.<.<.<.<.<.<.<.#.U $.1.u.1.1.L 8 ~ 0.w.*XeX7Xu.b.|.H 1.A $.0.<.=.=.=.=.<.D . 5 U U ] ` %.I M.T.T.T.T.T.T.T.T.T.U.U.U.I.U.",
"U.U.U.U.A.Z.W.S.J.U.U.T.E.D.^ =.=.=.=.=.=.=.=.=.=.=.=.U Q #.y.w.1.$.8 W 1.w.4XeX,Xi.u.`.OX! 1.D Y 0.=.=.=.=.=.=.<.6 X A U T ] ] _ x R.U.U.U.T.T.T.T.T.T.U.U.U.U.",
"U.U.U.U.T.U.U.T.T.T.T.U.R.V &.<.=.=.<.=.=.=.=.=.=.<.%.U _ #.y.1.1.H 0 <.e.7XeX.Xu.u.0.}.;X$.3.T J 1.=.<.<.=.=.=.<.%.@ @ I I T #.` D F.T.U.T.U.T.T.T.T.T.U.U.U.U.",
"U.U.I.U.U.U.U.U.U.U.U.U.Y.( <.<.=.<.<.<.<.<.=.=.<.<._ ) ) -.w.0.! 8 $.k.7X:Xx.u.u.0.<.XX6X9.=.` 9 <.=.=.=.=.=.<.=.<.U . 6 U I _ ] I m R.U.U.T.U.U.A.S.T.U.U.U.U.",
"U.U.U.U.U.U.U.T.U.E.U.R.F.Y } ` ` ` ` ` ` ` ] ` ` _ I _ _ 1.0.,.0 L 1.z.v.u.u.u.0.1.1.=X0X0.=.%.9 ` <.=.=.=.=.=.=.=.%.$ o I U T ] T a T.W.T.U.I.= = C.= I.U.U.U.",
"U.U.U.U.U.T.U.T.I.I.* L.m ) _ ) ) Q _ ) _ _ Q ) _ I T _ _ <.1.! 8 ,.0.u.u.u.u.0.1.1.1.2XwX3.=.%.F I <.=.<.=.=.=.=.=.%.I X 6 T I _ T F B.T.U.U.U.; U.U.= U.I.U.U.",
"U.U.U.U.U.T.T.Q.; ; L.; u ` _ _ _ _ _ _ _ _ _ _ _ I T _ ' <.*.0 L 0.y.u.u.u.w.1.0.1.1.7XeXf.=.%.T D <.=.=.=.=.=.=.=.#.` $ @ I I T Q G N R.U.U.T.U.U.T.W.U.U.U.U.",
"U.I.U.U.U.T.T.T.I.K.!.F.J _ _ _ _ _ _ _ _ _ _ _ Q I _ _ #.<.D 5 $.w.u.u.u.y.1.1.1.1.j.wXeX(.=.%.` D &.=.=.=.=.=.=.&.] %.D X A U I U U f Y.T.T.T.U.T.T.T.T.U.U.U.",
"U.U.U.U.U.T.T.T.T.T.R.V T _ _ _ _ _ _ _ _ _ _ _ U U _ T *.=.# 5 0.y.u.u.u.1.1.1.1.1._.eXeX%X=.] #.F _ <.=.=.<.=.<.&.] ] T @ # I U U U D F.E.T.T.U.T.T.T.U.U.U.U.",
"U.U.U.U.U.T.T.U.T.U.R.v _ _ _ _ _ _ _ _ _ _ Q _ I U _ U <.) . I 0.u.u.u.0.1.1.1.3.1.=XeXeXqX2.} %.T J <.=.=.=.=.<.%.] ] ] 5 X D U I U F M.R.T.T.T.T.T.T.U.U.U.U.",
"U.U.T.T.T.T.T.T.U.T.I./ _ _ _ _ _ _ _ _ _ _ _ _ F T T Q <.6 X ] y.u.u.w.1.1.1.0.1.k.eXeXeXeX$X} _ ` A =.=.=.=.=.=.%.] ] ] F X 4 I U Y G z R.T.T.T.T.T.T.T.T.T.U.",
"U.U.U.U.T.T.T.T.T.T.F.I _ _ _ _ _ _ ) _ _ _ _ _ D T I ) %.# 4 <.u.u.u.1.1.1.1.1._.0XeXeXeXeXeX3X].6.A } =.=.=.=.&.] ] ` ] T # @ D U U G p I.T.T.T.T.T.T.T.T.U.T.",
"U.T.T.U.T.U.T.T.T.R.G.T _ ) _ _ _ _ _ _ _ _ _ T F U D ` T . F w.u.u.r.p.c._.@X4XeXeXeXeXeXeXeXeXeXwX1X%X{.^.4.<.&.#.%.] ] _ 4 o 6 U U G q U.T.T.T.T.T.T.U.T.U.T.",
"U.U.U.U.U.U.T.T.T.R.C ) ) _ _ _ _ _ _ _ _ ) _ U F U D ` D . ` u.i.d.g./.-XrXeXeXeXwXeXeXeXeXeXeXeXeXwX6X;XH...R I T T ` ] } A X 4 I I F D B.T.U.T.T.T.T.U.U.U.U.",
"T.T.U.U.T.T.T.U.T.Y.b ) _ _ _ _ Q _ _ _ _ _ _ I J I A _ 4 @ U L L D F L ! $.v.&XwXeXeXeXeXeXeXwX%X~.2.} ) T I D D A 6 6 A A 6 @ $ F I F S G.R.U.U.T.T.T.T.T.U.U.",
"T.T.T.T.S.L.W.U.T.Y.c ` _ _ _ _ ) _ _ _ _ _ _ F I D A T # 4 _ 0 y.u.u.u.u.u.y.w.p.,XeXeXeXeX0Xh.T _ %.<.<.=.%.%.` _ ` Q D # A # # A G D S m Y.C.T.T.T.T.U.T.T.T.",
"U.T.I.A.; ; C.I.Q.F.P _ ) _ _ _ _ _ _ _ _ _ _ F U D A G + 6 u.E O.u.0.1.<.=.=.=.=.<.8XeXwXeX{.` [ _ _ ` ` ` ` _ _ _ T G 6 D ` $ # 6 F D G h P.= A.A.T.U.U.U.U.U.",
"U.T.I.* U.U.> U.E.F.R _ _ _ _ _ _ _ _ _ _ _ _ F T A D S X G u.u.0 7.1.&.=.=.=.=.2.=.XXeXeXeXf.` _ _ _ _ _ ) Q ) _ _ F A 4 ` ] 4 @ 4 D F G < P.U.C.= Q.U.U.T.T.T.",
"T.T.T.I.I.U.U.U.R.B.U _ _ _ _ _ _ _ _ _ _ _ _ F U 6 A 6 . Q u.u.%.0 u.%.%.<.=.=.=.=.f.eXeX0X2._ _ _ _ _ _ _ _ _ _ F D & T %.] A @ 4 A D S p R.Q.T.T.T.T.U.R.T.T.",
"T.T.T.T.T.T.U.U.R.N.T _ Q ) _ _ _ _ _ _ _ _ T F U 6 D 6 X ` u.y.1.U E y._ ] &.<.=.=.5.qXeX2X&._ _ _ _ _ _ _ _ _ I D 5 S %.` ] D X & 6 F F a U.T.T.T.U.T.U.U.U.U.",
"T.U.T.U.U.T.U.U.R.V ) ` _ _ ` _ _ _ _ _ _ _ T G T 6 D 4 X ' u.w.=.<.D ;.1.) _ ` %.=.=.3XeX$X} _ _ _ Q _ _ _ _ I A 6 5 } ] ] } F X $ 6 F F A F.T.T.T.T.T.U.U.U.U.",
"U.U.U.U.U.T.U.U.R.V D G F F J F I F I F F I D F U 5 A 4 + ' t.1.=.=.&.0 y.%._ _ Q [ ` %XeX[.) [ _ _ _ _ _ _ U 6 6 4 _ #.] ] #.I X $ 4 D F q F.R.T.T.T.T.U.U.U.U.",
"U.U.U.U.T.U.T.U.R.k 6 9 A 6 A 6 9 6 6 9 6 9 6 F U 5 6 4 X ' 7.*.=.=.<.) K w.` Q _ _ ) [.eX~.T _ ) _ _ _ _ T 6 6 4 I %.] ] ] ] I @ $ 6 D F S B.T.T.T.T.U.U.U.U.U.",
"U.U.U.U.T.T.U.U.R.M Z A A 9 9 A A A D A A A 6 F U 5 6 4 @ ' 7.] %.=.=.<.D +.<.) _ _ ) /.eXg.) _ _ _ _ _ T A & 6 A %.] ] ] ] ` F @ # 5 D G A B.R.T.T.T.T.U.U.U.U.",
"U.U.U.I.U.T.U.U.R.M Z A A Z A A 9 A A Z A A 9 F U 6 6 $ + ! 9.] ` %.=.=.=.9 9.%._ _ ) ~.eXX.) _ _ _ _ T D # 6 4 ` ` ] ] ] ` _ I @ # 4 A F D B.T.U.T.T.U.U.U.U.U.",
"U.U.U.U.U.U.U.U.R.l 6 A A A A A A A A A A A 6 F U 5 5 4 @ Y -.] ] ] ] %.<.` 0 w._ _ ) g.wX| ) _ _ _ ) D $ 4 5 U %.] ] ] #._ Q G @ # 4 Z F A B.T.T.T.U.U.U.U.U.U.",
"U.U.U.U.U.U.U.U.R.l 6 A A A A 9 9 Z A A A A 6 F I 6 4 $ @ U $.] ] ] ] ] ] %.D o.<.T _ X.8X| ) _ _ _ _ 6 # 5 A %.] ] ] ] ` T T F @ $ 4 A F D F.E.T.T.T.U.U.U.U.U.",
"U.U.I.U.U.T.U.U.R.V Z A 9 A 9 A A 9 A 6 A A Z F U 6 5 1 @ J @.} ] ] ] ] ] ] ] 9 -.` )  .9X_ Q _ _ _ _ A $ 6 ] ] ] ] ] ] ) T T D @ $ 5 6 F D D.R.T.T.U.U.U.U.U.U.",
"U.U.U.U.U.U.U.U.R.M Z A A A A Z A A A A A A 9 F T 6 4 $ @ J ~ ` ] ] ] ] ] ] %.A -.&.T | <X_ _ _ _ _ _ S # 9 %.] ] ] ] _ T T T D X $ 4 A J A F.T.T.U.I.U.U.U.U.U.",
"U.U.U.U.U.T.T.U.R.G.6 A A A A A A A A A A A 6 D U 6 4 1 o F Q ] #.] ] ] ] #.` D 0.=._ [ +X_ _ _ _ _ _ F $ 4 _ ] ` %._ T T T T 9 X 4 4 6 F q U.T.T.T.T.U.U.U.U.U.",
"U.U.T.T.T.T.T.T.T.N.6 A A 9 Z A A 6 A 9 A A 6 6 U A 5 5 o D U _ ] ] ] ] ] } T E 0.=.` [ [._ _ _ T _ _ I 5 $ _ ] ] _ ) T T ) U 6 o 4 4 6 F q U.T.U.U.* L.U.U.U.U.",
"U.U.F.T.T.T.T.T.T.F.6 A 9 A A A A A A A A A A A F A 4 4 o A U T ] ] ] ] ` %.I o.1.=.} [ /._ _ _ _ _ _ I 6 $ I %.` T T T T T I 5 X 4 & A G p Y.!.C.= C.C.* U.U.U.",
"T.T.T.T.T.T.T.T.R.U.5 A 9 A A 6 A A A 9 Z A A 6 F A 5 5 o 6 U I ] ] ] ] ] %.A :.1.=.%._ g._ I S I T _ U 6 1 A ` T Q T ) Q T F $ o 5 4 A G u T.U.K.K.!.I.C.T.T.T.",
"U.T.U.U.U.U.T.T.T.U.d A A Z A A A A 9 A A 9 A 6 F A 4 5 @ $ U I _ #.] ] } ` 0 q.=.<.] ) | T D S D D U U Z 4 4 T T T T T ) U D $ # 4 4 S F x R.U.T.T.T.T.U.U.T.U.",
"U.U.U.T.U.U.U.T.T.Y.u Z A A A A 9 Z A A Z A 9 6 D D 4 4 # # U U T ] ] ] %.) K y.=.=.` _ _ F S D S D D F S 4 4 I _ T T ) T I D @ # 4 4 F S l R.U.T.T.T.T.T.T.U.T.",
"T.T.T.T.U.R.U.Y.U.- h A 9 A 9 A A A A A A A A 6 D S 4 4 $ @ F U I ) ] ] %.I O.y.=.&._ _ T D $ 6 D D S S D 5 4 S _ T T Q T F A @ $ 4 4 F S V.T.T.T.T.T.T.T.T.T.T.",
"T.U.T.T.U.U.Q.S.- P.l Z A 9 Z A A 9 A 9 9 A A 6 A G 5 4 4 X D U I U ] ` ] D 8.0.=.] ) _ D $ @ # 6 F S D F 6 4 Z ) T T T G D 6 X 4 4 6 F A B.T.T.T.T.T.T.U.T.T.U.",
"U.U.U.U.T.U.U.S.L.!.M.6 A A A A A A A Z A A A 6 A F 6 4 4 @ 4 U U I T ] ] A t.1.=._ _ U 6 $ 9 4 # 5 F S D 6 6 5 T T T T D F $ # 4 4 6 F q F.T.T.T.T.T.T.T.T.U.T.",
"T.T.T.T.T.T.T.T.T.T.F.e A A A 9 A A A A A A A 9 Z F Z 4 4 # # D F U I ` _ H u.<.%.) _ D $ U %.F $ $ 4 D F A 6 & I ) T F D F @ # 4 4 A G s R.U.T.T.T.T.T.T.T.T.T.",
"T.U.T.T.T.U.T.T.T.T.Y.i Z 9 Z 9 A 6 A A A 6 9 9 6 D D 4 4 $ + A F D J U I ! u.<.` _ F $ I _ T _ G 4 $ 1 S D 5 5 D _ I D F A X $ 4 4 D S N Y.U.T.T.T.T.T.U.U.T.T.",
"U.T.U.U.U.T.T.T.T.T.R.z & 4 4 5 4 4 5 4 4 4 1 5 4 D D 4 4 4 X 4 I D D J 4 ;.u.%.` I $ I _ T T T _ I 4 & $ D 5 6 A U D F F $ @ 4 5 4 F S G.R.T.T.T.T.T.T.U.T.U.U.",
"U.U.U.U.U.U.U.U.T.T.R.G.$ 4 4 4 1 1 1 1 1 1 1 1 $ A F 6 4 4 @ # D F F F 5 t.w.} I 4 I ) T T ) T T Q U 5 4 4 $ A 4 F F F S @ # 4 4 6 F q U.T.T.T.T.T.T.U.U.U.U.U.",
"U.U.U.U.T.T.T.T.T.T.T.T.2 & 1 4 1 1 5 1 5 1 5 1 $ 6 F A 4 4 $ X 6 F F A 0 u.0.G 4 T ) T T T T T T T T T 5 4 # Z 4 D F F 6 X $ 5 4 A F s R.U.T.T.T.T.T.U.U.U.U.U.",
"U.U.U.U.U.T.U.T.T.T.T.R.j & 4 1 5 1 1 5 1 1 5 1 4 4 F S 4 4 4 # # F I 6 E u.Y $ I T T ) Q T T T T ) T _ T 5 1 D 4 6 I D # @ 4 4 4 F S m R.T.T.T.T.T.T.U.U.U.U.I.",
"U.U.U.U.U.T.U.U.T.T.U.T.k $ 1 4 1 1 1 1 1 1 1 1 4 1 A F 5 4 4 $ X 6 G 4 :.~ $ F D D I U T T ) T T T U I G F 4 5 Z 4 J 6 X $ 4 4 6 F 9 F.T.T.T.T.T.T.T.U.U.U.U.U.",
"U.U.U.U.U.T.U.U.T.T.T.T.U.2 & 4 1 5 1 1 5 1 4 1 4 1 5 F 6 4 4 4 @ # F 6 D 5 F D F D S D F F F G F F F D S D G 6 $ 4 D @ @ 4 4 4 A G s Y.U.T.T.T.T.T.T.U.U.U.U.U.",
"U.U.U.U.T.U.U.U.U.T.T.U.R.j & 4 1 1 1 1 1 4 1 4 1 1 5 F S 4 4 4 # X 5 # 5 F D D F F F F F F D F D F F F F F D G 6 # 4 X # 4 4 5 D S M R.U.U.T.T.T.T.T.U.U.U.U.U.",
"U.U.U.U.T.U.E.I.U.Q.T.U.R.N.$ 4 5 1 1 1 1 1 4 1 1 4 $ 9 F 6 4 4 4 # X 6 I F F F F D D F F F F D D F F F F F F D I 6 X # 4 4 & 6 G q D.T.T.U.T.T.T.T.T.U.U.U.U.U.",
"U.U.U.U.T.I.K.* I.I.T.U.U.R.y & 1 1 1 5 1 1 1 4 1 4 $ 5 F D 4 4 4 $ + # D F D F F F F F F D F F F F F D D F F F D # @ & 4 4 4 D F z R.U.T.T.T.T.T.T.T.T.I.U.U.U.",
"U.U.U.U.T.> C.L.= = W.T.U.R.n.$ 4 4 4 1 5 1 1 1 5 1 1 1 A F 5 4 4 5 # X & F F D F F D F F F F F F D D F F F F F $ X $ 4 4 4 4 G A F.E.T.T.T.T.T.T.T.T.T.U.U.U.U.",
"U.I.T.T.T.S.U.T.L.I.T.U.T.T.T.r & 4 1 4 1 1 1 1 1 1 1 1 5 F A 1 4 4 4 # X 4 F F F F F F F D D F F F F F D F F & X # 4 4 4 & A G j R.U.T.T.T.T.T.T.T.U.U.U.U.T.T.",
"U.U.U.U.T.T.U.U.T.T.T.U.T.U.R.k $ 4 4 1 1 1 1 1 1 1 1 5 $ D F 5 4 4 4 4 @ X $ F F F D F F F F F F F F F F D $ o @ 4 4 4 4 4 G A B.T.T.T.T.T.T.T.U.U.= K.U.U.U.U.",
"T.T.T.T.T.T.T.T.T.T.T.T.T.T.T.T.r 4 1 4 5 1 1 1 1 5 1 1 & 4 D D 4 4 4 4 & # X # A F F F F D F D S D F F A # X # 4 4 4 4 4 A F z R.U.T.T.T.T.T.Q.C.; ; C.- T.T.T.",
"T.T.T.T.T.T.T.T.T.T.T.T.T.T.U.R.k & 5 1 1 1 1 5 1 1 5 1 4 $ 9 F 6 4 4 4 4 4 @ + @ 4 A D G F D F G D A 4 X X # 4 4 4 4 4 5 G q F.T.T.T.T.T.T.T.T.K.J.Q.U.; U.T.T.",
"U.T.U.T.U.T.T.T.T.T.T.T.T.T.T.U.R.y & 1 1 1 1 1 4 1 1 1 4 4 4 D F 4 4 4 4 4 4 $ @ X @ # 5 6 6 6 5 # + X @ # 4 4 4 4 4 4 D A n.R.U.T.U.T.T.T.T.T.U.U.U.T.U.U.U.T.",
"T.T.T.T.T.T.T.T.T.T.T.T.T.T.T.U.T.N.$ 4 5 1 1 1 1 5 1 4 1 4 $ 4 G D 4 4 4 4 4 4 $ # @ o X X X X X X @ # & 4 4 4 5 4 & A S j R.T.T.U.W.T.T.T.T.T.T.T.T.T.T.T.T.T.",
"U.T.U.U.T.U.T.T.T.T.T.T.T.T.T.T.U.R.j & 1 1 1 5 1 1 4 1 4 4 4 4 6 G A 4 4 4 4 4 4 4 & # # @ # @ # # 4 4 4 4 4 4 4 4 6 G q W.T.T.W.U.I.T.T.T.T.T.T.T.T.T.U.T.T.U.",
"U.U.T.U.U.U.T.T.T.T.T.T.U.T.T.T.U.R.F.2 $ 5 1 4 1 1 1 1 1 5 1 1 $ A F A 4 4 4 4 4 4 & 5 4 4 4 4 4 4 4 4 4 4 4 4 4 9 F 9 B.R.F.T.I.K.* K.I.T.T.T.T.T.T.T.U.T.U.T.",
"T.T.T.T.T.T.T.T.T.T.T.U.E.J.I.Q.U.T.R.n.$ 1 4 1 5 1 5 1 1 1 1 1 4 $ A J D 4 4 4 4 4 4 4 4 4 4 4 4 4 4 4 4 4 4 4 Z F A N.R.T.T.Q.= = K.A.* Q.T.T.T.T.T.T.T.T.T.T.",
"U.U.U.T.T.T.T.T.T.T.T.L.C.= C.C.I.T.U.R.z $ 1 4 1 1 5 1 5 1 5 1 4 1 1 A F D 6 4 4 4 4 4 4 4 4 4 4 4 5 4 4 5 4 A F 9 n.R.U.U.U.U.I.I.W.I.L.U.T.T.T.T.T.T.T.U.U.T.",
"U.U.U.U.T.T.T.T.T.T.T.S.* U.I.> I.T.U.U.R.y & 1 1 1 1 1 1 1 4 1 4 4 4 # Z J D A 6 4 4 4 4 4 4 4 4 4 & 4 4 A F G q M.R.U.U.I.U.U.U.T.U.T.U.U.T.T.T.T.T.T.T.T.U.U.",
"U.U.U.U.U.U.T.U.T.T.T.T.T.U.U.U.T.U.U.U.T.U.r & 4 1 4 $ $ $ $ # # # @ @ X 5 F G F A 6 5 5 4 4 4 4 6 6 A D G S i B.R.F.U.U.U.U.U.U.U.U.T.T.T.T.T.T.T.T.T.T.U.U.I.",
"U.U.U.U.U.U.T.U.T.T.T.T.U.T.T.U.U.U.U.U.U.T.F.t @ + + @ o o o o @ X o @ @ o # 6 F G G F S S A D S F F G S q m Y.U.U.U.U.I.U.U.U.U.U.T.T.T.T.T.T.U.T.T.T.T.U.U.U.",
"I.U.U.U.U.U.U.T.T.T.T.T.T.T.U.U.U.U.U.U.U.I.T.R.k , % @ + + @ X + + + + o @ X + # 6 A F F F F D F S D p z F.R.T.U.U.U.U.U.U.U.U.U.T.U.T.U.U.T.T.T.T.T.T.U.U.U.U.",
"U.U.U.U.T.T.T.U.T.T.T.T.T.T.T.U.U.U.U.U.U.U.U.T.R.R.T.G.l h , , , O O O O O % O O O % 2 d p w p d j N.U.R.T.T.T.U.U.U.U.U.U.U.U.U.T.U.T.T.T.T.T.T.T.T.U.U.U.U.U."
};
