/* XPM */
static char *New_Project_resized[] = {
/* columns rows colors chars-per-pixel */
"80 80 195 2 ",
"   c #956700",
".  c #966900",
"X  c #9C6E00",
"o  c #9F7100",
"O  c #A37400",
"+  c #A77800",
"@  c #AB7C00",
"#  c #B07E00",
"$  c #6FB656",
"%  c #70B756",
"&  c #74B956",
"*  c #7CBC56",
"=  c #74BA59",
"-  c #7DBD58",
";  c #AF8000",
":  c #B28300",
">  c #BA8700",
",  c #B78800",
"<  c #BB8C00",
"1  c #B69600",
"2  c #BE9201",
"3  c #B79900",
"4  c #BB9B00",
"5  c #B6950D",
"6  c #BA960B",
"7  c #B7980F",
"8  c #BC9A0D",
"9  c #AE9516",
"0  c #AD991B",
"q  c #AE9816",
"w  c #B29511",
"e  c #B39915",
"r  c #BA9B10",
"t  c #B29C19",
"y  c #A3A01F",
"u  c #BEA213",
"i  c #B3A21D",
"p  c #B8A91F",
"a  c #B8A71E",
"s  c #A39E22",
"d  c #AB9E22",
"f  c #80A338",
"g  c #9FAD3C",
"h  c #9FAB35",
"j  c #9CB13F",
"k  c #AAA125",
"l  c #A6A62E",
"z  c #A9A52A",
"x  c #ABAA2D",
"c  c #B4AF29",
"v  c #B4BA2F",
"b  c #BAB623",
"n  c #A4AA33",
"m  c #A8AF35",
"M  c #A1AD3A",
"N  c #A5A731",
"B  c #A9B336",
"V  c #A2B23E",
"C  c #AAB93A",
"Z  c #B2B933",
"A  c #C18F00",
"S  c #C49400",
"D  c #CA9600",
"F  c #C59A00",
"G  c #CB9B00",
"H  c #C09D0C",
"J  c #D29D00",
"K  c #C3A300",
"L  c #CCA102",
"P  c #C7AD00",
"I  c #CBAB00",
"U  c #C4A30E",
"Y  c #CAA50A",
"T  c #D5A500",
"R  c #D9A400",
"E  c #D5AA00",
"W  c #DCAC00",
"Q  c #D0A908",
"!  c #CCB300",
"~  c #CFBB00",
"^  c #D4B301",
"/  c #DDB100",
"(  c #D5BD00",
")  c #DCBB02",
"_  c #D8B60D",
"`  c #D3BB0D",
"'  c #D9B80A",
"]  c #C2A612",
"[  c #C7AA11",
"{  c #C6B717",
"}  c #D2B513",
"|  c #E2AE00",
" . c #E8AE00",
".. c #E2B200",
"X. c #ECB700",
"o. c #E3BB00",
"O. c #ECBC00",
"+. c #F2BD00",
"@. c #C0B322",
"#. c #D5C400",
"$. c #DAC300",
"%. c #DBCA00",
"&. c #DEC70D",
"*. c #DFD100",
"=. c #CAC01D",
"-. c #DBC811",
";. c #E5C200",
":. c #ECC300",
">. c #EBCB02",
",. c #E3C90B",
"<. c #E5CD00",
"1. c #F3C200",
"2. c #FAC700",
"3. c #F2CC00",
"4. c #FECD00",
"5. c #EDD302",
"6. c #E5DC00",
"7. c #EBDB00",
"8. c #E6D006",
"9. c #F3D201",
"0. c #FFD200",
"q. c #F5D800",
"w. c #FEDC00",
"e. c #FEDE0C",
"r. c #FEDF1E",
"t. c #ECE500",
"y. c #EEEA00",
"u. c #F4E500",
"i. c #FFE200",
"p. c #F2EE00",
"a. c #FEEC00",
"s. c #FFE008",
"d. c #F7F500",
"f. c #FEF300",
"g. c #FFFE00",
"h. c #FFF70B",
"j. c #FFFF08",
"k. c #FFE31B",
"l. c #FFFD15",
"z. c #FFFC1B",
"x. c #FEE728",
"c. c #FFE423",
"v. c #FFF623",
"b. c #FFFC25",
"n. c #FFFF2C",
"m. c #9DB445",
"M. c #9BB649",
"N. c #9BBA4D",
"B. c #92B041",
"V. c #83BD56",
"C. c #8BBF56",
"Z. c #83BF59",
"A. c #8CBF58",
"S. c #96BD54",
"D. c #99BD52",
"F. c #94BE58",
"G. c #A1B541",
"H. c #A4BA42",
"J. c #A8BE42",
"K. c #87C157",
"L. c #8CC157",
"P. c #84C25C",
"I. c #8CC259",
"U. c #94C356",
"Y. c #9AC457",
"T. c #96C45B",
"R. c #9BC558",
"E. c #9AC85C",
"W. c #9EC857",
"Q. c #A0C657",
"!. c #FFFB42",
"~. c #FFFF4D",
"^. c #FFE954",
"/. c #FFFF5C",
"(. c #FFFF64",
"). c #FEFF69",
"_. c #FEEC71",
"`. c #FFF770",
"'. c #FFFB75",
"]. c #FFFF79",
"[. c #FFFF85",
"{. c #FFFF8C",
"}. c #FFF99E",
"|. c #FFFFA4",
" X c #FFFEAD",
".X c #FFFFB4",
"XX c #FFF5BB",
"oX c #FEF9B8",
"OX c #FFFFC4",
"+X c #FFFFCB",
"@X c #FFFCDC",
"#X c #FFFFE3",
"$X c #FFFFEF",
"%X c #FFFEF3",
"&X c #FFFFFE",
/* pixels */
"Y.Y.Y.Y.R.R.Y.R.R.R.R.R.R.R.Y.Y.Y.Y.Y.Y.Y.Y.Y.Y.R.Y.W.Y.Y.U.Y.M.J.v { } &.8.5.5.9.8.,._ [ p Z G.N.T.T.E.E.Q.Y.Y.Y.Y.R.Y.Y.Y.R.Y.Y.Y.Y.R.R.Y.R.R.R.R.Y.Y.Y.Y.Y.Y.",
"Y.Y.Y.Y.R.R.Y.R.Y.R.R.R.R.Y.R.Y.R.Y.Y.Y.Y.R.Y.Y.R.T.T.D.Q.b -.>.0.w.w.i.i.i.w.w.w.i.w.0.0.4.4.1.o.} c H.F.T.E.Y.Y.Y.R.R.Y.Y.Y.Y.Y.Y.Y.Q.R.R.R.R.R.R.Y.R.A.V.Y.Y.",
"Y.U.Y.Y.Y.R.R.R.R.Y.R.R.R.R.Y.Y.Y.Y.R.Y.Y.Y.R.U.F.C @.5.0.w.i.w.i.w.w.w.w.w.w.w.w.w.w.w.0.4.4.0.0.0.4.1.o.b m.F.E.Y.R.Y.R.Y.Y.Y.Y.Y.Y.R.R.R.R.R.R.R.Y.= - * = C.",
"Y.Y.Y.Y.R.R.R.R.Y.W.L.R.R.Y.Y.R.Y.Y.Y.Y.Y.T.S.Z -.0.i.i.w.w.w.w.w.w.w.i.w.s.w.w.w.w.w.w.0.4.4.4.4.4.4.4.0.4.+.} m F.T.Y.Y.R.R.S.Y.E.Y.R.R.Y.R.R.R.R.R.* Y.W.V.L.",
"Y.Y.Y.R.R.R.Y.R.L.L.% L.A.Y.W.Y.Y.Y.R.E.S.v ,.w.i.w.w.w.w.i.a.f.v.).}.b.g.g.g.f.g.f.a.a.a.0.4.4.4.4.4.4.4.4.0.0.2._ m U.T.Y.R.R.Y.E.Y.R.R.R.R.Y.R.R.Y.R.Y.Y.Y.Y.",
"Y.Y.Y.R.R.R.Y.Q.- - U.Z.= Y.Y.Y.Y.Y.U.C ,.w.w.w.w.w.i.a.f.n.].+X&X%X/.g.g.g.g.g.g.g.g.g.g.g.f.f.i.0.4.4.4.0.4.4.0.0.+.[ V T.R.Y.R.R.Y.Y.R.R.R.R.R.R.R.W.W.Y.Y.R.",
"Y.R.R.R.R.R.R.R.U.U.Q.R.U.R.Y.W.E.N.{ 0.w.w.w.w.w.a.l.(.OX&X&X%X'.a.f.a.i.i.i.w.i.i.i.w.w.w.w.i.a.a.a.w.0.4.4.4.4.4.4.+.| a D.E.Y.Y.R.R.R.R.R.R.R.R.R.R.R.R.R.Y.",
"R.R.R.R.R.R.R.R.R.Y.Y.Y.R.Y.Y.T.C ) i.i.w.w.w.a.b.{.%X&X&X@X_.s.i.w.w.i.w.0.w.q.0.w.q.w.i.i.0.4.4.4.0.i.i.w.4.4.4.4.4.1.O.+.Q j E.Q.Y.R.R.R.R.R.R.R.R.R.R.R.R.Y.",
"R.R.R.R.R.Y.Y.W.R.Y.Y.R.Q.E.F.b :.w.w.w.w.i.z.|.&X&X&XXX^.i.w.w.9.:.$.^ I K K K K K K I ^ $...:.4.0.0.4.4.0.0.0.4.4.0.1.O.O.+.| x T.R.W.Y.Y.R.R.R.R.R.R.R.R.R.R.",
"R.R.R.R.R.Y.Y.R.R.E.R.Y.R.D.{ 1.q.w.w.w.f.z.#X&XXX_.k.i.w.>.) K 4 3 1 1 1 3 1 3 4 3 1 1 1 3 ; o : G O.0.0.4.4.0.4.4.0.2.O.O.O.O.X.a F.E.Y.R.R.R.R.R.R.R.R.R.R.R.",
"Y.R.R.R.R.R.R.R.R.R.Y.E.N.` 3.9.i.w.i.g.g.h.c.e.w.i.q.) K 3 1 1 4 K I o.;.;.3.o.) 3.;.;.) E < X .   o ; T 2.0.0.4.4.4.2.O.O.O.O.O.+.] S.E.Y.Y.Y.R.R.R.R.R.R.R.R.",
"Y.Y.Y.Y.Y.Y.R.R.R.R.E.N.) 3.>.w.w.i.g.g.a.w.w.i.q.^ 4 3 3 F I ;.9.w.i.i.i.a.g.K 2 g.f.f.f.a.0.O.T : o . . + L 2.0.0.4.4.O.O.O.O.O.O.+.[ D.E.Q.Y.R.R.R.Y.Y.Y.Y.Y.",
"R.E.Y.R.R.R.R.R.Y.E.N.) >.>.q.w.a.g.g.i.w.s.w.;.K 1 3 L ;.9.w.i.a.f.g.g.g.g.p.K F t.g.g.g.g.g.f.i.4.O.G + X . @ W 2.4.4.:.O.O.O.O.O.O.+.] S.E.Y.R.R.R.R.R.R.R.R.",
"Y.Y.Y.Y.Y.W.R.R.R.S.` 3.:.9.w.a.g.f.w.w.i.3.P 3 1 K ;.w.i.i.f.l.).+X[.g.g.g.^ ;.O.K f.a.i.i.w.4.0.0.0.0.1.T O . X ; W O...X.O.O.O.O.O.O.+.] R.R.Y.R.R.R.R.R.Y.Y.",
"Y.R.Y.R.R.U.= T.F.] :.>.>.w.a.g.a.w.w.i.) 4 1 4 ) w.s.i.f.!.|.&X&XoXl.g.g.d.4 w.4.> 3.w.w.w.0.4.4.4.4.4.4.0.1.F X . + G W T W o.O.O.O.O.O.X.i T.Y.R.R.R.R.R.U.Y.",
"Y.R.R.R.* Z.* - 0  .o.>.3.a.g.a.w.i.w.^ 4 3 I 9.w.i.a.~.OX&X&X#X/.g.g.g.g.) $.i.4.G E a.w.w.0.4.4.4.4.0.4.4.0.0...@ . o > R T T | O.O.O.O.+.R l E.Y.R.Y.Y.Y.R.Y.",
"Y.Y.Y.Y.V.L.E.h W ....:.i.g.i.w.i.w.I 3 4 ^ w.i.i.!.OX&X&X@X'.j.g.g.f.i.w.F a.4.4.X.< w.w.w.4.4.4.4.4.4.4.4.4.4.0.2.> X X : E T T W X.O.o.O...D m.E.Y.Y.Y.Y.Y.Y.",
"Y.Y.Y.Y.Y.R.N.T X./ ..9.g.a.w.i.w.I 3 4 ;.i.w.x. X&X&X.X/.j.g.g.f.w.w.i.) ! g.4.4.O.2 ^ a.0.4.0.0.4.4.4.4.0.4.4.4.0.0.F X X : R T T T X.O.O.O.R H D.W.Y.Y.Y.Y.Y.",
"Y.Y.Y.Y.Y.F.u ......| a.f.w.w.w.I 3 4 :.i.r.XX%X+X).z.g.g.g.f.i.w.w.w.i.F p.i.4.0.O.W 2 w.0.4.4.4.4.0.4.4.4.4.0.4.4.4.0.D X o : E T T T X.O.O.W T k P.R.Y.Y.Y.Y.",
"Y.Y.Y.Y.E.m | ..../ :.a.w.w.w.^ 1 4 >.i.w.v.~.l.g.g.g.g.g.a.w.w.w.w.i.:.P g.0.4.0.O.X.2 ..0.4.4.0.4.4.4.4.4.4.4.4.0.4.2.1.F X o > W T T T ..:...T G B.- U.Y.Y.Y.",
"Y.Y.Y.R.S.Y X.W ../ q.0.0.i.) 3 3 o.i.w.f.g.g.g.g.j.g.f.i.w.w.w.w.w.i.L 6.g.4.4.4.1.O.R S 0.0.4.4.4.4.4.4.4.4.4.0.4.0.2.O.1.> X o S E T T T X.X.T R t = Y.Y.Y.Y.",
"Y.Y.Y.T.x | ........0.4.0.;.4 1 ^ i.w.f.g.g.g.g.g.g.a.w.w.w.w.i.w.i.3.K g.f.4.4.0.1...1., O.0.4.4.4.0.4.0.4.4.4.4.4.4.1.o.O.X.@ X + J T T T T O.E T J m E.Y.Y.Y.",
"Y.Y.R.D.Y X.....| :.4.0.O.@ 1 I i.w.f.g.g.g.g.g.g.w.w.i.w.w.w.w.w.i.L %.g.i.4.0.0.2./ 2.T D 0.4.4.4.4.4.4.4.4.4.4.4.4.+.O.O.O.T O X @ T T T T W T T R r U.R.Y.Y.",
"Y.Y.T.x | ....W | 3.4.4., . @ q.w.a.g.g.g.g.g.f.w.w.w.w.w.w.w.w.w.w.K g.g.w.4.4.4.2./ O.2.< 1.0.4.0.4.4.4.4.4.0.4.4.4.O.O.O.O.o.S o o : E T T T T T E J M E.Y.Y.",
"Y.Y.Y.8 | ..W T o.0.0.T o X G 0.i.g.g.g.g.g.a.w.w.w.w.i.i.w.w.w.i./ #.g.g.0.4.4.0.2...X.4.G T 0.4.4.4.4.0.4.4.4.4.0.1.O.O.O.O.O.W ; o O 2 T T T T T T R t T.Y.Y.",
"Y.E.M J E X.T W o.0.X.+ X @ 4.0.g.g.g.g.g.a.w.w.w.w.w.w.w.w.w.w.i.2 p.g.f.4.4.4.0.2...W 2.1., 4.4.4.4.4.4.4.4.4.4.4.O.O.O.O.O.O.X.G o o @ F T T T T T T F M.E.Y.",
"Y.T.i R T / D W O.4.< o X W 0.f.g.g.g.g.a.w.w.w.w.w.w.w.w.w.w.i.o.^ g.g.a.4.4.4.4.2.../ O.0.G W w.4.4.4.4.4.0.4.4.1.O.O.O.O.O.O.O.W > X O : G W T T T T D k T.Y.",
"R.D.G R R L F ..1...+ X @ 2.w.g.g.g.g.a.w.i.i.i.i.a.i.i.i.w.q.q.2 t.g.g.w.4.4.4.4.2.......0.:.> 1.4.0.0.0.0.0.0.0.1.:.+.1.O.O.O.O...G O X @ < T T T R G G r R.Y.",
"E.G.J T W S D o.1.S O X T i.g.g.g.g.u.1.+.O...W E E W T F F F 2 ^ g.g.g.0.4.4.4.4.2.....W 1.0.T : < < F T T W T T T W ....X.o.O.1.O...: X + : F R T T F G F M.E.",
"R.k R T T > D O...; o O O.E #.I 4 F S G L K I ( $.<.7.u.y.d.g.g.g.g.g.f.0.4.4.4.0.2.......O.4.4.1.X.W R T T G F S S < 2 < > < < < F S < o o : < T T L D G D N E.",
"Y.u R T T : G W D @ . < 0.I < u.d.d.g.g.g.g.g.g.g.g.g.g.f.i.i.w.w.0.0.0.4.4.4.4.4.2.........1.0.0.4.0.4.2.1.1.1.O.o.X...X...T F S @ < T + o @ , D E D G G G e Y.",
"M.G T E F : T T < O X W w.g.*.4 g.g.a.i.i.i.w.0.0.4.4.4.4.4.4.4.4.4.4.4.4.4.0.4.0.1.W ......W X.O.O.O.O.o...X.X...../ ../ T D D ; G 1.W , X + , < G G G G G 8 U.",
"V T T R F : E G : o O 1.a.g.g.7.1 y.g.4.2.4.4.4.4.4.4.4.0.4.0.4.4.4.4.4.4.4.4.4.4.O./ ........| / | ..../ ..| / ......R D D S ; T 1.O.) S X O : : F G D G G S M.",
"z T T E < , T D @ X @ 4.f.g.g.g.+.2 6.g.0.+.1.4.0.4.0.4.4.4.4.4.4.4.4.4.0.4.4.4.4.X...............................| T F G 2 ; / 1.O.O.X.J O o @ : < L D F G D G.",
"e T T T > > T < @ . 2 0.g.g.g.0.4.4.S #.g.w.X...O.1.2.4.4.0.0.4.4.4.4.4.4.4.4.0.1........./ ....../ ............W D F G > > o.+.O.O.O.O.T @ X @ : , D G G G D l ",
"8 R T L , > L , + X D 9.g.g.a.4.4.4.0.G P g.a.+./ | ..O.1.1.2.4.0.0.4.0.0.4.0.4........................./ X.W T < S D : 2 O.O.O.O.O.O.O.W : X @ : ; S G G G D 0 ",
"U R T G , > L , O X D 7.t.g.i.4.4.4.4.0.T 4 g.a.+......./ ....X.O.O.O.1.1.1.O.X.| ........................W D , 2 D ; D 1.O.O.O.O.O.O.O./ < X + : : 2 G D F G w ",
"L T W D : , D , O X F 9.t.7.1.4.0.4.4.4.0.X.3 p.f.2...........| ../ ....| ..W / ..................| ..| J S ; < F @ T :.O.O.O.O.O.O.O.O..., X O : ; , G G G G 7 ",
"L R T D : > S : O o D >.t.7.O.+.1.4.0.4.4.0.1.< 6.g.2...| ..............................| ..........T G , + S S @ ..1.O.O.O.O.O.O.O.O.X.T > X O : : : G G G G 8 ",
"G T E F : , < : o O D ;.y.>.O.O.O.1.1.4.4.4.0.2.S #.g.2........................./ ..............W T F @ O F > : X.:.O.O.O.O.O.O.o.O.X.W E < o O : : : S G G G 8 ",
"G W W F : : < : O o D ) t.:.O.O.O.O.O.O.1.1.2.0.0.D ! g.0.........................W ..........W D 2 O + D : < O.O.O.O.O.O.O.O.O.O.X.W W T < o O : : @ S G G G 8 ",
"G T E D : , > , O X D E 7.:.O.O.O.O.O.O.O.O.O.O.O.1.D 4 f.0.............................../ ..T < o @ D ; F 1.O.O.O.O.O.O.O.O.O...W W W T , o O : : : 2 L D G 8 ",
"L T T G : , , : O X F T %.O.O.O.O.O.O.O.O.O.O.O.O.O.1.T 2 a.9.| ....| ........| ..............W S O 2 : T 1.O.O.O.O.O.O.O.O.O...W W W W L > o O : : ; S G G G 7 ",
"] R R G , , > : O X A W ^ X.O.O.O.O.O.O.O.O.O.O.O.O.O.+.2 p.w.+...............................W D ; : : O.O.O.O.O.O.O.O.O.X.W W W W W W G , o O : : : 2 G G D 9 ",
"5 T T T , , , , + X < E E W +.O.O.O.O.O.O.O.O.O.O.O.1.T I g.4.4.O.W ..........................W G < @ : T 1.O.O.O.O.O.O...W W W W W ..T D : X @ : : : < L G D 0 ",
"9 D T T < : , > @ X : W E T O.O.O.O.O.O.O.O.O.O.O.O.1.S t.a.2.0.2...................../ ......| G S + < < 1.O.O.O.O.o...W W W W W W W G D + o @ : : : S G G D x ",
"l D G L < , , , ; X + T T T W O.O.O.O.O.O.O.O.O.O.O...4 g.w.4.4.0.O........./ ..../ ..X......./ G G @ > : / +.O.O...W W W W W W W ..E G F O X @ : : @ S G G F V ",
"V F G G < : , , : o O G T T T ..:.O.O.O.O.O.O.O.O.1.G %.g.4.4.4.0.O.| ........W D D G T W / ..X.L D , ; < D 1...W W W W | W W / W W G G 2 o O # : : : F D G S M.",
"M.S G G S ; , , : O X 2 W T T T X.O.O.O.O.O.O.O.O.O.2 g.a.4.4.4.4.X.........W D F F F F D G E ..W D S + S : W W W W W | W W W W ..E D L : o + : : : : D G G 8 Y.",
"U.r G D D : : : , @ o ; T T T T W O.O.O.O.O.O.O.:.T ! g.i.4.4.0.1........./ D D D D D G D F F G L F D @ S : F | W W / W W W | W W G D G O o @ : : ; , G D G t T.",
"E.d G G G > : : : ; o o G T T T T W O.O.O.O.O.O.1.F t.g.0.4.4.4.X.W ..../ G F @ @ < D D F F D D F D D , : F : | W W W W W W W / T F G 2 o O ; : : ; 2 G G D m E.",
"E.G.D G G < @ : : : O X < W T T T T W O.O.O.O.O.| K g.f.4.4.0.1./ ......G < @ + @ @ @ A G D F F D F F S @ D : T | W W W | W W T D G G @ o O : : : : S G D S N.E.",
"Y.D.S G G F : : : : @ X + G T T T E T W O.O.O.+.D %.g.a.4.4.2.......W D < : @ 2 S ; @ @ @ S D D F D F D @ S < < ..W | W W | T D G L F O o @ : : : : D G G r U.Y.",
"R.T.t D G G : : : : @ O o > L G L T T T W O.O.O.2 d.g.w.4.4.o.W ....L 2 ; > W O.O.T : : ; @ ; S G D F G : : G : W W W W / T F G D G : X O : : : : < G G D z E.W.",
"Y.E.M S G G S : : : : + o + D G G G G L G T O.T ~ g.g.0.4.:.W X.X.D : , G O.X...W ..W G > : : @ ; S D G S @ G : F | W W T F G G G F o o @ : : : : F G G S M.E.Y.",
"R.R.R.7 G G F : : : : ; O o : L D G G G G D T : t.g.f.4.2...X.W , @ F | / W W W W W W ../ D : : : @ ; S G @ F S : ..E G F G G G G @ o O : : : : , D F G t T.Y.Y.",
"Y.Y.T.l D G G 2 : : : : @ o o S G G G G G G < K g.g.i.4.O...G : 2 W ..W W W W W W W W W W ..W F : : : @ , ; > G : F G D G G G G < o o @ : : : : S G D D g T.Y.Y.",
"Y.Y.R.D.6 G G D : : : : : O o + G G G G G L : *.g.g.i.O.G , 2 W ..W W W W W / W | W W W W W W ..W S : , : + ; L < : L G G G G F O o + : : : : : D G G e U.Y.Y.Y.",
"R.U.Y.T.l D G G < ; : : : ; o o ; G G G G F < g.g.g...: : D W W W W W W W W W W W / W W W W ..W | ..W 2 ; , > D D : F G G G G @ o O : : : : : S L G S M T.Y.Y.Y.",
"Y.Y.Y.Y.Y.8 G G D : : : : : @ o o : L D L > #.g.5.A ; S L G F G L T W R W W W | W W W W W W W T T L G G F , : 2 G > < G G G @ o O @ : : : ; : G G G t T.Y.Y.Y.Y.",
"Y.Y.Y.Y.R.g D G D S ; : : : : + o o > L F , <.L # S G G F G G G D G F G G G L T L G T L L G G F D G D G G G F : ; < ; G G : o o + : : : : : F G G S m.E.Y.Y.Y.Y.",
"Y.Y.Y.Y.W.T.q G G G : : : : : : + o o < F @ : < G G D G G G G G G G G G G G F D F G D G D G G G G G G G G F G G S : O S , o o + : : : : : < G G G k E.Y.Y.R.Y.Y.",
"Y.Y.Y.Y.R.E.N.2 G G F : : : : : : O o o ; S G L G G G G G G G G G F G G G G G G G G G G G G G G G G F G G G G G G L S + o o + : : : : : : D D G 7 D.R.R.R.R.Y.Y.",
"Y.U.R.Y.R.T.I.f D G G < ; : : : : : + o o ; G G F G G G G F G G G G F G G G D G G G F G G G G G F G G G G G G D G F @ o o + : : : : : ; S G G S m.E.Y.R.Y.Y.Y.Y.",
"Y.Y.Y.Y.W.% V.P.s D D G > : : : : : : + O X + S G D D G G G G G G G G G G G G G G G G G G G G G F G G G F G G L < + X O @ : : : : : : < G L D n E.R.R.Y.Y.Y.Y.Y.",
"Y.Y.Y.R.R.I.Y.R.U.9 G G D : : : : : : : @ O X o : F L D G G F G G G F G D G G G F G G G G F G G G G G G G G F ; o X O @ : : : : : ; , D G D k T.R.Y.R.W.Y.Y.E.Y.",
"Y.Y.Y.R.R.R.Y.R.Q.R.6 D L F : ; : : : : : @ + X o O , F L G G G G G G G G G G G F G F G G G G D D G G G F : O X X + : : : : : : : : F G D q U.R.Y.Y.= C.Y.Y.Y.Y.",
"Y.R.R.R.R.Y.Y.Y.Y.R.D.6 D L D , : : : ; : : : @ O o X O : S G G G G G G F G G F G G G D G G G G L G 2 : O X X O @ : : : : : : # : S G D e R.R.Q.V.* V.V.= Y.Y.Y.",
"R.R.R.R.R.R.R.R.R.Y.E.N.6 G G D : : : : : : : : ; @ O o o o @ , S F D G G G G G L G L G L D F 2 : + X X X O @ # : : : : : : : : F G D w D.W.Y.R.I.Z.Q.Y.* Y.R.R.",
"R.R.R.R.R.R.R.R.R.R.Q.E.N.5 G G F , : : : : : : : : ; @ O O X X X + @ : < < 2 < 2 < > > : @ O o o X O + @ : : : : : ; : : : : F G D e U.R.R.R.R.R.R.W.Y.R.Y.R.R.",
"R.R.R.R.R.R.R.R.R.R.R.Y.E.D.t D G G < : ; : : : : : : : : @ @ O O o X X o X X X o X X X o o o O + @ # : : : : : : : : : : : D G D d Y.E.R.R.R.R.R.R.R.R.Y.Y.R.R.",
"Y.R.R.R.R.R.R.R.R.R.R.R.Y.E.U.k D G G F : : : : : : : : : : : : @ @ @ + + + O O O O O + + @ @ ; : : : : : : : : : : : : S G G S N E.R.R.Q.R.R.R.R.R.R.R.Y.Y.Y.R.",
"Y.R.R.R.Y.Y.R.R.R.R.R.R.Y.W.R.T.M 2 D G D 2 : : : : : : : # : : : : : : : : : ; : ; : : : : : : : : : : : : : : : : , F G G 6 M.I.U.% L.U.Y.Y.Y.Y.R.R.Y.Y.Y.R.Y.",
"Y.R.R.R.R.R.R.R.R.R.R.R.W.L.U.Q.E.D.t F G L D < : ; : : : : : : : : : : : : : : : : : : : : : : : : : : : : : ; , S G G S k D.Q.* * L.Z.= R.Y.Y.R.R.R.E.R.R.R.R.",
"R.Y.Y.R.R.R.R.R.R.Y.Y.A.K.= Z.Z.U.E.T.g r D G G F S : : : : : : : : : : : : : ; : : ; : : : : : : : @ : : : < S D J D e m.T.U.Y.U.L.W.R.U.Y.Y.R.R.R.R.R.R.R.Y.R.",
"Y.Y.Y.Y.R.R.R.Y.Y.Y.Q.A.& U.U.% R.Y.Y.T.Y.n 5 D G G G F < : : : : : : : : : : : : : : : : : : : ; : , > 2 D J G D e M U.Y.Y.Y.Y.Y.R.Y.R.Y.Y.R.R.R.R.R.R.R.R.Y.Y.",
"Y.Y.Y.Y.R.R.Y.R.R.R.R.R.Y.Y.Y.R.Y.R.Y.Y.R.E.S.n 7 S D J G G F S < > , : : : : @ ; ; : : : , , < 2 F G G J D S t g U.E.Y.Y.Y.Y.Y.Y.Y.R.R.R.Y.R.R.R.R.R.R.R.R.Y.Y.",
"Y.Y.R.U.R.R.R.Y.R.R.R.R.W.Y.Y.Y.R.R.Y.Y.R.D.Y.E.R.G.k 7 D D G G L D G F S S S S 2 S S S D G G G J G D S 6 z m.E.E.R.Y.Y.Y.Y.Y.Y.Y.R.Y.R.R.R.R.R.R.R.R.R.R.Y.Y.Y.",
"Y.Y.Y.Y.R.R.Y.R.R.R.R.R.Y.Y.Y.Y.Y.Y.Y.Y.Y.Y.R.Y.Y.E.E.D.m.l e S S D D G G G J G G J G G D D F 2 6 e N M.R.E.E.Y.Y.Y.Y.Y.Y.Y.Y.Y.Y.R.Y.R.R.R.R.R.R.R.R.R.Y.Y.Y.Y.",
"Y.Y.Y.Y.Y.R.Y.R.Y.R.R.R.Y.Y.Y.Y.Y.Y.Y.Y.R.Y.Y.Y.Y.Y.Y.R.E.E.E.D.m.m d 9 5 8 8 H 8 8 7 5 0 s m m.D.E.E.E.R.Y.Y.Y.Y.Y.Y.Y.Y.Y.Y.Y.Y.R.R.R.Y.R.R.R.R.R.R.R.Y.Y.Y.Y."
};
