/* XPM */
static char *New_Project__1__resized[] = {
/* columns rows colors chars-per-pixel */
"80 80 213 2 ",
"   c #976900",
".  c #9C6E00",
"X  c #9E7000",
"o  c #9E7B0B",
"O  c #A06E00",
"+  c #A27400",
"@  c #A77900",
"#  c #AB7D00",
"$  c #A17F0C",
"%  c #B17D00",
"&  c #6FB656",
"*  c #74B956",
"=  c #7CBB56",
"-  c #72BA59",
";  c #7BBD58",
":  c #74B754",
">  c #9E8512",
",  c #AE8101",
"<  c #A3820D",
"1  c #A8860B",
"2  c #AA890D",
"3  c #B28300",
"4  c #B78800",
"5  c #BB8C00",
"6  c #BA8700",
"7  c #B69600",
"8  c #BE9101",
"9  c #B79800",
"0  c #BB9B00",
"q  c #B4930C",
"w  c #BB9509",
"e  c #BD990B",
"r  c #A78C13",
"t  c #AE9515",
"y  c #AD9D1E",
"u  c #A4921C",
"i  c #BA9B10",
"p  c #B39D1A",
"a  c #B59A13",
"s  c #BFA000",
"d  c #B0A11F",
"f  c #BBA61A",
"g  c #9D9829",
"h  c #9E9323",
"j  c #A99E22",
"k  c #A29D29",
"l  c #9FA22E",
"z  c #9EAE3E",
"x  c #9FA635",
"c  c #9DB43E",
"v  c #ACA124",
"b  c #A5A42D",
"n  c #A9A52A",
"m  c #AEAC2D",
"M  c #B0A221",
"N  c #B1A825",
"B  c #BAAF24",
"V  c #B1AE2C",
"C  c #B2B42C",
"Z  c #A1A633",
"A  c #A5A932",
"S  c #A1AE3B",
"D  c #A8AD33",
"F  c #A3B13C",
"G  c #A9B439",
"H  c #B0B635",
"J  c #C28E00",
"K  c #C39300",
"L  c #CB9600",
"P  c #C59901",
"I  c #CB9B00",
"U  c #D19D00",
"Y  c #C3A200",
"T  c #CDA101",
"R  c #C6AB00",
"E  c #CBAA01",
"W  c #CCA90D",
"Q  c #C9A70E",
"!  c #D4A400",
"~  c #D9A500",
"^  c #D4AA02",
"/  c #DCAC00",
"(  c #D3AD0A",
")  c #CAB100",
"_  c #CDBA00",
"`  c #D4B300",
"'  c #DCB400",
"]  c #D3BC00",
"[  c #DCBB01",
"{  c #DBB70C",
"}  c #C1A512",
"|  c #C7AD16",
" . c #C2B11E",
".. c #CCB314",
"X. c #E1AE00",
"o. c #E2B200",
"O. c #EAB600",
"+. c #E5BA01",
"@. c #ECBC00",
"#. c #E3BD0A",
"$. c #F1BE00",
"%. c #DDBF20",
"&. c #D4C300",
"*. c #DCC200",
"=. c #DAC900",
"-. c #D6CF0E",
";. c #DED302",
":. c #C5C218",
">. c #E6C301",
",. c #EBC400",
"<. c #E1CD01",
"1. c #EDCB01",
"2. c #F3C300",
"3. c #FBC600",
"4. c #F2CD01",
"5. c #FECD00",
"6. c #E4D502",
"7. c #EBD300",
"8. c #E6DA00",
"9. c #EADA00",
"0. c #E7D50A",
"q. c #F5D302",
"w. c #FFD300",
"e. c #FEDC00",
"r. c #FFD70B",
"t. c #FFDB1B",
"y. c #ECE300",
"u. c #ECE801",
"i. c #F2E400",
"p. c #FFE300",
"a. c #F3ED00",
"s. c #FFEC00",
"d. c #FFE30A",
"f. c #F6F500",
"g. c #FEF300",
"h. c #FFFE01",
"j. c #FFFE0B",
"k. c #F6F50C",
"l. c #FFFF12",
"z. c #FEFB1D",
"x. c #DFC43B",
"c. c #FFE423",
"v. c #FFFD25",
"b. c #FFF827",
"n. c #FEEC3E",
"m. c #FFFE3B",
"M. c #FFF73C",
"N. c #80A943",
"B. c #9DAF40",
"V. c #91AF42",
"C. c #89B046",
"Z. c #9DB444",
"A. c #9BB649",
"S. c #9AB94D",
"D. c #93B346",
"F. c #83BD56",
"G. c #8ABF56",
"H. c #83BF59",
"J. c #8CBF58",
"K. c #96BB54",
"L. c #99BD52",
"P. c #95BF5A",
"I. c #9DB55B",
"U. c #A1B340",
"Y. c #8CC156",
"T. c #8CC158",
"R. c #87C157",
"E. c #94C356",
"W. c #9AC457",
"Q. c #9BC856",
"!. c #95C55C",
"~. c #9BC558",
"^. c #97C85E",
"/. c #9AC95D",
"(. c #A0C657",
"). c #FFDA42",
"_. c #E3D251",
"`. c #FFE44E",
"'. c #FFE747",
"]. c #FFFE40",
"[. c #FFFF4B",
"{. c #FEF546",
"}. c #FFE45A",
"|. c #FFFA5B",
" X c #DECB6F",
".X c #FFEC6E",
"XX c #FFFE67",
"oX c #FFE576",
"OX c #FFFF7C",
"+X c #FFFF72",
"@X c #FFFF85",
"#X c #FDFD8C",
"$X c #FFED9C",
"%X c #FFFF90",
"&X c #FFF898",
"*X c #FFFFA5",
"=X c #FFFFAB",
"-X c #FEF3A5",
";X c #FFFFB4",
":X c #FFFFBF",
">X c #FEF4BB",
",X c #F4EAB6",
"<X c #E9E0CD",
"1X c #FFFAC8",
"2X c #FFFCD2",
"3X c #FFFFDA",
"4X c #F8F6D9",
"5X c #FFFEE4",
"6X c #FFFFEE",
"7X c #F8F5E8",
"8X c #F1ECF7",
"9X c #FFFEF5",
"0X c #FFFFFE",
/* pixels */
"W.W.W.W.~.~.W.~.~.~.~.~.~.~.~.W.W.W.W.W.W.W.W.W.W./.^.W.A.G M i Q ( ^ ^ ! T ( T ^ [ >.1.q.0.0.{ ( f H Z.K.!./.W.W.W.W.W.W.W.W.W.W.~.W.~.~.W.~.~.~.~.W.W.W.W.W.W.",
"W.W.W.W.W.W.W.W.~.~.~.~.~.~.W.W.W.W.W.W.W.W.W.!.K.U.M Q ~ / X.O.o.X./ ' ,.q.e.e.p.p.p.p.e.e.e.e.w.5.5.2.#. .G K.!.W.W.W.W.W.W.W.W.~.~.~.~.~.~.~.~.~.W.W.G.F.Q.W.",
"W.W.W.W.~.~.~.~.W.W.(.~.W.~.W.W.W.W.W.W.W.!.A.B ( o.O.$.@.@.@./ / >.q.p.p.p.e.e.e.e.e.e.e.e.e.e.w.5.5.w.w.5.3.+. .Z.E./.W.W.W.W.W.~.W.~.~.~.~.~.~.~.~.- H.= = G.",
"W.W.W.W.~.~.~.~.~.Q.J.W.~.W.W.W.W.W.~.!.A. .@.5.5.w.5.5.w.2.,.4.e.p.e.e.e.e.e.e.e.e.e.e.e.e.e.e.w.5.5.5.5.5.w.w.5.2...Z.!./.K.W.W.~.W.~.~.W.~.~.~.~.~.= W.W.= T.",
"W.!.~.W.~.~.~.~.T.T.& T.T.W.W.W.W./.K.B @.5.w.w.5.5.w.3.@.1.e.p.e.e.e.p.s.g.M.&X|.h.h.h.g.h.g.s.s.e.5.5.3.5.5.5.5.w.w.$. .S.^.W.W.W.W.~.~.~.~.~.~.~.W.(.W.W.~.Q.",
"W.W.W.~.~.~.W.(.; = E.H.- Q.(.~.!.S { 3.w.5.5.5.5.w.@.,.e.p.e.e.e.p.g.v.OX3X0X=Xl.h.h.h.h.h.h.h.h.h.h.g.e.w.5.5.5.5.5.w.5./ A !.~.W.W.(.W.~.~.~.~.~.W.Q.~.W.W.~.",
"W.W.W.~.~.~.~.~.W.E.W.W.W.W./.K.B 3.w.5.5.5.5.5.5.+.1.p.e.e.e.p.h.m.=X0X0X5X{.g.s.s.p.p.p.e.e.p.e.e.w.p.s.g.p.w.5.5.w.5.5.3.O.f K./.W.~.~.~.~.~.~.~.~.~.~.~.W.~.",
"W.W.~.~.~.~.~.~.W.W.W.W.W./.S...w.w.w.5.w.w.w.5.' 4.p.e.e.e.s.].1X0X0X5X.Xp.e.e.e.e.q.q.e.e.q.e.p.p.w.5.5.5.e.p.e.5.5.5.5.2.@.$.( A./.W.~.~.~.~.W.~.~.~.W.~.~.~.",
"W.~.~.~.W.~.~.~.W./.W.Q./.A.;.h.h.h.h.h.h.h.g.*.1.e.e.e.p.z.;X0X0X2X.Xd.p.e.1.>.` R Y Y Y Y Y R ) *.+.2.w.w.5.5.w.e.5.5.w.3.@.@.$./ Z.^.W.W.~.~.~.~.~.~.~.~.~.~.",
"~.~.~.~.~.~.~.~.W.W.Q.Q.z 0.h.j.j.h.h.j.j.k.*.1.e.e.e.s.l.5X0X-X'.p.e.1.{ Y 0 7 7 7 7 0 0 0 7 7 7 9 @ X 5 / 2.w.5.5.w.5.5.5.@.@.@.2./ F /.Q.W.~.~.~.~.~.~.~.~.~.",
"~.~.~.~.~.~.~.~.W.~./.L.<X0X9X9X9X9X9X0X4X%.,.q.e.e.g.h.j.c.d.e.e.>.E 0 7 7 0 E [ >.>.4.` >.1.>.+.) 4 .     @ P 2.w.5.5.5.5.,.@.@.@.$.X.S /.W.W.~.~.~.~.~.~.~.~.",
"W.W.W.W.W.W.~.~.~./.Z._.%X@X@X@X@X@X@X#Xx.,.7.e.e.g.h.s.e.e.p.1.E 0 7 0 ` ,.q.e.p.s.s.g.4 ` h.g.g.s.e.O.I @     @ I 5.w.5.5.$.@.@.@.O.2./ U./.W.~.~.~.W.W.W.W.W.",
"~.~.~.~.~.~.~.~./.K.-.h.h.h.h.h.h.h.h.<.,.1.e.e.g.h.s.e.e.e.' 0 7 0 [ q.e.p.s.h.h.h.h.u.5 Y h.h.h.h.h.g.e.3./ ,     % +.5.5.2.@.@.@.@.@.2.~ S./.W.~.~.~.W.W.W./.",
"W.W.W.W.~.~.~.(.P.:.h.h.h.h.h.h.h.h.6.#.1.1.e.g.h.s.e.p.q.R 9 9 ` q.e.p.g.z.#X1Xv.h.h._ 2.! 6.g.p.p.w.5.w.5.w.5.! @   + P O.o.+.@.@.@.@.O.$.Q L.~.~.~.~.W.W.W.W.",
"W.W.W.~.~.W.= T.C h.h.h.h.h.h.h.h.9./ 1.>.e.g.h.p.e.e.1.0 0 Y 1.e.p.g.m.*X0X0XXXh.h.f.0 e.o.I p.e.e.w.5.5.5.5.w.w.2.5   . 5 ~ ! / O.@.@.@.@.O.M /.~.~.~.W.W.!.W.",
"W.W.W.~.= ; ; V.2.e.w.w.w.e.w.w.q.! o.,.1.s.h.p.e.p.>.0 9 E q.e.p.b.*X0X0X2Xv.h.h.h.[ ] e.2.4 q.e.e.w.5.5.5.5.5.5.w.w.T . . 3 ! ! ~ +.,.@.@.$.~ S /.W.~.W.W.W.W.",
"W.W.W.W.H.J.P.( 5.5.5.5.5.5.5.w.~ o.o.,.e.h.s.w.p.1.0 0 ` e.e.s.OX0X0X5X+Xh.h.g.p.e.T i.w.5.K [ p.e.5.5.w.5.5.5.5.5.5.w./ + . , ! ! ! o.@.@.@.O.P L.~.W.W.W.W.W.",
"W.W.W.W.W./.V 5.w.5.5.5.5.5.w.@.! +.' @.g.g.e.p.1.0 9 ` e.e.n.3X0X3X+Xj.h.h.s.e.p.1.) g.5.5.~ 8 p.e.5.5.5.5.5.5.5.w.5.5.w.o.+ . 4 ! ! ! o.@.@.+.! M /.~.W.W.W.W.",
"W.W.W.W.~.S.@.w.5.w.5.w.5.w.5.! o.o.X.7.h.e.e.q.Y 9 ` e.t.>X6X;Xm.h.h.h.g.p.e.e.p.T ;.s.3.5.O.5 ,.e.5.5.5.5.5.5.5.5.5.5.5.w.^ . . 5 ~ ! ! / @.O./ I Z.!.W.W.W.W.",
"W.W.W.W.!.N O.+.+.O.O.O.O.O.~ / o.o.X.p.e.e.e.E 9 E e.e.b.[.j.h.h.h.h.s.e.e.e.p.e.R h.w.5.5.O.U ! w.5.5.5.5.w.5.5.5.w.5.w.5.2.I . X I ~ ! ! o.2./ ~ p - E.W.W.W.",
"W.W.W./.S.~ o.o./ o.o./ o./ U o.o.o.@.e.5.p.[ 7 Y q.e.s.h.h.h.h.h.h.p.e.p.e.e.p.' _ h.5.5.5.O.+.4 3.w.5.5.5.5.5.w.5.5.5.5.w.@.2.5   @ ! ^ ! ! @.o.! U N./.Q.W.W.",
"W.W.W.!.N X.o.o.o.o.o.o.+.^ ~ o.o.X.,.w.w.,.0 0 1.e.s.h.h.h.h.h.g.p.e.e.e.e.e.p.T u.h.5.5.5.O.,.K ' w.5.5.5.5.w.5.5.5.5.5.3.@.@.o.@ . 5 ~ ! ! ~ +.! ~ p W.W.W.W.",
"W.W.W.L.! o.o.o.o.o.o.o.X.! o.o.o.o.4.w.2., 7 ` e.p.h.h.h.h.h.g.e.e.e.e.e.e.p.4. Xl.p.5.5.w.@.@.o.K w.5.w.5.5.5.5.5.w.5.w.3.O.@.@.I X X P ~ ^ ! / ! ~ I A.W.W.W.",
"W.W.!.D X.o.o.o.o.o.o.o.! ! +.o./ o.5.w.I   , e.e.h.h.h.h.h.s.e.e.e.e.e.e.e.e.{ 8X[.e.5.5.5.@.o.3.5 @.w.5.5.5.5.5.5.5.5.5.2.@.@.@.+.3 . @ T ~ ! ! ! ! ~ v !.W.W.",
"W.W.W.f o.X.o.o.o.X.o.+.T ~ +./ ^ >.w.@.@   T w.s.h.h.h.h.s.e.e.e.e.p.e.e.e.e.,X0X5X}.5.5.5.@.o.5.! ! w.5.5.5.5.5.w.5.5.5.@.@.@.@.@.T + . 3 ! ! ! ~ ! ~ P L.~.W.",
"W.W.Z.~ +.X.o.o.o.o.o./ I ~ o.! ~ 2.w.8 . @ 3.e.h.h.h.h.s.e.e.e.p.e.e.e.e.`.6X0X0X0X0X1X).5.@./ 2.2.5 5.5.5.5.5.5.5.5.w.2.@.@.@.@.@.o.4 . @ K ~ ! ! ! ^ L S /.W.",
"W.!.V X.o.o.o.o.o.o.o.! I ~ / I ' 3.o.@ . T w.g.h.h.h.g.e.e.e.e.e.e.e.e.e.d._.7X0X0XoXr.5.w.@.X.+.w.K X.e.5.5.5.5.5.5.5.$.@.@.@.@.@.O.T + + 3 I ~ ^ ! ! I y /.W.",
"~.!.} O.' o.o.o.o.X.+.I ! ! U P +.3.K . + $.p.h.h.h.h.w.e.p.s.p.p.p.p.e.e.,.P b.0X$X3.5.5.w.@.o.o.5.+.5 5.5.w.w.w.w.w.5.@.,.@.2.@.@.@.~ , . @ 5 ! ! ! U I w L.~.",
"~.L.^ o.o.o.X.o.X.o.X.I ! ~ P I O.+.#   K e.h.h.h.f.4.$.@.o./ ^ / ^ I K P 8 0.h.*X`.5.5.5.w.@.o.X.$.w.P 4 5 K I ~ ~ ^ ! ~ o.o.o.O.@.2.O.L . @ 4 I ! ! I I K Z./.",
"/.S ~ o.o.o.o.o.X.+.! P ^ ~ K I @.U @   ~ ' ] R Y P P T T E ] *.7.y.a.f.h.h.h.h.].t.5.5.5.5.@.o.o.+.5.5.@.o.~ ^ ! I P K 8 K 5 5 5 5 K P K @ . 3 K ! ! I I L A /.",
"/.V X.o.o.o.o.o.o.o.~ ! ~ ! 4 I / 5 + @ 3.` 5 a.a.h.h.h.h.h.h.h.h.h.s.s.p.e.e.w.w.5.5.w.5.5.O.' o.o.2.5.w.w.w.3.3.2.2.O.O.o.+.o.! P 5 @ ! 3   # 5 I ! P I L M !.",
"W.f O.X.o.o.o.o.o.o.I ! ~ T 4 T ! 3   5 w.h.=.R h.h.p.p.p.e.w.5.5.5.5.5.5.3.5.5.5.5.5.5.5.5.o.o.o.o.o.O.@.O.@.O.+.+.o.o.o.o.o.! I K , o.O.8 . @ 4 K I I I I i W.",
"W.| o.o.' o.o.o.o.o.I ! ! I 4 I I @   I p.h.h.*.Y h.p.5.5.5.5.5.5.5.5.5.w.5.5.5.5.w.5.5.5.5.+.X.o.o.o./ X.' X.X.o.o.o.o.o./ I I K # o.2.O.T + + 4 4 I I I I 8 A.",
"S.! O.o.o.o.o.o.o.o.! ! ~ K 3 ! K @ . o.g.h.h.s.~ s h.p.$.2.5.5.w.5.5.5.5.5.5.w.5.5.5.5.w.2./ o.o.o.o.o.o.o.o.o.o.o.o.o./ L I K # +.2.O.@.^ @ . 3 3 K I I I P Z.",
"B.! o.X.X.o.X.X.o.~ I ! ^ K 3 ! 5 + . O.h.h.h.5.w.o.0 h.p.O.+.$.3.5.5.w.w.5.5.5.5.5.5.5.w.@.o.o.o.o.o.o.o.o.o.o.' o.o.! K I 5 3 O.$.@.@.@.X.3 . # 3 5 I I I L S ",
"A X.+.o.+.o.+.o.+.' I ~ ! 5 4 I 4 + @ +.g.h.s.5.5.w.X.0 h.p.O.' o.+.@.2.3.5.5.w.5.w.5.w.3.o.o.o.o.o.o.o.o.o.o.o.o.X.I 5 I 5 4 O.,.@.@.@.@.o.4 . # 3 4 I I I L n ",
"A L U I ! I I ! U I ! ! ! 4 4 I 3 . @ @.y.f.p.5.w.5.e.X.8 f.s.O.' o.X.X.o.+.@.$.2.2.2.@.o.o.o.o.o.o.o.o.o.o.o.o./ I 3 P 5 4 O.@.@.@.@.@.@.o.5 . @ 4 3 P I I L j ",
"A J 5 K 5 5 K 5 J 5 ! ! ! 4 3 L 3 . # ,.y.9.4.5.5.5.5.w.O.9 g.p.O.o.o.o.o.o.' X.X.' / o.o.o.o.o.o.o.o.o.o.o.o.! K # K 5 4 O.,.@.@.@.@.@.@.+.5 . @ 3 % P I I I y ",
"n J K K K K J K P 5 I ~ ! 4 4 P 3 . 3 +.i.9.@.,.3.w.w.5.w.@.8 f.p.O.' o.o.o.o.o.o.o.o.o.o.o.X.o.o.X.o.o.o.' U 5 @ K 5 5 $.@.@.@.@.@.@.@.@./ 5 X @ 3 3 K I I I v ",
"n J K K K 8 K K K 5 ! ^ U 6 3 J 3 . 4 X.y.7.O.@.@.2.3.5.5.w.@.7 f.p.O.X.o.o.o.o.o.X.o.o.o.o.o.o.o.' o.o.~ I 5 + K 6 5 @.@.@.@.@.@.@.@.O.o.~ K . @ 3 % 5 I I I p ",
"n J K K 8 J 8 K K 5 U ~ ! 4 3 5 3 . 4 ^ 8.1.@.@.$.@.@.2.2.3.w.2.5 i.p.o.o.o.o.o.o.X.o.o.o.o.o.o.o.o.o.! P 3 . K 6 5 2.@.O.@.@.@.@.@.@.' / ~ 8 X @ 3 3 4 I I I d ",
"n J 8 K K K 8 K P 5 ! ! T 4 4 4 3 . 4 ~ <.,.@.@.@.@.@.O.@.@.@.2.o.4 y.e.X.o.o.o.o.o.o.o.X.o.o.' o.o.o.! 3 . J 4 5 $.@.@.@.@.@.@.@.O.o./ ' ! 5 . @ 3 3 4 I I L M ",
"A J K K K K K K K 5 ! ~ ! 4 3 4 3 . 3 ~ [ ,.@.@.@.@.@.@.@.@.@.O.2.o.5 i.q.X.o.o.o.o.o.o.o.o.o.o.o.o.o.! 4 # 5 K 2.@.@.@.@.@.@.,.@.o./ X.X.! 5 . @ 3 3 4 I I L y ",
"A J K 8 5 K K 5 P 5 I ^ ! 5 4 4 3 . @ ! ` +.$.@.@.@.@.@.@.@.@.,.O.2.P 8.e.@.' o.o.o.o.o.o.o.o.o.o.o.+.~ J @ 3 X.@.@.@.@.@.@.@.O./ / / / / ! 3 . @ 3 , 4 I I L j ",
"Z 5 K J K K 5 K K 5 P ~ ! 5 3 4 3 + + U ^ / @.@.@.@.@.@.@.@.@.@.@.O.P h.5.5.o.o.o.X.o.o.o.o.o.o.o.X.o.~ L # 3 K 2.@.@.@.@.@.+./ / / / / / I 3 . # 3 3 6 I I L n ",
"B.5 K K K K K K K 5 5 I ~ K 3 4 4 @ X I ~ ^ O.@.@.@.@.@.@.@.@.@.2.U _ h.3.5.$.o.o.o.o.o.o.o.o.o.o.o.o./ I 3 3 4 O.@.@.@.@.+./ / ' / X./ ! I # . # 4 % 4 I I L F ",
"S.5 K K K 8 K 5 5 K K I I P 4 4 4 @ . P ~ ! ' $.@.@.@.@.@.@.@.@.2.K u.p.5.5.5.o.o.o.o.o.o.o.X.o.o.o.o.' I 5 # 6 ! 2.@.O./ / / / X./ / / T I @ . 3 3 3 4 I I K B.",
"!.a J 8 K K K K K K 5 I I K 3 4 4 # . 5 ~ ! ! +.,.@.@.@.@.@.@.@.o.Y h.w.5.5.5.o.' o.X.o.! I I T ~ X.+.o.I P # 5 5 ,.o./ / / X./ / / / ~ I P + + 3 3 , 5 I I w S.",
"!.t K K K K 5 K K 8 5 I I P 3 3 4 3   # ~ ! ! ~ ,.@.@.@.@.@.@.2.I &.h.5.5.5.2.X.o.o.o./ K P P P P I ! o.I I 3 5 3 ~ / / / / / / / / X.T I 5 . @ 3 3 % 8 I U i W.",
"/.b J K 8 K K K K K 5 I I P 4 3 4 3 + + T ~ ! ! o.@.@.@.@.@.@.$.K a.g.5.5.w.@.' o.o./ I L I L L I P L I I I 4 4 5 I o./ / / / X./ ' ~ I I , . # 4 3 3 P I L M /.",
"/.S 6 K K K K 8 J K 5 5 I I 5 # 3 3 @ . K ~ ^ ! ! +.@.@.@.@.@./ Y h.p.5.w.3.o.o.o.X.I P # 3 P I P L I P L I K # K 3 / / / X./ / / / I I I @ X # 3 3 3 L I L A /.",
"/.L.5 K 5 K K K 8 K 5 K I I J 3 3 4 @ . 3 ~ ! ! ! ^ O.@.@.@.2.I =.h.w.5.w.@.X.X.o.! J # @ @ @ 5 I L P L P L L @ K 3 ! o./ / / ' / ! I I 8 . @ 3 3 3 4 I I K A./.",
"W./.a J J K 8 K K 8 K 5 I I P 3 3 3 % + + L ! ! ~ ! ~ O.,.@.@.P f.h.5.5.3.o.o.+.! 5 3 @ K 5 # @ @ J I I P L I 3 5 5 K o./ / / X.! I I I # . @ 3 3 , 5 I I w L.W.",
"W./.b J 8 K K K K K K 5 K I I 4 3 3 3 @ . 4 I I U ! ^ ~ O.2.~ R h.g.5.5.O.X.o.^ K 3 4 / 2.O.P , 3 @ % P I P I 5 3 P 4 / / / o.! P I I K + + 3 3 3 3 P I I y /.W.",
"W./.Z.5 K K J K K 5 K 8 8 I I 5 , 3 4 # . + P I I I I I ! O.P ;.h.p.5.2./ +./ 5 3 P o.O./ / o.! 5 , , @ 3 L I P # I , ! X./ ! I I L I 3 . @ 3 3 3 5 I I L U./.W.",
"W.W.W.r 3 4 3 3 3 4 3 3 4 I I I 3 3 3 3 @ . 4 I I I I I P I 8 h.h.e.3.o.+.~ 3 6 ! o./ / / / / o.o.I 4 3 % # 5 I % K 5 K o.T P I I I P + + # 3 3 # 5 I I w L.W.W.",
"W.W./.x , , , , 3 , , , # K I I 5 # 3 3 # + + P I I I I I 5 ) h.g.w.@.o.I 3 I o.o./ / / / / / / / o./ K 4 3 # 3 4 5 L 3 I I I I I I 3 . @ 3 3 3 3 P I L k !.W.W.",
"W.W.W.S., 3 3 , , 3 , 3 , 5 I I K , 3 3 3 @ . , I I P I ! 3 8.h.g.3.! 5 8 / o.~ / / / / / o./ / / / / o.! 6 4 3 @ # I 3 K I P I I 5 X + , 3 3 3 5 I I K A.!.W.W.",
"W.W.W./.b # , 3 3 3 , 3 , , P I I 4 3 3 3 3 + O 5 I I I P 5 h.h.e.K , P / / / ' / / / / / / / / / / ' / / o.I 3 4 5 I 5 4 I I I I + X @ 4 3 3 3 K I I p /.Q.W.W.",
"W.W.W./.S.# 3 , , , 3 , 3 # 5 I I K , 3 3 3 @ . + P I I 6 &.h.[ , 5 I I L I ! ! ~ / ' / / / o./ / / ~ ~ ! I I P 4 # J I 3 P I I , . @ 3 3 3 % 4 I I K Z.W.W.W.W.",
"W.W.W.W./.k % , 3 , 3 , , , , P I I 4 3 3 3 3 @ . @ I I 4 =.K % I I I I I P I P I I I I U I I I ! I I I P I P I I P , 4 3 5 ! 4 . + % 3 3 3 3 K I L p W.W.W.W.W.",
"!.W.W.W.W.L., 3 , 3 , 3 3 3 # 5 I I K , 3 3 3 , + X # I @ 3 K T I P I P I I I I I P I I I I I I I P I I I I I I I I I 5 @ 3 5 . + @ 3 3 3 % 5 I I P Z./.W.W.W.W.",
"W.E.W.W.W./.b 3 , 3 , , , 3 3 # K I I 6 3 3 3 3 # + X @ 5 I I I I I I I P I I I I I P I I I P I I I I I I I P I I I I I I , X X @ 3 3 3 3 3 P I L v ^.W.W.W.W.W.",
"W.W.W.W.W.E.T.> 3 , 3 , 3 , 3 , 3 I I K 3 3 3 3 4 # X X # I I P I I I I I I I I I I I I I I I I I I P I I I I I I I I I 5 + X @ 3 3 3 3 3 5 I I w L.~.W.W.W.W.W.",
"W.W.W.W.~.: R.C.# 3 3 , 3 , , 3 , 5 I I 5 , 3 3 3 3 # + . @ K I I I I I I I I I P I I I I I I P I I I P I I I P I I I 3 X X @ 3 3 3 3 3 4 I I K S /.W.W.W.W.W.W.",
"W.W.~.~.~.J.E./.l % 3 , , 3 3 , , , K I I 5 3 3 3 3 4 # + . + 5 I I I P I I I I I I I P P I I I I I I I I I I I I K # . + @ 3 3 3 3 3 # K I L j /.~.~.~.W.W.~.~.",
"W.W.W.~.~.~.~.~./.u % 4 3 3 , 3 , 3 , P I P 3 3 3 3 3 3 # @ X . # K I I P I I I I I I I I I I I I I L I I I I P 4 + . + # 3 3 3 3 3 3 5 I L a W.~.~.= J.W.W.W.~.",
"W.~.~.~.~.~.~.W.W.W.1 % , , 3 , 3 3 , 3 I I P 3 3 3 3 3 4 3 @ + . + , K I I I I I I P I I I P I P I I I I P 4 @ . . @ % 3 3 3 3 3 3 4 I U w L.(.F.; = F.- W.~.~.",
"~.~.W.~.~.~.~.~.~./.S.1 3 , , , , 3 3 , 4 I I K 3 3 3 3 3 3 3 # @ . . X @ 4 K I I I I I I T I I I I I 5 3 + . X + @ 3 3 3 3 3 3 3 4 P I J Z./.Q.J.H.(.W.F.W.~.~.",
"~.W.~.~.~.~.~.~.~.~./.A., % 3 3 3 , , 3 , 5 I I K 3 3 3 3 3 3 3 4 # @ X . . + @ # 5 5 5 8 5 5 5 4 @ + . . . @ @ 3 3 3 3 3 3 3 % 3 L I K z /.W.~.(.W.W.~.~.W.~.W.",
"~.~.~.~.~.~.~.~.W.~.W./.S., 3 3 , , 3 , , , 4 I I P 3 3 3 3 3 3 3 3 3 % @ @ + . . . . . + . . . . X O + @ # 3 3 3 3 3 3 3 3 3 4 P I J Z./.W.W.~.(.W.W.~./.W.W.W.",
"W.W.~.W.~.W.W.~.W.W.W.W./.L.1 % , 3 , 3 , , , 4 I I I 6 3 3 3 3 3 3 3 3 3 3 , # @ @ @ + + + + @ @ # # 3 3 3 3 3 3 3 3 3 3 3 5 I U K Z./.(.~.~.~.W.W./.W.W.W.W.W.",
"~.W.W.W.W.W.~.~.~.~.~.(.W.(.W.r % 3 3 3 3 , 3 , 3 P I I K 3 3 3 3 3 3 3 3 3 3 3 4 3 % 3 3 3 3 3 3 3 4 3 3 3 3 3 3 3 3 % 3 K I L q D.- T.E.W.W./.W.~.~.W.W.W.W.W.",
"~.~.~.~.~.~.~.~.~.~.~.~.~.G.!.~.k # % 3 3 , 3 3 , % K I I P 5 3 3 3 3 3 3 3 3 3 3 3 3 3 3 3 3 3 3 3 3 3 3 3 3 3 3 3 3 5 I U K p : ; T.R.* (.W.W.W.~.~.~.W.W./.(.",
"~.W.~.W.~.~.~.~./.W.~.P.H.- F.F.!.Z.< + @ @ @ @ @ @ + 3 I I I P 5 3 # 3 3 3 3 3 3 3 3 3 3 3 3 3 3 3 3 3 3 3 3 3 4 5 P I I w S !.T.E.~.!.T.Q.~.~.W.~.~.~./.W.W.!.",
"W.W.W.W.~.~.~.~.W.W.~.T.* W.E.* W.~.W.g X . X X X + X . @ 5 I I I P J 5 3 3 3 % % 3 3 3 3 3 3 3 3 3 3 % % 3 4 K I I I K j L.W.W.W.W.W.Q.(.~.~.~.~.~.~.~.W.W.W.W.",
"W.W.W.W.W.W.~.W.W.~.~.~.W.Q.W.W.W.W.W./.S.h + O O + + + . . @ 5 I I I I P K 5 5 3 3 3 , 3 3 3 3 3 3 5 5 8 P I I L K y A.!.W.W.W.W.W.~.~.W.W.~.~.~.~.~.~.~.W.W.W.",
"W.W.!.W.W.~.W.W.~.~.~.~.Q.W.~.W.W.W.W.W.W./.S.g o O . . + + + . @ 5 P I I I I I I P K K 8 K 8 K P I I I U I L w j Z.!./.W.W.W.W.W.~.~.~.~.W.~.~.~.~.~.~.~.W.W.W.",
"W.W.W.W.W.W.W.W.~.~.~.~.W.W.W.W.W.W.W.W.W.W.W./.W.Z.g < + O O O . . O @ 6 J L L I I I I I U I I I L L K e j U.L./.W.W.W.W.W.W.W.W.W.W.~.~.~.~.~.~.~.~.W.W.W.W.W.",
"W.W.W.W./.W.W.W.~.~.~.W.W.W.W.W.W.W.W.!.W.W.W.W.W././.W.A.B.g > o < o o o o $ 1 2 q w e i P e q t j F Z.W.!./.~.W.W.W.W.W.W.W.W.W.W.~.~.~.W.~.~.~.~.~.W.W.W.W.W."
};
