/* XPM */
static char *New_Project__9__resized[] = {
/* columns rows colors chars-per-pixel */
"80 80 223 2 ",
"   c #966800",
".  c #9C6E00",
"X  c #9E7100",
"o  c #9F7807",
"O  c #9F7C0A",
"+  c #A06E00",
"@  c #A27400",
"#  c #A77900",
"$  c #AB7D00",
"%  c #A07C0A",
"&  c #B17D00",
"*  c #74B956",
"=  c #7CBC56",
"-  c #72BA59",
";  c #7BBD58",
":  c #74B754",
">  c #76B14F",
",  c #9F800F",
"<  c #9F8714",
"1  c #AE8101",
"2  c #A9860B",
"3  c #B28300",
"4  c #B78800",
"5  c #BC8C00",
"6  c #B68F08",
"7  c #B69600",
"8  c #BE9101",
"9  c #B79800",
"0  c #BA9B00",
"q  c #BA960A",
"w  c #BD9B0C",
"e  c #B1920D",
"r  c #AE9B1B",
"t  c #B59912",
"y  c #B29814",
"u  c #A58F18",
"i  c #B5A51E",
"p  c #BBA51A",
"a  c #9D9525",
"s  c #AA9E22",
"d  c #A39A26",
"f  c #9FA12F",
"g  c #9DAC3D",
"h  c #95AE3C",
"j  c #9FB23B",
"k  c #ABA225",
"l  c #A6A32A",
"z  c #ABA629",
"x  c #AAA92D",
"c  c #B1A522",
"v  c #B2AC28",
"b  c #B6AC25",
"n  c #B9B625",
"m  c #A5AA33",
"M  c #A1AD3A",
"N  c #A8AF35",
"B  c #A4B33C",
"V  c #ABB637",
"C  c #B1BB34",
"Z  c #C28E00",
"A  c #C39300",
"S  c #CB9600",
"D  c #C69900",
"F  c #CB9B00",
"G  c #C59E09",
"H  c #D09D00",
"J  c #C3A300",
"K  c #CEA100",
"L  c #C6AA00",
"P  c #CCAB00",
"I  c #CAA50A",
"U  c #C6A40D",
"Y  c #D4A400",
"T  c #D9A500",
"R  c #D6A901",
"E  c #DCAC00",
"W  c #D5AC0A",
"Q  c #CEB900",
"!  c #CDB407",
"~  c #D3B300",
"^  c #DAB200",
"/  c #D3BA01",
"(  c #DBBA01",
")  c #D7B40C",
"_  c #D4AC18",
"`  c #C6B71A",
"'  c #CFB017",
"]  c #E2AE00",
"[  c #E2B200",
"{  c #E9B700",
"}  c #E1BE01",
"|  c #ECBC00",
" . c #E3B409",
".. c #F0BF00",
"X. c #E4B710",
"o. c #E5B918",
"O. c #C3BC20",
"+. c #CFB831",
"@. c #CEAA33",
"#. c #E6BD26",
"$. c #D4C200",
"%. c #DBCE00",
"&. c #DFC604",
"*. c #DDD500",
"=. c #DCD409",
"-. c #CBC318",
";. c #D2C013",
":. c #E4C301",
">. c #EBC400",
",. c #E6CA04",
"<. c #ECCB01",
"1. c #E2C90B",
"2. c #F3C300",
"3. c #F9C600",
"4. c #F3CD00",
"5. c #FECD00",
"6. c #FFCD08",
"7. c #E3D500",
"8. c #ECD500",
"9. c #E4DB01",
"0. c #EADE01",
"q. c #F4D201",
"w. c #FFD200",
"e. c #FFDC01",
"r. c #F2DB00",
"t. c #FBD417",
"y. c #E6E100",
"u. c #EBE500",
"i. c #EDEA00",
"p. c #F4E500",
"a. c #FFE200",
"s. c #F4EC00",
"d. c #FEEB00",
"f. c #FFE60A",
"g. c #F3F000",
"h. c #FEF401",
"j. c #FFFE00",
"k. c #FFFD0A",
"l. c #F3F008",
"z. c #FFE819",
"x. c #FFE418",
"c. c #FFFF12",
"v. c #FFF318",
"b. c #F9CE20",
"n. c #FFDF22",
"m. c #FFDB3E",
"M. c #FFDA36",
"N. c #EFC937",
"B. c #FFE223",
"V. c #FFE92D",
"C. c #FFE528",
"Z. c #FFFD24",
"A. c #FFF825",
"S. c #FFFF3B",
"D. c #8CAD41",
"F. c #9DB445",
"G. c #9BB649",
"H. c #9BB94C",
"J. c #96B84A",
"K. c #83BD56",
"L. c #8CBF56",
"P. c #84BF58",
"I. c #8CBF58",
"U. c #96BD54",
"Y. c #99BD52",
"T. c #98B957",
"R. c #A0B240",
"E. c #A1B944",
"W. c #D3B873",
"Q. c #8CC156",
"!. c #8CC158",
"~. c #84C058",
"^. c #94C356",
"/. c #9AC457",
"(. c #95C55C",
"). c #9BC558",
"_. c #97C85D",
"`. c #9AC95D",
"'. c #9EC857",
"]. c #A0C657",
"[. c #E7DD4F",
"{. c #FFDC4C",
"}. c #FFDE56",
"|. c #EBC94D",
" X c #FEE642",
".X c #FEE84B",
"XX c #FFFE44",
"oX c #FBF94C",
"OX c #FFE55E",
"+X c #FFFB58",
"@X c #ECCE61",
"#X c #F6DC76",
"$X c #FFE36C",
"%X c #FFEE6A",
"&X c #FFFF62",
"*X c #FFFF6D",
"=X c #FFE975",
"-X c #FFF670",
";X c #FFEA87",
":X c #FFF680",
">X c #FEFE8D",
",X c #FFEC99",
"<X c #FFFF92",
"1X c #FFFF9B",
"2X c #F8F798",
"3X c #ECDEAB",
"4X c #FFEFA6",
"5X c #FFF5A1",
"6X c #FFFAA0",
"7X c #FFFDB4",
"8X c #FFFFBB",
"9X c #FEF5B8",
"0X c #ECE2CD",
"qX c #FFF3C1",
"wX c #FFFFCD",
"eX c #F9F7C4",
"rX c #FFFBDC",
"tX c #FFFFD2",
"yX c #F9EEC4",
"uX c #FFFFE3",
"iX c #FEFEEC",
"pX c #FFFEF4",
"aX c #FFFFFF",
/* pixels */
"/././././.)././.).).).).).).'././././././././././._._.U.E.C O.;.1.,.<.<.<.| R G S F G K Y R W U p c N E.U._._.`./././././././././././.).)./.).).).)././././././.",
"/././././.)./.).).).).).).)./././././.(./././.(.Y.V -.1.q.e.e.e.e.a.a.a.a.a.w.w.w.3.2.[ R R ] [ [ ] ] T I p M Y.(././.Y./././././.).).).).).).).).)./.'.I.K././.",
"/././././.)./.).)./.].)./././././././././.(.H.O.,.w.e.a.a.e.e.e.e.e.e.e.e.e.e.w.5.5.w.5.5.2.[ Y E { | { | { [ W b G.(.(./././././././.).)./.).)./././.- P.= = L.",
"/././././.).).).).'.I./.)././././././.(.F.-.q.e.a.e.e.e.e.e.e.e.a.e.e.e.e.e.e.w.5.5.5.5.w.w.w.5.| [ 2.5.w.5.5.5.5...` F.(._./././.).).)./.).).)./.'./.= ^./.= Q.",
"/././.).).).).).!.!.: !.I./.)././.(.H.O.q.e.a.e.e.e.a.h.v.+X6XZ.h.j.j.j.h.h.d.a.w.5.3.5.5.5.5.w.w.5.{ { 3.w.5.5.5.w.w.| b H.(.'.).).).).).).).).).).).).'./.).'.",
"/.(.).).).)./.].; ; ^.~.- /.).).(.V ,.e.e.e.e.e.d.k.XX1XaXaX*Xj.j.j.j.j.j.j.j.j.j.j.d.e.5.5.5.5.5.5.w.2.E | w.w.5.5.5.w.5. .B (.)./.).).'.).).).).).).)./././.).",
"/./.).).).).).).^.^.)./.^.'.`.Y.` w.a.e.e.e.d.k.&XwXaXaX7Xv.h.d.a.a.a.a.e.e.e.a.e.e.a.h.d.e.w.5.5.5.5.5.>.E [ 5.5.5.5.5.5.w.3.p T._././.).).).).).).).)./.)./.).",
"/./.).).).).).).)././././._.H.) e.a.e.e.a.h.*XuXaXaX9X Xe.e.e.e.e.e.w.q.e.e.e.a.e.5.5.5.w.a.a.w.5.w.5.5...| [ E 5.w.5.w.w.5.w.w.) H._.'.).).).).)./.).)./.).).).",
").).).).).).).)././././._.E.( w.e.e.e.d.oXiXaXaX9X Xe.e.w.<.( ~ J J J J J J P ~ :.{ 4.w.w.5.5.w.w.5.5.w.2.| ..{ ^ s.j.j.j.j.h.j.j.9.F._././.).).).).).).).).).).",
").).).).).).).).).).'._.B } q.e.e.e.h.&XaXrX;XB.e.e.:.! 0 9 7 7 9 9 0 0 9 9 9 9 7 X # A [ 5.w.5.w.5.5.5.3.{ | >.{ ^ l.k.j.j.j.j.j.j.0.j ).).).).).).).).).).).).",
"/.).).).).)./.).).'._.R.} <.e.e.a.j.j.z.B.e.a.e.( J 9 7 0 L P ( :.4.:.R 4.>.:.^ L $     . 3 R 5.w.5.5.5.3.| | | | | _ eXpXiXiXiXiXiXpX0XT./.).).).).).)./.).).).",
"/./././././././.)._.E.} <.q.e.a.j.j.d.e.e.e.:.0 9 9 J ( <.q.e.a.a.j.$.1 h.h.h.h.d.4.] 5 @   . 3 [ w.w.w.5.| | | | >.| @.2X>X<X<X<X<X>X1X[.F.`.).).).)./././././.",
").).).)././.`.'./.G.( <.<.e.a.j.j.a.e.a.q.L 9 7 J :.q.a.d.d.j.j.j.j.L A y.j.j.j.j.h.d.w...S @   . A 2.5.5.| | | | | | { ( j.j.j.j.j.j.j.j.=.U._./.).).)./._././.",
"/./././././.'.)./.` 4.<.w.a.j.j.a.e.e.:.0 7 D } e.a.d.h.XX8X<Xj.j.9.K ..J j.d.a.e.w.w.5.w.w.2.A .   $ Y { [ | | | | | 2.[ &.j.j.j.j.j.j.j.j.-.T.].).).)././././.",
"/././.)././.; (.k | <.<.e.j.j.e.e.e.( 9 0 P q.a.a.h.&XwXaXiXZ.j.j.Q <.w.5 q.e.e.e.5.5.5.w.5.w.w.[ $   @ S R Y [ | | | | 2.R 7.j.j.j.j.j.j.j.j.n _.).).)././././.",
"/././.).; = ; h R | <.q.h.j.e.e.a.~ 9 0 ( a.a.d.+XtXaXaX1Xc.j.j.p.J a.5.S ( a.e.e.5.5.5.5.5.5.5.w.2.4 . X A R Y E { | | | { K 4.e.e.w.w.e.w.e.2.R.`././././././.",
"/./././.P.I.Y.I [ { <.d.j.e.e.e.~ 9 9 :.a.e.A.8XaXaX8XS.j.c.h.d.^ / a.5.^ A e.e.w.5.5.5.5.5.5.w.5.w.5.A . X A R Y T { | | ..T Y 5.5.5.5.5.5.5.w.) T.)./././././.",
"/././././._.c ] [ E q.j.a.e.a.( 9 0 <.e.e.-XaXaX8XXXj.j.j.B.e.e.J s.w.5.| 4 <.a.w.5.w.5.w.5.5.5.5.5.5.w.A . X A R Y Y { >.| [ S { w.5.5.5.5.5.w.5.v (.'././././.",
"/./././._.G.T [ [ ] s.d.e.a.:.9 0 :.a..XrXuX>XZ.j.j.j.d.e.C.f.>.P j.3.5...H P a.5.5.5.5.5.5.5.5.5.5.5.w.w.5 . @ F T Y Y [ >.{ Y F 5.w.5.5.w.5.5.w.| J._././././.",
"/./././._.p [ [ ] >.d.e.e.q.0 9 :.a.e.XXS.j.j.j.j.k.a.e.e. Xf.K 7.h.5.w.| [ 5 w.w.5.w.5.5.5.5.5.w.5.5.5.3.| 3 . $ Y Y Y R { | R Y Y | { { | { | { | i - ^./.^./.",
"/././.`.F.T { [ ] q.w.w.e.J 7 ~ a.e.h.j.j.j.j.j.h.e.e.e.e.%Xt.J j.a.5.w...| A E w.5.5.5.5.5.5.5.5.5.5.5.3.| [ # . 4 T T Y R ..E Y D E [ E [ [ ^ [ [ T D.(./././.",
"/././.(.i [ [ [ [ 4.5.w.~ 9 J e.e.h.j.j.j.j.j.d.e.e.e.e.e.-Xo.Q j.w.5.w.2.{ ] A w.5.5.5.5.w.5.w.5.5.5.w.2.{ 2.F X X S R Y Y ] ] Y Y Y [ [ [ [ [ [ [ ] b (./././.",
"/./.).H.Y [ [ ] | w.w.E $ 0 <.e.d.j.j.j.j.j.d.e.e.e.e.e.e.1X@.y.j.w.5.5.2.[ 2.4 | w.5.w.5.5.5.w.5.5.5.5.2.| | { 4 . # Y Y Y Y R Y R S [ [ [ [ [ [ ^ [ R H._././.",
"/./._.x ] [ [ E >.w.3.3   J a.a.j.j.j.j.j.a.e.e.e.e.e.e.e.yX+.j.h.5.5.5.4.E 5.Y Y w.5.5.5.5.5.5.w.5.5.5.| | | >.Y @ . 4 R Y Y T Y Y K Y [ [ [ [ [ [ [ ] x (././.",
"/.).Y.w [ [ R ^ 4.w.K . @ ..e.j.j.j.j.j.a.e.e.e.e.e.e.e.e.iXoXj.d.5.5.w.3.E 2.2.5 5.w.5.5.5.5.5.5.5.5.4.| | | | [ 5 . @ A R Y Y Y R Y S [ [ [ [ [ [ [ [ U U.'./.",
"/./.R.H E [ H [ 5...$   A w.a.j.j.j.j.a.e.e.e.e.a.e.a.e.x.aX*Xj.e.6.6.5.3.[ [ w.A [ w.5.w.5.5.w.5.5.5.2.| | | | { R # X $ F R Y Y Y Y A E [ [ [ [ [ [ [ E R._./.",
"/._.c Y R R H { w.S . @ | e.j.j.j.j.d.e.e.e.e.e.e.e.e.w.=XaXeXj.w.3.3.5.2.[ [ 5.[ A w.5.5.5.5.5.5.5.3.{ | | | | | [ 5 X # 4 Y T Y Y Y A Y [ [ [ [ ] [ [ ] v _./.",
"/./.G T R S Y | | $ . 5 w.h.j.j.j.d.w.a.a.f.f.z.V..X%X5XpXaXaXuX5X=X}.M.b. .[ | w.8 | 5.5.w.w.w.w.w.3.| ..>.| | | { K @ @ 3 D T Y R F D F [ [ [ [ [ [ [ [ U /.).",
"(.G.S T Y 8 E ..Y @ . ] d.j.j.j.s...{ {  .^ W _ @.W.3XiXaXaXaXpX9X,X$Xm.b. .] [ w.E 4 8 8 S H Y E E R E ^ [ { | | ..[ 3 . $ 5 Y T Y S F A ] [ [ [ [ [ [ [ T H._.",
"_.N Y R Y 4 R { 5 . $ T P P 0 D D F K P / &.,.0.p.s.h.j.<XaXrXx.3.5.5.5.3.[ [ [ 3.w.2.[ E R Y F F D A 8 5 5 8 5 5 A A 8 . @ 3 S T J F F A R [ [ [ [ ] [ [ ] N _.",
"_.c T T S 4 R R 1   A 4.1 ,.h.h.j.j.j.j.j.j.j.j.j.d.f.e.n.aX4X5.6.5.6.5.2.[ [ [ | w.w.w.w.5.3.4.2.| { [ [ { [ F A # A Y @ @ 3 8 Y F F F S Y [ [ ^ [ [ [ [ [ v (.",
"/.t T R A 4 R S # . T d.g.0 g.j.d.a.a.e.w.w.w.5.5.3.5.5.6.pX;X5.6.5.5.w...^ [ [ [ [ { | { { { { [ [ [ [ [ E S S 3 F 2.E 3 . $ 4 F F F S D F [ [ [ [ [ [ [ [ U /.",
"Y.I T Y 5 5 T 4 @ X | d.j.s.9 u.j.5.5.5.5.5.5.5.5.w.5.5.5.uX$X3.5.5.5.w.{ [ [ [ [ [ ] ^ ] [ ^ ] [ [ [ [ Y S S 1 F 2.| [ 5 . $ 3 5 F F F F D [ [ [ [ [ [ [ [ I Y.",
"F.F Y Y 4 5 Y 3 X # 5.j.j.j.5.5 y.j.2...3.5.w.5.5.5.5.6.3.qX}.5.6.5.5.w.[ [ [ [ [ [ [ [ [ [ [ [ [ [ [ F A D 1 K 2.| | { A X # 3 4 F S F F A E [ [ [ [ [ [ [ E H.",
"M H T Y 4 A Y 3 . 4 e.j.j.d.5.3.5 y.j.2.[ | 2.5.w.5.5.5.5.4X{.5.5.5.5.3.[ [ [ [ [ ] [ [ [ [ ] [ [ R S A S 1 Y 2.| | | | K @ @ 3 3 D F F F A E [ [ [ ] [ [ [ E B ",
"m Y R F 3 A F $   5 q.j.j.e.5.w.5.5 9.j.2.[ ] [ { 2.3.6.5.;Xm.5.w.w.5.{ [ [ [ [ [ [ [ ^ [ [ [ [ R A A D $ Y ..| | | | | R # X 1 1 8 F F F A E } [ [ [ [ [ [ ] N ",
"z H T F 3 5 A $ . A 4.i.h.w.5.5.w.5.5 7.j.2.[ [ [ [ [ [ { #XN.2.2.2.{ E [ [ ^ [ [ [ [ [ [ [ E Y 5 5 A 3 R 2.| | | | | | E $ @ $ 3 4 F F F A D Y Y F F Y F Y S x ",
"c T R S 4 5 A # . A 8.u.8.3.w.5.5.5.5.8 %.j.3.] [ [ [  .E @X#.] [ E [ [ [ [ [ [ [ [ [ [ [ R F 3 4 S 1 R 2.{ >.| | | | | R $ @ $ 3 4 S F F D 4 8 A 8 A 5 8 5 Z l ",
"c T R S 3 4 Z # . A <.i.<.| 2.5.5.5.w.5.Z %.j...[ [ [ [ ] |.#.] [ [ [ [ [ [ ] [ [ [ [ [ R S $ 4 A $ E 2.{ | | | | | ..{ Y $ . $ 3 3 D F F S 5 A A A A A A 8 Z s ",
"i T R S 4 4 5 # . Z :.i.>.| | ..2.5.5.w.w.A $.j...^ [ [ E N.o.[ [ [ [ [ [ [ [ [ [ [ ] Y A @ 3 S & [ 2.{ | | | | | >.[ E Y 3 . $ 4 3 A F F D 5 A 8 A 5 A A A Z s ",
"i Y R S 4 4 4 # . A ( y.| | | | | | 2.2.5.w.A / h.| [ [ [ #. .[ [ [ [ [ [ [ [ [ [ E S A . 3 A $ [ 2.| | | | | | | { E E Y 3 . $ 3 3 A F F D 5 A A A A A A 8 Z s ",
"i H R F 3 4 4 # . A ^ 8.| | | | | | | | | >.2.Z / h.{ [ [ X. .] [ [ ^ [ [ ] [ [ [ R Z X 3 A 3 [ | | | | | | | >.{ E E E Y $ . $ 4 1 8 S F D 5 8 8 A 5 A A A Z s ",
"c Y T S 4 4 4 $ . 8 R :.| | | | | | | | | { | 2.Z ~ a.[ [ [ [ [ [ [ [ [ [ [ [ [ [ ] A # Z 4 [ ..| | | | | | | { E E [ E Y $ . $ 3 3 A F F S 8 A A Z 5 A A 8 Z l ",
"z T Y F 3 4 4 $ . 8 R ~ | | | | | | | | | | | 2.E L h.3.[ [ [ ^ ] [ [ [ [ ^ [ [ [ E F 1 $ A 2.| | | | | | | [ E E E E R S # X 3 3 3 8 F F A 5 A A 8 A A 8 A Z l ",
"m S T F 4 3 4 & . 3 E R { >.| | | | | | | | | 2.A y.a.5.| E [ [ [ [ [ [ [ [ [ [ [ [ F 4 $ 4 [ >.| | | | | [ E E E E E Y D # X 3 3 & 8 F F A 5 A A Z 8 A A 8 Z M ",
"M A Y Y 4 4 4 3 X 1 R Y R | | | | | >.| | | | { 8 j.w.5.5.[ [ [ [ [ [ [ [ [ [ [ [ [ K 8 $ 4 Y 2.| | | { [ E E E E E E Y A @ @ 3 3 3 A S F 8 5 A 8 A 8 A Z A 5 M ",
"F.A F Y 4 4 4 4 X # Y Y Y { | | | | | | | { 2.Y Q j.5.w.w.| [ [ [ [ [ [ [ [ [ [ [ [ Y D $ 4 Z | { | [ ^ E E E E E ^ R F 5 X @ 3 3 3 A F F 8 5 A A A A A A A 5 G.",
"Y.w F S 4 3 4 4 @ X S T Y T | | | | | | | | 2.A i.d.3.5.5.| E [ [ [ E F S F R [ [ [ Y S 3 4 4 [ | [ E ] E E ] E E ] Y F 4 . $ 3 3 4 A F F 5 A A 5 A A 5 A A 6 Y.",
"/.t F F 5 3 4 4 # . A T Y Y [ | | | | | | >.[ D j.e.5.5.5.{ [ [ [ ^ F D S A D F Y ^ R S 5 3 4 S [ E E E E E E ] E E F F 1 X $ 3 3 3 D F F 5 A 8 A A A A A Z y (.",
"(.k H F A 3 3 4 1   3 Y Y Y Y [ | | | | { 2.K / j.w.5.5.4.[ [ [ [ Y D S S D D S A S K S A # A 4 E E ] ^ E E E E E Y S S @ X 1 3 3 4 S F D 5 A 8 A 5 5 A A Z s _.",
"_.N S F D 3 3 3 3 @ @ Y R Y Y R | | | | | ..A s.j.5.5.5.{ [ [ [ Y S 4 $ 8 F S D S D D D S $ A 4 Y ] E E ^ ] E E R F J 5 X # 3 3 3 4 F F A 5 A A 8 Z A A A Z M _.",
"_.G.A F S 4 3 3 3 @ . A R Y T Y E | | | >.] J j.a.5.w.2.[ [ [ R A 4 @ # # 1 A S D S D S F 4 4 5 A [ E E E E E E F S H 3 . $ 3 3 3 A F F 5 8 A A A A 8 A A 5 H.`.",
"'.Y.t S F Z 3 3 4 # X $ Y Y Y T Y E | | 2.F $.j.e.5.w.[ [ [ E A 4 $ 4 A $ $ # 4 S D D D F 8 1 A 3 E E E E E E K F F A @ X 1 3 3 3 D F F 5 A A A A 8 A 8 A e /./.",
")._.z S F A 3 3 3 3 @ X A F F Y R Y E | 2.A g.j.w.5.2.[ [ [ F 4 3 S { 2.Y 4 3 $ $ 5 F S D S $ D 3 Y [ E E E K D F F 4 . # 3 3 3 4 F F A 5 A 8 8 A A A 8 Z l `./.",
"/._.R.A K F 4 3 3 3 # . 1 K S F F K K E R L j.h.5.5.[ [ [ S 1 5 E | [ E [ E A 3 1 $ 1 A F S 3 A 5 8 [ E E Y S F F S @ @ $ 3 3 1 5 F F 8 5 A 8 A Z A A A 5 F.`./.",
"/.)./.q F F 5 3 3 3 1 @ X A F F F S F F 4 ,.j.d.5.{ [ [ 8 3 S [ ^ E E E E E [ Y 5 3 3 $ 3 S 5 4 S 3 E R F F F F K 4 X @ 3 3 3 3 D F F 4 3 3 4 4 3 3 3 4 2 /.)./.",
"/./._.l S F D 3 3 3 3 # . $ F S F F F S 4 h.j.a.3.[ Y 4 5 E [ E E E E E E E E ^ [ S 4 4 1 $ 4 $ S 3 D F F F F F D @ @ $ 3 3 3 4 F F D 1 1 1 1 1 3 $ 1 & l _.U./.",
"/./._.H.A F F 5 3 3 3 & @ X 5 K F F J Z P j.j.e.[ 8 4 Y [ E E E E E E E E ] ] E E [ E 8 3 4 3 @ D A 3 F F F F F 1 . @ 3 3 3 3 A F F 4 1 1 1 3 1 3 3 3 1 Y.).(./.",
"/./././.k S F S 3 3 3 3 $ X @ D F S F 3 *.j.h.R $ 5 R E E [ E E ] E E ] ] E E E ] E ^ [ Y 4 4 4 A S 3 D F D K 5 X @ 1 3 3 3 4 S F F 1 3 3 1 3 3 1 1 & d _./././.",
"/./.'._.F.A F F 4 3 3 3 3 @ . 1 F F S 9 j.r.8 3 S F D S F Y R R E E E ^ E E E E E R Y K K F 5 $ 4 F 4 5 F F A @ X # 3 3 3 3 8 F F 5 1 1 1 3 1 1 1 3 $ G._./././.",
"/./././.(.r S F A 3 3 3 3 1 @ . 4 K 5 P ( $ A J F F F F F D D F F K F J Y K K F F F D D S F F D 4 1 4 4 F F $ X # 3 3 3 3 4 S S D 1 1 3 1 3 1 3 3 $ d /././././.",
"/./././.`.H.A J S 4 3 3 3 3 $ X . 5 4 # 4 F F F F F F F D F F F F F S D D S S F F F F F F F F F K A 3 @ S 1 X X 1 3 3 3 1 A F F 5 1 3 1 3 1 3 1 3 1 Y./././././.",
"/././.^./._.z S F D 3 3 3 3 4 # X X 1 F F S F F D F F D F F F F F F F F F F F F D F F F F F D F F F F 8 # X X $ 3 3 3 1 4 F F D 1 1 3 1 1 3 3 1 & d _.'././././.",
"/././././.^.U.e F F 5 3 3 3 3 3 # X @ 5 F F S F F F F F F F F F F S F F F F F F F F F F F F F F F F S 3 . @ $ 4 3 3 3 1 D F F 3 1 3 1 3 1 1 1 3 2 /.)./././././.",
"/./././.).: P.D.A F F 4 3 3 3 3 3 @ X . 3 S F S F F F F S F F F F F F F F F F F F D F F F F F F K A # X X $ 3 3 3 3 3 5 F F 5 1 1 3 1 3 1 1 3 1 F.`././././././.",
"/././.).).I./._.l S K A 3 3 3 3 3 4 # @ . # A K F F F F F F F F D F F D D F F F F F D F S F F F 5 @ X @ $ 4 3 3 3 3 4 A K A 1 1 1 1 1 3 3 3 $ f `.).).'././.).).",
"/././.).).).).)./.y S F A 3 3 3 3 3 4 # @ . + 4 D J S S D F F F F F S F F F F F F F F F F F A $ X X @ 1 3 3 3 3 3 3 A F S 1 1 3 3 1 3 1 3 & u )./.).= Q././././.",
"/./._.).).).)./.).Y.q S F 5 1 3 3 3 3 4 3 @ X . @ 4 S J F F F D F F F F F D S F F F F F A 3 @ . X # 3 3 3 3 3 3 1 8 F F 4 1 3 1 1 3 1 3 & 2 /.'.K.= = K.- /././.",
").)./.).).).).)./.`.G.A F F 5 3 3 3 3 3 3 3 $ @ X . @ 3 8 A F K F H F F F F F F F 8 4 $ X X X @ $ 3 3 3 3 3 3 3 5 F F 4 $ 3 1 3 3 1 1 3 1 H._.].Q.P.]./.K.).).).",
"/./.).).).).).).)./.`.R.A F F Z & 3 3 3 3 3 3 3 # @ . . X @ # 3 4 5 A 8 A 5 4 3 $ X X X X @ $ 3 4 3 3 3 3 3 3 4 F F 5 1 3 3 1 1 1 1 3 $ G._./.'.).).).).)./.)./.",
").).).).).).)./.).).'._.F.A F F 5 4 3 3 3 3 3 3 4 3 $ # @ X X . . X . @ X . . . X X @ # 1 3 4 3 3 3 3 3 3 1 5 F F 4 $ 3 1 3 3 3 1 3 1 F._././.'.).).).).).).).).",
"/.).)./.)./.).).).)././._.F.q S F A 3 3 3 3 3 3 3 3 3 3 3 $ $ # @ @ @ @ @ @ @ # $ 1 1 3 3 3 3 3 3 3 3 3 3 A K S 4 1 3 1 3 1 3 3 & 2 G._.]./././.).).).)./.).)./.",
"/././././.).).).).).).)./.`.H.t S K S 4 3 3 3 3 3 3 3 3 3 3 3 3 3 3 3 3 3 3 3 3 3 3 3 3 3 3 3 3 3 3 1 4 A Y A 3 1 3 1 1 & 3 3 & < U.- Q.^.).).).).).)././././.).",
"].).).).).).).).)././.`.).L.(.).k A F F A 4 3 3 3 3 3 3 3 3 3 3 3 3 3 3 3 3 3 3 3 3 3 3 3 3 3 3 & 4 8 S K A 3 1 3 3 3 3 4 3 $ d = = Q.~.- )./.).).).).)././.).).",
"/././.).).).).).`./.].I.P.* K.P.(.M q S F F A 4 3 3 3 3 4 3 3 3 3 3 3 3 3 3 3 3 3 3 3 3 3 3 1 4 8 F K S 3 @ # # # # # # @ % g _.Q.Q.'./.^./.).).).).).)./._././.",
"/././././.).).)././.].I.* /.^.* /._.Y.k A S F F A 5 3 3 & & 3 3 3 3 3 3 3 3 3 3 3 3 1 3 4 4 A S K F 5 # . + @ . X X . X a Y.`./.'././././.'.).).).).).)././././.",
"/./././././.)././.].]./././././././.`._.G.r A S F K F A 5 4 4 4 3 3 3 1 3 3 3 3 4 4 5 A S K K F 5 $ X X X @ @ + + @ a H._.'././././././././.).).).).).).)./././.",
"/././././.`.)./././.`./././././././././._.(.H.k q S S S F K F S S A A A A A D S S F K K F A 4 # X X @ X + . . O a H._./././.^././././.'././.).).).).).).)./././.",
"/.(./././././.).).).).)./.)./././././././././.(./.M s w A D S S F F Y F F F F F S A A 4 # @ . . . @ + @ 2 a R./._././././././././././.`./.`.).).).).)./././././.",
"/././././././././.).).).).)./././././././././.'.)._._.^.H.M k r q q q 8 q q 6 3 2 % o o o o % , < a g G./._.(./././././././././././././././.).).).).)./././././."
};
