/* XPM */
static char *New_Project__14__resized[] = {
/* columns rows colors chars-per-pixel */
"80 80 256 2 ",
"   c #010100",
".  c #0A0A04",
"X  c #150D00",
"o  c #161706",
"O  c #161813",
"+  c #2A1B09",
"@  c #1C2107",
"#  c #173012",
"$  c #262505",
"%  c #392603",
"&  c #283306",
"*  c #383805",
"=  c #242C15",
"-  c #2B3415",
";  c #303B14",
":  c #2F2D2B",
">  c #022733",
",  c #532D00",
"<  c #5A3700",
"1  c #493503",
"2  c #693900",
"3  c #733F00",
"4  c #641400",
"5  c #104F0F",
"6  c #304814",
"7  c #1A7017",
"8  c #296E1D",
"9  c #354824",
"0  c #3D5728",
"q  c #314A36",
"w  c #277231",
"e  c #1F7826",
"r  c #4A4500",
"t  c #564800",
"y  c #575500",
"u  c #794400",
"i  c #695306",
"p  c #797100",
"a  c #435A2B",
"s  c #465D34",
"d  c #4A4F32",
"f  c #4C6936",
"g  c #576B3B",
"h  c #587539",
"j  c #4B6A2F",
"k  c #6D7234",
"l  c #68562A",
"z  c #1E3750",
"x  c #1C3B62",
"c  c #2B4957",
"v  c #2B6C4C",
"b  c #244A74",
"n  c #305679",
"m  c #376878",
"M  c #1C475F",
"N  c #4F514C",
"B  c #56694C",
"V  c #69704D",
"C  c #53676F",
"Z  c #757571",
"A  c #515C6C",
"S  c #D13221",
"D  c #864B00",
"F  c #995A00",
"G  c #825100",
"H  c #A55D00",
"J  c #8C7B00",
"K  c #9B6A00",
"L  c #B76D01",
"P  c #B97306",
"I  c #AA6601",
"U  c #A06528",
"Y  c #C57601",
"T  c #D46D04",
"R  c #D35818",
"E  c #8B7B59",
"W  c #E84B52",
"Q  c #E16448",
"!  c #DB3740",
"~  c #26990D",
"^  c #2FAB16",
"/  c #279727",
"(  c #248B25",
")  c #2CB62E",
"_  c #2FA929",
"`  c #1C9414",
"'  c #548137",
"]  c #68863B",
"[  c #74973B",
"{  c #7B8634",
"}  c #7DA43F",
"|  c #44B930",
" . c #32C72F",
".. c #47C630",
"X. c #3C8C46",
"o. c #698844",
"O. c #769A49",
"+. c #738F4C",
"@. c #7CA247",
"#. c #74B956",
"$. c #7CBB56",
"%. c #77BA57",
"&. c #6DB454",
"*. c #758872",
"=. c #619B4E",
"-. c #75CC52",
";. c #858400",
":. c #999700",
">. c #908000",
",. c #BB9001",
"<. c #B7B800",
"1. c #ABAB00",
"2. c #A29439",
"3. c #D58300",
"4. c #DA8500",
"5. c #DD8A00",
"6. c #D78900",
"7. c #DA9500",
"8. c #C78C01",
"9. c #E48C00",
"0. c #E78C00",
"q. c #EC9301",
"w. c #E39B00",
"e. c #EB9A01",
"r. c #E49400",
"t. c #F29500",
"y. c #F49A00",
"u. c #FC9D00",
"i. c #FA9400",
"p. c #F88B02",
"a. c #DAA500",
"s. c #D0AD06",
"d. c #ECA300",
"f. c #E5A700",
"g. c #FEA200",
"h. c #F3AA00",
"j. c #FEAC00",
"k. c #F4A200",
"l. c #EAB601",
"z. c #FEB400",
"x. c #FEBB00",
"c. c #F4B700",
"v. c #ECBD16",
"b. c #C7A238",
"n. c #CACB00",
"m. c #D4D000",
"M. c #EBC700",
"N. c #FEC300",
"B. c #FFCB00",
"V. c #F6C803",
"C. c #FED400",
"Z. c #FDDC00",
"A. c #F5D700",
"S. c #E8D700",
"D. c #FEEB00",
"F. c #FAE400",
"G. c #FEF400",
"H. c #FFFE01",
"J. c #FBDB3E",
"K. c #899552",
"L. c #AF9153",
"P. c #86AB49",
"I. c #8BB549",
"U. c #84A951",
"Y. c #83BD56",
"T. c #8ABF56",
"R. c #87BB56",
"E. c #94BA54",
"W. c #93B64A",
"Q. c #A7A84B",
"!. c #8E8E71",
"~. c #AB966E",
"^. c #9CA568",
"/. c #E0A958",
"(. c #8CC157",
"). c #8CC158",
"_. c #87C358",
"`. c #94C356",
"'. c #9AC457",
"]. c #95C458",
"[. c #9BC558",
"{. c #9DCA5A",
"}. c #9CCA57",
"|. c #92C754",
" X c #A2CD5B",
".X c #A0C758",
"XX c #A5D25C",
"oX c #A9D45E",
"OX c #AEDA5F",
"+X c #AAD860",
"@X c #B2DD61",
"#X c #9CD66D",
"$X c #FACF6D",
"%X c #F3CD4D",
"&X c #2A568A",
"*X c #356697",
"=X c #386688",
"-X c #365DA7",
";X c #3C73A9",
":X c #376EAA",
">X c #417BB7",
",X c #4175AF",
"<X c #617389",
"1X c #837E88",
"2X c #F56E8C",
"3X c #028AB2",
"4X c #5E98A9",
"5X c #11AED8",
"6X c #00BAFA",
"7X c #06B4E7",
"8X c #4787C7",
"9X c #59BDDB",
"0X c #00CAFF",
"qX c #00C4FF",
"wX c #17CDE7",
"eX c #21CDF2",
"rX c #2DD6DC",
"tX c #46DFFF",
"yX c #898887",
"uX c #999787",
"iX c #979698",
"pX c #8F8F8C",
"aX c #9BA290",
"sX c #ACA894",
"dX c #A8A8A8",
"fX c #ADACB1",
"gX c #B8B5BA",
"hX c #B4B1AD",
"jX c #9F9F9C",
"kX c #CCB386",
"lX c #C5BBAD",
"zX c #F5D692",
"xX c #FFE795",
"cX c #FFE399",
"vX c #D6CCBD",
"bX c #FBC2B3",
"nX c #F8E6AE",
"mX c #D7EF97",
"MX c #BCB9C1",
"NX c #FFBDD8",
"BX c #8FF1FD",
"VX c #AEF5F1",
"CX c #96DCD4",
"ZX c #C6C6C9",
"AX c #D8D9D9",
"SX c #D0CECE",
"DX c #FFF5C6",
"FX c #FFF6CA",
"GX c #FFFAD4",
"HX c #F8E8CA",
"JX c #DCDBE3",
"KX c #E9E9EA",
"LX c #FEFEFF",
"PX c #F5F8F8",
"IX c #EEEEF2",
"UX c #D7DFD8",
/* pixels */
"'.'.'.'.'.[.'.[.[.[.[.[.[.[.[.'.'.'.'.'.'.'.'.'.'.'.'.[.'.{.'.'.'.'.].'.'.'.'.'.'.`.'.'.'.'.'.{.'.[.[.[.[.[.[.[.'.'.'.'.'.'.].'.'.[.[.[.[.[.[.[.[.[.'.'.[.[.[.'.",
"'.'.'.'.'.[.[.'.[.[.[.[.[.[.{.E.'.'.'.'.'.'.'.'.'.'.[.'.{.R.Y.'.'.'.].}.'.'.'.'.'.'.'.'.'.'.'.[.'.'.[.[.[.[.'.'.'.'.'.'.'.'.'.'.'.[.'.[.[.[.[.[.[.[.'.'.T.$.[.'.",
"'.'.'.'.'.[.'.'.[.'.[.[.'.[.[.[.'.'.'.'.'.].'.'.[.[.[.].#.Y.Y.%.T. XXXE.E. X'.'.'.'.'.'.'.'.'.[.[.[.[.[.[.[.[.'.'.'.'.'.'.'.'.'.[.[.[.[.[.[.[.[.'.{.'.%.Y.Y.$._.",
"'.'.'.'.[.'.'.'.[.{.T.{.[.[.[.[.'.'.'.'.'.'.'.'.[.[.[.].$.].'.Y.}.P.a 6 5 0 '.'.'.'.'.'.'.'.'.'.[.[.[.[.[.[.'.'.'.'.'.'.'.'.'.'.].[.[.[.[.'.[.[.'.'.'.%.`.'.Y.R.",
"'.'.'.'.[.[.'.{.).).&._.T.'.[.'.'.'.[.'.[.'.'.'.[.[.[.[.[.'.E. X=.# e / / ( 0  X'.'.'.'.'.[.[.[.[.[.[.[.[.[.[.'.[.'.[.'.'.'.'.'.[.[.[.[.[.[.[.[.'.'.'.{.'.'.{.'.",
"'.'.'.'.[.[.[..X$.$.`.R.%.'.[.'.'.'.'.[.'.[.[.[.[.[.[.[.[.[.{.E.6 ( / ( /  .7 k XX'.'.'.'.[.[.[.[.[.[.[.[.[.'.'.'.[.'.[.'.'.[.'.[.[.[.[.[.[.[.[.[.'.'.{.'.'.'.'.",
"'.'.'.{.[.[.[.[.].]..X'.`.[.[.[.[.[.[.[.[.[.[.[.[.[.[.[.[.'.{.E.5 _ / _ ) )  .5 W.{.'.[.[.[.[.[.[.[.[.[.[.[.[.[.[.[.[.'.{.].'.[.[.[.[.[.[.[.[.[.[.[.[.[.{.'.[.'.",
"'.'.'.'.[.[.[.[.{.{.'.'.[.[.[.[.[.[.[.[.[.[.[.[.[.[.[.[.[.[.'. Xj 5 / / / _  ./ g XX'.[.[.[.[.'.[.[.[.[.[.[.[.[.[.[.[.'.T.#.R.].[.[.[.[.[.[.[.[.[.[.[.[.'.'.[.[.",
"[.[.[.[.[.[.[.[.[.[.[.[.'.[.[.[.'.'.'.[.[.[.[.[.[.[.[.[.[.[.'.'.[.o.# 5 / / ) ) 9 E.[.[.[.[.}.{.[.[.[.[.[.[.[.'.[.[..XR.#.R.R.#.[.[.[.[.[.[.[.[.[.[.[.[.[.[.[.[.",
"[.[.[.[.[.[.[.[.[.[.[.[.[.[.[.[.{.'.'.[.[.[.[.[.[.[.[.[.[.'.'.'.[._.#.a 5 ( _  .7 %. X[.[.[.(.R.{.[.[.[.[.[.[.'.[.[.[.].T..X`._.[.[.[.[.[.[.[.[.[.[.[.[.[.[.[.[.",
"[.[.[.[.[.[.[.[.[.[.[.[.[.[.[.[.'.'.'.{.[.[.[.[.[.[.[.[.[.'.'.'.{. X+X+X0 7 /  .7 K.{.'.`.$.Y.$.$.T..X'.[.[.{.'.[.[.[.[.[.'.[.[.[.[.[.[.[.[.[.[.[.[.[.[.[.[.'.[.",
"'.'.'.'.[.[.[.[.[.[.[.[.[.[.[.'.'.'.'.'.'.'.'.'.'.[.[.'.'. XoX{.R.o.g h 9 5 ( ) 8 U.+X X`.#.`.'.Y.T.[.'.[.[.[.[.'.'.'.'.[.'.'.'.'.'.[.[.[.[.[.[.[.[.[.'.'.'.'.'.",
"[.[.'.[.[.[.[.[.[.[.[.[.[.[.[.[.{.'.'.'.{.'.}.}.[.'.'.+XXXO.s - * r p J < 5 ( ) 5 $ 0 o.{.+X|.}.[.'.'.[.[.[.[.[.{.'.[.[.[.[.[.[.[.[.[.[.[.[.[.[.[.[.[.[.'.[.[.[.",
"'.'.'.'.[.[.[.[.[.[.[.[.[.[.[.'.'.'.'.'.'.}.R.|.'. X Xo.- * ;.m.H.H.H.H.7.* & # u 7.1.r = h }.XX'.'.[.[.[.[.[.[.'.'.'.'.[.'.'.'.[.[.[.[.[.[.[.[.[.[.[.[.'.'.'.'.",
"'.[.'.[.[.'.$.].'.[.[.[.[.[.[.[.'.'.[..X(.Y.#.$._.@.= r <.H.H.H.H.Z.F.H.H.G.S.S.F.G.H.H.m.y - +.oX{.'.[.'.[.'.'.'.'.'.'.'.'.'.'.[.[.[.[.[.[.[.[.[.[.[.[.'.'.'.'.",
"'.[.[.[.$.$.$.Y.$.{.'.[.[.'.'.'.'.'.'.[.R.#.}.}.q $ 1.H.G.D.H.Z.z.x.H.D.N.H.H.H.H.A.D.H.H.H.n.1 9  X XE.[.{.'.'.'.'.'.'.'.'.'.'.'.[.[.[.[.[.[.[.[.[.[.[.'.'.'.'.",
"'.'.'.'.R.R..XR.R.[.'.'.'.'.'.'.'.'.'.[.E. XT.= i H.H.x.C.G.N.j.g.D.G.j.N.H.H.H.H.G.F.H.H.G.H.H.p = R. XT.[..X[.[.[.'.'.'.'.'.'.'.'.'.[.[.'.[.[.[.[.[.[.`.'.'.'.",
"'.'.'.'.'.{.[.[.[.'.'.{.{.'.'.'.'.'.'.`.oXP.o :.H.B.k.B.G.z.g.z.N.G.z.j.N.H.H.H.H.H.C.F.H.H.F.C.H.<.@ O.-.%.T.[.[.[.'.'.].'.'.'.'.[.[.[.[.[.[.[.[.[.[.[.'.'.'.'.",
"'.E.{.'.'.'.[.[.'.[.{.'.'.'.'.'.'.'.'.XXO.o <.H.z.u.V.D.j.g.z.g.A.B.j.z.z.D.H.H.H.H.F.x.C.B.G.Z.N.H.n.$ @.{.&.{.[.[.[.[.'.'.'.'.'.'.[.[.[.[.[.].{.Y.).[.'.'.'.'.",
"'.'.'.'.[.[.[.[.'.{.].'.{.'.'.'.'.E. XU.o n.H.k.g.d.F.j.g.j.j.d.F.j.j.z.z.B.H.H.H.H.G.c.N.N.N.G.V.x.H.n.o R.}.].[.E.[.[.'.'.'.'.'.[.[.[.[.'.{.E.$.$._.%.`.'.'.'.",
"'.'.'.'.'.'.[.[.`.`.#.(.`.'.'.'.'.].}.O 1.G.y.g.q.A.x.u.j.j.y.M.N.g.j.z.x.x.C.H.H.H.D.l.N.B.N.B.F.c.x.H.<.= ].{.'.'.'.'.'.'.].'.'.'.'.[.'.'.{.].$.[.'.%.E.{.'.'.",
"'.'.'.'.[.[.'..X$.$.(.Y.#.'.'.'.].+X- ;.H.u.j.t.l.B.u.j.j.z.q.V.z.j.z.z.x.x.x.C.D.Z.C.V.h.B.B.x.F.M.c.N.H.:.-  X].'.'.'.'.'.'.'.'.[.'.[.[.'.'.[.{.'.[.{.'.'.'.'.",
"'.'.'.'.'.[.'.[.`.(..X].(.'.[.'.oXh r H.g.g.k.9.C.g.g.j.j.g.w.N.g.j.j.z.x.x.N.N.B.N.N.A.d.B.B.N.N.Z.f.N.x.H.y h oXE.'.'.'.'.'.'.'.[.'.[.[.'.[.[.'.'.[.'.'.'.'.'.",
"'.'.'.'.[.[.[.[.[.{.'.[.[.'.[.{.E.@ S.z.u.g.9.l.z.g.g.g.j.y.f.x.g.j.z.z.x.x.N.N.B.B.x.C.w.N.B.N.x.C.l.h.N.C.F.& U. XE.'.'.'.'.'.'.[.'.[.[.[.[.[.'.'.[.[.'.'.'.'.",
"'.'.'.'.'.'.'.'.'.[.[.[.'.'.'.oX9 ;.Z.i.g.y.5.N.u.g.g.j.j.r.l.j.g.j.z.z.z.x.N.N.B.N.N.B.f.h.B.N.N.N.C.9.N.x.G.:.9 oX`.'.'.'.'.'.'.[.'.[.[.[.[.[.[.[.[.[.'.'.'.'.",
"'.'.'.'.'.{.[.'.[.[.[.[.'.'.{.U.& A.u.u.u.9.f.z.u.g.g.j.g.9.c.g.g.j.j.z.x.x.N.N.N.N.N.B.f.d.B.N.x.x.C.f.d.N.x.G.* O. X'..X'.'..X'.'.[.[.[.[.[.[.[.[.[.[.[.[.[.[.",
"'.'.'.'.[.[.{.'.[.[.[.[.'.'.oXs J B.i.g.y.4.c.g.g.g.g.j.y.7.z.u.j.j.j.z.x.x.N.N.N.N.x.N.l.r.B.N.N.x.N.M.5.x.x.C.<.; oX`.'.'.`.Y.{.'.[.[.[.[.[.[.[.[.[.[.[.[.'.'.",
"[.'.'.{.'.'.'.'.[.[.[.[.'.}.].= l.g.g.g.9.5.z.u.g.g.g.g.q.r.j.g.g.j.z.z.z.x.x.N.N.N.N.N.c.9.N.x.N.x.x.B.5.h.N.z.D.6 K. X'.Y.Y.%.Y.R..X[.[.[.[.[.[.[.[.[.'.[.[.[.",
"'.'.'.'.'.'.'.'.[.[.[.[.'. Xo.r N.y.g.u.4.w.j.u.g.g.g.j.9.w.g.g.g.j.j.z.z.x.x.N.x.N.x.x.c.5.c.N.x.N.x.N.w.9.N.c.B.:.a oX'.$.(.'.$.Y..X[.'.'.[.'.[.[.[.[.'.'.'.'.",
"[.[.{.'.{.'.'.{.[.[.[.[.'.+Xf J z.u.g.t.4.d.g.u.g.u.g.g.9.e.g.g.g.j.j.j.z.x.x.x.N.N.x.x.x.5.j.N.x.x.z.N.h.4.x.x.x.S.; '.'.'.`.'.'.'.[.[.[.'.{.{.[.[.[.[.[.[.[.[.",
"[.[.[..XR.)..X'.[.[.[.[.E.+X9 ,.j.u.g.q.4.k.g.g.u.g.g.k.4.d.g.u.j.j.j.z.z.x.x.N.l.x.x.z.x.5.h.N.x.x.x.x.c.3.k.x.j.Z.y o.XX'.}.'.[.[.[.[.[.[.'.Y.'.'.[.[.[.[.[.[.",
"'.[.T.R.$.Y.Y.`.[.[.[.[.[. X; 7.g.g.g.9.4.y.g.u.g.u.g.u.4.y.g.g.g.g.j.z.z.c.N.l.Y x.x.c.x.5.d.x.x.x.z.z.x.4.w.N.z.B.>.a oX`.'.'.[.[.[.[.[.Y.Y.%.Y.Y.{.[.'.'.'.'.",
"[.[.T.#.].`.#.'.{.[.[.'.'.'.; 9.g.u.u.5.4.u.g.u.g.u.g.y.4.y.g.u.g.j.j.j.z.z.M.% L e.x.z.z.5.e.x.x.z.x.z.x.5.w.a.z.x.s.9  X'.[.[.[.[.[.'.{.$.R.{.R.%..X{.[.[.[.[.",
"[.'.{.'.[.[.'.'.[.[.[.[.'.'.- 3.g.g.u.9.5.u.g.g.u.g.g.y.4.y.g.g.g.g.j.z.j.N.y   u T z.z.z.5.e.x.z.x.z.z.z.q.,.I j.z.l.6 E.}.[.[.[.[.[.[.[.'.[..X'.].'.'.[.[.[.[.",
"[.[.'.[.'.{.'.'.'.[.[.[.'.{.; P j.u.u.5.4.u.g.u.g.u.g.t.4.t.g.u.g.g.j.j.z.J.ZXSX~.I h.z.j.5.r.x.z.z.z.z.j.f.o 2 d.z.x.1 U..X[.[.[.[.[.[.'.[.[.[.[.[.'.{.'.[.'.'.",
"[.[.'.'.'.'.[.[.[.[.[.[.'.XX9 F u.g.u.9.4.y.g.u.u.g.g.t.4.y.g.u.g.g.j.g.B.VXVXLXLXb.6.z.j.5.r.x.z.z.z.j.g.v.A l 3.z.x.r O. X'.'.[.[.[.[.[.'.[.[.[.'.'.'.'.'.'.'.",
"'.'.'.'.'.[.[.'.[.[.[.[.'.+Xg 2 t.u.g.9.4.t.g.g.g.u.g.t.4.t.u.u.g.g.g.x.mXqXBXLXPX4XT z.j.4.e.z.z.z.z.j.z.nXLXGXP j.x.r O. X].].'.[.[.[.[.[.[.[.[.[.[.[.[.'.'.'.",
"'.'.'.'.'.[.'.[.'.[.[.'.'. X@.% 4.9.g.q.4.q.g.u.g.u.g.y.4.p.g.g.g.k.j.v.BXqX5XCX9XwXY r.g.3.e.z.z.j.z.j.%XtXPXLX2.q.j.% @.}.'.'.'.[.[.[.[.[.[.[.[.[.[.'.'.'.'.'.",
"'.'.E.{.'.[.'.[.'.[.[.{.'.'.XX; F q.9.u.4.9.u.u.u.u.g.u.0.0.p.i.g.g.l.o 4XBX7X:X7X5XD 3.k.3.e.z.j.z.j.x.CX0XVXBX*.9.e.% =._.(.].'.[.'.[.'.[.[.[.[.[.[.'.'.'.'.'.",
"'.'.'.'.[.[.'.'.[.'.`.Y.'.'. XU.+ 4.5.9.9.4.u.x.j.u.g.u.T /.bXQ R u.s.t k CXrX0XwX> X L 4.4.k.z.j.j.z.8.9XeX3X5X4XT Y - (.(.#.`.[.'.[.[.[.'.[.[.[.[.[.[.'.'.'.'.",
"'.'.'.'.'.'.'.'.[.Y.R.%._.R.'.oXj , q.T 5.4.r.B.B.j.u.j.T 2XNX2XW ! p.N.z.z.c.v.l.7.,.s.7.4.k.j.j.j.x.& C BX7XqX> H D 9 oX'.(.'.'.[.'.[.[.[.[.[.[.[.'.'.'.'.'.'.",
"'.'.'.'.'.'.'.'..X$._.[.Y.Y.[.`. X9 2 q.5.5.4.k.B.j.u.g.r.S ! W W S R j.e.q.g.g.g.j.z.x.q.r.z.j.j.g.z.a.s.Q.#X2.t P < o.XX].[.'.'.[.'.[.[.[.[.[.[.'.'.'.'.'.'.'.",
"'.'.'.'.[.'.'.'.[.[.'.'.'.'.{.'.`. X9 , 9.q.4.4.t.g.u.g.k.5.T T R T p.j.s.. % 5.j.x.K G F I 7.e.k.g.j.g.9.p.i./.bXW R W.'.'.'.'.'.[.[.[.[.[.[.[.[.[.'.'.'.'.'.'.",
"'.'.'.'.'.'.'.'.[.[.[.[.'.'.'.'.E.{. Xj + I q.9.3.q.u.u.g.q.6.e.g.g.g.u.x.p   G 8.a.@         . . u g.u.8.i 8.Q 2XW S Q.}.'.'.'.'.[.'.[.[.'.[.[.[.[.'.'.'.'.'.'.",
"'.'.'.'.[.[.'.'.[.[.[.[.[.'.[.'.'.'.'.oXO.= , Y t.9.9.q.y.u.9.4.t.u.g.g.u.z.J       .             % H L J 2 9.T 4 U Q.'.'.'.'.'.'.[.'.[.[.[.[.[.[.{.'.'.'.'.'.'.",
"[.'.[.[.[.[.[.[.[.[.[.[.[.[.[.'.'.'.'.`..X.Xh = , H 4.q.q.q.9.6.4.t.g.g.g.u.z.a.y                     X K k.Y + 0 }.].[.'.'.'.'.[.[.[.[.[.[.[.[.].'.$.).'.'.'.'.",
"'.'.[.'.[.[.[.[.[.[.[.[.[.[.{.'.'.'.[.[.'.[.oX`.h 9 * 2 I 3.q.q.q.9.9.q.y.u.t.u.k.,.p r $ . . X $ t K 7.Y 2 o ] oX].E.{.'.'.'.'.'.[.'.'.[.[.'.{._.$.Y.Y.&.'.[.[.",
"[.[.[.[.[.[.[.[.[.[.[.[.[.[.'.'..X'.[.[.[.[.E..X+XE.o.f = + < i H L T r.0.q.q.q.9.t.u.j.d.f.a.w.r.8.H < $ s T.XX'.'.{.'.'.{.'.'.[.[.[.{.[.[.'.[.(.R.}.].R.[.[.[.",
"[.'.'.[.'.'.[.'.'.[.[.[.[.[.[.'.'.'.[.'.'.`.[.E.+.' | -.j b M 5 # # O 1 , < 3 u D D D D u u 2 , % = 9 ] %.{. X'.'.'.'.'.'.'.'.'.'.{.`.$.{.[.[.[.{.[.[..X[.[.[.[.",
"'.[.[.'.[.[.[.{.[.'.'.[.[.[.[.[.[.[.'.[.'..XE.9 e  .| ) ^ m m ^  ...v &Xw w 9 f a 0 a 0 a f h +.U.{.}._.$.Y.$.].'.'.[.'.'.[.[.'..X$.R.%.Y.Y.[.'.[.[.[.[.'.[.[.[.",
"[.[.[.[.[.[.[.].].%.R.].'.[.[.[.[.[.[.[.[.}.I.V g ` ^ ^ ~ c =X^ ) ..w -XX...o.[.+XoXoXoX+XoX+XXX{.{._.%.[.].%.[.[.[.[.[.[.[.[.[..X$.R.'.R.$.{.'.[.[.[.[.[.[.[.[.",
"[.[.'.[.[.[.[.R.%.R._.#.].[.[.[.'.[.'..X`._.U.HXHXV 7 ~ 7 b =X~ ^ ^ e -X( ^ _ ]  X`.'.E.'.].[.E.'.'.}.}.'.'.{.[.'.'.[.'.[.[.'.[.'.'.{.[.'.'.{.'.[.[.[.[.'.[.[.'.",
"'.'.[.].'.'.[.].R. X'._.'.'.'.'.'.'.'..X_.*.HXnXxX/.6 5 5 &Xm ~ ^ ^ w -Xc j 7 9 {.'.'.'.[.[.[.[.'.'.[.[.[.[.[.[.'.'.'.'.'.[.'.'.'.'.'.[.[.[.[.[.[.[.[.[.'.'.'.'.",
"[.[.[.[.[.[.[.[..X[.[.[.{.'.[.[.'.'.'. X} vXHXcX$XU O c w =Xn v v =Xc <XN nX!.k E.{.'.[.[.[.[.[.'.'.[.[.[.[.[.[.[.[.'.'.[.[.[.[.[.[.[.[.[.[.[.[.[.[.[.[.[.[.[.[.",
"[.'.[.'.'.[.[.[.[.[.[.[.[.[.[.[.'.}.'.}.U.vXcXcX%Xa x ;X&XZ n >X;X8XA A V nXFXvXK.}. X'.[.[.[.[.{.'.{.'.[.[.[.[.[.[.'.'.'.'.[.[.'.'.'.[.[.[.[.[.[.[.[.[.[.[.'.[.",
"'.[.'.[.[.'.[.[.[.[.[.[.[.[.[.'.'.`..XI.Z gXjXL.b.f b *X;Xn b =X*X*X&X*XK.xXnXGXSXg P.{. X[.[.[.'.'.'.'.[.[.[.[.'.'.'.'.'.{.[.T.{.[.[.[.[.[.[.[.[.[.[.[.'.'.'.'.",
"'.'.'.'.'.'.'.'.[.[.[.[.[.[.[.'.'.'.'.+.KXLXPXgXV o.b =X;X;X&X;X8X;X;X=X{ $XxXkXjXSXdX] P..XE.{.[.[.[.[.{.'.'.'.'.'.'.'.'.Y.R.#._.)..X'.'.[.[.[.[.[.[.'.].'.'.'.",
"'.'.'.'.'.{.'.'.[.[.[.[.[.[.[.'.'..XI.uXLXIXPXKX*.' b &X;X*XM ;X8X;X&XB @.2.%XuXPXLXLXZ V } XXE.[.[.[.[.'.'.'.'.'.'.'.'.'.#.R.].%.Y..X'.[.'.[.'.[.[.[.'.'.'.'.'.",
"'.'.'.'.'.'.'.'.[.[.[.[.[.[.'.'.'.'.|.Z sX!.hXMX] |.x &X:X;Xn z n n x h XXP.l SXPXIXfXL.zXN K.#X[.[.[.[.'.'.{.'.'.'.'.'.'.].].[.].].[.[.[.[.[.'.[.[.'.'.'.'.'.'.",
"'.'.'.'.'.'.'.{.'.[.[.[.[.[.[.'.E..XP.!.zXcX~.JX!.I.o.b ;X;X8Xn x b *Xm |. X@.iXKXSXAX!.!.E iX@.[.[.'.'.'.{.'.'.'.'.'.'.'.[.'.'.'.'.[.[.[.'.{.'.[.[.'.'.'.'.'.'.",
"'.'.'.'.'.'.'.'.[.[.[.[.[.[.'.'.'.}.+.gXsXsXhXIXLXaXP.c *X;X8X8Xc *X8Xn P..X}.[ *.KXPXJXpX/.kXV  X'.{.'.}.'.'.'.'.'.'.'.'.'.'.'.'.[.'.[.[.[.[.[.[.[.[.'.'.'.'.'.",
"'.'.'.`.'.'.'.[.[.[.[.[.[.[.'.'.{.W.aXLXLXKXLXdXZ uXW.q b ;X;X8X&Xz 8X-X]  XE. XI.sXIXSX!.L.V O. X'.[.'.'.'.'.'.'.'.'.'.'.'.'.'.'.[.'.[.[.[.[.[.[.[.[.[.].'.'.'.",
"'.'.'.'.'.{.'.].'.[.[.[.[.[.[.'.[.I.yXKXKXUXKX1XL.k }.I.z *X-Xc N z &X-Xf  X'.'. XI.!.Z E zXV E.[.'.[.[.'.'.'.'.'.'.'.'.].'.'.'.'.[.[.[.[.[.[.[.[.[.[.'.'.'.'.'.",
"'.'.'.'.'.].).#.].].[.[.[.[.'.'.'. X+.1XjXlXfXKX~.k ).XXB x : /.HXV V d s {.'.'.E. XI.K.kXd U. X[.[.[.[.'.'.'.'.'.'.'.'.'.'.'.'.'.[.'.[.[.'.[.[.[.[.[.[.'.'.'.'.",
"'.'.'.'.[.%.Y.R.%.$..X[.[.[.[.[.[.'.[.O.] V g fXN } +X.XI.# l $XGXsXcXsXP.{.'.'.'.'.'.K.L.O. X[.[.[.[.[.[.[.[.[.'.'.'.'.'.'.'.'.'.[.[.[.[.'.[.[.[.[.[.[.'.'.'.'.",
"'.'.[.[.[.T.]..X].T.[.[.[.[.[.[.[.[.{. X X X X[ [ +.+.K.Z l U zXDXvXlXK.E.'.'.[.'.[.[.}.T.{.[.[.[.[.[.[.[.[.[.[.[.[.'.[.[.[.[.[.'.[.[.[.[.[.[.[.[.'.[.[.'.'.[.[.",
"'.'.'.'.[.[.{.'.[.[.[.'.[.[.[.[.[.'.'.'.'.P.s 9 1XiX: : LX!.L.$XDXlXuXE.}.'.'.'.[.[.[.[.[.[.'.[.[.[.[.[.[.[.[.{.'.[.[.'.'.'.[.'.'.[.[.[.[.[.[.[.[.{.$.T.'.'.'.'.",
"'.'.[.[.[.'.'.'.[.[.[.'.[.[.[.[.[.[.'.[.'.N pX. : : : : dXfXE %XDXlX] .X'.'.'.[.[.[.[.[.'.'.{.[.[.[.[.[.[.[.[.[.[.[.[.[.[.[.[.[.[.[.[.[.[.[.[.[.Y.%.Y.Y.%.'.'.'.",
"[.[.[.[.[.[.[.[.[.[.[.'.[.[.'.'.[.[.[.'. Xk MXyXO N N : : iXd /.nXvXK.OX X X'.'.[.[.'.[.'.[.'.'.[.[.[.[.[.[.[.[.[.[.[.[.[.[.[.[.[.[.[.[.[.[.[.[.R.Y..X].$.'.[.[.",
"'.[.'.[.[.[.[.[.[.[.[.{.[.[.'.'.'.[.'.[.{.|.V SXZ AXAXJXyX: g aXsX1Xj [ [ @.{. X`.[.'.'.[.'.'.{.'.[.[.[.[.[.[.[.[.[.[.'.'.[.[.[.[.[.[.[.[.[.[.[.{.{.{.'.[.'.[.[.",
"[.[.[.[.[.[.[.[.[.[.[.[.[.[.'.{.[.[.[.[.'. X[ iXfXpXIXKXLXjXd pXA : : iXfXpXg P. X'.'.{.{.[.'.'.[.[.[.[.[.[.[.[.[.[.[.[.[.[.[.[.[.[.[.[.[.[.[.[.[.[.[.[.[.[.[.[.",
"'.[.'.[.[.[.[.[.[.[.[.[.[.'.'.'.[.'.[.[.{.'. Xh ZXE AXPXLXJX: : = N IXLXLXLXJXB W.{.'.'.`.'.Y.$.'.'.[.[.[.[.[.[.'.[.[.'.[.[.'.[.[.[.].[..X[.[.[.[.[.[.[.[.[.[.'.",
"'.'.[.'.'.'.[.[.[.[.[.[.{.[.[.'.'.'.'.'.'.'. XP.<XZXyXPXLXdXiX: : SXIXIXLXLXLXSXh  X'.{.`.#.Y.Y.%.R.{.'.[.[.[.[.'.'.'.'.'.'.'.[.].T.#.(.].'.'.'.'.[.[.[.'.[.'.[.",
"[.[.[.[.[.[.[.[.[.[.[.[.[._.`..X'.'.'.'.'.'.'. Xk gXpXZXLXyXN O *.JXAXAXSXSXgXhXd E.{.'.'.Y.'.{.R.`.{.'.[.[.[.[.[.[.[.[.[.'.[.[.$.$.).R.#.[.'.'.[.[.[.[.[.[.[.[.",
"'.'.'.[.[.[.[.[.[.[.[.T.Y.%.Y.Y.[.'.'.'.'.'.'.{.'.V JXZ LXN   : Z pXyXiXiXiXfXgXC O. X'.'.[.'.[.{.'.'.[.[.[.[.[.'.'.[.'.'.'.'.'.`.T.{.'.E.{.[.[.[.[.[.[.[.'.'.'.",
"'.'.'.'.[.[.[.[.[.[..XT.%.].].#.].'.'.'.'.'.'.`.+X[ dXZXZ N fXZXMXgXhXdXdXjXjXaXV P. X'.'.'.[.[.'.[.[.[.[.[.[.'.'.'.'.'.'.'.'.'.'.{.'.'.{.[.[.[.[.[.[.[.[.'.'.'.",
"'.'.'.'.[.[.'.[.[.[.[.[.'.'.'.].'.'.'.'.'.'.'.'.`.XXV 1X9 g V V V ] ] ] [ } P.P.W..X[.[.'.'.[.[.[.[.[.[.[.[.[.'.'.'.'.'.'.'.'.'.'.'.[.[.'.'.[.[.[.[.[.[.[.[.'.'.",
"'.'.'.'.[.[.[.'.[.[.[.[.'.[.[.'.'.'.'.'.'.'.'.'.'.}.I.g .X.X'. X XoXXXXXXX.X[.{.E.[.'.'.'.'.'.[.[.[.[.[.[.[.[.'.'.'.'.'.'.'.'.'.'.[.'.'.[.'.[.[.[.[.[.[.[.'.'.'.",
"'.'.'.'.'.[.'.[.[.[.[.[.[.[.'.'.'.'.'.'.'.'.'.'.'.'.[.+X[.[.[.[.'.E.`.`.'.'.'.'.'.'.'.E.'.'.'.{.[.[.[.[.[.[.'.'.'.'.'.'.].'.'.'.'.[.'.'.[.[.[.[.[.[.[.[.'.'.'.'.",
"'.'.'.'.'.[.'.[.[.[.[.[.[.[.[.'.].'.'.'.'.'.'.'.'.'.[.].[.[.[.[.'.'.'.'.'.'.'.'.'.'.[.{.'.'.'.'.[.[.[.[.[.[.'.'.'.'.'.'.'.'.'.'.'.'.'.{.[.'.[.[.[.[.[.[.].'.'.'."
};
