/* XPM */
static char *New_Project__12__resized[] = {
/* columns rows colors chars-per-pixel */
"80 80 256 2 ",
"   c #010100",
".  c #080901",
"X  c #181705",
"o  c #0E0F0A",
"O  c #281A00",
"+  c #261C1E",
"@  c #1A2306",
"#  c #163112",
"$  c #282607",
"%  c #382501",
"&  c #343604",
"*  c #242B14",
"=  c #2A391A",
"-  c #313711",
";  c #251D20",
":  c #2A2526",
">  c #383535",
",  c #2F382A",
"<  c #061A21",
"1  c #482C00",
"2  c #453502",
"3  c #5A3600",
"4  c #572D00",
"5  c #683900",
"6  c #671606",
"7  c #135114",
"8  c #324516",
"9  c #166D14",
"0  c #227017",
"q  c #364924",
"w  c #335032",
"e  c #2D6931",
"r  c #16432C",
"t  c #454501",
"y  c #584F00",
"u  c #774601",
"i  c #625F00",
"p  c #746D00",
"a  c #42592A",
"s  c #475334",
"d  c #496633",
"f  c #566A37",
"g  c #597738",
"h  c #4E652C",
"j  c #717136",
"k  c #132F57",
"l  c #253951",
"z  c #304A4D",
"x  c #1E4270",
"c  c #244976",
"v  c #2E4F72",
"b  c #336770",
"n  c #36774F",
"m  c #4C484C",
"M  c #5A6E45",
"N  c #667A44",
"B  c #6D7152",
"V  c #787976",
"C  c #6B6B6C",
"Z  c #47656A",
"A  c #CC341F",
"S  c #965802",
"D  c #8A5101",
"F  c #A85D00",
"G  c #8E7304",
"H  c #A96500",
"J  c #B36A00",
"K  c #B46600",
"L  c #BB7701",
"P  c #A67702",
"I  c #A16D28",
"U  c #C86800",
"Y  c #C87800",
"T  c #D17404",
"R  c #DA571B",
"E  c #977F4A",
"W  c #8C7D60",
"Q  c #E8535D",
"!  c #E73943",
"~  c #259914",
"^  c #2BB113",
"/  c #1D8B21",
"(  c #279626",
")  c #2E892A",
"_  c #2AA72A",
"`  c #37B42B",
"'  c #1C990A",
"]  c #4E823D",
"[  c #69863A",
"{  c #769639",
"}  c #7BA23F",
"|  c #4BBD3A",
" . c #32C732",
".. c #4AC333",
"X. c #668644",
"o. c #769846",
"O. c #738A51",
"+. c #7CA34C",
"@. c #74B956",
"#. c #7CBB56",
"$. c #77BA57",
"%. c #6FB651",
"&. c #568943",
"*. c #55D140",
"=. c #999800",
"-. c #978200",
";. c #BB8A01",
":. c #B3990E",
">. c #BCBA00",
",. c #AFA906",
"<. c #AE9336",
"1. c #80A93E",
"2. c #96911D",
"3. c #D48300",
"4. c #DA8500",
"5. c #DD8A00",
"6. c #DD9700",
"7. c #C98E01",
"8. c #E48D00",
"9. c #E98B00",
"0. c #EB9201",
"q. c #E69800",
"w. c #F19500",
"e. c #FD9700",
"r. c #F49A00",
"t. c #FC9E00",
"y. c #F58B06",
"u. c #D6A600",
"i. c #CBAC01",
"p. c #EAA700",
"a. c #F4A600",
"s. c #FEA200",
"d. c #F3AB00",
"f. c #FEAB00",
"g. c #E9B600",
"h. c #FEB400",
"j. c #FEBB00",
"k. c #F4B400",
"l. c #E6A234",
"z. c #C8C900",
"x. c #D9D200",
"c. c #F4C300",
"v. c #FFC300",
"b. c #FFCB00",
"n. c #F3CA00",
"m. c #FED400",
"M. c #FEDC00",
"N. c #F5D900",
"B. c #F9CA11",
"V. c #FEE300",
"C. c #FEEC00",
"Z. c #FEF400",
"A. c #FEFE00",
"S. c #F3F700",
"D. c #EDEC00",
"F. c #E4CC2A",
"G. c #8D914B",
"H. c #AE9253",
"J. c #84AA48",
"K. c #8BB54A",
"L. c #91BB4D",
"P. c #83BE56",
"I. c #8BBE56",
"U. c #88BB56",
"Y. c #93BD54",
"T. c #99BD53",
"R. c #8BAC50",
"E. c #898C74",
"W. c #AB9771",
"Q. c #A3A976",
"!. c #F0BA75",
"~. c #DAB357",
"^. c #8CC156",
"/. c #8CC158",
"(. c #86C358",
"). c #94C356",
"_. c #9AC457",
"`. c #9ECA56",
"'. c #95C358",
"]. c #9BC558",
"[. c #9EC95A",
"{. c #96CB5B",
"}. c #98CA55",
"|. c #A2CD5B",
" X c #A0C857",
".X c #A5D25D",
"XX c #A9D55E",
"oX c #A8D65A",
"OX c #BED04C",
"+X c #A8D461",
"@X c #9FD66B",
"#X c #FCD156",
"$X c #FFD978",
"%X c #F9C764",
"&X c #D9C342",
"*X c #295585",
"=X c #2F5B8E",
"-X c #376999",
";X c #2F6398",
":X c #3B6AA5",
">X c #3C74AA",
",X c #3D76B4",
"<X c #3A5DA6",
"1X c #4279B5",
"2X c #4576AA",
"3X c #436B99",
"4X c #827E84",
"5X c #FD6C86",
"6X c #0587A8",
"7X c #03BAEA",
"8X c #00B5F8",
"9X c #009FD3",
"0X c #4787C7",
"qX c #00C0F7",
"wX c #03CAFD",
"eX c #15C9FA",
"rX c #3FCDF7",
"tX c #4CDCFC",
"yX c #6DE3FF",
"uX c #61D9F3",
"iX c #58A6A2",
"pX c #878786",
"aX c #989997",
"sX c #8F9488",
"dX c #A5A49A",
"fX c #AFAD91",
"gX c #AAA9AA",
"hX c #B7B6B8",
"jX c #B1B2AB",
"kX c #9CA0A0",
"lX c #D1B88E",
"zX c #D8B8AF",
"xX c #B5E59F",
"cX c #F6D791",
"vX c #FFE69B",
"bX c #FFE38C",
"nX c #E7D1AA",
"mX c #FEE8AB",
"MX c #BBBCC1",
"NX c #97BACA",
"BX c #C0BDC2",
"VX c #95F8FF",
"CX c #C4C4C5",
"ZX c #D7D7D8",
"AX c #D0CDD5",
"SX c #FFF7CA",
"DX c #FFF7D6",
"FX c #F4E9CF",
"GX c #DEDBE3",
"HX c #D4E7EA",
"JX c #E5E6E6",
"KX c #F8F8EB",
"LX c #FEFEFE",
"PX c #F4F4F5",
"IX c #E9F6F7",
"UX c #FDC8DF",
/* pixels */
"_._._._._.]._.].].].].].].].].]._._._._._._._._._._._.[.].].].].].].`.)._._._._._._._._._._._._._._.].].].].]._._._._._._._._._._.].].].].].].].].]._._.[._._._.",
"_._._._.]._.]._._.].].].].].]._._._._._._._._._._._._._.].U.P.`._._.)._.T._._._._._._._._._._._.[._.].].].].]._._._._._._._._._._.]._.].].].].].].]._._.I.P._._.",
"_._._._.].]._.]._.].].]._.].]._._._._._._._.)._.].].].'.@.#.#.#.I.|.|..X|.]._._._._._._._._._._.].].].].].].]._._.'._._._._._._.].].'.].]._.].]._.[.'.@.P.#.#.U.",
"_._._._._.].]._.].[.I.].].]._._._._._._._._._._.].].].).#._._.#.{.J.h q f ]._._._._._._._._._._.].].].].].]._.]._._._._._._._.'.].].].].].].].]._.[._.#._.].#./.",
"_._._._.].]._.]././.@./.I._.]._._._.]._.]._._.].].].]._.]._.}.`.a 7 9 / 9 a .X_._._._._._.].].].].].].].].].]._._.]._._._._._._.].].].].].].].]._._._.[._._.]._.",
"_._._._.].]._.[.#.$.).U.$._.]._._.]._.]._.].]._.].].].]._._..Xf 7 _ ( (  .9 f oX_._._._._.].].].].].].].].].].].]._.]._._.].]._.].].].].].].].].]._.].].]._._._.",
"_._._._.].].].[.'.'. X).)._.[._.]._.].].].].].].].].].].]._. Xq / ( ( _ `  .7 R.|._.].].].].].].].].].].].].].].].]._._.[.'._.].].].].].].].].].[._.].].].].]._.",
"_._._.[.].].].].].[.]._._.].].].].].].].].].].].].].].].]._.|.h 7 _ _ _ _  ._ a |._.].].].].].].].].].].].].].].[._.[.'.Y.@.U.'.].].].].].].].]._._.].].].].].].",
"].].].].].].].]._._.]._.].].].].].].].].].].].].].].].]._._._.T.h 7 9 ( ( _  .7 T. X].].]._.[.[.].].]._.].].].]._._.[.P.$.U.U.@.].].].].].].].].].].].].].].].].",
"].].].].].].].].[._.].].].].].].].].].].].].].].].].].].[._._.{.XX+.= 7 ( _  ./ O.|._.]._.].^.P.[.].]._.].].].]._._.[.Y.I.]._.P.].].].].].].].].].].].].].].].].",
"].]._.].].].].]._.[._.].].].].]._.].]._.].].].].].]._._._._._._._.|.@Xa 9 (  ./ g +X_._.).#.(.#.#.Y.[._.].].].]._.]._.[._._._.[.].].].].].].].].].].].].].].].].",
"_._._._._._.].]._._._._.].].]._._._._._._._._._._._._._._.[..X.X[.R.R.g # / _ / g XX X_.).@.)._.$.I.].].].].].]._._._._._._._._._._.].].].].].].].].].]._.]._._.",
"_.].].]._._.]._.].].].].].].].].].].].].].].].].]._._.|.+XY.X.q = & t & # / _ / * f o.|..X[._._.[._._._.].].].].].]._._._._._.[.].].].].].].].].].].].]._._._.].",
"_._._._.]._.[.].].].].].].].].]._._._.].].].P.Y._.|.+Xo.q $ y ,.x.S.A.d.& # 9 = H G t = g [.XX_._.[.].].]._.].]._._._._._._._._._.].].].].].].].].].].].[._._._.",
"_.].].].[._.#.'.].].].].].].]._._._._.`.^.P.$.P.(.R.q $ =.D.A.A.A.Z.A.A.N.i.=.i.M.A.A.z.i * X.+X[._.].]._._.].].]._._._._._._._.].].].].].].].].].].].]._._._._.",
"_._.].].$.P.#.P.$.].].]._.].]._._._._.].I.$.[.{.e $ =.A.A.A.A.V.j.m.A.M.C.A.A.A.Z.N.A.A.A.x.t = Y..XT.].[.[._._._._._._._._._._._.].].].].].].].].].].].'._._._.",
"_._._._.P.U. XI.P.]._.]._.].]._._._._._.T.|.Y.* y S.A.v.V.Z.j.s.j.A.m.f.C.A.A.A.A.M.A.A.A.A.A.=.X o.+X_.^._.]._._._._._._._._._._.]._.].].].].].].].]._._._._._.",
"_._._._.].].].]. X].].].]._._._._._.[.T..X+.X =.A.M.s.V.C.f.f.f.V.V.f.h.C.A.A.A.A.V.V.A.A.Z.m.A.x.& d .X%.(.^._._._._._._._._.)._._._.].]._.].].].].].]._._._._.",
"_._._._._._.]._.].].].[.[._._._._._.)..Xo.X >.A.j.e.m.C.s.a.h.k.C.h.h.f.m.A.A.A.A.Z.j.M.m.V.Z.j.Z.A.8 e .X(.@._._._._._._._._._._.].].].]._.].]._.P.I.]._._._._.",
"_._._._._._.].].].].'._._._._._._.T.|.+.X z.A.a.s.g.V.s.f.h.s.n.m.s.h.h.v.Z.A.A.A.A.c.j.v.j.V.V.h.C.A.2 f XX^._._._._._._._._._._.]._.].]._.[.Y.#.#.(.$.Y._._._.",
"_._._._._.]._.].'.).@.^.)._.]._.T.[.U.@ z.Z.t.s.p.V.f.s.f.f.r.N.h.f.h.h.j.b.A.A.A.A.N.k.b.v.v.C.c.j.V.A.& [ +X'._._._._.'._._._._._._.].]._.[.'.#.[.'.$._._._._.",
"_._._._._.]._. X#.#./.P.@.]._._._.|.* =.Z.r.f.0.n.j.t.f.f.a.p.m.s.f.h.j.j.j.b.C.Z.m.M.p.b.b.v.b.N.k.v.V.D.$ J..X_._._.)._._._._._.].].]._._._.]._._._.[._._._._.",
"_._._._.].].].].'.I. X).U.[._.'.+Xa i A.t.f.r.p.b.t.f.a.h.r.g.j.s.f.h.h.j.v.v.v.b.j.m.g.j.b.b.j.M.g.h.j.C.>.* [._._._._._._._._._._._.].]._.].]._._._.]._._._._.",
"T._._._.].].].].].]._._.[._.[.|.o.$ C.f.t.s.4.c.f.s.f.s.f.0.c.s.f.f.h.h.j.j.v.b.b.v.b.g.d.b.v.v.v.N.q.b.h.A.p a .XT._._._._._._._.].].].].].].]._.[.].]._._._._.",
"].]._._.].].]._.].].].].].]._..X= ,.b.e.s.0.p.v.t.s.f.f.s.6.j.s.f.f.h.h.j.v.v.v.v.v.b.c.q.b.v.v.j.m.g.d.v.v.Z.& +.|._._._._._._._.].].].]._.].].].].].]._._._._.",
"].].].].].].]._.].].].].]._.|.X.t V.e.s.t.4.g.s.t.s.s.f.r.6.h.s.f.f.h.h.j.j.v.v.b.v.j.b.6.v.v.v.v.v.c.5.v.j.V.,.= .X_._._._.].]._.].].].].].].].].].].].].]._.].",
"]._._.]._._._._.].].].].].]..X8 ,.h.t.s.0.5.j.t.s.s.s.f.0.p.f.s.f.f.h.h.j.j.v.v.v.v.j.b.6.k.v.v.v.j.b.6.a.v.h.Z.t o.|._._. X).P.[.].].].].].].].].].].].].]._._.",
"]._.].]._.[._._.].].].].].|.+.& m.t.s.s.4.p.f.t.s.s.s.f.5.d.s.s.f.f.h.h.j.j.v.v.v.v.j.v.q.p.v.v.j.j.v.k.5.v.h.m.>., .X_.].#.P.$.P.U.].].].].].].].].].].].].].].",
"_._._._._.]._.[.].].].].Y.+Xd p j.e.s.r.4.p.s.s.s.s.s.s.5.d.s.s.s.f.f.h.h.j.j.v.v.j.j.v.p.q.v.v.j.j.j.c.5.d.v.h.V.8 o.|._.$.^.`.#.P. X]._.[._._.].].].].'._._._.",
"].].]._.[.]._._.].].].]._..X= i.f.s.s.9.5.a.t.s.s.s.s.a.5.a.t.s.f.f.h.h.j.j.j.j.v.j.j.j.p.8.v.j.j.j.h.v.5.q.v.h.m.-.d .X)._.)._._._.].]._._._.[.].].].].].].].].",
"].].]. XI./. X_.].].].].[.Y.- d.t.t.s.8.5.a.s.t.t.s.s.r.5.a.s.s.s.f.h.h.h.j.j.b.j.j.h.j.p.4.j.j.j.j.h.v.p.4.j.h.j.x.8 [._._.].].].].].].].]._.P._.[.].].].].].].",
"_.]./.P.$.P.P.'.[.].]._.|.+.2 h.t.s.t.4.q.s.t.s.s.t.s.w.5.s.s.s.s.f.f.h.h.h.b.u.6.v.h.j.a.4.h.j.j.j.h.j.d.T k.v.f.v.t +. X_._._._._.].].[.P.P.$.P.P.].]._._._._.",
"].].I.@.'.Y.@.).[.]._._..Xo.y h.t.s.r.4.0.s.t.t.s.s.s.0.5.s.t.s.f.f.f.h.f.v.i.u 3.h.h.h.d.4.h.j.h.h.h.j.d.3.g.p.h.b.p g +X_.].].].].].].].#.P.].P.$. X].].].].].",
"].].[.'.[.[._._._.].]._..XX.4 s.t.t.r.4.0.s.s.s.t.s.s.8.5.t.s.s.s.s.f.h.h.j.X   J a.j.h.a.4.a.j.j.h.h.h.d.q.P Y h.v.-.a XX_.].].].].].].].].]. X[.].].].].].].].",
"].]._.[._._.].]._.]._._..Xo.1 t.t.s.w.4.8.s.t.s.s.t.s.8.5.t.s.t.s.f.f.f.v.&XsX3XI 3.j.h.a.3.a.j.h.h.h.h.d.;.. K d.j.7.q |._.].].].].].].].].].].].].].].].].].].",
"].]._._._._._.]._.]._.{.|.+.% 0.t.s.r.3.8.s.t.s.s.t.t.8.5.t.t.s.s.f.f.s.B.HXLXLXnXK a.h.r.3.a.j.h.h.h.f.h.<.m S r.j.u.8 |._._.].].].].].].].].].].].].].].].].].",
"_._._._.].]._._.].].].].[.).$ Y t.s.r.4.8.t.t.t.t.s.s.8.4.e.s.t.s.s.s.v.xXwXIXLXIXI 3.h.r.3.a.j.h.h.h.f.B.IXLXlXY j.q.8 [._._._._.].].].].].[.].].].].]._._._._.",
"_._._._._.].]._.].].].]._..Xq S 0.t.t.8.4.t.s.s.s.t.t.0.8.t.s.t.s.s.f.#XtXwXuXHXrXiXT a.w.4.a.h.h.f.h.h.xXyXLXJXJ h.3.- '.'._._._.]._.].]._._.].].].].]._._.].].",
"T._._._._.]._.]._._._.[._.|.X.1 8.8.s.8.3.r.s.t.s.t.s.0.T e.s.s.s.s.u.s yXtX9X;X8XiXK q.w.3.s.h.f.h.a.B.tXeXKXuXG.t.L = (.#.^.)._._._.].]._.].].].].]._._._._.].",
"_._._._._.].]._._.[.'.P._.[.|.= H 8.8.w.4.0.s.s.t.t.s.r.T l.l.y.y.j.{ . aXVXwXwX7X< 4 Y 5.5.a.h.f.f.h.<.tX7X6X7XG.T D w {.U.@.'._.].].].].].].].].].].]._._._.T.",
"_._._.'._.]._._.[.P.P.#.P.P.|.+.O 4.5.5.5.4.s.b.h.t.s.s.R UXUXQ ! T f.f.p.F.&XOX:.G P u.5.4.f.f.f.f.g.. NXtX8X9XX T 4 g .X_.I._._._._.].]._.].].].].]._._._._._.",
"_._._._._._._._. X$.U.].P.P._..Xf % 9.8.4.4.0.b.b.s.t.s.U Q 5XQ Q A T f.s.h.s.s.h.j.j.h.8.0.f.f.f.f.g.;.:.P.xX2.3 Y 2 R. X_.]._._.].].].].].].].].].]._._._._._.",
"_._._._._.].]._._._.].[.[._.[.T..Xd % 4.0.4.4.0.h.s.t.s.9.U A A A R y.h.-.% D q.f.p.L L L 4.a.f.f.f.f.s.8.e.t.!.zX! I T._._._._._.]._.].]._.].].[._._._.)._._._.",
"_._._._._.]._.].].].]._._._._._._..Xf O J 0.8.3.8.t.s.s.e.5.5.r.9.t.s.t.g.X . 3.s.g..   . . X O % H s.q.;.S T Q 5X! R T._._._._._.]._.].]._.].]._._._._._._._._.",
"_._._._.]._._.].].].].]._.]._._._.'.XXo.* 5 Y w.5.5.0.t.s.w.3.0.s.s.t.t.f.g.&   X O .             3 L 3.p 5 r.K 6 I R.]._._._._._._.].].[._._._.]._._._._._._._.",
"]._.].].[._.]._._.].].].].].].].]._._.|.).d $ 5 Y 0.0.5.0.r.8.3.8.s.s.s.t.s.k.p .                     O P r.J O g .X X]._._._._.].].].]._._._.[._._.@./._._._._.",
"_._.]._.].].].].].].].].].].].].]._.].T.[..XY.d * 4 S Y 8.9.0.8.4.8.0.t.t.t.t.h.u.G t X         X 2 G 5.3.3 X o.+X[._._._.]._._.].].].]._._._. XP.@.P.P.@.'.]._.",
"].].].].].].].].].].].].].].].].].].].].]._. XXX[.[ , - 1 u S Y 4.9.0.0.w.r.0.8.8.r.a.p.7.;.7.7.6.5.H 3 O d '.|._._.].].].].].].].].].]._.[._.[././. X_.U.].].].",
"]._.]._.].].].].].].].].].].].]._._._._._._._._.o.X.%.%.q k < # $ 2 5 u D S F K J K K K K S D 5 1 $ = g $.[.[.'._._._._._._._._._.]._.#._.[.].].]. X].].].].].].",
"]._._.].].].].].].'.].].].].].]._._._._._.[.R.8 ) ` `  .) -Xn ^ ( / r k # r * q = = = = 8 q a g +.Y.{.{.#.P.#._.[._.]._._._.[._. X#.P.#.P.#. X].].].].].].].].].",
"].].].].].].].].'.$.P.'.{.].].]._.[._._._.[.+.M 0 ' ^ ` ~ v b ` | *.n :X_ *.&.T..X X[.|..X.X+X+X.X X(.$._.'.#.{._._.].].].]._._. X#.U.].(.#._.].].].].].].].].].",
"]._.].].].].[.P.$.I.I.@._.].].]._._._.[.'.#.Q.DXnXe ~ ~ 0 v b ~ ^ ^ e <X) ^ _ [  X].].].T.]._.T._._.[.{._._.[.]._._._.].].]._.].].].].].[._.].].].].].]._._.].].",
"_.]._._.].'.].Y./.[.].I._.].]._._._._.`.+.jXSXcXbXI 9 9 7 *Xb ^ ^ ^ e <Xw 0 0 = Y.[._._._._._._._._.].].].].].].]._._.]._.]._._.]._._.].].].].].].].]._._._._._.",
"].].].].].].].].[.].].]._._.].]._._.[.L.fXKXmXbX~.j # 7 0 *Xb 0 ) n z 3Xm nXlXM J.]._._._.[._.[.]._.].].].].].].].].].].].].].].].].].].].].].].].].].].].].].].",
"].]._.]._._.].]._._.].].].].].]._._.`.[ dXnXvX$X<.g v 2Xv pX=X1X1X,XZ C B mXSXFXjXR.`. X_._.T. X].].].].].].].].]._._._._._.].]._._._._.].].].].].].[.].].].]._.",
"_._.]._._.].].].].].].].].].]._.`.`.{ dXAXgXW.l.J.X.c -X;Xm v -X:X:X*X*Xj $XvXmXDXpXN o. X|.]._.].].].].].].].].]._._._._._.].I.].]._.[.].].].].].].]._._._._._.",
"_._._._._.].]._.].].].].].].]._.[.K.sXLXLXLXMXf .XM c -X>X>Xv 3X,X>X-X:X] ~.$XvXW.MXPXhXf N oX X].].].]._._._._._._.'._._.P.U.@././.[.].]._.].].].].]._._._._._.",
"_._._._._.]._.].].].].].].]._._.[.K.sXZXZXPXGXO.oX&.c ;X>X>Xv 1X0X1X;XZ (.1.l.~.jXLXLXMXW.E.g  X[.].].].].[.]._._._._._.].@.^.'.$.P.].].].].].].].].].]._._._._.",
"_._._._._.].]._._.].].].].].].]._.O.W.lXW.hXdX{ .Xo.x b ;X>Xv x =Xv c { |.Y.o.j JXPXHXaXH.W.3XsXR.[.].].].]._._._._._._._.).).].'.'.].].]._.].].].].]._.'._._._.",
"_._._._._.]._.].].].].].].]._.[.J.sXfXcXlXjXBX{ `.).z c ;X,X0X=Xl c z oX_._..Xo.sXZXZXJXdXE.!.lXN |.].].].]._._._._._._._.]._._._._.].]._.].].].].]._._._._._._.",
"_._._._._._._.].].].].].].].]._.O.PXGXhXjXGXLXjXJ..XL.z *X,X,X0Xv c Z )._._._.[.{ B JXLXJXE.H.W X.[._._._.[._._._._._._._._._._._.]._.].].].].].].].].].T.].]._.",
"_._._._._._._.]._.].].].].].].L.E.PXPXLXLXhXV jXo. X.Xg x :X,X,X0Xl w T._._._._. X).Q.CXgXW cXB R.|._._._._._._._._._._._._._._._.]._.].].].].].].].].]._._.'.].",
"_._._.)._.[._.'.[.]._._.].]._.[.O.kXzXFXZXpXH.f I.[.[.T.w *X>X;Xv > z Y._._._._.).].L.+.B W H.O.T.[._.[._._._._._._._._._.)._._._.].].].].].].].].].]._._._._._.",
"_._._._._.)./.@.'.'.[.].]._._._.Y.B O.3XgXJXW.j _._._. Xo.z *Xz !.nX, Y.[.)._._._.)._.).G.cXB R.[._._._._._._._._._._._._._._._._.]._.].]._.].].].].].]._._._._.",
"_._._._.].$.P.U.#.#. X].].].]._._.|.R.{ O.kXs K..X_.[.[.+Xw o I bXDXC 1.|.]._._._._._.].Y.J.R.[._.].].].].]._._._._._._._._._._._._._.].].].].].].].].]._._.'._.",
"_._.]._.].I.).[./.Y.].].].].].].]._.[.[.[ f G.o.J.).o.+.[ <.E H.bXDXjXK. X]._.[._._.]._.[.[.[.].].].].].].].]._.].].].].]._.].].].].].].].].].].].].[._._._.].].",
"_._.].].].[.].].[.]._.].].].]._._._..Xg V : : kXC s gXI %XbXvXH.$XSXfXK. X_._._.]._._.]._.].].].].].].].].].]._.]._._.]._.]._.]._.].].].].].].].].].#.I._.].].].",
"_._.].].]._.].]._.].].].].].].]._._.|.{ hXC . m m > JXsXvXSXZXH.$XSXdXK.|._._._.].].].].].].].].].].].].].].].].].].].].].].].].].].].].].].].].P.#.P.P.@.].].].",
"].].].].].].].].].[._._.].].].]._._.[.J.aXaX> > ; ; gXhXzXjXO.j %XSXjXJ.+X|.|.]._.].].].].].].].].].].].].].].].].].].].].].].].].].].].].].].].I.P. X'.$._.].].",
"_.]._.]._.].].].].]._._.].].].].].].[.K.E.gXaXZXpX; C AXh J.}.j W.fXV j K.o.J.[.[._.].].].].].].].].].].].].].]._.].]._.].]._.].].].].].].].].].[.]._.].[._.].].",
"].].].].].].].].].].].].].].].].].].]._.O.hX4XJXLXhX: B ).+XJ.sXMXV > : pXdXE.f K.|.].].].].].].].].].].].].].].].].].].].].].].].].].].].].].].].].]._._.[.].].",
"_.]._.].]._.].].].].].].]._.].]._.].].|.X.MXpXJXJXLXO.1.|.[.L., : + m ZXLXLXLXZXM R.[.].'._.P.#._._.].].].].].].].].]._.]._._._.].].'._.[.].].].].].]._._._._.].",
"_.]._._._._.].].].].].]._.[._._._._.)..X[ gXaXZXLXLXjXo.|.`.X.pX> : CXPXPXPXLXLXAXN |.[.).@.P.P.$.P.[._.].].].]._._._._.]._.]._.Y.).@./.'._._.].].].].]._.]._.].",
"].].].].].].].].].].].].[./.'.].[._._.|.J.aXaXCXLXLXkX{ |._.B 4X+ C JXJXJXGXAXhXgXs L. X_.P._.[.U.'.[.].].].].].].[._._.].].].[.#.#./.P.@.]._.].].].].].].].].].",
"_._._.].].].].].].].[.I.P.@.P.P._._._.`.K.E.jXgXLXLXB Y.[..Xf     C aXpXsXaXaXgXhXC [ XX_.]._._.].]._.].].].].]._._._._._._._.].).I.[.'.Y.[.].].].].].].].]._._.",
"_._._._.].].].].].]. XI.$.'.'.@.'._._._.).E.AXaXLXpX[ |._.[.s C kXhXhXhXhXgXkXdXsXB o.[._._._._.]._.].].].].].]._._._._._._._._._._._.[.[.].].].].].].].]._._._.",
"_._._._._._.]._.].].].]._._.'._._._._.).`.N gXC C [ |._._.[.f pXsXE.O.N [ [ } +.K._.{._._._._.[.].].].].].]._._._._._._._._._._._._.].]._._.].].].].].].].]._._.",
"_._._._._._.]._.].].].]._._.]._._._._._.|.o.s g L.|._.[._.[.R.o.J.L._.`.|..X X|.].]._._._._._._.].].].].].].]._._._._._._.'.T._._._._._._.[.].].].].].].'.]._._.",
"_._._._._._._.].].].].].].]._._._._._._._._.`.|.`._._._._._.[.|.[.]._.)._._.T.'._._._._._._._._.].].].].].].]._._._._._._._._._._.[._._._._.].].].].]._._._._._.",
"_._._._.].].]._.].].].].].].]._._._._._._._._._._._._._._.[._._._._._._._._._._._._._._._._._._.].].].].].].]._._._._._._._._._._._._._._._.].].].].].]._._._._."
};
