/* XPM */
static char *New_Project__17__resized[] = {
/* columns rows colors chars-per-pixel */
"80 80 256 2 ",
"   c #010100",
".  c #0B0906",
"X  c #181806",
"o  c #181417",
"O  c #2C1C07",
"+  c #19260A",
"@  c #143213",
"#  c #282705",
"$  c #383803",
"%  c #273518",
"&  c #2F2D0D",
"*  c #292225",
"=  c #2E362B",
"-  c #102431",
";  c #452902",
":  c #4A3601",
">  c #553400",
",  c #663900",
"<  c #723E00",
"1  c #40353B",
"2  c #104A0F",
"3  c #2D481A",
"4  c #186A18",
"5  c #19452F",
"6  c #354926",
"7  c #3B5528",
"8  c #2D5725",
"9  c #1F7124",
"0  c #474501",
"q  c #545400",
"w  c #5C5000",
"e  c #574B06",
"r  c #744200",
"t  c #7A4600",
"y  c #705506",
"u  c #6A6A00",
"i  c #716900",
"p  c #736C0F",
"a  c #43592A",
"s  c #4B5A35",
"d  c #4B6935",
"f  c #556B39",
"g  c #5B773A",
"h  c #4F6E32",
"j  c #657A3A",
"k  c #726D2C",
"l  c #2C3A44",
"z  c #173F67",
"x  c #423D40",
"c  c #2E6B4B",
"v  c #2E4E6D",
"b  c #396C6B",
"n  c #1F4371",
"m  c #494847",
"M  c #575754",
"N  c #665B4D",
"B  c #5C6D48",
"V  c #647A45",
"C  c #6D7B55",
"Z  c #716E51",
"A  c #727270",
"S  c #4F6073",
"D  c #CE3425",
"F  c #8B5700",
"G  c #955400",
"H  c #8B4B00",
"J  c #A35D00",
"K  c #857600",
"L  c #8D6301",
"P  c #A86400",
"I  c #BC7700",
"U  c #AE7204",
"Y  c #9F6B27",
"T  c #D55210",
"R  c #C47400",
"E  c #CA7C00",
"W  c #D97C02",
"Q  c #D06C06",
"!  c #D55429",
"~  c #E8691B",
"^  c #887E61",
"/  c #E64751",
"(  c #E84E5B",
")  c #E33D50",
"_  c #239012",
"`  c #2BA815",
"'  c #31B513",
"]  c #1E8F22",
"[  c #279927",
"{  c #298928",
"}  c #2AA82B",
"|  c #34B52B",
" . c #19820F",
".. c #4B8D3B",
"X. c #69873A",
"o. c #75963C",
"O. c #76873B",
"+. c #45B933",
"@. c #75A33F",
"#. c #33C72E",
"$. c #3E904B",
"%. c #5C8544",
"&. c #678842",
"*. c #779A48",
"=. c #718B49",
"-. c #7CA64A",
";. c #6FB755",
":. c #74B956",
">. c #7CBB56",
",. c #77BA57",
"<. c #66A54B",
"1. c #7D8A69",
"2. c #72C153",
"3. c #878500",
"4. c #9A8F00",
"5. c #AA8D00",
"6. c #A79801",
"7. c #AFAC00",
"8. c #918F38",
"9. c #D58301",
"0. c #DA8500",
"q. c #DC8A00",
"w. c #D58A00",
"e. c #D89600",
"r. c #C58E04",
"t. c #E48C00",
"y. c #E98D01",
"u. c #F28A00",
"i. c #E49300",
"p. c #EC9301",
"a. c #EC9A00",
"s. c #E49C01",
"d. c #F29500",
"f. c #F49B00",
"g. c #FC9D00",
"h. c #FB9500",
"j. c #D9B601",
"k. c #D3A406",
"l. c #EBA300",
"z. c #ECAB00",
"x. c #E5A500",
"c. c #F4A400",
"v. c #FEA200",
"b. c #F4AB00",
"n. c #FEAB00",
"m. c #EAB700",
"M. c #FEB400",
"N. c #FEBB00",
"B. c #F4B701",
"V. c #E2AE3E",
"C. c #D7CB00",
"Z. c #DBD800",
"A. c #FFC300",
"S. c #FECB00",
"D. c #F3CA00",
"F. c #FED400",
"G. c #FEDC00",
"H. c #F7D304",
"J. c #EDCF00",
"K. c #E5E700",
"L. c #FEE400",
"P. c #FEEB00",
"I. c #F1EF00",
"U. c #FEF300",
"Y. c #FFFE00",
"T. c #F6F700",
"R. c #EBD223",
"E. c #89954E",
"W. c #83A949",
"Q. c #8BB649",
"!. c #83BE56",
"~. c #8BBE56",
"^. c #84BE58",
"/. c #8BB754",
"(. c #93BA53",
"). c #89B04F",
"_. c #8F8F7D",
"`. c #A89875",
"'. c #B09463",
"]. c #CDB470",
"[. c #E3AF58",
"{. c #8CC157",
"}. c #8BC158",
"|. c #87C459",
" X c #94C356",
".X c #9AC457",
"XX c #9ECA56",
"oX c #94C458",
"OX c #9BC558",
"+X c #9EC95A",
"@X c #95CB5A",
"#X c #9DD15D",
"$X c #93C04E",
"%X c #A2CD5B",
"&X c #A0C758",
"*X c #A5D25C",
"=X c #A9D55E",
"-X c #ACDF63",
";X c #FCCE6F",
":X c #E9D351",
">X c #254F84",
",X c #366C95",
"<X c #3A5EA5",
"1X c #346CA8",
"2X c #1F488C",
"3X c #4278B7",
"4X c #5D758F",
"5X c #827B87",
"6X c #018BB4",
"7X c #20A5AF",
"8X c #00A7DF",
"9X c #04BAED",
"0X c #3597C9",
"qX c #7EBECC",
"wX c #00C5FB",
"eX c #00D0FF",
"rX c #2BD0E9",
"tX c #43DBFF",
"yX c #51E5FF",
"uX c #76E0FF",
"iX c #5DBAB7",
"pX c #979796",
"aX c #8D8D8C",
"sX c #AAAB98",
"dX c #A7A7A7",
"fX c #BAB9BA",
"gX c #AFAFB4",
"hX c #9B9E95",
"jX c #D2BA89",
"kX c #CBBDA8",
"lX c #F8A29E",
"zX c #EDD68C",
"xX c #FFE38A",
"cX c #FFE59C",
"vX c #F0D8AE",
"bX c #FFECB7",
"nX c #FFF0B0",
"mX c #D4C9B4",
"MX c #BFBDC3",
"NX c #C2BEC5",
"BX c #FFB0CC",
"VX c #97E5E9",
"CX c #C7C6C9",
"ZX c #D5D3D2",
"AX c #E9DBC4",
"SX c #FFF7C9",
"DX c #FDF0D5",
"FX c #CEF5F8",
"GX c #E7E7EA",
"HX c #FFFFE4",
"JX c #FFFFEA",
"KX c #FEFFFE",
"LX c #F5F4F5",
"PX c #EAF1F8",
"IX c #CFD3E2",
"UX c #94E1B0",
/* pixels */
".X.X.X.XOXOX.X.XOXOXOXOXOXOX.X.X.X.X.X.X.X.X.X.X.X.X.XOX.X+XOXOX.X.X.X.X.X.X.X.X.X.X.X.X.X.X.XOXOXOXOXOXOXOXOX.X.X.X.X.X.X+X.X.X.XOXOXOXOXOXOXOXOXOX.X.XOX+X.X.X",
".X.X.X.X.XOXOX.XOXOXOXOXOXOX.X.X.X.X.X.X.X.X.X.X.X.XOX.X.X/.!..X.X.X.XOX.X X.X.X+X(..X.X.XOXOXOXOXOXOXOXOXOXOX.XoX.X.X.X.X(..X.XOXOX.XOXOXOXOXOXOXOX.X.X~.!..X.X",
".X.X.X.X.XOXOX.X.XOXOXOX.X.X.X.X.X.X.X.X.X.X.X.X.XOXOXoX:.!.>.:.{.=X(.Q.&X&X X.X.X.X.X.X.X.X.XOXOXOXOXOXOXOXOX.X.X.X.X.X.X.X.X.XoXOXOXOXOX.XOXOX.X+X.X,.^.>.>.}.",
".X.X.X.X.XOXOX.XOX+X~.+X+XOX.X.X.X.X.X.X.XoX.X.X.X.X.X.X,. X.X|.~.h 3 8 3 W.%X X.X.X.X.X.XOX.XOXOXOXOXOXOXOX.XOX.X.X.X.X.X.X.X.XOXOXOXOXOXOXOXOX.X.X.X,.oX.X>.}.",
".X.X.X.XOXOX.XOX}.}.;.~.~..XOXOX.X.X.X.X.X.X.XOXOXOXOXOX+X.XOX(.% 4 ] [ ] 3 ).OX.X.X.X.X.X+X.X.XOXOXOXOXOXOXOXOX.XOXOX.X.X.XOX.XOXOXOXOXOXOXOXOX.X.XOX+X.X.X.X.X",
".X.X.X.XOXOX.X+X>.>.oX~.:.OXOXOX.XOXOXOXOXOXOXOXOXOXOXOX.X.X*Xa 4 } [ [ #.} 7 %XoXOX.X.X.X.X.X+XOXOXOXOXOXOXOXOXOX.XOXOX.X.X.XOXOXOXOXOXOXOXOXOX+X.XOX.X.X.X.X.X",
".X.X.X+XOXOXOX+XoXoX&X X XOXOXOXOX.XOXOXOXOX.XOXOXOXOXOX.X.X%X6 ] [ [ } } #.4 X.*XOX.X.X.X.X.X.XOXOXOXOXOXOXOXOXOX.XOXOXOXoX.XOXOXOXOXOXOXOXOXOX.XOXOXOX+X.X.X.X",
".X.X.X.XOXOXOXOX+X+X.X.XOXOXOXOXOXOXOXOXOXOXOXOXOXOXOXOX.X.X%XX.2 ] } } } | | 8 &X.X.X.X+X.X.X.XOXOXOXOXOXOXOXOXOXOXOX X X:.^.oXOXOXOXOXOXOXOXOX.XOXOXOX.X.X+X.X",
"OXOX.X.XOXOXOXOX.X.XOXOXOXOXOXOX.X+X.X.XOXOXOXOXOXOXOXOXOX.X.X%X*.6 2 { [ } #.4 E.+XOX+X.X.XOX+XOXOX.X.XOXOXOXOXOXOX&X!.,./.^.;.OXOXOXOXOXOXOXOX+XOXOXOX.X.XOXOX",
"OXOXOX.XOXOXOXOX.X.XOXOXOXOXOXOX.X.X.X.XOXOX.X.XOXOXOXOXOX.X+X.X%X}.d @ ] } | ] X.#X.X.X.XXX}.|.+XOXOX.XOXOXOXOXOXOXOXoX~.&X X{.OXOXOXOXOXOXOXOX.XOXOXOX.X+XOXOX",
"OXOX.X+XOXOXOXOX.XOXOXOXOXOXOXOX.X+XOXOXOX.X+X.XOXOXOXOXOX.X(.+X%X#X-XX.2 [ | ] f *X(.OX X>.>.>.>.(.+X.XOXOXOXOXOXOXOXOX+X.X.XOXOXOXOXOXOXOXOXOX.XOXOXOX.XOX.XOX",
".X.X.X.X.X.XOXOXOXOXOXOXOXOXOX.X.X.X.X.X.X.X.X.X.XOX+X(.+X*X*X~.*.V h 7 @ { } ] d =X=X%X X:..X.X>.}.+XOXOXOXOXOX.X.X.X.X.X.X.X.X.X.X.XOXOXOXOXOXOXOXOX.X.X.X.X.X",
"OXOXOXOX.X.X+X.XOXOXOXOXOXOXOXOXOXOXOXOX.X.X+X.XOX.X+X=X(.&.6 & 0 w 3.F @ 4 } 9 O % d -.*X%X.X.X+X.X.X.XOXOXOXOX.X.X+X.X.X.X.X.XOXOXOXOXOXOXOXOXOXOXOXOXOXOXOXOX",
".X.X.XOX.X.XOXOXOXOXOXOXOXOXOX.X.X.X.XOX.X+X!.(.OX=X(.s # q 7.K.Y.Y.Y.S.i % 2 : w.C.3.$ = *.=X+X X+XOX.X.X.XOXOX.X.X.X.X.X.X.X.XOXOXOXOXOXOXOXOXOXOXOXOXOX.X.X.X",
".X.XOX.X+X.X>.oXOXOXOXOXOXOXOXOX.X.XOXOX}.!.:.|.|.f + i K.Y.Y.Y.U.G.Y.Y.Y.P.J.P.P.Y.Y.Y.7.: 3 /.=X(..X+X.X.XOXOX.X.X.X.X.X.X.X.XOXOXOXOXOXOXOXOXOXOXOXOX.X.X.X.X",
".X.X.XOX,.!.>.!.,.OXOXOXOX.XOX.X.X.X.X&X^.:.*X-.@ q K.Y.L.Y.U.S.n.L.Y.A.L.Y.Y.Y.U.F.Y.Y.Y.Y.6.+ V =X.X.X+X+X.X.X.X.X.X.X.X.X.X.X.XOXOXOXOXOXOXOXOXOXOX.X.X.X.X.X",
".X.X.X.X^.~.+X~.!.OX.X.X.X.XOX.X.X.X.X.X.X=XX.X 7.Y.L.B.U.G.M.v.S.Y.A.n.P.Y.Y.Y.Y.G.Y.Y.Y.P.Y.K.0 7 *X+X}.oXOX.X.X.X.X.X.X.X X.X.XOX.XOXOXOXXX.X.X.X.X.X.X.X.X.X",
".X.X.X.X.XOXOXOX.X+X.X+XOX.XOX.X.X.X.X.X=Xd # Z.Y.M.v.U.F.v.n.n.P.F.v.M.L.Y.Y.Y.Y.P.S.Y.Y.Y.H.L.Y.i % oX>.^.{..X.X.X.X.X.X.X.X.X.XOX.XOXOXOX.X.X.X+X+X.X.X.X.X.X",
".X.X.X.X.X.X.X.X.X.X+X.XOX.XOX.X.X+X(.=Xs $ Y.P.v.c.P.S.v.n.n.B.L.n.M.M.F.Y.Y.Y.Y.Y.B.S.A.S.Y.A.F.Y.3.@ @X}.;.oX.X.X.X.X.X.X.X.X.XOXOXOXOX.XOX.X.X|.~..X.X.X(..X",
".X.X.X.X.X.XOXOX.X+XoX.XOX.X.X.X.X(.=Xf $ Y.F.v.h.J.F.g.n.M.v.J.S.v.M.M.M.P.Y.Y.Y.Y.J.N.A.A.G.P.N.S.Y.3.% *X X.X.X.X.X.X.X.X.X.X.XOX.XOXOXOX.X X>.>.!.>. X.X+X.X",
".X.X.X.X.X.XOXOX X X;.{. X.X.X.X X*XX.# T.S.g.v.z.G.v.n.b.n.a.H.n.n.M.N.N.A.P.Y.Y.U.H.b.S.S.N.L.D.B.S.Y.i 7 =X.X.X.X.X.X.X.X.X.X.X.XOXOXOX.X.X X,.OX X>.oX.X.X.X",
".X.X.X.X.XOX.X&X>.>.{.!.:.OX.X X+X/.X Z.F.h.n.i.H.n.v.n.n.v.z.S.v.n.M.M.N.N.A.G.L.S.G.z.A.A.A.A.L.z.N.S.Y.0 g =X(..X.X.X.X.X.X.X.XOX.XOXOXOXOXOX.X+XOX+X.X.X.X.X",
".X(..X.XOXOXOXOX}. X&X X{..X.X.X*X% 6.P.h.n.y.z.S.g.n.v.M.a.m.M.n.n.M.M.N.A.A.A.S.A.F.m.B.S.A.A.F.D.l.A.F.I.# ).%X.X.X.X.X.X.X X.XOX.XOXOXOXOXOX.X.X.X.X.X.X.X.X",
".X+X.X.XOXOXOXOX+X+X.X.X+X.X X=Xg 0 U.g.v.v.q.D.v.v.v.n.n.t.D.v.n.n.M.M.N.A.A.A.S.A.S.m.l.F.A.A.A.G.s.N.N.P.7.% %X X.X.X.X.X.X.X.XOX.XOXOXOXOXOX+X.X.XOX.X.X.X.X",
".XOX.X.X.X+X.X.XOXOXOXOX.X.X.X.X+ C.M.g.v.t.x.N.g.v.n.n.v.e.N.v.n.n.M.M.N.N.A.A.A.A.A.D.i.S.A.A.N.S.m.a.A.B.Y.q g =X.X.X.X.X.X.X.XOX.XOXOXOXOXOXOXOXOXOX.X.X.X.X",
".XOXOXOX.X.X.X.XOXOXOXOX.X.X=Xf u G.h.v.g.0.B.v.v.v.v.n.a.s.n.v.n.n.M.M.N.N.A.S.A.A.A.S.e.N.A.A.A.A.H.q.N.N.S.Z.& .X+X.X.X.X.X+XOXOXOXOXOXOXOXOXOXOXOXOXOXOXOX.X",
".X.X.X.X+X.X.X+XOXOXOXOX.X.XXX% C.n.g.v.y.e.M.g.v.v.v.n.t.l.n.v.v.n.M.M.N.N.A.A.A.A.N.S.i.b.S.A.A.N.S.x.a.A.M.P.u g *X.XOXOX(.!..XOXOXOXOXOXOXOXOXOXOXOXOXOX.XOX",
"OXOXOXOX.X.X.X.XOXOXOXOX.X*X=.0 A.h.v.v.0.l.n.g.v.v.v.n.t.z.v.v.n.n.M.M.N.N.A.N.A.A.N.A.s.l.A.N.N.N.A.B.0.N.N.A.C.% .X.XOX>.^.,.!.^.&XOXOXOXOXOXOXOXOXOXOXOXOXOX",
".X.X.X.X.X.X.X.XOXOXOXOX(.=Xa 4.M.g.v.d.0.b.v.g.v.v.v.v.q.b.v.v.v.n.n.M.M.N.N.A.N.A.N.N.l.i.A.N.N.N.N.A.0.c.A.M.L.q &.*X.X>.{..X!.!.OXOXOXOXOX.XOXOXOXOX.X.X.X.X",
"OXOXOXOXOXOX.X.XOXOXOXOXOX%X% k.v.g.g.t.q.c.v.g.v.v.n.f.q.c.g.v.n.n.M.M.M.N.N.N.A.N.N.N.l.q.A.N.N.N.M.A.i.i.N.B.S.6.7 =X.X.X X.X.X.XOXOXOXOXOXOXOXOXOXOXOXOXOXOX",
"OXOXOX&X~.}.&X+XOXOXOXOX+X/.& b.v.g.v.t.q.v.v.v.g.v.v.d.q.v.v.v.v.n.n.M.M.N.N.D.B.N.M.N.z.q.N.N.N.N.M.N.x.0.B.N.N.D.$ ~.OX.XXX.XOXOXOXOXOXOX.X^..XOXOXOXOXOXOXOX",
".XOXoX>.>.!.!.oXOXOXOXOX%X-.0 n.g.v.g.0.i.n.g.v.v.g.v.a.q.v.v.v.v.n.n.M.N.M.S.r.w.N.N.M.b.0.M.N.N.N.M.N.b.0.b.N.n.F.q =.*X.X.X.X.XOXOXOXOX^.^.,.^.^.+XoX.X.X.X.X",
".X+X~.:.oXoX:.oX+X.X.X.X+X*.> M.g.v.f.0.i.v.g.v.v.v.v.y.q.v.g.v.v.n.n.M.b.S.4.; 9.B.M.M.b.0.n.N.N.N.M.M.b.q.x.e.N.S.K d =X&XOXOXOXOXOX.XOX>.~..X^.,.+X.XOXOXOXOX",
".X+X.X.XOXOX.X.X.X.X.X.X*X*.: v.g.v.d.0.y.v.v.g.g.v.v.i.q.g.v.g.v.n.n.n.M.j.X   J s.M.M.c.0.b.N.M.M.M.M.c.e.y R M.N.5.7 =X(.OXOXOXOXOXOXOXOXOX&X.X.X.X+XOXOXOXOX",
".XOXOXOX.XOXOXOX.X.X+X.X%X-.; h.v.g.d.0.t.v.g.v.v.g.v.t.0.g.v.v.v.n.n.n.D.zXIXCXY E M.M.c.9.c.N.M.M.M.M.M.5.  G b.N.e.3 %X&XOXOXOXOXOXOXOXOXOXOXOXOX.X.X.XOX.X.X",
".X.X.X.XOXOXOX.XOXOX.XoX+X).O W v.v.f.0.t.v.v.g.g.v.v.t.0.v.g.v.v.v.n.n.:XVXPXKXDXI a.M.a.9.c.M.M.M.M.n.N.].pXY i.M.x.3 +X(.OXOXOXOXOXOXOXOXOXOXOXOXOXOX.X.X.X.X",
".X.X.X.X.XOXOX.X.XOXOXOX.X+X% I d.v.g.0.t.g.v.v.v.g.v.y.0.g.v.g.v.v.c.G.VXeXFXKXFX=.9.M.f.9.c.M.n.M.M.v.R.FXKXvXR N.s.$ +X.X.X.X.XOXOXOXOXOXOXOXOXOX+X.X.X.X.X.X",
".X.X.X.XOX.X.XOXOXOXOXOX.X*Xd t p.d.v.t.0.f.v.g.g.v.v.p.0.f.v.v.v.v.M.[.yXeX0XUX9XiXQ l.a.0.c.M.n.M.v.M.UXtXKXFXU n.E % OXoX.X.X.XOX.XOXOXOXOXOXOXOXOX.X.X.X.X.X",
".X.X.X.X.XOX.X.X.X.X+X+X.X%XW.O 0.0.f.p.0.d.g.g.v.g.v.p.e.d.v.M.v.n.6.o VXuX8X6XwX,XG t.a.0.c.M.n.M.n.R.tX9XVXrXE.u.P 6 >.!.}.oXOXOX.XOX.XOXOXOXOXOXOX.X.X.X.X.X",
".X.X.X.X.X.X.X.X.X+X X!.OX.X=Xa < d.0.a.0.t.v.M.v.g.v.f.~ [.lX( ~ M.4.: E.VXrXrX7X  ; E q.0.n.n.n.n.M.k uXrX1X9XB W H 8 #X~.;.oXOX.XOXOXOX.XOXOXOXOXOXOX.X.X.X.X",
".X.X.X(.+X.XOX.XOX!.!.>.^.!.&X X# P u.9.q.0.f.F.A.v.g.v.! BXBX( / T h.N.M.M.M.B.z.x.k.x.w.q.n.n.b.n.x.+ hXyXeX6X. R ; %.*X.X~..X.X.X.XOXOXOXOXOXOXOXOX.X.X.X.X.X",
".X.X.X.XOXOX.X.XOX>.{.OX!.^..X%XW.X I p.0.0.t.N.S.v.g.v.Q D ) ( / D Q n.i.a.v.v.n.n.M.n.y.g.M.M.M.n.M.b.6.k.R.r.Y W e ~.&X.XOX.X.XOXOXOXOXOXOXOXOXOXOX.X.X.X.X.X",
".X.X.X.XOX.X.X.X.XXX.X.X.XOXOX X%X*.X P d.0.9.t.v.v.g.v.f.W Q T T Q h.M.5.  > a.M.N.y r r L U w.e.d.v.p.t.d.u.lXBX/ ! (..X.X.X.X.XOXOXOXOX.XOXOXOXOX.X.X.X.X.X.X",
".XoX.X.X.XOXOX.XOXOXOXOX.XOX.X.X(.=X).+ , t.y.0.0.d.v.g.g.t.q.f.n.v.g.g.N.q   F I 5.              F g.v.4., 9.! / D ! ~..X.X.X.X.XOX.XOX.XOXOXOX.X+X.X.X.X.X.X.X",
".X.X.X.XOXOX.X.XOXOXOXOXOX.XOXOXOX X&XOXa O G t.p.q.q.a.v.h.0.0.g.g.g.g.g.N.i         .   .       O t F i G g.G ; E..XOX.X.X.X.X.XOX.XOX+X.XOXOXOXOX.XOX.X.X.X.X",
"OX.XOX.XOXOXOXOXOXOXOXOXOXOXOXOXOXOX.XOX=X-.6 O H E y.p.i.p.t.9.0.f.v.g.v.g.N.k.q .                   : 9.i.< + W.#X.XOX.X.X.X.XOXOXOXOX.XOXOXOXoX.X>.{..X.X.X.X",
".X.X.X.X.X.XOXOXOXOXOXOXOXOXOXOXOXOXOXOX.X&X=X-.7 & ; H R q.p.p.y.t.y.d.f.f.d.h.l.r.K w $ # # $ w L e.i.G O 6 (.%X(..X.X.X.X.X.XOXOXOX.X.XOX.XOX>.>.!.!.;..X.X.X",
"OXOXOXOXOX+XOXOXOXOXOXOXOXOXOXOXOXOXOXOXOXOX X%X=X.X&.a & O , H P R 0.t.y.p.p.y.t.d.g.n.c.c.l.s.r.J , O 6 *.=X+XOX+XOXOX.X.X.X+XOXOXOX+XOXOX+XXX{.~.&X X^.OXOXOX",
"OX.XOX.X.XOXOXOXOXOXOXOXOXOXOX.X.X.XOX.X.X.X.X.X X%X*X%X8 2X5 2 @ @ & ; ; > , r r r < < , > ; & & 6 f /.@X@X X.X.X.X.X.X.X.X.X.XOXOX.X>..X.XOXOX+X+XOXOXOX.X.X.X",
"OX.X.XOX.XOXOXOXOXoX.X+XOXOXOXOXOXOX.XOX.X.X.X.X+X).<.+.` c b ' | | c >X9 ..g f d d d f g &.*.)..X=X#X>.>.!.>.oX.X.X.X.X.X.XOX.XOX>.^.>.|.!.+X.X.X.XOXOX.XOXOXOX",
"OXOXOXOXOXOXOXoXoX,.^.oX.XOXOXOXOXOXOXOXOX+XoX X.Xg +.+.| _ 5 } +.+.c <X[ 2.%X=X=X=X=X=X*X*X%X%XOX.X|.>.OX X>.@X+X.X+X.XOXOXOXOXOX!.~.OX!.>.OX.XOXOXOXOXOXOXOXOX",
"OX.XOXOXOXOX+X|.,.~.~.;.oXOXOX.X.XOX.XOX(.}.;.}.-...#.` ` _ @ ` ` ' 9 <X$.X.)..X.X.X(.OXOX(..X.XOXOXOXOXOX.X.XOX.X.X.X.XOXOX.XOXOX.X.X.X.X.X+X.XOXOXOXOXOX.XOXOX",
".XOX.X.XOX.XOX(.~.&X+X^.+XOX.X.X.X.X.X+X|.:.~.@Xd 4 4 4 _ 4 5 ` ` ' 9 <Xc X.&X.X.X.X.X.X.X.X.X.XOXOXOXOXOXOXOXOX.X.X.X.X.XOX.X.X.X.X.XOXOXOXOXOXOXOXOXOX.X.X.XOX",
"OXOXOXOXOXOXOXOX+XOXOXOX.X.X.X+X.X.X.X+X X(.+X.X&.s mXjXk $ 5 b b b v 4X= OX+X.X.X.X.X.X.X+X.X+XOXOXOXOXOXOXOXOX.X.X.X+XOXOXOXOX.X+XOXOXOXOXOXOXOXOXOXOXOXOXOXOX",
"OXOX.XOXOX.XOXOXOXOXOXOXOXOX.X.X+X.X.X.X.XOX.XOX$XsXSXxXV.N v 3X3X3Xv S d %X.X.X+X.X.X.X.X.X+X.XOXOXOXOXOXOXOXOX.X.X.X.X.X.XOX+X.XOXOXOXOXOXOXOXOXOXOXOXOX.XOXOX",
".X.XOX.X.XOXOXOXOXOXOXOXOXOXOX.X.X.X.X.X.X.X.X.XOXE.vXcX;XV.l ,X,X,X,X<X%.+X.X.X.X.X.X.X.X.X.X.XOXOXOXOXOXOXOXOX.X.X.X.X.X+XoX~.OXOX.XOXOXOXOXOXOXOXOXOX.XOX.X.X",
".X.X.X.X.XOXOX.XOXOXOXOXOXOX.X.X.X.X.X.X.X.X.X.X&XV AXbXcX[.N S 1X1X>Xv <.@X+X.X.X.X.X.X.X.X.X.X.X.X.X.X+XOXOX.X.X.X.X.X.X^.^.;.^.}.+XOXOXOXOXOXOXOXOX.X.X.X(..X",
".X.X.X.X.XOX.XOXOXOXOXOXOXOXOX.X.X.X.X X.X.X.X.X*Xg dXHX`.dXLXZX4X4XZXaX8 @X.X.X.X.X.X.X.X.X.X+X.X+X.X.X.XOX.X.X.X.X.X.X.X:.~. X>.!.&XOXOX.XOXOXOXOXOX.X.XOX+X.X",
".X.X.X.XOXOXOX.X.XOXOXOXOXOX.X.X.X.X.X.X.X.X.X.X%X-.l sXdXKXLXIXkXKXZXA '.k OX.X.X.X.XOX.XOX.X.XOXOX.X+X.X.XOX.X.X.X.X.X.X X.XOXoXoXOXOXOXOXOXOXOXOXOX.X.X.X.XoX",
".X.X.X.XOX.X.X.XOXOXOXOXOXOXOX.X.X.X.X.X.X.X.X(.%X*.n z fXKXGX`.`.CXZXN ].N g =X X.X.XOX(..XXX.XOXOX.X.X.X+XOX.X.X.X.X.X.XOX.X.X.X.XOXOXOX.XOXOXOXOX.X.X.X.X.X.X",
".X.X.X X.X+X.X.XOXOXOXOXOXOX.X.X.X.X.X.X.X.X.X X*XX.n 1XS KXfXjXcXdXKXZXGXfX- X.+X.X~.{.;.~.~..XOXOXOXOXOXOXOX.X.X.X.X.X.X.X.X.X.X.XOXOXOXOXOXOXOXOXOXOX.X.X.X.X",
".X.X.X.X.X.X.X.XOXOXOXOXOXOXOX.X X.X.X.X.X.X.X.X%Xj n 3X<X4X^ jXhXGXPXCXA l = g %XOX!.:.oX~.;.+XOXOXOXOXOXOX.X.X.X.X.X.X.X.X.X.X.XOX.XOXOXOXOXOXOXOXOX.X.X.X.X.X",
".X.X.X.X.X+X.XoXOXOXOXOXOXOX.X.X.X.X.X.X.X.X.X X#XB v 1X1X0XS _.ZXKXZXCX1 ].vXC &X.X X XOX.XoXOX+XOXOXOXOXOX.X.X.X.X.X.X.X.X.X.X.XOXOXOXOXOXOXOXOXOXOXOX.X.X.X.X",
".X.X.X.X.XoX~.:.oXoXOXOXOXOXOX.X.X.X.X.X.X.X X X*X7 - m m z - Z CXLXMX* p xXSXhXQ.+X.X.X.X.XOX.X.XOXOXOXOXOX.X.X X.X.X.X.X.X X.X.XOX.XOXOX.XOXOXOXOXOXOX.X.X.X.X",
".X.X.X.XOX:.!.~.>.>.&XOXOXOXOX.X(.OX.XOX&X(.&X%X Xa Y :XbX^ N ].`.N M d 8.;XSXZXW.&X.X.XOXOXOXOXOXOXOXOXOXOXOXOX.X.X.X.X.X.X.X.X.X.X.XOXOXOXOXOX.X.XOX.X.X.X.X.X",
".X.XOXOXOX~.oX+X}.~.OXOXOXOXOX.X%X%X%X X.X&X&XW.k V.xXnXAXZ ^ ^ ^ d =.%X8.;XSXkX@.%X.XXXOXOXOXOXOXOXOXOXOXOX.XOXOXOX.XOXOX.XOXOXOXOXOXOXOXOXOXOX.X+X+X.X.X.XOXOX",
".X.X.X.XOXOXOXOX+XOXOXOXOXOXOXOXQ.*.=.C C j B Y ;XcXSXJXsXW.Q.Q.).+X+X+Xj [.SXCX*.%X XOXOXOXOXOXOXOXOXOXOXOXOXOX.XOXOX.X.XOX.XOX.XOXOXOXOXOXOXOX+X.X>.}..XOXOX.X",
".X.XOXOXOX.XOXOXOXOXOXOXOXOX%XW.N x . 5X4X* aX`.nXSXmXaXW.%X&X&X+X.X.X%X8.[.nXvX*.&X.XOX XOXOXOXOXOXOXOXOXOXOXOXOXOXOXOXOXOXOXOXOXOXOXOXOXOX.X+X^.>.>.!.;.OXOXOX",
"OXOXOXOXOXOXOXOXOXOXOXOXOXOX+XQ.A MXo o o = m aXmXsX%.Q.%XOX.XOX.XOX.X%Xj ^ `.pXC &XXXXX*X.X.XOXOXOXOXOXOXOXOXOXOX.XOXOX.X+X.X.XOXOXOXOXOXOX.XOX~.!.&XoX>..XOXOX",
"OX.XOXOXOXOXOXOXOXOXOXOXOXOX.X%Xg CXM A A M o A V -.,.}..X.XOXOX.X.X.X.XC PXZXfXM a C B X.OX+XOXOXOXOXOXOXOXOXOXOXOX.XOX.X.X.X.XOXOXOXOXOXOXOXOX.X+X.XOX+X.XOXOX",
"OXOXOXOXOXOXOXOXOXOXOXOXOXOX.X%XW.aXgXdXLXGXdX* *.=X X XOXOXOXOX.X+XOX*Xj x x o M ZXLXGXdXf (.XXOXOXOXOXOXOXOXOXOXOX.X.X.X+X+X.XOXOXOXOXOXOXOXOXOXOXOXOX.XOXOXOX",
"OX.XOXOXOXOXOXOXOXOXOXOXOXOX.X.XXXg NX1.GXGXKXdXX.%X.XOXOXOXOXOX.X.X%XQ.N 1 * M LXKXKXKXKXNXB >..X XOXOXOXOXOXOX.XOX.X.X.X.X.X.XOXOXoXOX&XOXOXOXOXOXOXOX.XOXOX.X",
".X.X.X.XOX.XOXOXOXOXOXOXOX&XOX.X*Xo.dXpXfXLXKXPXB XX.XOXOXOXOXOXOX(.*XX.dXM * NXLXPXLXKXGXLXA <.>.}.+X.XOXOXOXOXOX.XOX.X.X.X.XOXoX(.;.}.oX.X.XOXOXOXOXOX.X.XOXOX",
"OXOXOXOXOXOXOXOXOXOXOXOXOX^. X&X.X$XC fXaXKXKXLXC  XOXOXOXOXOXOXOXOX%X*.m o x NXdXdXpXpXpXpXA j @X{.OX.XOXOXOXOXOXOXOXOX+X.X.X+X>.>.}.|.;.+XOXOXOXOXOXOXOXOXOXOX",
".X.XOX.XOXOXOXOXOXOXOX~.^.>.!.^.oX*XX.gXaXZXKXGXf %X.XOXOXOXOXOXOXOX*XX.. = A pXpXdXgXMXCXCXaXf %X.XOXOXOXOXOXOXOX.XOX.X.X.X.XOX{.(.+X X(.+X.XOXOXOXOXOXOXOX.X.X",
".X.X.X.XOXOXOXOXOX+X&X}.:.oXoX:.oX+XQ.aXCXpXKXaXo.%X.X.XOXOXOXOXOXOX*Xg 5XNXNXdXpXaXE.C V &.o.(.OXOXOX.XOXOXOXOX.X.XOX X.X.X.X XOX+X.XOXOX.X+XOXOXOXOXOX.X.X.X.X",
".X.X.X.X.X.XOX.XOXOXOXOX.X.X.XoX.X.X%Xj ZXaXaXj %XOXOXOX.XOXOXOX+X.X%X-.f j X.o.W.Q.Q.&X%X%X%X+XOXOXOXOXOXOX.X.X.X.X.X.X.X.X.X.X.X.X.X.X.X.XOXOXOXOXOXOXOXOX.X.X",
".X.X.X.X.X.X.XOXOXOXOXOX.X.XOX.X.X.X%X-.A M h *X.XOXOX.X.XOXOXOX.X.X.X.X&X%X%X%X&XXXOX.X.X.X.X.XOXOXOXOXOXOXOX.X.X.X.X.X.X.X.X.X.X+X.X.X+X.XOXOXOXOXOXOXOX.X.X.X",
".X.X.X.X.XOX.X.XOXOXOXOX.XOX.X.X.X.X.XOX&.W.%X.X.X.XOXOX.XOXOXOX.X.X.X.X.X(. X X.X.X.X.X.X.X.X.XOXOXOXOXOXOXOX.X.X.X.X X.X.X.X.X.X.X.X+X.X.X.X.XOXOXOXOXoX.X.X.X",
".X.X.X.X.XOX.XOXOXOXOXOX.X.XOX.X.X.X.X.X%X+XOX.X.XOXOX.X.XOXOXOX.X.X.X.X.X+X.X.X.X.X.X.X.X.X.X.XOXOXOXOXOXOXOX.X.X.X.X.X.X.X.X.X.X.X.X.X.X.X+X.XOXOXOXOX.X.X.X.X"
};
