/* XPM */
static char *New_Project__10__resized[] = {
/* columns rows colors chars-per-pixel */
"80 80 256 2 ",
"   c #010100",
".  c #0B0904",
"X  c #151708",
"o  c #141212",
"O  c #271B0B",
"+  c #1A2A0F",
"@  c #272704",
"#  c #372703",
"$  c #373706",
"%  c #29361B",
"&  c #27300F",
"*  c #101B33",
"=  c #34382B",
"-  c #302C2C",
";  c #1B2022",
":  c #482901",
">  c #592F00",
",  c #583300",
"<  c #472F0D",
"1  c #653800",
"2  c #733E00",
"3  c #6C1E00",
"4  c #114F14",
"5  c #364916",
"6  c #187016",
"7  c #277118",
"8  c #3B532A",
"9  c #2F4B26",
"0  c #306D2F",
"q  c #1E6331",
"w  c #574700",
"e  c #5B5800",
"r  c #4A4807",
"t  c #7C4700",
"y  c #6B5601",
"u  c #6B6700",
"i  c #777300",
"p  c #475632",
"a  c #6B5B31",
"s  c #4C6834",
"d  c #5A7739",
"f  c #516533",
"g  c #6E742E",
"h  c #5D6000",
"j  c #1B344E",
"k  c #143B66",
"l  c #473F47",
"z  c #2E4758",
"x  c #14446C",
"c  c #2F506F",
"v  c #327A52",
"b  c #4F5053",
"n  c #625D4F",
"m  c #5B694A",
"M  c #66784A",
"N  c #6A6D51",
"B  c #696A68",
"V  c #717370",
"C  c #48637B",
"Z  c #D6372D",
"A  c #8A5800",
"S  c #935600",
"D  c #884E00",
"F  c #987800",
"G  c #8F6903",
"H  c #A96800",
"J  c #BA6B00",
"K  c #B46E00",
"L  c #B17404",
"P  c #A46116",
"I  c #CC7B00",
"U  c #CA7500",
"Y  c #D27C01",
"T  c #E77609",
"R  c #D04332",
"E  c #D54E1D",
"W  c #897A56",
"Q  c #F16167",
"!  c #2A9615",
"~  c #2BB114",
"^  c #198E25",
"/  c #289927",
"(  c #328E2C",
")  c #2AA72A",
"_  c #32B42A",
"`  c #1C8615",
"'  c #668539",
"]  c #77963C",
"[  c #7DA53D",
"{  c #499F3C",
"}  c #32C92D",
"|  c #4CC735",
" . c #678843",
".. c #779847",
"X. c #728C50",
"o. c #7DA447",
"O. c #6FB656",
"+. c #74B956",
"@. c #7CBB56",
"#. c #78BB58",
"$. c #69AD48",
"%. c #7B836E",
"&. c #519B42",
"*. c #7AC158",
"=. c #368849",
"-. c #959500",
";. c #8B8700",
":. c #AB8D03",
">. c #AAA800",
",. c #B5B500",
"<. c #AC8D36",
"1. c #98A835",
"2. c #C78601",
"3. c #D68300",
"4. c #DB8500",
"5. c #DD8A00",
"6. c #D08B00",
"7. c #DC9601",
"8. c #E48D00",
"9. c #E88A00",
"0. c #E39300",
"q. c #EB9200",
"w. c #E39C00",
"e. c #EA9B00",
"r. c #F39701",
"t. c #F49A00",
"y. c #FC9E00",
"u. c #F99502",
"i. c #F78810",
"p. c #D4AF00",
"a. c #EDA300",
"s. c #E8A900",
"d. c #FEA200",
"f. c #FEAB00",
"g. c #F4A700",
"h. c #E9B700",
"j. c #FEB300",
"k. c #FEBC00",
"l. c #F4B601",
"z. c #C3893B",
"x. c #C4C500",
"c. c #D4D500",
"v. c #FFC300",
"b. c #FECB00",
"n. c #F5C601",
"m. c #FED300",
"M. c #FEDA00",
"N. c #F4D400",
"B. c #F2C404",
"V. c #FEE300",
"C. c #FDED00",
"Z. c #F4E900",
"A. c #FEF400",
"S. c #FFFE00",
"D. c #FFDD2A",
"F. c #889451",
"G. c #AC8F51",
"H. c #84AA4A",
"J. c #8CB749",
"K. c #88A955",
"L. c #83BE56",
"P. c #8ABF56",
"I. c #85BE58",
"U. c #8CB754",
"Y. c #93BC55",
"T. c #93B452",
"R. c #90BC4B",
"E. c #8D8F71",
"W. c #B09C78",
"Q. c #95AF6F",
"!. c #BAA675",
"~. c #D5AF5D",
"^. c #8CC156",
"/. c #8CC158",
"(. c #87C358",
"). c #94C356",
"_. c #9AC457",
"`. c #9DC956",
"'. c #94C458",
"]. c #9BC558",
"[. c #9ECA5A",
"{. c #96CA5A",
"}. c #99CA56",
"|. c #A2CD5B",
" X c #A0C758",
".X c #A5D25D",
"XX c #A9D55E",
"oX c #AAD85E",
"OX c #B0CF62",
"+X c #98CB6B",
"@X c #FED778",
"#X c #F0C976",
"$X c #F5D867",
"%X c #2D5B90",
"&X c #376795",
"*X c #33658E",
"=X c #376DA4",
"-X c #3C74AB",
";X c #3571AE",
":X c #3459A4",
">X c #4379B1",
",X c #556E87",
"<X c #847C83",
"1X c #F86C89",
"2X c #0096BC",
"3X c #37A4BD",
"4X c #4580BB",
"5X c #629EA8",
"6X c #60D5AA",
"7X c #009EDC",
"8X c #05B2E5",
"9X c #2FB4CE",
"0X c #4886C5",
"qX c #00C9FF",
"wX c #05D0FF",
"eX c #1FE1FF",
"rX c #2FD2E0",
"tX c #51E4F3",
"yX c #62D8F2",
"uX c #979695",
"iX c #8E8E89",
"pX c #90A78F",
"aX c #B0AB94",
"sX c #9D9CA4",
"dX c #B8B7B9",
"fX c #AFACA9",
"gX c #9AA799",
"hX c #DAAB8F",
"jX c #F7D68D",
"kX c #FFE497",
"lX c #E3E58C",
"zX c #D4CAB6",
"xX c #F8D0B6",
"cX c #FFE6A3",
"vX c #FFF6B9",
"bX c #F9E6B9",
"nX c #BAB9C2",
"mX c #C0BDC4",
"MX c #B2EFFD",
"NX c #A1ECCD",
"BX c #C9C8CB",
"VX c #CDCCD1",
"CX c #D9D8DB",
"ZX c #D0D1D1",
"AX c #FFFACB",
"SX c #FFFFC7",
"DX c #FFF6D8",
"FX c #F4E7D8",
"GX c #DBDDE1",
"HX c #C0FDFF",
"JX c #E8E8E8",
"KX c #E8FFFF",
"LX c #FEFEFE",
"PX c #F5F4F7",
"IX c #F1ECF1",
"UX c #E0D4C4",
/* pixels */
"_._._._._.]._.].].].].].].].]._._._._._._._._._._._._.].].]._._._.]. XY._._._._._._._._._._._.].].].].].].]._._._._._._._._._.'._.]._.].].].].].].]._._._._._._.",
"_._._._.]._.]._.].].].].].]._._._._._._._._._._._._._._._.P.L._._._._.Y.|.|._._._._._._._._._.].].].].].].].]._._._._._._._._._.].].].].]._.].].].]._._.P.L._._.",
"_._._._.].]._._.]._.].]._.]._._._._._._._._._._._._.].'.+.L.L.#.^.|..XT.....Y. X_._._._._._._.].].].].]._._.]._._._._._._._._._.].].].].].].].].].]._.+.(.@.#.(.",
"_._._._._.].]._.].[./.].].]._._._._._._._.'._._._._.]._.#.'._.@.)._.s 4 6 4 5 Y._.)._._._._._._.].].].]._.[._._._._._._._._._._.'.].].].].].].].].]._.@.)._.L./.",
"_._._.].].].].]././.O.(./._.]._._._._._.]._._.].].].].].]._._._.[.5 4 / / ) ^ p .X)._._.].].].].].].].].].].]._.]._.].]._._._._.].].].].].].].].].]._._._._.]._.",
"_._.]._.].].]. X@.@.).^.#._.]._._.].].]._.].]._.].].].]._.[.'..X..4 ) / ( ) } 6 ' .X_._.].].].].].].].].].]._._._.]._.]._.]._._.].].].].].].].].].].[._._._._._.",
"_._._.].].].].].'.'. X).).].].].]._.].].].].].].].].].]._.]._..X..4 ) / ) ) _ } 9 `.].].].].].].].].].].].].].].].].].].].'._.].].].].].].].].].].].[._.].].].].",
"_._._._.].].].].].]._._.].].].].].].].].].].].].].].].]._._._._._.f 4 ^ / / ) } 7  ..X_.].].].].].].]._.].].].].].].].).).+.P.'.].].].].].].].].].]._._.].].].].",
"].].].].].].].].].].].].].].].].].].].].].].].].].].].].].]._._._.[.o.% 4 / ) _ ) s |.)._._.[.].].].].].].].].].]._. XL.#.P.P.O.].].].].].].].].].].].].].].].].",
"].].].].].].].].].].].].].].].].].].].].].].].].].].].].].]._._. X@.#.'.8 4 ^ _ ) 0 _.`._.`.^.L. X].].].].].].].]._.].'.P._.).^.].].].].].].].].].].].].].].].].",
"].].].].].].].].].].].].].].].].].].].]._.].].]._.].].].]._.'.[..X.X|.oX].% 6 ) ) 7  X_.Y.#.(.@.@.).].].].].].].].]._.].]._._._.].].].].].].].].].].].]._.].].].",
"_._._.]._._._.].].].].].].].].]._._._._._._._._._._._._.]..X.XP. .f 8 9 9 + 7 / _ 9 U.XX.X+.).].#.^.[.].].].].]._._._._._._._._._._._.].].].].].].].]._._._._._.",
"].].].].].].]._.].].].].].].].]._._.].]._._._._.]._._.XX].d % $ e ;.,.x.p.: 4 ^ ^ @ $ % d |.oX_._._._._.].].].].].]._.].].].].].].].].].].].].].].].].]._._.]._.",
"]._._._.]._.[._.]._.].].].].]._._._._.]._._.(.^.]..X`.m & r >.Z.S.S.S.S.A.7.e r r I N.,.w % d |.|._.].].].].].]._._._._._.]._._.].].].].].].].].].].].]._._._._.",
"_._.]._._._.@.'._.].].].].].].]._._._. X^.(.+.(.{. .+ e c.S.S.S.A.m.n.S.S.A.S.A.A.A.C.S.S.c.e % ...X_._.].].].]._._._._.]._.]._.].].].].].].].].].].].]._._._._.",
"_._._.].@.L.@.L.@.]._.].].]._._._._._._.P.+.{.{.9 @ x.S.V.m.A.V.j.f.V.S.k.N.S.S.S.S.m.A.S.S.S.,.@ d oX].].]._._._._._._._._._._._.].].].].].].].].].].]._._._._.",
"_._._.].I.P. XP.L.`._.]._.]._._._._._.]._. XT.+ u S.A.f.n.A.v.d.f.v.S.j.f.V.S.S.S.S.V.C.S.S.C.S.S.e 9  X/.'. X_._._._._._._._.'._.]._.].].].].]._.].].]._._._._.",
"_._._.'.].].].]. X]._.].]._._._._._.].Y.|.U.o -.S.b.y.k.A.k.d.j.f.C.b.f.j.M.S.S.S.S.A.b.A.S.A.M.V.S.u % *.(.(._._._._._._._._._._._._.].]._.].].].].].]._._._._.",
"_._._._._._.]._.]._.]._._.].]._._._.'.|.U.X ,.S.f.y.g.C.j.d.j.d.h.V.f.j.j.k.A.S.S.S.S.n.v.b.b.A.b.b.S.;.+ /.+._._._._._._._._._._.].].].]._.].'.].I.(.]._._._._.",
"_._._._._.].].].].].'._.].].]._._._.].Y.. ,.S.d.f.q.Z.k.d.f.f.g.N.k.d.j.k.j.M.S.S.S.S.N.j.b.k.m.A.k.b.S.i 9 .X)._._._._._._._._._.]._.].]._.[.'.@.@.L.@.)._._._.",
"_._._._._.]._.].).).+.^.'._._._.].].[.& -.A.t.f.q.B.v.y.f.f.f.a.m.d.f.j.j.k.k.M.S.S.A.N.s.b.v.v.V.N.k.b.S.u f oX_.]._._._._._._._._.].].]._._.'.@._._.#.)._._._.",
"_._._._._._._. X@.#.^.L.O._._._.Y.oX8 u S.y.d.y.w.m.y.f.f.f.t.s.v.d.f.j.j.k.v.v.m.M.v.M.s.v.b.v.v.M.s.v.b.S.@  ..XY._._._._._._._.]._.].]._.].[._.].]. X_._._._.",
"_._._._.].].].].'.'. X'./._._._..XX.@ C.d.d.d.8.n.f.d.d.d.f.q.h.j.d.f.j.j.k.v.v.b.v.v.M.h.l.m.v.v.m.B.g.v.M.c.& Y.]._._._._._._._._.].].]._.].].].].].]._._._._.",
"_._._._.].].].].].[.].].]._._._.[.+ x.v.t.d.q.w.v.y.d.d.f.f.7.n.d.f.f.j.k.k.k.v.v.b.v.b.B.a.b.v.v.k.V.7.v.k.A.-.8 oXY._._._._.'._.]._.].]._.].].].].].]._._._._.",
"_._._._.].]._._._.].].]._.]._.XXd h C.y.d.d.4.h.d.d.d.d.f.t.s.k.y.f.f.j.j.k.k.v.b.v.v.v.n.0.b.v.v.k.m.h.a.v.v.A.$ H. X_._._._._._._._.].].].].].].].].]._._._._.",
"_._._._.].].].].].].].]._._._.].& p.f.y.d.9.5.k.y.d.d.d.f.9.a.d.d.d.f.j.j.k.k.v.v.v.v.v.b.0.v.v.v.k.v.n.5.v.j.M.>.% .X_._._.].[._._.].].].].]._.].].].].].].].].",
"_._._._.].].].].].].].]._._.oXd r b.u.d.y.4.s.f.y.d.d.f.f.8.g.d.d.f.f.j.j.k.v.v.v.v.v.k.n.7.j.v.v.k.k.b.7.g.v.k.V.r ..|._._.'.L._.].].].].].].].].].].].].]._._.",
"].].]._.]._.].].].].].]._._.oX9 :.j.y.d.r.4.l.d.d.d.d.d.g.5.g.y.d.f.f.j.j.k.k.k.v.v.k.k.v.0.g.b.k.v.k.v.s.8.v.j.M.>.8 .X_.@.L.#.L.P. X].].].].].].].].]._.].].].",
"_._._._._._.].].].].].]._.[.Y.& h.y.y.d.8.5.f.y.y.d.d.d.t.5.f.y.d.f.f.j.j.k.k.k.k.v.k.k.v.7.e.v.k.v.k.k.h.4.j.v.k.N.$ P. X@.P._.@.(.].].].].].].].].].]._._._._.",
"].].].].].]._.].].].].].].|...e k.y.d.y.4.0.d.y.d.y.d.f.q.5.d.d.d.d.f.f.j.j.k.k.v.k.k.k.k.w.q.v.k.k.k.j.b.5.a.k.j.M.u ' XX)._._._._.].].].].].].].].].].].].].].",
"].].]. XP./. X]._._.].]._.XXM y j.y.d.t.3.0.d.y.y.d.d.d.0.0.d.y.d.f.f.j.j.j.j.b.B.l.k.j.k.a.8.k.k.k.k.j.k.0.0.k.j.v.:.9 oX_._._.].].].].]. X'.L._.].].].].].].].",
"_.].'.@.@.L.L.'.[._.].]._.XXs G f.y.d.q.4.q.d.d.d.y.y.d.5.8.d.d.d.d.f.f.j.j.v.h.H e.v.j.k.w.5.k.k.k.k.j.k.w.4.k.k.k.B.& Y._._._._._.].].].L.L.#.(.I.].]._._._._.",
"].].^.#.'.).#.).].].].].'.XXs D f.y.d.q.4.q.d.d.d.y.d.d.5.9.d.d.d.d.f.f.j.j.b.@ 1 5.j.j.k.e.5.j.k.k.j.j.j.a.5.h.s.j.b.$ o.|._._._.].]._.[.#.(.].L.#. X].]._.].].",
"].]._.'._.]._._.].].].].).XXs t f.y.y.q.3.r.d.y.y.d.y.y.4.9.d.y.d.d.f.f.f.k.:.* # K a.j.j.e.4.j.j.j.j.j.j.a.7.G 0.j.b.e  .XX_._.].].].].].].]. X]._.].].].].].].",
"].]._.]._._._._.].].].]._..Xd t y.y.y.q.3.r.d.y.d.y.d.y.4.q.d.y.d.d.d.f.j.D.KXLXJXL 3.j.j.0.4.j.k.j.j.k.j.j.w . 5.f.v.G d XX_._.].].].].].].].].].].].]._.]._._.",
"].]._._._.[.]._.].].].]._.|...: q.t.d.q.3.q.d.d.y.d.d.d.4.8.d.d.d.d.f.d.v.NXyXLXLXhXJ j.j.q.5.j.j.j.j.j.f.k.W n L g.v.F s XX'._.].].].].].].].].].].].]._._._._.",
"]._._._._.]._.].].].].].].].'.& U 9.d.t.3.8.d.y.d.y.d.y.4.9.y.d.y.d.d.j.@XwXeXLXLXyXH q.j.8.5.f.j.j.j.j.f.$XKXLXz.0.v.A s .X'.'._.]._.].]._.].].].].].]._._._._.",
"_._._._.]._.]._.].].].]._._.XX8 t q.q.y.4.8.y.d.y.d.d.y.4.8.d.d.d.d.f.7.gXeX8X3X3XqXE.Y j.5.5.j.j.f.f.f.b.tXMXLXaXI k.D s |._._._.].].].].].].].].].]._._._._._.",
"_._._._.].].]._.].].].].]._. XH.O 3.4.q.8.4.t.d.d.y.y.d.8.4.T T u.d.n.X j HXtX7X8X8X< J e.8.8.j.f.j.f.j.lXqXyXHX3XY f.1 0 (.P.).].]._.].]._.].].].].].]._._._._.",
"_._._._._.]._._.].]._.L._._._.XXs 1 r.3.8.4.q.k.v.d.y.d.i.Q IXhXR T d.:.F OX6X6XrX9 . G 3.4.q.j.f.f.j.7.pXtX2X2X9XU 0.# o.{.O.).].]._.].].].].].].].].]._._._._.",
"_._._._._._._._. XL.L.+.(.L. X_.[.% t r.3.4.4.f.m.k.y.d.9.R 1X1XQ Z E d.f.j.j.j.f.g.h.s.s.3.e.f.f.d.v.u = MXqXqXx 1 K O )._.^._._._._.].]._.].].].]._._._._._._.",
"_._._._._._._._._.@.^.].I.I._._.`.Y.+ D r.5.3.8.j.f.y.d.y.U E Z Z Z E d.s.L 2.e.d.d.f.j.t.0.f.j.j.f.f.s.:.<.+X]., G A 8 .X)._._._.].].].].].].].]._._._._._._._.",
"_._._._._.]._._._._._.].]._._._._. X_.% > 4.8.4.4.r.d.y.d.q.3.9.T 9.y.y.k.$   H f.v.F : 1 t H 2.6.e.g.d.q.q.y.i.xXQ Z <.[._._._._._._.].]._.].].].]._._._._._._.",
"_._.)._.].]._._.].].]._.].].]._._.).`. X8 # H q.q.4.9.y.d.y.4.8.d.d.y.y.d.p.@ # S :.5             # 0.d.s.t :.E 1XQ Z <.{._._._._.].].]._.].].].].]._._._._._._.",
"_._._._._.]._.].].].].].].].]._._._._._.XX..% : H 8.9.8.9.t.q.4.8.y.d.y.y.d.h.$       .   .   .   X D S :., 2.8.3 P <.'._._._._.].].].].]._.].].]._._._._._._._.",
"_._._.].].].]._.].].].].].].].].].]._._.Y.|..X .& # S I q.q.9.5.3.5.t.d.d.d.d.v.:.@                   . A e.3.: % {.{._._._._._.].].].].].].].].]._.#.(.'._._.].",
"_._._.].].].].].].].].].].].].].]._._._._._._..X[...p & , D J 4.q.q.9.9.r.r.q.9.t.w.:.G w @ @ @ $ y L 7.6.t O s +X]._._._._._._.].].].].].]._. X(.#.L.L.+._.]._.",
"].].].].].].].].].].].].].].].].].].]._._._._._.|.Y.F.P.0 * ; @ : 2 H U U 4.8.9.9.9.y.d.d.g.a.e.5.I S : X p P.oX'._.[.].].].].].].].].].].]._._.^.^. X).I.].].].",
"_._._._.]._.].].].]._._.].]._._._._._._._._.`.`...{ { | ~ c &X` 6 6 + * + # # , , , 1 , , , , # # % 8  .#.|. X)._._._._._._._._.].]._.@._.[.].].]. X].].].].]._.",
"].].].]._._.].].]._._.].].].]._.].].].]._.].`.f 4 } ~ _ ~ q &X| | | ( :X=._  ... . . . . . ...K.P.|.{.{.@.L.#._.]._._.].]._._._.`.@.L.@.L.L.]._.].].].].].].]._.",
"].].].].].].].'.'.#.I.'._.].].].].].].].].]./.M m 7 ! ! ~ q *X! ) _ ( :Xv |  .).oX.X.X.X.X.X|. X[.].(.#.].).#._.[._.].].].].].]. X@.^._.(.@.].].].].].].].].].].",
"].]._.]._._. XI.#.(.I.+.].].].].]._._.]./.{.$.aXAXhX7 ! 4 z *X~ ~ ~ 6 =Xv ~ &.T.].)._._.).'._._._._._.`.]._.].[._._._._.].]._.]._._._._._._._.].].].].].]._.].].",
"_._._.]._.].].'./. X_.(._.]._._._.].'. X(.+.Q.bXkXjXa 4 + x C ` ! ! 0 :Xz 7 8 T.[._.`._.].].].]._.].].].].]._.]._._._._._.]._._.]._.].].].].].].].].].]._._.]._.",
"].].].].].].].].].].].].].].].].].].].].`.L.zXbXjX~.b z x V C &X>X>Xc iXn E.5 R.[.]._._.].].].].].].].].]._.].].]._._.[.].].].].].].].].].].].].].].].].].].].].",
"]._.].]._.].].].].].].].].].].].]._._._.`.F.FXvXkXD.z :X*Xb c ;X>X=Xc c B AXQ.U.[._._._.].].].].].].].].].].].]._.]._._._._.].].].].].].].].].].].].].].].].]._.",
"_.]._._.]._.].].].].].].].].]._._.]._._.[.o.aXaX!.<.c &X-X=Xc =X>X=X&X;XuXAXFXK.[._._._.].].].].].].].].].].].]._._._._._.]._./._.]._.].].].].].].[.].]._._._._.",
"_._._._._._._._.].].].].].].]._._._._._. X .sXJXGXiXk *X=X>X%X>X>X4X&Xc @XcXzXB [  XY.].].].].].].].].].].].]._._._._._._.(.L.+.^.(.].].].].].].].].]._._._._._.",
"_._._._.].].].].].].].].].].]._._._._.].).E.LXLXLXJXb %X=X%Xj &X&X&X%Xz G.W.dXVXE.T..XY.].].].].].].].].].]._._._._._._._.+.P.'.#.L. X].].].].].].].]._._._._.'.",
"_._._._._.]._.].].].].].].]._._._._._.].R.E.LXZXdXZXc x =X>Xc j %Xc k -Xc GXLXLXJXf J._.].].].].].].].].].].]._._._._._._.).)._.'.'.].]._._.].].].]._._._._._._.",
"_._._._._.]._._.].].].].].].]._._._._.).`...uX!.!.fXGXfX,X>X0Xc j c =X0X&XdXIXGXiX!.m `.Y.'.].].].].].].].].]._._._._._._._._._._._.].].].].].].].]._._._._._._.",
"_._._._.].]._._.].].].].].]._._._._._._.`.X.!.cXhXfXJXFX5X&X>X>Xj %X>X>X4XV CXCXW jXn 1.#.I.^._.].].].].].]._._._._._._._._._._._.]._.].].].].].].].].]._._._._.",
"_._._._.].]._._.].].].].].].]._._._._._.}.E.dXfXZXPXdXm n %X>X=X* c >X:X*Xj dXKXdXW ,XuXP./.O.[.].].].].]._._._._._._._._._._._._.].].].].].].].].].]._._._._._.",
"_._._._._.].[.'._.].].].].]._._._._._._.}.K.LXLXPXJXBXE.~.k z N = j x n E.% sXLXnXE.kXE.H.[.'.].].].].]._._._._._._._._._._._._._._._.].].].].].].].].]._._._._.",
"_._._._._.).^.O.'.'.].].].].]._._._._._. XX.mXCXCXdXmXIX= & z.vXiXo w #XAX%.K.iXW W.G.M T.].].].].].].]._._._._._._._.)._._._._._.].].].].].].].].].]._._._._._.",
"_._._._.].+.L.(.@.@. X].].].].]._._._._.].Y.X.B B %.M b a $XjXcXE.' <.kXAXQ.H.W W jXn o.|._._.].].].].].].]._._._._._._._._._._._.].].].].].].].].].].]._._._._.",
"_._.]._.]./.). X/./.].].].].].].].].]._._.]._.J.H.' g P @XcXAXFXT.H.z.vXDXpXH.~.W.f H.[._.].].].].]._.].].]._.].].].].].]._.].].]._.].].]._.].].].].].]._._.].].",
"_._._._.].].].].].[.].].].].].].]._._.].).|.F.X.5 uXiX#XvXAXzXE._.] ~.vXUXF.|.H.F.).|._._.].].].].].].].].].].].]._._._._.]._.]._.].].].].].].].]._.@./._._._._.",
"_._._.].].].].].].].].].].].].].].]._._.oX..<X<X- l V aXDXiX..{.|.g @XAXfXH. X`.}._._._.].].].].].].].].].].].].].].].].].].].].].].].].].].].].L.#.L.I.+._._.].",
"_.].].].].].].].].].].].].].].].].].]. Xd X b = O - ; ; M J.|.[.K.a G.bXaXJ.[.'.`._.].].].].].].].].].].].].].].].]._.].].].].].].].].].].].].]./.(.].'.@._.].].",
"].].].].].].].].].].].].].].]._._._.|.d B B   = V dXGXdXn ..|.`.N PXCXuXN ). X.X_._.].].]._._._._.].].].].].].].].].].].]._._.].].].].].].].].].].]._.].]._.].].",
"].].].].].].].].].].].].].]._._._._. XH.N VXuXV GXIXJXLXLXB H..Xf n V b - M M ' _.[._.].].[._._.].].].].].].].].].].].].].].].]._.]. X].].].].].].].].].].].].].",
"_.].].].].].].].].].].].]._._._._.].].|.Y.f nXnXB BXPXPXLXCX' ..l - ; b VXPXIXfXf ).].]._.).(.#._._.].].].].]._.]._.].]._.].].].].].'.].].].].].].].].].].].]._.",
"_._._.]._._.].].].].].].]. X]._._._._._.].[.d iXBXV dXLXLXLXp E.<X; b IXPXLXLXLXmXm |._.).+.I.(.#.(. X_.].].].]._._._._._._._.].'.).+.^.).[._.].].].]._._.]._.].",
"].].].].].].].].].].].]._.(.'. X]._._._.]._.oX] B GXE.uXPXPXb - - ; mXIXIXPXLXLXLXE.[ |.).L._.].L.).]._._.].].].].].].].]._.].].#.@.^.I.O.]._.].].].].].].].].].",
"_._._._.].].].].]._.].'.(.+.L.L.'.]._._.]._.Y.XXH.m BXdXiXdX% ; ; l iXiXuXsXsXaXdXB ' XX_._._.].].].].].].].].]._._.]._._._._._.^.'._._.'.]._.[.].].].].].]._._.",
"_._._._.].].].].].].].P.#._./.+._.]._._._._._.'. X`.f dXBX= p fXVXVXnXmXdXdXdXBXVXiXf |._._.].].].].].].].].].]._._._._._._._._._.]._._.]._._.].].].].]._._._._.",
"_._._._.].].]._.].].].]._._._._._._._._._._._._._.[.[.' B M H.M M M X.X.X.E.%.E.iXB ' .X_._._.].].].].].].]._._._._._._._._._._._.].].]._._.].].].].].].[._._._.",
"_._.].].].].]._.].].].].]._._._._._._._._._._._._._.]..X..Y.|.|.`.`._._.}.).R.J.J.R.`._._.]._.].].].].].].].].]._._._._._._._._._.].].].]._.].].].].].]._._._._.",
"_._._.]._._.].]._.].].]._.]._._.'._._._._._._._._._._._. X_.`._._._._._.)._.].[.]._.)._._._._.].].].].].].].]._._._._._.'._._._._.]._.].].].].].]._.]._._._._._.",
"_._._.Y.].]._._.].].].].]._._._._._._._._._._._._.]._._._._._.`._._._._._._._._._._._._._._._._.].].].].].].]._._._._._._._._._._._._.].]._.].].].].]._._._._._."
};
