/* XPM */
static char *New_Project__18__resized[] = {
/* columns rows colors chars-per-pixel */
"80 80 255 2 ",
"   c #010100",
".  c #0A0903",
"X  c #1A1A05",
"o  c #181318",
"O  c #2C1B07",
"+  c #19270B",
"@  c #113A0E",
"#  c #142C13",
"$  c #282605",
"%  c #382604",
"&  c #383803",
"*  c #293619",
"=  c #2A3112",
"-  c #373437",
";  c #30282B",
":  c #0F1E27",
">  c #482B02",
",  c #493902",
"<  c #563500",
"1  c #663900",
"2  c #723F00",
"3  c #114911",
"4  c #2D481A",
"5  c #187017",
"6  c #364925",
"7  c #3B5629",
"8  c #38552F",
"9  c #167A22",
"0  c #23672F",
"q  c #1C592A",
"w  c #474700",
"e  c #555400",
"r  c #595400",
"t  c #574B06",
"y  c #764400",
"u  c #6F5401",
"i  c #726900",
"p  c #6E6C06",
"a  c #43592A",
"s  c #4D592F",
"d  c #4B6735",
"f  c #556D38",
"g  c #59773B",
"h  c #516B2D",
"j  c #647B39",
"k  c #7E753C",
"l  c #695A24",
"z  c #233852",
"x  c #433C44",
"c  c #2E4C52",
"v  c #2E6C4E",
"b  c #1D4269",
"n  c #2C5075",
"m  c #3A6C6F",
"M  c #4D4F4B",
"N  c #5C6E45",
"B  c #647844",
"V  c #6D7354",
"C  c #50596B",
"Z  c #737271",
"A  c #CE3425",
"S  c #8B5600",
"D  c #955500",
"F  c #8A4B00",
"G  c #A25C00",
"H  c #867600",
"J  c #926301",
"K  c #AA6400",
"L  c #BC7700",
"P  c #B36E05",
"I  c #8F7230",
"U  c #AC6B26",
"Y  c #D55310",
"T  c #C57400",
"R  c #C87A00",
"E  c #D97C02",
"W  c #D06C06",
"Q  c #D55429",
"!  c #E7691B",
"~  c #897C69",
"^  c #E64751",
"/  c #E84E5B",
"(  c #E23D4F",
")  c #249312",
"_  c #2DAD15",
"`  c #1E8F22",
"'  c #279927",
"]  c #288928",
"[  c #2AA82B",
"{  c #32B52B",
"}  c #1C870D",
"|  c #568537",
" . c #68863A",
".. c #75943C",
"X. c #44BA31",
"o. c #7CA33E",
"O. c #34C62F",
"+. c #55894A",
"@. c #688744",
"#. c #769A48",
"$. c #708C4E",
"%. c #7DA548",
"&. c #6FB755",
"*. c #74B956",
"=. c #7CBB56",
"-. c #77BA57",
";. c #77B04B",
":. c #7A8767",
">. c #48AA41",
",. c #77CA50",
"<. c #898700",
"1. c #9A8F00",
"2. c #A98B00",
"3. c #A29102",
"4. c #ACA500",
"5. c #B4B200",
"6. c #938C36",
"7. c #CB8700",
"8. c #D58300",
"9. c #DA8500",
"0. c #DD8A00",
"q. c #D48900",
"w. c #DD9400",
"e. c #D29901",
"r. c #C1960A",
"t. c #E48C00",
"y. c #E98D01",
"u. c #F28A00",
"i. c #E49300",
"p. c #EC9301",
"a. c #E89B01",
"s. c #F29500",
"d. c #F49A00",
"f. c #FC9D00",
"g. c #FB9500",
"h. c #DAA500",
"j. c #DAB701",
"k. c #C8A30E",
"l. c #ECAB00",
"z. c #E8A500",
"x. c #F4A400",
"c. c #FEA200",
"v. c #F4AB00",
"b. c #FEAB00",
"n. c #EBB700",
"m. c #FEB400",
"M. c #FEBC00",
"N. c #F4B701",
"B. c #D7CB00",
"V. c #DBD800",
"C. c #FFC300",
"Z. c #FECB00",
"A. c #F4CA00",
"S. c #FED300",
"D. c #FEDB00",
"F. c #F7D304",
"G. c #EDCF00",
"H. c #E6E700",
"J. c #FEE400",
"K. c #FEEB00",
"L. c #FEF300",
"P. c #FFFE00",
"I. c #F4F300",
"U. c #EAD122",
"Y. c #89934B",
"T. c #83A949",
"R. c #92BD4C",
"E. c #83BE56",
"W. c #8ABE56",
"Q. c #84BE58",
"!. c #8BB754",
"~. c #93BD55",
"^. c #93B651",
"/. c #8AB44A",
"(. c #898E75",
"). c #AC9E5D",
"_. c #CFB46F",
"`. c #DEAC5D",
"'. c #8CC157",
"]. c #8CC158",
"[. c #86C359",
"{. c #94C356",
"}. c #9AC457",
"|. c #94C458",
" X c #9BC558",
".X c #9ECA5A",
"XX c #9BCB57",
"oX c #96C955",
"OX c #A2CD5B",
"+X c #A0C757",
"@X c #A5D15C",
"#X c #A9D55E",
"$X c #A9D95E",
"%X c #A8D562",
"&X c #B0E967",
"*X c #FDD15C",
"=X c #FFD577",
"-X c #E9D350",
";X c #336C92",
":X c #376CA8",
">X c #2A518F",
",X c #4E6884",
"<X c #437AB7",
"1X c #6A7789",
"2X c #807E83",
"3X c #018BB4",
"4X c #20A5B0",
"5X c #03B6E9",
"6X c #2CACCB",
"7X c #4381C4",
"8X c #7DBECC",
"9X c #00C6FF",
"0X c #00C2F4",
"qX c #00D0FF",
"wX c #2BD0E9",
"eX c #44DBFF",
"rX c #52E6FF",
"tX c #6ED2FF",
"yX c #5BBAB8",
"uX c #8B8A89",
"iX c #979796",
"pX c #90918B",
"aX c #A39D8C",
"sX c #A9A693",
"dX c #9498A6",
"fX c #A8A8A8",
"gX c #B8B7B9",
"hX c #B4B1B3",
"jX c #95A289",
"kX c #DFAD9D",
"lX c #ECD28E",
"zX c #FFE99C",
"xX c #FFE59F",
"cX c #FFE28B",
"vX c #FFF1A7",
"bX c #FFEDB3",
"nX c #ECD6B7",
"mX c #BDBAC1",
"MX c #FFB0CC",
"NX c #C0BFC1",
"BX c #81EEFF",
"VX c #9CE3E4",
"CX c #C7C8C9",
"ZX c #D9D8D9",
"AX c #D6D1CC",
"SX c #E1D9D1",
"DX c #FFF6C9",
"FX c #FFF5D6",
"GX c #FDEECD",
"HX c #D6D8E1",
"JX c #CEF5F8",
"KX c #FEFEFE",
"LX c #F4F4F7",
"PX c #EAECEC",
"IX c #95E1AE",
/* pixels */
"}.}.}.}.}. X}.}. X X X X X X}.}.}.}.}.}.}.}.}.}.}. X X X}.}.+X}. X}.}.}.}.}.}.}.}.}.}.}.}.}. X X X X X X X X}. X}.}.}.}.}.}.}.}.}. X}. X X X X X X X}.}.}.}.}.}.",
"}.}.}.}. X}. X}. X X}.}. X X}.}.}.}.}.}.}.}.}.}.}.}. X}.}.E.E.}.}.}.}.+X}.}.}.}.}.}.}.}.}. X}. X X X X X X X X}. X~.}.}.}.}.}.}.|. X}. X X X X X X X}.}.W.E.}.}.",
"}.}.}.}.}.}.}.}. X X X X}. X}.}.}.}.}.}.}.}.}.}. X X X|.-.E.=.-.'.#X}./. X+X~.}.}.}.}.}.}.}.}. X X X X X X X}.}. X}.}.}.}.}.}.}. X X X X X X X X}.}.}.-.E.=.=.].",
"}.}.}.}.}.}.}.}. X.XW..X X X}.}.}.}.}.}.|.}.}.}. X X X|.=.{.}.[.!.h 4 q 4 T.+X}.}.}.}.}.}. X}. X X X X X X X X|. X}.}.}.}. X~.}. X X X X X}. X X}.}.XX-.{..X=.].",
"}.}.}. X X X}..X].].&.].W. X X X}. X}.}. X}. X}. X X X X X}.XX^.* 5 ` ' ' 3 ^.OX}.}.}.}.}.}..X}. X X X X X X X X}.}.}.}.}. X X X X X X X X X X X X X}..X}.}.}.}.",
"}.}. X}. X X}..X=.=.{.Q.-. X X}.}.}. X X X X}. X X X X X}.}.#Xa 5 [ ' ` O.' 7 OX|. X}.}.}.}.}.XX X X X X X X X X}.}.}.}.}. X X}. X X X X X X X X X X}..X}.}.}.}.",
"}.}.}. X X X X.X|.|. X}.{. X.X}. X X X X X}. X X X X X X}.}.OX6 ` ' [ [ { O.5  .@X X}.}.}..X X X X X X X X X X X}.}.}..X.X}.}. X X X X X X X X X X X X X}. X.X}.",
"}.}.}.}. X X X X X.X}.}.}. X X}. X X X X X X X X X X X X X}.OX .@ ` [ ' [ { { 6 +X}.}.}.}.}.}.}. X X X X X X X X}..X}.{.~.&.W.|. X X X X X X X X X X X X}.}.}.}.",
" X X X X X X X X X}. X}. X}.}. X}.}. X X X X X X X X X X.X}.}..X#.6 3 ] ' { O.5 Y.OX}. X X}. X}.}.}. X X X X X X}.}. XQ.-.W.E.&. X X X X X X X X X X X X X X X X",
" X X X X X X X X X X X X.X}. X X}.}. X X X X X X X X X X}.}.}.}.OX].8 @ 9 [ O.` j @X}. X X X'.'..X.X.X X X X X X X X X|.W.+X{.W. X X X X X X X X X X X X X X X X",
" X X X X X X X X X X X X X X X}.}..X}.}. X X X}. X X}. X}.}.}.XXOXXX&X@.3 ] { ` f @X~.}.{.=.E.=.=.~. X X X X X X X X X X}.}..X.X X X X X X X X X X X X X X X}.}.",
"}.}.}.}. X X X X X X X X X X X}.}.}.}.}.}.}.}.}.}.}.}.}.}.#X@X~.#.@.f a @ ` [ ] h @X%XOX{.-.{.oX=.W. X X X X X X}.}.}.}.}.}.}.}.}.}. X X X X X X X X X}.}.}.}.}.",
" X X X X X X X X X X X X X X X X.X}.}.}. X X.X X X}..X#X{.B 6 = w r H J # 9 [ 9 O * d %.#XOX}.}.}.}.}.}. X X X X X X X X}.}.}.}. X X X X X X X X X X X X}.}.}.}.",
"}.}.}.}. X X X X X X X X X X X}.}.}.}.}. X XE.W.}.%XW.s $ e 4.H.P.P.P.S.i = 3 , 8.B.<.& * #.#XOX}.}. X X X X X X}. X}.}.}.}.}.}. X X X X X X X X X X X X}.}.}.}.",
" X X X X X}.=.|. X X X X X X X X}.}.}.+XW.E.-.].[.f + i H.P.P.P.L.D.P.P.P.K.G.K.K.P.P.P.5., 6 !.#X}.}. X X X X X X}.}.}.}.}.}.}. X X X X X X X X X X X X}.}.}.}.",
" X X~..X=.=.=.E.=. X X X}. X}.}.}.}.}. XW.-.@X;.# e H.P.J.P.L.Z.b.J.P.C.D.P.P.P.K.S.P.P.P.P.1.+ B %X X}. X X}.}.}.}.}.}.}.}.}.}.}. X X X X X X X X X X X}.}.}.}.",
" X}.}.}.E.W.+XW.E. X}.}.}.}.}.}.}.}.}.}.}.#X .X 4.P.J.M.L.D.b.b.Z.P.C.b.K.P.P.P.P.D.P.P.P.K.P.H.w 8 OX+X].{.XX}.}.}.}.}.}.}.}.}.}.}.}. X X}.}.}.}.}.}.}.}.}.}.}.",
"}.}.}.}. X X X X+X X}..X}.}.}.}.}.}.}.}.#Xd $ V.P.m.c.L.S.b.b.b.K.S.b.b.J.P.P.P.P.K.Z.P.P.P.F.J.P.i * |.-.E.].}.}.}.}.}.{.}.}.}.}. X X X X X}..X.X X X X}.}.}.}.",
"}.}.}.}.}.}.}.}. X X.X}.}.}.}.}.}.}.~.#Xs & P.K.b.d.K.Z.f.m.b.N.J.b.m.m.Z.P.P.P.P.P.N.Z.Z.Z.P.Z.S.P.<.# |.].*.|.}.}.}.}.}.}.}.}.}.}.}. X X}. X|..XQ.W. X}.}.}.}.",
"}.}.}.}.}.}. X X X X|.}..X}.}.}.}.~.#Xf & P.S.c.g.G.S.f.b.b.d.F.Z.c.m.m.M.K.P.P.P.P.A.m.Z.M.S.K.M.Z.P.<.* @X{.}.}.}.}.}.}.}.}.}.}. X X X X}..X~.=.=.E.-.{.}.}.}.",
"}.}.}.}.}. X}. X|.|.*.'.{.}.}.}.}.@X@.$ I.S.f.c.l.D.c.b.b.b.a.F.b.b.m.m.M.M.K.P.P.L.D.l.Z.Z.M.D.A.M.Z.P.i 6 %X}.}.}.}.}.}.}.}.}.}.}.}. X X X X{.=.}.}.-.~. X}.}.",
"}.}.}.}.}. X}.+X=.=.'.E.&.}.}.}.XX/.+ V.S.g.b.t.F.b.c.b.b.b.l.Z.c.b.m.M.M.M.Z.D.J.Z.D.l.C.Z.Z.C.J.l.M.Z.P.w g %X~.}.}.}.}.}.}.|.}. X X X X X X X}..X.X}.}.}.}.}.",
"}.~.}.}.}. X X.X~.].+X{.].}.}.}.@X* 1.L.g.b.p.l.Z.f.b.c.b.p.n.m.c.b.m.m.M.C.C.C.Z.M.S.l.N.Z.Z.M.S.G.x.Z.S.I.$ T.+X}.}.}.}.}.}.}.}.}.}. X X}. X X X X X}.}.}.}.}.",
" X X}.}.}. X}.}. X.X}. X.X}.|.#Xg w L.g.c.c.0.A.c.c.c.b.b.i.A.c.b.b.m.m.M.M.C.Z.Z.C.Z.A.x.Z.C.C.M.D.w.C.M.K.5.* OX}.}.}.}.}.}.}.}. X X X X X X X X X X X}.}.}.}.",
" X X}. X}. X}.}. X X X X X}. X}.+ B.m.g.b.t.z.M.f.c.c.b.c.w.M.c.b.b.m.m.M.C.C.Z.C.C.C.A.i.Z.C.C.M.S.n.a.Z.m.P.e g #X}.}.}.}.}.}. X X}. X X}. X X X X X X}.}.}.}.",
" X X}. X}.}. X X X X X X}.}.%Xf i D.g.c.f.8.N.c.c.c.c.b.a.a.m.f.b.b.m.m.M.M.M.C.Z.C.M.Z.w.M.Z.C.C.M.F.0.M.M.Z.V.= }.}..X}.}. X.X}.}. X X X X X X X X X X X X}. X",
"}.}.}. X.X}.}.}. X X X X}.}.|.= B.b.c.c.y.w.m.f.c.c.b.b.t.z.b.c.b.b.m.m.M.M.C.C.C.C.M.Z.i.v.Z.M.M.M.Z.z.i.Z.m.K.p f $X|.}.}.{.E.}..X X X X X X X X X X X X}.}.}.",
" X X}. X}.}.}..X X X X X|.OX#.w Z.g.c.f.9.z.b.f.c.c.c.c.0.v.c.c.b.b.b.m.M.M.M.C.C.M.M.Z.a.z.Z.M.M.M.C.N.9.M.M.C.B.= }.}. X=.E.-.E.Q.+X}. X X X X X X X X}. X}. X",
"}.}.}.}.}.}. X}. X X X X~.%X7 1.m.g.c.s.8.v.c.f.c.c.c.b.8.v.c.c.b.b.m.m.m.M.M.M.M.C.M.M.z.i.Z.M.M.M.M.C.9.x.C.m.J.e @.#X}.=.W.}.=.Q.+X}.}..X}..X X X X X}.}.}.}.",
" X X}.}..X}.}.}. X X X X XOX* h.c.c.c.t.8.b.f.c.c.c.c.x.8.b.f.c.c.b.b.m.M.M.M.C.C.M.M.M.z.t.M.M.M.M.m.C.i.i.M.M.Z.4.6 %X}.}.}. X}.}. X X}.}.}. X X X X X X X}. X",
" X X X.XW.].+X.X X X X X+X!.= b.f.c.f.t.0.b.f.c.c.c.c.d.0.b.f.c.c.b.b.m.m.M.M.Z.N.M.M.M.l.9.M.M.M.M.m.C.z.9.m.M.m.A.& W.XX}.}.}. X X X X}..X}.E.}. X X X X X X X",
"}. X~.E.=.=.E.|. X X X XOX%.w b.f.c.f.9.i.b.f.f.c.f.c.p.0.c.f.c.c.b.b.m.m.m.Z.2.q.M.m.m.v.9.m.M.M.m.m.M.l.8.v.M.m.S.e $.OX}.}.}.}.}.}.}. XE.E.-.Q.Q..X}.}.}.}.}.",
"}. XW.-.}.~.&.{. X X X}.XX#.< b.f.c.d.9.i.c.f.c.f.c.c.y.0.c.f.c.b.b.b.m.b.Z.1.> 7.v.m.m.x.9.m.M.M.m.m.M.v.8.z.w.m.C.H f #X}.}.}. X X X X.X=.Q..XQ.=. X X X X X X",
" X.X}.|..X X X}. X X X}.OX#., c.c.c.d.8.y.c.f.c.c.c.c.i.0.f.c.c.c.c.b.b.m.j.X   G z.M.m.x.9.x.M.m.m.m.m.v.w.i L m.M.2.6 #X~.+X}. X X X X}.}. X X X}. X X X X X X",
" X X}..X}.}. X X X X X}.OX%.% g.c.c.d.8.t.c.c.f.c.f.c.t.9.f.c.f.c.c.b.b.A.cXHXCXU R m.m.x.8.x.M.m.m.m.m.m.2.  D v.M.e.6 OX}. X X X X X X X}. X X X X X X X X X.X",
"}.}.}.}.}.}. X}. X X X X X!.% t.c.f.g.8.t.c.f.c.f.c.c.t.0.f.c.f.c.b.b.b.-XtXLXKXFXP a.m.d.8.v.m.b.m.m.b.M._.dXU t.M.z.4 .X}.}.}. X X X X X X X X X X X X X}.}. X",
"}.}.}.}.}. X X}. X X X X}..X* P g.c.f.9.t.f.c.f.c.f.c.y.9.f.c.c.c.c.b.D.VXqXJXKXJX$.E m.d.8.x.m.m.m.m.b.U.JXKXnXT m.a.& }.}.}.}.}. X X X X X X X X X X X X}.}.~.",
"}.}.}.}.}. X X}. X X X X}.%Xd 2 p.p.c.t.8.f.c.c.f.c.c.p.8.f.c.f.f.f.m.`.rXqX6XIX5XyXW x.d.8.x.m.m.b.b.M.IXeXKXJXU b.7.*  X{.}.}.}. X}. X X X X X X X X X}.}.}.}.",
"}.}.}.}.}. X X}. X}. X.X X+X/.O 9.0.d.p.8.s.f.f.f.c.c.p.y.g.f.m.c.m.2.o BXtX5X3X9X;XD i.a.8.x.m.b.b.b.U.eX5XVXwXY.s.P 4 [.=.].|.}.}.}. X X X X X X X X X}.}.}.}.",
"}.}.}.}. X}. X}.}..X|.E. X X@X7 2 d.8.p.9.t.c.m.c.f.c.d.! `.kX/ ! m.2.< Y.IXwXwX4X  > R 0.9.b.b.b.b.m.l tXwX3X5XN E y 8 XXW.&.{.}. X X X X X X X X X X X}.}.}.}.",
"}.}. X X X X X}. XE.E.-.E.E.+X}.+ K p.8.t.9.d.S.C.c.c.c.Q MXMX/ ^ Y g.m.m.m.m.N.l.h.e.l.w.8.b.b.b.b.j.+ iXrXqX3X. T > B OX}.W.}.}. X}. X X X X X X X X X}.}.}.}.",
"}.}.~.}. X X X}..X=.W..XE.E. XOXT.X P s.8.9.t.M.Z.c.f.c.W A ^ / ^ A W b.i.a.c.c.b.b.M.b.y.d.m.m.b.b.b.b.e.k.U.e.U W t ^.+X}.}.}.}. X}. X X}. X X X X X}.}.}.}.}.",
"}.}.}.}.}. X}.}.}.}..X X}.}..X~.@X#.O D s.9.8.t.c.c.f.c.d.E W Y Y W g.m.3.  < a.m.M.u 1 y J L 7.w.a.c.p.8.s.u.kXMX/ Q +X}.}.}.}.}.}. X X X X X X X X X}.}.}.}.}.",
"}.|.}.}.}. X X}. X X}. X X X}.}.~.@XT.= 1 t.p.8.9.s.c.c.f.t.8.d.c.c.f.f.M.r   S L 2.              S f.c.1.1 8.Q ^ A U ^.}.}.}.}.}. X}. X X}. X X X}. X}.}.}.}.}.",
"}.}.}.}. X X}.}. X X}. X X}. X}.}.|.+X}.a O D t.y.9.t.s.c.d.9.0.f.c.f.f.f.M.i         .   .       % y u i G d.D > Y.}.}.}.}.}.}.}. X}. X}.}.}.}. X}.}.}.}. X}.}.",
"}.}.}. X X X X X}.}. X X X X X X X}.}..X%X%.6 % F R y.p.t.p.i.8.0.d.c.f.c.f.M.e.e .                   < 8.t.1 + %.OX}.}.}. X}.}.}. X X X}.}..X}.}.}.=.'.~.}. X}.",
"}.}.}. X X X X X}.}. X X X X X X X}.}.}.|.+X@X%.7 = > F T t.p.p.t.t.y.s.d.d.s.g.z.7.H r & $ $ & t J q.a.D O 6 ~.OX}.}.}.}.}.}.}. X X X X}.}.}..XE.=.E.E.&.}. X}.",
" X X X X X X X X.X}. X X X X X X X X}.}..X}.}..X#X}.@.a + % < S K T 8.t.y.p.p.y.y.s.c.b.b.z.z.a.7.G 1 $ 6 #.#X.X~..X X X}.}..X X X X X X}..X}..X].W.XX{.Q. X X X",
"}.}.}.}.}.}. X X X X X X X X X}.}. X}.}. X}. X}.~.+X#X@X4 >Xq 3 @ + X % > < 1 2 y y 2 1 < < > % = 6 f !.|.oX X X X|.}.}. X}.}. X}. X}.=.}..X}.}..X X X X X X X X",
" X}.}. X X X X X X}.}. X X X X X}. X X}. X}. X X X^.;.X._ v n _ { { v >X9 | g f d d d f g @.%.!..X#XoX[.-.E.-. X X}. X}.}. X X}.+X=.E.=.E.=..X}.}.}..X X X X X X",
" X X X X X X X|.|.-.Q.|.}. X X X X X X X X.XW.{.XX@.>.X.{ ) 4 { X.X.v :X' [.#X#X#X#X#X#X#XOXOX+X}.}.[.=.}.|.-. X X X.X X X X X X X=.W. XQ.E. X}. X X X X X X X X",
" X}.}. X X X+XQ.-.W.W.&. X X X X X}. X X{.].-.E.E.| { _ _ } @ ' _ _ 0 :X+.@.~.}.~.}.}.}.~.}.}.}.}.}.}.}.}.}..X X X}.}.}. X X}. X.X}.}. X.X}.}.}. X X X X}. X}. X",
"}.}.}.}.}. X X|.]..X}.[.}. X X}.}.}.}. XE.*.].|.+.0 ) 5 } 5 @ _ _ _ 0 :Xc T.+X}.}.}.}.}.}. X X XXX}. X X X X X X}.}.}.}.}. X}.}.}.}.}. X X X}.}. X X X X}.}.}.}.",
" X X X X X X X X.X X}..X}. X X X}.}.}..X{.~..X+X..6 aXkXk = # v v m n 1Xs @X X+X X+X}..X X X X X}..X X X X X X X X}.}..X X X X X X X X X X}.}..X X X X X X X X X",
" X X}. X X X X X}.}. X X X X X X.X}. X}. X X X XoX^.FXxX*XI b 7X7X:XC C d OX~.}. X X}.}. X X X X}..X}. X X X X X}.}.}.}.}.}. X X}.}.}. X X X X X X X X X X X}. X",
"}.}.}.}.}.}. X X}.}. X X X X X}.}.}.}. X}.}. X X+X@.kXxX=X*XI b ;X:Xb >X+.$X+X}.}.}.}.}.}. X X X}.}.}.}. X X X X}. X}.}.}.}.|.]. X.X}. X X X X X X X X X}.}.}.}.",
"}.}.}.}.}.}.}.}.}. X X X X X X}.}.}.}.|.}.}. X~.$XM dXDXxX_.(.hX1Xn uXHXV h ~.+X}.}.}.}.}.}. X X X X X X}.}.}.}.}.}.}.}.}.Q.[.&.Q.]..X X X}. X X X X X}.}.}.}.}.",
"}.}.}.}. X}.}.}. X X X X X X X}.}.}.}.}.}.}. X X@XB m FXGXpXLXKXZXNXKXfXV _.l ~.}.}.}.}.}.}. X X X X X X}.}..X}.}.}.}.}.}.*.W.{.=.E. X}. X X X X X X X}.}.}.}.}.",
"|.}.}.}.}..X}.}. X X X X X X}.}.}.}.}.}.}. X X~.XX%.z C sXCXKXPXsXaXZXCXZ NXZ #.@X}.}.}.}.}.}. X X X X X X X}.}.}.}.}.}.}.{.{. X|.}. X X X}. X X X X X}.}.}.}.}.",
"}.}.}.}.}.}.}.}.}. X X X X X X}.}.}.}.}.}.~. X}..X%.b :Xb hXKXCX).xXfXKXZXZXiXT.+X}.}.}.'.}. X X X X X X X X}.}.}.}.}.}.}. X X}.}. X X X}. X X X X X X}.|.}.}.}.",
"~. X X}.}.}.}.}. X X X X X X}.}.}.}.}.}.}.}.}.}.@X@.b <X7X;XNXfX=XsXAXKXAXZ :  .OX}.'.'.&.Q.W.}..X X X X}.}.}.}.}.}.}.}.}.}.}.}.}.}. X X X X X X X X X}.}.|.}.}.",
" X X}.}.}.}.}..X X X X X X X X}.}.}.}.}.}.}.}.~.OXd b :X:X7Xz s (.gXKXSXNXZ - g +X XE.*.|.W.&..X}.}. X X.X}.}.}.}.}.}.}.}.}.}.}.}. X}. X X X X X X X X}.}.}.}.}.",
"}.}.}.}.}..X}.{. X X X X X X}.}.}.}.}.}.}.}.}.}.|.6 n :X:X7X,XV $.hXLXZXZ ).nXg +X X{.~. X X|.}. X X X X}.}.}.}.}.}.}.}.}.}.}.}.}. X X X X X X X X X X}.}.}.}.}.",
"}.}.}.}.}.|.].*.{.}. X X X}. X|. X~.}.OX X~.}.}.%X8 : M M b x ^.XXT.(.M l cXFXsX/..X}.}.}. X.X X X X X X}.}.}.}.}.}.{.}.}.}.}.}.}. X}. X X}. X X X X X X}.}.}.}.",
"}.}.}.}. X-.E.W.-.=.+X X X X.X+XXXOX}.T.~.+X+X'.#.l 6.`.vXV a }. XOX}.g 6.=XDXSXT.+X}.}.}.}. X X X X X X X X}.}.}.}.}.}.}.}.}.}.}.}.}. X X X X X X X X X}.}.|.}.",
"}.}. X}. XW.|. X].|. X X X X+X#.f 6 s (.N N @.I `.=XzXbXnX$.+X+X X X X%X6.`.bXSX$.+X}.}. X X X X X X X X X X X}..X}.}.}.}.}.}.}. X}.}. X X X X X X X X X}.}. X X",
"}.}. X X X X X X X X X X X}.OXj dXx o 2XM x uX`.cXbXDXFXjXT.+X X X X~.OX#.).cXFX(.oX}.}.{.}. X X X X X X X X X}.}.}.}.}.}.}.}.}.}..X}. X X}. X X X X=.].}. X X X",
"}. X X X X X X X X X X X X}.OX%.fXpX. o ; ; Z sXDXAXsX(.^.OX X X X X+X+XE.6.=XbX(.o.%XOX#XOX X X X X X X X X X X}.}..X X}.}..X}. X X}. X X X}..XE.=.E.E.*. X X X",
" X X X X X X X X X X X X X X XR.Z gXZ hXZ ; M uX(.+.%.'.+X}.}..X X X X X+Xj ~ aXfX$.%.....%.OX+X}. X X X X X X X X X X X X X X X X X X X X X X XW.E.+X|.=.}. X X",
"}. X X X X X X X X X X X X X XOXB mXuXZXPXCX- 8 ,.oX-.Q.+X}.}.}. X X X XR.Z LXAXiX- V hXhX(.f ~. X}. X X X X X X}. X}. X}. X X X X X X X X X X X}..X}. X X X}. X",
" X X X X X X X X X X X X X X}.OX..hXuXNXPXKXgXh #X}.~. X.X X}.}. X X+X~.+X..x - o uXKXKXKXKXmXN OX X}. X}..X X X X X X X X X X X X X+X X X X X X X X X X X X X X",
"}. X X X X X X X X X X X X X.X X/.(.fXfXLXKXKXV }.}. X X}. X X}. X X+X+X~.j - ; M LXPXLXKXKXKXuX| OX}.}.}. X X X X}. X}. X X X X X X|. X X X X X X X X X X X X X",
"}. X}.}. X}. X X X X X X}..X}.}.XXV mXiXKXKXKXV {.}. X X X X X X X X}.OXT.uX~ o fXPXPXHXNXiXiXpXM '.XX}. X X X X}. X}.}.}.}.}. X{.{.&.W.{.}.}. X X X X}.}.}. X}.",
" X X X X X X X X X X X XXX'.~. X@XB hXpXZXKXZXg @X}. X X X X X X X X}. X^.N - o iXpXuXpXdXhXZXgXM T.OX}. X X X X X X X X}.}.}. X=.=.].Q.&..X}. X X X X X X X X X",
"}.}.}. X X X X X X X X].E.-.E.E.XXo.fXhXgXKXZ T.+X}. X X X X X X X X X X X* o C iXhXmXhXaX(.$.j T. X}.}. X X X X}.}.}. X}.}.}.}.{.{..X|.|..X X X X X X X X X}.}.",
"}.}.}.}. X X X X X X+X].-.}.].-.{.{.:.CX2X:. .OX}. X X X}. X X X X X X X~.M hXNXiX(.B  .%.R.XX@XOX X XXX X X X X}.}.}.}.}.}.}.}.}. X}. X X}. X X X X X X X}.}.}.",
"}.}.}.}.}.}. X}. X X X}.}.}.}.|.}.@Xj C a T.OX~. X X X X}. X X X}. X X}.+X .N  ...R.XXOXOX X X}. X X X X X X X}.}.}.}.}.}.}.}.}.}.}.}. X X X X X X X X X X X}.}.",
"}.}.}.}.}.}.}. X X X X X}.}. X}.}. XR.T.OXXX}.}.}. X X}.}. X X X}.}.}. X.X X XOXOX X}.}.}.}. X X X X X X X X}. X}.}.}.}.{.}.}.}.}.}.}.}. X X X X X X X X X}.}.}.",
"}.}.}.}.}.}.}.}. X X X X}.}.}.}.}.}.}.+X}.}.}.}.}. X X X}. X X X}.}.}.}.}.}.|.~.}.}.}.}.}.}.}.}. X X X X X X X}.}.}.}.}.}.}.}.}.}.}.}.}. X X X X X X X X|.}.}.}.",
"}.}.}.}.}.}.}. X X X X X.X}.}.}.}.}.}.}.}.}.}.}. X X X}.}. X X X}.}.}.}.}.}.}.}.}.}.}.}.}.}.}.}. X X X X X X X}.}.}.}.}.}.}.}.}.}.}.}.}. X}. X X X X X X}.}.}.}."
};
