/* XPM */
static char *New_Project__15__resized[] = {
/* columns rows colors chars-per-pixel */
"80 80 256 2 ",
"   c #010100",
".  c #0C0903",
"X  c #17150D",
"o  c #281B08",
"O  c #1A2707",
"+  c #1D2816",
"@  c #093114",
"#  c #2A2707",
"$  c #343602",
"%  c #29381A",
"&  c #2E2E0D",
"*  c #0E1A33",
"=  c #241E26",
"-  c #31342A",
";  c #152225",
":  c #462A01",
">  c #5D3300",
",  c #523301",
"<  c #4E3200",
"1  c #663800",
"2  c #743A00",
"3  c #6B1B00",
"4  c #115012",
"5  c #2E4D17",
"6  c #186F16",
"7  c #267019",
"8  c #364925",
"9  c #3B5429",
"0  c #2C522C",
"q  c #2C6936",
"w  c #494702",
"e  c #544A00",
"r  c #595800",
"t  c #685601",
"y  c #734B00",
"u  c #6A6600",
"i  c #7C6F00",
"p  c #435B2A",
"a  c #4B5737",
"s  c #6D5E24",
"d  c #4A6833",
"f  c #566A38",
"g  c #5A773C",
"h  c #4C6E2E",
"j  c #7D6929",
"k  c #1D3954",
"l  c #182F46",
"z  c #193B60",
"x  c #423A41",
"c  c #344958",
"v  c #2D744D",
"b  c #0D466C",
"n  c #274765",
"m  c #305173",
"M  c #2F617D",
"N  c #474443",
"B  c #59595A",
"V  c #615C49",
"C  c #546543",
"Z  c #686D4F",
"A  c #787777",
"S  c #717269",
"D  c #465C6F",
"F  c #D5392E",
"G  c #844A00",
"H  c #804700",
"J  c #885500",
"K  c #965800",
"L  c #916C02",
"P  c #A96800",
"I  c #B96B00",
"U  c #B46C01",
"Y  c #AC7504",
"T  c #976726",
"R  c #CB7B00",
"E  c #C67600",
"W  c #D17200",
"Q  c #E7750A",
"!  c #D04C1E",
"~  c #8A7B56",
"^  c #EE5D61",
"/  c #1B8315",
"(  c #289416",
")  c #2CB315",
"_  c #198C24",
"`  c #289827",
"'  c #308E29",
"]  c #2AA72A",
"[  c #31B42A",
"{  c #5E823E",
"}  c #6A8739",
"|  c #739739",
" . c #7DA63E",
".. c #44AB39",
"X. c #34CB2D",
"o. c #4DC537",
"O. c #36874A",
"+. c #588B44",
"@. c #668842",
"#. c #769848",
"$. c #728E4B",
"%. c #7CA349",
"&. c #6FB656",
"*. c #74B955",
"=. c #7CBB56",
"-. c #78BA58",
";. c #68AD4C",
":. c #7B8968",
">. c #4AAC41",
",. c #79C05A",
"<. c #919000",
"1. c #A89A00",
"2. c #AE8D04",
"3. c #B7B800",
"4. c #B0AD00",
"5. c #B29139",
"6. c #9F9630",
"7. c #D68400",
"8. c #DB8500",
"9. c #DD8A00",
"0. c #D68800",
"q. c #DB9600",
"w. c #CA8C01",
"e. c #E48D00",
"r. c #E98E00",
"t. c #E38100",
"y. c #E39300",
"u. c #EB9300",
"i. c #E39C00",
"p. c #EB9C00",
"a. c #F59B00",
"s. c #FC9E00",
"d. c #F49601",
"f. c #F88C11",
"g. c #CFB100",
"h. c #ECAD00",
"j. c #E9A500",
"k. c #FEA200",
"l. c #FEAC00",
"z. c #F3A800",
"x. c #E9B500",
"c. c #FEB300",
"v. c #FEBC00",
"b. c #F4B701",
"n. c #C48A39",
"m. c #D1CE00",
"M. c #EAC301",
"N. c #FFC300",
"B. c #FECB00",
"V. c #F3C500",
"C. c #FED300",
"Z. c #FEDC00",
"A. c #F4D700",
"S. c #FFC915",
"D. c #FEE200",
"F. c #FDEE00",
"G. c #F2EF00",
"H. c #FFF500",
"J. c #FEFD00",
"K. c #FFD929",
"L. c #899952",
"P. c #A2884F",
"I. c #86AB4B",
"U. c #8AB54A",
"Y. c #85A852",
"T. c #83BE56",
"R. c #8ABE55",
"E. c #84BE58",
"W. c #8CB453",
"Q. c #94BB54",
"!. c #91BD4A",
"~. c #898E73",
"^. c #AC9A75",
"/. c #94B06F",
"(. c #C8AE6E",
"). c #D9AE50",
"_. c #8CC156",
"`. c #8CC158",
"'. c #87C358",
"]. c #94C356",
"[. c #9AC457",
"{. c #94C458",
"}. c #9BC558",
"|. c #9ECA5A",
" X c #9BCA57",
".X c #9CD15C",
"XX c #A2CD5B",
"oX c #A0C757",
"OX c #A5D25C",
"+X c #A8D45D",
"@X c #ACDA62",
"#X c #F7CD74",
"$X c #E4D86B",
"%X c #2C5889",
"&X c #366596",
"*X c #34648C",
"=X c #366CA3",
"-X c #3C73A9",
";X c #3470AC",
":X c #365CA5",
">X c #6C7883",
",X c #4378AE",
"<X c #496B8C",
"1X c #807B89",
"2X c #F76D8A",
"3X c #0198BD",
"4X c #2FA1BC",
"5X c #4380BD",
"6X c #72898F",
"7X c #60D5AA",
"8X c #009EDB",
"9X c #03B2E6",
"0X c #27B7D7",
"qX c #4887C6",
"wX c #44B8C5",
"eX c #00C6FE",
"rX c #00CBFF",
"tX c #0CD1FF",
"yX c #1DE1FF",
"uX c #30D1DE",
"iX c #4CDCF7",
"pX c #42E6FF",
"aX c #6BD9EE",
"sX c #959593",
"dX c #8D8D89",
"fX c #AFAA92",
"gX c #A8A7A8",
"hX c #B6B3B2",
"jX c #9CA19D",
"kX c #D1B78A",
"lX c #F28A9A",
"zX c #F9D88D",
"xX c #FFEB93",
"cX c #FDE19C",
"vX c #FFEA89",
"bX c #CEC7B7",
"nX c #FFF6BE",
"mX c #FAE5B3",
"MX c #B8B9C3",
"NX c #C0BDC4",
"BX c #B3F6FF",
"VX c #A5ECC6",
"CX c #C7C7CA",
"ZX c #D8D7D9",
"AX c #D0CFCF",
"SX c #EBD6CD",
"DX c #FFF4CB",
"FX c #FFFFCA",
"GX c #FFFAC4",
"HX c #F8EBD3",
"JX c #E8E7E9",
"KX c #EBFFFF",
"LX c #FEFEFD",
"PX c #F5F6F6",
"IX c #FFF3EB",
"UX c #D8E9F0",
/* pixels */
"[.[.[.[.}.}.[.[.}.}.[.[.[.[.[.[.[.[.[.[.}.[.[.[.[.}.}.}.}.}.}.}.}.}.[.[.[.].[.[.[.[.[.[.[.[.[.[.[.}.}.}.}.}.}.[.[.[.}.[.[.].}.[.[.}.[.}.}.}.}.}.}.}.}.[.}.}.[.[.",
"[.[.[.[.[.}.[.}.}.}.[.[.[.}.[.[.[.[.[.[.}.].[.[.[.}.}.}.}.R.T.}.[.}.].[.XXXX[.[.[.[.[.[.[.[.[.[.}.}.}.}.}.}.}.[.[.[.}.}.[.[.[.[.}.}.}.}.}.[.}.}.}.}.[.[.R.T.}.[.",
"[.[.[.[.[.}.[.}.}.}.}.[.[.|.[.[.[.[.[.[.[.[.[.[.}.[.}.].*.T.=.=.R. XOXW.#.#.[.}.[.[.[.[.[.[.[.[.}.}.}.}.}.}.}.[.[.[.}.}.[.}.[.[.}.}.}.}.}.[.}.}.[.[.[.*.E.=.=._.",
"].[.[.[.}.}.[.}.}.}.].[.|.[.}.[.[.[.[.[.[.[.[.[.[.}.}.{.=.{.}.=.].[.p 5 4 4 5 Q.[.[.[.[.[.[.[.[.}.}.}.}.}.}.[.[.[.[.}.{.[.Q.[.[.{.}.}.}.}.}.}.}.[.[.[.=.].}.=.`.",
"[.[.[.}.}.}.}.}.`.`.&.R.R.}.}.}.[.[.}.}.[.}.[.}.}.}.}.}.}.[.].[..X9 4 ` ] ] _ p XX[.[.[.}.}.}.}.}.}.[.}.}.}.[.}.}.}.}.}.}.}.}.}.}.}.}.}.}.}.}.}.}.}.}. X}.}.}.[.",
"[.}.}.[.}.}.}.oX=.=.].E.*.}.}.}.[.[.}.[.}.[.}.}.}.}.}.}.[.[.}.OX#.4 ] ' ' ] X.6 } OX].[.[.}.}.}.}.}.[.|.}.}.}.[.}.}.}.}.[.}.}.}.}.}.}.}.}.}.}.}.}.}.}.}.}.}.[.[.",
"}.}.}.}.}.}.}.}.{.{.}.[.].}.}.}.}.}.[.}.}.}.}.}.}.}.}.}.}.}.[.XXL.4 ` ] ] ] [ X.0 [.}.[.}.}.}.}.}.}.}.[.}.}.}.}.}.}.}.}.}.].[.}.}.}.}.}.}.}.}.}.}.}.}.}.}.}.}.}.",
"}.}.}.}.}.}.}.}.}.}.}.}.}.}.}.}.}.}.}.}.}.}.}.}.}.}.}.}.}.}.[.[.oXh 4 _ ` ` ] X.7 } OX[.}.}.}.}.}.}.}.}.}.}.}.}.}.}.}.].].&.R.].}.}.}.}.}.}.}.}.}.}.}.[.}.}.}.}.",
"}.}.}.}.}.}.}.}.}.}.}.}.}.}.}.}.}.}.}.}.}.}.}.}.}.}.}.}.}.}.[.[.[. X#.5 4 ` ] [ ] h .X].[.[. X}.}.}.}.}.}.}.}.}.}.}.oXT.*.R.E.&.}.}.}.}.}.}.}.}.}.}.}.}.}.}.}.}.",
"}.}.}.}.}.}.}.}.}.}.}.}.}.}.}.}.}.}.}.}.}.}.}.}.}.}.}.}.}.}.}.[.[.T.-.{.9 4 ` ] ] 0 }. X[.}.`.'.}.}.}.}.}.}.}.}.}.}.}.].R.oX[.R.}.}.}.}.}.}.}.}.}.}.}.}.}.}.}.}.",
"}.}.}.}.}.}.}.}.}.}.}.}.}.}.}.}.}.[.}.[.}.}.[.}.}.}.}.}.[.}.[. XOX+X.X+X}.% 6 ` [ 5 oX[.].=.'.=.T.`.oX}.}.}.}.}.}.}.}.}.}.[.[.}.}.}.}.}.}.}.}.}.}.}.}.}.}.}.}.}.",
"[.[.[.[.[.}.}.}.}.}.}.}.}.}.}.}.[.[.[.[.[.[.[.[.}.}.}.}.}.OX+XW.@.d 9 % 8 @ 7 ` ] 5 W.OXXX*.].[.=.`.}.}.}.}.}.}.[.[.[.[.[.[.[.[.}.[.}.}.}.}.}.}.}.}.}.}.[.}.[.[.",
"}.}.[.}.}.}.[.}.}.}.}.}.}.}.}.}.[.}.}.}.[.[.}.[.}.[.}.+X[.@.% & e L 4.m.g.: 4 _ _ O $ 8 Z  X+X}.[.[.[.[.}.}.}.}.}.}.}.[.}.}.}.}.}.}.}.}.}.}.}.}.}.}.}.}.}.}.}.}.",
"[.[.[.[.}.}.}.}.}.}.}.}.}.}.}.}.[.[.[.}.}. XE.].[.XX}.g + r 4.G.J.J.J.J.H.g.t w w w.A.3.r & g XXXX[.}.}.}.}.}.}.[.[.[.[.}.[.[.[.}.}.}.}.}.}.}.}.}.}.}.}.}.[.[.[.",
"[.}.[.}.}.}.=.{.[.|.}.}.}.}.}.}.[.[.[.oX_.T.*.T.'.@.+ r m.J.J.J.J.C.V.J.J.J.J.J.J.H.H.J.J.m.r % %.+X[.[.}.}.}.}.[.[.[.[.[.[.[.[.}.}.}.}.}.}.}.}.}.}.}.}.[.}.[.[.",
"}.}.}.}.=.=.=.T.=.}.[.}.}.[.[.[.[.[.[.}.R.*. X X0 # m.J.D.C.J.Z.c.l.F.J.c.C.J.J.J.J.B.J.J.J.J.3.# f +X[.}. X[.[.[.[.[.[.[.[.[.[.].}.}.}.}.}.}.}.}.}.}.}.[.[.[.[.",
"}.[.].}.T.R.oXR.E.}.}.}.}.}.[.[.[.[.[.}.[.oXQ.+ u J.J.l.N.H.N.l.k.B.J.v.l.D.J.J.J.J.D.F.J.J.F.J.J.r 8 |.].]. X[.[.[.].[.[.[.[.[.[.[.[.}.}.[.[. X[.}.}.}.].[.[.[.",
"[.[.[.[.}.}.}.}.}.}.}.}.}.[.[.[.[.[.[.[.XXI.O <.J.B.s.v.H.b.k.c.l.F.B.k.c.C.J.J.J.J.J.B.H.J.J.Z.D.J.i % ,.,.'.[.[.[.[.[.[.[.[.[.[.}.}.}.}.[.[.[.}.}.}.}.[.[.[.[.",
"[.[.[.[.[.}.}.}.}.}.}.}.[.}.}.[.[.[.].oXI.X 3.J.l.s.z.H.c.k.l.l.x.D.l.c.c.v.J.J.J.J.J.V.N.B.B.H.B.B.J.<.+ .X*.].[.[.[.[.[.[.[.[.[.}.}.}.}.[.}.[.[.'.`.}.[.[.[.[.",
"[.[.[.[.[.}.}.}.}.}.[.}.}.}.}.[.[.[. XQ.X 3.H.k.l.p.A.c.k.l.c.a.A.N.l.c.c.c.Z.J.J.J.J.A.b.N.v.C.H.b.B.J.i 8 .X[.[.[.[.[.[.[.[.[.[.}.[.}.}.[.}.].=.=.E.-.].[.[.[.",
"[.}.}.}.}.}.[.}.].`.*.`.].[.[.[.[.{. X+ <.J.a.l.u.M.B.k.l.l.l.i.B.k.c.c.c.v.N.D.J.J.F.Z.h.B.B.N.D.A.c.B.J.r a +X[.[.[.[.[.].[.[.[.}.[.}.}.}.}.{.=.}.[.=.].[.[.[.",
"[.}.}.Q.[.}.[.oX=.=.`.E.*.}.[.[.].+X9 u J.k.k.a.i.C.s.k.k.c.a.h.N.k.l.c.c.v.N.v.C.D.N.Z.j.N.B.N.N.Z.h.N.C.J.$ $.XX].[.[.[.[.[.[.[.[.[.}.}.}.}.}.}.}.}.}.[.[.[.[.",
"[.[.[.[.}.}.}.}.].].oX{._.[.[.].XX$.$ H.k.k.k.e.V.l.k.l.l.l.u.M.l.k.l.c.v.v.N.N.N.B.N.C.x.b.B.B.v.C.M.z.N.Z.m.O Q. X[.[.[.[.[.[.[.}.[.}.}.}.}.}.}.}.}.}.[.[.[.[.",
"[.[.[.[.}.}.}.}.}. X}.}.}.[.[.[. X+ g.N.s.l.u.q.N.s.k.k.l.k.q.N.k.l.l.c.c.c.v.N.B.B.N.B.b.j.B.N.N.N.Z.i.N.v.J.<.9 +XQ.[.[.[.[.[.[.}.[.}.}.}. X[.}.}.}.}.[.[.[.[.",
"[.[.}.[.}.}.}.[.}.[.}.}.[.[.[.+Xf r Z.d.k.k.8.b.l.s.k.k.l.a.i.c.k.l.l.c.c.v.N.N.N.B.N.N.V.i.B.N.N.c.C.x.j.B.v.J.$ #.OXoX[.[.[.[.[.[.[.}.}.}.}.}.}.}.}.}.[.[.}.].",
"[.[.}.}.}.}.}.[.}.}.}.}.[.[.[.[.& m.l.s.k.r.q.c.s.k.k.k.l.e.j.l.k.k.l.l.c.v.v.N.N.N.N.v.B.y.v.B.N.N.N.V.e.N.c.D.4.8 +XQ.[.[.[.oX[.[.}.}.}.}.}.}.}.}.}.}.}.}.}.[.",
"[.[.[.[.}.}.}.}.}.}.}.}.[.[.OX@.r B.s.s.s.8.j.l.s.k.k.l.l.9.z.k.k.l.l.c.c.v.v.N.N.N.N.v.V.q.b.N.N.N.v.C.9.z.N.c.F.5 #.oX[.[.Q.T.[.}.}.}.}.}.}.}.}.}.}.}.}.}.[.}.",
"}.}.}.}.[.}.}.}.}.}.}.}.[.[.+X0 1.c.s.k.u.8.z.k.k.k.k.k.k.9.z.k.k.l.l.c.c.c.v.N.N.N.N.v.N.y.z.N.N.v.c.N.x.e.N.c.C.1.p OX[.T.T.=.T.R.oX}.}.}.}.}.}.}.}.}.}.}.}.}.",
"[.[.[.[.[.[.[. X}.}.}.}.}.|.Q.& h.s.s.k.e.9.l.s.k.s.k.l.a.9.l.s.k.l.l.c.c.v.v.N.v.v.N.v.v.i.p.N.v.v.v.v.b.0.b.v.v.A.$ W.[.=._.[.=.T.oX}.}.}.[.[.}.}.}.}.[.[.[.[.",
"}.}.[.[.}. X[.[.}.}.}.}.}.XX%.w c.s.k.s.8.y.l.s.s.k.k.k.u.9.k.k.k.k.l.l.c.c.v.c.N.N.v.c.v.i.i.N.v.v.v.c.v.9.j.v.c.Z.u g +X].[.[.[.[.}.}.}.}.}.}.}.}.}.}.}.}.}.}.",
"}.}.}.}.`.`.oX[.}.[.}.}.}.+XZ t c.s.s.a.8.u.k.s.k.s.k.k.y.9.k.k.k.l.l.c.c.c.c.B.M.c.N.v.v.i.y.v.v.N.v.c.N.y.y.c.b.B.1.9 +X[.[.[.}.}.}.}.[.}.[.T.[.}.}.}.}.}.}.}.",
"[.}.Q.T.=.T.T.].|.[.}.}.Q.+Xh L l.s.k.u.7.p.k.k.s.k.k.k.e.e.k.k.k.k.l.l.c.b.v.M.P i.v.c.c.p.e.N.c.c.v.c.v.i.8.v.v.c.b.5 ].[.[.[.}.}.}.}.}.E.E.-.E.T.}.}.[.[.[.[.",
"}. X`.*.].].-.].}.}.}.}.[.+Xd K l.s.k.u.7.u.k.k.s.k.s.k.8.r.k.k.k.k.l.l.c.c.B.# 1 8.c.c.c.p.9.v.v.v.c.c.c.j.e.j.j.c.B.w #.XX}.[.}.}.}.[.oX=.E.}.E.=.}.}.}.}.}.}.",
"}.}.[.[. X[.[.[.}.}.}.}.[.+Xd y k.s.k.r.7.d.k.s.k.s.k.k.8.r.k.s.k.k.l.l.l.v.2.; & E z.c.c.p.8.c.c.c.c.c.c.z.q.L y.c.v.r @.+X}.[.}.}.}.[.[.[.}.|.}.}.}.}.}.}.}.}.",
"}.}.}.}.[.[.}.}.}.}.}.}.[.OXg 1 k.s.s.u.7.d.k.s.s.k.k.s.8.u.k.s.k.k.l.l.c.K.UXLXZXY 0.c.l.y.9.c.c.c.c.c.c.l.y . 0.c.N.i g +X}.}.}.}.}.}.[.}.}.|.}.}.}.}.}.}.}.}.",
"}.}.[.[.[.[.[.}.}.}.}.}.[.XX#.: r.s.k.u.7.u.k.k.k.s.k.s.8.e.k.k.k.k.k.k.N.VXaXLXLXkXI l.c.u.8.c.c.c.c.c.l.v.~.B U z.N.L d +XQ.}.}.}.}.}.[.[.}.}.}.}.}.}.}.}.[.[.",
"}.}.[.[.}.}.}.[.}.}.}.}.}.}.].# E y.k.d.7.r.k.s.s.s.k.s.8.e.k.s.s.k.l.c.$XtXyXLXLXaXY u.c.e.9.c.c.c.c.l.l.$XKXLXn.y.N.J d +X].{.[.}.}.}.}.}.}.}.}.}.}.}.}.[.[.[.",
"}.}.[.[.[.}.[.[.}.}.}.}.}.[.+Xp G u.u.s.9.9.s.k.s.k.k.s.9.e.k.k.k.s.c.w.gXyX9X4X4XeXP.E l.e.9.l.c.c.c.l.S.iXBXLXfXR N.y d |.[.[.[.}.[.}.[.}.}.}.}.}.}.[.[.[.[.[.",
"[.[.[.[.}.[.[.[.}.}.}.}.}.}.oXI.o 7.8.u.r.8.a.k.k.k.k.s.y.8.f.f.d.k.V.# k BXpX8X9X9X: I p.e.y.c.l.c.l.l.zXrXaXBXwXR l.> v '.R.{.}.}.[.}.}.[.}.}.}.}.}.}.[.[.[.[.",
"[.[.[.[.[.}.}.[.[.}.[.E.}.}.[.OXd > d.7.9.8.r.v.N.k.s.k.t.^ PXlXF Q b.w.I +X7X7XuX0 . L 7.8.u.c.l.l.c.q.6XpX3X3X0XI e.: %.{.&.].}.[.}.}.}.}.}.}.}.}.}.}.[.[.[.[.",
"].}.[.[.}.}.[.}. XT.E.*.E.E.}.[. X% G d.7.8.8.l.C.c.k.k.r.F 2X2X^ F ! l.c.c.c.c.c.z.h.h.j.R p.l.l.l.N.u - BXeXeXb 2 E # ].[.`.}.[.}.}.}.}.}.}.}.}.}.}.[.[.[.[.[.",
"[.[.[.}.[.}.[.}.}.=._.}.E.E.}.[. XQ.+ G p.8.7.e.l.l.s.k.k.R ! F F F ! s.h.Y w.u.k.k.l.c.d.e.l.c.l.l.l.h.q.5.oXXXt L J d +X{.[.}.[.}.[.}.}.[.}.}.}.}.}.[.[.[.[.[.",
"[.[.[.[.[.}.[.[.[.[.[.}.}.}.}.[.[.}.Q.% > e.r.7.8.s.k.k.k.u.7.8.Q t.s.s.c.$   U l.B.L < y y P w.9.j.k.k.9.u.s.f.SX^ F 5.|.Q.[.[.[.}.}.}.}.[.}.}.[.[.[.[.[.[.[.[.",
"[.[.Q.}.[.}.[.}.}.}.}.}.}.}.}.[.[.[.oXXXp o P u.e.8.e.s.k.s.8.e.l.k.k.s.k.x.O o J Y $             : u.k.i.t w.! ^ ^ F P.|.[.[.[.}.}.}.}.}.[.}.}.[.[.[.[.[.[.[.[.",
"[.[.[.[.}.}.[.}.}.}.}.}.}.}.}.}.}.}.Q.}.+X#.% : P r.r.e.u.a.u.8.e.s.k.k.s.k.x.$       .   . .     X G K L e 7.r.3 T 5.{. X[.[.[.}.}.}.}.}.}.}.}.}.[. X[.}.[.[.[.",
"}.[.}.[.}.}.}.}.}.}.}.}.}.}.}.}.}.}.}.}.Q.OXXX} % : G R e.r.u.9.7.e.d.k.k.s.k.v.2.$                   . J a.7.# % `..X}.[.[.[.[.}.}.}.}.}.}.}.}.[.[.*.`.].[.[.[.",
"[.[.[.}.}.}.}.}.}.}.}.}.}.}.}.}.}.}.}.}.|.Q.Q.+XXX#.p & , J I t.u.u.r.d.d.d.u.r.u.i.2.L w $ # # : t Y i.7.1 X f |.}.}.}.[.[.[.[.}.}.}.}.}.}.[. XT.=.E.E.*.[.}.[.",
"}.}.}.}.}.}.}.}.}.}.}.}.}.}.}.}.}.}.}.}.}.}.}.}.XXW.Y.'.9 * ; $ < 2 K I E 8.e.e.e.r.s.k.k.z.p.p.q.E J < # p W.+X}.{.}.}.}.}.}.}.}.}.}.}.}.}.[.[._._.oX].E.}.}.}.",
"}.[.}.[.[.[.}.}.}.}.[.[.}.}.}.[.[.[.[.[.[.[. XXX#.{ [ >.( M *X6 6 6 @ * O # : < > > > 1 > > : $ & % 9 @.=.|.XX}.}.}.[.[.}.[.[.}.}.}.[.=.[.[.}.}.}.oX}.}.}.}.}.}.",
"}.[.[.}.[.[.}.}. X[.}.|.}.}.}.}.[.}.[.}.[.[.XXh 7 ) ) o.) v &X..o.o.' :XO...+.%.@.{ g g g @.#.I.Q.XX.X'.=.T.=.{.}.}.{.}.[.}.}.[.}.T.E.=.'.T.}.[.}.}.}.}.}.}.}.}.",
"}.}.}.}.}.}.}.{.{.-.E.{.[.}.}.}.}.}.}.}.}.|.`.Z C 7 ( ) ( 6 &X( [ [ ' :Xv o.+. X+X+X+XOX+XOXXXXX X}.'.=.}.{.=.[.}.}.}.}.}.}.}.}. X=._.}.T.=. X}.}.}.}.}.}.}.}.}.",
"}.[.}.}.[.[.oXE.-.R.R.&.}.}.}.[.}.}.}.}.].`.;.fXHXkX7 / 6 n <X( ) ) 7 =Xv ) { W. X].[.}.}.Q.[.[.}.[.[.[. X[.[.[.}.}.}.}.}.[.[.}.[.[.[.}.[.[.}.}.}.}.}.}.[.[.}.[.",
"[.}.[.[.}.[.}.Q.`. X[.E.[.}.}.}.[.[.[.oX'.,./.mXcXzXT 4 4 b *X/ ( ' q &XN 7 0 W. X[.[.[.[.}.}.}.}.}.}.}.}.}.}.}.[.[.[.[.}.[.}.[.[.[.}.}.}.}.}.}.}.}.}.}.}.}.[.[.",
"}.}.}.}.}.}.}.}.oX}.[.|.[.}.}.}.[.[.[.}. X%.bXmXzX).N k m >XD &X,X,Xm A B sX5 !.XX[.[.[.}.}.}.}.}.}.}.}.}.}.}.}.}.}.}.}.}.}.}.}.}.}.}.}.}.}.}.}.}.}.}.}.}.}.}.}.",
"}.}.[.}.}.[.}.}.}.}.}.}.}.}.}.[.[.[.[.[. XY.HXnXxXK.c :X&XB m ;X=X-Xm c S HX/.R.|.[.[.[.}.}.}.}.}.}.}.}.}.}.}.}.}.}.}.[.}.}.}.}.}.}.}.}.}.}.}.}.}.}.}.}.}.}.}.}.",
"].}.}.[.[.}.}.}.}.}.}.}.}.}.}.}.[.[.[.[.}.Y.hXfX^.5.n &X-X;Xm *X,X,X&X;X^.GXJXL.XX[.[.[.}.}.}.}.}.}.}.}.}.}.}.}.[.[.[.}.}.}.{.R.}.}.[.}.}.}.}.}.}.}.}.}.}.}.[.[.",
"[.[.[.[.[.}.}.[.}.}.}.}.}.}.}.}.[.[.Q.}.XX@.gXZXZXsXk *X-X-X%X,XqX,X=Xm #XcXbXS I.oXQ.oX[.[.[.}.}.}.}.}.}.}.}.[.[.[.[.[.[.R.T.*.E.`.}.[.[.[.}.}.}.}.}.[.[.[.[.[.",
"[.[.[.[.}.}.[.}.}.}.}.}.}.}.}.}.[.[.}.}.].~.LXLXLXIXc %X-X*Xk *X&X&X%Xc P.^.bXAX~.Q.OX[.[.[.[.}.}.}.}.}.}.}.[.[.[.[.[.[.[.&.R.].=.T.oX[.}.[.}.}.}.}.}.[.[.[.[.[.",
"[.[.[.[.[.}.[.[.}.}.}.}.}.}.}.}.}.[.}.|.!.~.LXAXhXZXD b =X5X%Xk %Xm n ;Xm ZXLXLXJXa W.}.[.[.[.}.}.}.}.}.}.}.}.[.[.[.[.[.[.].[.[.].[.}.}.}.}.}.}.}.}.}.[.[.[.[.[.",
"[.[.[.[.[.}.}.}.}.}.}.}.}.}.}.{.].}.}.Q.oX#.sX(.(.gXJXgX<X-XqXn k n =XqX&XgXPXZXdX^.f  XQ.[.}.}.}.}.}.}.}.}.[.[.[.[.[.[.[.[.[.[.[.[.}.}.}.[.}.}.}.}.[.[.[.[.[.[.",
"[.[.[.].[.}.[.}.}.}.}.}.}.}.}.}.[.[.[.}. XL.^.cXkXgXJXJX1X=XqX,Xl *X-X5X5X>XZXAXZ zXB  .-.R.`.}.}.}.}.}.}.}.[.[.].[.[.[.[.[.[.].[.}.[.}.}.}.}.}.}.}.}.}.[.[.[.[.",
"[.[.[.[.[.[.}. X}.}.}.}.}.}.}.}.[.[.[.}. X~.NXgXMXPXgXf Z *X;X:Xl n -X:X&Xk NXPXhX~.A sXU.`.&. X}.}.}.}.}.}.}.[.[.[.[.[.[.[.[.[.[.}.}.}.}.}.}.}.}.}.}.}.}.}.[.[.",
"[.[.[.[.[.}.[.{.}.}.}.}.}.}.[.Q.[.[.{.}. XL.LXLXPXJXNXsX(.z c S - l z 8 S - jXPXMX~ zX~.Y. X].}.}.}.}.}.}.}.[.[.[.[.[.[.[.[.[.[.[.[.[.}.}.{.}.}.}.}.}.}.}.}.{.}.",
"[.[.[.[.[.].`.*.].}.}.}.}.}.}.[.[.[.}.}. X#.NXZXZXhXNXJX- X ).FX~.. T #XnX~.Y.sXP.^.P.Z W. X}.}.}.}.}.}.[.[.[.[.[.[.[.[.[.[.[.[.[.}.}.}.}.}.}.}.}.}.}.[.Q.[.[.}.",
"[.[.[.[.}.*.T.R.=.=.oX}.}.}.}.}.}.}.Q.}.}.Q.$.A S :.f ~.8 p #XGXhX5.vXmXHXL.U.Z ~ zXV I.|.}.}.}.}.}.}.}.}.}.}.}.[.[.[.[.[.[.[.[.[.}.}.}.}.}.}.}.[.}.}.}.[.[.}.}.",
"[.[.}.}.}.R.].}.`.`.}.}.}.}.}.}.}.}.}.}.[.|.}.I.U.U.XX]..X6.#XDXAXkXnXFXbXW.I.(.^.f I.oX}.}.}.}.}.}.}.}.}.}.}.}.[.}.}.}.}.[.}.}.}.[.}.}.}.[.}.}.}.[.}.}.[.[.|. X",
"[.[.[.}.}.oX}.}.|.}.[.}.}.}.}.}.}.}.}.}.}.[.}.|.|.XXU.Z 9 j zXGXfXmXSX~.%.}.}.Y.L.}.oXoX[.|. X[.}.}.}.}.}.}.}.}.[.}.}.[.[.}.[.}.[.}.}.}.}.}.}.}.[.[.=.R.[.[.[.[.",
"[.[.}.}.}.}.}.}.[.[.|.}.}.}.}.}.}.}.}.}.}.}.[.[.|.W.S jX= T vXDXfXsX$.!.|.}.}.|. XoXQ.}.}.}.}.[.}.}.}.}.}.}.}.}.}.}.}.}.}.}.}.}.}.}.}.}.}.}.}.}.E.=.T.E.*.[.[.[.",
"}.}.}.}.}.}.}.}.}.}.}.}.}.}.}.}.}.}.}.}.}.}.].{.=.O x N = s kXDXS g @X X[.}.}.}.[.[.}.}.}.}.[.[.}.}.}.}.}.}.}.}.}.}.}.}.}.}.}.}.}.}.}.}.}.}.}.}.`.E.oX].=.[.}.}.",
"}.}.}.}.}.}.}.}.}.}.}.}.}.}.}.[.}.}.[.}.[.}.[.;.C A . = N gXjX~ B B } +X|.Q.}.}.[.}.[.}.}.[.[.[.}.}.}.}.}.}.}.}.}.}.[.}.[.[.}.}.}.}.}.}.}.}.}.}.}.}.}.}.}.[.}.}.",
"}.}.}.}.}.}.}.}.}.}.}.}.}.}.}.}.}.}.}.}.}.}.}.R.a gXAXB x x N = - dXS f U.XX[.}.}.}.}.}.[.[.[.[.}.}.}.}.}.}.}.}.}.}.}.}.}.}.}.}.}.}.}.}.}.}.}.}.}.}.}.}.}.}.}.}.",
"}.}.}.}.}.}.}.}.}.}.}.}.}.[.[.[.}.}.}.}.}.[.}.oX}.} A dXA - = 1XPXLXLXZXZ I.XX[.}.}.}.}.{.[.'.=.[.{.}.}.}.}.}.}.[.}.}.[.}.}.}.}.}.}.].}.oX}.}.}.}.}.}.}.}.}.}.[.",
"}.}.[.}.[.}.}.}.}.}.}.}.[.}.}.[.}.}.[.[.[.}.}.].}.+X| S S = A PXJXPXPXLXJXC [.[.[.}.[.}.].&.E.E.*.`.}.}.}.}.}.}.[.[.[.[.[.}.[.}.].].&.`.]. X[.}.}.}.}.[.}.}.[.}.",
"}.}.}.}.}.}.}.}.}.}.}.}.}.'.{.oX}.}.}.}.}.}.}.}.}.|.L..   = bXAXJXJXPXLXLXsX%.XX}.}.}.}.[.T.[.[.T.Q.}.}.}.}.}.}.|.[.}.}.}.}.}.}.=.=.`.E.*.}.[.[.}.}.}.}.}.}.}.}.",
"}.[.}.Q.}.}.}.}.}.}.}.R.T.=.T.E.{.}.[.}.}.[.[.}.}.XXf >X6XdXsXdXdXsXsXsXgXS } OX[.[.[.}.[.[.[.}.oX}.}.}.}.}.}.}.}.[.[.[.}.}.[.}.`.].}.[.].}.}.}.}.}.}.}.}.}.[.}.",
"[.}.}.}.}.}.}.}.}.}.oX`.*.[.].*.{.[.[.[.[.[.[.[.}.|.g A jXgXgXgXhXMXhXCXAX1Xf OX[.[.[.[.[.[.}.}.}.}.}.}.}.}.}.[.}.[.[.[.[.].[.[.}.}.[.[.}.}.}.}.}.}.}.}.}.}.].[.",
"[.[.].[.}.}.}.[.}.}.}.}.[.[.[.].[.[.[.[.[.[.[.[.}.|.Q.I.I.| | } } g g $.:.Z | XX[.[.[.[.[.}.}.}.}.}.}.}.}.}.}.[.}.}.[.[.[.Q.[.[.[.[.}.}.[.[.}.}.}.}.}. X|.}.}.}.",
"[.[.[.[.}.}.[.}.}.}.}.}.}.[.[.[.[.[.[.[.[.[.[.[.}.}.}.|.oXXXOXOXOXXXXXoX].[.}.Q.[.[.[.[.[.}.}.}.}.}.}.}.}.}.}.[.{.}.[.[.[.[.}.}.[.[.[.}.}.}.}.}.}.}.}.[.}.}.}.[.",
"[.[.[.[.[.[.[.}.}.}.}.}.}.}.[.[.[.[.[.[.}.}.Q.}.}.}.}.}.}.}.Q.}.[.Q.[.[.].[.[.[.[.[.[.[.[.}.[.}.}.}.}.}.}.}.[.[.}.[.[.[.[.[.[.[.[.}.[.}.}.[.}.}.}.}.}.[.}.Q.[.[.",
"[.[.[.[.}.}.}.[.}.}.}.}.[.}.[.[.[.[.[.[.[.[.}.}.}.}.}.}.}.}.}.oX[.[.[.].oX].[.[.[.[.[.].[.[.[.[.}.}.}.}.}.}.[.[.}.[.[.[.[.[.[.[.[.[.}.}.[.}.}.}.}.}.}.[.}.}.[.[."
};
